%TF.GenerationSoftware,KiCad,Pcbnew,8.0.3*%
%TF.CreationDate,2024-06-21T15:34:50+08:00*%
%TF.ProjectId,pcb,7063622e-6b69-4636-9164-5f7063625858,rev?*%
%TF.SameCoordinates,Original*%
%TF.FileFunction,Soldermask,Bot*%
%TF.FilePolarity,Negative*%
%FSLAX46Y46*%
G04 Gerber Fmt 4.6, Leading zero omitted, Abs format (unit mm)*
G04 Created by KiCad (PCBNEW 8.0.3) date 2024-06-21 15:34:50*
%MOMM*%
%LPD*%
G01*
G04 APERTURE LIST*
%ADD10C,1.400000*%
%ADD11O,1.400000X1.400000*%
%ADD12R,1.800000X1.800000*%
%ADD13C,1.800000*%
%ADD14C,2.050000*%
%ADD15C,2.250000*%
%ADD16C,1.600000*%
%ADD17C,2.600000*%
%ADD18R,3.000000X3.000000*%
%ADD19C,3.000000*%
%ADD20R,1.600000X1.600000*%
%ADD21C,3.200000*%
G04 APERTURE END LIST*
D10*
%TO.C,R2*%
X120500000Y-55000000D03*
D11*
X128120000Y-55000000D03*
%TD*%
D10*
%TO.C,R3*%
X152000000Y-64000000D03*
D11*
X159620000Y-64000000D03*
%TD*%
D12*
%TO.C,D6*%
X157500000Y-55500000D03*
D13*
X160040000Y-55500000D03*
%TD*%
D10*
%TO.C,R9*%
X141000000Y-96000000D03*
D11*
X148620000Y-96000000D03*
%TD*%
D10*
%TO.C,R4*%
X120500000Y-59000000D03*
D11*
X128120000Y-59000000D03*
%TD*%
D12*
%TO.C,D1*%
X151000000Y-55500000D03*
D13*
X153540000Y-55500000D03*
%TD*%
D10*
%TO.C,R10*%
X153500000Y-88000000D03*
D11*
X161120000Y-88000000D03*
%TD*%
D14*
%TO.C,J2*%
X175500000Y-64000000D03*
D15*
X172960000Y-61460000D03*
X172960000Y-66540000D03*
X178040000Y-61460000D03*
X178040000Y-66540000D03*
%TD*%
D16*
%TO.C,C8*%
X165300000Y-64000000D03*
X167800000Y-64000000D03*
%TD*%
D14*
%TO.C,J3*%
X175500000Y-86000000D03*
D15*
X172960000Y-83460000D03*
X172960000Y-88540000D03*
X178040000Y-83460000D03*
X178040000Y-88540000D03*
%TD*%
D17*
%TO.C,L1*%
X142500000Y-69500000D03*
X145500000Y-69500000D03*
%TD*%
D10*
%TO.C,R6*%
X131500000Y-59000000D03*
D11*
X139120000Y-59000000D03*
%TD*%
D16*
%TO.C,C10*%
X157000000Y-73500000D03*
X159500000Y-73500000D03*
%TD*%
D10*
%TO.C,R5*%
X102000000Y-68000000D03*
D11*
X109620000Y-68000000D03*
%TD*%
D18*
%TO.C,J1*%
X105000000Y-96000000D03*
D19*
X99920000Y-96000000D03*
%TD*%
D16*
%TO.C,C6*%
X151300000Y-73500000D03*
X153800000Y-73500000D03*
%TD*%
D12*
%TO.C,D4*%
X144500000Y-55500000D03*
D13*
X147040000Y-55500000D03*
%TD*%
D10*
%TO.C,R7*%
X115500000Y-94500000D03*
D11*
X123120000Y-94500000D03*
%TD*%
D10*
%TO.C,R8*%
X126500000Y-94500000D03*
D11*
X134120000Y-94500000D03*
%TD*%
D20*
%TO.C,C1*%
X90000000Y-92000000D03*
D16*
X92500000Y-92000000D03*
%TD*%
D18*
%TO.C,J4*%
X160000000Y-96000000D03*
D19*
X154920000Y-96000000D03*
%TD*%
D16*
%TO.C,C4*%
X157000000Y-68500000D03*
X159500000Y-68500000D03*
%TD*%
%TO.C,C2*%
X95000000Y-84000000D03*
X97500000Y-84000000D03*
%TD*%
D10*
%TO.C,R11*%
X141000000Y-92000000D03*
D11*
X148620000Y-92000000D03*
%TD*%
D21*
%TO.C,H1*%
X83000000Y-53000000D03*
%TD*%
%TO.C,H4*%
X83000000Y-97000000D03*
%TD*%
D20*
%TO.C,C7*%
X102000000Y-61000000D03*
D16*
X104500000Y-61000000D03*
%TD*%
D12*
%TO.C,D5*%
X164000000Y-55500000D03*
D13*
X166540000Y-55500000D03*
%TD*%
D21*
%TO.C,H3*%
X177000000Y-97000000D03*
%TD*%
D10*
%TO.C,R1*%
X131500000Y-55000000D03*
D11*
X139120000Y-55000000D03*
%TD*%
D16*
%TO.C,C9*%
X165300000Y-88000000D03*
X167800000Y-88000000D03*
%TD*%
%TO.C,C5*%
X110000000Y-59500000D03*
X112500000Y-59500000D03*
%TD*%
D21*
%TO.C,H2*%
X177000000Y-53000000D03*
%TD*%
D16*
%TO.C,C3*%
X151300000Y-68500000D03*
X153800000Y-68500000D03*
%TD*%
M02*
