%TF.GenerationSoftware,KiCad,Pcbnew,7.0.10*%
%TF.CreationDate,2024-06-02T12:02:55+08:00*%
%TF.ProjectId,pcb,7063622e-6b69-4636-9164-5f7063625858,rev?*%
%TF.SameCoordinates,Original*%
%TF.FileFunction,Copper,L2,Bot*%
%TF.FilePolarity,Positive*%
%FSLAX46Y46*%
G04 Gerber Fmt 4.6, Leading zero omitted, Abs format (unit mm)*
G04 Created by KiCad (PCBNEW 7.0.10) date 2024-06-02 12:02:55*
%MOMM*%
%LPD*%
G01*
G04 APERTURE LIST*
%TA.AperFunction,ComponentPad*%
%ADD10C,1.400000*%
%TD*%
%TA.AperFunction,ComponentPad*%
%ADD11O,1.400000X1.400000*%
%TD*%
%TA.AperFunction,ComponentPad*%
%ADD12R,1.800000X1.800000*%
%TD*%
%TA.AperFunction,ComponentPad*%
%ADD13C,1.800000*%
%TD*%
%TA.AperFunction,ComponentPad*%
%ADD14C,2.050000*%
%TD*%
%TA.AperFunction,ComponentPad*%
%ADD15C,2.250000*%
%TD*%
%TA.AperFunction,ComponentPad*%
%ADD16C,1.600000*%
%TD*%
%TA.AperFunction,ComponentPad*%
%ADD17C,2.600000*%
%TD*%
%TA.AperFunction,ComponentPad*%
%ADD18R,3.000000X3.000000*%
%TD*%
%TA.AperFunction,ComponentPad*%
%ADD19C,3.000000*%
%TD*%
%TA.AperFunction,ComponentPad*%
%ADD20R,1.600000X1.600000*%
%TD*%
%TA.AperFunction,ViaPad*%
%ADD21C,0.800000*%
%TD*%
%TA.AperFunction,Conductor*%
%ADD22C,0.400000*%
%TD*%
G04 APERTURE END LIST*
D10*
%TO.P,R2,1*%
%TO.N,/GNSS_PPS_B*%
X120500000Y-55000000D03*
D11*
%TO.P,R2,2*%
%TO.N,Net-(D4-A)*%
X128120000Y-55000000D03*
%TD*%
D10*
%TO.P,R3,1*%
%TO.N,Net-(C3-Pad2)*%
X152000000Y-64000000D03*
D11*
%TO.P,R3,2*%
%TO.N,/+3V3*%
X159620000Y-64000000D03*
%TD*%
D12*
%TO.P,D6,1,K*%
%TO.N,Net-(D6-K)*%
X157500000Y-55500000D03*
D13*
%TO.P,D6,2,A*%
%TO.N,/+3V3*%
X160040000Y-55500000D03*
%TD*%
D10*
%TO.P,R9,1*%
%TO.N,/+3V3*%
X141000000Y-96000000D03*
D11*
%TO.P,R9,2*%
%TO.N,/RS485_A*%
X148620000Y-96000000D03*
%TD*%
D10*
%TO.P,R4,1*%
%TO.N,/GNSS_RXD*%
X120500000Y-59000000D03*
D11*
%TO.P,R4,2*%
%TO.N,Net-(D5-K)*%
X128120000Y-59000000D03*
%TD*%
D12*
%TO.P,D1,1,K*%
%TO.N,GND*%
X151000000Y-55500000D03*
D13*
%TO.P,D1,2,A*%
%TO.N,Net-(D1-A)*%
X153540000Y-55500000D03*
%TD*%
D10*
%TO.P,R10,1*%
%TO.N,/RS485_B*%
X153500000Y-88000000D03*
D11*
%TO.P,R10,2*%
%TO.N,/RS485_A*%
X161120000Y-88000000D03*
%TD*%
D14*
%TO.P,J2,1,In*%
%TO.N,Net-(J2-In)*%
X175500000Y-64000000D03*
D15*
%TO.P,J2,2,Ext*%
%TO.N,GND*%
X172960000Y-61460000D03*
X172960000Y-66540000D03*
X178040000Y-61460000D03*
X178040000Y-66540000D03*
%TD*%
D16*
%TO.P,C8,1*%
%TO.N,Net-(C8-Pad1)*%
X165300000Y-64000000D03*
%TO.P,C8,2*%
%TO.N,Net-(J2-In)*%
X167800000Y-64000000D03*
%TD*%
D14*
%TO.P,J3,1,In*%
%TO.N,Net-(J2-In)*%
X175500000Y-86000000D03*
D15*
%TO.P,J3,2,Ext*%
%TO.N,GND*%
X172960000Y-83460000D03*
X172960000Y-88540000D03*
X178040000Y-83460000D03*
X178040000Y-88540000D03*
%TD*%
D17*
%TO.P,L1,1*%
%TO.N,Net-(C3-Pad2)*%
X142500000Y-69500000D03*
%TO.P,L1,2*%
%TO.N,Net-(J2-In)*%
X145500000Y-69500000D03*
%TD*%
D10*
%TO.P,R6,1*%
%TO.N,/GNSS_TXD*%
X131500000Y-59000000D03*
D11*
%TO.P,R6,2*%
%TO.N,Net-(D6-K)*%
X139120000Y-59000000D03*
%TD*%
D16*
%TO.P,C10,1*%
%TO.N,GND*%
X157000000Y-73500000D03*
%TO.P,C10,2*%
%TO.N,/+3V3*%
X159500000Y-73500000D03*
%TD*%
D10*
%TO.P,R5,1*%
%TO.N,/+3V3*%
X102000000Y-68000000D03*
D11*
%TO.P,R5,2*%
%TO.N,Net-(U2-RESET_N)*%
X109620000Y-68000000D03*
%TD*%
D18*
%TO.P,J1,1,Pin_1*%
%TO.N,Net-(D3-A)*%
X105000000Y-96000000D03*
D19*
%TO.P,J1,2,Pin_2*%
%TO.N,GND*%
X99920000Y-96000000D03*
%TD*%
D16*
%TO.P,C6,1*%
%TO.N,GND*%
X151300000Y-73500000D03*
%TO.P,C6,2*%
%TO.N,/+3V3*%
X153800000Y-73500000D03*
%TD*%
D12*
%TO.P,D4,1,K*%
%TO.N,GND*%
X144500000Y-55500000D03*
D13*
%TO.P,D4,2,A*%
%TO.N,Net-(D4-A)*%
X147040000Y-55500000D03*
%TD*%
D10*
%TO.P,R7,1*%
%TO.N,/GNSS_ANT_A*%
X115500000Y-94500000D03*
D11*
%TO.P,R7,2*%
%TO.N,Net-(C8-Pad1)*%
X123120000Y-94500000D03*
%TD*%
D10*
%TO.P,R8,1*%
%TO.N,/GNSS_ANT_B*%
X126500000Y-94500000D03*
D11*
%TO.P,R8,2*%
%TO.N,Net-(C9-Pad1)*%
X134120000Y-94500000D03*
%TD*%
D20*
%TO.P,C1,1*%
%TO.N,/Vin*%
X90000000Y-92000000D03*
D16*
%TO.P,C1,2*%
%TO.N,GND*%
X92500000Y-92000000D03*
%TD*%
D18*
%TO.P,J4,1,Pin_1*%
%TO.N,/RS485_A*%
X160000000Y-96000000D03*
D19*
%TO.P,J4,2,Pin_2*%
%TO.N,/RS485_B*%
X154920000Y-96000000D03*
%TD*%
D16*
%TO.P,C4,1*%
%TO.N,GND*%
X157000000Y-68500000D03*
%TO.P,C4,2*%
%TO.N,Net-(C3-Pad2)*%
X159500000Y-68500000D03*
%TD*%
%TO.P,C2,1*%
%TO.N,/+3V3*%
X95000000Y-84000000D03*
%TO.P,C2,2*%
%TO.N,GND*%
X97500000Y-84000000D03*
%TD*%
D10*
%TO.P,R11,1*%
%TO.N,/RS485_B*%
X141000000Y-92000000D03*
D11*
%TO.P,R11,2*%
%TO.N,GND*%
X148620000Y-92000000D03*
%TD*%
D20*
%TO.P,C7,1*%
%TO.N,/+3V3*%
X102000000Y-61000000D03*
D16*
%TO.P,C7,2*%
%TO.N,GND*%
X104500000Y-61000000D03*
%TD*%
D12*
%TO.P,D5,1,K*%
%TO.N,Net-(D5-K)*%
X164000000Y-55500000D03*
D13*
%TO.P,D5,2,A*%
%TO.N,/+3V3*%
X166540000Y-55500000D03*
%TD*%
D10*
%TO.P,R1,1*%
%TO.N,/GNSS_PPS_A*%
X131500000Y-55000000D03*
D11*
%TO.P,R1,2*%
%TO.N,Net-(D1-A)*%
X139120000Y-55000000D03*
%TD*%
D16*
%TO.P,C9,1*%
%TO.N,Net-(C9-Pad1)*%
X165300000Y-88000000D03*
%TO.P,C9,2*%
%TO.N,Net-(J2-In)*%
X167800000Y-88000000D03*
%TD*%
%TO.P,C5,1*%
%TO.N,/+3V3*%
X110000000Y-59500000D03*
%TO.P,C5,2*%
%TO.N,GND*%
X112500000Y-59500000D03*
%TD*%
%TO.P,C3,1*%
%TO.N,GND*%
X151300000Y-68500000D03*
%TO.P,C3,2*%
%TO.N,Net-(C3-Pad2)*%
X153800000Y-68500000D03*
%TD*%
D21*
%TO.N,GND*%
X117920000Y-81390000D03*
%TO.N,/GNSS_RXD*%
X114000000Y-77800000D03*
%TO.N,/GNSS_TXD*%
X114000000Y-79600000D03*
%TO.N,Net-(U4-RO)*%
X145960000Y-79190000D03*
X153390000Y-79110000D03*
%TD*%
D22*
%TO.N,/+3V3*%
X102000000Y-68000000D02*
X98370000Y-68000000D01*
X158300000Y-65320000D02*
X158300000Y-72300000D01*
X98370000Y-68000000D02*
X95000000Y-71370000D01*
X158300000Y-72300000D02*
X159500000Y-73500000D01*
X144960000Y-92040000D02*
X141000000Y-96000000D01*
X159620000Y-64000000D02*
X158300000Y-65320000D01*
X159500000Y-73500000D02*
X159500000Y-80830000D01*
X154300000Y-86030000D02*
X147840000Y-86030000D01*
X147840000Y-86030000D02*
X144960000Y-88910000D01*
X144960000Y-88910000D02*
X144960000Y-92040000D01*
X95000000Y-71370000D02*
X95000000Y-84000000D01*
X159500000Y-80830000D02*
X154300000Y-86030000D01*
%TO.N,Net-(C8-Pad1)*%
X165300000Y-64000000D02*
X164200000Y-62900000D01*
X134040000Y-62900000D02*
X123120000Y-73820000D01*
X164200000Y-62900000D02*
X134040000Y-62900000D01*
X123120000Y-73820000D02*
X123120000Y-94500000D01*
%TO.N,Net-(D6-K)*%
X143028051Y-54102000D02*
X156102000Y-54102000D01*
X139120000Y-59000000D02*
X139120000Y-58010051D01*
X139120000Y-58010051D02*
X143028051Y-54102000D01*
X156102000Y-54102000D02*
X157500000Y-55500000D01*
%TO.N,Net-(D5-K)*%
X162002000Y-53502000D02*
X131442365Y-53502000D01*
X128120000Y-56824365D02*
X128120000Y-59000000D01*
X164000000Y-55500000D02*
X162002000Y-53502000D01*
X131442365Y-53502000D02*
X128120000Y-56824365D01*
%TO.N,/RS485_A*%
X148620000Y-96000000D02*
X150520000Y-97900000D01*
X158100000Y-97900000D02*
X160000000Y-96000000D01*
X161120000Y-88000000D02*
X161120000Y-94880000D01*
X150520000Y-97900000D02*
X158100000Y-97900000D01*
%TO.N,/RS485_B*%
X153500000Y-88000000D02*
X153500000Y-94580000D01*
X153500000Y-94580000D02*
X154920000Y-96000000D01*
%TO.N,/GNSS_RXD*%
X114000000Y-65500000D02*
X120500000Y-59000000D01*
X114000000Y-77800000D02*
X114000000Y-65500000D01*
%TO.N,/GNSS_TXD*%
X120390000Y-60500000D02*
X130000000Y-60500000D01*
X114000000Y-79600000D02*
X114930000Y-78670000D01*
X114930000Y-65960000D02*
X120390000Y-60500000D01*
X130000000Y-60500000D02*
X131500000Y-59000000D01*
X114930000Y-78670000D02*
X114930000Y-65960000D01*
%TO.N,Net-(U4-RO)*%
X146040000Y-79110000D02*
X145960000Y-79190000D01*
X153390000Y-79110000D02*
X146040000Y-79110000D01*
%TD*%
%TA.AperFunction,Conductor*%
%TO.N,GND*%
G36*
X179942539Y-50020185D02*
G01*
X179988294Y-50072989D01*
X179999500Y-50124500D01*
X179999500Y-99875500D01*
X179979815Y-99942539D01*
X179927011Y-99988294D01*
X179875500Y-99999500D01*
X80124500Y-99999500D01*
X80057461Y-99979815D01*
X80011706Y-99927011D01*
X80000500Y-99875500D01*
X80000500Y-97067763D01*
X81145787Y-97067763D01*
X81175413Y-97337013D01*
X81175415Y-97337024D01*
X81238968Y-97580116D01*
X81243928Y-97599088D01*
X81349870Y-97848390D01*
X81445515Y-98005109D01*
X81490979Y-98079605D01*
X81490986Y-98079615D01*
X81664253Y-98287819D01*
X81664259Y-98287824D01*
X81794321Y-98404359D01*
X81865998Y-98468582D01*
X82091910Y-98618044D01*
X82337176Y-98733020D01*
X82337183Y-98733022D01*
X82337185Y-98733023D01*
X82596557Y-98811057D01*
X82596564Y-98811058D01*
X82596569Y-98811060D01*
X82864561Y-98850500D01*
X82864566Y-98850500D01*
X83067629Y-98850500D01*
X83067631Y-98850500D01*
X83067636Y-98850499D01*
X83067648Y-98850499D01*
X83105191Y-98847750D01*
X83270156Y-98835677D01*
X83382758Y-98810593D01*
X83534546Y-98776782D01*
X83534548Y-98776781D01*
X83534553Y-98776780D01*
X83787558Y-98680014D01*
X84023777Y-98547441D01*
X84238177Y-98381888D01*
X84426186Y-98186881D01*
X84583799Y-97966579D01*
X84657787Y-97822669D01*
X84707649Y-97725690D01*
X84707651Y-97725684D01*
X84707656Y-97725675D01*
X84795118Y-97469305D01*
X84844319Y-97202933D01*
X84854212Y-96932235D01*
X84824586Y-96662982D01*
X84756072Y-96400912D01*
X84650130Y-96151610D01*
X84557604Y-96000001D01*
X97914891Y-96000001D01*
X97935300Y-96285362D01*
X97996109Y-96564895D01*
X98096091Y-96832958D01*
X98233191Y-97084038D01*
X98233196Y-97084046D01*
X98339882Y-97226561D01*
X98339883Y-97226562D01*
X99235195Y-96331250D01*
X99257340Y-96382587D01*
X99363433Y-96525094D01*
X99499530Y-96639294D01*
X99589216Y-96684335D01*
X98693436Y-97580115D01*
X98835960Y-97686807D01*
X98835961Y-97686808D01*
X99087042Y-97823908D01*
X99087041Y-97823908D01*
X99355104Y-97923890D01*
X99634637Y-97984699D01*
X99919999Y-98005109D01*
X99920001Y-98005109D01*
X100205362Y-97984699D01*
X100484895Y-97923890D01*
X100752958Y-97823908D01*
X101004047Y-97686803D01*
X101146561Y-97580116D01*
X101146562Y-97580115D01*
X101111303Y-97544856D01*
X103199500Y-97544856D01*
X103199502Y-97544882D01*
X103202413Y-97569987D01*
X103202415Y-97569991D01*
X103247793Y-97672764D01*
X103247794Y-97672765D01*
X103327235Y-97752206D01*
X103430009Y-97797585D01*
X103455135Y-97800500D01*
X106544864Y-97800499D01*
X106544879Y-97800497D01*
X106544882Y-97800497D01*
X106569987Y-97797586D01*
X106569988Y-97797585D01*
X106569991Y-97797585D01*
X106672765Y-97752206D01*
X106752206Y-97672765D01*
X106797585Y-97569991D01*
X106800500Y-97544865D01*
X106800499Y-94500000D01*
X114494659Y-94500000D01*
X114513975Y-94696129D01*
X114571188Y-94884733D01*
X114664086Y-95058532D01*
X114664090Y-95058539D01*
X114789116Y-95210883D01*
X114941460Y-95335909D01*
X114941467Y-95335913D01*
X115115266Y-95428811D01*
X115115269Y-95428811D01*
X115115273Y-95428814D01*
X115303868Y-95486024D01*
X115500000Y-95505341D01*
X115696132Y-95486024D01*
X115884727Y-95428814D01*
X116058538Y-95335910D01*
X116210883Y-95210883D01*
X116335910Y-95058538D01*
X116428814Y-94884727D01*
X116486024Y-94696132D01*
X116505341Y-94500000D01*
X122114659Y-94500000D01*
X122133975Y-94696129D01*
X122191188Y-94884733D01*
X122284086Y-95058532D01*
X122284090Y-95058539D01*
X122409116Y-95210883D01*
X122561460Y-95335909D01*
X122561467Y-95335913D01*
X122735266Y-95428811D01*
X122735269Y-95428811D01*
X122735273Y-95428814D01*
X122923868Y-95486024D01*
X123120000Y-95505341D01*
X123316132Y-95486024D01*
X123504727Y-95428814D01*
X123678538Y-95335910D01*
X123830883Y-95210883D01*
X123955910Y-95058538D01*
X124048814Y-94884727D01*
X124106024Y-94696132D01*
X124125341Y-94500000D01*
X125494659Y-94500000D01*
X125513975Y-94696129D01*
X125571188Y-94884733D01*
X125664086Y-95058532D01*
X125664090Y-95058539D01*
X125789116Y-95210883D01*
X125941460Y-95335909D01*
X125941467Y-95335913D01*
X126115266Y-95428811D01*
X126115269Y-95428811D01*
X126115273Y-95428814D01*
X126303868Y-95486024D01*
X126500000Y-95505341D01*
X126696132Y-95486024D01*
X126884727Y-95428814D01*
X127058538Y-95335910D01*
X127210883Y-95210883D01*
X127335910Y-95058538D01*
X127428814Y-94884727D01*
X127486024Y-94696132D01*
X127505341Y-94500000D01*
X133114659Y-94500000D01*
X133133975Y-94696129D01*
X133191188Y-94884733D01*
X133284086Y-95058532D01*
X133284090Y-95058539D01*
X133409116Y-95210883D01*
X133561460Y-95335909D01*
X133561467Y-95335913D01*
X133735266Y-95428811D01*
X133735269Y-95428811D01*
X133735273Y-95428814D01*
X133923868Y-95486024D01*
X134120000Y-95505341D01*
X134316132Y-95486024D01*
X134504727Y-95428814D01*
X134678538Y-95335910D01*
X134830883Y-95210883D01*
X134955910Y-95058538D01*
X135048814Y-94884727D01*
X135106024Y-94696132D01*
X135125341Y-94500000D01*
X135106024Y-94303868D01*
X135048814Y-94115273D01*
X135048811Y-94115269D01*
X135048811Y-94115266D01*
X134955913Y-93941467D01*
X134955909Y-93941460D01*
X134830883Y-93789116D01*
X134678539Y-93664090D01*
X134678532Y-93664086D01*
X134504733Y-93571188D01*
X134504727Y-93571186D01*
X134316132Y-93513976D01*
X134316129Y-93513975D01*
X134120000Y-93494659D01*
X133923870Y-93513975D01*
X133735266Y-93571188D01*
X133561467Y-93664086D01*
X133561460Y-93664090D01*
X133409116Y-93789116D01*
X133284090Y-93941460D01*
X133284086Y-93941467D01*
X133191188Y-94115266D01*
X133133975Y-94303870D01*
X133114659Y-94500000D01*
X127505341Y-94500000D01*
X127486024Y-94303868D01*
X127428814Y-94115273D01*
X127428811Y-94115269D01*
X127428811Y-94115266D01*
X127335913Y-93941467D01*
X127335909Y-93941460D01*
X127210883Y-93789116D01*
X127058539Y-93664090D01*
X127058532Y-93664086D01*
X126884733Y-93571188D01*
X126884727Y-93571186D01*
X126696132Y-93513976D01*
X126696129Y-93513975D01*
X126500000Y-93494659D01*
X126303870Y-93513975D01*
X126115266Y-93571188D01*
X125941467Y-93664086D01*
X125941460Y-93664090D01*
X125789116Y-93789116D01*
X125664090Y-93941460D01*
X125664086Y-93941467D01*
X125571188Y-94115266D01*
X125513975Y-94303870D01*
X125494659Y-94500000D01*
X124125341Y-94500000D01*
X124106024Y-94303868D01*
X124048814Y-94115273D01*
X124048811Y-94115269D01*
X124048811Y-94115266D01*
X123955913Y-93941467D01*
X123955909Y-93941460D01*
X123830883Y-93789116D01*
X123678538Y-93664089D01*
X123675604Y-93662129D01*
X123674413Y-93660704D01*
X123673829Y-93660225D01*
X123673920Y-93660113D01*
X123630802Y-93608514D01*
X123620500Y-93559030D01*
X123620500Y-92000000D01*
X139994659Y-92000000D01*
X140013975Y-92196129D01*
X140013976Y-92196132D01*
X140071154Y-92384623D01*
X140071188Y-92384733D01*
X140164086Y-92558532D01*
X140164090Y-92558539D01*
X140289116Y-92710883D01*
X140441460Y-92835909D01*
X140441467Y-92835913D01*
X140615266Y-92928811D01*
X140615269Y-92928811D01*
X140615273Y-92928814D01*
X140803868Y-92986024D01*
X141000000Y-93005341D01*
X141196132Y-92986024D01*
X141384727Y-92928814D01*
X141558538Y-92835910D01*
X141710883Y-92710883D01*
X141835910Y-92558538D01*
X141908816Y-92422140D01*
X141928811Y-92384733D01*
X141928811Y-92384732D01*
X141928814Y-92384727D01*
X141986024Y-92196132D01*
X142005341Y-92000000D01*
X141986024Y-91803868D01*
X141928814Y-91615273D01*
X141928811Y-91615269D01*
X141928811Y-91615266D01*
X141835913Y-91441467D01*
X141835909Y-91441460D01*
X141710883Y-91289116D01*
X141558539Y-91164090D01*
X141558532Y-91164086D01*
X141384733Y-91071188D01*
X141384727Y-91071186D01*
X141196132Y-91013976D01*
X141196129Y-91013975D01*
X141000000Y-90994659D01*
X140803870Y-91013975D01*
X140615266Y-91071188D01*
X140441467Y-91164086D01*
X140441460Y-91164090D01*
X140289116Y-91289116D01*
X140164090Y-91441460D01*
X140164086Y-91441467D01*
X140071188Y-91615266D01*
X140013975Y-91803870D01*
X139994659Y-92000000D01*
X123620500Y-92000000D01*
X123620500Y-79190000D01*
X145254355Y-79190000D01*
X145274859Y-79358869D01*
X145274860Y-79358874D01*
X145335182Y-79517931D01*
X145391831Y-79600000D01*
X145431817Y-79657929D01*
X145468849Y-79690736D01*
X145559150Y-79770736D01*
X145709773Y-79849789D01*
X145709775Y-79849790D01*
X145874944Y-79890500D01*
X146045056Y-79890500D01*
X146210225Y-79849790D01*
X146289692Y-79808081D01*
X146360849Y-79770736D01*
X146360850Y-79770734D01*
X146360852Y-79770734D01*
X146488183Y-79657929D01*
X146488186Y-79657925D01*
X146493157Y-79652315D01*
X146495680Y-79654550D01*
X146538251Y-79620062D01*
X146586001Y-79610500D01*
X152851555Y-79610500D01*
X152918594Y-79630185D01*
X152933779Y-79641682D01*
X152989148Y-79690734D01*
X153139775Y-79769790D01*
X153304944Y-79810500D01*
X153475056Y-79810500D01*
X153640225Y-79769790D01*
X153719692Y-79728081D01*
X153790849Y-79690736D01*
X153790850Y-79690734D01*
X153790852Y-79690734D01*
X153918183Y-79577929D01*
X154014818Y-79437930D01*
X154075140Y-79278872D01*
X154095645Y-79110000D01*
X154075140Y-78941128D01*
X154074334Y-78939004D01*
X154014817Y-78782068D01*
X153966577Y-78712181D01*
X153918183Y-78642071D01*
X153790852Y-78529266D01*
X153790849Y-78529263D01*
X153640226Y-78450210D01*
X153475056Y-78409500D01*
X153304944Y-78409500D01*
X153139773Y-78450210D01*
X152989150Y-78529264D01*
X152933782Y-78578316D01*
X152870549Y-78608037D01*
X152851555Y-78609500D01*
X146391861Y-78609500D01*
X146334235Y-78595296D01*
X146210226Y-78530210D01*
X146045056Y-78489500D01*
X145874944Y-78489500D01*
X145709773Y-78530210D01*
X145559150Y-78609263D01*
X145431816Y-78722072D01*
X145335182Y-78862068D01*
X145274860Y-79021125D01*
X145274859Y-79021130D01*
X145254355Y-79190000D01*
X123620500Y-79190000D01*
X123620500Y-74078676D01*
X123640185Y-74011637D01*
X123656819Y-73990995D01*
X124147812Y-73500002D01*
X149995034Y-73500002D01*
X150014858Y-73726599D01*
X150014860Y-73726610D01*
X150073730Y-73946317D01*
X150073735Y-73946331D01*
X150169863Y-74152478D01*
X150220974Y-74225472D01*
X150902046Y-73544400D01*
X150914835Y-73625148D01*
X150972359Y-73738045D01*
X151061955Y-73827641D01*
X151174852Y-73885165D01*
X151255599Y-73897953D01*
X150574526Y-74579025D01*
X150647513Y-74630132D01*
X150647521Y-74630136D01*
X150853668Y-74726264D01*
X150853682Y-74726269D01*
X151073389Y-74785139D01*
X151073400Y-74785141D01*
X151299998Y-74804966D01*
X151300002Y-74804966D01*
X151526599Y-74785141D01*
X151526610Y-74785139D01*
X151746317Y-74726269D01*
X151746331Y-74726264D01*
X151952478Y-74630136D01*
X152025471Y-74579024D01*
X151344400Y-73897953D01*
X151425148Y-73885165D01*
X151538045Y-73827641D01*
X151627641Y-73738045D01*
X151685165Y-73625148D01*
X151697953Y-73544400D01*
X152379024Y-74225471D01*
X152430136Y-74152478D01*
X152526264Y-73946331D01*
X152526269Y-73946317D01*
X152534880Y-73914181D01*
X152571244Y-73854521D01*
X152634091Y-73823991D01*
X152703467Y-73832285D01*
X152757345Y-73876770D01*
X152766516Y-73894290D01*
X152766862Y-73894118D01*
X152860327Y-74081821D01*
X152983237Y-74244581D01*
X153133958Y-74381980D01*
X153133960Y-74381982D01*
X153233141Y-74443392D01*
X153307363Y-74489348D01*
X153497544Y-74563024D01*
X153698024Y-74600500D01*
X153698026Y-74600500D01*
X153901974Y-74600500D01*
X153901976Y-74600500D01*
X154102456Y-74563024D01*
X154292637Y-74489348D01*
X154466041Y-74381981D01*
X154616764Y-74244579D01*
X154739673Y-74081821D01*
X154830582Y-73899250D01*
X154886397Y-73703083D01*
X154905215Y-73500000D01*
X154899456Y-73437854D01*
X154886397Y-73296917D01*
X154876449Y-73261955D01*
X154830582Y-73100750D01*
X154739673Y-72918179D01*
X154680704Y-72840091D01*
X154616762Y-72755418D01*
X154466041Y-72618019D01*
X154466039Y-72618017D01*
X154292642Y-72510655D01*
X154292635Y-72510651D01*
X154197546Y-72473814D01*
X154102456Y-72436976D01*
X153901976Y-72399500D01*
X153698024Y-72399500D01*
X153497544Y-72436976D01*
X153497541Y-72436976D01*
X153497541Y-72436977D01*
X153307364Y-72510651D01*
X153307357Y-72510655D01*
X153133960Y-72618017D01*
X153133958Y-72618019D01*
X152983237Y-72755418D01*
X152860327Y-72918178D01*
X152766862Y-73105882D01*
X152765245Y-73105076D01*
X152727702Y-73153925D01*
X152661934Y-73177511D01*
X152593854Y-73161796D01*
X152545079Y-73111768D01*
X152534880Y-73085818D01*
X152526269Y-73053682D01*
X152526264Y-73053668D01*
X152430136Y-72847521D01*
X152430132Y-72847513D01*
X152379025Y-72774526D01*
X151697953Y-73455598D01*
X151685165Y-73374852D01*
X151627641Y-73261955D01*
X151538045Y-73172359D01*
X151425148Y-73114835D01*
X151344401Y-73102046D01*
X152025472Y-72420974D01*
X151952478Y-72369863D01*
X151746331Y-72273735D01*
X151746317Y-72273730D01*
X151526610Y-72214860D01*
X151526599Y-72214858D01*
X151300002Y-72195034D01*
X151299998Y-72195034D01*
X151073400Y-72214858D01*
X151073389Y-72214860D01*
X150853682Y-72273730D01*
X150853673Y-72273734D01*
X150647516Y-72369866D01*
X150647512Y-72369868D01*
X150574526Y-72420973D01*
X150574526Y-72420974D01*
X151255599Y-73102046D01*
X151174852Y-73114835D01*
X151061955Y-73172359D01*
X150972359Y-73261955D01*
X150914835Y-73374852D01*
X150902046Y-73455598D01*
X150220974Y-72774526D01*
X150220973Y-72774526D01*
X150169868Y-72847512D01*
X150169866Y-72847516D01*
X150073734Y-73053673D01*
X150073730Y-73053682D01*
X150014860Y-73273389D01*
X150014858Y-73273400D01*
X149995034Y-73499997D01*
X149995034Y-73500002D01*
X124147812Y-73500002D01*
X128147814Y-69500000D01*
X140894551Y-69500000D01*
X140914317Y-69751151D01*
X140973126Y-69996110D01*
X141069533Y-70228859D01*
X141201160Y-70443653D01*
X141201161Y-70443656D01*
X141201164Y-70443659D01*
X141364776Y-70635224D01*
X141513066Y-70761875D01*
X141556343Y-70798838D01*
X141556346Y-70798839D01*
X141771140Y-70930466D01*
X141909705Y-70987861D01*
X142003889Y-71026873D01*
X142248852Y-71085683D01*
X142500000Y-71105449D01*
X142751148Y-71085683D01*
X142996111Y-71026873D01*
X143228859Y-70930466D01*
X143443659Y-70798836D01*
X143635224Y-70635224D01*
X143798836Y-70443659D01*
X143894273Y-70287921D01*
X143946085Y-70241046D01*
X144015014Y-70229623D01*
X144079177Y-70257280D01*
X144105727Y-70287921D01*
X144201160Y-70443653D01*
X144201161Y-70443656D01*
X144201164Y-70443659D01*
X144364776Y-70635224D01*
X144513066Y-70761875D01*
X144556343Y-70798838D01*
X144556346Y-70798839D01*
X144771140Y-70930466D01*
X144909705Y-70987861D01*
X145003889Y-71026873D01*
X145248852Y-71085683D01*
X145500000Y-71105449D01*
X145751148Y-71085683D01*
X145996111Y-71026873D01*
X146228859Y-70930466D01*
X146443659Y-70798836D01*
X146635224Y-70635224D01*
X146798836Y-70443659D01*
X146930466Y-70228859D01*
X147026873Y-69996111D01*
X147085683Y-69751148D01*
X147105449Y-69500000D01*
X147085683Y-69248852D01*
X147026873Y-69003889D01*
X146983841Y-68900000D01*
X146930466Y-68771140D01*
X146798839Y-68556346D01*
X146798838Y-68556343D01*
X146750718Y-68500002D01*
X149995034Y-68500002D01*
X150014858Y-68726599D01*
X150014860Y-68726610D01*
X150073730Y-68946317D01*
X150073735Y-68946331D01*
X150169863Y-69152478D01*
X150220974Y-69225472D01*
X150902046Y-68544400D01*
X150914835Y-68625148D01*
X150972359Y-68738045D01*
X151061955Y-68827641D01*
X151174852Y-68885165D01*
X151255599Y-68897953D01*
X150574526Y-69579025D01*
X150647513Y-69630132D01*
X150647521Y-69630136D01*
X150853668Y-69726264D01*
X150853682Y-69726269D01*
X151073389Y-69785139D01*
X151073400Y-69785141D01*
X151299998Y-69804966D01*
X151300002Y-69804966D01*
X151526599Y-69785141D01*
X151526610Y-69785139D01*
X151746317Y-69726269D01*
X151746331Y-69726264D01*
X151952478Y-69630136D01*
X152025471Y-69579024D01*
X151344400Y-68897953D01*
X151425148Y-68885165D01*
X151538045Y-68827641D01*
X151627641Y-68738045D01*
X151685165Y-68625148D01*
X151697953Y-68544400D01*
X152379024Y-69225471D01*
X152430136Y-69152478D01*
X152526264Y-68946331D01*
X152526269Y-68946317D01*
X152534880Y-68914181D01*
X152571244Y-68854521D01*
X152634091Y-68823991D01*
X152703467Y-68832285D01*
X152757345Y-68876770D01*
X152766516Y-68894290D01*
X152766862Y-68894118D01*
X152860327Y-69081821D01*
X152983237Y-69244581D01*
X153133958Y-69381980D01*
X153133960Y-69381982D01*
X153233141Y-69443392D01*
X153307363Y-69489348D01*
X153497544Y-69563024D01*
X153698024Y-69600500D01*
X153698026Y-69600500D01*
X153901974Y-69600500D01*
X153901976Y-69600500D01*
X154102456Y-69563024D01*
X154292637Y-69489348D01*
X154466041Y-69381981D01*
X154616764Y-69244579D01*
X154739673Y-69081821D01*
X154830582Y-68899250D01*
X154886397Y-68703083D01*
X154905215Y-68500000D01*
X154886397Y-68296917D01*
X154830582Y-68100750D01*
X154825352Y-68090247D01*
X154776612Y-67992363D01*
X154739673Y-67918179D01*
X154653351Y-67803870D01*
X154616762Y-67755418D01*
X154466041Y-67618019D01*
X154466039Y-67618017D01*
X154292642Y-67510655D01*
X154292635Y-67510651D01*
X154126191Y-67446171D01*
X154102456Y-67436976D01*
X153901976Y-67399500D01*
X153698024Y-67399500D01*
X153497544Y-67436976D01*
X153497541Y-67436976D01*
X153497541Y-67436977D01*
X153307364Y-67510651D01*
X153307357Y-67510655D01*
X153133960Y-67618017D01*
X153133958Y-67618019D01*
X152983237Y-67755418D01*
X152860327Y-67918178D01*
X152766862Y-68105882D01*
X152765245Y-68105076D01*
X152727702Y-68153925D01*
X152661934Y-68177511D01*
X152593854Y-68161796D01*
X152545079Y-68111768D01*
X152534880Y-68085818D01*
X152526269Y-68053682D01*
X152526264Y-68053668D01*
X152430136Y-67847521D01*
X152430132Y-67847513D01*
X152379025Y-67774526D01*
X151697953Y-68455598D01*
X151685165Y-68374852D01*
X151627641Y-68261955D01*
X151538045Y-68172359D01*
X151425148Y-68114835D01*
X151344401Y-68102046D01*
X152025472Y-67420974D01*
X151952478Y-67369863D01*
X151746331Y-67273735D01*
X151746317Y-67273730D01*
X151526610Y-67214860D01*
X151526599Y-67214858D01*
X151300002Y-67195034D01*
X151299998Y-67195034D01*
X151073400Y-67214858D01*
X151073389Y-67214860D01*
X150853682Y-67273730D01*
X150853673Y-67273734D01*
X150647516Y-67369866D01*
X150647512Y-67369868D01*
X150574526Y-67420973D01*
X150574526Y-67420974D01*
X151255599Y-68102046D01*
X151174852Y-68114835D01*
X151061955Y-68172359D01*
X150972359Y-68261955D01*
X150914835Y-68374852D01*
X150902046Y-68455598D01*
X150220974Y-67774526D01*
X150220973Y-67774526D01*
X150169868Y-67847512D01*
X150169866Y-67847516D01*
X150073734Y-68053673D01*
X150073730Y-68053682D01*
X150014860Y-68273389D01*
X150014858Y-68273400D01*
X149995034Y-68499997D01*
X149995034Y-68500002D01*
X146750718Y-68500002D01*
X146750714Y-68499997D01*
X146635224Y-68364776D01*
X146508571Y-68256604D01*
X146443656Y-68201161D01*
X146443653Y-68201160D01*
X146228859Y-68069533D01*
X145996110Y-67973126D01*
X145751151Y-67914317D01*
X145500000Y-67894551D01*
X145248848Y-67914317D01*
X145003889Y-67973126D01*
X144771140Y-68069533D01*
X144556346Y-68201160D01*
X144556343Y-68201161D01*
X144364776Y-68364776D01*
X144201161Y-68556343D01*
X144201160Y-68556346D01*
X144105727Y-68712078D01*
X144053915Y-68758953D01*
X143984985Y-68770376D01*
X143920823Y-68742718D01*
X143894273Y-68712078D01*
X143798839Y-68556346D01*
X143798838Y-68556343D01*
X143750714Y-68499997D01*
X143635224Y-68364776D01*
X143508571Y-68256604D01*
X143443656Y-68201161D01*
X143443653Y-68201160D01*
X143228859Y-68069533D01*
X142996110Y-67973126D01*
X142751151Y-67914317D01*
X142500000Y-67894551D01*
X142248848Y-67914317D01*
X142003889Y-67973126D01*
X141771140Y-68069533D01*
X141556346Y-68201160D01*
X141556343Y-68201161D01*
X141364776Y-68364776D01*
X141201161Y-68556343D01*
X141201160Y-68556346D01*
X141069533Y-68771140D01*
X140973126Y-69003889D01*
X140914317Y-69248848D01*
X140894551Y-69500000D01*
X128147814Y-69500000D01*
X134210995Y-63436819D01*
X134272318Y-63403334D01*
X134298676Y-63400500D01*
X150979103Y-63400500D01*
X151046142Y-63420185D01*
X151091897Y-63472989D01*
X151101841Y-63542147D01*
X151088461Y-63582954D01*
X151071187Y-63615269D01*
X151013975Y-63803870D01*
X150994659Y-64000000D01*
X151013975Y-64196129D01*
X151071188Y-64384733D01*
X151164086Y-64558532D01*
X151164090Y-64558539D01*
X151289116Y-64710883D01*
X151441460Y-64835909D01*
X151441467Y-64835913D01*
X151615266Y-64928811D01*
X151615269Y-64928811D01*
X151615273Y-64928814D01*
X151803868Y-64986024D01*
X152000000Y-65005341D01*
X152196132Y-64986024D01*
X152384727Y-64928814D01*
X152386172Y-64928042D01*
X152558532Y-64835913D01*
X152558538Y-64835910D01*
X152710883Y-64710883D01*
X152835910Y-64558538D01*
X152928814Y-64384727D01*
X152986024Y-64196132D01*
X153005341Y-64000000D01*
X152986024Y-63803868D01*
X152928814Y-63615273D01*
X152911538Y-63582953D01*
X152897297Y-63514551D01*
X152922297Y-63449307D01*
X152978602Y-63407936D01*
X153020897Y-63400500D01*
X158599103Y-63400500D01*
X158666142Y-63420185D01*
X158711897Y-63472989D01*
X158721841Y-63542147D01*
X158708461Y-63582954D01*
X158691187Y-63615269D01*
X158633975Y-63803870D01*
X158614659Y-64000000D01*
X158633976Y-64196133D01*
X158634664Y-64199593D01*
X158634498Y-64201439D01*
X158634573Y-64202194D01*
X158634429Y-64202208D01*
X158628432Y-64269184D01*
X158600726Y-64311458D01*
X157993568Y-64918616D01*
X157972938Y-64935243D01*
X157968876Y-64937854D01*
X157968867Y-64937861D01*
X157936353Y-64975384D01*
X157930329Y-64981854D01*
X157920780Y-64991403D01*
X157912678Y-65002226D01*
X157907132Y-65009108D01*
X157874624Y-65046625D01*
X157874617Y-65046636D01*
X157872615Y-65051020D01*
X157859100Y-65073799D01*
X157856206Y-65077664D01*
X157856200Y-65077675D01*
X157838851Y-65124191D01*
X157835466Y-65132365D01*
X157814835Y-65177543D01*
X157814833Y-65177550D01*
X157814146Y-65182327D01*
X157807598Y-65207986D01*
X157805910Y-65212513D01*
X157805909Y-65212516D01*
X157802365Y-65262054D01*
X157801420Y-65270845D01*
X157799500Y-65284200D01*
X157799500Y-65297690D01*
X157799184Y-65306537D01*
X157795641Y-65356069D01*
X157795641Y-65356073D01*
X157796666Y-65360785D01*
X157799500Y-65387143D01*
X157799500Y-67243780D01*
X157779815Y-67310819D01*
X157727011Y-67356574D01*
X157657853Y-67366518D01*
X157623096Y-67356162D01*
X157446331Y-67273735D01*
X157446317Y-67273730D01*
X157226610Y-67214860D01*
X157226599Y-67214858D01*
X157000002Y-67195034D01*
X156999998Y-67195034D01*
X156773400Y-67214858D01*
X156773389Y-67214860D01*
X156553682Y-67273730D01*
X156553673Y-67273734D01*
X156347516Y-67369866D01*
X156347512Y-67369868D01*
X156274526Y-67420973D01*
X156274526Y-67420974D01*
X156955599Y-68102046D01*
X156874852Y-68114835D01*
X156761955Y-68172359D01*
X156672359Y-68261955D01*
X156614835Y-68374852D01*
X156602046Y-68455598D01*
X155920974Y-67774526D01*
X155920973Y-67774526D01*
X155869868Y-67847512D01*
X155869866Y-67847516D01*
X155773734Y-68053673D01*
X155773730Y-68053682D01*
X155714860Y-68273389D01*
X155714858Y-68273400D01*
X155695034Y-68499997D01*
X155695034Y-68500002D01*
X155714858Y-68726599D01*
X155714860Y-68726610D01*
X155773730Y-68946317D01*
X155773735Y-68946331D01*
X155869863Y-69152478D01*
X155920974Y-69225472D01*
X156602046Y-68544400D01*
X156614835Y-68625148D01*
X156672359Y-68738045D01*
X156761955Y-68827641D01*
X156874852Y-68885165D01*
X156955597Y-68897953D01*
X156274526Y-69579025D01*
X156347513Y-69630132D01*
X156347521Y-69630136D01*
X156553668Y-69726264D01*
X156553682Y-69726269D01*
X156773389Y-69785139D01*
X156773400Y-69785141D01*
X156999998Y-69804966D01*
X157000002Y-69804966D01*
X157226599Y-69785141D01*
X157226610Y-69785139D01*
X157446317Y-69726269D01*
X157446326Y-69726266D01*
X157623095Y-69643837D01*
X157692172Y-69633345D01*
X157755956Y-69661865D01*
X157794196Y-69720341D01*
X157799500Y-69756219D01*
X157799500Y-72232858D01*
X157796664Y-72259221D01*
X157795641Y-72263927D01*
X157794506Y-72269143D01*
X157761016Y-72330463D01*
X157699690Y-72363943D01*
X157629998Y-72358952D01*
X157620937Y-72355156D01*
X157446326Y-72273734D01*
X157446317Y-72273730D01*
X157226610Y-72214860D01*
X157226599Y-72214858D01*
X157000002Y-72195034D01*
X156999998Y-72195034D01*
X156773400Y-72214858D01*
X156773389Y-72214860D01*
X156553682Y-72273730D01*
X156553673Y-72273734D01*
X156347516Y-72369866D01*
X156347512Y-72369868D01*
X156274526Y-72420973D01*
X156274526Y-72420974D01*
X156955599Y-73102046D01*
X156874852Y-73114835D01*
X156761955Y-73172359D01*
X156672359Y-73261955D01*
X156614835Y-73374852D01*
X156602046Y-73455598D01*
X155920974Y-72774526D01*
X155920973Y-72774526D01*
X155869868Y-72847512D01*
X155869866Y-72847516D01*
X155773734Y-73053673D01*
X155773730Y-73053682D01*
X155714860Y-73273389D01*
X155714858Y-73273400D01*
X155695034Y-73499997D01*
X155695034Y-73500002D01*
X155714858Y-73726599D01*
X155714860Y-73726610D01*
X155773730Y-73946317D01*
X155773735Y-73946331D01*
X155869863Y-74152478D01*
X155920974Y-74225472D01*
X156602046Y-73544400D01*
X156614835Y-73625148D01*
X156672359Y-73738045D01*
X156761955Y-73827641D01*
X156874852Y-73885165D01*
X156955599Y-73897953D01*
X156274526Y-74579025D01*
X156347513Y-74630132D01*
X156347521Y-74630136D01*
X156553668Y-74726264D01*
X156553682Y-74726269D01*
X156773389Y-74785139D01*
X156773400Y-74785141D01*
X156999998Y-74804966D01*
X157000002Y-74804966D01*
X157226599Y-74785141D01*
X157226610Y-74785139D01*
X157446317Y-74726269D01*
X157446331Y-74726264D01*
X157652478Y-74630136D01*
X157725471Y-74579024D01*
X157044400Y-73897953D01*
X157125148Y-73885165D01*
X157238045Y-73827641D01*
X157327641Y-73738045D01*
X157385165Y-73625148D01*
X157397953Y-73544400D01*
X158079024Y-74225471D01*
X158130136Y-74152478D01*
X158226264Y-73946331D01*
X158226269Y-73946317D01*
X158234880Y-73914181D01*
X158271244Y-73854521D01*
X158334091Y-73823991D01*
X158403467Y-73832285D01*
X158457345Y-73876770D01*
X158466516Y-73894290D01*
X158466862Y-73894118D01*
X158560327Y-74081821D01*
X158683237Y-74244581D01*
X158833955Y-74381978D01*
X158833957Y-74381979D01*
X158833959Y-74381981D01*
X158940779Y-74448121D01*
X158987413Y-74500146D01*
X158999500Y-74553546D01*
X158999500Y-80571324D01*
X158979815Y-80638363D01*
X158963181Y-80659005D01*
X154129005Y-85493181D01*
X154067682Y-85526666D01*
X154041324Y-85529500D01*
X147907143Y-85529500D01*
X147880785Y-85526666D01*
X147876074Y-85525641D01*
X147876070Y-85525641D01*
X147826539Y-85529184D01*
X147817692Y-85529500D01*
X147804200Y-85529500D01*
X147798063Y-85530382D01*
X147790840Y-85531420D01*
X147782054Y-85532365D01*
X147732516Y-85535909D01*
X147732513Y-85535910D01*
X147727986Y-85537598D01*
X147702327Y-85544146D01*
X147697550Y-85544833D01*
X147697543Y-85544835D01*
X147652365Y-85565466D01*
X147644191Y-85568851D01*
X147597675Y-85586200D01*
X147597664Y-85586206D01*
X147593799Y-85589100D01*
X147571020Y-85602615D01*
X147566636Y-85604617D01*
X147566625Y-85604624D01*
X147529108Y-85637132D01*
X147522226Y-85642678D01*
X147511403Y-85650780D01*
X147501854Y-85660329D01*
X147495384Y-85666353D01*
X147457861Y-85698867D01*
X147457854Y-85698876D01*
X147455243Y-85702938D01*
X147438616Y-85723568D01*
X144653568Y-88508616D01*
X144632938Y-88525243D01*
X144628876Y-88527854D01*
X144628867Y-88527861D01*
X144596353Y-88565384D01*
X144590329Y-88571854D01*
X144580780Y-88581403D01*
X144572678Y-88592226D01*
X144567132Y-88599108D01*
X144534624Y-88636625D01*
X144534617Y-88636636D01*
X144532615Y-88641020D01*
X144519100Y-88663799D01*
X144516206Y-88667664D01*
X144516200Y-88667675D01*
X144498851Y-88714191D01*
X144495466Y-88722365D01*
X144474835Y-88767543D01*
X144474833Y-88767550D01*
X144474146Y-88772327D01*
X144467598Y-88797986D01*
X144465910Y-88802513D01*
X144465909Y-88802516D01*
X144462365Y-88852054D01*
X144461420Y-88860845D01*
X144459500Y-88874200D01*
X144459500Y-88887690D01*
X144459184Y-88896537D01*
X144455641Y-88946069D01*
X144455641Y-88946073D01*
X144456666Y-88950785D01*
X144459500Y-88977143D01*
X144459500Y-91781323D01*
X144439815Y-91848362D01*
X144423181Y-91869004D01*
X141311458Y-94980726D01*
X141250135Y-95014211D01*
X141199593Y-95014664D01*
X141196133Y-95013976D01*
X141000000Y-94994659D01*
X140803870Y-95013975D01*
X140615266Y-95071188D01*
X140441467Y-95164086D01*
X140441460Y-95164090D01*
X140289116Y-95289116D01*
X140164090Y-95441460D01*
X140164086Y-95441467D01*
X140071188Y-95615266D01*
X140013975Y-95803870D01*
X139994659Y-96000000D01*
X140013975Y-96196129D01*
X140013976Y-96196132D01*
X140061729Y-96353553D01*
X140071188Y-96384733D01*
X140164086Y-96558532D01*
X140164090Y-96558539D01*
X140289116Y-96710883D01*
X140441460Y-96835909D01*
X140441467Y-96835913D01*
X140615266Y-96928811D01*
X140615269Y-96928811D01*
X140615273Y-96928814D01*
X140803868Y-96986024D01*
X141000000Y-97005341D01*
X141196132Y-96986024D01*
X141384727Y-96928814D01*
X141558538Y-96835910D01*
X141710883Y-96710883D01*
X141835910Y-96558538D01*
X141928814Y-96384727D01*
X141986024Y-96196132D01*
X142005341Y-96000000D01*
X147614659Y-96000000D01*
X147633975Y-96196129D01*
X147633976Y-96196132D01*
X147681729Y-96353553D01*
X147691188Y-96384733D01*
X147784086Y-96558532D01*
X147784090Y-96558539D01*
X147909116Y-96710883D01*
X148061460Y-96835909D01*
X148061467Y-96835913D01*
X148235266Y-96928811D01*
X148235269Y-96928811D01*
X148235273Y-96928814D01*
X148423868Y-96986024D01*
X148620000Y-97005341D01*
X148816132Y-96986024D01*
X148819581Y-96985338D01*
X148821424Y-96985502D01*
X148822195Y-96985427D01*
X148822209Y-96985573D01*
X148889173Y-96991562D01*
X148931459Y-97019273D01*
X150118614Y-98206428D01*
X150135246Y-98227066D01*
X150137854Y-98231125D01*
X150137857Y-98231128D01*
X150175400Y-98263658D01*
X150181861Y-98269675D01*
X150191407Y-98279221D01*
X150191413Y-98279226D01*
X150191416Y-98279228D01*
X150202207Y-98287306D01*
X150209100Y-98292860D01*
X150246627Y-98325377D01*
X150251010Y-98327379D01*
X150273807Y-98340905D01*
X150277669Y-98343796D01*
X150324212Y-98361155D01*
X150332360Y-98364530D01*
X150359673Y-98377004D01*
X150377540Y-98385164D01*
X150377541Y-98385164D01*
X150377543Y-98385165D01*
X150382312Y-98385850D01*
X150408002Y-98392407D01*
X150412517Y-98394091D01*
X150462049Y-98397633D01*
X150470843Y-98398579D01*
X150484201Y-98400500D01*
X150497692Y-98400500D01*
X150506538Y-98400815D01*
X150556073Y-98404359D01*
X150560785Y-98403334D01*
X150587143Y-98400500D01*
X158032857Y-98400500D01*
X158059215Y-98403334D01*
X158063927Y-98404359D01*
X158113461Y-98400815D01*
X158122308Y-98400500D01*
X158135799Y-98400500D01*
X158149156Y-98398579D01*
X158157951Y-98397633D01*
X158207483Y-98394091D01*
X158211992Y-98392408D01*
X158237685Y-98385850D01*
X158242457Y-98385165D01*
X158287637Y-98364530D01*
X158295801Y-98361149D01*
X158342331Y-98343796D01*
X158346189Y-98340907D01*
X158368995Y-98327375D01*
X158373373Y-98325377D01*
X158410899Y-98292859D01*
X158417778Y-98287316D01*
X158428593Y-98279221D01*
X158438155Y-98269658D01*
X158444617Y-98263643D01*
X158482143Y-98231128D01*
X158484751Y-98227068D01*
X158501381Y-98206431D01*
X158870995Y-97836818D01*
X158932318Y-97803333D01*
X158958676Y-97800499D01*
X161544856Y-97800499D01*
X161544864Y-97800499D01*
X161544879Y-97800497D01*
X161544882Y-97800497D01*
X161569987Y-97797586D01*
X161569988Y-97797585D01*
X161569991Y-97797585D01*
X161672765Y-97752206D01*
X161752206Y-97672765D01*
X161797585Y-97569991D01*
X161800500Y-97544865D01*
X161800500Y-97067763D01*
X175145787Y-97067763D01*
X175175413Y-97337013D01*
X175175415Y-97337024D01*
X175238968Y-97580116D01*
X175243928Y-97599088D01*
X175349870Y-97848390D01*
X175445515Y-98005109D01*
X175490979Y-98079605D01*
X175490986Y-98079615D01*
X175664253Y-98287819D01*
X175664259Y-98287824D01*
X175794321Y-98404359D01*
X175865998Y-98468582D01*
X176091910Y-98618044D01*
X176337176Y-98733020D01*
X176337183Y-98733022D01*
X176337185Y-98733023D01*
X176596557Y-98811057D01*
X176596564Y-98811058D01*
X176596569Y-98811060D01*
X176864561Y-98850500D01*
X176864566Y-98850500D01*
X177067629Y-98850500D01*
X177067631Y-98850500D01*
X177067636Y-98850499D01*
X177067648Y-98850499D01*
X177105191Y-98847750D01*
X177270156Y-98835677D01*
X177382758Y-98810593D01*
X177534546Y-98776782D01*
X177534548Y-98776781D01*
X177534553Y-98776780D01*
X177787558Y-98680014D01*
X178023777Y-98547441D01*
X178238177Y-98381888D01*
X178426186Y-98186881D01*
X178583799Y-97966579D01*
X178657787Y-97822669D01*
X178707649Y-97725690D01*
X178707651Y-97725684D01*
X178707656Y-97725675D01*
X178795118Y-97469305D01*
X178844319Y-97202933D01*
X178854212Y-96932235D01*
X178824586Y-96662982D01*
X178756072Y-96400912D01*
X178650130Y-96151610D01*
X178509018Y-95920390D01*
X178419747Y-95813119D01*
X178335746Y-95712180D01*
X178335740Y-95712175D01*
X178134002Y-95531418D01*
X177908092Y-95381957D01*
X177908090Y-95381956D01*
X177662824Y-95266980D01*
X177662819Y-95266978D01*
X177662814Y-95266976D01*
X177403442Y-95188942D01*
X177403428Y-95188939D01*
X177287791Y-95171921D01*
X177135439Y-95149500D01*
X176932369Y-95149500D01*
X176932351Y-95149500D01*
X176729844Y-95164323D01*
X176729831Y-95164325D01*
X176465453Y-95223217D01*
X176465446Y-95223220D01*
X176212439Y-95319987D01*
X175976226Y-95452557D01*
X175976224Y-95452558D01*
X175976223Y-95452559D01*
X175932884Y-95486024D01*
X175761822Y-95618112D01*
X175573822Y-95813109D01*
X175573816Y-95813116D01*
X175416202Y-96033419D01*
X175416199Y-96033424D01*
X175292350Y-96274309D01*
X175292343Y-96274327D01*
X175204884Y-96530685D01*
X175204882Y-96530695D01*
X175158206Y-96783400D01*
X175155681Y-96797068D01*
X175155680Y-96797075D01*
X175145787Y-97067763D01*
X161800500Y-97067763D01*
X161800499Y-94455136D01*
X161800497Y-94455117D01*
X161797586Y-94430012D01*
X161797585Y-94430010D01*
X161797585Y-94430009D01*
X161752206Y-94327235D01*
X161672765Y-94247794D01*
X161672764Y-94247793D01*
X161664640Y-94239669D01*
X161665863Y-94238445D01*
X161630237Y-94194795D01*
X161620500Y-94146629D01*
X161620500Y-88940969D01*
X161640185Y-88873930D01*
X161675613Y-88837864D01*
X161678528Y-88835915D01*
X161678538Y-88835910D01*
X161830883Y-88710883D01*
X161955910Y-88558538D01*
X162048814Y-88384727D01*
X162106024Y-88196132D01*
X162125341Y-88000000D01*
X164194785Y-88000000D01*
X164213602Y-88203082D01*
X164269417Y-88399247D01*
X164269422Y-88399260D01*
X164360327Y-88581821D01*
X164483237Y-88744581D01*
X164633958Y-88881980D01*
X164633960Y-88881982D01*
X164728463Y-88940495D01*
X164807363Y-88989348D01*
X164997544Y-89063024D01*
X165198024Y-89100500D01*
X165198026Y-89100500D01*
X165401974Y-89100500D01*
X165401976Y-89100500D01*
X165602456Y-89063024D01*
X165792637Y-88989348D01*
X165966041Y-88881981D01*
X166116764Y-88744579D01*
X166239673Y-88581821D01*
X166330582Y-88399250D01*
X166386397Y-88203083D01*
X166405215Y-88000000D01*
X166694785Y-88000000D01*
X166713602Y-88203082D01*
X166769417Y-88399247D01*
X166769422Y-88399260D01*
X166860327Y-88581821D01*
X166983237Y-88744581D01*
X167133958Y-88881980D01*
X167133960Y-88881982D01*
X167228463Y-88940495D01*
X167307363Y-88989348D01*
X167497544Y-89063024D01*
X167698024Y-89100500D01*
X167698026Y-89100500D01*
X167901974Y-89100500D01*
X167901976Y-89100500D01*
X168102456Y-89063024D01*
X168292637Y-88989348D01*
X168466041Y-88881981D01*
X168616764Y-88744579D01*
X168739673Y-88581821D01*
X168760497Y-88540000D01*
X171329975Y-88540000D01*
X171350042Y-88794989D01*
X171409752Y-89043702D01*
X171507634Y-89280012D01*
X171507636Y-89280015D01*
X171641277Y-89498098D01*
X171641284Y-89498107D01*
X171644533Y-89501912D01*
X172208766Y-88937678D01*
X172252316Y-89019822D01*
X172372009Y-89160735D01*
X172519195Y-89272623D01*
X172561402Y-89292150D01*
X171998087Y-89855465D01*
X172001897Y-89858719D01*
X172219984Y-89992363D01*
X172219987Y-89992365D01*
X172456297Y-90090247D01*
X172705011Y-90149957D01*
X172705010Y-90149957D01*
X172960000Y-90170024D01*
X173214989Y-90149957D01*
X173463702Y-90090247D01*
X173700012Y-89992365D01*
X173700015Y-89992363D01*
X173918095Y-89858724D01*
X173918110Y-89858713D01*
X173921911Y-89855466D01*
X173921911Y-89855464D01*
X173358609Y-89292161D01*
X173477431Y-89220669D01*
X173611658Y-89093523D01*
X173714861Y-88941308D01*
X174275464Y-89501911D01*
X174275466Y-89501911D01*
X174278713Y-89498110D01*
X174278724Y-89498095D01*
X174412363Y-89280015D01*
X174412365Y-89280012D01*
X174510247Y-89043702D01*
X174569957Y-88794989D01*
X174590024Y-88540000D01*
X176409975Y-88540000D01*
X176430042Y-88794989D01*
X176489752Y-89043702D01*
X176587634Y-89280012D01*
X176587636Y-89280015D01*
X176721277Y-89498098D01*
X176721284Y-89498107D01*
X176724533Y-89501912D01*
X177288766Y-88937678D01*
X177332316Y-89019822D01*
X177452009Y-89160735D01*
X177599195Y-89272623D01*
X177641402Y-89292150D01*
X177078087Y-89855465D01*
X177081897Y-89858719D01*
X177299984Y-89992363D01*
X177299987Y-89992365D01*
X177536297Y-90090247D01*
X177785011Y-90149957D01*
X177785010Y-90149957D01*
X178040000Y-90170024D01*
X178294989Y-90149957D01*
X178543702Y-90090247D01*
X178780012Y-89992365D01*
X178780015Y-89992363D01*
X178998095Y-89858724D01*
X178998110Y-89858713D01*
X179001911Y-89855466D01*
X179001911Y-89855464D01*
X178438609Y-89292161D01*
X178557431Y-89220669D01*
X178691658Y-89093523D01*
X178794861Y-88941308D01*
X179355464Y-89501911D01*
X179355466Y-89501911D01*
X179358713Y-89498110D01*
X179358724Y-89498095D01*
X179492363Y-89280015D01*
X179492365Y-89280012D01*
X179590247Y-89043702D01*
X179649957Y-88794989D01*
X179670024Y-88540000D01*
X179649957Y-88285010D01*
X179590247Y-88036297D01*
X179492365Y-87799987D01*
X179492363Y-87799984D01*
X179358719Y-87581897D01*
X179355465Y-87578087D01*
X178791232Y-88142319D01*
X178747684Y-88060178D01*
X178627991Y-87919265D01*
X178480805Y-87807377D01*
X178438596Y-87787849D01*
X179001912Y-87224533D01*
X178998107Y-87221284D01*
X178998098Y-87221277D01*
X178780015Y-87087636D01*
X178780012Y-87087634D01*
X178543702Y-86989752D01*
X178294988Y-86930042D01*
X178294989Y-86930042D01*
X178040000Y-86909975D01*
X177785010Y-86930042D01*
X177536297Y-86989752D01*
X177299987Y-87087634D01*
X177299984Y-87087636D01*
X177081893Y-87221282D01*
X177078086Y-87224532D01*
X177641391Y-87787837D01*
X177522569Y-87859331D01*
X177388342Y-87986477D01*
X177285138Y-88138692D01*
X176724532Y-87578086D01*
X176721282Y-87581893D01*
X176587636Y-87799984D01*
X176587634Y-87799987D01*
X176489752Y-88036297D01*
X176430042Y-88285010D01*
X176409975Y-88540000D01*
X174590024Y-88540000D01*
X174569957Y-88285010D01*
X174510247Y-88036297D01*
X174412365Y-87799987D01*
X174412363Y-87799984D01*
X174278719Y-87581897D01*
X174275465Y-87578087D01*
X173711232Y-88142319D01*
X173667684Y-88060178D01*
X173547991Y-87919265D01*
X173400805Y-87807377D01*
X173358596Y-87787849D01*
X173921912Y-87224533D01*
X173918107Y-87221284D01*
X173918098Y-87221277D01*
X173700015Y-87087636D01*
X173700012Y-87087634D01*
X173463702Y-86989752D01*
X173214988Y-86930042D01*
X173214989Y-86930042D01*
X172960000Y-86909975D01*
X172705010Y-86930042D01*
X172456297Y-86989752D01*
X172219987Y-87087634D01*
X172219984Y-87087636D01*
X172001893Y-87221282D01*
X171998086Y-87224532D01*
X172561391Y-87787837D01*
X172442569Y-87859331D01*
X172308342Y-87986477D01*
X172205138Y-88138691D01*
X171644532Y-87578086D01*
X171641282Y-87581893D01*
X171507636Y-87799984D01*
X171507634Y-87799987D01*
X171409752Y-88036297D01*
X171350042Y-88285010D01*
X171329975Y-88540000D01*
X168760497Y-88540000D01*
X168830582Y-88399250D01*
X168886397Y-88203083D01*
X168905215Y-88000000D01*
X168886397Y-87796917D01*
X168830582Y-87600750D01*
X168821194Y-87581897D01*
X168751265Y-87441460D01*
X168739673Y-87418179D01*
X168616764Y-87255421D01*
X168616762Y-87255418D01*
X168466041Y-87118019D01*
X168466039Y-87118017D01*
X168292642Y-87010655D01*
X168292635Y-87010651D01*
X168197546Y-86973814D01*
X168102456Y-86936976D01*
X167901976Y-86899500D01*
X167698024Y-86899500D01*
X167497544Y-86936976D01*
X167497541Y-86936976D01*
X167497541Y-86936977D01*
X167307364Y-87010651D01*
X167307357Y-87010655D01*
X167133960Y-87118017D01*
X167133958Y-87118019D01*
X166983237Y-87255418D01*
X166860327Y-87418178D01*
X166769422Y-87600739D01*
X166769417Y-87600752D01*
X166713602Y-87796917D01*
X166694785Y-87999999D01*
X166694785Y-88000000D01*
X166405215Y-88000000D01*
X166386397Y-87796917D01*
X166330582Y-87600750D01*
X166321194Y-87581897D01*
X166251265Y-87441460D01*
X166239673Y-87418179D01*
X166116764Y-87255421D01*
X166116762Y-87255418D01*
X165966041Y-87118019D01*
X165966039Y-87118017D01*
X165792642Y-87010655D01*
X165792635Y-87010651D01*
X165697546Y-86973814D01*
X165602456Y-86936976D01*
X165401976Y-86899500D01*
X165198024Y-86899500D01*
X164997544Y-86936976D01*
X164997541Y-86936976D01*
X164997541Y-86936977D01*
X164807364Y-87010651D01*
X164807357Y-87010655D01*
X164633960Y-87118017D01*
X164633958Y-87118019D01*
X164483237Y-87255418D01*
X164360327Y-87418178D01*
X164269422Y-87600739D01*
X164269417Y-87600752D01*
X164213602Y-87796917D01*
X164194785Y-87999999D01*
X164194785Y-88000000D01*
X162125341Y-88000000D01*
X162106024Y-87803868D01*
X162048814Y-87615273D01*
X162048811Y-87615269D01*
X162048811Y-87615266D01*
X161955913Y-87441467D01*
X161955909Y-87441460D01*
X161830883Y-87289116D01*
X161678539Y-87164090D01*
X161678532Y-87164086D01*
X161504733Y-87071188D01*
X161504727Y-87071186D01*
X161316132Y-87013976D01*
X161316129Y-87013975D01*
X161120000Y-86994659D01*
X160923870Y-87013975D01*
X160735266Y-87071188D01*
X160561467Y-87164086D01*
X160561460Y-87164090D01*
X160409116Y-87289116D01*
X160284090Y-87441460D01*
X160284086Y-87441467D01*
X160191188Y-87615266D01*
X160133975Y-87803870D01*
X160114659Y-88000000D01*
X160133975Y-88196129D01*
X160191188Y-88384733D01*
X160284086Y-88558532D01*
X160284090Y-88558539D01*
X160409116Y-88710883D01*
X160561457Y-88835906D01*
X160561462Y-88835910D01*
X160561466Y-88835912D01*
X160564387Y-88837864D01*
X160565576Y-88839286D01*
X160566171Y-88839775D01*
X160566078Y-88839887D01*
X160609194Y-88891475D01*
X160619500Y-88940969D01*
X160619500Y-94075500D01*
X160599815Y-94142539D01*
X160547011Y-94188294D01*
X160495500Y-94199500D01*
X158455143Y-94199500D01*
X158455117Y-94199502D01*
X158430012Y-94202413D01*
X158430008Y-94202415D01*
X158327235Y-94247793D01*
X158247794Y-94327234D01*
X158202415Y-94430006D01*
X158202415Y-94430008D01*
X158199500Y-94455131D01*
X158199500Y-97041323D01*
X158179815Y-97108362D01*
X158163181Y-97129004D01*
X157929005Y-97363181D01*
X157867682Y-97396666D01*
X157841324Y-97399500D01*
X156364350Y-97399500D01*
X156297311Y-97379815D01*
X156251556Y-97327011D01*
X156241612Y-97257853D01*
X156267401Y-97198189D01*
X156411815Y-97017102D01*
X156546743Y-96783398D01*
X156645334Y-96532195D01*
X156705383Y-96269103D01*
X156722215Y-96044491D01*
X156725549Y-96000004D01*
X156725549Y-95999995D01*
X156705383Y-95730898D01*
X156695715Y-95688539D01*
X156645334Y-95467805D01*
X156546743Y-95216602D01*
X156411815Y-94982898D01*
X156243561Y-94771915D01*
X156243560Y-94771914D01*
X156243557Y-94771910D01*
X156045741Y-94588365D01*
X155980567Y-94543930D01*
X155822775Y-94436349D01*
X155822771Y-94436347D01*
X155822768Y-94436345D01*
X155822767Y-94436344D01*
X155579643Y-94319263D01*
X155579645Y-94319263D01*
X155321773Y-94239720D01*
X155321767Y-94239718D01*
X155054936Y-94199500D01*
X155054929Y-94199500D01*
X154785071Y-94199500D01*
X154785063Y-94199500D01*
X154518232Y-94239718D01*
X154518226Y-94239720D01*
X154260358Y-94319262D01*
X154178300Y-94358779D01*
X154109359Y-94370130D01*
X154045225Y-94342407D01*
X154006260Y-94284411D01*
X154000500Y-94247058D01*
X154000500Y-88940969D01*
X154020185Y-88873930D01*
X154055613Y-88837864D01*
X154058528Y-88835915D01*
X154058538Y-88835910D01*
X154210883Y-88710883D01*
X154335910Y-88558538D01*
X154428814Y-88384727D01*
X154486024Y-88196132D01*
X154505341Y-88000000D01*
X154486024Y-87803868D01*
X154428814Y-87615273D01*
X154428811Y-87615269D01*
X154428811Y-87615266D01*
X154335913Y-87441467D01*
X154335909Y-87441460D01*
X154210883Y-87289116D01*
X154058539Y-87164090D01*
X154058532Y-87164086D01*
X153884733Y-87071188D01*
X153884727Y-87071186D01*
X153696132Y-87013976D01*
X153696129Y-87013975D01*
X153500000Y-86994659D01*
X153303870Y-87013975D01*
X153115266Y-87071188D01*
X152941467Y-87164086D01*
X152941460Y-87164090D01*
X152789116Y-87289116D01*
X152664090Y-87441460D01*
X152664086Y-87441467D01*
X152571188Y-87615266D01*
X152513975Y-87803870D01*
X152494659Y-88000000D01*
X152513975Y-88196129D01*
X152571188Y-88384733D01*
X152664086Y-88558532D01*
X152664090Y-88558539D01*
X152789116Y-88710883D01*
X152941457Y-88835906D01*
X152941462Y-88835910D01*
X152941466Y-88835912D01*
X152944387Y-88837864D01*
X152945576Y-88839286D01*
X152946171Y-88839775D01*
X152946078Y-88839887D01*
X152989194Y-88891475D01*
X152999500Y-88940969D01*
X152999500Y-94512858D01*
X152996667Y-94539206D01*
X152995641Y-94543927D01*
X152995641Y-94543929D01*
X152995641Y-94543930D01*
X152999184Y-94593461D01*
X152999500Y-94602308D01*
X152999500Y-94615797D01*
X153001420Y-94629154D01*
X153002365Y-94637946D01*
X153005909Y-94687486D01*
X153007593Y-94692000D01*
X153014148Y-94717682D01*
X153014834Y-94722455D01*
X153035457Y-94767612D01*
X153038845Y-94775790D01*
X153056203Y-94822329D01*
X153059096Y-94826194D01*
X153072617Y-94848983D01*
X153074619Y-94853367D01*
X153074622Y-94853372D01*
X153074623Y-94853373D01*
X153107144Y-94890904D01*
X153112688Y-94897785D01*
X153120779Y-94908593D01*
X153130333Y-94918147D01*
X153136353Y-94924614D01*
X153168872Y-94962143D01*
X153168874Y-94962145D01*
X153172928Y-94964750D01*
X153193571Y-94981385D01*
X153275584Y-95063398D01*
X153309069Y-95124721D01*
X153304085Y-95194413D01*
X153295299Y-95213064D01*
X153293260Y-95216596D01*
X153293256Y-95216604D01*
X153194666Y-95467804D01*
X153194664Y-95467811D01*
X153134616Y-95730898D01*
X153114451Y-95999995D01*
X153114451Y-96000004D01*
X153134616Y-96269101D01*
X153194664Y-96532188D01*
X153194666Y-96532195D01*
X153264796Y-96710883D01*
X153293257Y-96783398D01*
X153428185Y-97017102D01*
X153572598Y-97198189D01*
X153599005Y-97262873D01*
X153586250Y-97331569D01*
X153538379Y-97382463D01*
X153475650Y-97399500D01*
X150778676Y-97399500D01*
X150711637Y-97379815D01*
X150690995Y-97363181D01*
X149639273Y-96311459D01*
X149605788Y-96250136D01*
X149605338Y-96199581D01*
X149606024Y-96196132D01*
X149610409Y-96151610D01*
X149625341Y-96000000D01*
X149606024Y-95803868D01*
X149548814Y-95615273D01*
X149548811Y-95615269D01*
X149548811Y-95615266D01*
X149455913Y-95441467D01*
X149455909Y-95441460D01*
X149330883Y-95289116D01*
X149178539Y-95164090D01*
X149178532Y-95164086D01*
X149004733Y-95071188D01*
X149004727Y-95071186D01*
X148816132Y-95013976D01*
X148816129Y-95013975D01*
X148620000Y-94994659D01*
X148423870Y-95013975D01*
X148235266Y-95071188D01*
X148061467Y-95164086D01*
X148061460Y-95164090D01*
X147909116Y-95289116D01*
X147784090Y-95441460D01*
X147784086Y-95441467D01*
X147691188Y-95615266D01*
X147633975Y-95803870D01*
X147614659Y-96000000D01*
X142005341Y-96000000D01*
X141986024Y-95803868D01*
X141986023Y-95803864D01*
X141985337Y-95800412D01*
X141985502Y-95798567D01*
X141985427Y-95797805D01*
X141985571Y-95797790D01*
X141991564Y-95730820D01*
X142019271Y-95688541D01*
X145266431Y-92441381D01*
X145287068Y-92424751D01*
X145291128Y-92422143D01*
X145323653Y-92384605D01*
X145329658Y-92378155D01*
X145339221Y-92368593D01*
X145347316Y-92357778D01*
X145352859Y-92350899D01*
X145385377Y-92313373D01*
X145387375Y-92308995D01*
X145400907Y-92286189D01*
X145403796Y-92282331D01*
X145415854Y-92250000D01*
X147443505Y-92250000D01*
X147496239Y-92435349D01*
X147595368Y-92634425D01*
X147729391Y-92811900D01*
X147893738Y-92961721D01*
X148082820Y-93078797D01*
X148082822Y-93078798D01*
X148290195Y-93159135D01*
X148370000Y-93174052D01*
X148370000Y-92250000D01*
X147443505Y-92250000D01*
X145415854Y-92250000D01*
X145421149Y-92235801D01*
X145424534Y-92227630D01*
X145425005Y-92226599D01*
X145445165Y-92182457D01*
X145445850Y-92177685D01*
X145452409Y-92151992D01*
X145454091Y-92147483D01*
X145457633Y-92097951D01*
X145458580Y-92089148D01*
X145458874Y-92087108D01*
X145460500Y-92075799D01*
X145460500Y-92062308D01*
X145460816Y-92053461D01*
X145462544Y-92029302D01*
X148266372Y-92029302D01*
X148295047Y-92142538D01*
X148358936Y-92240327D01*
X148451115Y-92312072D01*
X148561595Y-92350000D01*
X148649005Y-92350000D01*
X148735216Y-92335614D01*
X148837947Y-92280019D01*
X148865581Y-92250000D01*
X148870000Y-92250000D01*
X148870000Y-93174052D01*
X148949804Y-93159135D01*
X149157177Y-93078798D01*
X149157179Y-93078797D01*
X149346261Y-92961721D01*
X149510608Y-92811900D01*
X149644631Y-92634425D01*
X149743760Y-92435349D01*
X149796495Y-92250000D01*
X148870000Y-92250000D01*
X148865581Y-92250000D01*
X148917060Y-92194079D01*
X148963982Y-92087108D01*
X148973628Y-91970698D01*
X148944953Y-91857462D01*
X148881064Y-91759673D01*
X148788885Y-91687928D01*
X148678405Y-91650000D01*
X148590995Y-91650000D01*
X148504784Y-91664386D01*
X148402053Y-91719981D01*
X148322940Y-91805921D01*
X148276018Y-91912892D01*
X148266372Y-92029302D01*
X145462544Y-92029302D01*
X145464359Y-92003927D01*
X145463332Y-91999206D01*
X145460500Y-91972858D01*
X145460500Y-91750000D01*
X147443505Y-91750000D01*
X148370000Y-91750000D01*
X148370000Y-90825946D01*
X148870000Y-90825946D01*
X148870000Y-91750000D01*
X149796495Y-91750000D01*
X149743760Y-91564650D01*
X149644631Y-91365574D01*
X149510608Y-91188099D01*
X149346261Y-91038278D01*
X149157179Y-90921202D01*
X149157177Y-90921201D01*
X148949799Y-90840864D01*
X148870000Y-90825946D01*
X148370000Y-90825946D01*
X148290200Y-90840864D01*
X148082822Y-90921201D01*
X148082820Y-90921202D01*
X147893738Y-91038278D01*
X147729391Y-91188099D01*
X147595368Y-91365574D01*
X147496239Y-91564650D01*
X147443505Y-91750000D01*
X145460500Y-91750000D01*
X145460500Y-89168676D01*
X145480185Y-89101637D01*
X145496819Y-89080995D01*
X148010995Y-86566819D01*
X148072318Y-86533334D01*
X148098676Y-86530500D01*
X154232857Y-86530500D01*
X154259215Y-86533334D01*
X154263927Y-86534359D01*
X154313461Y-86530815D01*
X154322308Y-86530500D01*
X154335799Y-86530500D01*
X154349156Y-86528579D01*
X154357951Y-86527633D01*
X154407483Y-86524091D01*
X154411992Y-86522408D01*
X154437685Y-86515850D01*
X154442457Y-86515165D01*
X154487637Y-86494530D01*
X154495801Y-86491149D01*
X154542331Y-86473796D01*
X154546189Y-86470907D01*
X154568995Y-86457375D01*
X154573373Y-86455377D01*
X154610899Y-86422859D01*
X154617778Y-86417316D01*
X154628593Y-86409221D01*
X154638155Y-86399658D01*
X154644605Y-86393653D01*
X154682143Y-86361128D01*
X154684751Y-86357068D01*
X154701381Y-86336431D01*
X155037811Y-86000001D01*
X174169437Y-86000001D01*
X174189650Y-86231044D01*
X174189651Y-86231051D01*
X174249678Y-86455074D01*
X174249679Y-86455076D01*
X174249680Y-86455079D01*
X174347699Y-86665282D01*
X174480730Y-86855269D01*
X174644731Y-87019270D01*
X174834718Y-87152301D01*
X175044921Y-87250320D01*
X175268950Y-87310349D01*
X175433985Y-87324787D01*
X175499998Y-87330563D01*
X175500000Y-87330563D01*
X175500002Y-87330563D01*
X175557762Y-87325509D01*
X175731050Y-87310349D01*
X175955079Y-87250320D01*
X176165282Y-87152301D01*
X176355269Y-87019270D01*
X176519270Y-86855269D01*
X176652301Y-86665282D01*
X176750320Y-86455079D01*
X176810349Y-86231050D01*
X176830563Y-86000000D01*
X176810349Y-85768950D01*
X176750320Y-85544921D01*
X176652301Y-85334719D01*
X176652299Y-85334716D01*
X176652298Y-85334714D01*
X176519273Y-85144735D01*
X176519268Y-85144729D01*
X176355269Y-84980730D01*
X176257631Y-84912363D01*
X176165282Y-84847699D01*
X175955079Y-84749680D01*
X175955076Y-84749679D01*
X175955074Y-84749678D01*
X175731051Y-84689651D01*
X175731044Y-84689650D01*
X175500002Y-84669437D01*
X175499998Y-84669437D01*
X175268955Y-84689650D01*
X175268948Y-84689651D01*
X175044917Y-84749681D01*
X174834718Y-84847699D01*
X174834714Y-84847701D01*
X174644735Y-84980726D01*
X174644729Y-84980731D01*
X174480731Y-85144729D01*
X174480726Y-85144735D01*
X174347701Y-85334714D01*
X174347699Y-85334718D01*
X174249681Y-85544917D01*
X174189651Y-85768948D01*
X174189650Y-85768955D01*
X174169437Y-85999998D01*
X174169437Y-86000001D01*
X155037811Y-86000001D01*
X157577812Y-83460000D01*
X171329975Y-83460000D01*
X171350042Y-83714989D01*
X171409752Y-83963702D01*
X171507634Y-84200012D01*
X171507636Y-84200015D01*
X171641277Y-84418098D01*
X171641284Y-84418107D01*
X171644533Y-84421912D01*
X172208766Y-83857678D01*
X172252316Y-83939822D01*
X172372009Y-84080735D01*
X172519195Y-84192623D01*
X172561402Y-84212150D01*
X171998087Y-84775465D01*
X172001897Y-84778719D01*
X172219984Y-84912363D01*
X172219987Y-84912365D01*
X172456297Y-85010247D01*
X172705011Y-85069957D01*
X172705010Y-85069957D01*
X172960000Y-85090024D01*
X173214989Y-85069957D01*
X173463702Y-85010247D01*
X173700012Y-84912365D01*
X173700015Y-84912363D01*
X173918095Y-84778724D01*
X173918110Y-84778713D01*
X173921911Y-84775466D01*
X173921911Y-84775464D01*
X173358609Y-84212161D01*
X173477431Y-84140669D01*
X173611658Y-84013523D01*
X173714861Y-83861308D01*
X174275464Y-84421911D01*
X174275466Y-84421911D01*
X174278713Y-84418110D01*
X174278724Y-84418095D01*
X174412363Y-84200015D01*
X174412365Y-84200012D01*
X174510247Y-83963702D01*
X174569957Y-83714989D01*
X174590024Y-83460000D01*
X176409975Y-83460000D01*
X176430042Y-83714989D01*
X176489752Y-83963702D01*
X176587634Y-84200012D01*
X176587636Y-84200015D01*
X176721277Y-84418098D01*
X176721284Y-84418107D01*
X176724533Y-84421912D01*
X177288766Y-83857678D01*
X177332316Y-83939822D01*
X177452009Y-84080735D01*
X177599195Y-84192623D01*
X177641402Y-84212150D01*
X177078087Y-84775465D01*
X177081897Y-84778719D01*
X177299984Y-84912363D01*
X177299987Y-84912365D01*
X177536297Y-85010247D01*
X177785011Y-85069957D01*
X177785010Y-85069957D01*
X178040000Y-85090024D01*
X178294989Y-85069957D01*
X178543702Y-85010247D01*
X178780012Y-84912365D01*
X178780015Y-84912363D01*
X178998095Y-84778724D01*
X178998110Y-84778713D01*
X179001911Y-84775466D01*
X179001911Y-84775464D01*
X178438609Y-84212161D01*
X178557431Y-84140669D01*
X178691658Y-84013523D01*
X178794861Y-83861308D01*
X179355464Y-84421911D01*
X179355466Y-84421911D01*
X179358713Y-84418110D01*
X179358724Y-84418095D01*
X179492363Y-84200015D01*
X179492365Y-84200012D01*
X179590247Y-83963702D01*
X179649957Y-83714989D01*
X179670024Y-83460000D01*
X179649957Y-83205010D01*
X179590247Y-82956297D01*
X179492365Y-82719987D01*
X179492363Y-82719984D01*
X179358719Y-82501897D01*
X179355465Y-82498087D01*
X178791232Y-83062319D01*
X178747684Y-82980178D01*
X178627991Y-82839265D01*
X178480805Y-82727377D01*
X178438596Y-82707849D01*
X179001912Y-82144533D01*
X178998107Y-82141284D01*
X178998098Y-82141277D01*
X178780015Y-82007636D01*
X178780012Y-82007634D01*
X178543702Y-81909752D01*
X178294988Y-81850042D01*
X178294989Y-81850042D01*
X178040000Y-81829975D01*
X177785010Y-81850042D01*
X177536297Y-81909752D01*
X177299987Y-82007634D01*
X177299984Y-82007636D01*
X177081893Y-82141282D01*
X177078086Y-82144532D01*
X177641391Y-82707837D01*
X177522569Y-82779331D01*
X177388342Y-82906477D01*
X177285138Y-83058692D01*
X176724532Y-82498086D01*
X176721282Y-82501893D01*
X176587636Y-82719984D01*
X176587634Y-82719987D01*
X176489752Y-82956297D01*
X176430042Y-83205010D01*
X176409975Y-83460000D01*
X174590024Y-83460000D01*
X174569957Y-83205010D01*
X174510247Y-82956297D01*
X174412365Y-82719987D01*
X174412363Y-82719984D01*
X174278719Y-82501897D01*
X174275465Y-82498087D01*
X173711232Y-83062319D01*
X173667684Y-82980178D01*
X173547991Y-82839265D01*
X173400805Y-82727377D01*
X173358596Y-82707849D01*
X173921912Y-82144533D01*
X173918107Y-82141284D01*
X173918098Y-82141277D01*
X173700015Y-82007636D01*
X173700012Y-82007634D01*
X173463702Y-81909752D01*
X173214988Y-81850042D01*
X173214989Y-81850042D01*
X172960000Y-81829975D01*
X172705010Y-81850042D01*
X172456297Y-81909752D01*
X172219987Y-82007634D01*
X172219984Y-82007636D01*
X172001893Y-82141282D01*
X171998086Y-82144532D01*
X172561391Y-82707837D01*
X172442569Y-82779331D01*
X172308342Y-82906477D01*
X172205138Y-83058691D01*
X171644532Y-82498086D01*
X171641282Y-82501893D01*
X171507636Y-82719984D01*
X171507634Y-82719987D01*
X171409752Y-82956297D01*
X171350042Y-83205010D01*
X171329975Y-83460000D01*
X157577812Y-83460000D01*
X159806431Y-81231381D01*
X159827068Y-81214751D01*
X159831128Y-81212143D01*
X159863653Y-81174605D01*
X159869658Y-81168155D01*
X159879221Y-81158593D01*
X159887316Y-81147778D01*
X159892859Y-81140899D01*
X159925377Y-81103373D01*
X159927375Y-81098995D01*
X159940907Y-81076189D01*
X159943796Y-81072331D01*
X159961149Y-81025801D01*
X159964534Y-81017630D01*
X159985165Y-80972457D01*
X159985850Y-80967685D01*
X159992409Y-80941992D01*
X159994091Y-80937483D01*
X159997633Y-80887951D01*
X159998580Y-80879148D01*
X160000500Y-80865799D01*
X160000500Y-80852308D01*
X160000816Y-80843461D01*
X160004359Y-80793927D01*
X160003332Y-80789206D01*
X160000500Y-80762858D01*
X160000500Y-74553546D01*
X160020185Y-74486507D01*
X160059218Y-74448122D01*
X160166041Y-74381981D01*
X160316764Y-74244579D01*
X160439673Y-74081821D01*
X160530582Y-73899250D01*
X160586397Y-73703083D01*
X160605215Y-73500000D01*
X160599456Y-73437854D01*
X160586397Y-73296917D01*
X160576449Y-73261955D01*
X160530582Y-73100750D01*
X160439673Y-72918179D01*
X160380704Y-72840091D01*
X160316762Y-72755418D01*
X160166041Y-72618019D01*
X160166039Y-72618017D01*
X159992642Y-72510655D01*
X159992635Y-72510651D01*
X159897546Y-72473814D01*
X159802456Y-72436976D01*
X159601976Y-72399500D01*
X159398024Y-72399500D01*
X159353524Y-72407818D01*
X159217345Y-72433274D01*
X159147830Y-72426243D01*
X159106880Y-72399066D01*
X158836819Y-72129005D01*
X158803334Y-72067682D01*
X158800500Y-72041324D01*
X158800500Y-69583886D01*
X158820185Y-69516847D01*
X158872989Y-69471092D01*
X158942147Y-69461148D01*
X158989777Y-69478459D01*
X159007363Y-69489348D01*
X159197544Y-69563024D01*
X159398024Y-69600500D01*
X159398026Y-69600500D01*
X159601974Y-69600500D01*
X159601976Y-69600500D01*
X159802456Y-69563024D01*
X159992637Y-69489348D01*
X160166041Y-69381981D01*
X160316764Y-69244579D01*
X160439673Y-69081821D01*
X160530582Y-68899250D01*
X160586397Y-68703083D01*
X160605215Y-68500000D01*
X160586397Y-68296917D01*
X160530582Y-68100750D01*
X160525352Y-68090247D01*
X160476612Y-67992363D01*
X160439673Y-67918179D01*
X160353351Y-67803870D01*
X160316762Y-67755418D01*
X160166041Y-67618019D01*
X160166039Y-67618017D01*
X159992642Y-67510655D01*
X159992635Y-67510651D01*
X159826191Y-67446171D01*
X159802456Y-67436976D01*
X159601976Y-67399500D01*
X159398024Y-67399500D01*
X159197544Y-67436976D01*
X159197541Y-67436976D01*
X159197541Y-67436977D01*
X159007364Y-67510651D01*
X159007354Y-67510656D01*
X158989775Y-67521541D01*
X158922414Y-67540095D01*
X158855715Y-67519286D01*
X158810855Y-67465720D01*
X158800500Y-67416113D01*
X158800500Y-66540000D01*
X171329975Y-66540000D01*
X171350042Y-66794989D01*
X171409752Y-67043702D01*
X171507634Y-67280012D01*
X171507636Y-67280015D01*
X171641277Y-67498098D01*
X171641284Y-67498107D01*
X171644533Y-67501912D01*
X172208766Y-66937678D01*
X172252316Y-67019822D01*
X172372009Y-67160735D01*
X172519195Y-67272623D01*
X172561402Y-67292150D01*
X171998087Y-67855465D01*
X172001897Y-67858719D01*
X172219984Y-67992363D01*
X172219987Y-67992365D01*
X172456297Y-68090247D01*
X172705011Y-68149957D01*
X172705010Y-68149957D01*
X172960000Y-68170024D01*
X173214989Y-68149957D01*
X173463702Y-68090247D01*
X173700012Y-67992365D01*
X173700015Y-67992363D01*
X173918095Y-67858724D01*
X173918110Y-67858713D01*
X173921911Y-67855466D01*
X173921911Y-67855464D01*
X173358609Y-67292161D01*
X173477431Y-67220669D01*
X173611658Y-67093523D01*
X173714861Y-66941308D01*
X174275464Y-67501911D01*
X174275466Y-67501911D01*
X174278713Y-67498110D01*
X174278724Y-67498095D01*
X174412363Y-67280015D01*
X174412365Y-67280012D01*
X174510247Y-67043702D01*
X174569957Y-66794989D01*
X174590024Y-66540000D01*
X176409975Y-66540000D01*
X176430042Y-66794989D01*
X176489752Y-67043702D01*
X176587634Y-67280012D01*
X176587636Y-67280015D01*
X176721277Y-67498098D01*
X176721284Y-67498107D01*
X176724533Y-67501912D01*
X177288766Y-66937678D01*
X177332316Y-67019822D01*
X177452009Y-67160735D01*
X177599195Y-67272623D01*
X177641402Y-67292150D01*
X177078087Y-67855465D01*
X177081897Y-67858719D01*
X177299984Y-67992363D01*
X177299987Y-67992365D01*
X177536297Y-68090247D01*
X177785011Y-68149957D01*
X177785010Y-68149957D01*
X178040000Y-68170024D01*
X178294989Y-68149957D01*
X178543702Y-68090247D01*
X178780012Y-67992365D01*
X178780015Y-67992363D01*
X178998095Y-67858724D01*
X178998110Y-67858713D01*
X179001911Y-67855466D01*
X179001911Y-67855464D01*
X178438609Y-67292161D01*
X178557431Y-67220669D01*
X178691658Y-67093523D01*
X178794861Y-66941308D01*
X179355464Y-67501911D01*
X179355466Y-67501911D01*
X179358713Y-67498110D01*
X179358724Y-67498095D01*
X179492363Y-67280015D01*
X179492365Y-67280012D01*
X179590247Y-67043702D01*
X179649957Y-66794989D01*
X179670024Y-66540000D01*
X179649957Y-66285010D01*
X179590247Y-66036297D01*
X179492365Y-65799987D01*
X179492363Y-65799984D01*
X179358719Y-65581897D01*
X179355465Y-65578087D01*
X178791232Y-66142319D01*
X178747684Y-66060178D01*
X178627991Y-65919265D01*
X178480805Y-65807377D01*
X178438596Y-65787849D01*
X179001912Y-65224533D01*
X178998107Y-65221284D01*
X178998098Y-65221277D01*
X178780015Y-65087636D01*
X178780012Y-65087634D01*
X178543702Y-64989752D01*
X178294988Y-64930042D01*
X178294989Y-64930042D01*
X178040000Y-64909975D01*
X177785010Y-64930042D01*
X177536297Y-64989752D01*
X177299987Y-65087634D01*
X177299984Y-65087636D01*
X177081893Y-65221282D01*
X177078086Y-65224532D01*
X177641391Y-65787837D01*
X177522569Y-65859331D01*
X177388342Y-65986477D01*
X177285138Y-66138692D01*
X176724532Y-65578086D01*
X176721282Y-65581893D01*
X176587636Y-65799984D01*
X176587634Y-65799987D01*
X176489752Y-66036297D01*
X176430042Y-66285010D01*
X176409975Y-66540000D01*
X174590024Y-66540000D01*
X174569957Y-66285010D01*
X174510247Y-66036297D01*
X174412365Y-65799987D01*
X174412363Y-65799984D01*
X174278719Y-65581897D01*
X174275465Y-65578087D01*
X173711232Y-66142319D01*
X173667684Y-66060178D01*
X173547991Y-65919265D01*
X173400805Y-65807377D01*
X173358596Y-65787849D01*
X173921912Y-65224533D01*
X173918107Y-65221284D01*
X173918098Y-65221277D01*
X173700015Y-65087636D01*
X173700012Y-65087634D01*
X173463702Y-64989752D01*
X173214988Y-64930042D01*
X173214989Y-64930042D01*
X172960000Y-64909975D01*
X172705010Y-64930042D01*
X172456297Y-64989752D01*
X172219987Y-65087634D01*
X172219984Y-65087636D01*
X172001893Y-65221282D01*
X171998086Y-65224532D01*
X172561391Y-65787837D01*
X172442569Y-65859331D01*
X172308342Y-65986477D01*
X172205138Y-66138691D01*
X171644532Y-65578086D01*
X171641282Y-65581893D01*
X171507636Y-65799984D01*
X171507634Y-65799987D01*
X171409752Y-66036297D01*
X171350042Y-66285010D01*
X171329975Y-66540000D01*
X158800500Y-66540000D01*
X158800500Y-65578675D01*
X158820185Y-65511636D01*
X158836815Y-65490998D01*
X159308541Y-65019271D01*
X159369862Y-64985788D01*
X159420412Y-64985337D01*
X159423864Y-64986023D01*
X159423865Y-64986023D01*
X159423868Y-64986024D01*
X159620000Y-65005341D01*
X159816132Y-64986024D01*
X160004727Y-64928814D01*
X160006172Y-64928042D01*
X160178532Y-64835913D01*
X160178538Y-64835910D01*
X160330883Y-64710883D01*
X160455910Y-64558538D01*
X160548814Y-64384727D01*
X160606024Y-64196132D01*
X160625341Y-64000000D01*
X160606024Y-63803868D01*
X160548814Y-63615273D01*
X160531538Y-63582953D01*
X160517297Y-63514551D01*
X160542297Y-63449307D01*
X160598602Y-63407936D01*
X160640897Y-63400500D01*
X163941324Y-63400500D01*
X164008363Y-63420185D01*
X164029005Y-63436819D01*
X164200949Y-63608763D01*
X164234434Y-63670086D01*
X164232535Y-63730377D01*
X164213602Y-63796919D01*
X164194785Y-63999999D01*
X164194785Y-64000000D01*
X164213602Y-64203082D01*
X164269417Y-64399247D01*
X164269422Y-64399260D01*
X164360327Y-64581821D01*
X164483237Y-64744581D01*
X164633958Y-64881980D01*
X164633960Y-64881982D01*
X164708350Y-64928042D01*
X164807363Y-64989348D01*
X164997544Y-65063024D01*
X165198024Y-65100500D01*
X165198026Y-65100500D01*
X165401974Y-65100500D01*
X165401976Y-65100500D01*
X165602456Y-65063024D01*
X165792637Y-64989348D01*
X165966041Y-64881981D01*
X166116764Y-64744579D01*
X166239673Y-64581821D01*
X166330582Y-64399250D01*
X166386397Y-64203083D01*
X166405215Y-64000000D01*
X166694785Y-64000000D01*
X166713602Y-64203082D01*
X166769417Y-64399247D01*
X166769422Y-64399260D01*
X166860327Y-64581821D01*
X166983237Y-64744581D01*
X167133958Y-64881980D01*
X167133960Y-64881982D01*
X167208350Y-64928042D01*
X167307363Y-64989348D01*
X167497544Y-65063024D01*
X167698024Y-65100500D01*
X167698026Y-65100500D01*
X167901974Y-65100500D01*
X167901976Y-65100500D01*
X168102456Y-65063024D01*
X168292637Y-64989348D01*
X168466041Y-64881981D01*
X168616764Y-64744579D01*
X168739673Y-64581821D01*
X168830582Y-64399250D01*
X168886397Y-64203083D01*
X168905215Y-64000001D01*
X174169437Y-64000001D01*
X174189650Y-64231044D01*
X174189651Y-64231051D01*
X174249678Y-64455074D01*
X174249679Y-64455076D01*
X174249680Y-64455079D01*
X174347699Y-64665282D01*
X174480730Y-64855269D01*
X174644731Y-65019270D01*
X174834718Y-65152301D01*
X175044921Y-65250320D01*
X175268950Y-65310349D01*
X175433985Y-65324787D01*
X175499998Y-65330563D01*
X175500000Y-65330563D01*
X175500002Y-65330563D01*
X175557762Y-65325509D01*
X175731050Y-65310349D01*
X175955079Y-65250320D01*
X176165282Y-65152301D01*
X176355269Y-65019270D01*
X176519270Y-64855269D01*
X176652301Y-64665282D01*
X176750320Y-64455079D01*
X176810349Y-64231050D01*
X176830563Y-64000000D01*
X176810349Y-63768950D01*
X176750320Y-63544921D01*
X176652301Y-63334719D01*
X176652299Y-63334716D01*
X176652298Y-63334714D01*
X176519273Y-63144735D01*
X176519268Y-63144729D01*
X176355269Y-62980730D01*
X176355263Y-62980726D01*
X176165282Y-62847699D01*
X175955079Y-62749680D01*
X175955076Y-62749679D01*
X175955074Y-62749678D01*
X175731051Y-62689651D01*
X175731044Y-62689650D01*
X175500002Y-62669437D01*
X175499998Y-62669437D01*
X175268955Y-62689650D01*
X175268948Y-62689651D01*
X175044917Y-62749681D01*
X174834718Y-62847699D01*
X174834714Y-62847701D01*
X174644735Y-62980726D01*
X174644729Y-62980731D01*
X174480731Y-63144729D01*
X174480726Y-63144735D01*
X174347701Y-63334714D01*
X174347699Y-63334718D01*
X174249681Y-63544917D01*
X174189651Y-63768948D01*
X174189650Y-63768955D01*
X174169437Y-63999998D01*
X174169437Y-64000001D01*
X168905215Y-64000001D01*
X168905215Y-64000000D01*
X168886397Y-63796917D01*
X168830582Y-63600750D01*
X168801401Y-63542147D01*
X168766965Y-63472989D01*
X168739673Y-63418179D01*
X168616764Y-63255421D01*
X168616762Y-63255418D01*
X168466041Y-63118019D01*
X168466039Y-63118017D01*
X168292642Y-63010655D01*
X168292635Y-63010651D01*
X168197546Y-62973814D01*
X168102456Y-62936976D01*
X167901976Y-62899500D01*
X167698024Y-62899500D01*
X167497544Y-62936976D01*
X167497541Y-62936976D01*
X167497541Y-62936977D01*
X167307364Y-63010651D01*
X167307357Y-63010655D01*
X167133960Y-63118017D01*
X167133958Y-63118019D01*
X166983237Y-63255418D01*
X166860327Y-63418178D01*
X166769422Y-63600739D01*
X166769417Y-63600752D01*
X166713602Y-63796917D01*
X166694785Y-63999999D01*
X166694785Y-64000000D01*
X166405215Y-64000000D01*
X166386397Y-63796917D01*
X166330582Y-63600750D01*
X166301401Y-63542147D01*
X166266965Y-63472989D01*
X166239673Y-63418179D01*
X166116764Y-63255421D01*
X166116762Y-63255418D01*
X165966041Y-63118019D01*
X165966039Y-63118017D01*
X165792642Y-63010655D01*
X165792635Y-63010651D01*
X165697546Y-62973814D01*
X165602456Y-62936976D01*
X165401976Y-62899500D01*
X165198024Y-62899500D01*
X165153524Y-62907818D01*
X165017345Y-62933274D01*
X164947830Y-62926243D01*
X164906880Y-62899066D01*
X164601385Y-62593571D01*
X164584750Y-62572928D01*
X164582145Y-62568874D01*
X164582143Y-62568872D01*
X164544614Y-62536353D01*
X164538143Y-62530329D01*
X164528593Y-62520779D01*
X164517785Y-62512688D01*
X164510904Y-62507144D01*
X164473373Y-62474623D01*
X164473372Y-62474622D01*
X164473367Y-62474619D01*
X164468983Y-62472617D01*
X164446194Y-62459096D01*
X164442331Y-62456204D01*
X164442329Y-62456203D01*
X164395790Y-62438845D01*
X164387622Y-62435461D01*
X164342457Y-62414835D01*
X164342455Y-62414834D01*
X164337682Y-62414148D01*
X164312000Y-62407593D01*
X164307486Y-62405909D01*
X164257946Y-62402365D01*
X164249159Y-62401420D01*
X164235799Y-62399500D01*
X164235797Y-62399500D01*
X164222308Y-62399500D01*
X164213461Y-62399184D01*
X164163929Y-62395641D01*
X164163925Y-62395641D01*
X164159215Y-62396666D01*
X164132857Y-62399500D01*
X134107143Y-62399500D01*
X134080785Y-62396666D01*
X134076074Y-62395641D01*
X134076070Y-62395641D01*
X134026539Y-62399184D01*
X134017692Y-62399500D01*
X134004200Y-62399500D01*
X133998063Y-62400382D01*
X133990840Y-62401420D01*
X133982054Y-62402365D01*
X133932516Y-62405909D01*
X133932513Y-62405910D01*
X133927986Y-62407598D01*
X133902327Y-62414146D01*
X133897550Y-62414833D01*
X133897543Y-62414835D01*
X133852365Y-62435466D01*
X133844191Y-62438851D01*
X133797675Y-62456200D01*
X133797664Y-62456206D01*
X133793799Y-62459100D01*
X133771020Y-62472615D01*
X133766636Y-62474617D01*
X133766625Y-62474624D01*
X133729108Y-62507132D01*
X133722226Y-62512678D01*
X133711403Y-62520780D01*
X133701854Y-62530329D01*
X133695384Y-62536353D01*
X133657861Y-62568867D01*
X133657854Y-62568876D01*
X133655243Y-62572938D01*
X133638616Y-62593568D01*
X122813568Y-73418616D01*
X122792938Y-73435243D01*
X122788876Y-73437854D01*
X122788867Y-73437861D01*
X122756353Y-73475384D01*
X122750329Y-73481854D01*
X122740780Y-73491403D01*
X122732678Y-73502226D01*
X122727132Y-73509108D01*
X122694624Y-73546625D01*
X122694617Y-73546636D01*
X122692615Y-73551020D01*
X122679100Y-73573799D01*
X122676206Y-73577664D01*
X122676200Y-73577675D01*
X122658851Y-73624191D01*
X122655466Y-73632365D01*
X122634835Y-73677543D01*
X122634833Y-73677550D01*
X122634146Y-73682327D01*
X122627598Y-73707986D01*
X122625910Y-73712513D01*
X122625909Y-73712516D01*
X122622365Y-73762054D01*
X122621420Y-73770845D01*
X122619500Y-73784200D01*
X122619500Y-73797690D01*
X122619184Y-73806537D01*
X122615641Y-73856069D01*
X122615641Y-73856073D01*
X122616666Y-73860785D01*
X122619500Y-73887143D01*
X122619500Y-93559030D01*
X122599815Y-93626069D01*
X122564396Y-93662129D01*
X122561461Y-93664089D01*
X122409116Y-93789116D01*
X122284090Y-93941460D01*
X122284086Y-93941467D01*
X122191188Y-94115266D01*
X122133975Y-94303870D01*
X122114659Y-94500000D01*
X116505341Y-94500000D01*
X116486024Y-94303868D01*
X116428814Y-94115273D01*
X116428811Y-94115269D01*
X116428811Y-94115266D01*
X116335913Y-93941467D01*
X116335909Y-93941460D01*
X116210883Y-93789116D01*
X116058539Y-93664090D01*
X116058532Y-93664086D01*
X115884733Y-93571188D01*
X115884727Y-93571186D01*
X115696132Y-93513976D01*
X115696129Y-93513975D01*
X115500000Y-93494659D01*
X115303870Y-93513975D01*
X115115266Y-93571188D01*
X114941467Y-93664086D01*
X114941460Y-93664090D01*
X114789116Y-93789116D01*
X114664090Y-93941460D01*
X114664086Y-93941467D01*
X114571188Y-94115266D01*
X114513975Y-94303870D01*
X114494659Y-94500000D01*
X106800499Y-94500000D01*
X106800499Y-94455136D01*
X106800497Y-94455117D01*
X106797586Y-94430012D01*
X106797585Y-94430010D01*
X106797585Y-94430009D01*
X106752206Y-94327235D01*
X106672765Y-94247794D01*
X106654364Y-94239669D01*
X106569992Y-94202415D01*
X106544865Y-94199500D01*
X103455143Y-94199500D01*
X103455117Y-94199502D01*
X103430012Y-94202413D01*
X103430008Y-94202415D01*
X103327235Y-94247793D01*
X103247794Y-94327234D01*
X103202415Y-94430006D01*
X103202415Y-94430008D01*
X103199500Y-94455131D01*
X103199500Y-97544856D01*
X101111303Y-97544856D01*
X100253748Y-96687300D01*
X100263409Y-96683784D01*
X100411844Y-96586157D01*
X100533764Y-96456930D01*
X100605768Y-96332215D01*
X101500115Y-97226562D01*
X101500116Y-97226561D01*
X101606803Y-97084047D01*
X101743908Y-96832958D01*
X101843890Y-96564895D01*
X101904699Y-96285362D01*
X101925109Y-96000001D01*
X101925109Y-95999998D01*
X101904699Y-95714637D01*
X101843890Y-95435104D01*
X101743908Y-95167041D01*
X101606808Y-94915961D01*
X101606807Y-94915960D01*
X101500115Y-94773436D01*
X100604803Y-95668747D01*
X100582660Y-95617413D01*
X100476567Y-95474906D01*
X100340470Y-95360706D01*
X100250782Y-95315663D01*
X101146562Y-94419883D01*
X101146561Y-94419882D01*
X101004046Y-94313196D01*
X101004038Y-94313191D01*
X100752957Y-94176091D01*
X100752958Y-94176091D01*
X100484895Y-94076109D01*
X100205362Y-94015300D01*
X99920001Y-93994891D01*
X99919999Y-93994891D01*
X99634637Y-94015300D01*
X99355104Y-94076109D01*
X99087041Y-94176091D01*
X98835961Y-94313191D01*
X98835953Y-94313196D01*
X98693437Y-94419882D01*
X98693436Y-94419883D01*
X99586252Y-95312699D01*
X99576591Y-95316216D01*
X99428156Y-95413843D01*
X99306236Y-95543070D01*
X99234231Y-95667784D01*
X98339883Y-94773436D01*
X98339882Y-94773437D01*
X98233196Y-94915953D01*
X98233191Y-94915961D01*
X98096091Y-95167041D01*
X97996109Y-95435104D01*
X97935300Y-95714637D01*
X97914891Y-95999998D01*
X97914891Y-96000001D01*
X84557604Y-96000001D01*
X84509018Y-95920390D01*
X84419747Y-95813119D01*
X84335746Y-95712180D01*
X84335740Y-95712175D01*
X84134002Y-95531418D01*
X83908092Y-95381957D01*
X83908090Y-95381956D01*
X83662824Y-95266980D01*
X83662819Y-95266978D01*
X83662814Y-95266976D01*
X83403442Y-95188942D01*
X83403428Y-95188939D01*
X83287791Y-95171921D01*
X83135439Y-95149500D01*
X82932369Y-95149500D01*
X82932351Y-95149500D01*
X82729844Y-95164323D01*
X82729831Y-95164325D01*
X82465453Y-95223217D01*
X82465446Y-95223220D01*
X82212439Y-95319987D01*
X81976226Y-95452557D01*
X81976224Y-95452558D01*
X81976223Y-95452559D01*
X81932884Y-95486024D01*
X81761822Y-95618112D01*
X81573822Y-95813109D01*
X81573816Y-95813116D01*
X81416202Y-96033419D01*
X81416199Y-96033424D01*
X81292350Y-96274309D01*
X81292343Y-96274327D01*
X81204884Y-96530685D01*
X81204882Y-96530695D01*
X81158206Y-96783400D01*
X81155681Y-96797068D01*
X81155680Y-96797075D01*
X81145787Y-97067763D01*
X80000500Y-97067763D01*
X80000500Y-92844856D01*
X88899500Y-92844856D01*
X88899502Y-92844882D01*
X88902413Y-92869987D01*
X88902415Y-92869991D01*
X88947793Y-92972764D01*
X88947794Y-92972765D01*
X89027235Y-93052206D01*
X89130009Y-93097585D01*
X89155135Y-93100500D01*
X90844864Y-93100499D01*
X90844879Y-93100497D01*
X90844882Y-93100497D01*
X90869987Y-93097586D01*
X90869988Y-93097585D01*
X90869991Y-93097585D01*
X90972765Y-93052206D01*
X91052206Y-92972765D01*
X91097585Y-92869991D01*
X91100500Y-92844865D01*
X91100499Y-92634151D01*
X91120183Y-92567114D01*
X91172987Y-92521359D01*
X91242145Y-92511415D01*
X91305701Y-92540440D01*
X91336881Y-92581748D01*
X91369864Y-92652480D01*
X91420974Y-92725472D01*
X92102046Y-92044400D01*
X92114835Y-92125148D01*
X92172359Y-92238045D01*
X92261955Y-92327641D01*
X92374852Y-92385165D01*
X92455599Y-92397953D01*
X91774526Y-93079025D01*
X91847513Y-93130132D01*
X91847521Y-93130136D01*
X92053668Y-93226264D01*
X92053682Y-93226269D01*
X92273389Y-93285139D01*
X92273400Y-93285141D01*
X92499998Y-93304966D01*
X92500002Y-93304966D01*
X92726599Y-93285141D01*
X92726610Y-93285139D01*
X92946317Y-93226269D01*
X92946331Y-93226264D01*
X93152478Y-93130136D01*
X93225471Y-93079024D01*
X92544400Y-92397953D01*
X92625148Y-92385165D01*
X92738045Y-92327641D01*
X92827641Y-92238045D01*
X92885165Y-92125148D01*
X92897953Y-92044400D01*
X93579024Y-92725471D01*
X93630136Y-92652478D01*
X93726264Y-92446331D01*
X93726269Y-92446317D01*
X93785139Y-92226610D01*
X93785141Y-92226599D01*
X93804966Y-92000002D01*
X93804966Y-91999997D01*
X93785141Y-91773400D01*
X93785139Y-91773389D01*
X93726269Y-91553682D01*
X93726264Y-91553668D01*
X93630136Y-91347521D01*
X93630132Y-91347513D01*
X93579025Y-91274526D01*
X92897953Y-91955598D01*
X92885165Y-91874852D01*
X92827641Y-91761955D01*
X92738045Y-91672359D01*
X92625148Y-91614835D01*
X92544401Y-91602046D01*
X93225472Y-90920974D01*
X93152478Y-90869863D01*
X92946331Y-90773735D01*
X92946317Y-90773730D01*
X92726610Y-90714860D01*
X92726599Y-90714858D01*
X92500002Y-90695034D01*
X92499998Y-90695034D01*
X92273400Y-90714858D01*
X92273389Y-90714860D01*
X92053682Y-90773730D01*
X92053673Y-90773734D01*
X91847516Y-90869866D01*
X91847512Y-90869868D01*
X91774526Y-90920973D01*
X91774526Y-90920974D01*
X92455599Y-91602046D01*
X92374852Y-91614835D01*
X92261955Y-91672359D01*
X92172359Y-91761955D01*
X92114835Y-91874852D01*
X92102046Y-91955598D01*
X91420974Y-91274526D01*
X91420973Y-91274526D01*
X91369868Y-91347512D01*
X91369866Y-91347517D01*
X91336881Y-91418253D01*
X91290708Y-91470692D01*
X91223515Y-91489844D01*
X91156633Y-91469628D01*
X91111299Y-91416462D01*
X91100499Y-91365848D01*
X91100499Y-91155143D01*
X91100499Y-91155136D01*
X91100497Y-91155117D01*
X91097586Y-91130012D01*
X91097585Y-91130010D01*
X91097585Y-91130009D01*
X91052206Y-91027235D01*
X90972765Y-90947794D01*
X90912540Y-90921202D01*
X90869992Y-90902415D01*
X90844865Y-90899500D01*
X89155143Y-90899500D01*
X89155117Y-90899502D01*
X89130012Y-90902413D01*
X89130008Y-90902415D01*
X89027235Y-90947793D01*
X88947794Y-91027234D01*
X88902415Y-91130006D01*
X88902415Y-91130008D01*
X88899500Y-91155131D01*
X88899500Y-92844856D01*
X80000500Y-92844856D01*
X80000500Y-84000000D01*
X93894785Y-84000000D01*
X93913602Y-84203082D01*
X93969417Y-84399247D01*
X93969422Y-84399260D01*
X94060327Y-84581821D01*
X94183237Y-84744581D01*
X94333958Y-84881980D01*
X94333960Y-84881982D01*
X94383031Y-84912365D01*
X94507363Y-84989348D01*
X94697544Y-85063024D01*
X94898024Y-85100500D01*
X94898026Y-85100500D01*
X95101974Y-85100500D01*
X95101976Y-85100500D01*
X95302456Y-85063024D01*
X95492637Y-84989348D01*
X95666041Y-84881981D01*
X95794122Y-84765219D01*
X95816762Y-84744581D01*
X95816764Y-84744579D01*
X95939673Y-84581821D01*
X96019298Y-84421912D01*
X96033138Y-84394118D01*
X96034763Y-84394927D01*
X96072258Y-84346102D01*
X96138017Y-84322491D01*
X96206103Y-84338180D01*
X96254898Y-84388188D01*
X96265118Y-84414178D01*
X96273729Y-84446314D01*
X96273735Y-84446331D01*
X96369863Y-84652478D01*
X96420974Y-84725472D01*
X97102046Y-84044400D01*
X97114835Y-84125148D01*
X97172359Y-84238045D01*
X97261955Y-84327641D01*
X97374852Y-84385165D01*
X97455599Y-84397953D01*
X96774526Y-85079025D01*
X96847513Y-85130132D01*
X96847521Y-85130136D01*
X97053668Y-85226264D01*
X97053682Y-85226269D01*
X97273389Y-85285139D01*
X97273400Y-85285141D01*
X97499998Y-85304966D01*
X97500002Y-85304966D01*
X97726599Y-85285141D01*
X97726610Y-85285139D01*
X97946317Y-85226269D01*
X97946331Y-85226264D01*
X98152478Y-85130136D01*
X98225471Y-85079024D01*
X97544400Y-84397953D01*
X97625148Y-84385165D01*
X97738045Y-84327641D01*
X97827641Y-84238045D01*
X97885165Y-84125148D01*
X97897953Y-84044400D01*
X98579024Y-84725471D01*
X98630136Y-84652478D01*
X98726264Y-84446331D01*
X98726269Y-84446317D01*
X98785139Y-84226610D01*
X98785141Y-84226599D01*
X98804966Y-84000002D01*
X98804966Y-83999997D01*
X98785141Y-83773400D01*
X98785139Y-83773389D01*
X98726269Y-83553682D01*
X98726264Y-83553668D01*
X98630136Y-83347521D01*
X98630132Y-83347513D01*
X98579025Y-83274526D01*
X97897953Y-83955598D01*
X97885165Y-83874852D01*
X97827641Y-83761955D01*
X97738045Y-83672359D01*
X97625148Y-83614835D01*
X97544401Y-83602046D01*
X98225472Y-82920974D01*
X98152478Y-82869863D01*
X97946331Y-82773735D01*
X97946317Y-82773730D01*
X97726610Y-82714860D01*
X97726599Y-82714858D01*
X97500002Y-82695034D01*
X97499998Y-82695034D01*
X97273400Y-82714858D01*
X97273389Y-82714860D01*
X97053682Y-82773730D01*
X97053673Y-82773734D01*
X96847516Y-82869866D01*
X96847512Y-82869868D01*
X96774526Y-82920973D01*
X96774526Y-82920974D01*
X97455599Y-83602046D01*
X97374852Y-83614835D01*
X97261955Y-83672359D01*
X97172359Y-83761955D01*
X97114835Y-83874852D01*
X97102046Y-83955598D01*
X96420974Y-83274526D01*
X96420973Y-83274526D01*
X96369868Y-83347512D01*
X96369866Y-83347516D01*
X96273734Y-83553673D01*
X96273729Y-83553686D01*
X96265118Y-83585821D01*
X96228752Y-83645481D01*
X96165904Y-83676009D01*
X96096529Y-83667712D01*
X96042652Y-83623226D01*
X96033484Y-83605709D01*
X96033138Y-83605882D01*
X95960497Y-83460000D01*
X95939673Y-83418179D01*
X95866796Y-83321674D01*
X95816762Y-83255418D01*
X95666042Y-83118020D01*
X95666041Y-83118019D01*
X95559222Y-83051879D01*
X95512587Y-82999851D01*
X95500500Y-82946452D01*
X95500500Y-79600000D01*
X113294355Y-79600000D01*
X113314859Y-79768869D01*
X113314860Y-79768874D01*
X113375182Y-79927931D01*
X113437475Y-80018177D01*
X113471817Y-80067929D01*
X113577505Y-80161560D01*
X113599150Y-80180736D01*
X113749773Y-80259789D01*
X113749775Y-80259790D01*
X113914944Y-80300500D01*
X114085056Y-80300500D01*
X114250225Y-80259790D01*
X114329692Y-80218081D01*
X114400849Y-80180736D01*
X114400850Y-80180734D01*
X114400852Y-80180734D01*
X114528183Y-80067929D01*
X114624818Y-79927930D01*
X114685140Y-79768872D01*
X114700187Y-79644943D01*
X114727809Y-79580767D01*
X114735591Y-79572221D01*
X115236431Y-79071381D01*
X115257068Y-79054751D01*
X115261128Y-79052143D01*
X115293653Y-79014605D01*
X115299658Y-79008155D01*
X115309221Y-78998593D01*
X115317316Y-78987778D01*
X115322859Y-78980899D01*
X115355377Y-78943373D01*
X115357375Y-78938995D01*
X115370907Y-78916189D01*
X115373796Y-78912331D01*
X115391149Y-78865801D01*
X115394534Y-78857630D01*
X115415165Y-78812457D01*
X115415850Y-78807685D01*
X115422409Y-78781992D01*
X115424091Y-78777483D01*
X115427633Y-78727951D01*
X115428580Y-78719148D01*
X115430500Y-78705799D01*
X115430500Y-78692308D01*
X115430816Y-78683461D01*
X115434359Y-78633927D01*
X115433332Y-78629206D01*
X115430500Y-78602858D01*
X115430500Y-66218676D01*
X115450185Y-66151637D01*
X115466819Y-66130995D01*
X120137814Y-61460000D01*
X171329975Y-61460000D01*
X171350042Y-61714989D01*
X171409752Y-61963702D01*
X171507634Y-62200012D01*
X171507636Y-62200015D01*
X171641277Y-62418098D01*
X171641284Y-62418107D01*
X171644533Y-62421912D01*
X172208766Y-61857678D01*
X172252316Y-61939822D01*
X172372009Y-62080735D01*
X172519195Y-62192623D01*
X172561402Y-62212150D01*
X171998087Y-62775465D01*
X172001897Y-62778719D01*
X172219984Y-62912363D01*
X172219987Y-62912365D01*
X172456297Y-63010247D01*
X172705011Y-63069957D01*
X172705010Y-63069957D01*
X172960000Y-63090024D01*
X173214989Y-63069957D01*
X173463702Y-63010247D01*
X173700012Y-62912365D01*
X173700015Y-62912363D01*
X173918095Y-62778724D01*
X173918110Y-62778713D01*
X173921911Y-62775466D01*
X173921911Y-62775464D01*
X173358609Y-62212161D01*
X173477431Y-62140669D01*
X173611658Y-62013523D01*
X173714861Y-61861308D01*
X174275464Y-62421911D01*
X174275466Y-62421911D01*
X174278713Y-62418110D01*
X174278724Y-62418095D01*
X174412363Y-62200015D01*
X174412365Y-62200012D01*
X174510247Y-61963702D01*
X174569957Y-61714989D01*
X174590024Y-61460000D01*
X176409975Y-61460000D01*
X176430042Y-61714989D01*
X176489752Y-61963702D01*
X176587634Y-62200012D01*
X176587636Y-62200015D01*
X176721277Y-62418098D01*
X176721284Y-62418107D01*
X176724533Y-62421912D01*
X177288766Y-61857678D01*
X177332316Y-61939822D01*
X177452009Y-62080735D01*
X177599195Y-62192623D01*
X177641402Y-62212150D01*
X177078087Y-62775465D01*
X177081897Y-62778719D01*
X177299984Y-62912363D01*
X177299987Y-62912365D01*
X177536297Y-63010247D01*
X177785011Y-63069957D01*
X177785010Y-63069957D01*
X178040000Y-63090024D01*
X178294989Y-63069957D01*
X178543702Y-63010247D01*
X178780012Y-62912365D01*
X178780015Y-62912363D01*
X178998095Y-62778724D01*
X178998110Y-62778713D01*
X179001911Y-62775466D01*
X179001911Y-62775464D01*
X178438609Y-62212161D01*
X178557431Y-62140669D01*
X178691658Y-62013523D01*
X178794861Y-61861308D01*
X179355464Y-62421911D01*
X179355466Y-62421911D01*
X179358713Y-62418110D01*
X179358724Y-62418095D01*
X179492363Y-62200015D01*
X179492365Y-62200012D01*
X179590247Y-61963702D01*
X179649957Y-61714989D01*
X179670024Y-61460000D01*
X179649957Y-61205010D01*
X179590247Y-60956297D01*
X179492365Y-60719987D01*
X179492363Y-60719984D01*
X179358719Y-60501897D01*
X179355465Y-60498087D01*
X178791232Y-61062319D01*
X178747684Y-60980178D01*
X178627991Y-60839265D01*
X178480805Y-60727377D01*
X178438596Y-60707849D01*
X179001912Y-60144533D01*
X178998107Y-60141284D01*
X178998098Y-60141277D01*
X178780015Y-60007636D01*
X178780012Y-60007634D01*
X178543702Y-59909752D01*
X178294988Y-59850042D01*
X178294989Y-59850042D01*
X178040000Y-59829975D01*
X177785010Y-59850042D01*
X177536297Y-59909752D01*
X177299987Y-60007634D01*
X177299984Y-60007636D01*
X177081893Y-60141282D01*
X177078086Y-60144532D01*
X177641391Y-60707837D01*
X177522569Y-60779331D01*
X177388342Y-60906477D01*
X177285138Y-61058692D01*
X176724532Y-60498086D01*
X176721282Y-60501893D01*
X176587636Y-60719984D01*
X176587634Y-60719987D01*
X176489752Y-60956297D01*
X176430042Y-61205010D01*
X176409975Y-61460000D01*
X174590024Y-61460000D01*
X174569957Y-61205010D01*
X174510247Y-60956297D01*
X174412365Y-60719987D01*
X174412363Y-60719984D01*
X174278719Y-60501897D01*
X174275465Y-60498087D01*
X173711232Y-61062319D01*
X173667684Y-60980178D01*
X173547991Y-60839265D01*
X173400805Y-60727377D01*
X173358596Y-60707849D01*
X173921912Y-60144533D01*
X173918107Y-60141284D01*
X173918098Y-60141277D01*
X173700015Y-60007636D01*
X173700012Y-60007634D01*
X173463702Y-59909752D01*
X173214988Y-59850042D01*
X173214989Y-59850042D01*
X172960000Y-59829975D01*
X172705010Y-59850042D01*
X172456297Y-59909752D01*
X172219987Y-60007634D01*
X172219984Y-60007636D01*
X172001893Y-60141282D01*
X171998086Y-60144532D01*
X172561391Y-60707837D01*
X172442569Y-60779331D01*
X172308342Y-60906477D01*
X172205138Y-61058691D01*
X171644532Y-60498086D01*
X171641282Y-60501893D01*
X171507636Y-60719984D01*
X171507634Y-60719987D01*
X171409752Y-60956297D01*
X171350042Y-61205010D01*
X171329975Y-61460000D01*
X120137814Y-61460000D01*
X120560995Y-61036819D01*
X120622318Y-61003334D01*
X120648676Y-61000500D01*
X129932857Y-61000500D01*
X129959215Y-61003334D01*
X129963927Y-61004359D01*
X130013461Y-61000815D01*
X130022308Y-61000500D01*
X130035799Y-61000500D01*
X130049156Y-60998579D01*
X130057951Y-60997633D01*
X130107483Y-60994091D01*
X130111992Y-60992408D01*
X130137685Y-60985850D01*
X130142457Y-60985165D01*
X130187637Y-60964530D01*
X130195801Y-60961149D01*
X130242331Y-60943796D01*
X130246189Y-60940907D01*
X130268995Y-60927375D01*
X130273373Y-60925377D01*
X130310899Y-60892859D01*
X130317778Y-60887316D01*
X130328593Y-60879221D01*
X130338155Y-60869658D01*
X130344605Y-60863653D01*
X130382143Y-60831128D01*
X130384751Y-60827068D01*
X130401381Y-60806431D01*
X131188541Y-60019270D01*
X131249862Y-59985787D01*
X131300424Y-59985338D01*
X131303856Y-59986020D01*
X131303868Y-59986024D01*
X131500000Y-60005341D01*
X131696132Y-59986024D01*
X131884727Y-59928814D01*
X131888101Y-59927011D01*
X131995016Y-59869863D01*
X132058538Y-59835910D01*
X132210883Y-59710883D01*
X132335910Y-59558538D01*
X132428814Y-59384727D01*
X132486024Y-59196132D01*
X132505341Y-59000000D01*
X132486024Y-58803868D01*
X132428814Y-58615273D01*
X132428811Y-58615269D01*
X132428811Y-58615266D01*
X132335913Y-58441467D01*
X132335909Y-58441460D01*
X132210883Y-58289116D01*
X132058539Y-58164090D01*
X132058532Y-58164086D01*
X131884733Y-58071188D01*
X131884727Y-58071186D01*
X131696132Y-58013976D01*
X131696129Y-58013975D01*
X131500000Y-57994659D01*
X131303870Y-58013975D01*
X131115266Y-58071188D01*
X130941467Y-58164086D01*
X130941460Y-58164090D01*
X130789116Y-58289116D01*
X130664090Y-58441460D01*
X130664086Y-58441467D01*
X130571188Y-58615266D01*
X130513975Y-58803870D01*
X130494659Y-59000000D01*
X130513976Y-59196139D01*
X130514664Y-59199596D01*
X130514498Y-59201440D01*
X130514573Y-59202194D01*
X130514430Y-59202208D01*
X130508431Y-59269187D01*
X130480726Y-59311459D01*
X129829005Y-59963181D01*
X129767682Y-59996666D01*
X129741324Y-59999500D01*
X128825760Y-59999500D01*
X128758721Y-59979815D01*
X128712966Y-59927011D01*
X128703022Y-59857853D01*
X128732047Y-59794297D01*
X128747095Y-59779647D01*
X128830883Y-59710883D01*
X128955909Y-59558539D01*
X128955913Y-59558532D01*
X129048811Y-59384733D01*
X129048811Y-59384732D01*
X129048814Y-59384727D01*
X129106024Y-59196132D01*
X129125341Y-59000000D01*
X129106024Y-58803868D01*
X129048814Y-58615273D01*
X129048811Y-58615269D01*
X129048811Y-58615266D01*
X128955913Y-58441467D01*
X128955909Y-58441460D01*
X128830883Y-58289116D01*
X128678538Y-58164089D01*
X128675604Y-58162129D01*
X128674413Y-58160704D01*
X128673829Y-58160225D01*
X128673920Y-58160113D01*
X128630802Y-58108514D01*
X128620500Y-58059030D01*
X128620500Y-57083040D01*
X128640185Y-57016001D01*
X128656814Y-56995364D01*
X130354208Y-55297969D01*
X130415529Y-55264486D01*
X130485221Y-55269470D01*
X130541154Y-55311342D01*
X130560546Y-55349652D01*
X130567932Y-55374000D01*
X130571188Y-55384733D01*
X130664086Y-55558532D01*
X130664090Y-55558539D01*
X130789116Y-55710883D01*
X130941460Y-55835909D01*
X130941467Y-55835913D01*
X131115266Y-55928811D01*
X131115269Y-55928811D01*
X131115273Y-55928814D01*
X131303868Y-55986024D01*
X131500000Y-56005341D01*
X131696132Y-55986024D01*
X131884727Y-55928814D01*
X131905657Y-55917627D01*
X132058532Y-55835913D01*
X132058538Y-55835910D01*
X132210883Y-55710883D01*
X132335910Y-55558538D01*
X132428814Y-55384727D01*
X132486024Y-55196132D01*
X132505341Y-55000000D01*
X132486024Y-54803868D01*
X132428814Y-54615273D01*
X132428811Y-54615269D01*
X132428811Y-54615266D01*
X132335913Y-54441467D01*
X132335909Y-54441460D01*
X132210883Y-54289116D01*
X132129532Y-54222353D01*
X132090198Y-54164607D01*
X132088327Y-54094763D01*
X132124515Y-54034994D01*
X132187271Y-54004279D01*
X132208197Y-54002500D01*
X138411803Y-54002500D01*
X138478842Y-54022185D01*
X138524597Y-54074989D01*
X138534541Y-54144147D01*
X138505516Y-54207703D01*
X138490468Y-54222353D01*
X138409116Y-54289116D01*
X138284090Y-54441460D01*
X138284086Y-54441467D01*
X138191188Y-54615266D01*
X138133975Y-54803870D01*
X138114659Y-55000000D01*
X138133975Y-55196129D01*
X138191188Y-55384733D01*
X138284086Y-55558532D01*
X138284090Y-55558539D01*
X138409116Y-55710883D01*
X138561460Y-55835909D01*
X138561467Y-55835913D01*
X138735266Y-55928811D01*
X138735269Y-55928811D01*
X138735273Y-55928814D01*
X138923868Y-55986024D01*
X139120000Y-56005341D01*
X139316132Y-55986024D01*
X139504727Y-55928814D01*
X139525657Y-55917627D01*
X139678532Y-55835913D01*
X139678538Y-55835910D01*
X139830883Y-55710883D01*
X139955910Y-55558538D01*
X140048814Y-55384727D01*
X140106024Y-55196132D01*
X140125341Y-55000000D01*
X140106024Y-54803868D01*
X140048814Y-54615273D01*
X140048811Y-54615269D01*
X140048811Y-54615266D01*
X139955913Y-54441467D01*
X139955909Y-54441460D01*
X139830883Y-54289116D01*
X139749532Y-54222353D01*
X139710198Y-54164607D01*
X139708327Y-54094763D01*
X139744515Y-54034994D01*
X139807271Y-54004279D01*
X139828197Y-54002500D01*
X142120375Y-54002500D01*
X142187414Y-54022185D01*
X142233169Y-54074989D01*
X142243113Y-54144147D01*
X142214088Y-54207703D01*
X142208056Y-54214181D01*
X138813568Y-57608667D01*
X138792938Y-57625294D01*
X138788876Y-57627905D01*
X138788867Y-57627912D01*
X138756353Y-57665435D01*
X138750329Y-57671905D01*
X138740780Y-57681454D01*
X138732678Y-57692277D01*
X138727132Y-57699159D01*
X138694624Y-57736676D01*
X138694617Y-57736687D01*
X138692615Y-57741071D01*
X138679100Y-57763850D01*
X138676206Y-57767715D01*
X138676200Y-57767726D01*
X138658851Y-57814242D01*
X138655466Y-57822416D01*
X138634835Y-57867594D01*
X138634833Y-57867601D01*
X138634146Y-57872378D01*
X138627598Y-57898037D01*
X138625910Y-57902564D01*
X138625909Y-57902567D01*
X138622365Y-57952105D01*
X138621420Y-57960896D01*
X138619500Y-57974251D01*
X138619500Y-57987741D01*
X138619184Y-57996588D01*
X138615640Y-58046128D01*
X138616079Y-58052261D01*
X138601226Y-58120534D01*
X138565585Y-58159511D01*
X138566171Y-58160225D01*
X138409116Y-58289116D01*
X138284090Y-58441460D01*
X138284086Y-58441467D01*
X138191188Y-58615266D01*
X138133975Y-58803870D01*
X138114659Y-59000000D01*
X138133975Y-59196129D01*
X138133976Y-59196132D01*
X138188190Y-59374852D01*
X138191188Y-59384733D01*
X138284086Y-59558532D01*
X138284090Y-59558539D01*
X138409116Y-59710883D01*
X138561460Y-59835909D01*
X138561467Y-59835913D01*
X138735266Y-59928811D01*
X138735269Y-59928811D01*
X138735273Y-59928814D01*
X138923868Y-59986024D01*
X139120000Y-60005341D01*
X139316132Y-59986024D01*
X139504727Y-59928814D01*
X139508101Y-59927011D01*
X139615016Y-59869863D01*
X139678538Y-59835910D01*
X139830883Y-59710883D01*
X139955910Y-59558538D01*
X140048814Y-59384727D01*
X140106024Y-59196132D01*
X140125341Y-59000000D01*
X140106024Y-58803868D01*
X140048814Y-58615273D01*
X140048811Y-58615269D01*
X140048811Y-58615266D01*
X139955913Y-58441467D01*
X139955909Y-58441460D01*
X139830883Y-58289116D01*
X139781678Y-58248735D01*
X139742344Y-58190990D01*
X139740473Y-58121145D01*
X139772660Y-58065203D01*
X142888320Y-54949543D01*
X142949642Y-54916060D01*
X143019334Y-54921044D01*
X143075267Y-54962916D01*
X143099684Y-55028380D01*
X143100000Y-55037226D01*
X143100000Y-55250000D01*
X144124722Y-55250000D01*
X144076375Y-55333740D01*
X144046190Y-55465992D01*
X144056327Y-55601265D01*
X144105887Y-55727541D01*
X144123797Y-55750000D01*
X143100000Y-55750000D01*
X143100000Y-56447844D01*
X143106401Y-56507372D01*
X143106403Y-56507379D01*
X143156645Y-56642086D01*
X143156649Y-56642093D01*
X143242809Y-56757187D01*
X143242812Y-56757190D01*
X143357906Y-56843350D01*
X143357913Y-56843354D01*
X143492620Y-56893596D01*
X143492627Y-56893598D01*
X143552155Y-56899999D01*
X143552172Y-56900000D01*
X144250000Y-56900000D01*
X144250000Y-55874189D01*
X144302547Y-55910016D01*
X144432173Y-55950000D01*
X144533724Y-55950000D01*
X144634138Y-55934865D01*
X144750000Y-55879068D01*
X144750000Y-56900000D01*
X145447828Y-56900000D01*
X145447844Y-56899999D01*
X145507372Y-56893598D01*
X145507379Y-56893596D01*
X145642086Y-56843354D01*
X145642093Y-56843350D01*
X145757187Y-56757190D01*
X145757190Y-56757187D01*
X145843350Y-56642093D01*
X145843354Y-56642086D01*
X145893596Y-56507379D01*
X145893598Y-56507372D01*
X145899999Y-56447844D01*
X145900000Y-56447827D01*
X145900000Y-56352447D01*
X145919685Y-56285408D01*
X145972489Y-56239653D01*
X146041647Y-56229709D01*
X146105203Y-56258734D01*
X146122954Y-56277721D01*
X146149017Y-56312234D01*
X146149019Y-56312237D01*
X146313437Y-56462123D01*
X146313439Y-56462125D01*
X146502595Y-56579245D01*
X146502596Y-56579245D01*
X146502599Y-56579247D01*
X146710060Y-56659618D01*
X146928757Y-56700500D01*
X146928759Y-56700500D01*
X147151241Y-56700500D01*
X147151243Y-56700500D01*
X147369940Y-56659618D01*
X147577401Y-56579247D01*
X147766562Y-56462124D01*
X147930981Y-56312236D01*
X148065058Y-56134689D01*
X148164229Y-55935528D01*
X148225115Y-55721536D01*
X148245643Y-55500000D01*
X148225115Y-55278464D01*
X148164229Y-55064472D01*
X148157023Y-55050000D01*
X148065061Y-54865316D01*
X148065056Y-54865308D01*
X148016664Y-54801227D01*
X147991972Y-54735866D01*
X148006537Y-54667531D01*
X148055734Y-54617918D01*
X148115618Y-54602500D01*
X149476000Y-54602500D01*
X149543039Y-54622185D01*
X149588794Y-54674989D01*
X149600000Y-54726500D01*
X149600000Y-55250000D01*
X150624722Y-55250000D01*
X150576375Y-55333740D01*
X150546190Y-55465992D01*
X150556327Y-55601265D01*
X150605887Y-55727541D01*
X150623797Y-55750000D01*
X149600000Y-55750000D01*
X149600000Y-56447844D01*
X149606401Y-56507372D01*
X149606403Y-56507379D01*
X149656645Y-56642086D01*
X149656649Y-56642093D01*
X149742809Y-56757187D01*
X149742812Y-56757190D01*
X149857906Y-56843350D01*
X149857913Y-56843354D01*
X149992620Y-56893596D01*
X149992627Y-56893598D01*
X150052155Y-56899999D01*
X150052172Y-56900000D01*
X150750000Y-56900000D01*
X150750000Y-55874189D01*
X150802547Y-55910016D01*
X150932173Y-55950000D01*
X151033724Y-55950000D01*
X151134138Y-55934865D01*
X151250000Y-55879068D01*
X151250000Y-56900000D01*
X151947828Y-56900000D01*
X151947844Y-56899999D01*
X152007372Y-56893598D01*
X152007379Y-56893596D01*
X152142086Y-56843354D01*
X152142093Y-56843350D01*
X152257187Y-56757190D01*
X152257190Y-56757187D01*
X152343350Y-56642093D01*
X152343354Y-56642086D01*
X152393596Y-56507379D01*
X152393598Y-56507372D01*
X152399999Y-56447844D01*
X152400000Y-56447827D01*
X152400000Y-56352447D01*
X152419685Y-56285408D01*
X152472489Y-56239653D01*
X152541647Y-56229709D01*
X152605203Y-56258734D01*
X152622954Y-56277721D01*
X152649017Y-56312234D01*
X152649019Y-56312237D01*
X152813437Y-56462123D01*
X152813439Y-56462125D01*
X153002595Y-56579245D01*
X153002596Y-56579245D01*
X153002599Y-56579247D01*
X153210060Y-56659618D01*
X153428757Y-56700500D01*
X153428759Y-56700500D01*
X153651241Y-56700500D01*
X153651243Y-56700500D01*
X153869940Y-56659618D01*
X154077401Y-56579247D01*
X154266562Y-56462124D01*
X154430981Y-56312236D01*
X154565058Y-56134689D01*
X154664229Y-55935528D01*
X154725115Y-55721536D01*
X154745643Y-55500000D01*
X154725115Y-55278464D01*
X154664229Y-55064472D01*
X154657023Y-55050000D01*
X154565061Y-54865316D01*
X154565056Y-54865308D01*
X154516664Y-54801227D01*
X154491972Y-54735866D01*
X154506537Y-54667531D01*
X154555734Y-54617918D01*
X154615618Y-54602500D01*
X155843324Y-54602500D01*
X155910363Y-54622185D01*
X155931005Y-54638819D01*
X156263181Y-54970995D01*
X156296666Y-55032318D01*
X156299500Y-55058676D01*
X156299500Y-56444856D01*
X156299502Y-56444882D01*
X156302413Y-56469987D01*
X156302415Y-56469991D01*
X156347793Y-56572764D01*
X156347794Y-56572765D01*
X156427235Y-56652206D01*
X156530009Y-56697585D01*
X156555135Y-56700500D01*
X158444864Y-56700499D01*
X158444879Y-56700497D01*
X158444882Y-56700497D01*
X158469987Y-56697586D01*
X158469988Y-56697585D01*
X158469991Y-56697585D01*
X158572765Y-56652206D01*
X158652206Y-56572765D01*
X158697585Y-56469991D01*
X158700500Y-56444865D01*
X158700499Y-56030418D01*
X158720183Y-55963382D01*
X158772987Y-55917627D01*
X158842146Y-55907683D01*
X158905702Y-55936708D01*
X158935499Y-55975149D01*
X159014938Y-56134683D01*
X159014943Y-56134691D01*
X159149020Y-56312238D01*
X159313437Y-56462123D01*
X159313439Y-56462125D01*
X159502595Y-56579245D01*
X159502596Y-56579245D01*
X159502599Y-56579247D01*
X159710060Y-56659618D01*
X159928757Y-56700500D01*
X159928759Y-56700500D01*
X160151241Y-56700500D01*
X160151243Y-56700500D01*
X160369940Y-56659618D01*
X160577401Y-56579247D01*
X160766562Y-56462124D01*
X160930981Y-56312236D01*
X161065058Y-56134689D01*
X161164229Y-55935528D01*
X161225115Y-55721536D01*
X161245643Y-55500000D01*
X161225115Y-55278464D01*
X161164229Y-55064472D01*
X161157023Y-55050000D01*
X161065061Y-54865316D01*
X161065056Y-54865308D01*
X160930979Y-54687761D01*
X160766562Y-54537876D01*
X160766560Y-54537874D01*
X160577404Y-54420754D01*
X160577398Y-54420752D01*
X160369940Y-54340382D01*
X160151243Y-54299500D01*
X159928757Y-54299500D01*
X159710060Y-54340382D01*
X159602921Y-54381888D01*
X159502601Y-54420752D01*
X159502595Y-54420754D01*
X159313439Y-54537874D01*
X159313437Y-54537876D01*
X159149020Y-54687761D01*
X159014943Y-54865308D01*
X159014938Y-54865316D01*
X158935499Y-55024851D01*
X158887996Y-55076088D01*
X158820333Y-55093509D01*
X158753993Y-55071583D01*
X158710038Y-55017272D01*
X158700499Y-54969579D01*
X158700499Y-54555143D01*
X158700499Y-54555136D01*
X158699607Y-54547441D01*
X158697586Y-54530012D01*
X158697585Y-54530010D01*
X158697585Y-54530009D01*
X158652206Y-54427235D01*
X158572765Y-54347794D01*
X158469992Y-54302415D01*
X158444868Y-54299500D01*
X158444865Y-54299500D01*
X157058676Y-54299500D01*
X156991637Y-54279815D01*
X156970995Y-54263181D01*
X156921995Y-54214181D01*
X156888510Y-54152858D01*
X156893494Y-54083166D01*
X156935366Y-54027233D01*
X157000830Y-54002816D01*
X157009676Y-54002500D01*
X161743324Y-54002500D01*
X161810363Y-54022185D01*
X161831005Y-54038819D01*
X162763181Y-54970995D01*
X162796666Y-55032318D01*
X162799500Y-55058676D01*
X162799500Y-56444856D01*
X162799502Y-56444882D01*
X162802413Y-56469987D01*
X162802415Y-56469991D01*
X162847793Y-56572764D01*
X162847794Y-56572765D01*
X162927235Y-56652206D01*
X163030009Y-56697585D01*
X163055135Y-56700500D01*
X164944864Y-56700499D01*
X164944879Y-56700497D01*
X164944882Y-56700497D01*
X164969987Y-56697586D01*
X164969988Y-56697585D01*
X164969991Y-56697585D01*
X165072765Y-56652206D01*
X165152206Y-56572765D01*
X165197585Y-56469991D01*
X165200500Y-56444865D01*
X165200499Y-56030418D01*
X165220183Y-55963382D01*
X165272987Y-55917627D01*
X165342146Y-55907683D01*
X165405702Y-55936708D01*
X165435499Y-55975149D01*
X165514938Y-56134683D01*
X165514943Y-56134691D01*
X165649020Y-56312238D01*
X165813437Y-56462123D01*
X165813439Y-56462125D01*
X166002595Y-56579245D01*
X166002596Y-56579245D01*
X166002599Y-56579247D01*
X166210060Y-56659618D01*
X166428757Y-56700500D01*
X166428759Y-56700500D01*
X166651241Y-56700500D01*
X166651243Y-56700500D01*
X166869940Y-56659618D01*
X167077401Y-56579247D01*
X167266562Y-56462124D01*
X167430981Y-56312236D01*
X167565058Y-56134689D01*
X167664229Y-55935528D01*
X167725115Y-55721536D01*
X167745643Y-55500000D01*
X167725115Y-55278464D01*
X167664229Y-55064472D01*
X167657023Y-55050000D01*
X167565061Y-54865316D01*
X167565056Y-54865308D01*
X167430979Y-54687761D01*
X167266562Y-54537876D01*
X167266560Y-54537874D01*
X167077404Y-54420754D01*
X167077398Y-54420752D01*
X166869940Y-54340382D01*
X166651243Y-54299500D01*
X166428757Y-54299500D01*
X166210060Y-54340382D01*
X166102921Y-54381888D01*
X166002601Y-54420752D01*
X166002595Y-54420754D01*
X165813439Y-54537874D01*
X165813437Y-54537876D01*
X165649020Y-54687761D01*
X165514943Y-54865308D01*
X165514938Y-54865316D01*
X165435499Y-55024851D01*
X165387996Y-55076088D01*
X165320333Y-55093509D01*
X165253993Y-55071583D01*
X165210038Y-55017272D01*
X165200499Y-54969579D01*
X165200499Y-54555143D01*
X165200499Y-54555136D01*
X165199607Y-54547441D01*
X165197586Y-54530012D01*
X165197585Y-54530010D01*
X165197585Y-54530009D01*
X165152206Y-54427235D01*
X165072765Y-54347794D01*
X164969992Y-54302415D01*
X164944868Y-54299500D01*
X164944865Y-54299500D01*
X163558676Y-54299500D01*
X163491637Y-54279815D01*
X163470995Y-54263181D01*
X162403385Y-53195571D01*
X162386750Y-53174928D01*
X162384145Y-53170874D01*
X162384143Y-53170872D01*
X162346614Y-53138353D01*
X162340143Y-53132329D01*
X162330593Y-53122779D01*
X162319785Y-53114688D01*
X162312904Y-53109144D01*
X162275373Y-53076623D01*
X162275372Y-53076622D01*
X162275367Y-53076619D01*
X162270983Y-53074617D01*
X162259431Y-53067763D01*
X175145787Y-53067763D01*
X175175413Y-53337013D01*
X175175415Y-53337024D01*
X175243926Y-53599082D01*
X175243928Y-53599088D01*
X175349870Y-53848390D01*
X175450926Y-54013976D01*
X175490979Y-54079605D01*
X175490986Y-54079615D01*
X175664253Y-54287819D01*
X175664259Y-54287824D01*
X175680544Y-54302415D01*
X175865998Y-54468582D01*
X176091910Y-54618044D01*
X176337176Y-54733020D01*
X176337183Y-54733022D01*
X176337185Y-54733023D01*
X176596557Y-54811057D01*
X176596564Y-54811058D01*
X176596569Y-54811060D01*
X176864561Y-54850500D01*
X176864566Y-54850500D01*
X177067629Y-54850500D01*
X177067631Y-54850500D01*
X177067636Y-54850499D01*
X177067648Y-54850499D01*
X177105191Y-54847750D01*
X177270156Y-54835677D01*
X177412938Y-54803871D01*
X177534546Y-54776782D01*
X177534548Y-54776781D01*
X177534553Y-54776780D01*
X177787558Y-54680014D01*
X178023777Y-54547441D01*
X178238177Y-54381888D01*
X178426186Y-54186881D01*
X178583799Y-53966579D01*
X178657787Y-53822669D01*
X178707649Y-53725690D01*
X178707651Y-53725684D01*
X178707656Y-53725675D01*
X178795118Y-53469305D01*
X178844319Y-53202933D01*
X178854212Y-52932235D01*
X178824586Y-52662982D01*
X178756072Y-52400912D01*
X178650130Y-52151610D01*
X178509018Y-51920390D01*
X178419747Y-51813119D01*
X178335746Y-51712180D01*
X178335740Y-51712175D01*
X178134002Y-51531418D01*
X177908092Y-51381957D01*
X177908090Y-51381956D01*
X177662824Y-51266980D01*
X177662819Y-51266978D01*
X177662814Y-51266976D01*
X177403442Y-51188942D01*
X177403428Y-51188939D01*
X177287791Y-51171921D01*
X177135439Y-51149500D01*
X176932369Y-51149500D01*
X176932351Y-51149500D01*
X176729844Y-51164323D01*
X176729831Y-51164325D01*
X176465453Y-51223217D01*
X176465446Y-51223220D01*
X176212439Y-51319987D01*
X175976226Y-51452557D01*
X175761822Y-51618112D01*
X175573822Y-51813109D01*
X175573816Y-51813116D01*
X175416202Y-52033419D01*
X175416199Y-52033424D01*
X175292350Y-52274309D01*
X175292343Y-52274327D01*
X175204884Y-52530685D01*
X175204881Y-52530699D01*
X175155681Y-52797068D01*
X175155680Y-52797075D01*
X175145787Y-53067763D01*
X162259431Y-53067763D01*
X162248194Y-53061096D01*
X162244331Y-53058204D01*
X162244329Y-53058203D01*
X162197790Y-53040845D01*
X162189622Y-53037461D01*
X162144457Y-53016835D01*
X162144455Y-53016834D01*
X162139682Y-53016148D01*
X162114000Y-53009593D01*
X162109486Y-53007909D01*
X162059946Y-53004365D01*
X162051159Y-53003420D01*
X162037799Y-53001500D01*
X162037797Y-53001500D01*
X162024308Y-53001500D01*
X162015461Y-53001184D01*
X161965929Y-52997641D01*
X161965925Y-52997641D01*
X161961215Y-52998666D01*
X161934857Y-53001500D01*
X131509508Y-53001500D01*
X131483150Y-52998666D01*
X131478439Y-52997641D01*
X131478435Y-52997641D01*
X131428904Y-53001184D01*
X131420057Y-53001500D01*
X131406565Y-53001500D01*
X131400428Y-53002382D01*
X131393205Y-53003420D01*
X131384419Y-53004365D01*
X131334881Y-53007909D01*
X131334878Y-53007910D01*
X131330351Y-53009598D01*
X131304692Y-53016146D01*
X131299915Y-53016833D01*
X131299908Y-53016835D01*
X131254730Y-53037466D01*
X131246556Y-53040851D01*
X131200040Y-53058200D01*
X131200029Y-53058206D01*
X131196164Y-53061100D01*
X131173385Y-53074615D01*
X131169001Y-53076617D01*
X131168990Y-53076624D01*
X131131473Y-53109132D01*
X131124591Y-53114678D01*
X131113768Y-53122780D01*
X131104219Y-53132329D01*
X131097749Y-53138353D01*
X131060226Y-53170867D01*
X131060219Y-53170876D01*
X131057608Y-53174938D01*
X131040981Y-53195568D01*
X129320698Y-54915851D01*
X129259375Y-54949336D01*
X129189683Y-54944352D01*
X129133750Y-54902480D01*
X129109614Y-54840322D01*
X129109156Y-54835676D01*
X129106024Y-54803868D01*
X129048814Y-54615273D01*
X129048811Y-54615269D01*
X129048811Y-54615266D01*
X128955913Y-54441467D01*
X128955909Y-54441460D01*
X128830883Y-54289116D01*
X128678539Y-54164090D01*
X128678532Y-54164086D01*
X128504733Y-54071188D01*
X128504727Y-54071186D01*
X128316132Y-54013976D01*
X128316129Y-54013975D01*
X128120000Y-53994659D01*
X127923870Y-54013975D01*
X127735266Y-54071188D01*
X127561467Y-54164086D01*
X127561460Y-54164090D01*
X127409116Y-54289116D01*
X127284090Y-54441460D01*
X127284086Y-54441467D01*
X127191188Y-54615266D01*
X127133975Y-54803870D01*
X127114659Y-55000000D01*
X127133975Y-55196129D01*
X127191188Y-55384733D01*
X127284086Y-55558532D01*
X127284090Y-55558539D01*
X127409116Y-55710883D01*
X127561460Y-55835909D01*
X127561467Y-55835913D01*
X127735266Y-55928811D01*
X127735269Y-55928811D01*
X127735273Y-55928814D01*
X127923868Y-55986024D01*
X127960323Y-55989614D01*
X128025110Y-56015774D01*
X128065470Y-56072808D01*
X128068588Y-56142608D01*
X128035851Y-56200698D01*
X127813568Y-56422981D01*
X127792938Y-56439608D01*
X127788876Y-56442219D01*
X127788867Y-56442226D01*
X127756353Y-56479749D01*
X127750329Y-56486219D01*
X127740780Y-56495768D01*
X127732678Y-56506591D01*
X127727132Y-56513473D01*
X127694624Y-56550990D01*
X127694617Y-56551001D01*
X127692615Y-56555385D01*
X127679100Y-56578164D01*
X127676206Y-56582029D01*
X127676200Y-56582040D01*
X127658851Y-56628556D01*
X127655466Y-56636730D01*
X127634835Y-56681908D01*
X127634833Y-56681915D01*
X127634146Y-56686692D01*
X127627598Y-56712351D01*
X127625910Y-56716878D01*
X127625909Y-56716881D01*
X127622365Y-56766419D01*
X127621420Y-56775210D01*
X127619500Y-56788565D01*
X127619500Y-56802055D01*
X127619184Y-56810902D01*
X127615641Y-56860434D01*
X127615641Y-56860438D01*
X127616666Y-56865150D01*
X127619500Y-56891508D01*
X127619500Y-58059030D01*
X127599815Y-58126069D01*
X127564396Y-58162129D01*
X127561461Y-58164089D01*
X127409116Y-58289116D01*
X127284090Y-58441460D01*
X127284086Y-58441467D01*
X127191188Y-58615266D01*
X127133975Y-58803870D01*
X127114659Y-59000000D01*
X127133975Y-59196129D01*
X127133976Y-59196132D01*
X127188190Y-59374852D01*
X127191188Y-59384733D01*
X127284086Y-59558532D01*
X127284090Y-59558539D01*
X127409116Y-59710883D01*
X127492905Y-59779647D01*
X127532239Y-59837393D01*
X127534110Y-59907237D01*
X127497922Y-59967006D01*
X127435166Y-59997721D01*
X127414240Y-59999500D01*
X121205760Y-59999500D01*
X121138721Y-59979815D01*
X121092966Y-59927011D01*
X121083022Y-59857853D01*
X121112047Y-59794297D01*
X121127095Y-59779647D01*
X121210883Y-59710883D01*
X121335909Y-59558539D01*
X121335913Y-59558532D01*
X121428811Y-59384733D01*
X121428811Y-59384732D01*
X121428814Y-59384727D01*
X121486024Y-59196132D01*
X121505341Y-59000000D01*
X121486024Y-58803868D01*
X121428814Y-58615273D01*
X121428811Y-58615269D01*
X121428811Y-58615266D01*
X121335913Y-58441467D01*
X121335909Y-58441460D01*
X121210883Y-58289116D01*
X121058539Y-58164090D01*
X121058532Y-58164086D01*
X120884733Y-58071188D01*
X120884727Y-58071186D01*
X120696132Y-58013976D01*
X120696129Y-58013975D01*
X120500000Y-57994659D01*
X120303870Y-58013975D01*
X120115266Y-58071188D01*
X119941467Y-58164086D01*
X119941460Y-58164090D01*
X119789116Y-58289116D01*
X119664090Y-58441460D01*
X119664086Y-58441467D01*
X119571188Y-58615266D01*
X119513975Y-58803870D01*
X119494659Y-59000000D01*
X119513976Y-59196133D01*
X119514664Y-59199593D01*
X119514498Y-59201439D01*
X119514573Y-59202194D01*
X119514429Y-59202208D01*
X119508432Y-59269184D01*
X119480726Y-59311458D01*
X113693568Y-65098616D01*
X113672938Y-65115243D01*
X113668876Y-65117854D01*
X113668867Y-65117861D01*
X113636353Y-65155384D01*
X113630329Y-65161854D01*
X113620780Y-65171403D01*
X113612678Y-65182226D01*
X113607132Y-65189108D01*
X113574624Y-65226625D01*
X113574617Y-65226636D01*
X113572615Y-65231020D01*
X113559100Y-65253799D01*
X113556206Y-65257664D01*
X113556200Y-65257675D01*
X113538851Y-65304191D01*
X113535466Y-65312365D01*
X113514835Y-65357543D01*
X113514833Y-65357550D01*
X113514146Y-65362327D01*
X113507598Y-65387986D01*
X113505910Y-65392513D01*
X113505909Y-65392516D01*
X113502365Y-65442054D01*
X113501420Y-65450845D01*
X113499500Y-65464200D01*
X113499500Y-65477690D01*
X113499184Y-65486537D01*
X113495641Y-65536069D01*
X113495641Y-65536073D01*
X113496666Y-65540785D01*
X113499500Y-65567143D01*
X113499500Y-77253796D01*
X113479815Y-77320835D01*
X113476015Y-77325854D01*
X113476078Y-77325898D01*
X113375182Y-77472068D01*
X113314860Y-77631125D01*
X113314859Y-77631130D01*
X113294355Y-77800000D01*
X113314859Y-77968869D01*
X113314860Y-77968874D01*
X113375182Y-78127931D01*
X113437475Y-78218177D01*
X113471817Y-78267929D01*
X113570500Y-78355354D01*
X113599150Y-78380736D01*
X113731522Y-78450210D01*
X113749775Y-78459790D01*
X113914944Y-78500500D01*
X114092324Y-78500500D01*
X114159363Y-78520185D01*
X114205118Y-78572989D01*
X114215062Y-78642147D01*
X114186037Y-78705703D01*
X114180005Y-78712181D01*
X114029005Y-78863181D01*
X113967682Y-78896666D01*
X113941324Y-78899500D01*
X113914944Y-78899500D01*
X113749773Y-78940210D01*
X113599150Y-79019263D01*
X113471816Y-79132072D01*
X113375182Y-79272068D01*
X113314860Y-79431125D01*
X113314859Y-79431130D01*
X113294355Y-79600000D01*
X95500500Y-79600000D01*
X95500500Y-71628676D01*
X95520185Y-71561637D01*
X95536819Y-71540995D01*
X98540995Y-68536819D01*
X98602318Y-68503334D01*
X98628676Y-68500500D01*
X101059030Y-68500500D01*
X101126069Y-68520185D01*
X101162129Y-68555604D01*
X101164089Y-68558538D01*
X101289116Y-68710883D01*
X101441460Y-68835909D01*
X101441467Y-68835913D01*
X101615266Y-68928811D01*
X101615269Y-68928811D01*
X101615273Y-68928814D01*
X101803868Y-68986024D01*
X102000000Y-69005341D01*
X102196132Y-68986024D01*
X102384727Y-68928814D01*
X102412104Y-68914181D01*
X102558532Y-68835913D01*
X102558538Y-68835910D01*
X102710883Y-68710883D01*
X102835910Y-68558538D01*
X102928814Y-68384727D01*
X102986024Y-68196132D01*
X103005341Y-68000000D01*
X108614659Y-68000000D01*
X108633975Y-68196129D01*
X108635502Y-68201164D01*
X108688190Y-68374852D01*
X108691188Y-68384733D01*
X108784086Y-68558532D01*
X108784090Y-68558539D01*
X108909116Y-68710883D01*
X109061460Y-68835909D01*
X109061467Y-68835913D01*
X109235266Y-68928811D01*
X109235269Y-68928811D01*
X109235273Y-68928814D01*
X109423868Y-68986024D01*
X109620000Y-69005341D01*
X109816132Y-68986024D01*
X110004727Y-68928814D01*
X110032104Y-68914181D01*
X110178532Y-68835913D01*
X110178538Y-68835910D01*
X110330883Y-68710883D01*
X110455910Y-68558538D01*
X110548814Y-68384727D01*
X110606024Y-68196132D01*
X110625341Y-68000000D01*
X110606024Y-67803868D01*
X110548814Y-67615273D01*
X110548811Y-67615269D01*
X110548811Y-67615266D01*
X110455913Y-67441467D01*
X110455909Y-67441460D01*
X110330883Y-67289116D01*
X110178539Y-67164090D01*
X110178532Y-67164086D01*
X110004733Y-67071188D01*
X110004727Y-67071186D01*
X109816132Y-67013976D01*
X109816129Y-67013975D01*
X109620000Y-66994659D01*
X109423870Y-67013975D01*
X109235266Y-67071188D01*
X109061467Y-67164086D01*
X109061460Y-67164090D01*
X108909116Y-67289116D01*
X108784090Y-67441460D01*
X108784086Y-67441467D01*
X108691188Y-67615266D01*
X108633975Y-67803870D01*
X108614659Y-68000000D01*
X103005341Y-68000000D01*
X102986024Y-67803868D01*
X102928814Y-67615273D01*
X102928811Y-67615269D01*
X102928811Y-67615266D01*
X102835913Y-67441467D01*
X102835909Y-67441460D01*
X102710883Y-67289116D01*
X102558539Y-67164090D01*
X102558532Y-67164086D01*
X102384733Y-67071188D01*
X102384727Y-67071186D01*
X102196132Y-67013976D01*
X102196129Y-67013975D01*
X102000000Y-66994659D01*
X101803870Y-67013975D01*
X101615266Y-67071188D01*
X101441467Y-67164086D01*
X101441460Y-67164090D01*
X101289116Y-67289116D01*
X101164089Y-67441461D01*
X101162129Y-67444396D01*
X101160705Y-67445585D01*
X101160225Y-67446171D01*
X101160113Y-67446079D01*
X101108514Y-67489198D01*
X101059030Y-67499500D01*
X98437143Y-67499500D01*
X98410785Y-67496666D01*
X98406074Y-67495641D01*
X98406070Y-67495641D01*
X98356539Y-67499184D01*
X98347692Y-67499500D01*
X98334200Y-67499500D01*
X98328063Y-67500382D01*
X98320840Y-67501420D01*
X98312054Y-67502365D01*
X98262516Y-67505909D01*
X98262513Y-67505910D01*
X98257986Y-67507598D01*
X98232327Y-67514146D01*
X98227550Y-67514833D01*
X98227543Y-67514835D01*
X98182365Y-67535466D01*
X98174191Y-67538851D01*
X98127675Y-67556200D01*
X98127664Y-67556206D01*
X98123799Y-67559100D01*
X98101020Y-67572615D01*
X98096636Y-67574617D01*
X98096625Y-67574624D01*
X98059108Y-67607132D01*
X98052226Y-67612678D01*
X98041403Y-67620780D01*
X98031854Y-67630329D01*
X98025384Y-67636353D01*
X97987861Y-67668867D01*
X97987854Y-67668876D01*
X97985243Y-67672938D01*
X97968616Y-67693568D01*
X94693568Y-70968616D01*
X94672938Y-70985243D01*
X94668876Y-70987854D01*
X94668867Y-70987861D01*
X94636353Y-71025384D01*
X94630329Y-71031854D01*
X94620780Y-71041403D01*
X94612678Y-71052226D01*
X94607132Y-71059108D01*
X94574624Y-71096625D01*
X94574617Y-71096636D01*
X94572615Y-71101020D01*
X94559100Y-71123799D01*
X94556206Y-71127664D01*
X94556200Y-71127675D01*
X94538851Y-71174191D01*
X94535466Y-71182365D01*
X94514835Y-71227543D01*
X94514833Y-71227550D01*
X94514146Y-71232327D01*
X94507598Y-71257986D01*
X94505910Y-71262513D01*
X94505909Y-71262516D01*
X94502365Y-71312054D01*
X94501420Y-71320845D01*
X94499500Y-71334200D01*
X94499500Y-71347690D01*
X94499184Y-71356537D01*
X94495641Y-71406069D01*
X94495641Y-71406073D01*
X94496666Y-71410785D01*
X94499500Y-71437143D01*
X94499500Y-82946452D01*
X94479815Y-83013491D01*
X94440778Y-83051879D01*
X94333957Y-83118020D01*
X94183237Y-83255418D01*
X94060327Y-83418178D01*
X93969422Y-83600739D01*
X93969417Y-83600752D01*
X93913602Y-83796917D01*
X93894785Y-83999999D01*
X93894785Y-84000000D01*
X80000500Y-84000000D01*
X80000500Y-61844856D01*
X100899500Y-61844856D01*
X100899502Y-61844882D01*
X100902413Y-61869987D01*
X100902415Y-61869991D01*
X100947793Y-61972764D01*
X100947794Y-61972765D01*
X101027235Y-62052206D01*
X101130009Y-62097585D01*
X101155135Y-62100500D01*
X102844864Y-62100499D01*
X102844879Y-62100497D01*
X102844882Y-62100497D01*
X102869987Y-62097586D01*
X102869988Y-62097585D01*
X102869991Y-62097585D01*
X102972765Y-62052206D01*
X103052206Y-61972765D01*
X103097585Y-61869991D01*
X103100500Y-61844865D01*
X103100499Y-61634151D01*
X103120183Y-61567114D01*
X103172987Y-61521359D01*
X103242145Y-61511415D01*
X103305701Y-61540440D01*
X103336881Y-61581748D01*
X103369864Y-61652480D01*
X103420974Y-61725472D01*
X104102046Y-61044400D01*
X104114835Y-61125148D01*
X104172359Y-61238045D01*
X104261955Y-61327641D01*
X104374852Y-61385165D01*
X104455599Y-61397953D01*
X103774526Y-62079025D01*
X103847513Y-62130132D01*
X103847521Y-62130136D01*
X104053668Y-62226264D01*
X104053682Y-62226269D01*
X104273389Y-62285139D01*
X104273400Y-62285141D01*
X104499998Y-62304966D01*
X104500002Y-62304966D01*
X104726599Y-62285141D01*
X104726610Y-62285139D01*
X104946317Y-62226269D01*
X104946331Y-62226264D01*
X105152478Y-62130136D01*
X105225471Y-62079024D01*
X104544400Y-61397953D01*
X104625148Y-61385165D01*
X104738045Y-61327641D01*
X104827641Y-61238045D01*
X104885165Y-61125148D01*
X104897953Y-61044400D01*
X105579024Y-61725471D01*
X105630136Y-61652478D01*
X105726264Y-61446331D01*
X105726269Y-61446317D01*
X105785139Y-61226610D01*
X105785141Y-61226599D01*
X105804966Y-61000002D01*
X105804966Y-60999997D01*
X105785141Y-60773400D01*
X105785139Y-60773389D01*
X105726269Y-60553682D01*
X105726264Y-60553668D01*
X105630136Y-60347521D01*
X105630132Y-60347513D01*
X105579025Y-60274526D01*
X104897953Y-60955598D01*
X104885165Y-60874852D01*
X104827641Y-60761955D01*
X104738045Y-60672359D01*
X104625148Y-60614835D01*
X104544401Y-60602046D01*
X105225472Y-59920974D01*
X105152478Y-59869863D01*
X104946331Y-59773735D01*
X104946317Y-59773730D01*
X104726610Y-59714860D01*
X104726599Y-59714858D01*
X104500002Y-59695034D01*
X104499998Y-59695034D01*
X104273400Y-59714858D01*
X104273389Y-59714860D01*
X104053682Y-59773730D01*
X104053673Y-59773734D01*
X103847516Y-59869866D01*
X103847512Y-59869868D01*
X103774526Y-59920973D01*
X103774526Y-59920974D01*
X104455599Y-60602046D01*
X104374852Y-60614835D01*
X104261955Y-60672359D01*
X104172359Y-60761955D01*
X104114835Y-60874852D01*
X104102046Y-60955598D01*
X103420974Y-60274526D01*
X103420973Y-60274526D01*
X103369868Y-60347512D01*
X103369866Y-60347517D01*
X103336881Y-60418253D01*
X103290708Y-60470692D01*
X103223515Y-60489844D01*
X103156633Y-60469628D01*
X103111299Y-60416462D01*
X103100499Y-60365848D01*
X103100499Y-60155143D01*
X103100499Y-60155136D01*
X103100191Y-60152478D01*
X103097586Y-60130012D01*
X103097585Y-60130010D01*
X103097585Y-60130009D01*
X103052206Y-60027235D01*
X102972765Y-59947794D01*
X102969413Y-59946314D01*
X102869992Y-59902415D01*
X102844865Y-59899500D01*
X101155143Y-59899500D01*
X101155117Y-59899502D01*
X101130012Y-59902413D01*
X101130008Y-59902415D01*
X101027235Y-59947793D01*
X100947794Y-60027234D01*
X100902415Y-60130006D01*
X100902415Y-60130008D01*
X100899500Y-60155131D01*
X100899500Y-61844856D01*
X80000500Y-61844856D01*
X80000500Y-59500000D01*
X108894785Y-59500000D01*
X108913602Y-59703082D01*
X108969417Y-59899247D01*
X108969422Y-59899260D01*
X109060327Y-60081821D01*
X109183237Y-60244581D01*
X109333958Y-60381980D01*
X109333960Y-60381982D01*
X109389648Y-60416462D01*
X109507363Y-60489348D01*
X109697544Y-60563024D01*
X109898024Y-60600500D01*
X109898026Y-60600500D01*
X110101974Y-60600500D01*
X110101976Y-60600500D01*
X110302456Y-60563024D01*
X110492637Y-60489348D01*
X110666041Y-60381981D01*
X110816764Y-60244579D01*
X110939673Y-60081821D01*
X111015861Y-59928814D01*
X111033138Y-59894118D01*
X111034763Y-59894927D01*
X111072258Y-59846102D01*
X111138017Y-59822491D01*
X111206103Y-59838180D01*
X111254898Y-59888188D01*
X111265118Y-59914178D01*
X111273729Y-59946314D01*
X111273735Y-59946331D01*
X111369863Y-60152478D01*
X111420974Y-60225472D01*
X112102046Y-59544400D01*
X112114835Y-59625148D01*
X112172359Y-59738045D01*
X112261955Y-59827641D01*
X112374852Y-59885165D01*
X112455599Y-59897953D01*
X111774526Y-60579025D01*
X111847513Y-60630132D01*
X111847521Y-60630136D01*
X112053668Y-60726264D01*
X112053682Y-60726269D01*
X112273389Y-60785139D01*
X112273400Y-60785141D01*
X112499998Y-60804966D01*
X112500002Y-60804966D01*
X112726599Y-60785141D01*
X112726610Y-60785139D01*
X112946317Y-60726269D01*
X112946331Y-60726264D01*
X113152478Y-60630136D01*
X113225471Y-60579024D01*
X112544400Y-59897953D01*
X112625148Y-59885165D01*
X112738045Y-59827641D01*
X112827641Y-59738045D01*
X112885165Y-59625148D01*
X112897953Y-59544400D01*
X113579024Y-60225471D01*
X113630136Y-60152478D01*
X113726264Y-59946331D01*
X113726269Y-59946317D01*
X113785139Y-59726610D01*
X113785141Y-59726599D01*
X113804966Y-59500002D01*
X113804966Y-59499997D01*
X113785141Y-59273400D01*
X113785139Y-59273389D01*
X113726269Y-59053682D01*
X113726264Y-59053668D01*
X113630136Y-58847521D01*
X113630132Y-58847513D01*
X113579025Y-58774526D01*
X112897953Y-59455598D01*
X112885165Y-59374852D01*
X112827641Y-59261955D01*
X112738045Y-59172359D01*
X112625148Y-59114835D01*
X112544401Y-59102046D01*
X113225472Y-58420974D01*
X113152478Y-58369863D01*
X112946331Y-58273735D01*
X112946317Y-58273730D01*
X112726610Y-58214860D01*
X112726599Y-58214858D01*
X112500002Y-58195034D01*
X112499998Y-58195034D01*
X112273400Y-58214858D01*
X112273389Y-58214860D01*
X112053682Y-58273730D01*
X112053673Y-58273734D01*
X111847516Y-58369866D01*
X111847512Y-58369868D01*
X111774526Y-58420973D01*
X111774526Y-58420974D01*
X112455599Y-59102046D01*
X112374852Y-59114835D01*
X112261955Y-59172359D01*
X112172359Y-59261955D01*
X112114835Y-59374852D01*
X112102046Y-59455598D01*
X111420974Y-58774526D01*
X111420973Y-58774526D01*
X111369868Y-58847512D01*
X111369866Y-58847516D01*
X111273734Y-59053673D01*
X111273729Y-59053686D01*
X111265118Y-59085821D01*
X111228752Y-59145481D01*
X111165904Y-59176009D01*
X111096529Y-59167712D01*
X111042652Y-59123226D01*
X111033484Y-59105709D01*
X111033138Y-59105882D01*
X110980415Y-59000000D01*
X110939673Y-58918179D01*
X110853351Y-58803870D01*
X110816762Y-58755418D01*
X110666041Y-58618019D01*
X110666039Y-58618017D01*
X110492642Y-58510655D01*
X110492635Y-58510651D01*
X110397546Y-58473814D01*
X110302456Y-58436976D01*
X110101976Y-58399500D01*
X109898024Y-58399500D01*
X109697544Y-58436976D01*
X109697541Y-58436976D01*
X109697541Y-58436977D01*
X109507364Y-58510651D01*
X109507357Y-58510655D01*
X109333960Y-58618017D01*
X109333958Y-58618019D01*
X109183237Y-58755418D01*
X109060327Y-58918178D01*
X108969422Y-59100739D01*
X108969417Y-59100752D01*
X108913602Y-59296917D01*
X108894785Y-59499999D01*
X108894785Y-59500000D01*
X80000500Y-59500000D01*
X80000500Y-55000000D01*
X119494659Y-55000000D01*
X119513975Y-55196129D01*
X119571188Y-55384733D01*
X119664086Y-55558532D01*
X119664090Y-55558539D01*
X119789116Y-55710883D01*
X119941460Y-55835909D01*
X119941467Y-55835913D01*
X120115266Y-55928811D01*
X120115269Y-55928811D01*
X120115273Y-55928814D01*
X120303868Y-55986024D01*
X120500000Y-56005341D01*
X120696132Y-55986024D01*
X120884727Y-55928814D01*
X120905657Y-55917627D01*
X121058532Y-55835913D01*
X121058538Y-55835910D01*
X121210883Y-55710883D01*
X121335910Y-55558538D01*
X121428814Y-55384727D01*
X121486024Y-55196132D01*
X121505341Y-55000000D01*
X121486024Y-54803868D01*
X121428814Y-54615273D01*
X121428811Y-54615269D01*
X121428811Y-54615266D01*
X121335913Y-54441467D01*
X121335909Y-54441460D01*
X121210883Y-54289116D01*
X121058539Y-54164090D01*
X121058532Y-54164086D01*
X120884733Y-54071188D01*
X120884727Y-54071186D01*
X120696132Y-54013976D01*
X120696129Y-54013975D01*
X120500000Y-53994659D01*
X120303870Y-54013975D01*
X120115266Y-54071188D01*
X119941467Y-54164086D01*
X119941460Y-54164090D01*
X119789116Y-54289116D01*
X119664090Y-54441460D01*
X119664086Y-54441467D01*
X119571188Y-54615266D01*
X119513975Y-54803870D01*
X119494659Y-55000000D01*
X80000500Y-55000000D01*
X80000500Y-53067763D01*
X81145787Y-53067763D01*
X81175413Y-53337013D01*
X81175415Y-53337024D01*
X81243926Y-53599082D01*
X81243928Y-53599088D01*
X81349870Y-53848390D01*
X81450926Y-54013976D01*
X81490979Y-54079605D01*
X81490986Y-54079615D01*
X81664253Y-54287819D01*
X81664259Y-54287824D01*
X81680544Y-54302415D01*
X81865998Y-54468582D01*
X82091910Y-54618044D01*
X82337176Y-54733020D01*
X82337183Y-54733022D01*
X82337185Y-54733023D01*
X82596557Y-54811057D01*
X82596564Y-54811058D01*
X82596569Y-54811060D01*
X82864561Y-54850500D01*
X82864566Y-54850500D01*
X83067629Y-54850500D01*
X83067631Y-54850500D01*
X83067636Y-54850499D01*
X83067648Y-54850499D01*
X83105191Y-54847750D01*
X83270156Y-54835677D01*
X83412938Y-54803871D01*
X83534546Y-54776782D01*
X83534548Y-54776781D01*
X83534553Y-54776780D01*
X83787558Y-54680014D01*
X84023777Y-54547441D01*
X84238177Y-54381888D01*
X84426186Y-54186881D01*
X84583799Y-53966579D01*
X84657787Y-53822669D01*
X84707649Y-53725690D01*
X84707651Y-53725684D01*
X84707656Y-53725675D01*
X84795118Y-53469305D01*
X84844319Y-53202933D01*
X84854212Y-52932235D01*
X84824586Y-52662982D01*
X84756072Y-52400912D01*
X84650130Y-52151610D01*
X84509018Y-51920390D01*
X84419747Y-51813119D01*
X84335746Y-51712180D01*
X84335740Y-51712175D01*
X84134002Y-51531418D01*
X83908092Y-51381957D01*
X83908090Y-51381956D01*
X83662824Y-51266980D01*
X83662819Y-51266978D01*
X83662814Y-51266976D01*
X83403442Y-51188942D01*
X83403428Y-51188939D01*
X83287791Y-51171921D01*
X83135439Y-51149500D01*
X82932369Y-51149500D01*
X82932351Y-51149500D01*
X82729844Y-51164323D01*
X82729831Y-51164325D01*
X82465453Y-51223217D01*
X82465446Y-51223220D01*
X82212439Y-51319987D01*
X81976226Y-51452557D01*
X81761822Y-51618112D01*
X81573822Y-51813109D01*
X81573816Y-51813116D01*
X81416202Y-52033419D01*
X81416199Y-52033424D01*
X81292350Y-52274309D01*
X81292343Y-52274327D01*
X81204884Y-52530685D01*
X81204881Y-52530699D01*
X81155681Y-52797068D01*
X81155680Y-52797075D01*
X81145787Y-53067763D01*
X80000500Y-53067763D01*
X80000500Y-50124500D01*
X80020185Y-50057461D01*
X80072989Y-50011706D01*
X80124500Y-50000500D01*
X179875500Y-50000500D01*
X179942539Y-50020185D01*
G37*
%TD.AperFunction*%
%TD*%
M02*
