%TF.GenerationSoftware,KiCad,Pcbnew,8.0.3*%
%TF.CreationDate,2024-06-21T15:34:50+08:00*%
%TF.ProjectId,pcb,7063622e-6b69-4636-9164-5f7063625858,rev?*%
%TF.SameCoordinates,Original*%
%TF.FileFunction,Copper,L1,Top*%
%TF.FilePolarity,Positive*%
%FSLAX46Y46*%
G04 Gerber Fmt 4.6, Leading zero omitted, Abs format (unit mm)*
G04 Created by KiCad (PCBNEW 8.0.3) date 2024-06-21 15:34:50*
%MOMM*%
%LPD*%
G01*
G04 APERTURE LIST*
G04 Aperture macros list*
%AMRoundRect*
0 Rectangle with rounded corners*
0 $1 Rounding radius*
0 $2 $3 $4 $5 $6 $7 $8 $9 X,Y pos of 4 corners*
0 Add a 4 corners polygon primitive as box body*
4,1,4,$2,$3,$4,$5,$6,$7,$8,$9,$2,$3,0*
0 Add four circle primitives for the rounded corners*
1,1,$1+$1,$2,$3*
1,1,$1+$1,$4,$5*
1,1,$1+$1,$6,$7*
1,1,$1+$1,$8,$9*
0 Add four rect primitives between the rounded corners*
20,1,$1+$1,$2,$3,$4,$5,0*
20,1,$1+$1,$4,$5,$6,$7,0*
20,1,$1+$1,$6,$7,$8,$9,0*
20,1,$1+$1,$8,$9,$2,$3,0*%
%AMRotRect*
0 Rectangle, with rotation*
0 The origin of the aperture is its center*
0 $1 length*
0 $2 width*
0 $3 Rotation angle, in degrees counterclockwise*
0 Add horizontal line*
21,1,$1,$2,0,0,$3*%
G04 Aperture macros list end*
%TA.AperFunction,ComponentPad*%
%ADD10C,1.400000*%
%TD*%
%TA.AperFunction,ComponentPad*%
%ADD11O,1.400000X1.400000*%
%TD*%
%TA.AperFunction,ComponentPad*%
%ADD12R,1.800000X1.800000*%
%TD*%
%TA.AperFunction,ComponentPad*%
%ADD13C,1.800000*%
%TD*%
%TA.AperFunction,SMDPad,CuDef*%
%ADD14RoundRect,0.250000X-1.000000X-0.650000X1.000000X-0.650000X1.000000X0.650000X-1.000000X0.650000X0*%
%TD*%
%TA.AperFunction,SMDPad,CuDef*%
%ADD15RoundRect,0.150000X-0.825000X-0.150000X0.825000X-0.150000X0.825000X0.150000X-0.825000X0.150000X0*%
%TD*%
%TA.AperFunction,ComponentPad*%
%ADD16C,2.050000*%
%TD*%
%TA.AperFunction,ComponentPad*%
%ADD17C,2.250000*%
%TD*%
%TA.AperFunction,ComponentPad*%
%ADD18C,1.600000*%
%TD*%
%TA.AperFunction,ComponentPad*%
%ADD19C,2.600000*%
%TD*%
%TA.AperFunction,SMDPad,CuDef*%
%ADD20RotRect,2.500000X5.100000X240.000000*%
%TD*%
%TA.AperFunction,SMDPad,CuDef*%
%ADD21C,10.200000*%
%TD*%
%TA.AperFunction,SMDPad,CuDef*%
%ADD22RoundRect,0.200000X-0.800000X-0.200000X0.800000X-0.200000X0.800000X0.200000X-0.800000X0.200000X0*%
%TD*%
%TA.AperFunction,ComponentPad*%
%ADD23R,3.000000X3.000000*%
%TD*%
%TA.AperFunction,ComponentPad*%
%ADD24C,3.000000*%
%TD*%
%TA.AperFunction,SMDPad,CuDef*%
%ADD25RoundRect,0.250000X1.000000X0.650000X-1.000000X0.650000X-1.000000X-0.650000X1.000000X-0.650000X0*%
%TD*%
%TA.AperFunction,ComponentPad*%
%ADD26R,1.600000X1.600000*%
%TD*%
%TA.AperFunction,SMDPad,CuDef*%
%ADD27RoundRect,0.375000X0.375000X-0.625000X0.375000X0.625000X-0.375000X0.625000X-0.375000X-0.625000X0*%
%TD*%
%TA.AperFunction,SMDPad,CuDef*%
%ADD28RoundRect,0.500000X1.400000X-0.500000X1.400000X0.500000X-1.400000X0.500000X-1.400000X-0.500000X0*%
%TD*%
%TA.AperFunction,ViaPad*%
%ADD29C,0.800000*%
%TD*%
%TA.AperFunction,Conductor*%
%ADD30C,0.400000*%
%TD*%
G04 APERTURE END LIST*
D10*
%TO.P,R2,1*%
%TO.N,/GNSS_PPS_B*%
X120500000Y-55000000D03*
D11*
%TO.P,R2,2*%
%TO.N,Net-(D4-A)*%
X128120000Y-55000000D03*
%TD*%
D10*
%TO.P,R3,1*%
%TO.N,Net-(C3-Pad2)*%
X152000000Y-64000000D03*
D11*
%TO.P,R3,2*%
%TO.N,/+3V3*%
X159620000Y-64000000D03*
%TD*%
D12*
%TO.P,D6,1,K*%
%TO.N,Net-(D6-K)*%
X157500000Y-55500000D03*
D13*
%TO.P,D6,2,A*%
%TO.N,/+3V3*%
X160040000Y-55500000D03*
%TD*%
D14*
%TO.P,D3,1,K*%
%TO.N,/Vin*%
X102500000Y-84000000D03*
%TO.P,D3,2,A*%
%TO.N,Net-(D3-A)*%
X106500000Y-84000000D03*
%TD*%
D10*
%TO.P,R9,1*%
%TO.N,/+3V3*%
X141000000Y-96000000D03*
D11*
%TO.P,R9,2*%
%TO.N,/RS485_A*%
X148620000Y-96000000D03*
%TD*%
D10*
%TO.P,R4,1*%
%TO.N,/GNSS_RXD*%
X120500000Y-59000000D03*
D11*
%TO.P,R4,2*%
%TO.N,Net-(D5-K)*%
X128120000Y-59000000D03*
%TD*%
D12*
%TO.P,D1,1,K*%
%TO.N,GND*%
X151000000Y-55500000D03*
D13*
%TO.P,D1,2,A*%
%TO.N,Net-(D1-A)*%
X153540000Y-55500000D03*
%TD*%
D15*
%TO.P,U3,1*%
%TO.N,Net-(U4-RO)*%
X143525000Y-79190000D03*
%TO.P,U3,2*%
%TO.N,Net-(U3-Pad2)*%
X143525000Y-80460000D03*
%TO.P,U3,3*%
X143525000Y-81730000D03*
%TO.P,U3,4*%
%TO.N,/GNSS_RXD*%
X143525000Y-83000000D03*
%TO.P,U3,5*%
%TO.N,/GNSS_TXD*%
X143525000Y-84270000D03*
%TO.P,U3,6*%
%TO.N,Net-(U4-DE)*%
X143525000Y-85540000D03*
%TO.P,U3,7,GND*%
%TO.N,GND*%
X143525000Y-86810000D03*
%TO.P,U3,8*%
%TO.N,unconnected-(U3-Pad8)*%
X148475000Y-86810000D03*
%TO.P,U3,9*%
%TO.N,unconnected-(U3-Pad9)*%
X148475000Y-85540000D03*
%TO.P,U3,10*%
%TO.N,unconnected-(U3-Pad10)*%
X148475000Y-84270000D03*
%TO.P,U3,11*%
%TO.N,unconnected-(U3-Pad11)*%
X148475000Y-83000000D03*
%TO.P,U3,12*%
%TO.N,unconnected-(U3-Pad12)*%
X148475000Y-81730000D03*
%TO.P,U3,13*%
%TO.N,unconnected-(U3-Pad13)*%
X148475000Y-80460000D03*
%TO.P,U3,14,VCC*%
%TO.N,/+3V3*%
X148475000Y-79190000D03*
%TD*%
D10*
%TO.P,R10,1*%
%TO.N,/RS485_B*%
X153500000Y-88000000D03*
D11*
%TO.P,R10,2*%
%TO.N,/RS485_A*%
X161120000Y-88000000D03*
%TD*%
D16*
%TO.P,J2,1,In*%
%TO.N,Net-(J2-In)*%
X175500000Y-64000000D03*
D17*
%TO.P,J2,2,Ext*%
%TO.N,GND*%
X172960000Y-61460000D03*
X172960000Y-66540000D03*
X178040000Y-61460000D03*
X178040000Y-66540000D03*
%TD*%
D18*
%TO.P,C8,1*%
%TO.N,Net-(C8-Pad1)*%
X165300000Y-64000000D03*
%TO.P,C8,2*%
%TO.N,Net-(J2-In)*%
X167800000Y-64000000D03*
%TD*%
D15*
%TO.P,U4,1,RO*%
%TO.N,Net-(U4-RO)*%
X156025000Y-79095000D03*
%TO.P,U4,2,~{RE}*%
%TO.N,Net-(U4-DE)*%
X156025000Y-80365000D03*
%TO.P,U4,3,DE*%
X156025000Y-81635000D03*
%TO.P,U4,4,DI*%
%TO.N,GND*%
X156025000Y-82905000D03*
%TO.P,U4,5,GND*%
X160975000Y-82905000D03*
%TO.P,U4,6,A*%
%TO.N,/RS485_A*%
X160975000Y-81635000D03*
%TO.P,U4,7,B*%
%TO.N,/RS485_B*%
X160975000Y-80365000D03*
%TO.P,U4,8,VCC*%
%TO.N,/+3V3*%
X160975000Y-79095000D03*
%TD*%
D16*
%TO.P,J3,1,In*%
%TO.N,Net-(J2-In)*%
X175500000Y-86000000D03*
D17*
%TO.P,J3,2,Ext*%
%TO.N,GND*%
X172960000Y-83460000D03*
X172960000Y-88540000D03*
X178040000Y-83460000D03*
X178040000Y-88540000D03*
%TD*%
D19*
%TO.P,L1,1*%
%TO.N,Net-(C3-Pad2)*%
X142500000Y-69500000D03*
%TO.P,L1,2*%
%TO.N,Net-(J2-In)*%
X145500000Y-69500000D03*
%TD*%
D10*
%TO.P,R6,1*%
%TO.N,/GNSS_TXD*%
X131500000Y-59000000D03*
D11*
%TO.P,R6,2*%
%TO.N,Net-(D6-K)*%
X139120000Y-59000000D03*
%TD*%
D18*
%TO.P,C10,1*%
%TO.N,GND*%
X157000000Y-73500000D03*
%TO.P,C10,2*%
%TO.N,/+3V3*%
X159500000Y-73500000D03*
%TD*%
D20*
%TO.P,BT1,1,+*%
%TO.N,/VBAT*%
X94800000Y-63418207D03*
X87200000Y-76581793D03*
D21*
%TO.P,BT1,2,-*%
%TO.N,GND*%
X91000000Y-70000000D03*
%TD*%
D22*
%TO.P,U2,1,GND*%
%TO.N,GND*%
X113900000Y-65200000D03*
%TO.P,U2,2,VCC*%
%TO.N,/+3V3*%
X113900000Y-67000000D03*
%TO.P,U2,3,RXD3*%
%TO.N,unconnected-(U2-RXD3-Pad3)*%
X113900000Y-68800000D03*
%TO.P,U2,4,TXD3*%
%TO.N,unconnected-(U2-TXD3-Pad4)*%
X113900000Y-70600000D03*
%TO.P,U2,5,SPI_CLK/I2C_SCL*%
%TO.N,unconnected-(U2-SPI_CLK{slash}I2C_SCL-Pad5)*%
X113900000Y-72400000D03*
%TO.P,U2,6,SPI_CS/I2C_SDA*%
%TO.N,unconnected-(U2-SPI_CS{slash}I2C_SDA-Pad6)*%
X113900000Y-74200000D03*
%TO.P,U2,7,RESET_N*%
%TO.N,Net-(U2-RESET_N)*%
X113900000Y-76000000D03*
%TO.P,U2,8,RXD1/SPI_MOSI*%
%TO.N,/GNSS_RXD*%
X113900000Y-77800000D03*
%TO.P,U2,9,TXD1/SPI_MISO*%
%TO.N,/GNSS_TXD*%
X113900000Y-79600000D03*
%TO.P,U2,10,V_BCKP*%
%TO.N,/VBAT*%
X113900000Y-81400000D03*
%TO.P,U2,11,RF_IN_A*%
%TO.N,/GNSS_ANT_A*%
X113900000Y-83200000D03*
%TO.P,U2,12,GND*%
%TO.N,GND*%
X113900000Y-85000000D03*
%TO.P,U2,13,GND*%
X136100000Y-85000000D03*
%TO.P,U2,14,RF_IN_B*%
%TO.N,/GNSS_ANT_B*%
X136100000Y-83200000D03*
%TO.P,U2,15,RESERVED*%
%TO.N,unconnected-(U2-RESERVED-Pad15)*%
X136100000Y-81400000D03*
%TO.P,U2,16,1PPS_B*%
%TO.N,/GNSS_PPS_B*%
X136100000Y-79600000D03*
%TO.P,U2,17,D_SEL_2*%
%TO.N,unconnected-(U2-D_SEL_2-Pad17)*%
X136100000Y-77800000D03*
%TO.P,U2,18,D_SEL_1*%
%TO.N,unconnected-(U2-D_SEL_1-Pad18)*%
X136100000Y-76000000D03*
%TO.P,U2,19,RXD2*%
%TO.N,unconnected-(U2-RXD2-Pad19)*%
X136100000Y-74000000D03*
%TO.P,U2,20,TXD2*%
%TO.N,unconnected-(U2-TXD2-Pad20)*%
X136100000Y-72200000D03*
%TO.P,U2,21,RESERVED*%
%TO.N,unconnected-(U2-RESERVED-Pad21)*%
X136100000Y-70400000D03*
%TO.P,U2,22,WAKEUP*%
%TO.N,unconnected-(U2-WAKEUP-Pad22)*%
X136100000Y-68600000D03*
%TO.P,U2,23,1PPS_A*%
%TO.N,/GNSS_PPS_A*%
X136100000Y-66800000D03*
%TO.P,U2,24,GND*%
%TO.N,GND*%
X136100000Y-65000000D03*
%TD*%
D10*
%TO.P,R5,1*%
%TO.N,/+3V3*%
X102000000Y-68000000D03*
D11*
%TO.P,R5,2*%
%TO.N,Net-(U2-RESET_N)*%
X109620000Y-68000000D03*
%TD*%
D23*
%TO.P,J1,1,Pin_1*%
%TO.N,Net-(D3-A)*%
X105000000Y-96000000D03*
D24*
%TO.P,J1,2,Pin_2*%
%TO.N,GND*%
X99920000Y-96000000D03*
%TD*%
D18*
%TO.P,C6,1*%
%TO.N,GND*%
X151300000Y-73500000D03*
%TO.P,C6,2*%
%TO.N,/+3V3*%
X153800000Y-73500000D03*
%TD*%
D25*
%TO.P,D2,1,K*%
%TO.N,/+3V3*%
X90500000Y-84000000D03*
%TO.P,D2,2,A*%
%TO.N,/VBAT*%
X86500000Y-84000000D03*
%TD*%
D12*
%TO.P,D4,1,K*%
%TO.N,GND*%
X144500000Y-55500000D03*
D13*
%TO.P,D4,2,A*%
%TO.N,Net-(D4-A)*%
X147040000Y-55500000D03*
%TD*%
D10*
%TO.P,R7,1*%
%TO.N,/GNSS_ANT_A*%
X115500000Y-94500000D03*
D11*
%TO.P,R7,2*%
%TO.N,Net-(C8-Pad1)*%
X123120000Y-94500000D03*
%TD*%
D10*
%TO.P,R8,1*%
%TO.N,/GNSS_ANT_B*%
X126500000Y-94500000D03*
D11*
%TO.P,R8,2*%
%TO.N,Net-(C9-Pad1)*%
X134120000Y-94500000D03*
%TD*%
D26*
%TO.P,C1,1*%
%TO.N,/Vin*%
X90000000Y-92000000D03*
D18*
%TO.P,C1,2*%
%TO.N,GND*%
X92500000Y-92000000D03*
%TD*%
D23*
%TO.P,J4,1,Pin_1*%
%TO.N,/RS485_A*%
X160000000Y-96000000D03*
D24*
%TO.P,J4,2,Pin_2*%
%TO.N,/RS485_B*%
X154920000Y-96000000D03*
%TD*%
D18*
%TO.P,C4,1*%
%TO.N,GND*%
X157000000Y-68500000D03*
%TO.P,C4,2*%
%TO.N,Net-(C3-Pad2)*%
X159500000Y-68500000D03*
%TD*%
%TO.P,C2,1*%
%TO.N,/+3V3*%
X95000000Y-84000000D03*
%TO.P,C2,2*%
%TO.N,GND*%
X97500000Y-84000000D03*
%TD*%
D10*
%TO.P,R11,1*%
%TO.N,/RS485_B*%
X141000000Y-92000000D03*
D11*
%TO.P,R11,2*%
%TO.N,GND*%
X148620000Y-92000000D03*
%TD*%
D26*
%TO.P,C7,1*%
%TO.N,/+3V3*%
X102000000Y-61000000D03*
D18*
%TO.P,C7,2*%
%TO.N,GND*%
X104500000Y-61000000D03*
%TD*%
D12*
%TO.P,D5,1,K*%
%TO.N,Net-(D5-K)*%
X164000000Y-55500000D03*
D13*
%TO.P,D5,2,A*%
%TO.N,/+3V3*%
X166540000Y-55500000D03*
%TD*%
D10*
%TO.P,R1,1*%
%TO.N,/GNSS_PPS_A*%
X131500000Y-55000000D03*
D11*
%TO.P,R1,2*%
%TO.N,Net-(D1-A)*%
X139120000Y-55000000D03*
%TD*%
D18*
%TO.P,C9,1*%
%TO.N,Net-(C9-Pad1)*%
X165300000Y-88000000D03*
%TO.P,C9,2*%
%TO.N,Net-(J2-In)*%
X167800000Y-88000000D03*
%TD*%
%TO.P,C5,1*%
%TO.N,/+3V3*%
X110000000Y-59500000D03*
%TO.P,C5,2*%
%TO.N,GND*%
X112500000Y-59500000D03*
%TD*%
%TO.P,C3,1*%
%TO.N,GND*%
X151300000Y-68500000D03*
%TO.P,C3,2*%
%TO.N,Net-(C3-Pad2)*%
X153800000Y-68500000D03*
%TD*%
D27*
%TO.P,U1,1,GND*%
%TO.N,GND*%
X102200000Y-79150000D03*
%TO.P,U1,2,VO*%
%TO.N,/+3V3*%
X104500000Y-79150000D03*
D28*
X104500000Y-72850000D03*
D27*
%TO.P,U1,3,VI*%
%TO.N,/Vin*%
X106800000Y-79150000D03*
%TD*%
D29*
%TO.N,GND*%
X117920000Y-81390000D03*
%TO.N,/GNSS_RXD*%
X114000000Y-77800000D03*
%TO.N,/GNSS_TXD*%
X114000000Y-79600000D03*
%TO.N,Net-(U4-RO)*%
X145960000Y-79190000D03*
X153390000Y-79110000D03*
%TD*%
D30*
%TO.N,Net-(D1-A)*%
X139120000Y-55000000D02*
X142120000Y-58000000D01*
X142120000Y-58000000D02*
X151040000Y-58000000D01*
X151040000Y-58000000D02*
X153540000Y-55500000D01*
%TO.N,/VBAT*%
X85333270Y-67828730D02*
X89743793Y-63418207D01*
X87200000Y-76581793D02*
X85333270Y-74715063D01*
X86500000Y-77281793D02*
X87200000Y-76581793D01*
X85333270Y-74715063D02*
X85333270Y-67828730D01*
X106781793Y-76581793D02*
X111600000Y-81400000D01*
X86500000Y-84000000D02*
X86500000Y-77281793D01*
X89743793Y-63418207D02*
X94800000Y-63418207D01*
X87200000Y-76581793D02*
X106781793Y-76581793D01*
X111600000Y-81400000D02*
X113900000Y-81400000D01*
%TO.N,/Vin*%
X102500000Y-84000000D02*
X99300000Y-87200000D01*
X99300000Y-87200000D02*
X91590000Y-87200000D01*
X90000000Y-88790000D02*
X90000000Y-92000000D01*
X106800000Y-79400000D02*
X102500000Y-83700000D01*
X91590000Y-87200000D02*
X90000000Y-88790000D01*
%TO.N,/+3V3*%
X150680000Y-79190000D02*
X148475000Y-79190000D01*
X160040000Y-63580000D02*
X159620000Y-64000000D01*
X98723834Y-85200000D02*
X96200000Y-85200000D01*
X159500000Y-77620000D02*
X160975000Y-79095000D01*
X104500000Y-79423834D02*
X98723834Y-85200000D01*
X110000000Y-64100000D02*
X112900000Y-67000000D01*
X159500000Y-73500000D02*
X159500000Y-77620000D01*
X153800000Y-73500000D02*
X153800000Y-76070000D01*
X166540000Y-55500000D02*
X165240000Y-54200000D01*
X95000000Y-84000000D02*
X90500000Y-84000000D01*
X158300000Y-72300000D02*
X155000000Y-72300000D01*
X102000000Y-68000000D02*
X102000000Y-70350000D01*
X96200000Y-85200000D02*
X95000000Y-84000000D01*
X112900000Y-67000000D02*
X113900000Y-67000000D01*
X102000000Y-70350000D02*
X104500000Y-72850000D01*
X110000000Y-59500000D02*
X103500000Y-59500000D01*
X102000000Y-61000000D02*
X102000000Y-68000000D01*
X153800000Y-76070000D02*
X150680000Y-79190000D01*
X160040000Y-55500000D02*
X160040000Y-63580000D01*
X157840000Y-53300000D02*
X160040000Y-55500000D01*
X165240000Y-54200000D02*
X161340000Y-54200000D01*
X110000000Y-59500000D02*
X110000000Y-64100000D01*
X116200000Y-53300000D02*
X157840000Y-53300000D01*
X159500000Y-73500000D02*
X158300000Y-72300000D01*
X110000000Y-59500000D02*
X116200000Y-53300000D01*
X155000000Y-72300000D02*
X153800000Y-73500000D01*
X103500000Y-59500000D02*
X102000000Y-61000000D01*
X161340000Y-54200000D02*
X160040000Y-55500000D01*
%TO.N,Net-(C3-Pad2)*%
X158300000Y-69700000D02*
X159500000Y-68500000D01*
X153800000Y-65800000D02*
X153800000Y-68500000D01*
X155000000Y-69700000D02*
X158300000Y-69700000D01*
X152000000Y-64000000D02*
X153800000Y-65800000D01*
X142500000Y-69500000D02*
X148000000Y-64000000D01*
X148000000Y-64000000D02*
X152000000Y-64000000D01*
X153800000Y-68500000D02*
X155000000Y-69700000D01*
%TO.N,Net-(J2-In)*%
X167800000Y-64000000D02*
X175500000Y-64000000D01*
X169800000Y-86000000D02*
X175500000Y-86000000D01*
X161500000Y-70300000D02*
X167800000Y-64000000D01*
X175500000Y-64000000D02*
X175500000Y-86000000D01*
X146300000Y-70300000D02*
X161500000Y-70300000D01*
X167800000Y-88000000D02*
X169800000Y-86000000D01*
X145500000Y-69500000D02*
X146300000Y-70300000D01*
%TO.N,Net-(C9-Pad1)*%
X152345635Y-89830000D02*
X163470000Y-89830000D01*
X163470000Y-89830000D02*
X165300000Y-88000000D01*
X147675635Y-94500000D02*
X152345635Y-89830000D01*
X134120000Y-94500000D02*
X147675635Y-94500000D01*
%TO.N,/GNSS_PPS_A*%
X133604000Y-65304000D02*
X135100000Y-66800000D01*
X135100000Y-66800000D02*
X136100000Y-66800000D01*
X133604000Y-57104000D02*
X133604000Y-65304000D01*
X131500000Y-55000000D02*
X133604000Y-57104000D01*
%TO.N,Net-(D4-A)*%
X145440000Y-53900000D02*
X129220000Y-53900000D01*
X129220000Y-53900000D02*
X128120000Y-55000000D01*
X147040000Y-55500000D02*
X145440000Y-53900000D01*
%TO.N,/GNSS_PPS_B*%
X132600000Y-77458000D02*
X134742000Y-79600000D01*
X120500000Y-55000000D02*
X121600000Y-56100000D01*
X121600000Y-56100000D02*
X130522000Y-56100000D01*
X130522000Y-56100000D02*
X132600000Y-58178000D01*
X132600000Y-58178000D02*
X132600000Y-77458000D01*
X134742000Y-79600000D02*
X136100000Y-79600000D01*
%TO.N,/RS485_A*%
X162600000Y-82285001D02*
X162600000Y-86520000D01*
X161949999Y-81635000D02*
X162600000Y-82285001D01*
X162600000Y-86520000D02*
X161120000Y-88000000D01*
X160975000Y-81635000D02*
X161949999Y-81635000D01*
%TO.N,/RS485_B*%
X149890502Y-88000000D02*
X145890502Y-92000000D01*
X161445635Y-89230000D02*
X154730000Y-89230000D01*
X145890502Y-92000000D02*
X141000000Y-92000000D01*
X154730000Y-89230000D02*
X153500000Y-88000000D01*
X160975000Y-80365000D02*
X161949999Y-80365000D01*
X153500000Y-88000000D02*
X149890502Y-88000000D01*
X163260000Y-87415635D02*
X161445635Y-89230000D01*
X163260000Y-81675001D02*
X163260000Y-87415635D01*
X161949999Y-80365000D02*
X163260000Y-81675001D01*
%TO.N,/GNSS_RXD*%
X116606528Y-80406528D02*
X138436528Y-80406528D01*
X141030000Y-83000000D02*
X143525000Y-83000000D01*
X114000000Y-77800000D02*
X116606528Y-80406528D01*
X138436528Y-80406528D02*
X141030000Y-83000000D01*
%TO.N,Net-(U2-RESET_N)*%
X109620000Y-68000000D02*
X109620000Y-72720000D01*
X109620000Y-72720000D02*
X112900000Y-76000000D01*
X112900000Y-76000000D02*
X113900000Y-76000000D01*
%TO.N,/GNSS_TXD*%
X140606052Y-84270000D02*
X143525000Y-84270000D01*
X116710987Y-82310987D02*
X138647039Y-82310987D01*
X114000000Y-79600000D02*
X116710987Y-82310987D01*
X138647039Y-82310987D02*
X140606052Y-84270000D01*
%TO.N,/GNSS_ANT_A*%
X114900000Y-83200000D02*
X115500000Y-83800000D01*
X113900000Y-83200000D02*
X114900000Y-83200000D01*
X115500000Y-83800000D02*
X115500000Y-94500000D01*
%TO.N,Net-(D3-A)*%
X106500000Y-94500000D02*
X105000000Y-96000000D01*
X106500000Y-84000000D02*
X106500000Y-94500000D01*
%TO.N,/GNSS_ANT_B*%
X126500000Y-91800000D02*
X126500000Y-94500000D01*
X135100000Y-83200000D02*
X126500000Y-91800000D01*
X136100000Y-83200000D02*
X135100000Y-83200000D01*
%TO.N,Net-(U4-RO)*%
X143525000Y-79190000D02*
X145960000Y-79190000D01*
X153390000Y-79110000D02*
X156010000Y-79110000D01*
%TO.N,Net-(U3-Pad2)*%
X143525000Y-80460000D02*
X143525000Y-81730000D01*
%TO.N,Net-(U4-DE)*%
X156025000Y-81635000D02*
X153105000Y-81635000D01*
X150790000Y-83950000D02*
X150790000Y-86251974D01*
X153105000Y-81635000D02*
X150790000Y-83950000D01*
X149531974Y-87510000D02*
X146250000Y-87510000D01*
X146250000Y-87510000D02*
X144280000Y-85540000D01*
X156025000Y-81635000D02*
X156025000Y-80365000D01*
X150790000Y-86251974D02*
X149531974Y-87510000D01*
%TD*%
%TA.AperFunction,Conductor*%
%TO.N,GND*%
G36*
X155764189Y-72820185D02*
G01*
X155809944Y-72872989D01*
X155819888Y-72942147D01*
X155809532Y-72976905D01*
X155773733Y-73053673D01*
X155773730Y-73053682D01*
X155714860Y-73273389D01*
X155714858Y-73273400D01*
X155695034Y-73499997D01*
X155695034Y-73500002D01*
X155714858Y-73726599D01*
X155714860Y-73726610D01*
X155773730Y-73946317D01*
X155773735Y-73946331D01*
X155869863Y-74152478D01*
X155920974Y-74225472D01*
X156600000Y-73546446D01*
X156600000Y-73552661D01*
X156627259Y-73654394D01*
X156679920Y-73745606D01*
X156754394Y-73820080D01*
X156845606Y-73872741D01*
X156947339Y-73900000D01*
X156953553Y-73900000D01*
X156274526Y-74579025D01*
X156347513Y-74630132D01*
X156347521Y-74630136D01*
X156553668Y-74726264D01*
X156553682Y-74726269D01*
X156773389Y-74785139D01*
X156773400Y-74785141D01*
X156999998Y-74804966D01*
X157000002Y-74804966D01*
X157226599Y-74785141D01*
X157226610Y-74785139D01*
X157446317Y-74726269D01*
X157446331Y-74726264D01*
X157652478Y-74630136D01*
X157725471Y-74579024D01*
X157046447Y-73900000D01*
X157052661Y-73900000D01*
X157154394Y-73872741D01*
X157245606Y-73820080D01*
X157320080Y-73745606D01*
X157372741Y-73654394D01*
X157400000Y-73552661D01*
X157400000Y-73546447D01*
X158079024Y-74225471D01*
X158130136Y-74152478D01*
X158226264Y-73946331D01*
X158226269Y-73946317D01*
X158234880Y-73914181D01*
X158271244Y-73854521D01*
X158334091Y-73823991D01*
X158403467Y-73832285D01*
X158457345Y-73876770D01*
X158466516Y-73894290D01*
X158466862Y-73894118D01*
X158560327Y-74081821D01*
X158683237Y-74244581D01*
X158833955Y-74381978D01*
X158833957Y-74381979D01*
X158833959Y-74381981D01*
X158940779Y-74448121D01*
X158987413Y-74500146D01*
X158999500Y-74553546D01*
X158999500Y-77554108D01*
X158999500Y-77685892D01*
X159016554Y-77749539D01*
X159033608Y-77813187D01*
X159054574Y-77849500D01*
X159099500Y-77927314D01*
X159099502Y-77927316D01*
X159738460Y-78566274D01*
X159771945Y-78627597D01*
X159766961Y-78697289D01*
X159750552Y-78727584D01*
X159747210Y-78732111D01*
X159747206Y-78732119D01*
X159702353Y-78860298D01*
X159702353Y-78860300D01*
X159699500Y-78890730D01*
X159699500Y-79299269D01*
X159702353Y-79329699D01*
X159702353Y-79329701D01*
X159747206Y-79457880D01*
X159747207Y-79457882D01*
X159827850Y-79567150D01*
X159913321Y-79630230D01*
X159955571Y-79685877D01*
X159961030Y-79755534D01*
X159927962Y-79817083D01*
X159913321Y-79829769D01*
X159874822Y-79858183D01*
X159827850Y-79892850D01*
X159747207Y-80002117D01*
X159747206Y-80002119D01*
X159702353Y-80130298D01*
X159702353Y-80130300D01*
X159699500Y-80160730D01*
X159699500Y-80569269D01*
X159702353Y-80599699D01*
X159702353Y-80599701D01*
X159742293Y-80713839D01*
X159747207Y-80727882D01*
X159827850Y-80837150D01*
X159913321Y-80900230D01*
X159955571Y-80955877D01*
X159961030Y-81025534D01*
X159927962Y-81087083D01*
X159913321Y-81099769D01*
X159873038Y-81129500D01*
X159827850Y-81162850D01*
X159747207Y-81272117D01*
X159747206Y-81272119D01*
X159702353Y-81400298D01*
X159702353Y-81400300D01*
X159699500Y-81430730D01*
X159699500Y-81839269D01*
X159702353Y-81869699D01*
X159702353Y-81869701D01*
X159747206Y-81997880D01*
X159747207Y-81997882D01*
X159827850Y-82107150D01*
X159937118Y-82187793D01*
X159978145Y-82202149D01*
X160065299Y-82232646D01*
X160095730Y-82235500D01*
X160095734Y-82235500D01*
X161791323Y-82235500D01*
X161858362Y-82255185D01*
X161879004Y-82271819D01*
X162063181Y-82455995D01*
X162096666Y-82517318D01*
X162099500Y-82543676D01*
X162099500Y-86261323D01*
X162079815Y-86328362D01*
X162063181Y-86349004D01*
X161431458Y-86980726D01*
X161370135Y-87014211D01*
X161319593Y-87014664D01*
X161316133Y-87013976D01*
X161120000Y-86994659D01*
X160923870Y-87013975D01*
X160735266Y-87071188D01*
X160561467Y-87164086D01*
X160561460Y-87164090D01*
X160409116Y-87289116D01*
X160284090Y-87441460D01*
X160284086Y-87441467D01*
X160191188Y-87615266D01*
X160133975Y-87803870D01*
X160114659Y-88000000D01*
X160133975Y-88196129D01*
X160191188Y-88384733D01*
X160277947Y-88547047D01*
X160292189Y-88615450D01*
X160267189Y-88680694D01*
X160210884Y-88722064D01*
X160168589Y-88729500D01*
X154988676Y-88729500D01*
X154921637Y-88709815D01*
X154900995Y-88693181D01*
X154519273Y-88311459D01*
X154485788Y-88250136D01*
X154485338Y-88199581D01*
X154486024Y-88196132D01*
X154497167Y-88082989D01*
X154505341Y-88000000D01*
X154486024Y-87803868D01*
X154428814Y-87615273D01*
X154428811Y-87615269D01*
X154428811Y-87615266D01*
X154335913Y-87441467D01*
X154335909Y-87441460D01*
X154210883Y-87289116D01*
X154058539Y-87164090D01*
X154058532Y-87164086D01*
X153884733Y-87071188D01*
X153884727Y-87071186D01*
X153696132Y-87013976D01*
X153696129Y-87013975D01*
X153500000Y-86994659D01*
X153303870Y-87013975D01*
X153115266Y-87071188D01*
X152941467Y-87164086D01*
X152941460Y-87164090D01*
X152789116Y-87289116D01*
X152664089Y-87441461D01*
X152662129Y-87444396D01*
X152660705Y-87445585D01*
X152660225Y-87446171D01*
X152660113Y-87446079D01*
X152608514Y-87489198D01*
X152559030Y-87499500D01*
X150549650Y-87499500D01*
X150482611Y-87479815D01*
X150436856Y-87427011D01*
X150426912Y-87357853D01*
X150455937Y-87294297D01*
X150461969Y-87287819D01*
X150819746Y-86930042D01*
X151190499Y-86559289D01*
X151256392Y-86445160D01*
X151290500Y-86317867D01*
X151290500Y-86186082D01*
X151290500Y-84208676D01*
X151310185Y-84141637D01*
X151326819Y-84120995D01*
X153275995Y-82171819D01*
X153337318Y-82138334D01*
X153363676Y-82135500D01*
X154875460Y-82135500D01*
X154942499Y-82155185D01*
X154949093Y-82159730D01*
X154987113Y-82187790D01*
X154987115Y-82187791D01*
X154987118Y-82187793D01*
X155028145Y-82202149D01*
X155115299Y-82232646D01*
X155145730Y-82235500D01*
X155145734Y-82235500D01*
X156904270Y-82235500D01*
X156934699Y-82232646D01*
X156934701Y-82232646D01*
X156998790Y-82210219D01*
X157062882Y-82187793D01*
X157172150Y-82107150D01*
X157252793Y-81997882D01*
X157283631Y-81909752D01*
X157297646Y-81869701D01*
X157297646Y-81869699D01*
X157300500Y-81839269D01*
X157300500Y-81430730D01*
X157297646Y-81400300D01*
X157297646Y-81400298D01*
X157252793Y-81272119D01*
X157252792Y-81272117D01*
X157225030Y-81234501D01*
X157172150Y-81162850D01*
X157086677Y-81099768D01*
X157044428Y-81044123D01*
X157038969Y-80974467D01*
X157072036Y-80912917D01*
X157086670Y-80900236D01*
X157172150Y-80837150D01*
X157252793Y-80727882D01*
X157275783Y-80662181D01*
X157297646Y-80599701D01*
X157297646Y-80599699D01*
X157300500Y-80569269D01*
X157300500Y-80160730D01*
X157297646Y-80130300D01*
X157297646Y-80130298D01*
X157252793Y-80002119D01*
X157252792Y-80002117D01*
X157223951Y-79963039D01*
X157172150Y-79892850D01*
X157086677Y-79829768D01*
X157044428Y-79774123D01*
X157038969Y-79704467D01*
X157072036Y-79642917D01*
X157086670Y-79630236D01*
X157172150Y-79567150D01*
X157252793Y-79457882D01*
X157275219Y-79393790D01*
X157297646Y-79329701D01*
X157297646Y-79329699D01*
X157300500Y-79299269D01*
X157300500Y-78890730D01*
X157297646Y-78860300D01*
X157297646Y-78860298D01*
X157252793Y-78732119D01*
X157252792Y-78732117D01*
X157252788Y-78732111D01*
X157172150Y-78622850D01*
X157062882Y-78542207D01*
X157062880Y-78542206D01*
X156934700Y-78497353D01*
X156904270Y-78494500D01*
X156904266Y-78494500D01*
X155145734Y-78494500D01*
X155145730Y-78494500D01*
X155115300Y-78497353D01*
X155115298Y-78497353D01*
X154987119Y-78542206D01*
X154928770Y-78585270D01*
X154863141Y-78609241D01*
X154855136Y-78609500D01*
X153928445Y-78609500D01*
X153861406Y-78589815D01*
X153846218Y-78578316D01*
X153790852Y-78529266D01*
X153790850Y-78529265D01*
X153790849Y-78529264D01*
X153640226Y-78450210D01*
X153475056Y-78409500D01*
X153304944Y-78409500D01*
X153139773Y-78450210D01*
X152989150Y-78529263D01*
X152898846Y-78609266D01*
X152867309Y-78637206D01*
X152861816Y-78642072D01*
X152765182Y-78782068D01*
X152704860Y-78941125D01*
X152704859Y-78941130D01*
X152684355Y-79110000D01*
X152704859Y-79278869D01*
X152704860Y-79278874D01*
X152765182Y-79437931D01*
X152820402Y-79517930D01*
X152861817Y-79577929D01*
X152952119Y-79657929D01*
X152989150Y-79690736D01*
X153139773Y-79769789D01*
X153139775Y-79769790D01*
X153304944Y-79810500D01*
X153475056Y-79810500D01*
X153640225Y-79769790D01*
X153790852Y-79690734D01*
X153846218Y-79641683D01*
X153909451Y-79611963D01*
X153928445Y-79610500D01*
X154883590Y-79610500D01*
X154950629Y-79630185D01*
X154996384Y-79682989D01*
X155006328Y-79752147D01*
X154977303Y-79815703D01*
X154957225Y-79834268D01*
X154923038Y-79859500D01*
X154877850Y-79892850D01*
X154797207Y-80002117D01*
X154797206Y-80002119D01*
X154752353Y-80130298D01*
X154752353Y-80130300D01*
X154749500Y-80160730D01*
X154749500Y-80569269D01*
X154752353Y-80599699D01*
X154752353Y-80599701D01*
X154792293Y-80713839D01*
X154797207Y-80727882D01*
X154877850Y-80837150D01*
X154963321Y-80900230D01*
X155005571Y-80955877D01*
X155011030Y-81025534D01*
X154977962Y-81087083D01*
X154963322Y-81099769D01*
X154963320Y-81099771D01*
X154949094Y-81110270D01*
X154883465Y-81134241D01*
X154875460Y-81134500D01*
X153039107Y-81134500D01*
X152933302Y-81162850D01*
X152933301Y-81162849D01*
X152911814Y-81168607D01*
X152797686Y-81234500D01*
X152797683Y-81234502D01*
X150389502Y-83642683D01*
X150389500Y-83642686D01*
X150323608Y-83756812D01*
X150289500Y-83884108D01*
X150289500Y-85993297D01*
X150269815Y-86060336D01*
X150253181Y-86080978D01*
X149882918Y-86451240D01*
X149821595Y-86484725D01*
X149751903Y-86479741D01*
X149695970Y-86437869D01*
X149695618Y-86437397D01*
X149622150Y-86337850D01*
X149536677Y-86274768D01*
X149494428Y-86219123D01*
X149488969Y-86149467D01*
X149522036Y-86087917D01*
X149536670Y-86075236D01*
X149622150Y-86012150D01*
X149702793Y-85902882D01*
X149725219Y-85838790D01*
X149747646Y-85774701D01*
X149747646Y-85774699D01*
X149750500Y-85744269D01*
X149750500Y-85335730D01*
X149747646Y-85305300D01*
X149747646Y-85305298D01*
X149710975Y-85200500D01*
X149702793Y-85177118D01*
X149622150Y-85067850D01*
X149536677Y-85004768D01*
X149494428Y-84949123D01*
X149488969Y-84879467D01*
X149522036Y-84817917D01*
X149536670Y-84805236D01*
X149622150Y-84742150D01*
X149702793Y-84632882D01*
X149729184Y-84557461D01*
X149747646Y-84504701D01*
X149747646Y-84504699D01*
X149750500Y-84474269D01*
X149750500Y-84065730D01*
X149747646Y-84035300D01*
X149747646Y-84035298D01*
X149702793Y-83907119D01*
X149702792Y-83907117D01*
X149697908Y-83900500D01*
X149622150Y-83797850D01*
X149536677Y-83734768D01*
X149494428Y-83679123D01*
X149488969Y-83609467D01*
X149522036Y-83547917D01*
X149536670Y-83535236D01*
X149622150Y-83472150D01*
X149702793Y-83362882D01*
X149733710Y-83274526D01*
X149747646Y-83234701D01*
X149747646Y-83234699D01*
X149750500Y-83204269D01*
X149750500Y-82795730D01*
X149747646Y-82765300D01*
X149747646Y-82765298D01*
X149702793Y-82637119D01*
X149702792Y-82637117D01*
X149643077Y-82556206D01*
X149622150Y-82527850D01*
X149536677Y-82464768D01*
X149494428Y-82409123D01*
X149488969Y-82339467D01*
X149522036Y-82277917D01*
X149536670Y-82265236D01*
X149622150Y-82202150D01*
X149702793Y-82092882D01*
X149732622Y-82007636D01*
X149747646Y-81964701D01*
X149747646Y-81964699D01*
X149750500Y-81934269D01*
X149750500Y-81525730D01*
X149747646Y-81495300D01*
X149747646Y-81495298D01*
X149702793Y-81367119D01*
X149702792Y-81367117D01*
X149631242Y-81270170D01*
X149622150Y-81257850D01*
X149536677Y-81194768D01*
X149494428Y-81139123D01*
X149488969Y-81069467D01*
X149522036Y-81007917D01*
X149536670Y-80995236D01*
X149622150Y-80932150D01*
X149702793Y-80822882D01*
X149740949Y-80713839D01*
X149747646Y-80694701D01*
X149747646Y-80694699D01*
X149750500Y-80664269D01*
X149750500Y-80255730D01*
X149747646Y-80225300D01*
X149747646Y-80225298D01*
X149702793Y-80097119D01*
X149702792Y-80097117D01*
X149671171Y-80054272D01*
X149622150Y-79987850D01*
X149536678Y-79924769D01*
X149494428Y-79869121D01*
X149488969Y-79799465D01*
X149522037Y-79737916D01*
X149536670Y-79725236D01*
X149550914Y-79714723D01*
X149616545Y-79690758D01*
X149624540Y-79690500D01*
X150745890Y-79690500D01*
X150745892Y-79690500D01*
X150873186Y-79656392D01*
X150987314Y-79590500D01*
X154097104Y-76480707D01*
X154097109Y-76480704D01*
X154107312Y-76470500D01*
X154107314Y-76470500D01*
X154200500Y-76377314D01*
X154266392Y-76263186D01*
X154300500Y-76135892D01*
X154300500Y-74553546D01*
X154320185Y-74486507D01*
X154359218Y-74448122D01*
X154466041Y-74381981D01*
X154556474Y-74299539D01*
X154616762Y-74244581D01*
X154616764Y-74244579D01*
X154739673Y-74081821D01*
X154830582Y-73899250D01*
X154886397Y-73703083D01*
X154905215Y-73500000D01*
X154886397Y-73296917D01*
X154867464Y-73230376D01*
X154868050Y-73160512D01*
X154899045Y-73108766D01*
X155170995Y-72836816D01*
X155232317Y-72803334D01*
X155258675Y-72800500D01*
X155697150Y-72800500D01*
X155764189Y-72820185D01*
G37*
%TD.AperFunction*%
%TA.AperFunction,Conductor*%
G36*
X115358119Y-79873036D02*
G01*
X115386372Y-79894186D01*
X116201687Y-80709500D01*
X116201697Y-80709511D01*
X116206027Y-80713841D01*
X116206028Y-80713842D01*
X116299214Y-80807028D01*
X116400490Y-80865500D01*
X116413342Y-80872920D01*
X116540635Y-80907028D01*
X116540636Y-80907028D01*
X134696498Y-80907028D01*
X134763537Y-80926713D01*
X134809292Y-80979517D01*
X134819236Y-81048675D01*
X134812681Y-81074359D01*
X134807936Y-81087083D01*
X134805909Y-81092517D01*
X134799500Y-81152127D01*
X134799500Y-81152134D01*
X134799500Y-81152135D01*
X134799500Y-81647870D01*
X134799501Y-81647879D01*
X134802227Y-81673235D01*
X134789820Y-81741994D01*
X134742208Y-81793130D01*
X134678937Y-81810487D01*
X116969663Y-81810487D01*
X116902624Y-81790802D01*
X116881982Y-81774168D01*
X115201869Y-80094055D01*
X115168384Y-80032732D01*
X115173367Y-79963043D01*
X115182510Y-79938531D01*
X115224382Y-79882599D01*
X115289847Y-79858183D01*
X115358119Y-79873036D01*
G37*
%TD.AperFunction*%
%TA.AperFunction,Conductor*%
G36*
X151126069Y-64520185D02*
G01*
X151162129Y-64555604D01*
X151164089Y-64558538D01*
X151289116Y-64710883D01*
X151441460Y-64835909D01*
X151441467Y-64835913D01*
X151615266Y-64928811D01*
X151615269Y-64928811D01*
X151615273Y-64928814D01*
X151803868Y-64986024D01*
X152000000Y-65005341D01*
X152196132Y-64986024D01*
X152199581Y-64985338D01*
X152201424Y-64985502D01*
X152202195Y-64985427D01*
X152202209Y-64985573D01*
X152269173Y-64991562D01*
X152311459Y-65019273D01*
X153263181Y-65970995D01*
X153296666Y-66032318D01*
X153299500Y-66058676D01*
X153299500Y-67446452D01*
X153279815Y-67513491D01*
X153240778Y-67551879D01*
X153133957Y-67618020D01*
X152983237Y-67755418D01*
X152860327Y-67918178D01*
X152766862Y-68105882D01*
X152765245Y-68105076D01*
X152727702Y-68153925D01*
X152661934Y-68177511D01*
X152593854Y-68161796D01*
X152545079Y-68111768D01*
X152534880Y-68085818D01*
X152526269Y-68053682D01*
X152526264Y-68053668D01*
X152430136Y-67847521D01*
X152430132Y-67847513D01*
X152379025Y-67774526D01*
X151700000Y-68453551D01*
X151700000Y-68447339D01*
X151672741Y-68345606D01*
X151620080Y-68254394D01*
X151545606Y-68179920D01*
X151454394Y-68127259D01*
X151352661Y-68100000D01*
X151346448Y-68100000D01*
X152025472Y-67420974D01*
X151952478Y-67369863D01*
X151746331Y-67273735D01*
X151746317Y-67273730D01*
X151526610Y-67214860D01*
X151526599Y-67214858D01*
X151300002Y-67195034D01*
X151299998Y-67195034D01*
X151073400Y-67214858D01*
X151073389Y-67214860D01*
X150853682Y-67273730D01*
X150853673Y-67273734D01*
X150647516Y-67369866D01*
X150647512Y-67369868D01*
X150574526Y-67420973D01*
X150574526Y-67420974D01*
X151253553Y-68100000D01*
X151247339Y-68100000D01*
X151145606Y-68127259D01*
X151054394Y-68179920D01*
X150979920Y-68254394D01*
X150927259Y-68345606D01*
X150900000Y-68447339D01*
X150900000Y-68453552D01*
X150220974Y-67774526D01*
X150220973Y-67774526D01*
X150169868Y-67847512D01*
X150169866Y-67847516D01*
X150073734Y-68053673D01*
X150073730Y-68053682D01*
X150014860Y-68273389D01*
X150014858Y-68273400D01*
X149995034Y-68499997D01*
X149995034Y-68500002D01*
X150014858Y-68726599D01*
X150014860Y-68726610D01*
X150073730Y-68946317D01*
X150073735Y-68946331D01*
X150169863Y-69152478D01*
X150220974Y-69225472D01*
X150900000Y-68546446D01*
X150900000Y-68552661D01*
X150927259Y-68654394D01*
X150979920Y-68745606D01*
X151054394Y-68820080D01*
X151145606Y-68872741D01*
X151247339Y-68900000D01*
X151253553Y-68900000D01*
X150574526Y-69579025D01*
X150574920Y-69583529D01*
X150610869Y-69628503D01*
X150618061Y-69698001D01*
X150586539Y-69760356D01*
X150526309Y-69795769D01*
X150496120Y-69799500D01*
X147216020Y-69799500D01*
X147148981Y-69779815D01*
X147103226Y-69727011D01*
X147092402Y-69665771D01*
X147105449Y-69500000D01*
X147085683Y-69248852D01*
X147026873Y-69003889D01*
X146986942Y-68907486D01*
X146930466Y-68771140D01*
X146798839Y-68556346D01*
X146798838Y-68556343D01*
X146705739Y-68447339D01*
X146635224Y-68364776D01*
X146492001Y-68242452D01*
X146443656Y-68201161D01*
X146443653Y-68201160D01*
X146228859Y-68069533D01*
X145996110Y-67973126D01*
X145751151Y-67914317D01*
X145500000Y-67894551D01*
X145248848Y-67914317D01*
X145077160Y-67955536D01*
X145007377Y-67952045D01*
X144950560Y-67911381D01*
X144924747Y-67846455D01*
X144938133Y-67777879D01*
X144960532Y-67747281D01*
X146084096Y-66623718D01*
X148170995Y-64536819D01*
X148232318Y-64503334D01*
X148258676Y-64500500D01*
X151059030Y-64500500D01*
X151126069Y-64520185D01*
G37*
%TD.AperFunction*%
%TA.AperFunction,Conductor*%
G36*
X152379024Y-69225471D02*
G01*
X152430136Y-69152478D01*
X152526264Y-68946331D01*
X152526269Y-68946317D01*
X152534880Y-68914181D01*
X152571244Y-68854521D01*
X152634091Y-68823991D01*
X152703467Y-68832285D01*
X152757345Y-68876770D01*
X152766516Y-68894290D01*
X152766862Y-68894118D01*
X152860327Y-69081821D01*
X152983237Y-69244581D01*
X153133958Y-69381980D01*
X153133960Y-69381982D01*
X153233141Y-69443392D01*
X153307363Y-69489348D01*
X153450157Y-69544666D01*
X153489410Y-69559873D01*
X153544812Y-69602446D01*
X153568402Y-69668213D01*
X153552691Y-69736293D01*
X153502667Y-69785072D01*
X153444616Y-69799500D01*
X152103878Y-69799500D01*
X152036839Y-69779815D01*
X151991084Y-69727011D01*
X151981140Y-69657853D01*
X152010165Y-69594297D01*
X152025332Y-69580618D01*
X152025472Y-69579025D01*
X151346447Y-68900000D01*
X151352661Y-68900000D01*
X151454394Y-68872741D01*
X151545606Y-68820080D01*
X151620080Y-68745606D01*
X151672741Y-68654394D01*
X151700000Y-68552661D01*
X151700000Y-68546447D01*
X152379024Y-69225471D01*
G37*
%TD.AperFunction*%
%TA.AperFunction,Conductor*%
G36*
X179943039Y-50019685D02*
G01*
X179988794Y-50072489D01*
X180000000Y-50124000D01*
X180000000Y-99876000D01*
X179980315Y-99943039D01*
X179927511Y-99988794D01*
X179876000Y-100000000D01*
X80124000Y-100000000D01*
X80056961Y-99980315D01*
X80011206Y-99927511D01*
X80000000Y-99876000D01*
X80000000Y-96878711D01*
X81149500Y-96878711D01*
X81149500Y-97121288D01*
X81181161Y-97361785D01*
X81243947Y-97596104D01*
X81328611Y-97800500D01*
X81336776Y-97820212D01*
X81458064Y-98030289D01*
X81458066Y-98030292D01*
X81458067Y-98030293D01*
X81605733Y-98222736D01*
X81605739Y-98222743D01*
X81777256Y-98394260D01*
X81777262Y-98394265D01*
X81969711Y-98541936D01*
X82179788Y-98663224D01*
X82403900Y-98756054D01*
X82638211Y-98818838D01*
X82818586Y-98842584D01*
X82878711Y-98850500D01*
X82878712Y-98850500D01*
X83121289Y-98850500D01*
X83169388Y-98844167D01*
X83361789Y-98818838D01*
X83596100Y-98756054D01*
X83820212Y-98663224D01*
X84030289Y-98541936D01*
X84222738Y-98394265D01*
X84394265Y-98222738D01*
X84541936Y-98030289D01*
X84663224Y-97820212D01*
X84756054Y-97596100D01*
X84818838Y-97361789D01*
X84850500Y-97121288D01*
X84850500Y-96878712D01*
X84844476Y-96832958D01*
X84837952Y-96783396D01*
X84818838Y-96638211D01*
X84756054Y-96403900D01*
X84663224Y-96179788D01*
X84559422Y-95999998D01*
X97914891Y-95999998D01*
X97914891Y-96000001D01*
X97935300Y-96285362D01*
X97996109Y-96564895D01*
X98096091Y-96832958D01*
X98233191Y-97084038D01*
X98233196Y-97084046D01*
X98339882Y-97226561D01*
X98339883Y-97226562D01*
X99234767Y-96331677D01*
X99246497Y-96359995D01*
X99329670Y-96484472D01*
X99435528Y-96590330D01*
X99560005Y-96673503D01*
X99588320Y-96685231D01*
X98693436Y-97580115D01*
X98835960Y-97686807D01*
X98835961Y-97686808D01*
X99087042Y-97823908D01*
X99087041Y-97823908D01*
X99355104Y-97923890D01*
X99634637Y-97984699D01*
X99919999Y-98005109D01*
X99920001Y-98005109D01*
X100205362Y-97984699D01*
X100484895Y-97923890D01*
X100752958Y-97823908D01*
X101004047Y-97686803D01*
X101146561Y-97580116D01*
X101146562Y-97580115D01*
X100251679Y-96685231D01*
X100279995Y-96673503D01*
X100404472Y-96590330D01*
X100510330Y-96484472D01*
X100593503Y-96359995D01*
X100605231Y-96331678D01*
X101500115Y-97226562D01*
X101500116Y-97226561D01*
X101606803Y-97084047D01*
X101743908Y-96832958D01*
X101843890Y-96564895D01*
X101904699Y-96285362D01*
X101925109Y-96000001D01*
X101925109Y-95999998D01*
X101904699Y-95714637D01*
X101843890Y-95435104D01*
X101743908Y-95167041D01*
X101606808Y-94915961D01*
X101606807Y-94915960D01*
X101500115Y-94773436D01*
X100605231Y-95668320D01*
X100593503Y-95640005D01*
X100510330Y-95515528D01*
X100404472Y-95409670D01*
X100279995Y-95326497D01*
X100251678Y-95314767D01*
X101111314Y-94455131D01*
X103199500Y-94455131D01*
X103199500Y-97544856D01*
X103199502Y-97544882D01*
X103202413Y-97569987D01*
X103202415Y-97569991D01*
X103247793Y-97672764D01*
X103247794Y-97672765D01*
X103327235Y-97752206D01*
X103430009Y-97797585D01*
X103455135Y-97800500D01*
X106544864Y-97800499D01*
X106544879Y-97800497D01*
X106544882Y-97800497D01*
X106569987Y-97797586D01*
X106569988Y-97797585D01*
X106569991Y-97797585D01*
X106672765Y-97752206D01*
X106752206Y-97672765D01*
X106797585Y-97569991D01*
X106800500Y-97544865D01*
X106800499Y-94958676D01*
X106820184Y-94891638D01*
X106836818Y-94870995D01*
X106900499Y-94807315D01*
X106920938Y-94771915D01*
X106966392Y-94693186D01*
X106967309Y-94689761D01*
X106967318Y-94689746D01*
X106967314Y-94689745D01*
X106973103Y-94668137D01*
X107000500Y-94565893D01*
X107000500Y-94434108D01*
X107000500Y-85324500D01*
X107020185Y-85257461D01*
X107072989Y-85211706D01*
X107124500Y-85200500D01*
X107543097Y-85200500D01*
X107543102Y-85200500D01*
X107631564Y-85189877D01*
X107772342Y-85134361D01*
X107892922Y-85042922D01*
X107984361Y-84922342D01*
X108039877Y-84781564D01*
X108050500Y-84693102D01*
X108050500Y-83306898D01*
X108039877Y-83218436D01*
X107984361Y-83077658D01*
X107984360Y-83077657D01*
X107984360Y-83077656D01*
X107892922Y-82957077D01*
X107886394Y-82952127D01*
X112599500Y-82952127D01*
X112599500Y-82952134D01*
X112599500Y-82952135D01*
X112599500Y-83447870D01*
X112599501Y-83447876D01*
X112605908Y-83507483D01*
X112656202Y-83642328D01*
X112656206Y-83642335D01*
X112742452Y-83757544D01*
X112742455Y-83757547D01*
X112857664Y-83843793D01*
X112857671Y-83843797D01*
X112992517Y-83894091D01*
X112992516Y-83894091D01*
X112999418Y-83894833D01*
X113052127Y-83900500D01*
X114747872Y-83900499D01*
X114803176Y-83894553D01*
X114815196Y-83893262D01*
X114815442Y-83895553D01*
X114873678Y-83898670D01*
X114920115Y-83927929D01*
X114963181Y-83970995D01*
X114996666Y-84032318D01*
X114999500Y-84058676D01*
X114999500Y-93559030D01*
X114979815Y-93626069D01*
X114944396Y-93662129D01*
X114941461Y-93664089D01*
X114789116Y-93789116D01*
X114664090Y-93941460D01*
X114664086Y-93941467D01*
X114571188Y-94115266D01*
X114513975Y-94303870D01*
X114494659Y-94500000D01*
X114513975Y-94696129D01*
X114513976Y-94696132D01*
X114567020Y-94870995D01*
X114571188Y-94884733D01*
X114664086Y-95058532D01*
X114664090Y-95058539D01*
X114789116Y-95210883D01*
X114941460Y-95335909D01*
X114941467Y-95335913D01*
X115115266Y-95428811D01*
X115115269Y-95428811D01*
X115115273Y-95428814D01*
X115303868Y-95486024D01*
X115500000Y-95505341D01*
X115696132Y-95486024D01*
X115884727Y-95428814D01*
X116058538Y-95335910D01*
X116210883Y-95210883D01*
X116335910Y-95058538D01*
X116428814Y-94884727D01*
X116486024Y-94696132D01*
X116505341Y-94500000D01*
X122114659Y-94500000D01*
X122133975Y-94696129D01*
X122133976Y-94696132D01*
X122187020Y-94870995D01*
X122191188Y-94884733D01*
X122284086Y-95058532D01*
X122284090Y-95058539D01*
X122409116Y-95210883D01*
X122561460Y-95335909D01*
X122561467Y-95335913D01*
X122735266Y-95428811D01*
X122735269Y-95428811D01*
X122735273Y-95428814D01*
X122923868Y-95486024D01*
X123120000Y-95505341D01*
X123316132Y-95486024D01*
X123504727Y-95428814D01*
X123678538Y-95335910D01*
X123830883Y-95210883D01*
X123955910Y-95058538D01*
X124048814Y-94884727D01*
X124106024Y-94696132D01*
X124125341Y-94500000D01*
X124106024Y-94303868D01*
X124048814Y-94115273D01*
X124048811Y-94115269D01*
X124048811Y-94115266D01*
X123955913Y-93941467D01*
X123955909Y-93941460D01*
X123830883Y-93789116D01*
X123678539Y-93664090D01*
X123678532Y-93664086D01*
X123504733Y-93571188D01*
X123504727Y-93571186D01*
X123316132Y-93513976D01*
X123316129Y-93513975D01*
X123120000Y-93494659D01*
X122923870Y-93513975D01*
X122735266Y-93571188D01*
X122561467Y-93664086D01*
X122561460Y-93664090D01*
X122409116Y-93789116D01*
X122284090Y-93941460D01*
X122284086Y-93941467D01*
X122191188Y-94115266D01*
X122133975Y-94303870D01*
X122114659Y-94500000D01*
X116505341Y-94500000D01*
X116486024Y-94303868D01*
X116428814Y-94115273D01*
X116428811Y-94115269D01*
X116428811Y-94115266D01*
X116335913Y-93941467D01*
X116335909Y-93941460D01*
X116210883Y-93789116D01*
X116058538Y-93664089D01*
X116055604Y-93662129D01*
X116054413Y-93660704D01*
X116053829Y-93660225D01*
X116053920Y-93660113D01*
X116010802Y-93608514D01*
X116000500Y-93559030D01*
X116000500Y-83734108D01*
X116000252Y-83733181D01*
X115995971Y-83717207D01*
X115966392Y-83606814D01*
X115900500Y-83492686D01*
X115207314Y-82799500D01*
X115205330Y-82798354D01*
X115172621Y-82779469D01*
X115135356Y-82746395D01*
X115057546Y-82642454D01*
X114993217Y-82594297D01*
X114942335Y-82556206D01*
X114942328Y-82556202D01*
X114807482Y-82505908D01*
X114807483Y-82505908D01*
X114747883Y-82499501D01*
X114747881Y-82499500D01*
X114747873Y-82499500D01*
X114747864Y-82499500D01*
X113052129Y-82499500D01*
X113052123Y-82499501D01*
X112992516Y-82505908D01*
X112857671Y-82556202D01*
X112857664Y-82556206D01*
X112742455Y-82642452D01*
X112742452Y-82642455D01*
X112656206Y-82757664D01*
X112656202Y-82757671D01*
X112605910Y-82892513D01*
X112605909Y-82892517D01*
X112599500Y-82952127D01*
X107886394Y-82952127D01*
X107772343Y-82865639D01*
X107676192Y-82827722D01*
X107631564Y-82810123D01*
X107631563Y-82810122D01*
X107631561Y-82810122D01*
X107585926Y-82804642D01*
X107543102Y-82799500D01*
X105456898Y-82799500D01*
X105417853Y-82804188D01*
X105368438Y-82810122D01*
X105227656Y-82865639D01*
X105107077Y-82957077D01*
X105015639Y-83077656D01*
X104960122Y-83218438D01*
X104954188Y-83267853D01*
X104949500Y-83306898D01*
X104949500Y-84693102D01*
X104955126Y-84739954D01*
X104960122Y-84781561D01*
X105015639Y-84922343D01*
X105107077Y-85042922D01*
X105227656Y-85134360D01*
X105227657Y-85134360D01*
X105227658Y-85134361D01*
X105368436Y-85189877D01*
X105456898Y-85200500D01*
X105875500Y-85200500D01*
X105942539Y-85220185D01*
X105988294Y-85272989D01*
X105999500Y-85324500D01*
X105999500Y-94075500D01*
X105979815Y-94142539D01*
X105927011Y-94188294D01*
X105875500Y-94199500D01*
X103455143Y-94199500D01*
X103455117Y-94199502D01*
X103430012Y-94202413D01*
X103430008Y-94202415D01*
X103327235Y-94247793D01*
X103247794Y-94327234D01*
X103202415Y-94430006D01*
X103202415Y-94430008D01*
X103199500Y-94455131D01*
X101111314Y-94455131D01*
X101146562Y-94419883D01*
X101146561Y-94419882D01*
X101004046Y-94313196D01*
X101004038Y-94313191D01*
X100752957Y-94176091D01*
X100752958Y-94176091D01*
X100484895Y-94076109D01*
X100205362Y-94015300D01*
X99920001Y-93994891D01*
X99919999Y-93994891D01*
X99634637Y-94015300D01*
X99355104Y-94076109D01*
X99087041Y-94176091D01*
X98835961Y-94313191D01*
X98835953Y-94313196D01*
X98693437Y-94419882D01*
X98693436Y-94419883D01*
X99588321Y-95314767D01*
X99560005Y-95326497D01*
X99435528Y-95409670D01*
X99329670Y-95515528D01*
X99246497Y-95640005D01*
X99234768Y-95668321D01*
X98339883Y-94773436D01*
X98339882Y-94773437D01*
X98233196Y-94915953D01*
X98233191Y-94915961D01*
X98096091Y-95167041D01*
X97996109Y-95435104D01*
X97935300Y-95714637D01*
X97914891Y-95999998D01*
X84559422Y-95999998D01*
X84541936Y-95969711D01*
X84414682Y-95803870D01*
X84394266Y-95777263D01*
X84394260Y-95777256D01*
X84222743Y-95605739D01*
X84222736Y-95605733D01*
X84030293Y-95458067D01*
X84030292Y-95458066D01*
X84030289Y-95458064D01*
X83820212Y-95336776D01*
X83818129Y-95335913D01*
X83596104Y-95243947D01*
X83361785Y-95181161D01*
X83121289Y-95149500D01*
X83121288Y-95149500D01*
X82878712Y-95149500D01*
X82878711Y-95149500D01*
X82638214Y-95181161D01*
X82403895Y-95243947D01*
X82179794Y-95336773D01*
X82179785Y-95336777D01*
X81969706Y-95458067D01*
X81777263Y-95605733D01*
X81777256Y-95605739D01*
X81605739Y-95777256D01*
X81605733Y-95777263D01*
X81458067Y-95969706D01*
X81336777Y-96179785D01*
X81336773Y-96179794D01*
X81243947Y-96403895D01*
X81181161Y-96638214D01*
X81149500Y-96878711D01*
X80000000Y-96878711D01*
X80000000Y-76412840D01*
X84061836Y-76412840D01*
X84061836Y-76412842D01*
X84090913Y-76521359D01*
X84157227Y-76612044D01*
X84176448Y-76626328D01*
X84177531Y-76627133D01*
X85937500Y-77643250D01*
X85985716Y-77693817D01*
X85999500Y-77750637D01*
X85999500Y-82675500D01*
X85979815Y-82742539D01*
X85927011Y-82788294D01*
X85875500Y-82799500D01*
X85456898Y-82799500D01*
X85417853Y-82804188D01*
X85368438Y-82810122D01*
X85227656Y-82865639D01*
X85107077Y-82957077D01*
X85015639Y-83077656D01*
X84960122Y-83218438D01*
X84954188Y-83267853D01*
X84949500Y-83306898D01*
X84949500Y-84693102D01*
X84955126Y-84739954D01*
X84960122Y-84781561D01*
X85015639Y-84922343D01*
X85107077Y-85042922D01*
X85227656Y-85134360D01*
X85227657Y-85134360D01*
X85227658Y-85134361D01*
X85368436Y-85189877D01*
X85456898Y-85200500D01*
X85456903Y-85200500D01*
X87543097Y-85200500D01*
X87543102Y-85200500D01*
X87631564Y-85189877D01*
X87772342Y-85134361D01*
X87892922Y-85042922D01*
X87984361Y-84922342D01*
X88039877Y-84781564D01*
X88050500Y-84693102D01*
X88050500Y-83306898D01*
X88039877Y-83218436D01*
X87984361Y-83077658D01*
X87984360Y-83077657D01*
X87984360Y-83077656D01*
X87892922Y-82957077D01*
X87772343Y-82865639D01*
X87676192Y-82827722D01*
X87631564Y-82810123D01*
X87631563Y-82810122D01*
X87631561Y-82810122D01*
X87585926Y-82804642D01*
X87543102Y-82799500D01*
X87543097Y-82799500D01*
X87124500Y-82799500D01*
X87057461Y-82779815D01*
X87011706Y-82727011D01*
X87000500Y-82675500D01*
X87000500Y-78471748D01*
X87020185Y-78404709D01*
X87072989Y-78358954D01*
X87142147Y-78349010D01*
X87186499Y-78364360D01*
X88671969Y-79221997D01*
X88695186Y-79232036D01*
X88806881Y-79244124D01*
X88915399Y-79215047D01*
X88993860Y-79157671D01*
X89006084Y-79148732D01*
X89006085Y-79148731D01*
X89021173Y-79128429D01*
X90166713Y-77144292D01*
X90217280Y-77096077D01*
X90274100Y-77082293D01*
X106523117Y-77082293D01*
X106590156Y-77101978D01*
X106610798Y-77118612D01*
X107130005Y-77637819D01*
X107163490Y-77699142D01*
X107158506Y-77768834D01*
X107116634Y-77824767D01*
X107051170Y-77849184D01*
X107042324Y-77849500D01*
X106370406Y-77849500D01*
X106302343Y-77855685D01*
X106302339Y-77855686D01*
X106302335Y-77855687D01*
X106145736Y-77904485D01*
X106145727Y-77904488D01*
X106005351Y-77989348D01*
X106005347Y-77989351D01*
X105889351Y-78105347D01*
X105889348Y-78105351D01*
X105804488Y-78245727D01*
X105804485Y-78245736D01*
X105768385Y-78361586D01*
X105729648Y-78419734D01*
X105665622Y-78447708D01*
X105596637Y-78436626D01*
X105544594Y-78390008D01*
X105531615Y-78361586D01*
X105495514Y-78245736D01*
X105495511Y-78245727D01*
X105410651Y-78105351D01*
X105410648Y-78105347D01*
X105294652Y-77989351D01*
X105294648Y-77989348D01*
X105154272Y-77904488D01*
X105154263Y-77904485D01*
X104997664Y-77855687D01*
X104997662Y-77855686D01*
X104997657Y-77855685D01*
X104929594Y-77849500D01*
X104070406Y-77849500D01*
X104002343Y-77855685D01*
X104002339Y-77855686D01*
X104002335Y-77855687D01*
X103845736Y-77904485D01*
X103845727Y-77904488D01*
X103705351Y-77989348D01*
X103705347Y-77989351D01*
X103589351Y-78105347D01*
X103589348Y-78105351D01*
X103504488Y-78245727D01*
X103504485Y-78245736D01*
X103455687Y-78402335D01*
X103455685Y-78402343D01*
X103451919Y-78443793D01*
X103449500Y-78470408D01*
X103449500Y-79715157D01*
X103429815Y-79782196D01*
X103413181Y-79802838D01*
X99006457Y-84209561D01*
X98945134Y-84243046D01*
X98875442Y-84238062D01*
X98819509Y-84196190D01*
X98795092Y-84130726D01*
X98795248Y-84111072D01*
X98804966Y-84000000D01*
X98804966Y-83999997D01*
X98785141Y-83773400D01*
X98785139Y-83773389D01*
X98726269Y-83553682D01*
X98726264Y-83553668D01*
X98630136Y-83347521D01*
X98630132Y-83347513D01*
X98579025Y-83274526D01*
X97900000Y-83953551D01*
X97900000Y-83947339D01*
X97872741Y-83845606D01*
X97820080Y-83754394D01*
X97745606Y-83679920D01*
X97654394Y-83627259D01*
X97552661Y-83600000D01*
X97546448Y-83600000D01*
X98225472Y-82920974D01*
X98152478Y-82869863D01*
X97946331Y-82773735D01*
X97946317Y-82773730D01*
X97726610Y-82714860D01*
X97726599Y-82714858D01*
X97500002Y-82695034D01*
X97499998Y-82695034D01*
X97273400Y-82714858D01*
X97273389Y-82714860D01*
X97053682Y-82773730D01*
X97053673Y-82773734D01*
X96847516Y-82869866D01*
X96847512Y-82869868D01*
X96774526Y-82920973D01*
X96774526Y-82920974D01*
X97453553Y-83600000D01*
X97447339Y-83600000D01*
X97345606Y-83627259D01*
X97254394Y-83679920D01*
X97179920Y-83754394D01*
X97127259Y-83845606D01*
X97100000Y-83947339D01*
X97100000Y-83953552D01*
X96420974Y-83274526D01*
X96420973Y-83274526D01*
X96369868Y-83347512D01*
X96369866Y-83347516D01*
X96273734Y-83553673D01*
X96273729Y-83553686D01*
X96265118Y-83585821D01*
X96228752Y-83645481D01*
X96165904Y-83676009D01*
X96096529Y-83667712D01*
X96042652Y-83623226D01*
X96033484Y-83605709D01*
X96033138Y-83605882D01*
X95966547Y-83472149D01*
X95939673Y-83418179D01*
X95855952Y-83307314D01*
X95816762Y-83255418D01*
X95666041Y-83118019D01*
X95666039Y-83118017D01*
X95492642Y-83010655D01*
X95492635Y-83010651D01*
X95397546Y-82973814D01*
X95302456Y-82936976D01*
X95101976Y-82899500D01*
X94898024Y-82899500D01*
X94697544Y-82936976D01*
X94697541Y-82936976D01*
X94697541Y-82936977D01*
X94507364Y-83010651D01*
X94507357Y-83010655D01*
X94333960Y-83118017D01*
X94333958Y-83118019D01*
X94183237Y-83255418D01*
X94060326Y-83418178D01*
X94054055Y-83430774D01*
X94006551Y-83482010D01*
X93943056Y-83499500D01*
X92174500Y-83499500D01*
X92107461Y-83479815D01*
X92061706Y-83427011D01*
X92050500Y-83375500D01*
X92050500Y-83306903D01*
X92050500Y-83306898D01*
X92039877Y-83218436D01*
X91984361Y-83077658D01*
X91984360Y-83077657D01*
X91984360Y-83077656D01*
X91892922Y-82957077D01*
X91772343Y-82865639D01*
X91676192Y-82827722D01*
X91631564Y-82810123D01*
X91631563Y-82810122D01*
X91631561Y-82810122D01*
X91585926Y-82804642D01*
X91543102Y-82799500D01*
X89456898Y-82799500D01*
X89417853Y-82804188D01*
X89368438Y-82810122D01*
X89227656Y-82865639D01*
X89107077Y-82957077D01*
X89015639Y-83077656D01*
X88960122Y-83218438D01*
X88954188Y-83267853D01*
X88949500Y-83306898D01*
X88949500Y-84693102D01*
X88955126Y-84739954D01*
X88960122Y-84781561D01*
X89015639Y-84922343D01*
X89107077Y-85042922D01*
X89227656Y-85134360D01*
X89227657Y-85134360D01*
X89227658Y-85134361D01*
X89368436Y-85189877D01*
X89456898Y-85200500D01*
X89456903Y-85200500D01*
X91543097Y-85200500D01*
X91543102Y-85200500D01*
X91631564Y-85189877D01*
X91772342Y-85134361D01*
X91892922Y-85042922D01*
X91984361Y-84922342D01*
X92039877Y-84781564D01*
X92050500Y-84693102D01*
X92050500Y-84624500D01*
X92070185Y-84557461D01*
X92122989Y-84511706D01*
X92174500Y-84500500D01*
X93943056Y-84500500D01*
X94010095Y-84520185D01*
X94054055Y-84569226D01*
X94060326Y-84581821D01*
X94183237Y-84744581D01*
X94333958Y-84881980D01*
X94333960Y-84881982D01*
X94383031Y-84912365D01*
X94507363Y-84989348D01*
X94697544Y-85063024D01*
X94898024Y-85100500D01*
X94898026Y-85100500D01*
X95101974Y-85100500D01*
X95101976Y-85100500D01*
X95282656Y-85066725D01*
X95352169Y-85073756D01*
X95393120Y-85100933D01*
X95795159Y-85502972D01*
X95795169Y-85502983D01*
X95799499Y-85507313D01*
X95799500Y-85507314D01*
X95892686Y-85600500D01*
X96006814Y-85666392D01*
X96134107Y-85700500D01*
X96134108Y-85700500D01*
X96134109Y-85700500D01*
X98789724Y-85700500D01*
X98789726Y-85700500D01*
X98917020Y-85666392D01*
X99031148Y-85600500D01*
X100737819Y-83893827D01*
X100799142Y-83860343D01*
X100868834Y-83865327D01*
X100924767Y-83907199D01*
X100949184Y-83972663D01*
X100949500Y-83981509D01*
X100949500Y-84693102D01*
X100953352Y-84725185D01*
X100958350Y-84766806D01*
X100946797Y-84835714D01*
X100922915Y-84869269D01*
X99129005Y-86663181D01*
X99067682Y-86696666D01*
X99041324Y-86699500D01*
X91524108Y-86699500D01*
X91396812Y-86733608D01*
X91282686Y-86799500D01*
X91282683Y-86799502D01*
X89599502Y-88482683D01*
X89599500Y-88482686D01*
X89533608Y-88596812D01*
X89499500Y-88724108D01*
X89499500Y-90775500D01*
X89479815Y-90842539D01*
X89427011Y-90888294D01*
X89375501Y-90899500D01*
X89155143Y-90899500D01*
X89155117Y-90899502D01*
X89130012Y-90902413D01*
X89130008Y-90902415D01*
X89027235Y-90947793D01*
X88947794Y-91027234D01*
X88902415Y-91130006D01*
X88902415Y-91130008D01*
X88899500Y-91155131D01*
X88899500Y-92844856D01*
X88899502Y-92844882D01*
X88902413Y-92869987D01*
X88902415Y-92869991D01*
X88947793Y-92972764D01*
X88947794Y-92972765D01*
X89027235Y-93052206D01*
X89130009Y-93097585D01*
X89155135Y-93100500D01*
X90844864Y-93100499D01*
X90844879Y-93100497D01*
X90844882Y-93100497D01*
X90869987Y-93097586D01*
X90869988Y-93097585D01*
X90869991Y-93097585D01*
X90972765Y-93052206D01*
X91052206Y-92972765D01*
X91097585Y-92869991D01*
X91100500Y-92844865D01*
X91100499Y-92634151D01*
X91120183Y-92567114D01*
X91172987Y-92521359D01*
X91242145Y-92511415D01*
X91305701Y-92540440D01*
X91336881Y-92581748D01*
X91369864Y-92652480D01*
X91420974Y-92725472D01*
X92100000Y-92046446D01*
X92100000Y-92052661D01*
X92127259Y-92154394D01*
X92179920Y-92245606D01*
X92254394Y-92320080D01*
X92345606Y-92372741D01*
X92447339Y-92400000D01*
X92453553Y-92400000D01*
X91774526Y-93079025D01*
X91847513Y-93130132D01*
X91847521Y-93130136D01*
X92053668Y-93226264D01*
X92053682Y-93226269D01*
X92273389Y-93285139D01*
X92273400Y-93285141D01*
X92499998Y-93304966D01*
X92500002Y-93304966D01*
X92726599Y-93285141D01*
X92726610Y-93285139D01*
X92946317Y-93226269D01*
X92946331Y-93226264D01*
X93152478Y-93130136D01*
X93225471Y-93079024D01*
X92546447Y-92400000D01*
X92552661Y-92400000D01*
X92654394Y-92372741D01*
X92745606Y-92320080D01*
X92820080Y-92245606D01*
X92872741Y-92154394D01*
X92900000Y-92052661D01*
X92900000Y-92046447D01*
X93579024Y-92725471D01*
X93630136Y-92652478D01*
X93726264Y-92446331D01*
X93726269Y-92446317D01*
X93785139Y-92226610D01*
X93785141Y-92226599D01*
X93804966Y-92000002D01*
X93804966Y-91999997D01*
X93785141Y-91773400D01*
X93785139Y-91773389D01*
X93726269Y-91553682D01*
X93726264Y-91553668D01*
X93630136Y-91347521D01*
X93630132Y-91347513D01*
X93579025Y-91274526D01*
X92900000Y-91953551D01*
X92900000Y-91947339D01*
X92872741Y-91845606D01*
X92820080Y-91754394D01*
X92745606Y-91679920D01*
X92654394Y-91627259D01*
X92552661Y-91600000D01*
X92546448Y-91600000D01*
X93225472Y-90920974D01*
X93152478Y-90869863D01*
X92946331Y-90773735D01*
X92946317Y-90773730D01*
X92726610Y-90714860D01*
X92726599Y-90714858D01*
X92500002Y-90695034D01*
X92499998Y-90695034D01*
X92273400Y-90714858D01*
X92273389Y-90714860D01*
X92053682Y-90773730D01*
X92053673Y-90773734D01*
X91847516Y-90869866D01*
X91847512Y-90869868D01*
X91774526Y-90920973D01*
X91774526Y-90920974D01*
X92453553Y-91600000D01*
X92447339Y-91600000D01*
X92345606Y-91627259D01*
X92254394Y-91679920D01*
X92179920Y-91754394D01*
X92127259Y-91845606D01*
X92100000Y-91947339D01*
X92100000Y-91953552D01*
X91420974Y-91274526D01*
X91420973Y-91274526D01*
X91369868Y-91347512D01*
X91369866Y-91347517D01*
X91336881Y-91418253D01*
X91290708Y-91470692D01*
X91223515Y-91489844D01*
X91156633Y-91469628D01*
X91111299Y-91416462D01*
X91100499Y-91365848D01*
X91100499Y-91155143D01*
X91100499Y-91155136D01*
X91099635Y-91147682D01*
X91097586Y-91130012D01*
X91097585Y-91130010D01*
X91097585Y-91130009D01*
X91052206Y-91027235D01*
X90972765Y-90947794D01*
X90912540Y-90921202D01*
X90869992Y-90902415D01*
X90844868Y-90899500D01*
X90844865Y-90899500D01*
X90624500Y-90899500D01*
X90557461Y-90879815D01*
X90511706Y-90827011D01*
X90500500Y-90775500D01*
X90500500Y-89048676D01*
X90520185Y-88981637D01*
X90536819Y-88960995D01*
X91760995Y-87736819D01*
X91822318Y-87703334D01*
X91848676Y-87700500D01*
X99365890Y-87700500D01*
X99365892Y-87700500D01*
X99493186Y-87666392D01*
X99607314Y-87600500D01*
X101970995Y-85236819D01*
X102032318Y-85203334D01*
X102058676Y-85200500D01*
X103543097Y-85200500D01*
X103543102Y-85200500D01*
X103631564Y-85189877D01*
X103772342Y-85134361D01*
X103892922Y-85042922D01*
X103984361Y-84922342D01*
X104039877Y-84781564D01*
X104050500Y-84693102D01*
X104050500Y-83306898D01*
X104039877Y-83218436D01*
X103984361Y-83077658D01*
X103983185Y-83076107D01*
X103982550Y-83074437D01*
X103980205Y-83070266D01*
X103980831Y-83069913D01*
X103958363Y-83010795D01*
X103972792Y-82942432D01*
X103994306Y-82913506D01*
X106420994Y-80486819D01*
X106482317Y-80453334D01*
X106508675Y-80450500D01*
X107229591Y-80450500D01*
X107229594Y-80450500D01*
X107297657Y-80444315D01*
X107454270Y-80395512D01*
X107594653Y-80310648D01*
X107710648Y-80194653D01*
X107795512Y-80054270D01*
X107844315Y-79897657D01*
X107850500Y-79829594D01*
X107850500Y-78657676D01*
X107870185Y-78590637D01*
X107922989Y-78544882D01*
X107992147Y-78534938D01*
X108055703Y-78563963D01*
X108062181Y-78569995D01*
X111199500Y-81707314D01*
X111292686Y-81800500D01*
X111406814Y-81866392D01*
X111534108Y-81900500D01*
X112637680Y-81900500D01*
X112704719Y-81920185D01*
X112736948Y-81950191D01*
X112742454Y-81957546D01*
X112742457Y-81957548D01*
X112857664Y-82043793D01*
X112857671Y-82043797D01*
X112992517Y-82094091D01*
X112992516Y-82094091D01*
X112999444Y-82094835D01*
X113052127Y-82100500D01*
X114747872Y-82100499D01*
X114807483Y-82094091D01*
X114942331Y-82043796D01*
X115057546Y-81957546D01*
X115143796Y-81842331D01*
X115148405Y-81829975D01*
X115169219Y-81774168D01*
X115182509Y-81738534D01*
X115224379Y-81682601D01*
X115289843Y-81658183D01*
X115358116Y-81673034D01*
X115386372Y-81694186D01*
X116403673Y-82711487D01*
X116517801Y-82777379D01*
X116645095Y-82811487D01*
X116776880Y-82811487D01*
X134481337Y-82811487D01*
X134548376Y-82831172D01*
X134594131Y-82883976D01*
X134604075Y-82953134D01*
X134575050Y-83016690D01*
X134569018Y-83023168D01*
X126099502Y-91492683D01*
X126099500Y-91492686D01*
X126033608Y-91606812D01*
X125999500Y-91734108D01*
X125999500Y-93559030D01*
X125979815Y-93626069D01*
X125944396Y-93662129D01*
X125941461Y-93664089D01*
X125789116Y-93789116D01*
X125664090Y-93941460D01*
X125664086Y-93941467D01*
X125571188Y-94115266D01*
X125513975Y-94303870D01*
X125494659Y-94500000D01*
X125513975Y-94696129D01*
X125513976Y-94696132D01*
X125567020Y-94870995D01*
X125571188Y-94884733D01*
X125664086Y-95058532D01*
X125664090Y-95058539D01*
X125789116Y-95210883D01*
X125941460Y-95335909D01*
X125941467Y-95335913D01*
X126115266Y-95428811D01*
X126115269Y-95428811D01*
X126115273Y-95428814D01*
X126303868Y-95486024D01*
X126500000Y-95505341D01*
X126696132Y-95486024D01*
X126884727Y-95428814D01*
X127058538Y-95335910D01*
X127210883Y-95210883D01*
X127335910Y-95058538D01*
X127428814Y-94884727D01*
X127486024Y-94696132D01*
X127505341Y-94500000D01*
X127486024Y-94303868D01*
X127428814Y-94115273D01*
X127428811Y-94115269D01*
X127428811Y-94115266D01*
X127335913Y-93941467D01*
X127335909Y-93941460D01*
X127210883Y-93789116D01*
X127058538Y-93664089D01*
X127055604Y-93662129D01*
X127054413Y-93660704D01*
X127053829Y-93660225D01*
X127053920Y-93660113D01*
X127010802Y-93608514D01*
X127000500Y-93559030D01*
X127000500Y-92058675D01*
X127020185Y-91991636D01*
X127036814Y-91970999D01*
X135079886Y-83927926D01*
X135141207Y-83894443D01*
X135184635Y-83894833D01*
X135184804Y-83893262D01*
X135199418Y-83894833D01*
X135252127Y-83900500D01*
X136947872Y-83900499D01*
X137007483Y-83894091D01*
X137142331Y-83843796D01*
X137257546Y-83757546D01*
X137343796Y-83642331D01*
X137394091Y-83507483D01*
X137400500Y-83447873D01*
X137400499Y-82952128D01*
X137400135Y-82948739D01*
X137412542Y-82879980D01*
X137460154Y-82828844D01*
X137523425Y-82811487D01*
X138388363Y-82811487D01*
X138455402Y-82831172D01*
X138476044Y-82847806D01*
X140298738Y-84670500D01*
X140412866Y-84736392D01*
X140540160Y-84770500D01*
X140671945Y-84770500D01*
X142375460Y-84770500D01*
X142442499Y-84790185D01*
X142449089Y-84794727D01*
X142456447Y-84800157D01*
X142463316Y-84805227D01*
X142505569Y-84860871D01*
X142511031Y-84930527D01*
X142477966Y-84992078D01*
X142463321Y-85004769D01*
X142377850Y-85067850D01*
X142297207Y-85177117D01*
X142297206Y-85177119D01*
X142252353Y-85305298D01*
X142252353Y-85305300D01*
X142249500Y-85335730D01*
X142249500Y-85744269D01*
X142252353Y-85774699D01*
X142252353Y-85774701D01*
X142297206Y-85902880D01*
X142297207Y-85902882D01*
X142377850Y-86012150D01*
X142487118Y-86092793D01*
X142529845Y-86107744D01*
X142615299Y-86137646D01*
X142645730Y-86140500D01*
X142645734Y-86140500D01*
X144121324Y-86140500D01*
X144188363Y-86160185D01*
X144209005Y-86176819D01*
X145942686Y-87910500D01*
X146056814Y-87976392D01*
X146184108Y-88010500D01*
X146315893Y-88010500D01*
X148872827Y-88010500D01*
X148939866Y-88030185D01*
X148985621Y-88082989D01*
X148995565Y-88152147D01*
X148966540Y-88215703D01*
X148960508Y-88222181D01*
X145719507Y-91463181D01*
X145658184Y-91496666D01*
X145631826Y-91499500D01*
X141940970Y-91499500D01*
X141873931Y-91479815D01*
X141837871Y-91444396D01*
X141835910Y-91441461D01*
X141710883Y-91289116D01*
X141558539Y-91164090D01*
X141558532Y-91164086D01*
X141384733Y-91071188D01*
X141384727Y-91071186D01*
X141239838Y-91027234D01*
X141196129Y-91013975D01*
X141000000Y-90994659D01*
X140803870Y-91013975D01*
X140615266Y-91071188D01*
X140441467Y-91164086D01*
X140441460Y-91164090D01*
X140289116Y-91289116D01*
X140164090Y-91441460D01*
X140164086Y-91441467D01*
X140071188Y-91615266D01*
X140013975Y-91803870D01*
X139994659Y-92000000D01*
X140013975Y-92196129D01*
X140013976Y-92196132D01*
X140061729Y-92353553D01*
X140071188Y-92384733D01*
X140164086Y-92558532D01*
X140164090Y-92558539D01*
X140289116Y-92710883D01*
X140441460Y-92835909D01*
X140441467Y-92835913D01*
X140615266Y-92928811D01*
X140615269Y-92928811D01*
X140615273Y-92928814D01*
X140803868Y-92986024D01*
X141000000Y-93005341D01*
X141196132Y-92986024D01*
X141384727Y-92928814D01*
X141558538Y-92835910D01*
X141710883Y-92710883D01*
X141835910Y-92558538D01*
X141837871Y-92555604D01*
X141839294Y-92554414D01*
X141839775Y-92553829D01*
X141839886Y-92553920D01*
X141891486Y-92510802D01*
X141940970Y-92500500D01*
X145956392Y-92500500D01*
X145956394Y-92500500D01*
X146083688Y-92466392D01*
X146197816Y-92400500D01*
X147450635Y-91147679D01*
X147511955Y-91114197D01*
X147581646Y-91119181D01*
X147637580Y-91161052D01*
X147661997Y-91226517D01*
X147647145Y-91294790D01*
X147637268Y-91310088D01*
X147595369Y-91365571D01*
X147496239Y-91564650D01*
X147443505Y-91750000D01*
X148370000Y-91750000D01*
X148370000Y-90825946D01*
X148290200Y-90840864D01*
X148082822Y-90921201D01*
X148082820Y-90921202D01*
X147926210Y-91018172D01*
X147858849Y-91036728D01*
X147792150Y-91015920D01*
X147747288Y-90962354D01*
X147738508Y-90893039D01*
X147768596Y-90829979D01*
X147773240Y-90825075D01*
X150061496Y-88536818D01*
X150122819Y-88503334D01*
X150149177Y-88500500D01*
X152559030Y-88500500D01*
X152626069Y-88520185D01*
X152662129Y-88555604D01*
X152664089Y-88558538D01*
X152789116Y-88710883D01*
X152941460Y-88835909D01*
X152941467Y-88835913D01*
X153115266Y-88928811D01*
X153115269Y-88928811D01*
X153115273Y-88928814D01*
X153303868Y-88986024D01*
X153500000Y-89005341D01*
X153696132Y-88986024D01*
X153699581Y-88985338D01*
X153701424Y-88985502D01*
X153702195Y-88985427D01*
X153702209Y-88985573D01*
X153769173Y-88991562D01*
X153811459Y-89019273D01*
X153910005Y-89117819D01*
X153943490Y-89179142D01*
X153938506Y-89248834D01*
X153896634Y-89304767D01*
X153831170Y-89329184D01*
X153822324Y-89329500D01*
X152279742Y-89329500D01*
X152152447Y-89363608D01*
X152038321Y-89429500D01*
X152038318Y-89429502D01*
X149918613Y-91549206D01*
X149857290Y-91582691D01*
X149787598Y-91577707D01*
X149731665Y-91535835D01*
X149719932Y-91516797D01*
X149644631Y-91365574D01*
X149510608Y-91188099D01*
X149346261Y-91038278D01*
X149157179Y-90921202D01*
X149157177Y-90921201D01*
X148949799Y-90840864D01*
X148870000Y-90825946D01*
X148870000Y-91755025D01*
X148834905Y-91719930D01*
X148755095Y-91673852D01*
X148666078Y-91650000D01*
X148573922Y-91650000D01*
X148484905Y-91673852D01*
X148405095Y-91719930D01*
X148339930Y-91785095D01*
X148293852Y-91864905D01*
X148270000Y-91953922D01*
X148270000Y-92046078D01*
X148293852Y-92135095D01*
X148339930Y-92214905D01*
X148375025Y-92250000D01*
X147443505Y-92250000D01*
X147496239Y-92435349D01*
X147595368Y-92634425D01*
X147729391Y-92811900D01*
X147893738Y-92961721D01*
X148082820Y-93078797D01*
X148082822Y-93078798D01*
X148126072Y-93095553D01*
X148181473Y-93138126D01*
X148205064Y-93203893D01*
X148189353Y-93271973D01*
X148168959Y-93298861D01*
X147504640Y-93963181D01*
X147443317Y-93996666D01*
X147416959Y-93999500D01*
X135060970Y-93999500D01*
X134993931Y-93979815D01*
X134957871Y-93944396D01*
X134955910Y-93941461D01*
X134830883Y-93789116D01*
X134678539Y-93664090D01*
X134678532Y-93664086D01*
X134504733Y-93571188D01*
X134504727Y-93571186D01*
X134316132Y-93513976D01*
X134316129Y-93513975D01*
X134120000Y-93494659D01*
X133923870Y-93513975D01*
X133735266Y-93571188D01*
X133561467Y-93664086D01*
X133561460Y-93664090D01*
X133409116Y-93789116D01*
X133284090Y-93941460D01*
X133284086Y-93941467D01*
X133191188Y-94115266D01*
X133133975Y-94303870D01*
X133114659Y-94500000D01*
X133133975Y-94696129D01*
X133133976Y-94696132D01*
X133187020Y-94870995D01*
X133191188Y-94884733D01*
X133284086Y-95058532D01*
X133284090Y-95058539D01*
X133409116Y-95210883D01*
X133561460Y-95335909D01*
X133561467Y-95335913D01*
X133735266Y-95428811D01*
X133735269Y-95428811D01*
X133735273Y-95428814D01*
X133923868Y-95486024D01*
X134120000Y-95505341D01*
X134316132Y-95486024D01*
X134504727Y-95428814D01*
X134678538Y-95335910D01*
X134830883Y-95210883D01*
X134955910Y-95058538D01*
X134957871Y-95055604D01*
X134959294Y-95054414D01*
X134959775Y-95053829D01*
X134959886Y-95053920D01*
X135011486Y-95010802D01*
X135060970Y-95000500D01*
X140294240Y-95000500D01*
X140361279Y-95020185D01*
X140407034Y-95072989D01*
X140416978Y-95142147D01*
X140387953Y-95205703D01*
X140372905Y-95220353D01*
X140289116Y-95289116D01*
X140164090Y-95441460D01*
X140164086Y-95441467D01*
X140071188Y-95615266D01*
X140013975Y-95803870D01*
X139994659Y-96000000D01*
X140013975Y-96196129D01*
X140013976Y-96196132D01*
X140061729Y-96353553D01*
X140071188Y-96384733D01*
X140164086Y-96558532D01*
X140164090Y-96558539D01*
X140289116Y-96710883D01*
X140441460Y-96835909D01*
X140441467Y-96835913D01*
X140615266Y-96928811D01*
X140615269Y-96928811D01*
X140615273Y-96928814D01*
X140803868Y-96986024D01*
X141000000Y-97005341D01*
X141196132Y-96986024D01*
X141384727Y-96928814D01*
X141558538Y-96835910D01*
X141710883Y-96710883D01*
X141835910Y-96558538D01*
X141918566Y-96403900D01*
X141928811Y-96384733D01*
X141928811Y-96384732D01*
X141928814Y-96384727D01*
X141986024Y-96196132D01*
X142005341Y-96000000D01*
X147614659Y-96000000D01*
X147633975Y-96196129D01*
X147633976Y-96196132D01*
X147681729Y-96353553D01*
X147691188Y-96384733D01*
X147784086Y-96558532D01*
X147784090Y-96558539D01*
X147909116Y-96710883D01*
X148061460Y-96835909D01*
X148061467Y-96835913D01*
X148235266Y-96928811D01*
X148235269Y-96928811D01*
X148235273Y-96928814D01*
X148423868Y-96986024D01*
X148620000Y-97005341D01*
X148816132Y-96986024D01*
X149004727Y-96928814D01*
X149178538Y-96835910D01*
X149330883Y-96710883D01*
X149455910Y-96558538D01*
X149538566Y-96403900D01*
X149548811Y-96384733D01*
X149548811Y-96384732D01*
X149548814Y-96384727D01*
X149606024Y-96196132D01*
X149625341Y-96000000D01*
X149625341Y-95999995D01*
X153114451Y-95999995D01*
X153114451Y-96000004D01*
X153134616Y-96269101D01*
X153194664Y-96532188D01*
X153194666Y-96532195D01*
X153264796Y-96710883D01*
X153293257Y-96783398D01*
X153428185Y-97017102D01*
X153511271Y-97121288D01*
X153596442Y-97228089D01*
X153783183Y-97401358D01*
X153794259Y-97411635D01*
X154017226Y-97563651D01*
X154260359Y-97680738D01*
X154518228Y-97760280D01*
X154518229Y-97760280D01*
X154518232Y-97760281D01*
X154785063Y-97800499D01*
X154785068Y-97800499D01*
X154785071Y-97800500D01*
X154785072Y-97800500D01*
X155054928Y-97800500D01*
X155054929Y-97800500D01*
X155054949Y-97800497D01*
X155321767Y-97760281D01*
X155321768Y-97760280D01*
X155321772Y-97760280D01*
X155579641Y-97680738D01*
X155822775Y-97563651D01*
X156045741Y-97411635D01*
X156243561Y-97228085D01*
X156411815Y-97017102D01*
X156546743Y-96783398D01*
X156645334Y-96532195D01*
X156705383Y-96269103D01*
X156725549Y-96000000D01*
X156723279Y-95969711D01*
X156705383Y-95730898D01*
X156701672Y-95714637D01*
X156645334Y-95467805D01*
X156546743Y-95216602D01*
X156411815Y-94982898D01*
X156243561Y-94771915D01*
X156243560Y-94771914D01*
X156243557Y-94771910D01*
X156045741Y-94588365D01*
X156012778Y-94565891D01*
X155850323Y-94455131D01*
X158199500Y-94455131D01*
X158199500Y-97544856D01*
X158199502Y-97544882D01*
X158202413Y-97569987D01*
X158202415Y-97569991D01*
X158247793Y-97672764D01*
X158247794Y-97672765D01*
X158327235Y-97752206D01*
X158430009Y-97797585D01*
X158455135Y-97800500D01*
X161544864Y-97800499D01*
X161544879Y-97800497D01*
X161544882Y-97800497D01*
X161569987Y-97797586D01*
X161569988Y-97797585D01*
X161569991Y-97797585D01*
X161672765Y-97752206D01*
X161752206Y-97672765D01*
X161797585Y-97569991D01*
X161800500Y-97544865D01*
X161800500Y-96878711D01*
X175149500Y-96878711D01*
X175149500Y-97121288D01*
X175181161Y-97361785D01*
X175243947Y-97596104D01*
X175328611Y-97800500D01*
X175336776Y-97820212D01*
X175458064Y-98030289D01*
X175458066Y-98030292D01*
X175458067Y-98030293D01*
X175605733Y-98222736D01*
X175605739Y-98222743D01*
X175777256Y-98394260D01*
X175777262Y-98394265D01*
X175969711Y-98541936D01*
X176179788Y-98663224D01*
X176403900Y-98756054D01*
X176638211Y-98818838D01*
X176818586Y-98842584D01*
X176878711Y-98850500D01*
X176878712Y-98850500D01*
X177121289Y-98850500D01*
X177169388Y-98844167D01*
X177361789Y-98818838D01*
X177596100Y-98756054D01*
X177820212Y-98663224D01*
X178030289Y-98541936D01*
X178222738Y-98394265D01*
X178394265Y-98222738D01*
X178541936Y-98030289D01*
X178663224Y-97820212D01*
X178756054Y-97596100D01*
X178818838Y-97361789D01*
X178850500Y-97121288D01*
X178850500Y-96878712D01*
X178844476Y-96832958D01*
X178837952Y-96783396D01*
X178818838Y-96638211D01*
X178756054Y-96403900D01*
X178663224Y-96179788D01*
X178541936Y-95969711D01*
X178414682Y-95803870D01*
X178394266Y-95777263D01*
X178394260Y-95777256D01*
X178222743Y-95605739D01*
X178222736Y-95605733D01*
X178030293Y-95458067D01*
X178030292Y-95458066D01*
X178030289Y-95458064D01*
X177820212Y-95336776D01*
X177818129Y-95335913D01*
X177596104Y-95243947D01*
X177361785Y-95181161D01*
X177121289Y-95149500D01*
X177121288Y-95149500D01*
X176878712Y-95149500D01*
X176878711Y-95149500D01*
X176638214Y-95181161D01*
X176403895Y-95243947D01*
X176179794Y-95336773D01*
X176179785Y-95336777D01*
X175969706Y-95458067D01*
X175777263Y-95605733D01*
X175777256Y-95605739D01*
X175605739Y-95777256D01*
X175605733Y-95777263D01*
X175458067Y-95969706D01*
X175336777Y-96179785D01*
X175336773Y-96179794D01*
X175243947Y-96403895D01*
X175181161Y-96638214D01*
X175149500Y-96878711D01*
X161800500Y-96878711D01*
X161800499Y-94455136D01*
X161800497Y-94455117D01*
X161797586Y-94430012D01*
X161797585Y-94430010D01*
X161797585Y-94430009D01*
X161752206Y-94327235D01*
X161672765Y-94247794D01*
X161654475Y-94239718D01*
X161569992Y-94202415D01*
X161544865Y-94199500D01*
X158455143Y-94199500D01*
X158455117Y-94199502D01*
X158430012Y-94202413D01*
X158430008Y-94202415D01*
X158327235Y-94247793D01*
X158247794Y-94327234D01*
X158202415Y-94430006D01*
X158202415Y-94430008D01*
X158199500Y-94455131D01*
X155850323Y-94455131D01*
X155822775Y-94436349D01*
X155822769Y-94436346D01*
X155822768Y-94436345D01*
X155822767Y-94436344D01*
X155579643Y-94319263D01*
X155579645Y-94319263D01*
X155321773Y-94239720D01*
X155321767Y-94239718D01*
X155054936Y-94199500D01*
X155054929Y-94199500D01*
X154785071Y-94199500D01*
X154785063Y-94199500D01*
X154518232Y-94239718D01*
X154518226Y-94239720D01*
X154260358Y-94319262D01*
X154017230Y-94436346D01*
X153794258Y-94588365D01*
X153596442Y-94771910D01*
X153428185Y-94982898D01*
X153293258Y-95216599D01*
X153293256Y-95216603D01*
X153194666Y-95467804D01*
X153194664Y-95467811D01*
X153134616Y-95730898D01*
X153114451Y-95999995D01*
X149625341Y-95999995D01*
X149606024Y-95803868D01*
X149548814Y-95615273D01*
X149548811Y-95615269D01*
X149548811Y-95615266D01*
X149455913Y-95441467D01*
X149455909Y-95441460D01*
X149330883Y-95289116D01*
X149178539Y-95164090D01*
X149178532Y-95164086D01*
X149004733Y-95071188D01*
X149004727Y-95071186D01*
X148816132Y-95013976D01*
X148816129Y-95013975D01*
X148620000Y-94994659D01*
X148423870Y-95013975D01*
X148235266Y-95071188D01*
X148061467Y-95164086D01*
X148061460Y-95164090D01*
X147909116Y-95289116D01*
X147784090Y-95441460D01*
X147784086Y-95441467D01*
X147691188Y-95615266D01*
X147633975Y-95803870D01*
X147614659Y-96000000D01*
X142005341Y-96000000D01*
X141986024Y-95803868D01*
X141928814Y-95615273D01*
X141928811Y-95615269D01*
X141928811Y-95615266D01*
X141835913Y-95441467D01*
X141835909Y-95441460D01*
X141710883Y-95289116D01*
X141627095Y-95220353D01*
X141587761Y-95162607D01*
X141585890Y-95092763D01*
X141622078Y-95032994D01*
X141684834Y-95002279D01*
X141705760Y-95000500D01*
X147741525Y-95000500D01*
X147741527Y-95000500D01*
X147868821Y-94966392D01*
X147982949Y-94900500D01*
X152516630Y-90366819D01*
X152577953Y-90333334D01*
X152604311Y-90330500D01*
X163535890Y-90330500D01*
X163535892Y-90330500D01*
X163663186Y-90296392D01*
X163777314Y-90230500D01*
X164906880Y-89100932D01*
X164968203Y-89067448D01*
X165017342Y-89066725D01*
X165198024Y-89100500D01*
X165198026Y-89100500D01*
X165401974Y-89100500D01*
X165401976Y-89100500D01*
X165602456Y-89063024D01*
X165792637Y-88989348D01*
X165966041Y-88881981D01*
X166116764Y-88744579D01*
X166239673Y-88581821D01*
X166330582Y-88399250D01*
X166386397Y-88203083D01*
X166405215Y-88000000D01*
X166403027Y-87976392D01*
X166386397Y-87796917D01*
X166383501Y-87786740D01*
X166330582Y-87600750D01*
X166321194Y-87581897D01*
X166251265Y-87441460D01*
X166239673Y-87418179D01*
X166116764Y-87255421D01*
X166116762Y-87255418D01*
X165966041Y-87118019D01*
X165966039Y-87118017D01*
X165792642Y-87010655D01*
X165792635Y-87010651D01*
X165642629Y-86952539D01*
X165602456Y-86936976D01*
X165401976Y-86899500D01*
X165198024Y-86899500D01*
X164997544Y-86936976D01*
X164997541Y-86936976D01*
X164997541Y-86936977D01*
X164807364Y-87010651D01*
X164807357Y-87010655D01*
X164633960Y-87118017D01*
X164633958Y-87118019D01*
X164483237Y-87255418D01*
X164360327Y-87418178D01*
X164269422Y-87600739D01*
X164269417Y-87600752D01*
X164213602Y-87796917D01*
X164194785Y-87999999D01*
X164194785Y-88000000D01*
X164213602Y-88203079D01*
X164213602Y-88203082D01*
X164213603Y-88203083D01*
X164232534Y-88269622D01*
X164231947Y-88339487D01*
X164200949Y-88391235D01*
X163299005Y-89293181D01*
X163237682Y-89326666D01*
X163211324Y-89329500D01*
X162353311Y-89329500D01*
X162286272Y-89309815D01*
X162240517Y-89257011D01*
X162230573Y-89187853D01*
X162259598Y-89124297D01*
X162265630Y-89117819D01*
X162927167Y-88456282D01*
X163660500Y-87722949D01*
X163726392Y-87608821D01*
X163760500Y-87481527D01*
X163760500Y-87349742D01*
X163760500Y-83460000D01*
X171329975Y-83460000D01*
X171350042Y-83714989D01*
X171409752Y-83963702D01*
X171507634Y-84200012D01*
X171507636Y-84200015D01*
X171641277Y-84418098D01*
X171641284Y-84418107D01*
X171644533Y-84421912D01*
X172205884Y-83860560D01*
X172206740Y-83862626D01*
X172299762Y-84001844D01*
X172418156Y-84120238D01*
X172557374Y-84213260D01*
X172559437Y-84214114D01*
X171998087Y-84775465D01*
X172001897Y-84778719D01*
X172219984Y-84912363D01*
X172219987Y-84912365D01*
X172456297Y-85010247D01*
X172705011Y-85069957D01*
X172705010Y-85069957D01*
X172960000Y-85090024D01*
X173214989Y-85069957D01*
X173463702Y-85010247D01*
X173700012Y-84912365D01*
X173700015Y-84912363D01*
X173918095Y-84778724D01*
X173918110Y-84778713D01*
X173921911Y-84775466D01*
X173921911Y-84775464D01*
X173360562Y-84214114D01*
X173362626Y-84213260D01*
X173501844Y-84120238D01*
X173620238Y-84001844D01*
X173713260Y-83862626D01*
X173714114Y-83860562D01*
X174275464Y-84421911D01*
X174275466Y-84421911D01*
X174278713Y-84418110D01*
X174278724Y-84418095D01*
X174412363Y-84200015D01*
X174412365Y-84200012D01*
X174510247Y-83963702D01*
X174569957Y-83714989D01*
X174590024Y-83460000D01*
X174569957Y-83205010D01*
X174510247Y-82956297D01*
X174412365Y-82719987D01*
X174412363Y-82719984D01*
X174278719Y-82501897D01*
X174275465Y-82498087D01*
X173714114Y-83059437D01*
X173713260Y-83057374D01*
X173620238Y-82918156D01*
X173501844Y-82799762D01*
X173362626Y-82706740D01*
X173360561Y-82705884D01*
X173921912Y-82144533D01*
X173918107Y-82141284D01*
X173918098Y-82141277D01*
X173700015Y-82007636D01*
X173700012Y-82007634D01*
X173463702Y-81909752D01*
X173214988Y-81850042D01*
X173214989Y-81850042D01*
X172960000Y-81829975D01*
X172705010Y-81850042D01*
X172456297Y-81909752D01*
X172219987Y-82007634D01*
X172219984Y-82007636D01*
X172001893Y-82141282D01*
X171998086Y-82144532D01*
X172559438Y-82705884D01*
X172557374Y-82706740D01*
X172418156Y-82799762D01*
X172299762Y-82918156D01*
X172206740Y-83057374D01*
X172205884Y-83059438D01*
X171644532Y-82498086D01*
X171641282Y-82501893D01*
X171507636Y-82719984D01*
X171507634Y-82719987D01*
X171409752Y-82956297D01*
X171350042Y-83205010D01*
X171329975Y-83460000D01*
X163760500Y-83460000D01*
X163760500Y-81609109D01*
X163756233Y-81593186D01*
X163726392Y-81481815D01*
X163696900Y-81430734D01*
X163660500Y-81367687D01*
X163567314Y-81274501D01*
X163567313Y-81274500D01*
X163562983Y-81270170D01*
X163562972Y-81270160D01*
X162911646Y-80618834D01*
X162257313Y-79964500D01*
X162188497Y-79924769D01*
X162143184Y-79898607D01*
X162135677Y-79895498D01*
X162135990Y-79894740D01*
X162103530Y-79879108D01*
X162036678Y-79829769D01*
X161994428Y-79774122D01*
X161988969Y-79704465D01*
X162022037Y-79642916D01*
X162036669Y-79630237D01*
X162122150Y-79567150D01*
X162202793Y-79457882D01*
X162225219Y-79393790D01*
X162247646Y-79329701D01*
X162247646Y-79329699D01*
X162250500Y-79299269D01*
X162250500Y-78890730D01*
X162247646Y-78860300D01*
X162247646Y-78860298D01*
X162202793Y-78732119D01*
X162202792Y-78732117D01*
X162202788Y-78732111D01*
X162122150Y-78622850D01*
X162012882Y-78542207D01*
X162012880Y-78542206D01*
X161884700Y-78497353D01*
X161854270Y-78494500D01*
X161854266Y-78494500D01*
X161133676Y-78494500D01*
X161066637Y-78474815D01*
X161045995Y-78458181D01*
X160036819Y-77449005D01*
X160003334Y-77387682D01*
X160000500Y-77361324D01*
X160000500Y-74553546D01*
X160020185Y-74486507D01*
X160059218Y-74448122D01*
X160166041Y-74381981D01*
X160256474Y-74299539D01*
X160316762Y-74244581D01*
X160316764Y-74244579D01*
X160439673Y-74081821D01*
X160530582Y-73899250D01*
X160586397Y-73703083D01*
X160605215Y-73500000D01*
X160586397Y-73296917D01*
X160530582Y-73100750D01*
X160527266Y-73094091D01*
X160459274Y-72957544D01*
X160439673Y-72918179D01*
X160378232Y-72836818D01*
X160316762Y-72755418D01*
X160166041Y-72618019D01*
X160166039Y-72618017D01*
X159992642Y-72510655D01*
X159992635Y-72510651D01*
X159865306Y-72461324D01*
X159802456Y-72436976D01*
X159601976Y-72399500D01*
X159398024Y-72399500D01*
X159353524Y-72407818D01*
X159217345Y-72433274D01*
X159147830Y-72426243D01*
X159106880Y-72399066D01*
X158607316Y-71899502D01*
X158607314Y-71899500D01*
X158517660Y-71847738D01*
X158493187Y-71833608D01*
X158429539Y-71816554D01*
X158365892Y-71799500D01*
X155065892Y-71799500D01*
X154934107Y-71799500D01*
X154806812Y-71833608D01*
X154692686Y-71899500D01*
X154692683Y-71899502D01*
X154599498Y-71992688D01*
X154193119Y-72399066D01*
X154131796Y-72432551D01*
X154082654Y-72433274D01*
X153961016Y-72410536D01*
X153901976Y-72399500D01*
X153698024Y-72399500D01*
X153497544Y-72436976D01*
X153497541Y-72436976D01*
X153497541Y-72436977D01*
X153307364Y-72510651D01*
X153307357Y-72510655D01*
X153133960Y-72618017D01*
X153133958Y-72618019D01*
X152983237Y-72755418D01*
X152860327Y-72918178D01*
X152766862Y-73105882D01*
X152765245Y-73105076D01*
X152727702Y-73153925D01*
X152661934Y-73177511D01*
X152593854Y-73161796D01*
X152545079Y-73111768D01*
X152534880Y-73085818D01*
X152526269Y-73053682D01*
X152526264Y-73053668D01*
X152430136Y-72847521D01*
X152430132Y-72847513D01*
X152379025Y-72774526D01*
X151700000Y-73453551D01*
X151700000Y-73447339D01*
X151672741Y-73345606D01*
X151620080Y-73254394D01*
X151545606Y-73179920D01*
X151454394Y-73127259D01*
X151352661Y-73100000D01*
X151346448Y-73100000D01*
X152025472Y-72420974D01*
X151952478Y-72369863D01*
X151746331Y-72273735D01*
X151746317Y-72273730D01*
X151526610Y-72214860D01*
X151526599Y-72214858D01*
X151300002Y-72195034D01*
X151299998Y-72195034D01*
X151073400Y-72214858D01*
X151073389Y-72214860D01*
X150853682Y-72273730D01*
X150853673Y-72273734D01*
X150647516Y-72369866D01*
X150647512Y-72369868D01*
X150574526Y-72420973D01*
X150574526Y-72420974D01*
X151253553Y-73100000D01*
X151247339Y-73100000D01*
X151145606Y-73127259D01*
X151054394Y-73179920D01*
X150979920Y-73254394D01*
X150927259Y-73345606D01*
X150900000Y-73447339D01*
X150900000Y-73453552D01*
X150220974Y-72774526D01*
X150220973Y-72774526D01*
X150169868Y-72847512D01*
X150169866Y-72847516D01*
X150073734Y-73053673D01*
X150073730Y-73053682D01*
X150014860Y-73273389D01*
X150014858Y-73273400D01*
X149995034Y-73499997D01*
X149995034Y-73500002D01*
X150014858Y-73726599D01*
X150014860Y-73726610D01*
X150073730Y-73946317D01*
X150073735Y-73946331D01*
X150169863Y-74152478D01*
X150220974Y-74225472D01*
X150900000Y-73546446D01*
X150900000Y-73552661D01*
X150927259Y-73654394D01*
X150979920Y-73745606D01*
X151054394Y-73820080D01*
X151145606Y-73872741D01*
X151247339Y-73900000D01*
X151253553Y-73900000D01*
X150574526Y-74579025D01*
X150647513Y-74630132D01*
X150647521Y-74630136D01*
X150853668Y-74726264D01*
X150853682Y-74726269D01*
X151073389Y-74785139D01*
X151073400Y-74785141D01*
X151299998Y-74804966D01*
X151300002Y-74804966D01*
X151526599Y-74785141D01*
X151526610Y-74785139D01*
X151746317Y-74726269D01*
X151746331Y-74726264D01*
X151952478Y-74630136D01*
X152025471Y-74579024D01*
X151346447Y-73900000D01*
X151352661Y-73900000D01*
X151454394Y-73872741D01*
X151545606Y-73820080D01*
X151620080Y-73745606D01*
X151672741Y-73654394D01*
X151700000Y-73552661D01*
X151700000Y-73546447D01*
X152379024Y-74225471D01*
X152430136Y-74152478D01*
X152526264Y-73946331D01*
X152526269Y-73946317D01*
X152534880Y-73914181D01*
X152571244Y-73854521D01*
X152634091Y-73823991D01*
X152703467Y-73832285D01*
X152757345Y-73876770D01*
X152766516Y-73894290D01*
X152766862Y-73894118D01*
X152860327Y-74081821D01*
X152983237Y-74244581D01*
X153133955Y-74381978D01*
X153133957Y-74381979D01*
X153133959Y-74381981D01*
X153240779Y-74448121D01*
X153287413Y-74500146D01*
X153299500Y-74553546D01*
X153299500Y-75811324D01*
X153279815Y-75878363D01*
X153263181Y-75899005D01*
X150509005Y-78653181D01*
X150447682Y-78686666D01*
X150421324Y-78689500D01*
X149624540Y-78689500D01*
X149557501Y-78669815D01*
X149550907Y-78665270D01*
X149512886Y-78637209D01*
X149512880Y-78637206D01*
X149384700Y-78592353D01*
X149354270Y-78589500D01*
X149354266Y-78589500D01*
X147595734Y-78589500D01*
X147595730Y-78589500D01*
X147565300Y-78592353D01*
X147565298Y-78592353D01*
X147437119Y-78637206D01*
X147437117Y-78637207D01*
X147327850Y-78717850D01*
X147247207Y-78827117D01*
X147247206Y-78827119D01*
X147202353Y-78955298D01*
X147202353Y-78955300D01*
X147199500Y-78985730D01*
X147199500Y-79394269D01*
X147202353Y-79424699D01*
X147202353Y-79424701D01*
X147247206Y-79552880D01*
X147247207Y-79552882D01*
X147327850Y-79662150D01*
X147413321Y-79725230D01*
X147455571Y-79780877D01*
X147461030Y-79850534D01*
X147427962Y-79912083D01*
X147413321Y-79924770D01*
X147327850Y-79987850D01*
X147247207Y-80097117D01*
X147247206Y-80097119D01*
X147202353Y-80225298D01*
X147202353Y-80225300D01*
X147199500Y-80255730D01*
X147199500Y-80664269D01*
X147202353Y-80694699D01*
X147202353Y-80694701D01*
X147247206Y-80822880D01*
X147247207Y-80822882D01*
X147327850Y-80932150D01*
X147413321Y-80995230D01*
X147455571Y-81050877D01*
X147461030Y-81120534D01*
X147427962Y-81182083D01*
X147413321Y-81194769D01*
X147359488Y-81234500D01*
X147327850Y-81257850D01*
X147247207Y-81367117D01*
X147247206Y-81367119D01*
X147202353Y-81495298D01*
X147202353Y-81495300D01*
X147199500Y-81525730D01*
X147199500Y-81934269D01*
X147202353Y-81964699D01*
X147202353Y-81964701D01*
X147230031Y-82043797D01*
X147247207Y-82092882D01*
X147327850Y-82202150D01*
X147413321Y-82265230D01*
X147455571Y-82320877D01*
X147461030Y-82390534D01*
X147427962Y-82452083D01*
X147413321Y-82464769D01*
X147376000Y-82492314D01*
X147327850Y-82527850D01*
X147247207Y-82637117D01*
X147247206Y-82637119D01*
X147202353Y-82765298D01*
X147202353Y-82765300D01*
X147199500Y-82795730D01*
X147199500Y-83204269D01*
X147202353Y-83234699D01*
X147202353Y-83234701D01*
X147241829Y-83347513D01*
X147247207Y-83362882D01*
X147327850Y-83472150D01*
X147413321Y-83535230D01*
X147455571Y-83590877D01*
X147461030Y-83660534D01*
X147427962Y-83722083D01*
X147413321Y-83734769D01*
X147386731Y-83754394D01*
X147327850Y-83797850D01*
X147247207Y-83907117D01*
X147247206Y-83907119D01*
X147202353Y-84035298D01*
X147202353Y-84035300D01*
X147199500Y-84065730D01*
X147199500Y-84474269D01*
X147202353Y-84504699D01*
X147202353Y-84504701D01*
X147244274Y-84624500D01*
X147247207Y-84632882D01*
X147327850Y-84742150D01*
X147413321Y-84805230D01*
X147455571Y-84860877D01*
X147461030Y-84930534D01*
X147427962Y-84992083D01*
X147413321Y-85004769D01*
X147405900Y-85010247D01*
X147327850Y-85067850D01*
X147247207Y-85177117D01*
X147247206Y-85177119D01*
X147202353Y-85305298D01*
X147202353Y-85305300D01*
X147199500Y-85335730D01*
X147199500Y-85744269D01*
X147202353Y-85774699D01*
X147202353Y-85774701D01*
X147247206Y-85902880D01*
X147247207Y-85902882D01*
X147327850Y-86012150D01*
X147413321Y-86075230D01*
X147455571Y-86130877D01*
X147461030Y-86200534D01*
X147427962Y-86262083D01*
X147413321Y-86274769D01*
X147361946Y-86312686D01*
X147327850Y-86337850D01*
X147247207Y-86447117D01*
X147247206Y-86447119D01*
X147202353Y-86575298D01*
X147202353Y-86575300D01*
X147199500Y-86605730D01*
X147199500Y-86885500D01*
X147179815Y-86952539D01*
X147127011Y-86998294D01*
X147075500Y-87009500D01*
X146508676Y-87009500D01*
X146441637Y-86989815D01*
X146420995Y-86973181D01*
X144833858Y-85386044D01*
X144800373Y-85324721D01*
X144798081Y-85309944D01*
X144797646Y-85305301D01*
X144797645Y-85305298D01*
X144797645Y-85305296D01*
X144760975Y-85200500D01*
X144752793Y-85177118D01*
X144672150Y-85067850D01*
X144586677Y-85004768D01*
X144544428Y-84949123D01*
X144538969Y-84879467D01*
X144572036Y-84817917D01*
X144586670Y-84805236D01*
X144672150Y-84742150D01*
X144752793Y-84632882D01*
X144779184Y-84557461D01*
X144797646Y-84504701D01*
X144797646Y-84504699D01*
X144800500Y-84474269D01*
X144800500Y-84065730D01*
X144797646Y-84035300D01*
X144797646Y-84035298D01*
X144752793Y-83907119D01*
X144752792Y-83907117D01*
X144747908Y-83900500D01*
X144672150Y-83797850D01*
X144586677Y-83734768D01*
X144544428Y-83679123D01*
X144538969Y-83609467D01*
X144572036Y-83547917D01*
X144586670Y-83535236D01*
X144672150Y-83472150D01*
X144752793Y-83362882D01*
X144783710Y-83274526D01*
X144797646Y-83234701D01*
X144797646Y-83234699D01*
X144800500Y-83204269D01*
X144800500Y-82795730D01*
X144797646Y-82765300D01*
X144797646Y-82765298D01*
X144752793Y-82637119D01*
X144752792Y-82637117D01*
X144693077Y-82556206D01*
X144672150Y-82527850D01*
X144586677Y-82464768D01*
X144544428Y-82409123D01*
X144538969Y-82339467D01*
X144572036Y-82277917D01*
X144586670Y-82265236D01*
X144672150Y-82202150D01*
X144752793Y-82092882D01*
X144782622Y-82007636D01*
X144797646Y-81964701D01*
X144797646Y-81964699D01*
X144800500Y-81934269D01*
X144800500Y-81525730D01*
X144797646Y-81495300D01*
X144797646Y-81495298D01*
X144752793Y-81367119D01*
X144752792Y-81367117D01*
X144681242Y-81270170D01*
X144672150Y-81257850D01*
X144586677Y-81194768D01*
X144544428Y-81139123D01*
X144538969Y-81069467D01*
X144572036Y-81007917D01*
X144586670Y-80995236D01*
X144672150Y-80932150D01*
X144752793Y-80822882D01*
X144790949Y-80713839D01*
X144797646Y-80694701D01*
X144797646Y-80694699D01*
X144800500Y-80664269D01*
X144800500Y-80255730D01*
X144797646Y-80225300D01*
X144797646Y-80225298D01*
X144752793Y-80097119D01*
X144752792Y-80097117D01*
X144721171Y-80054272D01*
X144672150Y-79987850D01*
X144586678Y-79924769D01*
X144544428Y-79869121D01*
X144538969Y-79799465D01*
X144572037Y-79737916D01*
X144586670Y-79725236D01*
X144600914Y-79714723D01*
X144666545Y-79690758D01*
X144674540Y-79690500D01*
X145421555Y-79690500D01*
X145488594Y-79710185D01*
X145503779Y-79721682D01*
X145559148Y-79770734D01*
X145559150Y-79770735D01*
X145706122Y-79847873D01*
X145709775Y-79849790D01*
X145874944Y-79890500D01*
X146045056Y-79890500D01*
X146210225Y-79849790D01*
X146306110Y-79799465D01*
X146360849Y-79770736D01*
X146360850Y-79770734D01*
X146360852Y-79770734D01*
X146488183Y-79657929D01*
X146584818Y-79517930D01*
X146645140Y-79358872D01*
X146665645Y-79190000D01*
X146645140Y-79021128D01*
X146631715Y-78985730D01*
X146601443Y-78905908D01*
X146584818Y-78862070D01*
X146583596Y-78860300D01*
X146550476Y-78812318D01*
X146488183Y-78722071D01*
X146392390Y-78637206D01*
X146360849Y-78609263D01*
X146210226Y-78530210D01*
X146045056Y-78489500D01*
X145874944Y-78489500D01*
X145709773Y-78530210D01*
X145559150Y-78609264D01*
X145559148Y-78609266D01*
X145522118Y-78642072D01*
X145503782Y-78658316D01*
X145440549Y-78688037D01*
X145421555Y-78689500D01*
X144674540Y-78689500D01*
X144607501Y-78669815D01*
X144600907Y-78665270D01*
X144562886Y-78637209D01*
X144562880Y-78637206D01*
X144434700Y-78592353D01*
X144404270Y-78589500D01*
X144404266Y-78589500D01*
X142645734Y-78589500D01*
X142645730Y-78589500D01*
X142615300Y-78592353D01*
X142615298Y-78592353D01*
X142487119Y-78637206D01*
X142487117Y-78637207D01*
X142377850Y-78717850D01*
X142297207Y-78827117D01*
X142297206Y-78827119D01*
X142252353Y-78955298D01*
X142252353Y-78955300D01*
X142249500Y-78985730D01*
X142249500Y-79394269D01*
X142252353Y-79424699D01*
X142252353Y-79424701D01*
X142297206Y-79552880D01*
X142297207Y-79552882D01*
X142377850Y-79662150D01*
X142463321Y-79725230D01*
X142505571Y-79780877D01*
X142511030Y-79850534D01*
X142477962Y-79912083D01*
X142463321Y-79924770D01*
X142377850Y-79987850D01*
X142297207Y-80097117D01*
X142297206Y-80097119D01*
X142252353Y-80225298D01*
X142252353Y-80225300D01*
X142249500Y-80255730D01*
X142249500Y-80664269D01*
X142252353Y-80694699D01*
X142252353Y-80694701D01*
X142297206Y-80822880D01*
X142297207Y-80822882D01*
X142377850Y-80932150D01*
X142463321Y-80995230D01*
X142505571Y-81050877D01*
X142511030Y-81120534D01*
X142477962Y-81182083D01*
X142463321Y-81194769D01*
X142409488Y-81234500D01*
X142377850Y-81257850D01*
X142297207Y-81367117D01*
X142297206Y-81367119D01*
X142252353Y-81495298D01*
X142252353Y-81495300D01*
X142249500Y-81525730D01*
X142249500Y-81934269D01*
X142252353Y-81964699D01*
X142252353Y-81964701D01*
X142280031Y-82043797D01*
X142297207Y-82092882D01*
X142377850Y-82202150D01*
X142463321Y-82265230D01*
X142505571Y-82320877D01*
X142511030Y-82390534D01*
X142477962Y-82452083D01*
X142463322Y-82464769D01*
X142463320Y-82464771D01*
X142449094Y-82475270D01*
X142383465Y-82499241D01*
X142375460Y-82499500D01*
X141288675Y-82499500D01*
X141221636Y-82479815D01*
X141200994Y-82463181D01*
X138743844Y-80006030D01*
X138743843Y-80006029D01*
X138743842Y-80006028D01*
X138669383Y-79963039D01*
X138629715Y-79940136D01*
X138566067Y-79923082D01*
X138502420Y-79906028D01*
X138502419Y-79906028D01*
X137524500Y-79906028D01*
X137457461Y-79886343D01*
X137411706Y-79833539D01*
X137400500Y-79782028D01*
X137400499Y-79352129D01*
X137400498Y-79352123D01*
X137394091Y-79292516D01*
X137343797Y-79157671D01*
X137343793Y-79157664D01*
X137257547Y-79042455D01*
X137257544Y-79042452D01*
X137142335Y-78956206D01*
X137142328Y-78956202D01*
X137007482Y-78905908D01*
X137007483Y-78905908D01*
X136947883Y-78899501D01*
X136947881Y-78899500D01*
X136947873Y-78899500D01*
X136947864Y-78899500D01*
X135252129Y-78899500D01*
X135252123Y-78899501D01*
X135192516Y-78905908D01*
X135057671Y-78956202D01*
X135057664Y-78956206D01*
X134999767Y-78999548D01*
X134934303Y-79023965D01*
X134866030Y-79009113D01*
X134837776Y-78987962D01*
X133401941Y-77552127D01*
X134799500Y-77552127D01*
X134799500Y-77552134D01*
X134799500Y-77552135D01*
X134799500Y-78047870D01*
X134799501Y-78047876D01*
X134805908Y-78107483D01*
X134856202Y-78242328D01*
X134856206Y-78242335D01*
X134942452Y-78357544D01*
X134942455Y-78357547D01*
X135057664Y-78443793D01*
X135057671Y-78443797D01*
X135192517Y-78494091D01*
X135192516Y-78494091D01*
X135196321Y-78494500D01*
X135252127Y-78500500D01*
X136947872Y-78500499D01*
X137007483Y-78494091D01*
X137142331Y-78443796D01*
X137257546Y-78357546D01*
X137343796Y-78242331D01*
X137394091Y-78107483D01*
X137400500Y-78047873D01*
X137400499Y-77552128D01*
X137394091Y-77492517D01*
X137343796Y-77357669D01*
X137343795Y-77357668D01*
X137343793Y-77357664D01*
X137257547Y-77242455D01*
X137257544Y-77242452D01*
X137142335Y-77156206D01*
X137142328Y-77156202D01*
X137007482Y-77105908D01*
X137007483Y-77105908D01*
X136947883Y-77099501D01*
X136947881Y-77099500D01*
X136947873Y-77099500D01*
X136947864Y-77099500D01*
X135252129Y-77099500D01*
X135252123Y-77099501D01*
X135192516Y-77105908D01*
X135057671Y-77156202D01*
X135057664Y-77156206D01*
X134942455Y-77242452D01*
X134942452Y-77242455D01*
X134856206Y-77357664D01*
X134856202Y-77357671D01*
X134805910Y-77492513D01*
X134805909Y-77492517D01*
X134799500Y-77552127D01*
X133401941Y-77552127D01*
X133136819Y-77287005D01*
X133103334Y-77225682D01*
X133100500Y-77199324D01*
X133100500Y-75752127D01*
X134799500Y-75752127D01*
X134799500Y-75752134D01*
X134799500Y-75752135D01*
X134799500Y-76247870D01*
X134799501Y-76247876D01*
X134805908Y-76307483D01*
X134856202Y-76442328D01*
X134856206Y-76442335D01*
X134942452Y-76557544D01*
X134942455Y-76557547D01*
X135057664Y-76643793D01*
X135057671Y-76643797D01*
X135192517Y-76694091D01*
X135192516Y-76694091D01*
X135199444Y-76694835D01*
X135252127Y-76700500D01*
X136947872Y-76700499D01*
X137007483Y-76694091D01*
X137142331Y-76643796D01*
X137257546Y-76557546D01*
X137343796Y-76442331D01*
X137394091Y-76307483D01*
X137400500Y-76247873D01*
X137400499Y-75752128D01*
X137394091Y-75692517D01*
X137343796Y-75557669D01*
X137343795Y-75557668D01*
X137343793Y-75557664D01*
X137257547Y-75442455D01*
X137257544Y-75442452D01*
X137142335Y-75356206D01*
X137142328Y-75356202D01*
X137007482Y-75305908D01*
X137007483Y-75305908D01*
X136947883Y-75299501D01*
X136947881Y-75299500D01*
X136947873Y-75299500D01*
X136947864Y-75299500D01*
X135252129Y-75299500D01*
X135252123Y-75299501D01*
X135192516Y-75305908D01*
X135057671Y-75356202D01*
X135057664Y-75356206D01*
X134942455Y-75442452D01*
X134942452Y-75442455D01*
X134856206Y-75557664D01*
X134856202Y-75557671D01*
X134805910Y-75692513D01*
X134805909Y-75692517D01*
X134799500Y-75752127D01*
X133100500Y-75752127D01*
X133100500Y-73752127D01*
X134799500Y-73752127D01*
X134799500Y-73752134D01*
X134799500Y-73752135D01*
X134799500Y-74247870D01*
X134799501Y-74247876D01*
X134805908Y-74307483D01*
X134856202Y-74442328D01*
X134856206Y-74442335D01*
X134942452Y-74557544D01*
X134942455Y-74557547D01*
X135057664Y-74643793D01*
X135057671Y-74643797D01*
X135192517Y-74694091D01*
X135192516Y-74694091D01*
X135199444Y-74694835D01*
X135252127Y-74700500D01*
X136947872Y-74700499D01*
X137007483Y-74694091D01*
X137142331Y-74643796D01*
X137257546Y-74557546D01*
X137343796Y-74442331D01*
X137394091Y-74307483D01*
X137400500Y-74247873D01*
X137400499Y-73752128D01*
X137394091Y-73692517D01*
X137343796Y-73557669D01*
X137343795Y-73557668D01*
X137343793Y-73557664D01*
X137257547Y-73442455D01*
X137257544Y-73442452D01*
X137142335Y-73356206D01*
X137142328Y-73356202D01*
X137007482Y-73305908D01*
X137007483Y-73305908D01*
X136947883Y-73299501D01*
X136947881Y-73299500D01*
X136947873Y-73299500D01*
X136947864Y-73299500D01*
X135252129Y-73299500D01*
X135252123Y-73299501D01*
X135192516Y-73305908D01*
X135057671Y-73356202D01*
X135057664Y-73356206D01*
X134942455Y-73442452D01*
X134942452Y-73442455D01*
X134856206Y-73557664D01*
X134856202Y-73557671D01*
X134805910Y-73692513D01*
X134805909Y-73692517D01*
X134799500Y-73752127D01*
X133100500Y-73752127D01*
X133100500Y-71952127D01*
X134799500Y-71952127D01*
X134799500Y-71952134D01*
X134799500Y-71952135D01*
X134799500Y-72447870D01*
X134799501Y-72447876D01*
X134805908Y-72507483D01*
X134856202Y-72642328D01*
X134856206Y-72642335D01*
X134942452Y-72757544D01*
X134942455Y-72757547D01*
X135057664Y-72843793D01*
X135057671Y-72843797D01*
X135192517Y-72894091D01*
X135192516Y-72894091D01*
X135199444Y-72894835D01*
X135252127Y-72900500D01*
X136947872Y-72900499D01*
X137007483Y-72894091D01*
X137142331Y-72843796D01*
X137257546Y-72757546D01*
X137343796Y-72642331D01*
X137394091Y-72507483D01*
X137400500Y-72447873D01*
X137400499Y-71952128D01*
X137394091Y-71892517D01*
X137372119Y-71833608D01*
X137343797Y-71757671D01*
X137343793Y-71757664D01*
X137257547Y-71642455D01*
X137257544Y-71642452D01*
X137142335Y-71556206D01*
X137142328Y-71556202D01*
X137007482Y-71505908D01*
X137007483Y-71505908D01*
X136947883Y-71499501D01*
X136947881Y-71499500D01*
X136947873Y-71499500D01*
X136947864Y-71499500D01*
X135252129Y-71499500D01*
X135252123Y-71499501D01*
X135192516Y-71505908D01*
X135057671Y-71556202D01*
X135057664Y-71556206D01*
X134942455Y-71642452D01*
X134942452Y-71642455D01*
X134856206Y-71757664D01*
X134856202Y-71757671D01*
X134822610Y-71847738D01*
X134805909Y-71892517D01*
X134799500Y-71952127D01*
X133100500Y-71952127D01*
X133100500Y-70152127D01*
X134799500Y-70152127D01*
X134799500Y-70152134D01*
X134799500Y-70152135D01*
X134799500Y-70647870D01*
X134799501Y-70647876D01*
X134805908Y-70707483D01*
X134856202Y-70842328D01*
X134856206Y-70842335D01*
X134942452Y-70957544D01*
X134942455Y-70957547D01*
X135057664Y-71043793D01*
X135057671Y-71043797D01*
X135192517Y-71094091D01*
X135192516Y-71094091D01*
X135199444Y-71094835D01*
X135252127Y-71100500D01*
X136947872Y-71100499D01*
X137007483Y-71094091D01*
X137142331Y-71043796D01*
X137257546Y-70957546D01*
X137343796Y-70842331D01*
X137394091Y-70707483D01*
X137400500Y-70647873D01*
X137400499Y-70152128D01*
X137394091Y-70092517D01*
X137382331Y-70060988D01*
X137343797Y-69957671D01*
X137343793Y-69957664D01*
X137257547Y-69842455D01*
X137257544Y-69842452D01*
X137142335Y-69756206D01*
X137142328Y-69756202D01*
X137007482Y-69705908D01*
X137007483Y-69705908D01*
X136947883Y-69699501D01*
X136947881Y-69699500D01*
X136947873Y-69699500D01*
X136947864Y-69699500D01*
X135252129Y-69699500D01*
X135252123Y-69699501D01*
X135192516Y-69705908D01*
X135057671Y-69756202D01*
X135057664Y-69756206D01*
X134942455Y-69842452D01*
X134942452Y-69842455D01*
X134856206Y-69957664D01*
X134856202Y-69957671D01*
X134805910Y-70092513D01*
X134805909Y-70092517D01*
X134799500Y-70152127D01*
X133100500Y-70152127D01*
X133100500Y-69500000D01*
X140894551Y-69500000D01*
X140914317Y-69751151D01*
X140973126Y-69996110D01*
X141069533Y-70228859D01*
X141201160Y-70443653D01*
X141201161Y-70443656D01*
X141201164Y-70443659D01*
X141364776Y-70635224D01*
X141449384Y-70707486D01*
X141556343Y-70798838D01*
X141556346Y-70798839D01*
X141771140Y-70930466D01*
X142003889Y-71026873D01*
X142248852Y-71085683D01*
X142500000Y-71105449D01*
X142751148Y-71085683D01*
X142996111Y-71026873D01*
X143228859Y-70930466D01*
X143443659Y-70798836D01*
X143635224Y-70635224D01*
X143798836Y-70443659D01*
X143861892Y-70340761D01*
X143894273Y-70287921D01*
X143946085Y-70241046D01*
X144015014Y-70229623D01*
X144079177Y-70257280D01*
X144105727Y-70287921D01*
X144201160Y-70443653D01*
X144201161Y-70443656D01*
X144201164Y-70443659D01*
X144364776Y-70635224D01*
X144449384Y-70707486D01*
X144556343Y-70798838D01*
X144556346Y-70798839D01*
X144771140Y-70930466D01*
X145003889Y-71026873D01*
X145248852Y-71085683D01*
X145500000Y-71105449D01*
X145751148Y-71085683D01*
X145996111Y-71026873D01*
X146228859Y-70930466D01*
X146411125Y-70818772D01*
X146475915Y-70800500D01*
X161565890Y-70800500D01*
X161565892Y-70800500D01*
X161693186Y-70766392D01*
X161807314Y-70700500D01*
X165967813Y-66540000D01*
X171329975Y-66540000D01*
X171350042Y-66794989D01*
X171409752Y-67043702D01*
X171507634Y-67280012D01*
X171507636Y-67280015D01*
X171641277Y-67498098D01*
X171641284Y-67498107D01*
X171644533Y-67501912D01*
X172205884Y-66940560D01*
X172206740Y-66942626D01*
X172299762Y-67081844D01*
X172418156Y-67200238D01*
X172557374Y-67293260D01*
X172559437Y-67294114D01*
X171998087Y-67855465D01*
X172001897Y-67858719D01*
X172219984Y-67992363D01*
X172219987Y-67992365D01*
X172456297Y-68090247D01*
X172705011Y-68149957D01*
X172705010Y-68149957D01*
X172960000Y-68170024D01*
X173214989Y-68149957D01*
X173463702Y-68090247D01*
X173700012Y-67992365D01*
X173700015Y-67992363D01*
X173918095Y-67858724D01*
X173918110Y-67858713D01*
X173921911Y-67855466D01*
X173921911Y-67855464D01*
X173360562Y-67294114D01*
X173362626Y-67293260D01*
X173501844Y-67200238D01*
X173620238Y-67081844D01*
X173713260Y-66942626D01*
X173714114Y-66940561D01*
X174275464Y-67501911D01*
X174275466Y-67501911D01*
X174278713Y-67498110D01*
X174278724Y-67498095D01*
X174412363Y-67280015D01*
X174412365Y-67280012D01*
X174510247Y-67043702D01*
X174569957Y-66794989D01*
X174590024Y-66540000D01*
X174569957Y-66285010D01*
X174510247Y-66036297D01*
X174412365Y-65799987D01*
X174412363Y-65799984D01*
X174278719Y-65581897D01*
X174275465Y-65578087D01*
X173714114Y-66139437D01*
X173713260Y-66137374D01*
X173620238Y-65998156D01*
X173501844Y-65879762D01*
X173362626Y-65786740D01*
X173360561Y-65785884D01*
X173921912Y-65224533D01*
X173918107Y-65221284D01*
X173918098Y-65221277D01*
X173700015Y-65087636D01*
X173700012Y-65087634D01*
X173463702Y-64989752D01*
X173214988Y-64930042D01*
X173214989Y-64930042D01*
X172960000Y-64909975D01*
X172705010Y-64930042D01*
X172456297Y-64989752D01*
X172219987Y-65087634D01*
X172219984Y-65087636D01*
X172001893Y-65221282D01*
X171998086Y-65224532D01*
X172559438Y-65785884D01*
X172557374Y-65786740D01*
X172418156Y-65879762D01*
X172299762Y-65998156D01*
X172206740Y-66137374D01*
X172205884Y-66139438D01*
X171644532Y-65578086D01*
X171641282Y-65581893D01*
X171507636Y-65799984D01*
X171507634Y-65799987D01*
X171409752Y-66036297D01*
X171350042Y-66285010D01*
X171329975Y-66540000D01*
X165967813Y-66540000D01*
X167406880Y-65100932D01*
X167468203Y-65067448D01*
X167517342Y-65066725D01*
X167698024Y-65100500D01*
X167698026Y-65100500D01*
X167901974Y-65100500D01*
X167901976Y-65100500D01*
X168102456Y-65063024D01*
X168292637Y-64989348D01*
X168466041Y-64881981D01*
X168616764Y-64744579D01*
X168739673Y-64581821D01*
X168744516Y-64572095D01*
X168745945Y-64569226D01*
X168793449Y-64517990D01*
X168856944Y-64500500D01*
X174191863Y-64500500D01*
X174258902Y-64520185D01*
X174304245Y-64572095D01*
X174347698Y-64665281D01*
X174403225Y-64744581D01*
X174480730Y-64855269D01*
X174644731Y-65019270D01*
X174834718Y-65152301D01*
X174927906Y-65195754D01*
X174980343Y-65241924D01*
X174999500Y-65308135D01*
X174999500Y-84691863D01*
X174979815Y-84758902D01*
X174927905Y-84804245D01*
X174834719Y-84847698D01*
X174834717Y-84847699D01*
X174644735Y-84980726D01*
X174644729Y-84980731D01*
X174480731Y-85144729D01*
X174480726Y-85144735D01*
X174347699Y-85334717D01*
X174347698Y-85334719D01*
X174304245Y-85427905D01*
X174258072Y-85480344D01*
X174191863Y-85499500D01*
X169734107Y-85499500D01*
X169606812Y-85533608D01*
X169492686Y-85599500D01*
X169492683Y-85599502D01*
X168193118Y-86899066D01*
X168131795Y-86932551D01*
X168082652Y-86933274D01*
X167901976Y-86899500D01*
X167698024Y-86899500D01*
X167497544Y-86936976D01*
X167497541Y-86936976D01*
X167497541Y-86936977D01*
X167307364Y-87010651D01*
X167307357Y-87010655D01*
X167133960Y-87118017D01*
X167133958Y-87118019D01*
X166983237Y-87255418D01*
X166860327Y-87418178D01*
X166769422Y-87600739D01*
X166769417Y-87600752D01*
X166713602Y-87796917D01*
X166694785Y-87999999D01*
X166694785Y-88000000D01*
X166713602Y-88203082D01*
X166769417Y-88399247D01*
X166769422Y-88399260D01*
X166860327Y-88581821D01*
X166983237Y-88744581D01*
X167133958Y-88881980D01*
X167133960Y-88881982D01*
X167152648Y-88893553D01*
X167307363Y-88989348D01*
X167497544Y-89063024D01*
X167698024Y-89100500D01*
X167698026Y-89100500D01*
X167901974Y-89100500D01*
X167901976Y-89100500D01*
X168102456Y-89063024D01*
X168292637Y-88989348D01*
X168466041Y-88881981D01*
X168616764Y-88744579D01*
X168739673Y-88581821D01*
X168760497Y-88540000D01*
X171329975Y-88540000D01*
X171350042Y-88794989D01*
X171409752Y-89043702D01*
X171507634Y-89280012D01*
X171507636Y-89280015D01*
X171641277Y-89498098D01*
X171641284Y-89498107D01*
X171644533Y-89501912D01*
X172205884Y-88940560D01*
X172206740Y-88942626D01*
X172299762Y-89081844D01*
X172418156Y-89200238D01*
X172557374Y-89293260D01*
X172559437Y-89294114D01*
X171998087Y-89855465D01*
X172001897Y-89858719D01*
X172219984Y-89992363D01*
X172219987Y-89992365D01*
X172456297Y-90090247D01*
X172705011Y-90149957D01*
X172705010Y-90149957D01*
X172960000Y-90170024D01*
X173214989Y-90149957D01*
X173463702Y-90090247D01*
X173700012Y-89992365D01*
X173700015Y-89992363D01*
X173918095Y-89858724D01*
X173918110Y-89858713D01*
X173921911Y-89855466D01*
X173921911Y-89855464D01*
X173360562Y-89294114D01*
X173362626Y-89293260D01*
X173501844Y-89200238D01*
X173620238Y-89081844D01*
X173713260Y-88942626D01*
X173714114Y-88940562D01*
X174275464Y-89501911D01*
X174275466Y-89501911D01*
X174278713Y-89498110D01*
X174278724Y-89498095D01*
X174412363Y-89280015D01*
X174412365Y-89280012D01*
X174510247Y-89043702D01*
X174569957Y-88794989D01*
X174590024Y-88540000D01*
X176409975Y-88540000D01*
X176430042Y-88794989D01*
X176489752Y-89043702D01*
X176587634Y-89280012D01*
X176587636Y-89280015D01*
X176721277Y-89498098D01*
X176721284Y-89498107D01*
X176724533Y-89501912D01*
X177285884Y-88940560D01*
X177286740Y-88942626D01*
X177379762Y-89081844D01*
X177498156Y-89200238D01*
X177637374Y-89293260D01*
X177639437Y-89294114D01*
X177078087Y-89855465D01*
X177081897Y-89858719D01*
X177299984Y-89992363D01*
X177299987Y-89992365D01*
X177536297Y-90090247D01*
X177785011Y-90149957D01*
X177785010Y-90149957D01*
X178040000Y-90170024D01*
X178294989Y-90149957D01*
X178543702Y-90090247D01*
X178780012Y-89992365D01*
X178780015Y-89992363D01*
X178998095Y-89858724D01*
X178998110Y-89858713D01*
X179001911Y-89855466D01*
X179001911Y-89855464D01*
X178440562Y-89294114D01*
X178442626Y-89293260D01*
X178581844Y-89200238D01*
X178700238Y-89081844D01*
X178793260Y-88942626D01*
X178794114Y-88940561D01*
X179355464Y-89501911D01*
X179355466Y-89501911D01*
X179358713Y-89498110D01*
X179358724Y-89498095D01*
X179492363Y-89280015D01*
X179492365Y-89280012D01*
X179590247Y-89043702D01*
X179649957Y-88794989D01*
X179670024Y-88540000D01*
X179649957Y-88285010D01*
X179590247Y-88036297D01*
X179492365Y-87799987D01*
X179492363Y-87799984D01*
X179358719Y-87581897D01*
X179355465Y-87578087D01*
X178794114Y-88139437D01*
X178793260Y-88137374D01*
X178700238Y-87998156D01*
X178581844Y-87879762D01*
X178442626Y-87786740D01*
X178440561Y-87785884D01*
X179001912Y-87224533D01*
X178998107Y-87221284D01*
X178998098Y-87221277D01*
X178780015Y-87087636D01*
X178780012Y-87087634D01*
X178543702Y-86989752D01*
X178294988Y-86930042D01*
X178294989Y-86930042D01*
X178040000Y-86909975D01*
X177785010Y-86930042D01*
X177536297Y-86989752D01*
X177299987Y-87087634D01*
X177299984Y-87087636D01*
X177081893Y-87221282D01*
X177078086Y-87224532D01*
X177639438Y-87785884D01*
X177637374Y-87786740D01*
X177498156Y-87879762D01*
X177379762Y-87998156D01*
X177286740Y-88137374D01*
X177285884Y-88139438D01*
X176724532Y-87578086D01*
X176721282Y-87581893D01*
X176587636Y-87799984D01*
X176587634Y-87799987D01*
X176489752Y-88036297D01*
X176430042Y-88285010D01*
X176409975Y-88540000D01*
X174590024Y-88540000D01*
X174569957Y-88285010D01*
X174510247Y-88036297D01*
X174412365Y-87799987D01*
X174412363Y-87799984D01*
X174278719Y-87581897D01*
X174275465Y-87578087D01*
X173714114Y-88139437D01*
X173713260Y-88137374D01*
X173620238Y-87998156D01*
X173501844Y-87879762D01*
X173362626Y-87786740D01*
X173360561Y-87785884D01*
X173921912Y-87224533D01*
X173918107Y-87221284D01*
X173918098Y-87221277D01*
X173700015Y-87087636D01*
X173700012Y-87087634D01*
X173463702Y-86989752D01*
X173214988Y-86930042D01*
X173214989Y-86930042D01*
X172960000Y-86909975D01*
X172705010Y-86930042D01*
X172456297Y-86989752D01*
X172219987Y-87087634D01*
X172219984Y-87087636D01*
X172001893Y-87221282D01*
X171998086Y-87224532D01*
X172559438Y-87785884D01*
X172557374Y-87786740D01*
X172418156Y-87879762D01*
X172299762Y-87998156D01*
X172206740Y-88137374D01*
X172205884Y-88139438D01*
X171644532Y-87578086D01*
X171641282Y-87581893D01*
X171507636Y-87799984D01*
X171507634Y-87799987D01*
X171409752Y-88036297D01*
X171350042Y-88285010D01*
X171329975Y-88540000D01*
X168760497Y-88540000D01*
X168830582Y-88399250D01*
X168886397Y-88203083D01*
X168905215Y-88000000D01*
X168903027Y-87976392D01*
X168896922Y-87910499D01*
X168886397Y-87796917D01*
X168867464Y-87730375D01*
X168868050Y-87660513D01*
X168899047Y-87608765D01*
X169970995Y-86536819D01*
X170032318Y-86503334D01*
X170058676Y-86500500D01*
X174191863Y-86500500D01*
X174258902Y-86520185D01*
X174304245Y-86572095D01*
X174347698Y-86665281D01*
X174441680Y-86799500D01*
X174480730Y-86855269D01*
X174644731Y-87019270D01*
X174834718Y-87152301D01*
X175044921Y-87250320D01*
X175268950Y-87310349D01*
X175433985Y-87324787D01*
X175499998Y-87330563D01*
X175500000Y-87330563D01*
X175500002Y-87330563D01*
X175557762Y-87325509D01*
X175731050Y-87310349D01*
X175955079Y-87250320D01*
X176165282Y-87152301D01*
X176355269Y-87019270D01*
X176519270Y-86855269D01*
X176652301Y-86665282D01*
X176750320Y-86455079D01*
X176810349Y-86231050D01*
X176830563Y-86000000D01*
X176810349Y-85768950D01*
X176750320Y-85544921D01*
X176652301Y-85334719D01*
X176652299Y-85334716D01*
X176652298Y-85334714D01*
X176519273Y-85144735D01*
X176519268Y-85144729D01*
X176355269Y-84980730D01*
X176165281Y-84847698D01*
X176072095Y-84804245D01*
X176019656Y-84758072D01*
X176000500Y-84691863D01*
X176000500Y-83460000D01*
X176409975Y-83460000D01*
X176430042Y-83714989D01*
X176489752Y-83963702D01*
X176587634Y-84200012D01*
X176587636Y-84200015D01*
X176721277Y-84418098D01*
X176721284Y-84418107D01*
X176724533Y-84421912D01*
X177285884Y-83860560D01*
X177286740Y-83862626D01*
X177379762Y-84001844D01*
X177498156Y-84120238D01*
X177637374Y-84213260D01*
X177639437Y-84214114D01*
X177078087Y-84775465D01*
X177081897Y-84778719D01*
X177299984Y-84912363D01*
X177299987Y-84912365D01*
X177536297Y-85010247D01*
X177785011Y-85069957D01*
X177785010Y-85069957D01*
X178040000Y-85090024D01*
X178294989Y-85069957D01*
X178543702Y-85010247D01*
X178780012Y-84912365D01*
X178780015Y-84912363D01*
X178998095Y-84778724D01*
X178998110Y-84778713D01*
X179001911Y-84775466D01*
X179001911Y-84775464D01*
X178440562Y-84214114D01*
X178442626Y-84213260D01*
X178581844Y-84120238D01*
X178700238Y-84001844D01*
X178793260Y-83862626D01*
X178794114Y-83860561D01*
X179355464Y-84421911D01*
X179355466Y-84421911D01*
X179358713Y-84418110D01*
X179358724Y-84418095D01*
X179492363Y-84200015D01*
X179492365Y-84200012D01*
X179590247Y-83963702D01*
X179649957Y-83714989D01*
X179670024Y-83460000D01*
X179649957Y-83205010D01*
X179590247Y-82956297D01*
X179492365Y-82719987D01*
X179492363Y-82719984D01*
X179358719Y-82501897D01*
X179355465Y-82498087D01*
X178794114Y-83059437D01*
X178793260Y-83057374D01*
X178700238Y-82918156D01*
X178581844Y-82799762D01*
X178442626Y-82706740D01*
X178440561Y-82705884D01*
X179001912Y-82144533D01*
X178998107Y-82141284D01*
X178998098Y-82141277D01*
X178780015Y-82007636D01*
X178780012Y-82007634D01*
X178543702Y-81909752D01*
X178294988Y-81850042D01*
X178294989Y-81850042D01*
X178040000Y-81829975D01*
X177785010Y-81850042D01*
X177536297Y-81909752D01*
X177299987Y-82007634D01*
X177299984Y-82007636D01*
X177081893Y-82141282D01*
X177078086Y-82144532D01*
X177639438Y-82705884D01*
X177637374Y-82706740D01*
X177498156Y-82799762D01*
X177379762Y-82918156D01*
X177286740Y-83057374D01*
X177285884Y-83059438D01*
X176724532Y-82498086D01*
X176721282Y-82501893D01*
X176587636Y-82719984D01*
X176587634Y-82719987D01*
X176489752Y-82956297D01*
X176430042Y-83205010D01*
X176409975Y-83460000D01*
X176000500Y-83460000D01*
X176000500Y-66540000D01*
X176409975Y-66540000D01*
X176430042Y-66794989D01*
X176489752Y-67043702D01*
X176587634Y-67280012D01*
X176587636Y-67280015D01*
X176721277Y-67498098D01*
X176721284Y-67498107D01*
X176724533Y-67501912D01*
X177285884Y-66940560D01*
X177286740Y-66942626D01*
X177379762Y-67081844D01*
X177498156Y-67200238D01*
X177637374Y-67293260D01*
X177639437Y-67294114D01*
X177078087Y-67855465D01*
X177081897Y-67858719D01*
X177299984Y-67992363D01*
X177299987Y-67992365D01*
X177536297Y-68090247D01*
X177785011Y-68149957D01*
X177785010Y-68149957D01*
X178040000Y-68170024D01*
X178294989Y-68149957D01*
X178543702Y-68090247D01*
X178780012Y-67992365D01*
X178780015Y-67992363D01*
X178998095Y-67858724D01*
X178998110Y-67858713D01*
X179001911Y-67855466D01*
X179001911Y-67855464D01*
X178440562Y-67294114D01*
X178442626Y-67293260D01*
X178581844Y-67200238D01*
X178700238Y-67081844D01*
X178793260Y-66942626D01*
X178794114Y-66940561D01*
X179355464Y-67501911D01*
X179355466Y-67501911D01*
X179358713Y-67498110D01*
X179358724Y-67498095D01*
X179492363Y-67280015D01*
X179492365Y-67280012D01*
X179590247Y-67043702D01*
X179649957Y-66794989D01*
X179670024Y-66540000D01*
X179649957Y-66285010D01*
X179590247Y-66036297D01*
X179492365Y-65799987D01*
X179492363Y-65799984D01*
X179358719Y-65581897D01*
X179355465Y-65578087D01*
X178794114Y-66139437D01*
X178793260Y-66137374D01*
X178700238Y-65998156D01*
X178581844Y-65879762D01*
X178442626Y-65786740D01*
X178440561Y-65785884D01*
X179001912Y-65224533D01*
X178998107Y-65221284D01*
X178998098Y-65221277D01*
X178780015Y-65087636D01*
X178780012Y-65087634D01*
X178543702Y-64989752D01*
X178294988Y-64930042D01*
X178294989Y-64930042D01*
X178040000Y-64909975D01*
X177785010Y-64930042D01*
X177536297Y-64989752D01*
X177299987Y-65087634D01*
X177299984Y-65087636D01*
X177081893Y-65221282D01*
X177078086Y-65224532D01*
X177639438Y-65785884D01*
X177637374Y-65786740D01*
X177498156Y-65879762D01*
X177379762Y-65998156D01*
X177286740Y-66137374D01*
X177285884Y-66139438D01*
X176724532Y-65578086D01*
X176721282Y-65581893D01*
X176587636Y-65799984D01*
X176587634Y-65799987D01*
X176489752Y-66036297D01*
X176430042Y-66285010D01*
X176409975Y-66540000D01*
X176000500Y-66540000D01*
X176000500Y-65308135D01*
X176020185Y-65241096D01*
X176072093Y-65195754D01*
X176165282Y-65152301D01*
X176355269Y-65019270D01*
X176519270Y-64855269D01*
X176652301Y-64665282D01*
X176750320Y-64455079D01*
X176810349Y-64231050D01*
X176830563Y-64000000D01*
X176810349Y-63768950D01*
X176750320Y-63544921D01*
X176652301Y-63334719D01*
X176652299Y-63334716D01*
X176652298Y-63334714D01*
X176519273Y-63144735D01*
X176519268Y-63144729D01*
X176355269Y-62980730D01*
X176313974Y-62951815D01*
X176165282Y-62847699D01*
X175955079Y-62749680D01*
X175955076Y-62749679D01*
X175955074Y-62749678D01*
X175731051Y-62689651D01*
X175731044Y-62689650D01*
X175500002Y-62669437D01*
X175499998Y-62669437D01*
X175268955Y-62689650D01*
X175268948Y-62689651D01*
X175044917Y-62749681D01*
X174834718Y-62847699D01*
X174834714Y-62847701D01*
X174644735Y-62980726D01*
X174644729Y-62980731D01*
X174480731Y-63144729D01*
X174480726Y-63144735D01*
X174347699Y-63334717D01*
X174347698Y-63334719D01*
X174304245Y-63427905D01*
X174258072Y-63480344D01*
X174191863Y-63499500D01*
X168856944Y-63499500D01*
X168789905Y-63479815D01*
X168745945Y-63430774D01*
X168739673Y-63418178D01*
X168616762Y-63255418D01*
X168466041Y-63118019D01*
X168466039Y-63118017D01*
X168292642Y-63010655D01*
X168292635Y-63010651D01*
X168197546Y-62973814D01*
X168102456Y-62936976D01*
X167901976Y-62899500D01*
X167698024Y-62899500D01*
X167497544Y-62936976D01*
X167497541Y-62936976D01*
X167497541Y-62936977D01*
X167307364Y-63010651D01*
X167307357Y-63010655D01*
X167133960Y-63118017D01*
X167133958Y-63118019D01*
X166983237Y-63255418D01*
X166860327Y-63418178D01*
X166769422Y-63600739D01*
X166769417Y-63600752D01*
X166713602Y-63796917D01*
X166694785Y-63999999D01*
X166694785Y-64000000D01*
X166713602Y-64203079D01*
X166713602Y-64203082D01*
X166713603Y-64203083D01*
X166732534Y-64269622D01*
X166731947Y-64339487D01*
X166700949Y-64391235D01*
X166508715Y-64583470D01*
X166447392Y-64616955D01*
X166377701Y-64611971D01*
X166321767Y-64570100D01*
X166297350Y-64504635D01*
X166310034Y-64440517D01*
X166330577Y-64399260D01*
X166330576Y-64399260D01*
X166330582Y-64399250D01*
X166386397Y-64203083D01*
X166405215Y-64000000D01*
X166398636Y-63929005D01*
X166386397Y-63796917D01*
X166365101Y-63722071D01*
X166330582Y-63600750D01*
X166330068Y-63599718D01*
X166251265Y-63441460D01*
X166239673Y-63418179D01*
X166176646Y-63334718D01*
X166116762Y-63255418D01*
X165966041Y-63118019D01*
X165966039Y-63118017D01*
X165792642Y-63010655D01*
X165792635Y-63010651D01*
X165697546Y-62973814D01*
X165602456Y-62936976D01*
X165401976Y-62899500D01*
X165198024Y-62899500D01*
X164997544Y-62936976D01*
X164997541Y-62936976D01*
X164997541Y-62936977D01*
X164807364Y-63010651D01*
X164807357Y-63010655D01*
X164633960Y-63118017D01*
X164633958Y-63118019D01*
X164483237Y-63255418D01*
X164360327Y-63418178D01*
X164269422Y-63600739D01*
X164269417Y-63600752D01*
X164213602Y-63796917D01*
X164194785Y-63999999D01*
X164194785Y-64000000D01*
X164213602Y-64203082D01*
X164269417Y-64399247D01*
X164269422Y-64399260D01*
X164360327Y-64581821D01*
X164483237Y-64744581D01*
X164633958Y-64881980D01*
X164633960Y-64881982D01*
X164679171Y-64909975D01*
X164807363Y-64989348D01*
X164997544Y-65063024D01*
X165198024Y-65100500D01*
X165198026Y-65100500D01*
X165401974Y-65100500D01*
X165401976Y-65100500D01*
X165602456Y-65063024D01*
X165750876Y-65005525D01*
X165820499Y-64999663D01*
X165882239Y-65032373D01*
X165916494Y-65093269D01*
X165912389Y-65163018D01*
X165883351Y-65208833D01*
X161329005Y-69763181D01*
X161267682Y-69796666D01*
X161241324Y-69799500D01*
X159855384Y-69799500D01*
X159788345Y-69779815D01*
X159742590Y-69727011D01*
X159732646Y-69657853D01*
X159761671Y-69594297D01*
X159810590Y-69559873D01*
X159840481Y-69548293D01*
X159992637Y-69489348D01*
X160166041Y-69381981D01*
X160316764Y-69244579D01*
X160439673Y-69081821D01*
X160530582Y-68899250D01*
X160586397Y-68703083D01*
X160605215Y-68500000D01*
X160591512Y-68352123D01*
X160586397Y-68296917D01*
X160570900Y-68242452D01*
X160530582Y-68100750D01*
X160529960Y-68099501D01*
X160476612Y-67992363D01*
X160439673Y-67918179D01*
X160353351Y-67803870D01*
X160316762Y-67755418D01*
X160166041Y-67618019D01*
X160166039Y-67618017D01*
X159992642Y-67510655D01*
X159992635Y-67510651D01*
X159897546Y-67473814D01*
X159802456Y-67436976D01*
X159601976Y-67399500D01*
X159398024Y-67399500D01*
X159197544Y-67436976D01*
X159197541Y-67436976D01*
X159197541Y-67436977D01*
X159007364Y-67510651D01*
X159007357Y-67510655D01*
X158833960Y-67618017D01*
X158833958Y-67618019D01*
X158683237Y-67755418D01*
X158560327Y-67918178D01*
X158466862Y-68105882D01*
X158465245Y-68105076D01*
X158427702Y-68153925D01*
X158361934Y-68177511D01*
X158293854Y-68161796D01*
X158245079Y-68111768D01*
X158234880Y-68085818D01*
X158226269Y-68053682D01*
X158226264Y-68053668D01*
X158130136Y-67847521D01*
X158130132Y-67847513D01*
X158079025Y-67774526D01*
X157400000Y-68453551D01*
X157400000Y-68447339D01*
X157372741Y-68345606D01*
X157320080Y-68254394D01*
X157245606Y-68179920D01*
X157154394Y-68127259D01*
X157052661Y-68100000D01*
X157046448Y-68100000D01*
X157725472Y-67420974D01*
X157652478Y-67369863D01*
X157446331Y-67273735D01*
X157446317Y-67273730D01*
X157226610Y-67214860D01*
X157226599Y-67214858D01*
X157000002Y-67195034D01*
X156999998Y-67195034D01*
X156773400Y-67214858D01*
X156773389Y-67214860D01*
X156553682Y-67273730D01*
X156553673Y-67273734D01*
X156347516Y-67369866D01*
X156347512Y-67369868D01*
X156274526Y-67420973D01*
X156274526Y-67420974D01*
X156953553Y-68100000D01*
X156947339Y-68100000D01*
X156845606Y-68127259D01*
X156754394Y-68179920D01*
X156679920Y-68254394D01*
X156627259Y-68345606D01*
X156600000Y-68447339D01*
X156600000Y-68453552D01*
X155920974Y-67774526D01*
X155920973Y-67774526D01*
X155869868Y-67847512D01*
X155869866Y-67847516D01*
X155773734Y-68053673D01*
X155773730Y-68053682D01*
X155714860Y-68273389D01*
X155714858Y-68273400D01*
X155695034Y-68499997D01*
X155695034Y-68500002D01*
X155714858Y-68726599D01*
X155714860Y-68726610D01*
X155773730Y-68946317D01*
X155773733Y-68946326D01*
X155809532Y-69023095D01*
X155820024Y-69092172D01*
X155791505Y-69155956D01*
X155733028Y-69194196D01*
X155697150Y-69199500D01*
X155258675Y-69199500D01*
X155191636Y-69179815D01*
X155170994Y-69163181D01*
X154899049Y-68891236D01*
X154865564Y-68829913D01*
X154867463Y-68769623D01*
X154886397Y-68703083D01*
X154905215Y-68500000D01*
X154891512Y-68352123D01*
X154886397Y-68296917D01*
X154870900Y-68242452D01*
X154830582Y-68100750D01*
X154829960Y-68099501D01*
X154776612Y-67992363D01*
X154739673Y-67918179D01*
X154653351Y-67803870D01*
X154616762Y-67755418D01*
X154466042Y-67618020D01*
X154466041Y-67618019D01*
X154359222Y-67551879D01*
X154312587Y-67499851D01*
X154300500Y-67446452D01*
X154300500Y-65734110D01*
X154300500Y-65734108D01*
X154266392Y-65606814D01*
X154200500Y-65492686D01*
X154107314Y-65399500D01*
X153019273Y-64311459D01*
X152985788Y-64250136D01*
X152985338Y-64199581D01*
X152986024Y-64196132D01*
X152989002Y-64165891D01*
X153005341Y-64000000D01*
X152986024Y-63803868D01*
X152928814Y-63615273D01*
X152928811Y-63615269D01*
X152928811Y-63615266D01*
X152835913Y-63441467D01*
X152835909Y-63441460D01*
X152710883Y-63289116D01*
X152558539Y-63164090D01*
X152558532Y-63164086D01*
X152384733Y-63071188D01*
X152384727Y-63071186D01*
X152208435Y-63017708D01*
X152196129Y-63013975D01*
X152000000Y-62994659D01*
X151803870Y-63013975D01*
X151615266Y-63071188D01*
X151441467Y-63164086D01*
X151441460Y-63164090D01*
X151289116Y-63289116D01*
X151164089Y-63441461D01*
X151162129Y-63444396D01*
X151160705Y-63445585D01*
X151160225Y-63446171D01*
X151160113Y-63446079D01*
X151108514Y-63489198D01*
X151059030Y-63499500D01*
X147934108Y-63499500D01*
X147806812Y-63533608D01*
X147692686Y-63599500D01*
X147692683Y-63599502D01*
X143283056Y-68009128D01*
X143221733Y-68042613D01*
X143152041Y-68037629D01*
X143147923Y-68036008D01*
X142996115Y-67973127D01*
X142751151Y-67914317D01*
X142500000Y-67894551D01*
X142248848Y-67914317D01*
X142003889Y-67973126D01*
X141771140Y-68069533D01*
X141556346Y-68201160D01*
X141556343Y-68201161D01*
X141364776Y-68364776D01*
X141201161Y-68556343D01*
X141201160Y-68556346D01*
X141069533Y-68771140D01*
X140973126Y-69003889D01*
X140914317Y-69248848D01*
X140894551Y-69500000D01*
X133100500Y-69500000D01*
X133100500Y-68352127D01*
X134799500Y-68352127D01*
X134799500Y-68352134D01*
X134799500Y-68352135D01*
X134799500Y-68847870D01*
X134799501Y-68847876D01*
X134805908Y-68907483D01*
X134856202Y-69042328D01*
X134856206Y-69042335D01*
X134942452Y-69157544D01*
X134942455Y-69157547D01*
X135057664Y-69243793D01*
X135057671Y-69243797D01*
X135192517Y-69294091D01*
X135192516Y-69294091D01*
X135199444Y-69294835D01*
X135252127Y-69300500D01*
X136947872Y-69300499D01*
X137007483Y-69294091D01*
X137142331Y-69243796D01*
X137257546Y-69157546D01*
X137343796Y-69042331D01*
X137394091Y-68907483D01*
X137400500Y-68847873D01*
X137400499Y-68352128D01*
X137394091Y-68292517D01*
X137360017Y-68201161D01*
X137343797Y-68157671D01*
X137343793Y-68157664D01*
X137257547Y-68042455D01*
X137257544Y-68042452D01*
X137142335Y-67956206D01*
X137142328Y-67956202D01*
X137007482Y-67905908D01*
X137007483Y-67905908D01*
X136947883Y-67899501D01*
X136947881Y-67899500D01*
X136947873Y-67899500D01*
X136947864Y-67899500D01*
X135252129Y-67899500D01*
X135252123Y-67899501D01*
X135192516Y-67905908D01*
X135057671Y-67956202D01*
X135057664Y-67956206D01*
X134942455Y-68042452D01*
X134942452Y-68042455D01*
X134856206Y-68157664D01*
X134856202Y-68157671D01*
X134813043Y-68273389D01*
X134805909Y-68292517D01*
X134799500Y-68352127D01*
X133100500Y-68352127D01*
X133100500Y-65807676D01*
X133120185Y-65740637D01*
X133172989Y-65694882D01*
X133242147Y-65684938D01*
X133305703Y-65713963D01*
X133312181Y-65719995D01*
X134699500Y-67107314D01*
X134792686Y-67200500D01*
X134817555Y-67214858D01*
X134827377Y-67220529D01*
X134864643Y-67253605D01*
X134942452Y-67357544D01*
X134942455Y-67357547D01*
X135057664Y-67443793D01*
X135057671Y-67443797D01*
X135192517Y-67494091D01*
X135192516Y-67494091D01*
X135199444Y-67494835D01*
X135252127Y-67500500D01*
X136947872Y-67500499D01*
X137007483Y-67494091D01*
X137142331Y-67443796D01*
X137257546Y-67357546D01*
X137343796Y-67242331D01*
X137394091Y-67107483D01*
X137400500Y-67047873D01*
X137400499Y-66552128D01*
X137394091Y-66492517D01*
X137380576Y-66456282D01*
X137343797Y-66357671D01*
X137343793Y-66357664D01*
X137257547Y-66242455D01*
X137257544Y-66242452D01*
X137142335Y-66156206D01*
X137142328Y-66156202D01*
X137007482Y-66105908D01*
X137007483Y-66105908D01*
X136947883Y-66099501D01*
X136947881Y-66099500D01*
X136947873Y-66099500D01*
X136947864Y-66099500D01*
X135252129Y-66099500D01*
X135252123Y-66099501D01*
X135184804Y-66106738D01*
X135184558Y-66104453D01*
X135126287Y-66101317D01*
X135079884Y-66072070D01*
X134140819Y-65133005D01*
X134107334Y-65071682D01*
X134104500Y-65045324D01*
X134104500Y-59000000D01*
X138114659Y-59000000D01*
X138133975Y-59196129D01*
X138191188Y-59384733D01*
X138284086Y-59558532D01*
X138284090Y-59558539D01*
X138409116Y-59710883D01*
X138561460Y-59835909D01*
X138561467Y-59835913D01*
X138735266Y-59928811D01*
X138735269Y-59928811D01*
X138735273Y-59928814D01*
X138923868Y-59986024D01*
X139120000Y-60005341D01*
X139316132Y-59986024D01*
X139504727Y-59928814D01*
X139516920Y-59922297D01*
X139609632Y-59872741D01*
X139678538Y-59835910D01*
X139830883Y-59710883D01*
X139955910Y-59558538D01*
X140048814Y-59384727D01*
X140106024Y-59196132D01*
X140125341Y-59000000D01*
X140106024Y-58803868D01*
X140048814Y-58615273D01*
X140048811Y-58615269D01*
X140048811Y-58615266D01*
X139955913Y-58441467D01*
X139955909Y-58441460D01*
X139830883Y-58289116D01*
X139678539Y-58164090D01*
X139678532Y-58164086D01*
X139504733Y-58071188D01*
X139504727Y-58071186D01*
X139316132Y-58013976D01*
X139316129Y-58013975D01*
X139120000Y-57994659D01*
X138923870Y-58013975D01*
X138735266Y-58071188D01*
X138561467Y-58164086D01*
X138561460Y-58164090D01*
X138409116Y-58289116D01*
X138284090Y-58441460D01*
X138284086Y-58441467D01*
X138191188Y-58615266D01*
X138133975Y-58803870D01*
X138114659Y-59000000D01*
X134104500Y-59000000D01*
X134104500Y-57038110D01*
X134104500Y-57038108D01*
X134070392Y-56910814D01*
X134066118Y-56903412D01*
X134060451Y-56893596D01*
X134004500Y-56796686D01*
X133911314Y-56703500D01*
X132519273Y-55311459D01*
X132485788Y-55250136D01*
X132485338Y-55199581D01*
X132486024Y-55196132D01*
X132486024Y-55196129D01*
X132505341Y-55000000D01*
X132486024Y-54803868D01*
X132428814Y-54615273D01*
X132411538Y-54582953D01*
X132397297Y-54514551D01*
X132422297Y-54449307D01*
X132478602Y-54407936D01*
X132520897Y-54400500D01*
X138099103Y-54400500D01*
X138166142Y-54420185D01*
X138211897Y-54472989D01*
X138221841Y-54542147D01*
X138208461Y-54582954D01*
X138191187Y-54615269D01*
X138133975Y-54803870D01*
X138114659Y-55000000D01*
X138133975Y-55196129D01*
X138191188Y-55384733D01*
X138284086Y-55558532D01*
X138284090Y-55558539D01*
X138409116Y-55710883D01*
X138561460Y-55835909D01*
X138561467Y-55835913D01*
X138735266Y-55928811D01*
X138735269Y-55928811D01*
X138735273Y-55928814D01*
X138923868Y-55986024D01*
X139120000Y-56005341D01*
X139316132Y-55986024D01*
X139319581Y-55985338D01*
X139321424Y-55985502D01*
X139322195Y-55985427D01*
X139322209Y-55985573D01*
X139389173Y-55991562D01*
X139431459Y-56019273D01*
X141719500Y-58307314D01*
X141812686Y-58400500D01*
X141926814Y-58466392D01*
X142054108Y-58500500D01*
X142054110Y-58500500D01*
X151105890Y-58500500D01*
X151105892Y-58500500D01*
X151233186Y-58466392D01*
X151347314Y-58400500D01*
X153065091Y-56682721D01*
X153126412Y-56649238D01*
X153196103Y-56654222D01*
X153197556Y-56654774D01*
X153210060Y-56659618D01*
X153428757Y-56700500D01*
X153428759Y-56700500D01*
X153651241Y-56700500D01*
X153651243Y-56700500D01*
X153869940Y-56659618D01*
X154077401Y-56579247D01*
X154266562Y-56462124D01*
X154430981Y-56312236D01*
X154565058Y-56134689D01*
X154664229Y-55935528D01*
X154725115Y-55721536D01*
X154745643Y-55500000D01*
X154725115Y-55278464D01*
X154664229Y-55064472D01*
X154632126Y-55000000D01*
X154565061Y-54865316D01*
X154565056Y-54865308D01*
X154430979Y-54687761D01*
X154266562Y-54537876D01*
X154266560Y-54537874D01*
X154077404Y-54420754D01*
X154077398Y-54420752D01*
X153869940Y-54340382D01*
X153651243Y-54299500D01*
X153428757Y-54299500D01*
X153210060Y-54340382D01*
X153078864Y-54391207D01*
X153002601Y-54420752D01*
X153002595Y-54420754D01*
X152813439Y-54537874D01*
X152813437Y-54537876D01*
X152649019Y-54687762D01*
X152622953Y-54722280D01*
X152566844Y-54763915D01*
X152497132Y-54768606D01*
X152435950Y-54734863D01*
X152402724Y-54673400D01*
X152400000Y-54647552D01*
X152400000Y-54552172D01*
X152399999Y-54552155D01*
X152393598Y-54492627D01*
X152393596Y-54492620D01*
X152343354Y-54357913D01*
X152343350Y-54357906D01*
X152257190Y-54242812D01*
X152257187Y-54242809D01*
X152142093Y-54156649D01*
X152142086Y-54156645D01*
X152007379Y-54106403D01*
X152007372Y-54106401D01*
X151947844Y-54100000D01*
X151250000Y-54100000D01*
X151250000Y-55124722D01*
X151173694Y-55080667D01*
X151059244Y-55050000D01*
X150940756Y-55050000D01*
X150826306Y-55080667D01*
X150750000Y-55124722D01*
X150750000Y-54100000D01*
X150052155Y-54100000D01*
X149992627Y-54106401D01*
X149992620Y-54106403D01*
X149857913Y-54156645D01*
X149857906Y-54156649D01*
X149742812Y-54242809D01*
X149742809Y-54242812D01*
X149656649Y-54357906D01*
X149656645Y-54357913D01*
X149606403Y-54492620D01*
X149606401Y-54492627D01*
X149600000Y-54552155D01*
X149600000Y-55250000D01*
X150624722Y-55250000D01*
X150580667Y-55326306D01*
X150550000Y-55440756D01*
X150550000Y-55559244D01*
X150580667Y-55673694D01*
X150624722Y-55750000D01*
X149600000Y-55750000D01*
X149600000Y-56447844D01*
X149606401Y-56507372D01*
X149606403Y-56507379D01*
X149656645Y-56642086D01*
X149656649Y-56642093D01*
X149742809Y-56757187D01*
X149742812Y-56757190D01*
X149857906Y-56843350D01*
X149857913Y-56843354D01*
X149992620Y-56893596D01*
X149992627Y-56893598D01*
X150052155Y-56899999D01*
X150052172Y-56900000D01*
X150750000Y-56900000D01*
X150750000Y-55875277D01*
X150826306Y-55919333D01*
X150940756Y-55950000D01*
X151059244Y-55950000D01*
X151173694Y-55919333D01*
X151250000Y-55875277D01*
X151250000Y-56900000D01*
X151253412Y-56903412D01*
X151286897Y-56964735D01*
X151281913Y-57034427D01*
X151253412Y-57078774D01*
X150869005Y-57463181D01*
X150807682Y-57496666D01*
X150781324Y-57499500D01*
X142378676Y-57499500D01*
X142311637Y-57479815D01*
X142290995Y-57463181D01*
X140139273Y-55311459D01*
X140105788Y-55250136D01*
X140105338Y-55199581D01*
X140106024Y-55196132D01*
X140106024Y-55196129D01*
X140125341Y-55000000D01*
X140106024Y-54803868D01*
X140048814Y-54615273D01*
X140031538Y-54582953D01*
X140017297Y-54514551D01*
X140042297Y-54449307D01*
X140098602Y-54407936D01*
X140140897Y-54400500D01*
X142978260Y-54400500D01*
X143045299Y-54420185D01*
X143091054Y-54472989D01*
X143101550Y-54537755D01*
X143100000Y-54552171D01*
X143100000Y-55250000D01*
X144124722Y-55250000D01*
X144080667Y-55326306D01*
X144050000Y-55440756D01*
X144050000Y-55559244D01*
X144080667Y-55673694D01*
X144124722Y-55750000D01*
X143100000Y-55750000D01*
X143100000Y-56447844D01*
X143106401Y-56507372D01*
X143106403Y-56507379D01*
X143156645Y-56642086D01*
X143156649Y-56642093D01*
X143242809Y-56757187D01*
X143242812Y-56757190D01*
X143357906Y-56843350D01*
X143357913Y-56843354D01*
X143492620Y-56893596D01*
X143492627Y-56893598D01*
X143552155Y-56899999D01*
X143552172Y-56900000D01*
X144250000Y-56900000D01*
X144250000Y-55875277D01*
X144326306Y-55919333D01*
X144440756Y-55950000D01*
X144559244Y-55950000D01*
X144673694Y-55919333D01*
X144750000Y-55875277D01*
X144750000Y-56900000D01*
X145447828Y-56900000D01*
X145447844Y-56899999D01*
X145507372Y-56893598D01*
X145507379Y-56893596D01*
X145642086Y-56843354D01*
X145642093Y-56843350D01*
X145757187Y-56757190D01*
X145757190Y-56757187D01*
X145843350Y-56642093D01*
X145843354Y-56642086D01*
X145893596Y-56507379D01*
X145893598Y-56507372D01*
X145899999Y-56447844D01*
X145900000Y-56447827D01*
X145900000Y-56352447D01*
X145919685Y-56285408D01*
X145972489Y-56239653D01*
X146041647Y-56229709D01*
X146105203Y-56258734D01*
X146122954Y-56277721D01*
X146149017Y-56312234D01*
X146149019Y-56312237D01*
X146313437Y-56462123D01*
X146313439Y-56462125D01*
X146502595Y-56579245D01*
X146502596Y-56579245D01*
X146502599Y-56579247D01*
X146710060Y-56659618D01*
X146928757Y-56700500D01*
X146928759Y-56700500D01*
X147151241Y-56700500D01*
X147151243Y-56700500D01*
X147369940Y-56659618D01*
X147577401Y-56579247D01*
X147766562Y-56462124D01*
X147930981Y-56312236D01*
X148065058Y-56134689D01*
X148164229Y-55935528D01*
X148225115Y-55721536D01*
X148245643Y-55500000D01*
X148225115Y-55278464D01*
X148164229Y-55064472D01*
X148132126Y-55000000D01*
X148065061Y-54865316D01*
X148065056Y-54865308D01*
X147930979Y-54687761D01*
X147766562Y-54537876D01*
X147766560Y-54537874D01*
X147577404Y-54420754D01*
X147577398Y-54420752D01*
X147369940Y-54340382D01*
X147151243Y-54299500D01*
X146928757Y-54299500D01*
X146833665Y-54317276D01*
X146710058Y-54340382D01*
X146710053Y-54340384D01*
X146697559Y-54345224D01*
X146627936Y-54351082D01*
X146566197Y-54318370D01*
X146565090Y-54317276D01*
X146259995Y-54012181D01*
X146226510Y-53950858D01*
X146231494Y-53881166D01*
X146273366Y-53825233D01*
X146338830Y-53800816D01*
X146347676Y-53800500D01*
X157581324Y-53800500D01*
X157648363Y-53820185D01*
X157669005Y-53836819D01*
X157920005Y-54087819D01*
X157953490Y-54149142D01*
X157948506Y-54218834D01*
X157906634Y-54274767D01*
X157841170Y-54299184D01*
X157832324Y-54299500D01*
X156555143Y-54299500D01*
X156555117Y-54299502D01*
X156530012Y-54302413D01*
X156530008Y-54302415D01*
X156427235Y-54347793D01*
X156347794Y-54427234D01*
X156302415Y-54530006D01*
X156302415Y-54530008D01*
X156299500Y-54555131D01*
X156299500Y-56444856D01*
X156299502Y-56444882D01*
X156302413Y-56469987D01*
X156302415Y-56469991D01*
X156347793Y-56572764D01*
X156347794Y-56572765D01*
X156427235Y-56652206D01*
X156530009Y-56697585D01*
X156555135Y-56700500D01*
X158444864Y-56700499D01*
X158444879Y-56700497D01*
X158444882Y-56700497D01*
X158469987Y-56697586D01*
X158469988Y-56697585D01*
X158469991Y-56697585D01*
X158572765Y-56652206D01*
X158652206Y-56572765D01*
X158697585Y-56469991D01*
X158700500Y-56444865D01*
X158700499Y-56030418D01*
X158720183Y-55963382D01*
X158772987Y-55917627D01*
X158842146Y-55907683D01*
X158905702Y-55936708D01*
X158935499Y-55975149D01*
X159014938Y-56134683D01*
X159014943Y-56134691D01*
X159149020Y-56312238D01*
X159313437Y-56462123D01*
X159313439Y-56462125D01*
X159375413Y-56500497D01*
X159480777Y-56565736D01*
X159527413Y-56617762D01*
X159539500Y-56671162D01*
X159539500Y-62890199D01*
X159519815Y-62957238D01*
X159467011Y-63002993D01*
X159427666Y-63013601D01*
X159423873Y-63013974D01*
X159235266Y-63071188D01*
X159061467Y-63164086D01*
X159061460Y-63164090D01*
X158909116Y-63289116D01*
X158784090Y-63441460D01*
X158784086Y-63441467D01*
X158691188Y-63615266D01*
X158633975Y-63803870D01*
X158614659Y-64000000D01*
X158633975Y-64196129D01*
X158644568Y-64231050D01*
X158663417Y-64293187D01*
X158691188Y-64384733D01*
X158784086Y-64558532D01*
X158784090Y-64558539D01*
X158909116Y-64710883D01*
X159061460Y-64835909D01*
X159061467Y-64835913D01*
X159235266Y-64928811D01*
X159235269Y-64928811D01*
X159235273Y-64928814D01*
X159423868Y-64986024D01*
X159620000Y-65005341D01*
X159816132Y-64986024D01*
X160004727Y-64928814D01*
X160178538Y-64835910D01*
X160330883Y-64710883D01*
X160455910Y-64558538D01*
X160541053Y-64399247D01*
X160548811Y-64384733D01*
X160548811Y-64384732D01*
X160548814Y-64384727D01*
X160606024Y-64196132D01*
X160625341Y-64000000D01*
X160606024Y-63803868D01*
X160548814Y-63615273D01*
X160548813Y-63615272D01*
X160547046Y-63609445D01*
X160548170Y-63609103D01*
X160540500Y-63570537D01*
X160540500Y-61460000D01*
X171329975Y-61460000D01*
X171350042Y-61714989D01*
X171409752Y-61963702D01*
X171507634Y-62200012D01*
X171507636Y-62200015D01*
X171641277Y-62418098D01*
X171641284Y-62418107D01*
X171644533Y-62421912D01*
X172205884Y-61860560D01*
X172206740Y-61862626D01*
X172299762Y-62001844D01*
X172418156Y-62120238D01*
X172557374Y-62213260D01*
X172559437Y-62214114D01*
X171998087Y-62775465D01*
X172001897Y-62778719D01*
X172219984Y-62912363D01*
X172219987Y-62912365D01*
X172456297Y-63010247D01*
X172705011Y-63069957D01*
X172705010Y-63069957D01*
X172960000Y-63090024D01*
X173214989Y-63069957D01*
X173463702Y-63010247D01*
X173700012Y-62912365D01*
X173700015Y-62912363D01*
X173918095Y-62778724D01*
X173918110Y-62778713D01*
X173921911Y-62775466D01*
X173921911Y-62775464D01*
X173360562Y-62214114D01*
X173362626Y-62213260D01*
X173501844Y-62120238D01*
X173620238Y-62001844D01*
X173713260Y-61862626D01*
X173714114Y-61860562D01*
X174275464Y-62421911D01*
X174275466Y-62421911D01*
X174278713Y-62418110D01*
X174278724Y-62418095D01*
X174412363Y-62200015D01*
X174412365Y-62200012D01*
X174510247Y-61963702D01*
X174569957Y-61714989D01*
X174590024Y-61460000D01*
X176409975Y-61460000D01*
X176430042Y-61714989D01*
X176489752Y-61963702D01*
X176587634Y-62200012D01*
X176587636Y-62200015D01*
X176721277Y-62418098D01*
X176721284Y-62418107D01*
X176724533Y-62421912D01*
X177285884Y-61860560D01*
X177286740Y-61862626D01*
X177379762Y-62001844D01*
X177498156Y-62120238D01*
X177637374Y-62213260D01*
X177639437Y-62214114D01*
X177078087Y-62775465D01*
X177081897Y-62778719D01*
X177299984Y-62912363D01*
X177299987Y-62912365D01*
X177536297Y-63010247D01*
X177785011Y-63069957D01*
X177785010Y-63069957D01*
X178040000Y-63090024D01*
X178294989Y-63069957D01*
X178543702Y-63010247D01*
X178780012Y-62912365D01*
X178780015Y-62912363D01*
X178998095Y-62778724D01*
X178998110Y-62778713D01*
X179001911Y-62775466D01*
X179001911Y-62775464D01*
X178440562Y-62214114D01*
X178442626Y-62213260D01*
X178581844Y-62120238D01*
X178700238Y-62001844D01*
X178793260Y-61862626D01*
X178794114Y-61860561D01*
X179355464Y-62421911D01*
X179355466Y-62421911D01*
X179358713Y-62418110D01*
X179358724Y-62418095D01*
X179492363Y-62200015D01*
X179492365Y-62200012D01*
X179590247Y-61963702D01*
X179649957Y-61714989D01*
X179670024Y-61460000D01*
X179649957Y-61205010D01*
X179590247Y-60956297D01*
X179492365Y-60719987D01*
X179492363Y-60719984D01*
X179358719Y-60501897D01*
X179355465Y-60498087D01*
X178794114Y-61059437D01*
X178793260Y-61057374D01*
X178700238Y-60918156D01*
X178581844Y-60799762D01*
X178442626Y-60706740D01*
X178440561Y-60705884D01*
X179001912Y-60144533D01*
X178998107Y-60141284D01*
X178998098Y-60141277D01*
X178780015Y-60007636D01*
X178780012Y-60007634D01*
X178543702Y-59909752D01*
X178294988Y-59850042D01*
X178294989Y-59850042D01*
X178040000Y-59829975D01*
X177785010Y-59850042D01*
X177536297Y-59909752D01*
X177299987Y-60007634D01*
X177299984Y-60007636D01*
X177081893Y-60141282D01*
X177078086Y-60144532D01*
X177639438Y-60705884D01*
X177637374Y-60706740D01*
X177498156Y-60799762D01*
X177379762Y-60918156D01*
X177286740Y-61057374D01*
X177285884Y-61059438D01*
X176724532Y-60498086D01*
X176721282Y-60501893D01*
X176587636Y-60719984D01*
X176587634Y-60719987D01*
X176489752Y-60956297D01*
X176430042Y-61205010D01*
X176409975Y-61460000D01*
X174590024Y-61460000D01*
X174569957Y-61205010D01*
X174510247Y-60956297D01*
X174412365Y-60719987D01*
X174412363Y-60719984D01*
X174278719Y-60501897D01*
X174275465Y-60498087D01*
X173714114Y-61059437D01*
X173713260Y-61057374D01*
X173620238Y-60918156D01*
X173501844Y-60799762D01*
X173362626Y-60706740D01*
X173360561Y-60705884D01*
X173921912Y-60144533D01*
X173918107Y-60141284D01*
X173918098Y-60141277D01*
X173700015Y-60007636D01*
X173700012Y-60007634D01*
X173463702Y-59909752D01*
X173214988Y-59850042D01*
X173214989Y-59850042D01*
X172960000Y-59829975D01*
X172705010Y-59850042D01*
X172456297Y-59909752D01*
X172219987Y-60007634D01*
X172219984Y-60007636D01*
X172001893Y-60141282D01*
X171998086Y-60144532D01*
X172559438Y-60705884D01*
X172557374Y-60706740D01*
X172418156Y-60799762D01*
X172299762Y-60918156D01*
X172206740Y-61057374D01*
X172205884Y-61059438D01*
X171644532Y-60498086D01*
X171641282Y-60501893D01*
X171507636Y-60719984D01*
X171507634Y-60719987D01*
X171409752Y-60956297D01*
X171350042Y-61205010D01*
X171329975Y-61460000D01*
X160540500Y-61460000D01*
X160540500Y-56671162D01*
X160560185Y-56604123D01*
X160599221Y-56565736D01*
X160766562Y-56462124D01*
X160930981Y-56312236D01*
X161065058Y-56134689D01*
X161164229Y-55935528D01*
X161225115Y-55721536D01*
X161245643Y-55500000D01*
X161225115Y-55278464D01*
X161188403Y-55149435D01*
X161188989Y-55079573D01*
X161219984Y-55027828D01*
X161510996Y-54736816D01*
X161572318Y-54703334D01*
X161598676Y-54700500D01*
X162675500Y-54700500D01*
X162742539Y-54720185D01*
X162788294Y-54772989D01*
X162799500Y-54824500D01*
X162799500Y-56444856D01*
X162799502Y-56444882D01*
X162802413Y-56469987D01*
X162802415Y-56469991D01*
X162847793Y-56572764D01*
X162847794Y-56572765D01*
X162927235Y-56652206D01*
X163030009Y-56697585D01*
X163055135Y-56700500D01*
X164944864Y-56700499D01*
X164944879Y-56700497D01*
X164944882Y-56700497D01*
X164969987Y-56697586D01*
X164969988Y-56697585D01*
X164969991Y-56697585D01*
X165072765Y-56652206D01*
X165152206Y-56572765D01*
X165197585Y-56469991D01*
X165200500Y-56444865D01*
X165200499Y-56030418D01*
X165220183Y-55963382D01*
X165272987Y-55917627D01*
X165342146Y-55907683D01*
X165405702Y-55936708D01*
X165435499Y-55975149D01*
X165514938Y-56134683D01*
X165514943Y-56134691D01*
X165649020Y-56312238D01*
X165813437Y-56462123D01*
X165813439Y-56462125D01*
X166002595Y-56579245D01*
X166002596Y-56579245D01*
X166002599Y-56579247D01*
X166210060Y-56659618D01*
X166428757Y-56700500D01*
X166428759Y-56700500D01*
X166651241Y-56700500D01*
X166651243Y-56700500D01*
X166869940Y-56659618D01*
X167077401Y-56579247D01*
X167266562Y-56462124D01*
X167430981Y-56312236D01*
X167565058Y-56134689D01*
X167664229Y-55935528D01*
X167725115Y-55721536D01*
X167745643Y-55500000D01*
X167725115Y-55278464D01*
X167664229Y-55064472D01*
X167632126Y-55000000D01*
X167565061Y-54865316D01*
X167565056Y-54865308D01*
X167430979Y-54687761D01*
X167266562Y-54537876D01*
X167266560Y-54537874D01*
X167077404Y-54420754D01*
X167077398Y-54420752D01*
X166869940Y-54340382D01*
X166651243Y-54299500D01*
X166428757Y-54299500D01*
X166333665Y-54317276D01*
X166210058Y-54340382D01*
X166210053Y-54340384D01*
X166197559Y-54345224D01*
X166127936Y-54351082D01*
X166066197Y-54318370D01*
X166065090Y-54317276D01*
X165547316Y-53799502D01*
X165547314Y-53799500D01*
X165490250Y-53766554D01*
X165433187Y-53733608D01*
X165369539Y-53716554D01*
X165305892Y-53699500D01*
X161405893Y-53699500D01*
X161274108Y-53699500D01*
X161146812Y-53733608D01*
X161032686Y-53799500D01*
X161032683Y-53799502D01*
X160514908Y-54317276D01*
X160453585Y-54350761D01*
X160383893Y-54345777D01*
X160382432Y-54345221D01*
X160369945Y-54340383D01*
X160369940Y-54340382D01*
X160151243Y-54299500D01*
X159928757Y-54299500D01*
X159833665Y-54317276D01*
X159710058Y-54340382D01*
X159710053Y-54340384D01*
X159697559Y-54345224D01*
X159627936Y-54351082D01*
X159566197Y-54318370D01*
X159565090Y-54317276D01*
X158147316Y-52899502D01*
X158147314Y-52899500D01*
X158111306Y-52878711D01*
X175149500Y-52878711D01*
X175149500Y-53121288D01*
X175181161Y-53361785D01*
X175243947Y-53596104D01*
X175328197Y-53799500D01*
X175336776Y-53820212D01*
X175458064Y-54030289D01*
X175458066Y-54030292D01*
X175458067Y-54030293D01*
X175605733Y-54222736D01*
X175605739Y-54222743D01*
X175777256Y-54394260D01*
X175777263Y-54394266D01*
X175811782Y-54420753D01*
X175969711Y-54541936D01*
X176179788Y-54663224D01*
X176403900Y-54756054D01*
X176638211Y-54818838D01*
X176818586Y-54842584D01*
X176878711Y-54850500D01*
X176878712Y-54850500D01*
X177121289Y-54850500D01*
X177169388Y-54844167D01*
X177361789Y-54818838D01*
X177596100Y-54756054D01*
X177820212Y-54663224D01*
X178030289Y-54541936D01*
X178222738Y-54394265D01*
X178394265Y-54222738D01*
X178541936Y-54030289D01*
X178663224Y-53820212D01*
X178756054Y-53596100D01*
X178818838Y-53361789D01*
X178850500Y-53121288D01*
X178850500Y-52878712D01*
X178818838Y-52638211D01*
X178756054Y-52403900D01*
X178663224Y-52179788D01*
X178541936Y-51969711D01*
X178394265Y-51777262D01*
X178394260Y-51777256D01*
X178222743Y-51605739D01*
X178222736Y-51605733D01*
X178030293Y-51458067D01*
X178030292Y-51458066D01*
X178030289Y-51458064D01*
X177820212Y-51336776D01*
X177820205Y-51336773D01*
X177596104Y-51243947D01*
X177361785Y-51181161D01*
X177121289Y-51149500D01*
X177121288Y-51149500D01*
X176878712Y-51149500D01*
X176878711Y-51149500D01*
X176638214Y-51181161D01*
X176403895Y-51243947D01*
X176179794Y-51336773D01*
X176179785Y-51336777D01*
X175969706Y-51458067D01*
X175777263Y-51605733D01*
X175777256Y-51605739D01*
X175605739Y-51777256D01*
X175605733Y-51777263D01*
X175458067Y-51969706D01*
X175336777Y-52179785D01*
X175336773Y-52179794D01*
X175243947Y-52403895D01*
X175181161Y-52638214D01*
X175149500Y-52878711D01*
X158111306Y-52878711D01*
X158090250Y-52866554D01*
X158033187Y-52833608D01*
X157969539Y-52816554D01*
X157905892Y-52799500D01*
X116265892Y-52799500D01*
X116134107Y-52799500D01*
X116006812Y-52833608D01*
X115892686Y-52899500D01*
X115892683Y-52899502D01*
X110393118Y-58399066D01*
X110331795Y-58432551D01*
X110282652Y-58433274D01*
X110101976Y-58399500D01*
X109898024Y-58399500D01*
X109697544Y-58436976D01*
X109697541Y-58436976D01*
X109697541Y-58436977D01*
X109507364Y-58510651D01*
X109507357Y-58510655D01*
X109333960Y-58618017D01*
X109333958Y-58618019D01*
X109183237Y-58755418D01*
X109060326Y-58918178D01*
X109054055Y-58930774D01*
X109006551Y-58982010D01*
X108943056Y-58999500D01*
X103434107Y-58999500D01*
X103306812Y-59033608D01*
X103192686Y-59099500D01*
X103192683Y-59099502D01*
X102429004Y-59863181D01*
X102367681Y-59896666D01*
X102341323Y-59899500D01*
X101155143Y-59899500D01*
X101155117Y-59899502D01*
X101130012Y-59902413D01*
X101130008Y-59902415D01*
X101027235Y-59947793D01*
X100947794Y-60027234D01*
X100902415Y-60130006D01*
X100902415Y-60130008D01*
X100899500Y-60155131D01*
X100899500Y-61844856D01*
X100899502Y-61844882D01*
X100902413Y-61869987D01*
X100902415Y-61869991D01*
X100947793Y-61972764D01*
X100947794Y-61972765D01*
X101027235Y-62052206D01*
X101130009Y-62097585D01*
X101155135Y-62100500D01*
X101375500Y-62100499D01*
X101442539Y-62120183D01*
X101488294Y-62172987D01*
X101499500Y-62224499D01*
X101499500Y-67059030D01*
X101479815Y-67126069D01*
X101444396Y-67162129D01*
X101441461Y-67164089D01*
X101289116Y-67289116D01*
X101164090Y-67441460D01*
X101164086Y-67441467D01*
X101071188Y-67615266D01*
X101013975Y-67803870D01*
X100994659Y-68000000D01*
X101013975Y-68196129D01*
X101015502Y-68201164D01*
X101062976Y-68357664D01*
X101071188Y-68384733D01*
X101164086Y-68558532D01*
X101164090Y-68558539D01*
X101289116Y-68710883D01*
X101362541Y-68771141D01*
X101441462Y-68835910D01*
X101441466Y-68835912D01*
X101444387Y-68837864D01*
X101445576Y-68839286D01*
X101446171Y-68839775D01*
X101446078Y-68839887D01*
X101489194Y-68891475D01*
X101499500Y-68940969D01*
X101499500Y-70284108D01*
X101499500Y-70415892D01*
X101506939Y-70443656D01*
X101533608Y-70543187D01*
X101566554Y-70600250D01*
X101599500Y-70657314D01*
X101599502Y-70657316D01*
X102542372Y-71600186D01*
X102575857Y-71661509D01*
X102570873Y-71731201D01*
X102542373Y-71775547D01*
X102470185Y-71847736D01*
X102470184Y-71847737D01*
X102374211Y-72000476D01*
X102314631Y-72170745D01*
X102314630Y-72170750D01*
X102299500Y-72305039D01*
X102299500Y-73394960D01*
X102314630Y-73529249D01*
X102314631Y-73529254D01*
X102374211Y-73699523D01*
X102407266Y-73752129D01*
X102470184Y-73852262D01*
X102597738Y-73979816D01*
X102750478Y-74075789D01*
X102920745Y-74135368D01*
X102920750Y-74135369D01*
X103011246Y-74145565D01*
X103055040Y-74150499D01*
X103055043Y-74150500D01*
X103055046Y-74150500D01*
X105944957Y-74150500D01*
X105944958Y-74150499D01*
X106012104Y-74142934D01*
X106079249Y-74135369D01*
X106079252Y-74135368D01*
X106079255Y-74135368D01*
X106249522Y-74075789D01*
X106402262Y-73979816D01*
X106529816Y-73852262D01*
X106625789Y-73699522D01*
X106685368Y-73529255D01*
X106687999Y-73505909D01*
X106700499Y-73394960D01*
X106700500Y-73394956D01*
X106700500Y-72305043D01*
X106700499Y-72305039D01*
X106696971Y-72273730D01*
X106690339Y-72214860D01*
X106685369Y-72170750D01*
X106685368Y-72170745D01*
X106625788Y-72000476D01*
X106586582Y-71938080D01*
X106529816Y-71847738D01*
X106402262Y-71720184D01*
X106249523Y-71624211D01*
X106079254Y-71564631D01*
X106079249Y-71564630D01*
X105944960Y-71549500D01*
X105944954Y-71549500D01*
X103958676Y-71549500D01*
X103891637Y-71529815D01*
X103870995Y-71513181D01*
X102536819Y-70179005D01*
X102503334Y-70117682D01*
X102500500Y-70091324D01*
X102500500Y-68940969D01*
X102520185Y-68873930D01*
X102555613Y-68837864D01*
X102558528Y-68835915D01*
X102558538Y-68835910D01*
X102710883Y-68710883D01*
X102835910Y-68558538D01*
X102928814Y-68384727D01*
X102986024Y-68196132D01*
X103005341Y-68000000D01*
X108614659Y-68000000D01*
X108633975Y-68196129D01*
X108635502Y-68201164D01*
X108682976Y-68357664D01*
X108691188Y-68384733D01*
X108784086Y-68558532D01*
X108784090Y-68558539D01*
X108909116Y-68710883D01*
X108982541Y-68771141D01*
X109061462Y-68835910D01*
X109061466Y-68835912D01*
X109064387Y-68837864D01*
X109065576Y-68839286D01*
X109066171Y-68839775D01*
X109066078Y-68839887D01*
X109109194Y-68891475D01*
X109119500Y-68940969D01*
X109119500Y-72654108D01*
X109119500Y-72785892D01*
X109134622Y-72842328D01*
X109153608Y-72913187D01*
X109179218Y-72957544D01*
X109219500Y-73027314D01*
X112499500Y-76307314D01*
X112592686Y-76400500D01*
X112614063Y-76412842D01*
X112627377Y-76420529D01*
X112664643Y-76453605D01*
X112742452Y-76557544D01*
X112742455Y-76557547D01*
X112857664Y-76643793D01*
X112857671Y-76643797D01*
X112992517Y-76694091D01*
X112992516Y-76694091D01*
X112999444Y-76694835D01*
X113052127Y-76700500D01*
X114747872Y-76700499D01*
X114807483Y-76694091D01*
X114942331Y-76643796D01*
X115057546Y-76557546D01*
X115143796Y-76442331D01*
X115194091Y-76307483D01*
X115200500Y-76247873D01*
X115200499Y-75752128D01*
X115194091Y-75692517D01*
X115143796Y-75557669D01*
X115143795Y-75557668D01*
X115143793Y-75557664D01*
X115057547Y-75442455D01*
X115057544Y-75442452D01*
X114942335Y-75356206D01*
X114942328Y-75356202D01*
X114807482Y-75305908D01*
X114807483Y-75305908D01*
X114747883Y-75299501D01*
X114747881Y-75299500D01*
X114747873Y-75299500D01*
X114747864Y-75299500D01*
X113052129Y-75299500D01*
X113052123Y-75299501D01*
X112984804Y-75306738D01*
X112984558Y-75304453D01*
X112926287Y-75301317D01*
X112879884Y-75272070D01*
X111559941Y-73952127D01*
X112599500Y-73952127D01*
X112599500Y-73952134D01*
X112599500Y-73952135D01*
X112599500Y-74447870D01*
X112599501Y-74447876D01*
X112605908Y-74507483D01*
X112656202Y-74642328D01*
X112656206Y-74642335D01*
X112742452Y-74757544D01*
X112742455Y-74757547D01*
X112857664Y-74843793D01*
X112857671Y-74843797D01*
X112992517Y-74894091D01*
X112992516Y-74894091D01*
X112999444Y-74894835D01*
X113052127Y-74900500D01*
X114747872Y-74900499D01*
X114807483Y-74894091D01*
X114942331Y-74843796D01*
X115057546Y-74757546D01*
X115143796Y-74642331D01*
X115194091Y-74507483D01*
X115200500Y-74447873D01*
X115200499Y-73952128D01*
X115194091Y-73892517D01*
X115179919Y-73854521D01*
X115143797Y-73757671D01*
X115143793Y-73757664D01*
X115057547Y-73642455D01*
X115057544Y-73642452D01*
X114942335Y-73556206D01*
X114942328Y-73556202D01*
X114807482Y-73505908D01*
X114807483Y-73505908D01*
X114747883Y-73499501D01*
X114747881Y-73499500D01*
X114747873Y-73499500D01*
X114747864Y-73499500D01*
X113052129Y-73499500D01*
X113052123Y-73499501D01*
X112992516Y-73505908D01*
X112857671Y-73556202D01*
X112857664Y-73556206D01*
X112742455Y-73642452D01*
X112742452Y-73642455D01*
X112656206Y-73757664D01*
X112656202Y-73757671D01*
X112611782Y-73876770D01*
X112605909Y-73892517D01*
X112599500Y-73952127D01*
X111559941Y-73952127D01*
X110156819Y-72549005D01*
X110123334Y-72487682D01*
X110120500Y-72461324D01*
X110120500Y-72152127D01*
X112599500Y-72152127D01*
X112599500Y-72152134D01*
X112599500Y-72152135D01*
X112599500Y-72647870D01*
X112599501Y-72647876D01*
X112605908Y-72707483D01*
X112656202Y-72842328D01*
X112656206Y-72842335D01*
X112742452Y-72957544D01*
X112742455Y-72957547D01*
X112857664Y-73043793D01*
X112857671Y-73043797D01*
X112992517Y-73094091D01*
X112992516Y-73094091D01*
X112999444Y-73094835D01*
X113052127Y-73100500D01*
X114747872Y-73100499D01*
X114807483Y-73094091D01*
X114942331Y-73043796D01*
X115057546Y-72957546D01*
X115143796Y-72842331D01*
X115194091Y-72707483D01*
X115200500Y-72647873D01*
X115200499Y-72152128D01*
X115194091Y-72092517D01*
X115156857Y-71992688D01*
X115143797Y-71957671D01*
X115143793Y-71957664D01*
X115057547Y-71842455D01*
X115057544Y-71842452D01*
X114942335Y-71756206D01*
X114942328Y-71756202D01*
X114807482Y-71705908D01*
X114807483Y-71705908D01*
X114747883Y-71699501D01*
X114747881Y-71699500D01*
X114747873Y-71699500D01*
X114747864Y-71699500D01*
X113052129Y-71699500D01*
X113052123Y-71699501D01*
X112992516Y-71705908D01*
X112857671Y-71756202D01*
X112857664Y-71756206D01*
X112742455Y-71842452D01*
X112742452Y-71842455D01*
X112656206Y-71957664D01*
X112656202Y-71957671D01*
X112605910Y-72092513D01*
X112605909Y-72092517D01*
X112599500Y-72152127D01*
X110120500Y-72152127D01*
X110120500Y-70352127D01*
X112599500Y-70352127D01*
X112599500Y-70352134D01*
X112599500Y-70352135D01*
X112599500Y-70847870D01*
X112599501Y-70847876D01*
X112605908Y-70907483D01*
X112656202Y-71042328D01*
X112656206Y-71042335D01*
X112742452Y-71157544D01*
X112742455Y-71157547D01*
X112857664Y-71243793D01*
X112857671Y-71243797D01*
X112992517Y-71294091D01*
X112992516Y-71294091D01*
X112999444Y-71294835D01*
X113052127Y-71300500D01*
X114747872Y-71300499D01*
X114807483Y-71294091D01*
X114942331Y-71243796D01*
X115057546Y-71157546D01*
X115143796Y-71042331D01*
X115194091Y-70907483D01*
X115200500Y-70847873D01*
X115200499Y-70352128D01*
X115194091Y-70292517D01*
X115180948Y-70257280D01*
X115143797Y-70157671D01*
X115143793Y-70157664D01*
X115057547Y-70042455D01*
X115057544Y-70042452D01*
X114942335Y-69956206D01*
X114942328Y-69956202D01*
X114807482Y-69905908D01*
X114807483Y-69905908D01*
X114747883Y-69899501D01*
X114747881Y-69899500D01*
X114747873Y-69899500D01*
X114747864Y-69899500D01*
X113052129Y-69899500D01*
X113052123Y-69899501D01*
X112992516Y-69905908D01*
X112857671Y-69956202D01*
X112857664Y-69956206D01*
X112742455Y-70042452D01*
X112742452Y-70042455D01*
X112656206Y-70157664D01*
X112656202Y-70157671D01*
X112609045Y-70284108D01*
X112605909Y-70292517D01*
X112599500Y-70352127D01*
X110120500Y-70352127D01*
X110120500Y-68940969D01*
X110140185Y-68873930D01*
X110175613Y-68837864D01*
X110178528Y-68835915D01*
X110178538Y-68835910D01*
X110330883Y-68710883D01*
X110455910Y-68558538D01*
X110459337Y-68552127D01*
X112599500Y-68552127D01*
X112599500Y-68552134D01*
X112599500Y-68552135D01*
X112599500Y-69047870D01*
X112599501Y-69047876D01*
X112605908Y-69107483D01*
X112656202Y-69242328D01*
X112656206Y-69242335D01*
X112742452Y-69357544D01*
X112742455Y-69357547D01*
X112857664Y-69443793D01*
X112857671Y-69443797D01*
X112992517Y-69494091D01*
X112992516Y-69494091D01*
X112999444Y-69494835D01*
X113052127Y-69500500D01*
X114747872Y-69500499D01*
X114807483Y-69494091D01*
X114942331Y-69443796D01*
X115057546Y-69357546D01*
X115143796Y-69242331D01*
X115194091Y-69107483D01*
X115200500Y-69047873D01*
X115200499Y-68552128D01*
X115194091Y-68492517D01*
X115143796Y-68357669D01*
X115143795Y-68357668D01*
X115143793Y-68357664D01*
X115057547Y-68242455D01*
X115057544Y-68242452D01*
X114942335Y-68156206D01*
X114942328Y-68156202D01*
X114807482Y-68105908D01*
X114807483Y-68105908D01*
X114747883Y-68099501D01*
X114747881Y-68099500D01*
X114747873Y-68099500D01*
X114747864Y-68099500D01*
X113052129Y-68099500D01*
X113052123Y-68099501D01*
X112992516Y-68105908D01*
X112857671Y-68156202D01*
X112857664Y-68156206D01*
X112742455Y-68242452D01*
X112742452Y-68242455D01*
X112656206Y-68357664D01*
X112656202Y-68357671D01*
X112622759Y-68447339D01*
X112605909Y-68492517D01*
X112599500Y-68552127D01*
X110459337Y-68552127D01*
X110548814Y-68384727D01*
X110606024Y-68196132D01*
X110625341Y-68000000D01*
X110606024Y-67803868D01*
X110548814Y-67615273D01*
X110548811Y-67615269D01*
X110548811Y-67615266D01*
X110455913Y-67441467D01*
X110455909Y-67441460D01*
X110330883Y-67289116D01*
X110178539Y-67164090D01*
X110178532Y-67164086D01*
X110004733Y-67071188D01*
X110004727Y-67071186D01*
X109816132Y-67013976D01*
X109816129Y-67013975D01*
X109620000Y-66994659D01*
X109423870Y-67013975D01*
X109235266Y-67071188D01*
X109061467Y-67164086D01*
X109061460Y-67164090D01*
X108909116Y-67289116D01*
X108784090Y-67441460D01*
X108784086Y-67441467D01*
X108691188Y-67615266D01*
X108633975Y-67803870D01*
X108614659Y-68000000D01*
X103005341Y-68000000D01*
X102986024Y-67803868D01*
X102928814Y-67615273D01*
X102928811Y-67615269D01*
X102928811Y-67615266D01*
X102835913Y-67441467D01*
X102835909Y-67441460D01*
X102710883Y-67289116D01*
X102558538Y-67164089D01*
X102555604Y-67162129D01*
X102554413Y-67160704D01*
X102553829Y-67160225D01*
X102553920Y-67160113D01*
X102510802Y-67108514D01*
X102500500Y-67059030D01*
X102500500Y-62224499D01*
X102520185Y-62157460D01*
X102572989Y-62111705D01*
X102624500Y-62100499D01*
X102844856Y-62100499D01*
X102844864Y-62100499D01*
X102844879Y-62100497D01*
X102844882Y-62100497D01*
X102869987Y-62097586D01*
X102869988Y-62097585D01*
X102869991Y-62097585D01*
X102972765Y-62052206D01*
X103052206Y-61972765D01*
X103097585Y-61869991D01*
X103100500Y-61844865D01*
X103100499Y-61634151D01*
X103120183Y-61567114D01*
X103172987Y-61521359D01*
X103242145Y-61511415D01*
X103305701Y-61540440D01*
X103336881Y-61581748D01*
X103369864Y-61652480D01*
X103420974Y-61725472D01*
X104100000Y-61046446D01*
X104100000Y-61052661D01*
X104127259Y-61154394D01*
X104179920Y-61245606D01*
X104254394Y-61320080D01*
X104345606Y-61372741D01*
X104447339Y-61400000D01*
X104453553Y-61400000D01*
X103774526Y-62079025D01*
X103847513Y-62130132D01*
X103847521Y-62130136D01*
X104053668Y-62226264D01*
X104053682Y-62226269D01*
X104273389Y-62285139D01*
X104273400Y-62285141D01*
X104499998Y-62304966D01*
X104500002Y-62304966D01*
X104726599Y-62285141D01*
X104726610Y-62285139D01*
X104946317Y-62226269D01*
X104946331Y-62226264D01*
X105152478Y-62130136D01*
X105225471Y-62079024D01*
X104546447Y-61400000D01*
X104552661Y-61400000D01*
X104654394Y-61372741D01*
X104745606Y-61320080D01*
X104820080Y-61245606D01*
X104872741Y-61154394D01*
X104900000Y-61052661D01*
X104900000Y-61046447D01*
X105579024Y-61725471D01*
X105630136Y-61652478D01*
X105726264Y-61446331D01*
X105726269Y-61446317D01*
X105785139Y-61226610D01*
X105785141Y-61226599D01*
X105804966Y-61000002D01*
X105804966Y-60999997D01*
X105785141Y-60773400D01*
X105785139Y-60773389D01*
X105726269Y-60553682D01*
X105726265Y-60553673D01*
X105630134Y-60347517D01*
X105523776Y-60195624D01*
X105501449Y-60129418D01*
X105518459Y-60061650D01*
X105569407Y-60013837D01*
X105625351Y-60000500D01*
X108943056Y-60000500D01*
X109010095Y-60020185D01*
X109054055Y-60069226D01*
X109060326Y-60081821D01*
X109183237Y-60244581D01*
X109333955Y-60381978D01*
X109333957Y-60381979D01*
X109333959Y-60381981D01*
X109440779Y-60448121D01*
X109487413Y-60500146D01*
X109499500Y-60553546D01*
X109499500Y-64165891D01*
X109533608Y-64293187D01*
X109544158Y-64311459D01*
X109599500Y-64407314D01*
X109599501Y-64407315D01*
X109599502Y-64407316D01*
X112495159Y-67302972D01*
X112495169Y-67302983D01*
X112499499Y-67307313D01*
X112499500Y-67307314D01*
X112592686Y-67400500D01*
X112623894Y-67418518D01*
X112627377Y-67420529D01*
X112664643Y-67453605D01*
X112742452Y-67557544D01*
X112742455Y-67557547D01*
X112857664Y-67643793D01*
X112857671Y-67643797D01*
X112992517Y-67694091D01*
X112992516Y-67694091D01*
X112999444Y-67694835D01*
X113052127Y-67700500D01*
X114747872Y-67700499D01*
X114807483Y-67694091D01*
X114942331Y-67643796D01*
X115057546Y-67557546D01*
X115143796Y-67442331D01*
X115194091Y-67307483D01*
X115200500Y-67247873D01*
X115200499Y-66752128D01*
X115194091Y-66692517D01*
X115143796Y-66557669D01*
X115143795Y-66557668D01*
X115143793Y-66557664D01*
X115057547Y-66442455D01*
X115057544Y-66442452D01*
X114942335Y-66356206D01*
X114942328Y-66356202D01*
X114807482Y-66305908D01*
X114807483Y-66305908D01*
X114747883Y-66299501D01*
X114747881Y-66299500D01*
X114747873Y-66299500D01*
X114747864Y-66299500D01*
X113052129Y-66299500D01*
X113052123Y-66299501D01*
X112984804Y-66306738D01*
X112984558Y-66304453D01*
X112926279Y-66301314D01*
X112879883Y-66272070D01*
X111708746Y-65100933D01*
X110536819Y-63929005D01*
X110503334Y-63867682D01*
X110500500Y-63841324D01*
X110500500Y-60553546D01*
X110520185Y-60486507D01*
X110559218Y-60448122D01*
X110666041Y-60381981D01*
X110816764Y-60244579D01*
X110939673Y-60081821D01*
X111015862Y-59928812D01*
X111033138Y-59894118D01*
X111034763Y-59894927D01*
X111072258Y-59846102D01*
X111138017Y-59822491D01*
X111206103Y-59838180D01*
X111254898Y-59888188D01*
X111265118Y-59914178D01*
X111273729Y-59946314D01*
X111273735Y-59946331D01*
X111369863Y-60152478D01*
X111420974Y-60225472D01*
X112100000Y-59546446D01*
X112100000Y-59552661D01*
X112127259Y-59654394D01*
X112179920Y-59745606D01*
X112254394Y-59820080D01*
X112345606Y-59872741D01*
X112447339Y-59900000D01*
X112453553Y-59900000D01*
X111774526Y-60579025D01*
X111847513Y-60630132D01*
X111847521Y-60630136D01*
X112053668Y-60726264D01*
X112053682Y-60726269D01*
X112273389Y-60785139D01*
X112273400Y-60785141D01*
X112499998Y-60804966D01*
X112500002Y-60804966D01*
X112726599Y-60785141D01*
X112726610Y-60785139D01*
X112946317Y-60726269D01*
X112946331Y-60726264D01*
X113152478Y-60630136D01*
X113225471Y-60579024D01*
X112546447Y-59900000D01*
X112552661Y-59900000D01*
X112654394Y-59872741D01*
X112745606Y-59820080D01*
X112820080Y-59745606D01*
X112872741Y-59654394D01*
X112900000Y-59552661D01*
X112900000Y-59546447D01*
X113579024Y-60225471D01*
X113630136Y-60152478D01*
X113726264Y-59946331D01*
X113726269Y-59946317D01*
X113785139Y-59726610D01*
X113785141Y-59726599D01*
X113804966Y-59500002D01*
X113804966Y-59499997D01*
X113785141Y-59273400D01*
X113785139Y-59273389D01*
X113726269Y-59053682D01*
X113726264Y-59053668D01*
X113701238Y-59000000D01*
X119494659Y-59000000D01*
X119513975Y-59196129D01*
X119571188Y-59384733D01*
X119664086Y-59558532D01*
X119664090Y-59558539D01*
X119789116Y-59710883D01*
X119941460Y-59835909D01*
X119941467Y-59835913D01*
X120115266Y-59928811D01*
X120115269Y-59928811D01*
X120115273Y-59928814D01*
X120303868Y-59986024D01*
X120500000Y-60005341D01*
X120696132Y-59986024D01*
X120884727Y-59928814D01*
X120896920Y-59922297D01*
X120989632Y-59872741D01*
X121058538Y-59835910D01*
X121210883Y-59710883D01*
X121335910Y-59558538D01*
X121428814Y-59384727D01*
X121486024Y-59196132D01*
X121505341Y-59000000D01*
X127114659Y-59000000D01*
X127133975Y-59196129D01*
X127191188Y-59384733D01*
X127284086Y-59558532D01*
X127284090Y-59558539D01*
X127409116Y-59710883D01*
X127561460Y-59835909D01*
X127561467Y-59835913D01*
X127735266Y-59928811D01*
X127735269Y-59928811D01*
X127735273Y-59928814D01*
X127923868Y-59986024D01*
X128120000Y-60005341D01*
X128316132Y-59986024D01*
X128504727Y-59928814D01*
X128516920Y-59922297D01*
X128609632Y-59872741D01*
X128678538Y-59835910D01*
X128830883Y-59710883D01*
X128955910Y-59558538D01*
X129048814Y-59384727D01*
X129106024Y-59196132D01*
X129125341Y-59000000D01*
X129106024Y-58803868D01*
X129048814Y-58615273D01*
X129048811Y-58615269D01*
X129048811Y-58615266D01*
X128955913Y-58441467D01*
X128955909Y-58441460D01*
X128830883Y-58289116D01*
X128678539Y-58164090D01*
X128678532Y-58164086D01*
X128504733Y-58071188D01*
X128504727Y-58071186D01*
X128316132Y-58013976D01*
X128316129Y-58013975D01*
X128120000Y-57994659D01*
X127923870Y-58013975D01*
X127735266Y-58071188D01*
X127561467Y-58164086D01*
X127561460Y-58164090D01*
X127409116Y-58289116D01*
X127284090Y-58441460D01*
X127284086Y-58441467D01*
X127191188Y-58615266D01*
X127133975Y-58803870D01*
X127114659Y-59000000D01*
X121505341Y-59000000D01*
X121486024Y-58803868D01*
X121428814Y-58615273D01*
X121428811Y-58615269D01*
X121428811Y-58615266D01*
X121335913Y-58441467D01*
X121335909Y-58441460D01*
X121210883Y-58289116D01*
X121058539Y-58164090D01*
X121058532Y-58164086D01*
X120884733Y-58071188D01*
X120884727Y-58071186D01*
X120696132Y-58013976D01*
X120696129Y-58013975D01*
X120500000Y-57994659D01*
X120303870Y-58013975D01*
X120115266Y-58071188D01*
X119941467Y-58164086D01*
X119941460Y-58164090D01*
X119789116Y-58289116D01*
X119664090Y-58441460D01*
X119664086Y-58441467D01*
X119571188Y-58615266D01*
X119513975Y-58803870D01*
X119494659Y-59000000D01*
X113701238Y-59000000D01*
X113630136Y-58847521D01*
X113630132Y-58847513D01*
X113579025Y-58774526D01*
X112900000Y-59453551D01*
X112900000Y-59447339D01*
X112872741Y-59345606D01*
X112820080Y-59254394D01*
X112745606Y-59179920D01*
X112654394Y-59127259D01*
X112552661Y-59100000D01*
X112546446Y-59100000D01*
X113225472Y-58420974D01*
X113152478Y-58369863D01*
X112946331Y-58273735D01*
X112946317Y-58273730D01*
X112726610Y-58214860D01*
X112726599Y-58214858D01*
X112500002Y-58195034D01*
X112499998Y-58195034D01*
X112305454Y-58212054D01*
X112236954Y-58198287D01*
X112186771Y-58149672D01*
X112170838Y-58081643D01*
X112194214Y-58015800D01*
X112206953Y-58000860D01*
X116370995Y-53836819D01*
X116432318Y-53803334D01*
X116458676Y-53800500D01*
X120171665Y-53800500D01*
X120238704Y-53820185D01*
X120284459Y-53872989D01*
X120294403Y-53942147D01*
X120265378Y-54005703D01*
X120207663Y-54043159D01*
X120128232Y-54067254D01*
X120115266Y-54071188D01*
X119941467Y-54164086D01*
X119941460Y-54164090D01*
X119789116Y-54289116D01*
X119664090Y-54441460D01*
X119664086Y-54441467D01*
X119571188Y-54615266D01*
X119513975Y-54803870D01*
X119494659Y-55000000D01*
X119513975Y-55196129D01*
X119571188Y-55384733D01*
X119664086Y-55558532D01*
X119664090Y-55558539D01*
X119789116Y-55710883D01*
X119941460Y-55835909D01*
X119941467Y-55835913D01*
X120115266Y-55928811D01*
X120115269Y-55928811D01*
X120115273Y-55928814D01*
X120303868Y-55986024D01*
X120500000Y-56005341D01*
X120696132Y-55986024D01*
X120699581Y-55985338D01*
X120701424Y-55985502D01*
X120702195Y-55985427D01*
X120702209Y-55985573D01*
X120769173Y-55991562D01*
X120811459Y-56019273D01*
X121199500Y-56407314D01*
X121292686Y-56500500D01*
X121406814Y-56566392D01*
X121534108Y-56600500D01*
X130263324Y-56600500D01*
X130330363Y-56620185D01*
X130351005Y-56636819D01*
X131504733Y-57790547D01*
X131538218Y-57851870D01*
X131533234Y-57921562D01*
X131491362Y-57977495D01*
X131429206Y-58001631D01*
X131303870Y-58013975D01*
X131115266Y-58071188D01*
X130941467Y-58164086D01*
X130941460Y-58164090D01*
X130789116Y-58289116D01*
X130664090Y-58441460D01*
X130664086Y-58441467D01*
X130571188Y-58615266D01*
X130513975Y-58803870D01*
X130494659Y-59000000D01*
X130513975Y-59196129D01*
X130571188Y-59384733D01*
X130664086Y-59558532D01*
X130664090Y-59558539D01*
X130789116Y-59710883D01*
X130941460Y-59835909D01*
X130941467Y-59835913D01*
X131115266Y-59928811D01*
X131115269Y-59928811D01*
X131115273Y-59928814D01*
X131303868Y-59986024D01*
X131500000Y-60005341D01*
X131696132Y-59986024D01*
X131884727Y-59928814D01*
X131917046Y-59911538D01*
X131985449Y-59897297D01*
X132050693Y-59922297D01*
X132092064Y-59978602D01*
X132099500Y-60020897D01*
X132099500Y-77392108D01*
X132099500Y-77523892D01*
X132107066Y-77552128D01*
X132133608Y-77651187D01*
X132158221Y-77693817D01*
X132199500Y-77765314D01*
X132199502Y-77765316D01*
X134128533Y-79694347D01*
X134162018Y-79755670D01*
X134157034Y-79825362D01*
X134115162Y-79881295D01*
X134049698Y-79905712D01*
X134040852Y-79906028D01*
X116865203Y-79906028D01*
X116798164Y-79886343D01*
X116777522Y-79869709D01*
X115201869Y-78294055D01*
X115168384Y-78232732D01*
X115173367Y-78163043D01*
X115194091Y-78107483D01*
X115200500Y-78047873D01*
X115200499Y-77552128D01*
X115194091Y-77492517D01*
X115143796Y-77357669D01*
X115143795Y-77357668D01*
X115143793Y-77357664D01*
X115057547Y-77242455D01*
X115057544Y-77242452D01*
X114942335Y-77156206D01*
X114942328Y-77156202D01*
X114807482Y-77105908D01*
X114807483Y-77105908D01*
X114747883Y-77099501D01*
X114747881Y-77099500D01*
X114747873Y-77099500D01*
X114085057Y-77099500D01*
X114085056Y-77099500D01*
X113914944Y-77099500D01*
X113914942Y-77099500D01*
X113052129Y-77099500D01*
X113052123Y-77099501D01*
X112992516Y-77105908D01*
X112857671Y-77156202D01*
X112857664Y-77156206D01*
X112742455Y-77242452D01*
X112742452Y-77242455D01*
X112656206Y-77357664D01*
X112656202Y-77357671D01*
X112605910Y-77492513D01*
X112605909Y-77492517D01*
X112599500Y-77552127D01*
X112599500Y-77552134D01*
X112599500Y-77552135D01*
X112599500Y-78047870D01*
X112599501Y-78047876D01*
X112605908Y-78107483D01*
X112656202Y-78242328D01*
X112656206Y-78242335D01*
X112742452Y-78357544D01*
X112742455Y-78357547D01*
X112857664Y-78443793D01*
X112857671Y-78443797D01*
X112992517Y-78494091D01*
X112992516Y-78494091D01*
X112996321Y-78494500D01*
X113052127Y-78500500D01*
X113904941Y-78500499D01*
X113904955Y-78500500D01*
X113914944Y-78500500D01*
X113941324Y-78500500D01*
X114008363Y-78520185D01*
X114029005Y-78536819D01*
X114180005Y-78687819D01*
X114213490Y-78749142D01*
X114208506Y-78818834D01*
X114166634Y-78874767D01*
X114101170Y-78899184D01*
X114092324Y-78899500D01*
X113052129Y-78899500D01*
X113052123Y-78899501D01*
X112992516Y-78905908D01*
X112857671Y-78956202D01*
X112857664Y-78956206D01*
X112742455Y-79042452D01*
X112742452Y-79042455D01*
X112656206Y-79157664D01*
X112656202Y-79157671D01*
X112605910Y-79292513D01*
X112605909Y-79292517D01*
X112599500Y-79352127D01*
X112599500Y-79352134D01*
X112599500Y-79352135D01*
X112599500Y-79847870D01*
X112599501Y-79847876D01*
X112605908Y-79907483D01*
X112656202Y-80042328D01*
X112656206Y-80042335D01*
X112742452Y-80157544D01*
X112742455Y-80157547D01*
X112857664Y-80243793D01*
X112857671Y-80243797D01*
X112992517Y-80294091D01*
X112992516Y-80294091D01*
X112999444Y-80294835D01*
X113052127Y-80300500D01*
X113904941Y-80300499D01*
X113904955Y-80300500D01*
X113914944Y-80300500D01*
X113941324Y-80300500D01*
X114008363Y-80320185D01*
X114029005Y-80336819D01*
X114180005Y-80487819D01*
X114213490Y-80549142D01*
X114208506Y-80618834D01*
X114166634Y-80674767D01*
X114101170Y-80699184D01*
X114092324Y-80699500D01*
X113052129Y-80699500D01*
X113052123Y-80699501D01*
X112992516Y-80705908D01*
X112857671Y-80756202D01*
X112857664Y-80756206D01*
X112742457Y-80842451D01*
X112742451Y-80842457D01*
X112736948Y-80849809D01*
X112681015Y-80891681D01*
X112637680Y-80899500D01*
X111858676Y-80899500D01*
X111791637Y-80879815D01*
X111770995Y-80863181D01*
X107089109Y-76181295D01*
X107089107Y-76181293D01*
X107032043Y-76148347D01*
X106974980Y-76115401D01*
X106911332Y-76098347D01*
X106847685Y-76081293D01*
X106847684Y-76081293D01*
X89467333Y-76081293D01*
X89405333Y-76064680D01*
X89055469Y-75862686D01*
X88327603Y-75442452D01*
X85895770Y-74038432D01*
X85847554Y-73987865D01*
X85833770Y-73931045D01*
X85833770Y-68087406D01*
X85853455Y-68020367D01*
X85870089Y-67999725D01*
X89914788Y-63955026D01*
X89976111Y-63921541D01*
X90002469Y-63918707D01*
X92532667Y-63918707D01*
X92594666Y-63935319D01*
X96271969Y-66058411D01*
X96295186Y-66068450D01*
X96406881Y-66080538D01*
X96515399Y-66051461D01*
X96606085Y-65985145D01*
X96621173Y-65964843D01*
X97916037Y-63722071D01*
X97926076Y-63698854D01*
X97938164Y-63587159D01*
X97909087Y-63478641D01*
X97885343Y-63446171D01*
X97842772Y-63387955D01*
X97822472Y-63372869D01*
X97756394Y-63334719D01*
X95535016Y-62052206D01*
X93328042Y-60778009D01*
X93328029Y-60778002D01*
X93317360Y-60773389D01*
X93304814Y-60767964D01*
X93304813Y-60767963D01*
X93304811Y-60767963D01*
X93193119Y-60755876D01*
X93193117Y-60755876D01*
X93084600Y-60784953D01*
X92993915Y-60851267D01*
X92978829Y-60871567D01*
X92434974Y-61813553D01*
X91879615Y-62775465D01*
X91833287Y-62855707D01*
X91782720Y-62903923D01*
X91725900Y-62917707D01*
X89677900Y-62917707D01*
X89605987Y-62936975D01*
X89605987Y-62936976D01*
X89550607Y-62951815D01*
X89550606Y-62951815D01*
X89550604Y-62951816D01*
X89436479Y-63017707D01*
X89436476Y-63017709D01*
X84932772Y-67521413D01*
X84932770Y-67521416D01*
X84866878Y-67635542D01*
X84832770Y-67762838D01*
X84832770Y-74780956D01*
X84856078Y-74867947D01*
X84854414Y-74937797D01*
X84843690Y-74962039D01*
X84083969Y-76277917D01*
X84083962Y-76277930D01*
X84073923Y-76301148D01*
X84061836Y-76412840D01*
X80000000Y-76412840D01*
X80000000Y-52878711D01*
X81149500Y-52878711D01*
X81149500Y-53121288D01*
X81181161Y-53361785D01*
X81243947Y-53596104D01*
X81328197Y-53799500D01*
X81336776Y-53820212D01*
X81458064Y-54030289D01*
X81458066Y-54030292D01*
X81458067Y-54030293D01*
X81605733Y-54222736D01*
X81605739Y-54222743D01*
X81777256Y-54394260D01*
X81777263Y-54394266D01*
X81811782Y-54420753D01*
X81969711Y-54541936D01*
X82179788Y-54663224D01*
X82403900Y-54756054D01*
X82638211Y-54818838D01*
X82818586Y-54842584D01*
X82878711Y-54850500D01*
X82878712Y-54850500D01*
X83121289Y-54850500D01*
X83169388Y-54844167D01*
X83361789Y-54818838D01*
X83596100Y-54756054D01*
X83820212Y-54663224D01*
X84030289Y-54541936D01*
X84222738Y-54394265D01*
X84394265Y-54222738D01*
X84541936Y-54030289D01*
X84663224Y-53820212D01*
X84756054Y-53596100D01*
X84818838Y-53361789D01*
X84850500Y-53121288D01*
X84850500Y-52878712D01*
X84818838Y-52638211D01*
X84756054Y-52403900D01*
X84663224Y-52179788D01*
X84541936Y-51969711D01*
X84394265Y-51777262D01*
X84394260Y-51777256D01*
X84222743Y-51605739D01*
X84222736Y-51605733D01*
X84030293Y-51458067D01*
X84030292Y-51458066D01*
X84030289Y-51458064D01*
X83820212Y-51336776D01*
X83820205Y-51336773D01*
X83596104Y-51243947D01*
X83361785Y-51181161D01*
X83121289Y-51149500D01*
X83121288Y-51149500D01*
X82878712Y-51149500D01*
X82878711Y-51149500D01*
X82638214Y-51181161D01*
X82403895Y-51243947D01*
X82179794Y-51336773D01*
X82179785Y-51336777D01*
X81969706Y-51458067D01*
X81777263Y-51605733D01*
X81777256Y-51605739D01*
X81605739Y-51777256D01*
X81605733Y-51777263D01*
X81458067Y-51969706D01*
X81336777Y-52179785D01*
X81336773Y-52179794D01*
X81243947Y-52403895D01*
X81181161Y-52638214D01*
X81149500Y-52878711D01*
X80000000Y-52878711D01*
X80000000Y-50124000D01*
X80019685Y-50056961D01*
X80072489Y-50011206D01*
X80124000Y-50000000D01*
X179876000Y-50000000D01*
X179943039Y-50019685D01*
G37*
%TD.AperFunction*%
%TD*%
M02*
