%TF.GenerationSoftware,KiCad,Pcbnew,8.0.3*%
%TF.CreationDate,2024-06-21T15:34:52+08:00*%
%TF.ProjectId,pcb,7063622e-6b69-4636-9164-5f7063625858,rev?*%
%TF.SameCoordinates,Original*%
%TF.FileFunction,Drillmap*%
%TF.FilePolarity,Positive*%
%FSLAX45Y45*%
G04 Gerber Fmt 4.5, Leading zero omitted, Abs format (unit mm)*
G04 Created by KiCad (PCBNEW 8.0.3) date 2024-06-21 15:34:52*
%MOMM*%
%LPD*%
G01*
G04 APERTURE LIST*
%ADD10C,0.100000*%
%ADD11C,0.200000*%
%ADD12C,0.320000*%
G04 APERTURE END LIST*
D10*
X8000000Y-5000000D02*
X18000000Y-5000000D01*
X18000000Y-10000000D01*
X8000000Y-10000000D01*
X8000000Y-5000000D01*
D11*
D12*
X8140000Y-5140000D02*
X8460000Y-5460000D01*
X8460000Y-5140000D02*
X8140000Y-5460000D01*
X8140000Y-9540000D02*
X8460000Y-9860000D01*
X8460000Y-9540000D02*
X8140000Y-9860000D01*
X17540000Y-5140000D02*
X17860000Y-5460000D01*
X17860000Y-5140000D02*
X17540000Y-5460000D01*
X17540000Y-9540000D02*
X17860000Y-9860000D01*
X17860000Y-9540000D02*
X17540000Y-9860000D01*
D11*
X8255777Y-10316484D02*
X8255777Y-10116484D01*
X8255777Y-10116484D02*
X8303396Y-10116484D01*
X8303396Y-10116484D02*
X8331967Y-10126008D01*
X8331967Y-10126008D02*
X8351015Y-10145055D01*
X8351015Y-10145055D02*
X8360539Y-10164103D01*
X8360539Y-10164103D02*
X8370062Y-10202198D01*
X8370062Y-10202198D02*
X8370062Y-10230770D01*
X8370062Y-10230770D02*
X8360539Y-10268865D01*
X8360539Y-10268865D02*
X8351015Y-10287912D01*
X8351015Y-10287912D02*
X8331967Y-10306960D01*
X8331967Y-10306960D02*
X8303396Y-10316484D01*
X8303396Y-10316484D02*
X8255777Y-10316484D01*
X8455777Y-10316484D02*
X8455777Y-10183150D01*
X8455777Y-10221246D02*
X8465301Y-10202198D01*
X8465301Y-10202198D02*
X8474824Y-10192674D01*
X8474824Y-10192674D02*
X8493872Y-10183150D01*
X8493872Y-10183150D02*
X8512920Y-10183150D01*
X8579586Y-10316484D02*
X8579586Y-10183150D01*
X8579586Y-10116484D02*
X8570063Y-10126008D01*
X8570063Y-10126008D02*
X8579586Y-10135531D01*
X8579586Y-10135531D02*
X8589110Y-10126008D01*
X8589110Y-10126008D02*
X8579586Y-10116484D01*
X8579586Y-10116484D02*
X8579586Y-10135531D01*
X8703396Y-10316484D02*
X8684348Y-10306960D01*
X8684348Y-10306960D02*
X8674824Y-10287912D01*
X8674824Y-10287912D02*
X8674824Y-10116484D01*
X8808158Y-10316484D02*
X8789110Y-10306960D01*
X8789110Y-10306960D02*
X8779586Y-10287912D01*
X8779586Y-10287912D02*
X8779586Y-10116484D01*
X9036729Y-10316484D02*
X9036729Y-10116484D01*
X9036729Y-10116484D02*
X9103396Y-10259341D01*
X9103396Y-10259341D02*
X9170063Y-10116484D01*
X9170063Y-10116484D02*
X9170063Y-10316484D01*
X9351015Y-10316484D02*
X9351015Y-10211722D01*
X9351015Y-10211722D02*
X9341491Y-10192674D01*
X9341491Y-10192674D02*
X9322444Y-10183150D01*
X9322444Y-10183150D02*
X9284348Y-10183150D01*
X9284348Y-10183150D02*
X9265301Y-10192674D01*
X9351015Y-10306960D02*
X9331967Y-10316484D01*
X9331967Y-10316484D02*
X9284348Y-10316484D01*
X9284348Y-10316484D02*
X9265301Y-10306960D01*
X9265301Y-10306960D02*
X9255777Y-10287912D01*
X9255777Y-10287912D02*
X9255777Y-10268865D01*
X9255777Y-10268865D02*
X9265301Y-10249817D01*
X9265301Y-10249817D02*
X9284348Y-10240293D01*
X9284348Y-10240293D02*
X9331967Y-10240293D01*
X9331967Y-10240293D02*
X9351015Y-10230770D01*
X9446253Y-10183150D02*
X9446253Y-10383150D01*
X9446253Y-10192674D02*
X9465301Y-10183150D01*
X9465301Y-10183150D02*
X9503396Y-10183150D01*
X9503396Y-10183150D02*
X9522444Y-10192674D01*
X9522444Y-10192674D02*
X9531967Y-10202198D01*
X9531967Y-10202198D02*
X9541491Y-10221246D01*
X9541491Y-10221246D02*
X9541491Y-10278389D01*
X9541491Y-10278389D02*
X9531967Y-10297436D01*
X9531967Y-10297436D02*
X9522444Y-10306960D01*
X9522444Y-10306960D02*
X9503396Y-10316484D01*
X9503396Y-10316484D02*
X9465301Y-10316484D01*
X9465301Y-10316484D02*
X9446253Y-10306960D01*
X9627205Y-10297436D02*
X9636729Y-10306960D01*
X9636729Y-10306960D02*
X9627205Y-10316484D01*
X9627205Y-10316484D02*
X9617682Y-10306960D01*
X9617682Y-10306960D02*
X9627205Y-10297436D01*
X9627205Y-10297436D02*
X9627205Y-10316484D01*
X9627205Y-10192674D02*
X9636729Y-10202198D01*
X9636729Y-10202198D02*
X9627205Y-10211722D01*
X9627205Y-10211722D02*
X9617682Y-10202198D01*
X9617682Y-10202198D02*
X9627205Y-10192674D01*
X9627205Y-10192674D02*
X9627205Y-10211722D01*
X7795000Y-10545000D02*
X7995000Y-10745000D01*
X7995000Y-10545000D02*
X7795000Y-10745000D01*
X8236729Y-10536484D02*
X8360539Y-10536484D01*
X8360539Y-10536484D02*
X8293872Y-10612674D01*
X8293872Y-10612674D02*
X8322443Y-10612674D01*
X8322443Y-10612674D02*
X8341491Y-10622198D01*
X8341491Y-10622198D02*
X8351015Y-10631722D01*
X8351015Y-10631722D02*
X8360539Y-10650770D01*
X8360539Y-10650770D02*
X8360539Y-10698389D01*
X8360539Y-10698389D02*
X8351015Y-10717436D01*
X8351015Y-10717436D02*
X8341491Y-10726960D01*
X8341491Y-10726960D02*
X8322443Y-10736484D01*
X8322443Y-10736484D02*
X8265301Y-10736484D01*
X8265301Y-10736484D02*
X8246253Y-10726960D01*
X8246253Y-10726960D02*
X8236729Y-10717436D01*
X8446253Y-10717436D02*
X8455777Y-10726960D01*
X8455777Y-10726960D02*
X8446253Y-10736484D01*
X8446253Y-10736484D02*
X8436729Y-10726960D01*
X8436729Y-10726960D02*
X8446253Y-10717436D01*
X8446253Y-10717436D02*
X8446253Y-10736484D01*
X8531967Y-10555531D02*
X8541491Y-10546008D01*
X8541491Y-10546008D02*
X8560539Y-10536484D01*
X8560539Y-10536484D02*
X8608158Y-10536484D01*
X8608158Y-10536484D02*
X8627205Y-10546008D01*
X8627205Y-10546008D02*
X8636729Y-10555531D01*
X8636729Y-10555531D02*
X8646253Y-10574579D01*
X8646253Y-10574579D02*
X8646253Y-10593627D01*
X8646253Y-10593627D02*
X8636729Y-10622198D01*
X8636729Y-10622198D02*
X8522444Y-10736484D01*
X8522444Y-10736484D02*
X8646253Y-10736484D01*
X8770063Y-10536484D02*
X8789110Y-10536484D01*
X8789110Y-10536484D02*
X8808158Y-10546008D01*
X8808158Y-10546008D02*
X8817682Y-10555531D01*
X8817682Y-10555531D02*
X8827205Y-10574579D01*
X8827205Y-10574579D02*
X8836729Y-10612674D01*
X8836729Y-10612674D02*
X8836729Y-10660293D01*
X8836729Y-10660293D02*
X8827205Y-10698389D01*
X8827205Y-10698389D02*
X8817682Y-10717436D01*
X8817682Y-10717436D02*
X8808158Y-10726960D01*
X8808158Y-10726960D02*
X8789110Y-10736484D01*
X8789110Y-10736484D02*
X8770063Y-10736484D01*
X8770063Y-10736484D02*
X8751015Y-10726960D01*
X8751015Y-10726960D02*
X8741491Y-10717436D01*
X8741491Y-10717436D02*
X8731967Y-10698389D01*
X8731967Y-10698389D02*
X8722444Y-10660293D01*
X8722444Y-10660293D02*
X8722444Y-10612674D01*
X8722444Y-10612674D02*
X8731967Y-10574579D01*
X8731967Y-10574579D02*
X8741491Y-10555531D01*
X8741491Y-10555531D02*
X8751015Y-10546008D01*
X8751015Y-10546008D02*
X8770063Y-10536484D01*
X8960539Y-10536484D02*
X8979586Y-10536484D01*
X8979586Y-10536484D02*
X8998634Y-10546008D01*
X8998634Y-10546008D02*
X9008158Y-10555531D01*
X9008158Y-10555531D02*
X9017682Y-10574579D01*
X9017682Y-10574579D02*
X9027205Y-10612674D01*
X9027205Y-10612674D02*
X9027205Y-10660293D01*
X9027205Y-10660293D02*
X9017682Y-10698389D01*
X9017682Y-10698389D02*
X9008158Y-10717436D01*
X9008158Y-10717436D02*
X8998634Y-10726960D01*
X8998634Y-10726960D02*
X8979586Y-10736484D01*
X8979586Y-10736484D02*
X8960539Y-10736484D01*
X8960539Y-10736484D02*
X8941491Y-10726960D01*
X8941491Y-10726960D02*
X8931967Y-10717436D01*
X8931967Y-10717436D02*
X8922444Y-10698389D01*
X8922444Y-10698389D02*
X8912920Y-10660293D01*
X8912920Y-10660293D02*
X8912920Y-10612674D01*
X8912920Y-10612674D02*
X8922444Y-10574579D01*
X8922444Y-10574579D02*
X8931967Y-10555531D01*
X8931967Y-10555531D02*
X8941491Y-10546008D01*
X8941491Y-10546008D02*
X8960539Y-10536484D01*
X9112920Y-10736484D02*
X9112920Y-10603150D01*
X9112920Y-10622198D02*
X9122444Y-10612674D01*
X9122444Y-10612674D02*
X9141491Y-10603150D01*
X9141491Y-10603150D02*
X9170063Y-10603150D01*
X9170063Y-10603150D02*
X9189110Y-10612674D01*
X9189110Y-10612674D02*
X9198634Y-10631722D01*
X9198634Y-10631722D02*
X9198634Y-10736484D01*
X9198634Y-10631722D02*
X9208158Y-10612674D01*
X9208158Y-10612674D02*
X9227205Y-10603150D01*
X9227205Y-10603150D02*
X9255777Y-10603150D01*
X9255777Y-10603150D02*
X9274825Y-10612674D01*
X9274825Y-10612674D02*
X9284348Y-10631722D01*
X9284348Y-10631722D02*
X9284348Y-10736484D01*
X9379586Y-10736484D02*
X9379586Y-10603150D01*
X9379586Y-10622198D02*
X9389110Y-10612674D01*
X9389110Y-10612674D02*
X9408158Y-10603150D01*
X9408158Y-10603150D02*
X9436729Y-10603150D01*
X9436729Y-10603150D02*
X9455777Y-10612674D01*
X9455777Y-10612674D02*
X9465301Y-10631722D01*
X9465301Y-10631722D02*
X9465301Y-10736484D01*
X9465301Y-10631722D02*
X9474825Y-10612674D01*
X9474825Y-10612674D02*
X9493872Y-10603150D01*
X9493872Y-10603150D02*
X9522444Y-10603150D01*
X9522444Y-10603150D02*
X9541491Y-10612674D01*
X9541491Y-10612674D02*
X9551015Y-10631722D01*
X9551015Y-10631722D02*
X9551015Y-10736484D01*
X9941491Y-10526960D02*
X9770063Y-10784103D01*
X10198634Y-10536484D02*
X10217682Y-10536484D01*
X10217682Y-10536484D02*
X10236729Y-10546008D01*
X10236729Y-10546008D02*
X10246253Y-10555531D01*
X10246253Y-10555531D02*
X10255777Y-10574579D01*
X10255777Y-10574579D02*
X10265301Y-10612674D01*
X10265301Y-10612674D02*
X10265301Y-10660293D01*
X10265301Y-10660293D02*
X10255777Y-10698389D01*
X10255777Y-10698389D02*
X10246253Y-10717436D01*
X10246253Y-10717436D02*
X10236729Y-10726960D01*
X10236729Y-10726960D02*
X10217682Y-10736484D01*
X10217682Y-10736484D02*
X10198634Y-10736484D01*
X10198634Y-10736484D02*
X10179587Y-10726960D01*
X10179587Y-10726960D02*
X10170063Y-10717436D01*
X10170063Y-10717436D02*
X10160539Y-10698389D01*
X10160539Y-10698389D02*
X10151015Y-10660293D01*
X10151015Y-10660293D02*
X10151015Y-10612674D01*
X10151015Y-10612674D02*
X10160539Y-10574579D01*
X10160539Y-10574579D02*
X10170063Y-10555531D01*
X10170063Y-10555531D02*
X10179587Y-10546008D01*
X10179587Y-10546008D02*
X10198634Y-10536484D01*
X10351015Y-10717436D02*
X10360539Y-10726960D01*
X10360539Y-10726960D02*
X10351015Y-10736484D01*
X10351015Y-10736484D02*
X10341491Y-10726960D01*
X10341491Y-10726960D02*
X10351015Y-10717436D01*
X10351015Y-10717436D02*
X10351015Y-10736484D01*
X10551015Y-10736484D02*
X10436729Y-10736484D01*
X10493872Y-10736484D02*
X10493872Y-10536484D01*
X10493872Y-10536484D02*
X10474825Y-10565055D01*
X10474825Y-10565055D02*
X10455777Y-10584103D01*
X10455777Y-10584103D02*
X10436729Y-10593627D01*
X10627206Y-10555531D02*
X10636729Y-10546008D01*
X10636729Y-10546008D02*
X10655777Y-10536484D01*
X10655777Y-10536484D02*
X10703396Y-10536484D01*
X10703396Y-10536484D02*
X10722444Y-10546008D01*
X10722444Y-10546008D02*
X10731968Y-10555531D01*
X10731968Y-10555531D02*
X10741491Y-10574579D01*
X10741491Y-10574579D02*
X10741491Y-10593627D01*
X10741491Y-10593627D02*
X10731968Y-10622198D01*
X10731968Y-10622198D02*
X10617682Y-10736484D01*
X10617682Y-10736484D02*
X10741491Y-10736484D01*
X10912920Y-10536484D02*
X10874825Y-10536484D01*
X10874825Y-10536484D02*
X10855777Y-10546008D01*
X10855777Y-10546008D02*
X10846253Y-10555531D01*
X10846253Y-10555531D02*
X10827206Y-10584103D01*
X10827206Y-10584103D02*
X10817682Y-10622198D01*
X10817682Y-10622198D02*
X10817682Y-10698389D01*
X10817682Y-10698389D02*
X10827206Y-10717436D01*
X10827206Y-10717436D02*
X10836729Y-10726960D01*
X10836729Y-10726960D02*
X10855777Y-10736484D01*
X10855777Y-10736484D02*
X10893872Y-10736484D01*
X10893872Y-10736484D02*
X10912920Y-10726960D01*
X10912920Y-10726960D02*
X10922444Y-10717436D01*
X10922444Y-10717436D02*
X10931968Y-10698389D01*
X10931968Y-10698389D02*
X10931968Y-10650770D01*
X10931968Y-10650770D02*
X10922444Y-10631722D01*
X10922444Y-10631722D02*
X10912920Y-10622198D01*
X10912920Y-10622198D02*
X10893872Y-10612674D01*
X10893872Y-10612674D02*
X10855777Y-10612674D01*
X10855777Y-10612674D02*
X10836729Y-10622198D01*
X10836729Y-10622198D02*
X10827206Y-10631722D01*
X10827206Y-10631722D02*
X10817682Y-10650770D01*
X11055777Y-10536484D02*
X11074825Y-10536484D01*
X11074825Y-10536484D02*
X11093872Y-10546008D01*
X11093872Y-10546008D02*
X11103396Y-10555531D01*
X11103396Y-10555531D02*
X11112920Y-10574579D01*
X11112920Y-10574579D02*
X11122444Y-10612674D01*
X11122444Y-10612674D02*
X11122444Y-10660293D01*
X11122444Y-10660293D02*
X11112920Y-10698389D01*
X11112920Y-10698389D02*
X11103396Y-10717436D01*
X11103396Y-10717436D02*
X11093872Y-10726960D01*
X11093872Y-10726960D02*
X11074825Y-10736484D01*
X11074825Y-10736484D02*
X11055777Y-10736484D01*
X11055777Y-10736484D02*
X11036729Y-10726960D01*
X11036729Y-10726960D02*
X11027206Y-10717436D01*
X11027206Y-10717436D02*
X11017682Y-10698389D01*
X11017682Y-10698389D02*
X11008158Y-10660293D01*
X11008158Y-10660293D02*
X11008158Y-10612674D01*
X11008158Y-10612674D02*
X11017682Y-10574579D01*
X11017682Y-10574579D02*
X11027206Y-10555531D01*
X11027206Y-10555531D02*
X11036729Y-10546008D01*
X11036729Y-10546008D02*
X11055777Y-10536484D01*
X11198634Y-10536484D02*
X11198634Y-10574579D01*
X11274825Y-10536484D02*
X11274825Y-10574579D01*
X11570063Y-10812674D02*
X11560539Y-10803150D01*
X11560539Y-10803150D02*
X11541491Y-10774579D01*
X11541491Y-10774579D02*
X11531968Y-10755531D01*
X11531968Y-10755531D02*
X11522444Y-10726960D01*
X11522444Y-10726960D02*
X11512920Y-10679341D01*
X11512920Y-10679341D02*
X11512920Y-10641246D01*
X11512920Y-10641246D02*
X11522444Y-10593627D01*
X11522444Y-10593627D02*
X11531968Y-10565055D01*
X11531968Y-10565055D02*
X11541491Y-10546008D01*
X11541491Y-10546008D02*
X11560539Y-10517436D01*
X11560539Y-10517436D02*
X11570063Y-10507912D01*
X11731968Y-10603150D02*
X11731968Y-10736484D01*
X11684348Y-10526960D02*
X11636729Y-10669817D01*
X11636729Y-10669817D02*
X11760539Y-10669817D01*
X11989110Y-10736484D02*
X11989110Y-10536484D01*
X12074825Y-10736484D02*
X12074825Y-10631722D01*
X12074825Y-10631722D02*
X12065301Y-10612674D01*
X12065301Y-10612674D02*
X12046253Y-10603150D01*
X12046253Y-10603150D02*
X12017682Y-10603150D01*
X12017682Y-10603150D02*
X11998634Y-10612674D01*
X11998634Y-10612674D02*
X11989110Y-10622198D01*
X12198634Y-10736484D02*
X12179587Y-10726960D01*
X12179587Y-10726960D02*
X12170063Y-10717436D01*
X12170063Y-10717436D02*
X12160539Y-10698389D01*
X12160539Y-10698389D02*
X12160539Y-10641246D01*
X12160539Y-10641246D02*
X12170063Y-10622198D01*
X12170063Y-10622198D02*
X12179587Y-10612674D01*
X12179587Y-10612674D02*
X12198634Y-10603150D01*
X12198634Y-10603150D02*
X12227206Y-10603150D01*
X12227206Y-10603150D02*
X12246253Y-10612674D01*
X12246253Y-10612674D02*
X12255777Y-10622198D01*
X12255777Y-10622198D02*
X12265301Y-10641246D01*
X12265301Y-10641246D02*
X12265301Y-10698389D01*
X12265301Y-10698389D02*
X12255777Y-10717436D01*
X12255777Y-10717436D02*
X12246253Y-10726960D01*
X12246253Y-10726960D02*
X12227206Y-10736484D01*
X12227206Y-10736484D02*
X12198634Y-10736484D01*
X12379587Y-10736484D02*
X12360539Y-10726960D01*
X12360539Y-10726960D02*
X12351015Y-10707912D01*
X12351015Y-10707912D02*
X12351015Y-10536484D01*
X12531968Y-10726960D02*
X12512920Y-10736484D01*
X12512920Y-10736484D02*
X12474825Y-10736484D01*
X12474825Y-10736484D02*
X12455777Y-10726960D01*
X12455777Y-10726960D02*
X12446253Y-10707912D01*
X12446253Y-10707912D02*
X12446253Y-10631722D01*
X12446253Y-10631722D02*
X12455777Y-10612674D01*
X12455777Y-10612674D02*
X12474825Y-10603150D01*
X12474825Y-10603150D02*
X12512920Y-10603150D01*
X12512920Y-10603150D02*
X12531968Y-10612674D01*
X12531968Y-10612674D02*
X12541491Y-10631722D01*
X12541491Y-10631722D02*
X12541491Y-10650770D01*
X12541491Y-10650770D02*
X12446253Y-10669817D01*
X12617682Y-10726960D02*
X12636730Y-10736484D01*
X12636730Y-10736484D02*
X12674825Y-10736484D01*
X12674825Y-10736484D02*
X12693872Y-10726960D01*
X12693872Y-10726960D02*
X12703396Y-10707912D01*
X12703396Y-10707912D02*
X12703396Y-10698389D01*
X12703396Y-10698389D02*
X12693872Y-10679341D01*
X12693872Y-10679341D02*
X12674825Y-10669817D01*
X12674825Y-10669817D02*
X12646253Y-10669817D01*
X12646253Y-10669817D02*
X12627206Y-10660293D01*
X12627206Y-10660293D02*
X12617682Y-10641246D01*
X12617682Y-10641246D02*
X12617682Y-10631722D01*
X12617682Y-10631722D02*
X12627206Y-10612674D01*
X12627206Y-10612674D02*
X12646253Y-10603150D01*
X12646253Y-10603150D02*
X12674825Y-10603150D01*
X12674825Y-10603150D02*
X12693872Y-10612674D01*
X12770063Y-10812674D02*
X12779587Y-10803150D01*
X12779587Y-10803150D02*
X12798634Y-10774579D01*
X12798634Y-10774579D02*
X12808158Y-10755531D01*
X12808158Y-10755531D02*
X12817682Y-10726960D01*
X12817682Y-10726960D02*
X12827206Y-10679341D01*
X12827206Y-10679341D02*
X12827206Y-10641246D01*
X12827206Y-10641246D02*
X12817682Y-10593627D01*
X12817682Y-10593627D02*
X12808158Y-10565055D01*
X12808158Y-10565055D02*
X12798634Y-10546008D01*
X12798634Y-10546008D02*
X12779587Y-10517436D01*
X12779587Y-10517436D02*
X12770063Y-10507912D01*
X13131968Y-10812674D02*
X13122444Y-10803150D01*
X13122444Y-10803150D02*
X13103396Y-10774579D01*
X13103396Y-10774579D02*
X13093872Y-10755531D01*
X13093872Y-10755531D02*
X13084349Y-10726960D01*
X13084349Y-10726960D02*
X13074825Y-10679341D01*
X13074825Y-10679341D02*
X13074825Y-10641246D01*
X13074825Y-10641246D02*
X13084349Y-10593627D01*
X13084349Y-10593627D02*
X13093872Y-10565055D01*
X13093872Y-10565055D02*
X13103396Y-10546008D01*
X13103396Y-10546008D02*
X13122444Y-10517436D01*
X13122444Y-10517436D02*
X13131968Y-10507912D01*
X13208158Y-10603150D02*
X13208158Y-10736484D01*
X13208158Y-10622198D02*
X13217682Y-10612674D01*
X13217682Y-10612674D02*
X13236730Y-10603150D01*
X13236730Y-10603150D02*
X13265301Y-10603150D01*
X13265301Y-10603150D02*
X13284349Y-10612674D01*
X13284349Y-10612674D02*
X13293872Y-10631722D01*
X13293872Y-10631722D02*
X13293872Y-10736484D01*
X13417682Y-10736484D02*
X13398634Y-10726960D01*
X13398634Y-10726960D02*
X13389111Y-10717436D01*
X13389111Y-10717436D02*
X13379587Y-10698389D01*
X13379587Y-10698389D02*
X13379587Y-10641246D01*
X13379587Y-10641246D02*
X13389111Y-10622198D01*
X13389111Y-10622198D02*
X13398634Y-10612674D01*
X13398634Y-10612674D02*
X13417682Y-10603150D01*
X13417682Y-10603150D02*
X13446253Y-10603150D01*
X13446253Y-10603150D02*
X13465301Y-10612674D01*
X13465301Y-10612674D02*
X13474825Y-10622198D01*
X13474825Y-10622198D02*
X13484349Y-10641246D01*
X13484349Y-10641246D02*
X13484349Y-10698389D01*
X13484349Y-10698389D02*
X13474825Y-10717436D01*
X13474825Y-10717436D02*
X13465301Y-10726960D01*
X13465301Y-10726960D02*
X13446253Y-10736484D01*
X13446253Y-10736484D02*
X13417682Y-10736484D01*
X13541492Y-10603150D02*
X13617682Y-10603150D01*
X13570063Y-10536484D02*
X13570063Y-10707912D01*
X13570063Y-10707912D02*
X13579587Y-10726960D01*
X13579587Y-10726960D02*
X13598634Y-10736484D01*
X13598634Y-10736484D02*
X13617682Y-10736484D01*
X13836730Y-10603150D02*
X13836730Y-10803150D01*
X13836730Y-10612674D02*
X13855777Y-10603150D01*
X13855777Y-10603150D02*
X13893873Y-10603150D01*
X13893873Y-10603150D02*
X13912920Y-10612674D01*
X13912920Y-10612674D02*
X13922444Y-10622198D01*
X13922444Y-10622198D02*
X13931968Y-10641246D01*
X13931968Y-10641246D02*
X13931968Y-10698389D01*
X13931968Y-10698389D02*
X13922444Y-10717436D01*
X13922444Y-10717436D02*
X13912920Y-10726960D01*
X13912920Y-10726960D02*
X13893873Y-10736484D01*
X13893873Y-10736484D02*
X13855777Y-10736484D01*
X13855777Y-10736484D02*
X13836730Y-10726960D01*
X14046253Y-10736484D02*
X14027206Y-10726960D01*
X14027206Y-10726960D02*
X14017682Y-10707912D01*
X14017682Y-10707912D02*
X14017682Y-10536484D01*
X14208158Y-10736484D02*
X14208158Y-10631722D01*
X14208158Y-10631722D02*
X14198634Y-10612674D01*
X14198634Y-10612674D02*
X14179587Y-10603150D01*
X14179587Y-10603150D02*
X14141492Y-10603150D01*
X14141492Y-10603150D02*
X14122444Y-10612674D01*
X14208158Y-10726960D02*
X14189111Y-10736484D01*
X14189111Y-10736484D02*
X14141492Y-10736484D01*
X14141492Y-10736484D02*
X14122444Y-10726960D01*
X14122444Y-10726960D02*
X14112920Y-10707912D01*
X14112920Y-10707912D02*
X14112920Y-10688865D01*
X14112920Y-10688865D02*
X14122444Y-10669817D01*
X14122444Y-10669817D02*
X14141492Y-10660293D01*
X14141492Y-10660293D02*
X14189111Y-10660293D01*
X14189111Y-10660293D02*
X14208158Y-10650770D01*
X14274825Y-10603150D02*
X14351015Y-10603150D01*
X14303396Y-10536484D02*
X14303396Y-10707912D01*
X14303396Y-10707912D02*
X14312920Y-10726960D01*
X14312920Y-10726960D02*
X14331968Y-10736484D01*
X14331968Y-10736484D02*
X14351015Y-10736484D01*
X14493873Y-10726960D02*
X14474825Y-10736484D01*
X14474825Y-10736484D02*
X14436730Y-10736484D01*
X14436730Y-10736484D02*
X14417682Y-10726960D01*
X14417682Y-10726960D02*
X14408158Y-10707912D01*
X14408158Y-10707912D02*
X14408158Y-10631722D01*
X14408158Y-10631722D02*
X14417682Y-10612674D01*
X14417682Y-10612674D02*
X14436730Y-10603150D01*
X14436730Y-10603150D02*
X14474825Y-10603150D01*
X14474825Y-10603150D02*
X14493873Y-10612674D01*
X14493873Y-10612674D02*
X14503396Y-10631722D01*
X14503396Y-10631722D02*
X14503396Y-10650770D01*
X14503396Y-10650770D02*
X14408158Y-10669817D01*
X14674825Y-10736484D02*
X14674825Y-10536484D01*
X14674825Y-10726960D02*
X14655777Y-10736484D01*
X14655777Y-10736484D02*
X14617682Y-10736484D01*
X14617682Y-10736484D02*
X14598634Y-10726960D01*
X14598634Y-10726960D02*
X14589111Y-10717436D01*
X14589111Y-10717436D02*
X14579587Y-10698389D01*
X14579587Y-10698389D02*
X14579587Y-10641246D01*
X14579587Y-10641246D02*
X14589111Y-10622198D01*
X14589111Y-10622198D02*
X14598634Y-10612674D01*
X14598634Y-10612674D02*
X14617682Y-10603150D01*
X14617682Y-10603150D02*
X14655777Y-10603150D01*
X14655777Y-10603150D02*
X14674825Y-10612674D01*
X14751015Y-10812674D02*
X14760539Y-10803150D01*
X14760539Y-10803150D02*
X14779587Y-10774579D01*
X14779587Y-10774579D02*
X14789111Y-10755531D01*
X14789111Y-10755531D02*
X14798634Y-10726960D01*
X14798634Y-10726960D02*
X14808158Y-10679341D01*
X14808158Y-10679341D02*
X14808158Y-10641246D01*
X14808158Y-10641246D02*
X14798634Y-10593627D01*
X14798634Y-10593627D02*
X14789111Y-10565055D01*
X14789111Y-10565055D02*
X14779587Y-10546008D01*
X14779587Y-10546008D02*
X14760539Y-10517436D01*
X14760539Y-10517436D02*
X14751015Y-10507912D01*
M02*
