%TF.GenerationSoftware,KiCad,Pcbnew,8.0.3*%
%TF.CreationDate,2024-06-21T17:49:07+08:00*%
%TF.ProjectId,LNA1690,4c4e4131-3639-4302-9e6b-696361645f70,rev?*%
%TF.SameCoordinates,Original*%
%TF.FileFunction,Drillmap*%
%TF.FilePolarity,Positive*%
%FSLAX45Y45*%
G04 Gerber Fmt 4.5, Leading zero omitted, Abs format (unit mm)*
G04 Created by KiCad (PCBNEW 8.0.3) date 2024-06-21 17:49:07*
%MOMM*%
%LPD*%
G01*
G04 APERTURE LIST*
%ADD10C,0.200000*%
%ADD11C,0.320000*%
G04 APERTURE END LIST*
D10*
X9500000Y-6000000D02*
X17000000Y-6000000D01*
X17000000Y-10500000D01*
X9500000Y-10500000D01*
X9500000Y-6000000D01*
D11*
X9690000Y-6190000D02*
X10010000Y-6510000D01*
X10010000Y-6190000D02*
X9690000Y-6510000D01*
X9690000Y-9990000D02*
X10010000Y-10310000D01*
X10010000Y-9990000D02*
X9690000Y-10310000D01*
X16490000Y-6190000D02*
X16810000Y-6510000D01*
X16810000Y-6190000D02*
X16490000Y-6510000D01*
X16490000Y-9990000D02*
X16810000Y-10310000D01*
X16810000Y-9990000D02*
X16490000Y-10310000D01*
D10*
X9750777Y-10821484D02*
X9750777Y-10621484D01*
X9750777Y-10621484D02*
X9798396Y-10621484D01*
X9798396Y-10621484D02*
X9826967Y-10631008D01*
X9826967Y-10631008D02*
X9846015Y-10650055D01*
X9846015Y-10650055D02*
X9855539Y-10669103D01*
X9855539Y-10669103D02*
X9865063Y-10707198D01*
X9865063Y-10707198D02*
X9865063Y-10735770D01*
X9865063Y-10735770D02*
X9855539Y-10773865D01*
X9855539Y-10773865D02*
X9846015Y-10792912D01*
X9846015Y-10792912D02*
X9826967Y-10811960D01*
X9826967Y-10811960D02*
X9798396Y-10821484D01*
X9798396Y-10821484D02*
X9750777Y-10821484D01*
X9950777Y-10821484D02*
X9950777Y-10688150D01*
X9950777Y-10726246D02*
X9960301Y-10707198D01*
X9960301Y-10707198D02*
X9969824Y-10697674D01*
X9969824Y-10697674D02*
X9988872Y-10688150D01*
X9988872Y-10688150D02*
X10007920Y-10688150D01*
X10074586Y-10821484D02*
X10074586Y-10688150D01*
X10074586Y-10621484D02*
X10065063Y-10631008D01*
X10065063Y-10631008D02*
X10074586Y-10640531D01*
X10074586Y-10640531D02*
X10084110Y-10631008D01*
X10084110Y-10631008D02*
X10074586Y-10621484D01*
X10074586Y-10621484D02*
X10074586Y-10640531D01*
X10198396Y-10821484D02*
X10179348Y-10811960D01*
X10179348Y-10811960D02*
X10169824Y-10792912D01*
X10169824Y-10792912D02*
X10169824Y-10621484D01*
X10303158Y-10821484D02*
X10284110Y-10811960D01*
X10284110Y-10811960D02*
X10274586Y-10792912D01*
X10274586Y-10792912D02*
X10274586Y-10621484D01*
X10531729Y-10821484D02*
X10531729Y-10621484D01*
X10531729Y-10621484D02*
X10598396Y-10764341D01*
X10598396Y-10764341D02*
X10665063Y-10621484D01*
X10665063Y-10621484D02*
X10665063Y-10821484D01*
X10846015Y-10821484D02*
X10846015Y-10716722D01*
X10846015Y-10716722D02*
X10836491Y-10697674D01*
X10836491Y-10697674D02*
X10817444Y-10688150D01*
X10817444Y-10688150D02*
X10779348Y-10688150D01*
X10779348Y-10688150D02*
X10760301Y-10697674D01*
X10846015Y-10811960D02*
X10826967Y-10821484D01*
X10826967Y-10821484D02*
X10779348Y-10821484D01*
X10779348Y-10821484D02*
X10760301Y-10811960D01*
X10760301Y-10811960D02*
X10750777Y-10792912D01*
X10750777Y-10792912D02*
X10750777Y-10773865D01*
X10750777Y-10773865D02*
X10760301Y-10754817D01*
X10760301Y-10754817D02*
X10779348Y-10745293D01*
X10779348Y-10745293D02*
X10826967Y-10745293D01*
X10826967Y-10745293D02*
X10846015Y-10735770D01*
X10941253Y-10688150D02*
X10941253Y-10888150D01*
X10941253Y-10697674D02*
X10960301Y-10688150D01*
X10960301Y-10688150D02*
X10998396Y-10688150D01*
X10998396Y-10688150D02*
X11017444Y-10697674D01*
X11017444Y-10697674D02*
X11026967Y-10707198D01*
X11026967Y-10707198D02*
X11036491Y-10726246D01*
X11036491Y-10726246D02*
X11036491Y-10783389D01*
X11036491Y-10783389D02*
X11026967Y-10802436D01*
X11026967Y-10802436D02*
X11017444Y-10811960D01*
X11017444Y-10811960D02*
X10998396Y-10821484D01*
X10998396Y-10821484D02*
X10960301Y-10821484D01*
X10960301Y-10821484D02*
X10941253Y-10811960D01*
X11122205Y-10802436D02*
X11131729Y-10811960D01*
X11131729Y-10811960D02*
X11122205Y-10821484D01*
X11122205Y-10821484D02*
X11112682Y-10811960D01*
X11112682Y-10811960D02*
X11122205Y-10802436D01*
X11122205Y-10802436D02*
X11122205Y-10821484D01*
X11122205Y-10697674D02*
X11131729Y-10707198D01*
X11131729Y-10707198D02*
X11122205Y-10716722D01*
X11122205Y-10716722D02*
X11112682Y-10707198D01*
X11112682Y-10707198D02*
X11122205Y-10697674D01*
X11122205Y-10697674D02*
X11122205Y-10716722D01*
X9290000Y-11050000D02*
X9490000Y-11250000D01*
X9490000Y-11050000D02*
X9290000Y-11250000D01*
X9731729Y-11041484D02*
X9855539Y-11041484D01*
X9855539Y-11041484D02*
X9788872Y-11117674D01*
X9788872Y-11117674D02*
X9817444Y-11117674D01*
X9817444Y-11117674D02*
X9836491Y-11127198D01*
X9836491Y-11127198D02*
X9846015Y-11136722D01*
X9846015Y-11136722D02*
X9855539Y-11155770D01*
X9855539Y-11155770D02*
X9855539Y-11203388D01*
X9855539Y-11203388D02*
X9846015Y-11222436D01*
X9846015Y-11222436D02*
X9836491Y-11231960D01*
X9836491Y-11231960D02*
X9817444Y-11241484D01*
X9817444Y-11241484D02*
X9760301Y-11241484D01*
X9760301Y-11241484D02*
X9741253Y-11231960D01*
X9741253Y-11231960D02*
X9731729Y-11222436D01*
X9941253Y-11222436D02*
X9950777Y-11231960D01*
X9950777Y-11231960D02*
X9941253Y-11241484D01*
X9941253Y-11241484D02*
X9931729Y-11231960D01*
X9931729Y-11231960D02*
X9941253Y-11222436D01*
X9941253Y-11222436D02*
X9941253Y-11241484D01*
X10026967Y-11060531D02*
X10036491Y-11051008D01*
X10036491Y-11051008D02*
X10055539Y-11041484D01*
X10055539Y-11041484D02*
X10103158Y-11041484D01*
X10103158Y-11041484D02*
X10122205Y-11051008D01*
X10122205Y-11051008D02*
X10131729Y-11060531D01*
X10131729Y-11060531D02*
X10141253Y-11079579D01*
X10141253Y-11079579D02*
X10141253Y-11098627D01*
X10141253Y-11098627D02*
X10131729Y-11127198D01*
X10131729Y-11127198D02*
X10017444Y-11241484D01*
X10017444Y-11241484D02*
X10141253Y-11241484D01*
X10265063Y-11041484D02*
X10284110Y-11041484D01*
X10284110Y-11041484D02*
X10303158Y-11051008D01*
X10303158Y-11051008D02*
X10312682Y-11060531D01*
X10312682Y-11060531D02*
X10322205Y-11079579D01*
X10322205Y-11079579D02*
X10331729Y-11117674D01*
X10331729Y-11117674D02*
X10331729Y-11165293D01*
X10331729Y-11165293D02*
X10322205Y-11203388D01*
X10322205Y-11203388D02*
X10312682Y-11222436D01*
X10312682Y-11222436D02*
X10303158Y-11231960D01*
X10303158Y-11231960D02*
X10284110Y-11241484D01*
X10284110Y-11241484D02*
X10265063Y-11241484D01*
X10265063Y-11241484D02*
X10246015Y-11231960D01*
X10246015Y-11231960D02*
X10236491Y-11222436D01*
X10236491Y-11222436D02*
X10226967Y-11203388D01*
X10226967Y-11203388D02*
X10217444Y-11165293D01*
X10217444Y-11165293D02*
X10217444Y-11117674D01*
X10217444Y-11117674D02*
X10226967Y-11079579D01*
X10226967Y-11079579D02*
X10236491Y-11060531D01*
X10236491Y-11060531D02*
X10246015Y-11051008D01*
X10246015Y-11051008D02*
X10265063Y-11041484D01*
X10455539Y-11041484D02*
X10474586Y-11041484D01*
X10474586Y-11041484D02*
X10493634Y-11051008D01*
X10493634Y-11051008D02*
X10503158Y-11060531D01*
X10503158Y-11060531D02*
X10512682Y-11079579D01*
X10512682Y-11079579D02*
X10522205Y-11117674D01*
X10522205Y-11117674D02*
X10522205Y-11165293D01*
X10522205Y-11165293D02*
X10512682Y-11203388D01*
X10512682Y-11203388D02*
X10503158Y-11222436D01*
X10503158Y-11222436D02*
X10493634Y-11231960D01*
X10493634Y-11231960D02*
X10474586Y-11241484D01*
X10474586Y-11241484D02*
X10455539Y-11241484D01*
X10455539Y-11241484D02*
X10436491Y-11231960D01*
X10436491Y-11231960D02*
X10426967Y-11222436D01*
X10426967Y-11222436D02*
X10417444Y-11203388D01*
X10417444Y-11203388D02*
X10407920Y-11165293D01*
X10407920Y-11165293D02*
X10407920Y-11117674D01*
X10407920Y-11117674D02*
X10417444Y-11079579D01*
X10417444Y-11079579D02*
X10426967Y-11060531D01*
X10426967Y-11060531D02*
X10436491Y-11051008D01*
X10436491Y-11051008D02*
X10455539Y-11041484D01*
X10607920Y-11241484D02*
X10607920Y-11108150D01*
X10607920Y-11127198D02*
X10617444Y-11117674D01*
X10617444Y-11117674D02*
X10636491Y-11108150D01*
X10636491Y-11108150D02*
X10665063Y-11108150D01*
X10665063Y-11108150D02*
X10684110Y-11117674D01*
X10684110Y-11117674D02*
X10693634Y-11136722D01*
X10693634Y-11136722D02*
X10693634Y-11241484D01*
X10693634Y-11136722D02*
X10703158Y-11117674D01*
X10703158Y-11117674D02*
X10722205Y-11108150D01*
X10722205Y-11108150D02*
X10750777Y-11108150D01*
X10750777Y-11108150D02*
X10769825Y-11117674D01*
X10769825Y-11117674D02*
X10779348Y-11136722D01*
X10779348Y-11136722D02*
X10779348Y-11241484D01*
X10874586Y-11241484D02*
X10874586Y-11108150D01*
X10874586Y-11127198D02*
X10884110Y-11117674D01*
X10884110Y-11117674D02*
X10903158Y-11108150D01*
X10903158Y-11108150D02*
X10931729Y-11108150D01*
X10931729Y-11108150D02*
X10950777Y-11117674D01*
X10950777Y-11117674D02*
X10960301Y-11136722D01*
X10960301Y-11136722D02*
X10960301Y-11241484D01*
X10960301Y-11136722D02*
X10969825Y-11117674D01*
X10969825Y-11117674D02*
X10988872Y-11108150D01*
X10988872Y-11108150D02*
X11017444Y-11108150D01*
X11017444Y-11108150D02*
X11036491Y-11117674D01*
X11036491Y-11117674D02*
X11046015Y-11136722D01*
X11046015Y-11136722D02*
X11046015Y-11241484D01*
X11436491Y-11031960D02*
X11265063Y-11289103D01*
X11693634Y-11041484D02*
X11712682Y-11041484D01*
X11712682Y-11041484D02*
X11731729Y-11051008D01*
X11731729Y-11051008D02*
X11741253Y-11060531D01*
X11741253Y-11060531D02*
X11750777Y-11079579D01*
X11750777Y-11079579D02*
X11760301Y-11117674D01*
X11760301Y-11117674D02*
X11760301Y-11165293D01*
X11760301Y-11165293D02*
X11750777Y-11203388D01*
X11750777Y-11203388D02*
X11741253Y-11222436D01*
X11741253Y-11222436D02*
X11731729Y-11231960D01*
X11731729Y-11231960D02*
X11712682Y-11241484D01*
X11712682Y-11241484D02*
X11693634Y-11241484D01*
X11693634Y-11241484D02*
X11674586Y-11231960D01*
X11674586Y-11231960D02*
X11665063Y-11222436D01*
X11665063Y-11222436D02*
X11655539Y-11203388D01*
X11655539Y-11203388D02*
X11646015Y-11165293D01*
X11646015Y-11165293D02*
X11646015Y-11117674D01*
X11646015Y-11117674D02*
X11655539Y-11079579D01*
X11655539Y-11079579D02*
X11665063Y-11060531D01*
X11665063Y-11060531D02*
X11674586Y-11051008D01*
X11674586Y-11051008D02*
X11693634Y-11041484D01*
X11846015Y-11222436D02*
X11855539Y-11231960D01*
X11855539Y-11231960D02*
X11846015Y-11241484D01*
X11846015Y-11241484D02*
X11836491Y-11231960D01*
X11836491Y-11231960D02*
X11846015Y-11222436D01*
X11846015Y-11222436D02*
X11846015Y-11241484D01*
X12046015Y-11241484D02*
X11931729Y-11241484D01*
X11988872Y-11241484D02*
X11988872Y-11041484D01*
X11988872Y-11041484D02*
X11969825Y-11070055D01*
X11969825Y-11070055D02*
X11950777Y-11089103D01*
X11950777Y-11089103D02*
X11931729Y-11098627D01*
X12122206Y-11060531D02*
X12131729Y-11051008D01*
X12131729Y-11051008D02*
X12150777Y-11041484D01*
X12150777Y-11041484D02*
X12198396Y-11041484D01*
X12198396Y-11041484D02*
X12217444Y-11051008D01*
X12217444Y-11051008D02*
X12226967Y-11060531D01*
X12226967Y-11060531D02*
X12236491Y-11079579D01*
X12236491Y-11079579D02*
X12236491Y-11098627D01*
X12236491Y-11098627D02*
X12226967Y-11127198D01*
X12226967Y-11127198D02*
X12112682Y-11241484D01*
X12112682Y-11241484D02*
X12236491Y-11241484D01*
X12407920Y-11041484D02*
X12369825Y-11041484D01*
X12369825Y-11041484D02*
X12350777Y-11051008D01*
X12350777Y-11051008D02*
X12341253Y-11060531D01*
X12341253Y-11060531D02*
X12322206Y-11089103D01*
X12322206Y-11089103D02*
X12312682Y-11127198D01*
X12312682Y-11127198D02*
X12312682Y-11203388D01*
X12312682Y-11203388D02*
X12322206Y-11222436D01*
X12322206Y-11222436D02*
X12331729Y-11231960D01*
X12331729Y-11231960D02*
X12350777Y-11241484D01*
X12350777Y-11241484D02*
X12388872Y-11241484D01*
X12388872Y-11241484D02*
X12407920Y-11231960D01*
X12407920Y-11231960D02*
X12417444Y-11222436D01*
X12417444Y-11222436D02*
X12426967Y-11203388D01*
X12426967Y-11203388D02*
X12426967Y-11155770D01*
X12426967Y-11155770D02*
X12417444Y-11136722D01*
X12417444Y-11136722D02*
X12407920Y-11127198D01*
X12407920Y-11127198D02*
X12388872Y-11117674D01*
X12388872Y-11117674D02*
X12350777Y-11117674D01*
X12350777Y-11117674D02*
X12331729Y-11127198D01*
X12331729Y-11127198D02*
X12322206Y-11136722D01*
X12322206Y-11136722D02*
X12312682Y-11155770D01*
X12550777Y-11041484D02*
X12569825Y-11041484D01*
X12569825Y-11041484D02*
X12588872Y-11051008D01*
X12588872Y-11051008D02*
X12598396Y-11060531D01*
X12598396Y-11060531D02*
X12607920Y-11079579D01*
X12607920Y-11079579D02*
X12617444Y-11117674D01*
X12617444Y-11117674D02*
X12617444Y-11165293D01*
X12617444Y-11165293D02*
X12607920Y-11203388D01*
X12607920Y-11203388D02*
X12598396Y-11222436D01*
X12598396Y-11222436D02*
X12588872Y-11231960D01*
X12588872Y-11231960D02*
X12569825Y-11241484D01*
X12569825Y-11241484D02*
X12550777Y-11241484D01*
X12550777Y-11241484D02*
X12531729Y-11231960D01*
X12531729Y-11231960D02*
X12522206Y-11222436D01*
X12522206Y-11222436D02*
X12512682Y-11203388D01*
X12512682Y-11203388D02*
X12503158Y-11165293D01*
X12503158Y-11165293D02*
X12503158Y-11117674D01*
X12503158Y-11117674D02*
X12512682Y-11079579D01*
X12512682Y-11079579D02*
X12522206Y-11060531D01*
X12522206Y-11060531D02*
X12531729Y-11051008D01*
X12531729Y-11051008D02*
X12550777Y-11041484D01*
X12693634Y-11041484D02*
X12693634Y-11079579D01*
X12769825Y-11041484D02*
X12769825Y-11079579D01*
X13065063Y-11317674D02*
X13055539Y-11308150D01*
X13055539Y-11308150D02*
X13036491Y-11279579D01*
X13036491Y-11279579D02*
X13026968Y-11260531D01*
X13026968Y-11260531D02*
X13017444Y-11231960D01*
X13017444Y-11231960D02*
X13007920Y-11184341D01*
X13007920Y-11184341D02*
X13007920Y-11146246D01*
X13007920Y-11146246D02*
X13017444Y-11098627D01*
X13017444Y-11098627D02*
X13026968Y-11070055D01*
X13026968Y-11070055D02*
X13036491Y-11051008D01*
X13036491Y-11051008D02*
X13055539Y-11022436D01*
X13055539Y-11022436D02*
X13065063Y-11012912D01*
X13226968Y-11108150D02*
X13226968Y-11241484D01*
X13179348Y-11031960D02*
X13131729Y-11174817D01*
X13131729Y-11174817D02*
X13255539Y-11174817D01*
X13484110Y-11241484D02*
X13484110Y-11041484D01*
X13569825Y-11241484D02*
X13569825Y-11136722D01*
X13569825Y-11136722D02*
X13560301Y-11117674D01*
X13560301Y-11117674D02*
X13541253Y-11108150D01*
X13541253Y-11108150D02*
X13512682Y-11108150D01*
X13512682Y-11108150D02*
X13493634Y-11117674D01*
X13493634Y-11117674D02*
X13484110Y-11127198D01*
X13693634Y-11241484D02*
X13674587Y-11231960D01*
X13674587Y-11231960D02*
X13665063Y-11222436D01*
X13665063Y-11222436D02*
X13655539Y-11203388D01*
X13655539Y-11203388D02*
X13655539Y-11146246D01*
X13655539Y-11146246D02*
X13665063Y-11127198D01*
X13665063Y-11127198D02*
X13674587Y-11117674D01*
X13674587Y-11117674D02*
X13693634Y-11108150D01*
X13693634Y-11108150D02*
X13722206Y-11108150D01*
X13722206Y-11108150D02*
X13741253Y-11117674D01*
X13741253Y-11117674D02*
X13750777Y-11127198D01*
X13750777Y-11127198D02*
X13760301Y-11146246D01*
X13760301Y-11146246D02*
X13760301Y-11203388D01*
X13760301Y-11203388D02*
X13750777Y-11222436D01*
X13750777Y-11222436D02*
X13741253Y-11231960D01*
X13741253Y-11231960D02*
X13722206Y-11241484D01*
X13722206Y-11241484D02*
X13693634Y-11241484D01*
X13874587Y-11241484D02*
X13855539Y-11231960D01*
X13855539Y-11231960D02*
X13846015Y-11212912D01*
X13846015Y-11212912D02*
X13846015Y-11041484D01*
X14026968Y-11231960D02*
X14007920Y-11241484D01*
X14007920Y-11241484D02*
X13969825Y-11241484D01*
X13969825Y-11241484D02*
X13950777Y-11231960D01*
X13950777Y-11231960D02*
X13941253Y-11212912D01*
X13941253Y-11212912D02*
X13941253Y-11136722D01*
X13941253Y-11136722D02*
X13950777Y-11117674D01*
X13950777Y-11117674D02*
X13969825Y-11108150D01*
X13969825Y-11108150D02*
X14007920Y-11108150D01*
X14007920Y-11108150D02*
X14026968Y-11117674D01*
X14026968Y-11117674D02*
X14036491Y-11136722D01*
X14036491Y-11136722D02*
X14036491Y-11155770D01*
X14036491Y-11155770D02*
X13941253Y-11174817D01*
X14112682Y-11231960D02*
X14131730Y-11241484D01*
X14131730Y-11241484D02*
X14169825Y-11241484D01*
X14169825Y-11241484D02*
X14188872Y-11231960D01*
X14188872Y-11231960D02*
X14198396Y-11212912D01*
X14198396Y-11212912D02*
X14198396Y-11203388D01*
X14198396Y-11203388D02*
X14188872Y-11184341D01*
X14188872Y-11184341D02*
X14169825Y-11174817D01*
X14169825Y-11174817D02*
X14141253Y-11174817D01*
X14141253Y-11174817D02*
X14122206Y-11165293D01*
X14122206Y-11165293D02*
X14112682Y-11146246D01*
X14112682Y-11146246D02*
X14112682Y-11136722D01*
X14112682Y-11136722D02*
X14122206Y-11117674D01*
X14122206Y-11117674D02*
X14141253Y-11108150D01*
X14141253Y-11108150D02*
X14169825Y-11108150D01*
X14169825Y-11108150D02*
X14188872Y-11117674D01*
X14265063Y-11317674D02*
X14274587Y-11308150D01*
X14274587Y-11308150D02*
X14293634Y-11279579D01*
X14293634Y-11279579D02*
X14303158Y-11260531D01*
X14303158Y-11260531D02*
X14312682Y-11231960D01*
X14312682Y-11231960D02*
X14322206Y-11184341D01*
X14322206Y-11184341D02*
X14322206Y-11146246D01*
X14322206Y-11146246D02*
X14312682Y-11098627D01*
X14312682Y-11098627D02*
X14303158Y-11070055D01*
X14303158Y-11070055D02*
X14293634Y-11051008D01*
X14293634Y-11051008D02*
X14274587Y-11022436D01*
X14274587Y-11022436D02*
X14265063Y-11012912D01*
X14626968Y-11317674D02*
X14617444Y-11308150D01*
X14617444Y-11308150D02*
X14598396Y-11279579D01*
X14598396Y-11279579D02*
X14588872Y-11260531D01*
X14588872Y-11260531D02*
X14579349Y-11231960D01*
X14579349Y-11231960D02*
X14569825Y-11184341D01*
X14569825Y-11184341D02*
X14569825Y-11146246D01*
X14569825Y-11146246D02*
X14579349Y-11098627D01*
X14579349Y-11098627D02*
X14588872Y-11070055D01*
X14588872Y-11070055D02*
X14598396Y-11051008D01*
X14598396Y-11051008D02*
X14617444Y-11022436D01*
X14617444Y-11022436D02*
X14626968Y-11012912D01*
X14703158Y-11108150D02*
X14703158Y-11241484D01*
X14703158Y-11127198D02*
X14712682Y-11117674D01*
X14712682Y-11117674D02*
X14731730Y-11108150D01*
X14731730Y-11108150D02*
X14760301Y-11108150D01*
X14760301Y-11108150D02*
X14779349Y-11117674D01*
X14779349Y-11117674D02*
X14788872Y-11136722D01*
X14788872Y-11136722D02*
X14788872Y-11241484D01*
X14912682Y-11241484D02*
X14893634Y-11231960D01*
X14893634Y-11231960D02*
X14884111Y-11222436D01*
X14884111Y-11222436D02*
X14874587Y-11203388D01*
X14874587Y-11203388D02*
X14874587Y-11146246D01*
X14874587Y-11146246D02*
X14884111Y-11127198D01*
X14884111Y-11127198D02*
X14893634Y-11117674D01*
X14893634Y-11117674D02*
X14912682Y-11108150D01*
X14912682Y-11108150D02*
X14941253Y-11108150D01*
X14941253Y-11108150D02*
X14960301Y-11117674D01*
X14960301Y-11117674D02*
X14969825Y-11127198D01*
X14969825Y-11127198D02*
X14979349Y-11146246D01*
X14979349Y-11146246D02*
X14979349Y-11203388D01*
X14979349Y-11203388D02*
X14969825Y-11222436D01*
X14969825Y-11222436D02*
X14960301Y-11231960D01*
X14960301Y-11231960D02*
X14941253Y-11241484D01*
X14941253Y-11241484D02*
X14912682Y-11241484D01*
X15036492Y-11108150D02*
X15112682Y-11108150D01*
X15065063Y-11041484D02*
X15065063Y-11212912D01*
X15065063Y-11212912D02*
X15074587Y-11231960D01*
X15074587Y-11231960D02*
X15093634Y-11241484D01*
X15093634Y-11241484D02*
X15112682Y-11241484D01*
X15331730Y-11108150D02*
X15331730Y-11308150D01*
X15331730Y-11117674D02*
X15350777Y-11108150D01*
X15350777Y-11108150D02*
X15388873Y-11108150D01*
X15388873Y-11108150D02*
X15407920Y-11117674D01*
X15407920Y-11117674D02*
X15417444Y-11127198D01*
X15417444Y-11127198D02*
X15426968Y-11146246D01*
X15426968Y-11146246D02*
X15426968Y-11203388D01*
X15426968Y-11203388D02*
X15417444Y-11222436D01*
X15417444Y-11222436D02*
X15407920Y-11231960D01*
X15407920Y-11231960D02*
X15388873Y-11241484D01*
X15388873Y-11241484D02*
X15350777Y-11241484D01*
X15350777Y-11241484D02*
X15331730Y-11231960D01*
X15541253Y-11241484D02*
X15522206Y-11231960D01*
X15522206Y-11231960D02*
X15512682Y-11212912D01*
X15512682Y-11212912D02*
X15512682Y-11041484D01*
X15703158Y-11241484D02*
X15703158Y-11136722D01*
X15703158Y-11136722D02*
X15693634Y-11117674D01*
X15693634Y-11117674D02*
X15674587Y-11108150D01*
X15674587Y-11108150D02*
X15636492Y-11108150D01*
X15636492Y-11108150D02*
X15617444Y-11117674D01*
X15703158Y-11231960D02*
X15684111Y-11241484D01*
X15684111Y-11241484D02*
X15636492Y-11241484D01*
X15636492Y-11241484D02*
X15617444Y-11231960D01*
X15617444Y-11231960D02*
X15607920Y-11212912D01*
X15607920Y-11212912D02*
X15607920Y-11193865D01*
X15607920Y-11193865D02*
X15617444Y-11174817D01*
X15617444Y-11174817D02*
X15636492Y-11165293D01*
X15636492Y-11165293D02*
X15684111Y-11165293D01*
X15684111Y-11165293D02*
X15703158Y-11155770D01*
X15769825Y-11108150D02*
X15846015Y-11108150D01*
X15798396Y-11041484D02*
X15798396Y-11212912D01*
X15798396Y-11212912D02*
X15807920Y-11231960D01*
X15807920Y-11231960D02*
X15826968Y-11241484D01*
X15826968Y-11241484D02*
X15846015Y-11241484D01*
X15988873Y-11231960D02*
X15969825Y-11241484D01*
X15969825Y-11241484D02*
X15931730Y-11241484D01*
X15931730Y-11241484D02*
X15912682Y-11231960D01*
X15912682Y-11231960D02*
X15903158Y-11212912D01*
X15903158Y-11212912D02*
X15903158Y-11136722D01*
X15903158Y-11136722D02*
X15912682Y-11117674D01*
X15912682Y-11117674D02*
X15931730Y-11108150D01*
X15931730Y-11108150D02*
X15969825Y-11108150D01*
X15969825Y-11108150D02*
X15988873Y-11117674D01*
X15988873Y-11117674D02*
X15998396Y-11136722D01*
X15998396Y-11136722D02*
X15998396Y-11155770D01*
X15998396Y-11155770D02*
X15903158Y-11174817D01*
X16169825Y-11241484D02*
X16169825Y-11041484D01*
X16169825Y-11231960D02*
X16150777Y-11241484D01*
X16150777Y-11241484D02*
X16112682Y-11241484D01*
X16112682Y-11241484D02*
X16093634Y-11231960D01*
X16093634Y-11231960D02*
X16084111Y-11222436D01*
X16084111Y-11222436D02*
X16074587Y-11203388D01*
X16074587Y-11203388D02*
X16074587Y-11146246D01*
X16074587Y-11146246D02*
X16084111Y-11127198D01*
X16084111Y-11127198D02*
X16093634Y-11117674D01*
X16093634Y-11117674D02*
X16112682Y-11108150D01*
X16112682Y-11108150D02*
X16150777Y-11108150D01*
X16150777Y-11108150D02*
X16169825Y-11117674D01*
X16246015Y-11317674D02*
X16255539Y-11308150D01*
X16255539Y-11308150D02*
X16274587Y-11279579D01*
X16274587Y-11279579D02*
X16284111Y-11260531D01*
X16284111Y-11260531D02*
X16293634Y-11231960D01*
X16293634Y-11231960D02*
X16303158Y-11184341D01*
X16303158Y-11184341D02*
X16303158Y-11146246D01*
X16303158Y-11146246D02*
X16293634Y-11098627D01*
X16293634Y-11098627D02*
X16284111Y-11070055D01*
X16284111Y-11070055D02*
X16274587Y-11051008D01*
X16274587Y-11051008D02*
X16255539Y-11022436D01*
X16255539Y-11022436D02*
X16246015Y-11012912D01*
M02*
