%TF.GenerationSoftware,KiCad,Pcbnew,8.0.3*%
%TF.CreationDate,2024-06-21T17:49:06+08:00*%
%TF.ProjectId,LNA1690,4c4e4131-3639-4302-9e6b-696361645f70,rev?*%
%TF.SameCoordinates,Original*%
%TF.FileFunction,Soldermask,Top*%
%TF.FilePolarity,Negative*%
%FSLAX46Y46*%
G04 Gerber Fmt 4.6, Leading zero omitted, Abs format (unit mm)*
G04 Created by KiCad (PCBNEW 8.0.3) date 2024-06-21 17:49:06*
%MOMM*%
%LPD*%
G01*
G04 APERTURE LIST*
G04 Aperture macros list*
%AMRoundRect*
0 Rectangle with rounded corners*
0 $1 Rounding radius*
0 $2 $3 $4 $5 $6 $7 $8 $9 X,Y pos of 4 corners*
0 Add a 4 corners polygon primitive as box body*
4,1,4,$2,$3,$4,$5,$6,$7,$8,$9,$2,$3,0*
0 Add four circle primitives for the rounded corners*
1,1,$1+$1,$2,$3*
1,1,$1+$1,$4,$5*
1,1,$1+$1,$6,$7*
1,1,$1+$1,$8,$9*
0 Add four rect primitives between the rounded corners*
20,1,$1+$1,$2,$3,$4,$5,0*
20,1,$1+$1,$4,$5,$6,$7,0*
20,1,$1+$1,$6,$7,$8,$9,0*
20,1,$1+$1,$8,$9,$2,$3,0*%
%AMFreePoly0*
4,1,9,3.862500,-0.866500,0.737500,-0.866500,0.737500,-0.450000,-0.737500,-0.450000,-0.737500,0.450000,0.737500,0.450000,0.737500,0.866500,3.862500,0.866500,3.862500,-0.866500,3.862500,-0.866500,$1*%
G04 Aperture macros list end*
%ADD10RoundRect,0.225000X-0.225000X-0.250000X0.225000X-0.250000X0.225000X0.250000X-0.225000X0.250000X0*%
%ADD11RoundRect,0.250000X0.925000X-0.412500X0.925000X0.412500X-0.925000X0.412500X-0.925000X-0.412500X0*%
%ADD12RoundRect,0.200000X-0.200000X-0.275000X0.200000X-0.275000X0.200000X0.275000X-0.200000X0.275000X0*%
%ADD13RoundRect,0.225000X-0.425000X-0.225000X0.425000X-0.225000X0.425000X0.225000X-0.425000X0.225000X0*%
%ADD14FreePoly0,0.000000*%
%ADD15C,3.200000*%
%ADD16RoundRect,0.218750X-0.218750X-0.256250X0.218750X-0.256250X0.218750X0.256250X-0.218750X0.256250X0*%
%ADD17RoundRect,0.112500X-0.187500X-0.112500X0.187500X-0.112500X0.187500X0.112500X-0.187500X0.112500X0*%
%ADD18R,1.200000X0.800000*%
%ADD19R,0.800000X1.200000*%
%ADD20R,0.800000X1.700000*%
%ADD21RoundRect,0.375000X-0.625000X-0.375000X0.625000X-0.375000X0.625000X0.375000X-0.625000X0.375000X0*%
%ADD22RoundRect,0.500000X-0.500000X-1.400000X0.500000X-1.400000X0.500000X1.400000X-0.500000X1.400000X0*%
%ADD23C,2.050000*%
%ADD24C,2.250000*%
%ADD25RoundRect,0.218750X0.218750X0.256250X-0.218750X0.256250X-0.218750X-0.256250X0.218750X-0.256250X0*%
%ADD26RoundRect,0.200000X0.200000X0.275000X-0.200000X0.275000X-0.200000X-0.275000X0.200000X-0.275000X0*%
%ADD27RoundRect,0.250000X-0.412500X-0.925000X0.412500X-0.925000X0.412500X0.925000X-0.412500X0.925000X0*%
%ADD28R,3.000000X3.000000*%
%ADD29C,3.000000*%
G04 APERTURE END LIST*
D10*
%TO.C,C7*%
X156950000Y-83000000D03*
X158500000Y-83000000D03*
%TD*%
D11*
%TO.C,C2*%
X118500000Y-67000000D03*
X118500000Y-63925000D03*
%TD*%
%TO.C,C4*%
X114000000Y-66962500D03*
X114000000Y-63887500D03*
%TD*%
D12*
%TO.C,R1*%
X125850000Y-81155000D03*
X127500000Y-81155000D03*
%TD*%
D10*
%TO.C,C3*%
X116725000Y-88500000D03*
X118275000Y-88500000D03*
%TD*%
D11*
%TO.C,C5*%
X123000000Y-67037500D03*
X123000000Y-63962500D03*
%TD*%
D12*
%TO.C,R5*%
X144675000Y-84790000D03*
X146325000Y-84790000D03*
%TD*%
D13*
%TO.C,U4*%
X131350000Y-81500000D03*
D14*
X131437500Y-83000000D03*
D13*
X131350000Y-84500000D03*
%TD*%
D10*
%TO.C,C6*%
X135450000Y-88500000D03*
X137000000Y-88500000D03*
%TD*%
D15*
%TO.C,H3*%
X166500000Y-101500000D03*
%TD*%
D16*
%TO.C,L4*%
X150712500Y-73500000D03*
X152287500Y-73500000D03*
%TD*%
%TO.C,L3*%
X131142500Y-88500000D03*
X132717500Y-88500000D03*
%TD*%
D15*
%TO.C,H2*%
X166500000Y-63500000D03*
%TD*%
D12*
%TO.C,R4*%
X144675000Y-81155000D03*
X146325000Y-81155000D03*
%TD*%
D17*
%TO.C,D4*%
X146112500Y-73500000D03*
X148212500Y-73500000D03*
%TD*%
%TO.C,D1*%
X141612500Y-73500000D03*
X143712500Y-73500000D03*
%TD*%
D18*
%TO.C,U5*%
X138450000Y-81405000D03*
X138450000Y-82675000D03*
X138450000Y-83945000D03*
D19*
X139850000Y-84075000D03*
D18*
X141250000Y-83945000D03*
X141250000Y-82675000D03*
X141250000Y-81405000D03*
D20*
X139850000Y-81525000D03*
%TD*%
D16*
%TO.C,L5*%
X147212500Y-88500000D03*
X148787500Y-88500000D03*
%TD*%
D10*
%TO.C,C9*%
X122537500Y-71000000D03*
X124087500Y-71000000D03*
%TD*%
D21*
%TO.C,U2*%
X129850000Y-64200000D03*
X129850000Y-66500000D03*
D22*
X136150000Y-66500000D03*
D21*
X129850000Y-68800000D03*
%TD*%
D16*
%TO.C,L1*%
X112242500Y-88500000D03*
X113817500Y-88500000D03*
%TD*%
D23*
%TO.C,J3*%
X165460000Y-82500000D03*
D24*
X162920000Y-79960000D03*
X162920000Y-85040000D03*
X168000000Y-79960000D03*
X168000000Y-85040000D03*
%TD*%
D10*
%TO.C,C1*%
X106725000Y-83000000D03*
X108275000Y-83000000D03*
%TD*%
D18*
%TO.C,U3*%
X119700000Y-81405000D03*
X119700000Y-82675000D03*
X119700000Y-83945000D03*
D19*
X121100000Y-84075000D03*
D18*
X122500000Y-83945000D03*
X122500000Y-82675000D03*
X122500000Y-81405000D03*
D20*
X121100000Y-81525000D03*
%TD*%
D25*
%TO.C,D3*%
X113287500Y-74000000D03*
X111712500Y-74000000D03*
%TD*%
D16*
%TO.C,L2*%
X111712500Y-71000000D03*
X113287500Y-71000000D03*
%TD*%
D17*
%TO.C,D2*%
X107450000Y-67000000D03*
X109550000Y-67000000D03*
%TD*%
D26*
%TO.C,R2*%
X109325000Y-71000000D03*
X107675000Y-71000000D03*
%TD*%
D27*
%TO.C,C8*%
X116462500Y-72500000D03*
X119537500Y-72500000D03*
%TD*%
D13*
%TO.C,U1*%
X112450000Y-81500000D03*
D14*
X112537500Y-83000000D03*
D13*
X112450000Y-84500000D03*
%TD*%
D15*
%TO.C,H4*%
X98500000Y-101500000D03*
%TD*%
D10*
%TO.C,C10*%
X122537500Y-74000000D03*
X124087500Y-74000000D03*
%TD*%
D15*
%TO.C,H1*%
X98500000Y-63500000D03*
%TD*%
D28*
%TO.C,J1*%
X144420000Y-64000000D03*
D29*
X149500000Y-64000000D03*
%TD*%
D13*
%TO.C,U6*%
X150000000Y-81500000D03*
D14*
X150087500Y-83000000D03*
D13*
X150000000Y-84500000D03*
%TD*%
D12*
%TO.C,R3*%
X125850000Y-84790000D03*
X127500000Y-84790000D03*
%TD*%
D23*
%TO.C,J2*%
X99500000Y-82500000D03*
D24*
X96960000Y-79960000D03*
X96960000Y-85040000D03*
X102040000Y-79960000D03*
X102040000Y-85040000D03*
%TD*%
M02*
