%TF.GenerationSoftware,KiCad,Pcbnew,8.0.3*%
%TF.CreationDate,2024-06-21T17:49:06+08:00*%
%TF.ProjectId,LNA1690,4c4e4131-3639-4302-9e6b-696361645f70,rev?*%
%TF.SameCoordinates,Original*%
%TF.FileFunction,Copper,L1,Top*%
%TF.FilePolarity,Positive*%
%FSLAX46Y46*%
G04 Gerber Fmt 4.6, Leading zero omitted, Abs format (unit mm)*
G04 Created by KiCad (PCBNEW 8.0.3) date 2024-06-21 17:49:06*
%MOMM*%
%LPD*%
G01*
G04 APERTURE LIST*
G04 Aperture macros list*
%AMRoundRect*
0 Rectangle with rounded corners*
0 $1 Rounding radius*
0 $2 $3 $4 $5 $6 $7 $8 $9 X,Y pos of 4 corners*
0 Add a 4 corners polygon primitive as box body*
4,1,4,$2,$3,$4,$5,$6,$7,$8,$9,$2,$3,0*
0 Add four circle primitives for the rounded corners*
1,1,$1+$1,$2,$3*
1,1,$1+$1,$4,$5*
1,1,$1+$1,$6,$7*
1,1,$1+$1,$8,$9*
0 Add four rect primitives between the rounded corners*
20,1,$1+$1,$2,$3,$4,$5,0*
20,1,$1+$1,$4,$5,$6,$7,0*
20,1,$1+$1,$6,$7,$8,$9,0*
20,1,$1+$1,$8,$9,$2,$3,0*%
%AMFreePoly0*
4,1,9,3.862500,-0.866500,0.737500,-0.866500,0.737500,-0.450000,-0.737500,-0.450000,-0.737500,0.450000,0.737500,0.450000,0.737500,0.866500,3.862500,0.866500,3.862500,-0.866500,3.862500,-0.866500,$1*%
G04 Aperture macros list end*
%TA.AperFunction,SMDPad,CuDef*%
%ADD10RoundRect,0.225000X-0.225000X-0.250000X0.225000X-0.250000X0.225000X0.250000X-0.225000X0.250000X0*%
%TD*%
%TA.AperFunction,SMDPad,CuDef*%
%ADD11RoundRect,0.250000X0.925000X-0.412500X0.925000X0.412500X-0.925000X0.412500X-0.925000X-0.412500X0*%
%TD*%
%TA.AperFunction,SMDPad,CuDef*%
%ADD12RoundRect,0.200000X-0.200000X-0.275000X0.200000X-0.275000X0.200000X0.275000X-0.200000X0.275000X0*%
%TD*%
%TA.AperFunction,SMDPad,CuDef*%
%ADD13RoundRect,0.225000X-0.425000X-0.225000X0.425000X-0.225000X0.425000X0.225000X-0.425000X0.225000X0*%
%TD*%
%TA.AperFunction,SMDPad,CuDef*%
%ADD14FreePoly0,0.000000*%
%TD*%
%TA.AperFunction,SMDPad,CuDef*%
%ADD15RoundRect,0.218750X-0.218750X-0.256250X0.218750X-0.256250X0.218750X0.256250X-0.218750X0.256250X0*%
%TD*%
%TA.AperFunction,SMDPad,CuDef*%
%ADD16RoundRect,0.112500X-0.187500X-0.112500X0.187500X-0.112500X0.187500X0.112500X-0.187500X0.112500X0*%
%TD*%
%TA.AperFunction,SMDPad,CuDef*%
%ADD17R,1.200000X0.800000*%
%TD*%
%TA.AperFunction,SMDPad,CuDef*%
%ADD18R,0.800000X1.200000*%
%TD*%
%TA.AperFunction,SMDPad,CuDef*%
%ADD19R,0.800000X1.700000*%
%TD*%
%TA.AperFunction,SMDPad,CuDef*%
%ADD20RoundRect,0.375000X-0.625000X-0.375000X0.625000X-0.375000X0.625000X0.375000X-0.625000X0.375000X0*%
%TD*%
%TA.AperFunction,SMDPad,CuDef*%
%ADD21RoundRect,0.500000X-0.500000X-1.400000X0.500000X-1.400000X0.500000X1.400000X-0.500000X1.400000X0*%
%TD*%
%TA.AperFunction,ComponentPad*%
%ADD22C,2.050000*%
%TD*%
%TA.AperFunction,ComponentPad*%
%ADD23C,2.250000*%
%TD*%
%TA.AperFunction,SMDPad,CuDef*%
%ADD24RoundRect,0.218750X0.218750X0.256250X-0.218750X0.256250X-0.218750X-0.256250X0.218750X-0.256250X0*%
%TD*%
%TA.AperFunction,SMDPad,CuDef*%
%ADD25RoundRect,0.200000X0.200000X0.275000X-0.200000X0.275000X-0.200000X-0.275000X0.200000X-0.275000X0*%
%TD*%
%TA.AperFunction,SMDPad,CuDef*%
%ADD26RoundRect,0.250000X-0.412500X-0.925000X0.412500X-0.925000X0.412500X0.925000X-0.412500X0.925000X0*%
%TD*%
%TA.AperFunction,ComponentPad*%
%ADD27R,3.000000X3.000000*%
%TD*%
%TA.AperFunction,ComponentPad*%
%ADD28C,3.000000*%
%TD*%
%TA.AperFunction,ViaPad*%
%ADD29C,0.600000*%
%TD*%
%TA.AperFunction,Conductor*%
%ADD30C,0.500000*%
%TD*%
G04 APERTURE END LIST*
D10*
%TO.P,C7,1*%
%TO.N,Net-(U6-OUT)*%
X156950000Y-83000000D03*
%TO.P,C7,2*%
%TO.N,/RF_OUT*%
X158500000Y-83000000D03*
%TD*%
D11*
%TO.P,C2,1*%
%TO.N,VCC*%
X118500000Y-67000000D03*
%TO.P,C2,2*%
%TO.N,GND*%
X118500000Y-63925000D03*
%TD*%
%TO.P,C4,1*%
%TO.N,Net-(D2-A)*%
X114000000Y-66962500D03*
%TO.P,C4,2*%
%TO.N,GND*%
X114000000Y-63887500D03*
%TD*%
D12*
%TO.P,R1,1*%
%TO.N,GND*%
X125850000Y-81155000D03*
%TO.P,R1,2*%
%TO.N,Net-(U3-INPUT_1)*%
X127500000Y-81155000D03*
%TD*%
D10*
%TO.P,C3,1*%
%TO.N,Net-(U1-OUT)*%
X116725000Y-88500000D03*
%TO.P,C3,2*%
%TO.N,Net-(U3-INPUT_2)*%
X118275000Y-88500000D03*
%TD*%
D11*
%TO.P,C5,1*%
%TO.N,+5V*%
X123000000Y-67037500D03*
%TO.P,C5,2*%
%TO.N,GND*%
X123000000Y-63962500D03*
%TD*%
D12*
%TO.P,R5,1*%
%TO.N,Net-(U5-OUTPUT_1)*%
X144675000Y-84790000D03*
%TO.P,R5,2*%
%TO.N,GND*%
X146325000Y-84790000D03*
%TD*%
D13*
%TO.P,U4,1,IN*%
%TO.N,Net-(U3-OUTPUT_2)*%
X131350000Y-81500000D03*
D14*
%TO.P,U4,2,GND*%
%TO.N,GND*%
X131437500Y-83000000D03*
D13*
%TO.P,U4,3,OUT*%
%TO.N,Net-(U4-OUT)*%
X131350000Y-84500000D03*
%TD*%
D10*
%TO.P,C6,1*%
%TO.N,Net-(U4-OUT)*%
X135450000Y-88500000D03*
%TO.P,C6,2*%
%TO.N,Net-(U5-INPUT_2)*%
X137000000Y-88500000D03*
%TD*%
D15*
%TO.P,L4,1*%
%TO.N,Net-(D4-A)*%
X150712500Y-73500000D03*
%TO.P,L4,2*%
%TO.N,/RF_OUT*%
X152287500Y-73500000D03*
%TD*%
%TO.P,L3,1*%
%TO.N,+5V*%
X131142500Y-88500000D03*
%TO.P,L3,2*%
%TO.N,Net-(U4-OUT)*%
X132717500Y-88500000D03*
%TD*%
D12*
%TO.P,R4,1*%
%TO.N,GND*%
X144675000Y-81155000D03*
%TO.P,R4,2*%
%TO.N,Net-(U5-INPUT_1)*%
X146325000Y-81155000D03*
%TD*%
D16*
%TO.P,D4,1,K*%
%TO.N,+5V*%
X146112500Y-73500000D03*
%TO.P,D4,2,A*%
%TO.N,Net-(D4-A)*%
X148212500Y-73500000D03*
%TD*%
%TO.P,D1,1,K*%
%TO.N,VCC*%
X141612500Y-73500000D03*
%TO.P,D1,2,A*%
%TO.N,Net-(D1-A)*%
X143712500Y-73500000D03*
%TD*%
D17*
%TO.P,U5,1,INPUT_1*%
%TO.N,Net-(U5-INPUT_1)*%
X138450000Y-81405000D03*
%TO.P,U5,2,INPUT_2*%
%TO.N,Net-(U5-INPUT_2)*%
X138450000Y-82675000D03*
%TO.P,U5,3,GND*%
%TO.N,GND*%
X138450000Y-83945000D03*
D18*
%TO.P,U5,4,GND*%
X139850000Y-84075000D03*
D17*
%TO.P,U5,5,OUTPUT_1*%
%TO.N,Net-(U5-OUTPUT_1)*%
X141250000Y-83945000D03*
%TO.P,U5,6,OUTPUT_2*%
%TO.N,Net-(U5-OUTPUT_2)*%
X141250000Y-82675000D03*
%TO.P,U5,7,GND*%
%TO.N,GND*%
X141250000Y-81405000D03*
D19*
%TO.P,U5,8,GND*%
X139850000Y-81525000D03*
%TD*%
D15*
%TO.P,L5,1*%
%TO.N,+5V*%
X147212500Y-88500000D03*
%TO.P,L5,2*%
%TO.N,Net-(U6-OUT)*%
X148787500Y-88500000D03*
%TD*%
D10*
%TO.P,C9,1*%
%TO.N,+5V*%
X122537500Y-71000000D03*
%TO.P,C9,2*%
%TO.N,GND*%
X124087500Y-71000000D03*
%TD*%
D20*
%TO.P,U2,1,GND*%
%TO.N,GND*%
X129850000Y-64200000D03*
%TO.P,U2,2,VO*%
%TO.N,Net-(D2-A)*%
X129850000Y-66500000D03*
D21*
X136150000Y-66500000D03*
D20*
%TO.P,U2,3,VI*%
%TO.N,VCC*%
X129850000Y-68800000D03*
%TD*%
D15*
%TO.P,L1,1*%
%TO.N,+5V*%
X112242500Y-88500000D03*
%TO.P,L1,2*%
%TO.N,Net-(U1-OUT)*%
X113817500Y-88500000D03*
%TD*%
D22*
%TO.P,J3,1,In*%
%TO.N,/RF_OUT*%
X165460000Y-82500000D03*
D23*
%TO.P,J3,2,Ext*%
%TO.N,GND*%
X162920000Y-79960000D03*
X162920000Y-85040000D03*
X168000000Y-79960000D03*
X168000000Y-85040000D03*
%TD*%
D10*
%TO.P,C1,1*%
%TO.N,Net-(J2-In)*%
X106725000Y-83000000D03*
%TO.P,C1,2*%
%TO.N,Net-(U1-IN)*%
X108275000Y-83000000D03*
%TD*%
D17*
%TO.P,U3,1,INPUT_1*%
%TO.N,Net-(U3-INPUT_1)*%
X119700000Y-81405000D03*
%TO.P,U3,2,INPUT_2*%
%TO.N,Net-(U3-INPUT_2)*%
X119700000Y-82675000D03*
%TO.P,U3,3,GND*%
%TO.N,GND*%
X119700000Y-83945000D03*
D18*
%TO.P,U3,4,GND*%
X121100000Y-84075000D03*
D17*
%TO.P,U3,5,OUTPUT_1*%
%TO.N,Net-(U3-OUTPUT_1)*%
X122500000Y-83945000D03*
%TO.P,U3,6,OUTPUT_2*%
%TO.N,Net-(U3-OUTPUT_2)*%
X122500000Y-82675000D03*
%TO.P,U3,7,GND*%
%TO.N,GND*%
X122500000Y-81405000D03*
D19*
%TO.P,U3,8,GND*%
X121100000Y-81525000D03*
%TD*%
D24*
%TO.P,D3,1,K*%
%TO.N,GND*%
X113287500Y-74000000D03*
%TO.P,D3,2,A*%
%TO.N,Net-(D3-A)*%
X111712500Y-74000000D03*
%TD*%
D15*
%TO.P,L2,1*%
%TO.N,Net-(D2-K)*%
X111712500Y-71000000D03*
%TO.P,L2,2*%
%TO.N,+5V*%
X113287500Y-71000000D03*
%TD*%
D16*
%TO.P,D2,1,K*%
%TO.N,Net-(D2-K)*%
X107450000Y-67000000D03*
%TO.P,D2,2,A*%
%TO.N,Net-(D2-A)*%
X109550000Y-67000000D03*
%TD*%
D25*
%TO.P,R2,1*%
%TO.N,Net-(D2-K)*%
X109325000Y-71000000D03*
%TO.P,R2,2*%
%TO.N,Net-(D3-A)*%
X107675000Y-71000000D03*
%TD*%
D26*
%TO.P,C8,1*%
%TO.N,+5V*%
X116462500Y-72500000D03*
%TO.P,C8,2*%
%TO.N,GND*%
X119537500Y-72500000D03*
%TD*%
D13*
%TO.P,U1,1,IN*%
%TO.N,Net-(U1-IN)*%
X112450000Y-81500000D03*
D14*
%TO.P,U1,2,GND*%
%TO.N,GND*%
X112537500Y-83000000D03*
D13*
%TO.P,U1,3,OUT*%
%TO.N,Net-(U1-OUT)*%
X112450000Y-84500000D03*
%TD*%
D10*
%TO.P,C10,1*%
%TO.N,+5V*%
X122537500Y-74000000D03*
%TO.P,C10,2*%
%TO.N,GND*%
X124087500Y-74000000D03*
%TD*%
D27*
%TO.P,J1,1,Pin_1*%
%TO.N,Net-(D1-A)*%
X144420000Y-64000000D03*
D28*
%TO.P,J1,2,Pin_2*%
%TO.N,GND*%
X149500000Y-64000000D03*
%TD*%
D13*
%TO.P,U6,1,IN*%
%TO.N,Net-(U5-OUTPUT_2)*%
X150000000Y-81500000D03*
D14*
%TO.P,U6,2,GND*%
%TO.N,GND*%
X150087500Y-83000000D03*
D13*
%TO.P,U6,3,OUT*%
%TO.N,Net-(U6-OUT)*%
X150000000Y-84500000D03*
%TD*%
D12*
%TO.P,R3,1*%
%TO.N,Net-(U3-OUTPUT_1)*%
X125850000Y-84790000D03*
%TO.P,R3,2*%
%TO.N,GND*%
X127500000Y-84790000D03*
%TD*%
D22*
%TO.P,J2,1,In*%
%TO.N,Net-(J2-In)*%
X99500000Y-82500000D03*
D23*
%TO.P,J2,2,Ext*%
%TO.N,GND*%
X96960000Y-79960000D03*
X96960000Y-85040000D03*
X102040000Y-79960000D03*
X102040000Y-85040000D03*
%TD*%
D29*
%TO.N,GND*%
X142500000Y-80000000D03*
%TO.N,+5V*%
X144000000Y-75500000D03*
X146000000Y-86500000D03*
%TD*%
D30*
%TO.N,Net-(D4-A)*%
X150712500Y-73500000D02*
X148212500Y-73500000D01*
%TO.N,/RF_OUT*%
X152287500Y-73500000D02*
X162500000Y-73500000D01*
X162500000Y-73500000D02*
X165460000Y-76460000D01*
X165460000Y-76460000D02*
X165460000Y-82500000D01*
%TO.N,Net-(J2-In)*%
X106725000Y-83000000D02*
X100000000Y-83000000D01*
X100000000Y-83000000D02*
X99500000Y-82500000D01*
%TO.N,Net-(U1-IN)*%
X108275000Y-83000000D02*
X109775000Y-81500000D01*
X109775000Y-81500000D02*
X112450000Y-81500000D01*
%TO.N,VCC*%
X126975000Y-65925000D02*
X129850000Y-68800000D01*
X119575000Y-65925000D02*
X126975000Y-65925000D01*
X118500000Y-67000000D02*
X119575000Y-65925000D01*
%TO.N,GND*%
X121100000Y-81525000D02*
X121100000Y-84075000D01*
X139850000Y-84075000D02*
X139850000Y-81525000D01*
%TO.N,Net-(U1-OUT)*%
X112450000Y-87132500D02*
X113817500Y-88500000D01*
X116725000Y-88500000D02*
X113817500Y-88500000D01*
X112450000Y-84500000D02*
X112450000Y-87132500D01*
%TO.N,Net-(U3-INPUT_2)*%
X118275000Y-83000000D02*
X118275000Y-88500000D01*
X118600000Y-82675000D02*
X118275000Y-83000000D01*
X119700000Y-82675000D02*
X118600000Y-82675000D01*
%TO.N,Net-(D2-A)*%
X114000000Y-66962500D02*
X115737500Y-65225000D01*
X109550000Y-67000000D02*
X113962500Y-67000000D01*
X115737500Y-65225000D02*
X128575000Y-65225000D01*
X136150000Y-66500000D02*
X129850000Y-66500000D01*
X113962500Y-67000000D02*
X114000000Y-66962500D01*
X128575000Y-65225000D02*
X129850000Y-66500000D01*
%TO.N,+5V*%
X146287500Y-89425000D02*
X132067500Y-89425000D01*
X118828122Y-74125000D02*
X122412500Y-74125000D01*
X122412500Y-74125000D02*
X122537500Y-74000000D01*
X132067500Y-89425000D02*
X131142500Y-88500000D01*
X122537500Y-71000000D02*
X122537500Y-67500000D01*
X131142500Y-88500000D02*
X130217500Y-89425000D01*
X114787500Y-72500000D02*
X113287500Y-71000000D01*
X116462500Y-72500000D02*
X114787500Y-72500000D01*
X117203122Y-72500000D02*
X118828122Y-74125000D01*
X130217500Y-89425000D02*
X113167500Y-89425000D01*
X122537500Y-71000000D02*
X122537500Y-74000000D01*
X147212500Y-87712500D02*
X146000000Y-86500000D01*
X116462500Y-72500000D02*
X117203122Y-72500000D01*
X147212500Y-88500000D02*
X146287500Y-89425000D01*
X147212500Y-88500000D02*
X147212500Y-87712500D01*
X122537500Y-67500000D02*
X123000000Y-67037500D01*
X113167500Y-89425000D02*
X112242500Y-88500000D01*
%TO.N,Net-(U5-INPUT_2)*%
X137350000Y-82675000D02*
X138450000Y-82675000D01*
X137000000Y-88500000D02*
X137000000Y-83025000D01*
X137000000Y-83025000D02*
X137350000Y-82675000D01*
%TO.N,Net-(U4-OUT)*%
X132717500Y-88500000D02*
X135450000Y-88500000D01*
X131350000Y-84500000D02*
X131350000Y-87132500D01*
X131350000Y-87132500D02*
X132717500Y-88500000D01*
%TO.N,Net-(U6-OUT)*%
X148787500Y-85712500D02*
X150000000Y-84500000D01*
X156950000Y-83000000D02*
X155450000Y-84500000D01*
X155450000Y-84500000D02*
X150000000Y-84500000D01*
X148787500Y-88500000D02*
X148787500Y-85712500D01*
%TO.N,/RF_OUT*%
X164960000Y-83000000D02*
X165460000Y-82500000D01*
X158500000Y-83000000D02*
X164960000Y-83000000D01*
%TO.N,Net-(D2-K)*%
X107450000Y-67000000D02*
X107450000Y-69125000D01*
X111712500Y-71000000D02*
X109325000Y-71000000D01*
X107450000Y-69125000D02*
X109325000Y-71000000D01*
%TO.N,Net-(D3-A)*%
X107675000Y-71000000D02*
X107675000Y-72175000D01*
X109500000Y-74000000D02*
X111712500Y-74000000D01*
X107675000Y-72175000D02*
X109500000Y-74000000D01*
%TO.N,Net-(U3-INPUT_1)*%
X121000000Y-78500000D02*
X119700000Y-79800000D01*
X119700000Y-79800000D02*
X119700000Y-81405000D01*
X126500000Y-78500000D02*
X121000000Y-78500000D01*
X127500000Y-81155000D02*
X127500000Y-79500000D01*
X127500000Y-79500000D02*
X126500000Y-78500000D01*
%TO.N,Net-(U3-OUTPUT_1)*%
X123345000Y-84790000D02*
X122500000Y-83945000D01*
X125850000Y-84790000D02*
X123345000Y-84790000D01*
%TO.N,Net-(U5-INPUT_1)*%
X145500000Y-78500000D02*
X139500000Y-78500000D01*
X146325000Y-81155000D02*
X146325000Y-79325000D01*
X146325000Y-79325000D02*
X145500000Y-78500000D01*
X139500000Y-78500000D02*
X138450000Y-79550000D01*
X138450000Y-79550000D02*
X138450000Y-81405000D01*
%TO.N,Net-(U5-OUTPUT_1)*%
X144675000Y-84790000D02*
X142095000Y-84790000D01*
X142095000Y-84790000D02*
X141250000Y-83945000D01*
%TO.N,Net-(U3-OUTPUT_2)*%
X128325000Y-82675000D02*
X129500000Y-81500000D01*
X129500000Y-81500000D02*
X131350000Y-81500000D01*
X122500000Y-82675000D02*
X128325000Y-82675000D01*
%TO.N,Net-(U5-OUTPUT_2)*%
X148000000Y-81500000D02*
X150000000Y-81500000D01*
X146825000Y-82675000D02*
X148000000Y-81500000D01*
X141250000Y-82675000D02*
X146825000Y-82675000D01*
%TO.N,VCC*%
X134550000Y-73500000D02*
X129850000Y-68800000D01*
X141612500Y-73500000D02*
X134550000Y-73500000D01*
%TO.N,Net-(D1-A)*%
X143712500Y-64707500D02*
X144420000Y-64000000D01*
X143712500Y-73500000D02*
X143712500Y-64707500D01*
%TO.N,+5V*%
X146112500Y-73500000D02*
X146112500Y-74387500D01*
X146112500Y-74387500D02*
X145000000Y-75500000D01*
X145000000Y-75500000D02*
X144000000Y-75500000D01*
X144000000Y-75500000D02*
X124037500Y-75500000D01*
X124037500Y-75500000D02*
X122537500Y-74000000D01*
%TD*%
%TA.AperFunction,Conductor*%
%TO.N,GND*%
G36*
X169442539Y-60520185D02*
G01*
X169488294Y-60572989D01*
X169499500Y-60624500D01*
X169499500Y-78877442D01*
X169479815Y-78944481D01*
X169427011Y-78990236D01*
X169369732Y-78998471D01*
X169369664Y-79000218D01*
X169360181Y-78999845D01*
X169357853Y-79000180D01*
X169356831Y-78999713D01*
X169315465Y-78998087D01*
X168754114Y-79559437D01*
X168753260Y-79557374D01*
X168660238Y-79418156D01*
X168541844Y-79299762D01*
X168402626Y-79206740D01*
X168400561Y-79205884D01*
X168961912Y-78644533D01*
X168958107Y-78641284D01*
X168958098Y-78641277D01*
X168740015Y-78507636D01*
X168740012Y-78507634D01*
X168503702Y-78409752D01*
X168254988Y-78350042D01*
X168254989Y-78350042D01*
X168000000Y-78329975D01*
X167745010Y-78350042D01*
X167496297Y-78409752D01*
X167259987Y-78507634D01*
X167259984Y-78507636D01*
X167041893Y-78641282D01*
X167038086Y-78644532D01*
X167599438Y-79205884D01*
X167597374Y-79206740D01*
X167458156Y-79299762D01*
X167339762Y-79418156D01*
X167246740Y-79557374D01*
X167245884Y-79559438D01*
X166684532Y-78998086D01*
X166681282Y-79001893D01*
X166547636Y-79219983D01*
X166449061Y-79457968D01*
X166405220Y-79512371D01*
X166338926Y-79534436D01*
X166271227Y-79517157D01*
X166223616Y-79466020D01*
X166210500Y-79410515D01*
X166210500Y-76386079D01*
X166181659Y-76241092D01*
X166181658Y-76241091D01*
X166181658Y-76241087D01*
X166173610Y-76221658D01*
X166125087Y-76104511D01*
X166125080Y-76104498D01*
X166042952Y-75981585D01*
X166042951Y-75981584D01*
X165938416Y-75877049D01*
X162978421Y-72917052D01*
X162978414Y-72917046D01*
X162904729Y-72867812D01*
X162904729Y-72867813D01*
X162855491Y-72834913D01*
X162718917Y-72778343D01*
X162718907Y-72778340D01*
X162573920Y-72749500D01*
X162573918Y-72749500D01*
X153080534Y-72749500D01*
X153013495Y-72729815D01*
X152992853Y-72713181D01*
X152955391Y-72675719D01*
X152955387Y-72675716D01*
X152812295Y-72587455D01*
X152812289Y-72587452D01*
X152812287Y-72587451D01*
X152652685Y-72534564D01*
X152652683Y-72534563D01*
X152554181Y-72524500D01*
X152554174Y-72524500D01*
X152020826Y-72524500D01*
X152020818Y-72524500D01*
X151922316Y-72534563D01*
X151922315Y-72534564D01*
X151843219Y-72560773D01*
X151762715Y-72587450D01*
X151762704Y-72587455D01*
X151619612Y-72675716D01*
X151619608Y-72675719D01*
X151587681Y-72707647D01*
X151526358Y-72741132D01*
X151456666Y-72736148D01*
X151412319Y-72707647D01*
X151380391Y-72675719D01*
X151380387Y-72675716D01*
X151237295Y-72587455D01*
X151237289Y-72587452D01*
X151237287Y-72587451D01*
X151077685Y-72534564D01*
X151077683Y-72534563D01*
X150979181Y-72524500D01*
X150979174Y-72524500D01*
X150445826Y-72524500D01*
X150445818Y-72524500D01*
X150347316Y-72534563D01*
X150347315Y-72534564D01*
X150268219Y-72560773D01*
X150187715Y-72587450D01*
X150187704Y-72587455D01*
X150044612Y-72675716D01*
X150044608Y-72675719D01*
X150007147Y-72713181D01*
X149945824Y-72746666D01*
X149919466Y-72749500D01*
X148138577Y-72749500D01*
X148024875Y-72772117D01*
X148000687Y-72774500D01*
X147963096Y-72774500D01*
X147928347Y-72777234D01*
X147924530Y-72778343D01*
X147779613Y-72820445D01*
X147779611Y-72820445D01*
X147779611Y-72820446D01*
X147646305Y-72899282D01*
X147646296Y-72899289D01*
X147536789Y-73008796D01*
X147536782Y-73008805D01*
X147489677Y-73088457D01*
X147457945Y-73142113D01*
X147430524Y-73236499D01*
X147414734Y-73290847D01*
X147414734Y-73290849D01*
X147412000Y-73325589D01*
X147412000Y-73674393D01*
X147412001Y-73674415D01*
X147414734Y-73709152D01*
X147414734Y-73709155D01*
X147414735Y-73709156D01*
X147457945Y-73857887D01*
X147457946Y-73857888D01*
X147536782Y-73991194D01*
X147536789Y-73991203D01*
X147646296Y-74100710D01*
X147646305Y-74100717D01*
X147661689Y-74109815D01*
X147779613Y-74179555D01*
X147928344Y-74222765D01*
X147963095Y-74225500D01*
X148000687Y-74225499D01*
X148024879Y-74227881D01*
X148049969Y-74232872D01*
X148138580Y-74250500D01*
X148138582Y-74250500D01*
X149919466Y-74250500D01*
X149986505Y-74270185D01*
X150007147Y-74286819D01*
X150044608Y-74324280D01*
X150044612Y-74324283D01*
X150187704Y-74412544D01*
X150187707Y-74412545D01*
X150187713Y-74412549D01*
X150347315Y-74465436D01*
X150445826Y-74475500D01*
X150445831Y-74475500D01*
X150979169Y-74475500D01*
X150979174Y-74475500D01*
X151077685Y-74465436D01*
X151237287Y-74412549D01*
X151380391Y-74324281D01*
X151412319Y-74292353D01*
X151473642Y-74258868D01*
X151543334Y-74263852D01*
X151587681Y-74292353D01*
X151619608Y-74324280D01*
X151619612Y-74324283D01*
X151762704Y-74412544D01*
X151762707Y-74412545D01*
X151762713Y-74412549D01*
X151922315Y-74465436D01*
X152020826Y-74475500D01*
X152020831Y-74475500D01*
X152554169Y-74475500D01*
X152554174Y-74475500D01*
X152652685Y-74465436D01*
X152812287Y-74412549D01*
X152955391Y-74324281D01*
X152992853Y-74286819D01*
X153054176Y-74253334D01*
X153080534Y-74250500D01*
X162137770Y-74250500D01*
X162204809Y-74270185D01*
X162225451Y-74286819D01*
X164673181Y-76734548D01*
X164706666Y-76795871D01*
X164709500Y-76822229D01*
X164709500Y-79410515D01*
X164689815Y-79477554D01*
X164637011Y-79523309D01*
X164567853Y-79533253D01*
X164504297Y-79504228D01*
X164470939Y-79457968D01*
X164372363Y-79219983D01*
X164238719Y-79001897D01*
X164235465Y-78998087D01*
X163674114Y-79559437D01*
X163673260Y-79557374D01*
X163580238Y-79418156D01*
X163461844Y-79299762D01*
X163322626Y-79206740D01*
X163320561Y-79205884D01*
X163881912Y-78644533D01*
X163878107Y-78641284D01*
X163878098Y-78641277D01*
X163660015Y-78507636D01*
X163660012Y-78507634D01*
X163423702Y-78409752D01*
X163174988Y-78350042D01*
X163174989Y-78350042D01*
X162920000Y-78329975D01*
X162665010Y-78350042D01*
X162416297Y-78409752D01*
X162179987Y-78507634D01*
X162179984Y-78507636D01*
X161961893Y-78641282D01*
X161958086Y-78644532D01*
X162519438Y-79205884D01*
X162517374Y-79206740D01*
X162378156Y-79299762D01*
X162259762Y-79418156D01*
X162166740Y-79557374D01*
X162165884Y-79559438D01*
X161604532Y-78998086D01*
X161601282Y-79001893D01*
X161467636Y-79219984D01*
X161467634Y-79219987D01*
X161369752Y-79456297D01*
X161310042Y-79705010D01*
X161289975Y-79960000D01*
X161310042Y-80214989D01*
X161369752Y-80463702D01*
X161467634Y-80700012D01*
X161467636Y-80700015D01*
X161601277Y-80918098D01*
X161601284Y-80918107D01*
X161604533Y-80921912D01*
X162165884Y-80360560D01*
X162166740Y-80362626D01*
X162259762Y-80501844D01*
X162378156Y-80620238D01*
X162517374Y-80713260D01*
X162519437Y-80714114D01*
X161958087Y-81275465D01*
X161961897Y-81278719D01*
X162179984Y-81412363D01*
X162179987Y-81412365D01*
X162416297Y-81510247D01*
X162665011Y-81569957D01*
X162665010Y-81569957D01*
X162920000Y-81590024D01*
X163174989Y-81569957D01*
X163423702Y-81510247D01*
X163660012Y-81412365D01*
X163660015Y-81412363D01*
X163878095Y-81278724D01*
X163878110Y-81278713D01*
X163881911Y-81275466D01*
X163881911Y-81275464D01*
X163320562Y-80714114D01*
X163322626Y-80713260D01*
X163461844Y-80620238D01*
X163580238Y-80501844D01*
X163673260Y-80362626D01*
X163674114Y-80360562D01*
X164235464Y-80921911D01*
X164235466Y-80921911D01*
X164238713Y-80918110D01*
X164238724Y-80918095D01*
X164372363Y-80700015D01*
X164372365Y-80700012D01*
X164470939Y-80462032D01*
X164514780Y-80407628D01*
X164581074Y-80385563D01*
X164648773Y-80402842D01*
X164696384Y-80453979D01*
X164709500Y-80509484D01*
X164709500Y-81101314D01*
X164689815Y-81168353D01*
X164650290Y-81207041D01*
X164560566Y-81262024D01*
X164560563Y-81262025D01*
X164377973Y-81417973D01*
X164222026Y-81600563D01*
X164096565Y-81805297D01*
X164004678Y-82027134D01*
X164004674Y-82027146D01*
X163974113Y-82154447D01*
X163939323Y-82215039D01*
X163877296Y-82247203D01*
X163853539Y-82249500D01*
X159301874Y-82249500D01*
X159234835Y-82229815D01*
X159214193Y-82213181D01*
X159178044Y-82177032D01*
X159178040Y-82177029D01*
X159033705Y-82088001D01*
X159033699Y-82087998D01*
X159033697Y-82087997D01*
X158897340Y-82042813D01*
X158872709Y-82034651D01*
X158773346Y-82024500D01*
X158226662Y-82024500D01*
X158226644Y-82024501D01*
X158127292Y-82034650D01*
X158127289Y-82034651D01*
X157966305Y-82087996D01*
X157966294Y-82088001D01*
X157821959Y-82177029D01*
X157821955Y-82177032D01*
X157812681Y-82186307D01*
X157751358Y-82219792D01*
X157681666Y-82214808D01*
X157637319Y-82186307D01*
X157628044Y-82177032D01*
X157628040Y-82177029D01*
X157483705Y-82088001D01*
X157483699Y-82087998D01*
X157483697Y-82087997D01*
X157347340Y-82042813D01*
X157322709Y-82034651D01*
X157223346Y-82024500D01*
X156676662Y-82024500D01*
X156676644Y-82024501D01*
X156577292Y-82034650D01*
X156577289Y-82034651D01*
X156416305Y-82087996D01*
X156416294Y-82088001D01*
X156271959Y-82177029D01*
X156271955Y-82177032D01*
X156152032Y-82296955D01*
X156152029Y-82296959D01*
X156063001Y-82441294D01*
X156062996Y-82441305D01*
X156009651Y-82602290D01*
X155999500Y-82701647D01*
X155999500Y-82837770D01*
X155979815Y-82904809D01*
X155963181Y-82925451D01*
X155175451Y-83713181D01*
X155114128Y-83746666D01*
X155087770Y-83749500D01*
X150976874Y-83749500D01*
X150909835Y-83729815D01*
X150889193Y-83713181D01*
X150878044Y-83702032D01*
X150878040Y-83702029D01*
X150733705Y-83613001D01*
X150733699Y-83612998D01*
X150733697Y-83612997D01*
X150603786Y-83569949D01*
X150572709Y-83559651D01*
X150473346Y-83549500D01*
X149526662Y-83549500D01*
X149526644Y-83549501D01*
X149427292Y-83559650D01*
X149427289Y-83559651D01*
X149266305Y-83612996D01*
X149266294Y-83613001D01*
X149121959Y-83702029D01*
X149121955Y-83702032D01*
X149002032Y-83821955D01*
X149002029Y-83821959D01*
X148913001Y-83966294D01*
X148912996Y-83966305D01*
X148859651Y-84127290D01*
X148849500Y-84226647D01*
X148849500Y-84537769D01*
X148829815Y-84604808D01*
X148813181Y-84625450D01*
X148204549Y-85234082D01*
X148204548Y-85234084D01*
X148181609Y-85268416D01*
X148163854Y-85294989D01*
X148122414Y-85357007D01*
X148065843Y-85493582D01*
X148065840Y-85493592D01*
X148037000Y-85638579D01*
X148037000Y-87186813D01*
X148017315Y-87253852D01*
X147964511Y-87299607D01*
X147895353Y-87309551D01*
X147831797Y-87280526D01*
X147809897Y-87255702D01*
X147795456Y-87234089D01*
X147795452Y-87234084D01*
X146753307Y-86191939D01*
X146730653Y-86155869D01*
X146728813Y-86156756D01*
X146725792Y-86150484D01*
X146725789Y-86150480D01*
X146725789Y-86150478D01*
X146629816Y-85997738D01*
X146597823Y-85965745D01*
X146564338Y-85904422D01*
X146569322Y-85834730D01*
X146611194Y-85778797D01*
X146648614Y-85759679D01*
X146814395Y-85708019D01*
X146959877Y-85620072D01*
X147080072Y-85499877D01*
X147168019Y-85354395D01*
X147218590Y-85192106D01*
X147225000Y-85121572D01*
X147225000Y-85040000D01*
X146199000Y-85040000D01*
X146131961Y-85020315D01*
X146086206Y-84967511D01*
X146075000Y-84916000D01*
X146075000Y-84540000D01*
X146575000Y-84540000D01*
X147224999Y-84540000D01*
X147224999Y-84458417D01*
X147218591Y-84387897D01*
X147218590Y-84387892D01*
X147168018Y-84225603D01*
X147080072Y-84080122D01*
X146959877Y-83959927D01*
X146814395Y-83871980D01*
X146814396Y-83871980D01*
X146652105Y-83821409D01*
X146652106Y-83821409D01*
X146581572Y-83815000D01*
X146575000Y-83815000D01*
X146575000Y-84540000D01*
X146075000Y-84540000D01*
X146075000Y-83815000D01*
X146074999Y-83814999D01*
X146068436Y-83815000D01*
X146068417Y-83815001D01*
X145997897Y-83821408D01*
X145997892Y-83821409D01*
X145835603Y-83871981D01*
X145690122Y-83959927D01*
X145690121Y-83959928D01*
X145588035Y-84062015D01*
X145526712Y-84095500D01*
X145457020Y-84090516D01*
X145412673Y-84062015D01*
X145310188Y-83959530D01*
X145292769Y-83949000D01*
X145164606Y-83871522D01*
X145002196Y-83820914D01*
X145002194Y-83820913D01*
X145002192Y-83820913D01*
X144952778Y-83816423D01*
X144931616Y-83814500D01*
X144418384Y-83814500D01*
X144399145Y-83816248D01*
X144347807Y-83820913D01*
X144185393Y-83871522D01*
X144039811Y-83959530D01*
X144039811Y-83959531D01*
X143996163Y-84003180D01*
X143934840Y-84036666D01*
X143908481Y-84039500D01*
X142474499Y-84039500D01*
X142407460Y-84019815D01*
X142361705Y-83967011D01*
X142350499Y-83915500D01*
X142350499Y-83549500D01*
X142370184Y-83482461D01*
X142422988Y-83436706D01*
X142474499Y-83425500D01*
X146898920Y-83425500D01*
X147038634Y-83397708D01*
X147043913Y-83396658D01*
X147180495Y-83340084D01*
X147242962Y-83298345D01*
X147303416Y-83257952D01*
X148274549Y-82286819D01*
X148335872Y-82253334D01*
X148362230Y-82250500D01*
X149023126Y-82250500D01*
X149090165Y-82270185D01*
X149110807Y-82286819D01*
X149121955Y-82297967D01*
X149121959Y-82297970D01*
X149266294Y-82386998D01*
X149266297Y-82386999D01*
X149266303Y-82387003D01*
X149427292Y-82440349D01*
X149526655Y-82450500D01*
X150473344Y-82450499D01*
X150473352Y-82450498D01*
X150473355Y-82450498D01*
X150527760Y-82444940D01*
X150572708Y-82440349D01*
X150733697Y-82387003D01*
X150878044Y-82297968D01*
X150997968Y-82178044D01*
X151087003Y-82033697D01*
X151140349Y-81872708D01*
X151150500Y-81773345D01*
X151150499Y-81226656D01*
X151148495Y-81207041D01*
X151140349Y-81127292D01*
X151140348Y-81127289D01*
X151113153Y-81045220D01*
X151087003Y-80966303D01*
X151086999Y-80966297D01*
X151086998Y-80966294D01*
X150997970Y-80821959D01*
X150997967Y-80821955D01*
X150878044Y-80702032D01*
X150878040Y-80702029D01*
X150733705Y-80613001D01*
X150733699Y-80612998D01*
X150733697Y-80612997D01*
X150665482Y-80590393D01*
X150572709Y-80559651D01*
X150473346Y-80549500D01*
X149526662Y-80549500D01*
X149526644Y-80549501D01*
X149427292Y-80559650D01*
X149427289Y-80559651D01*
X149266305Y-80612996D01*
X149266294Y-80613001D01*
X149121959Y-80702029D01*
X149121955Y-80702032D01*
X149110807Y-80713181D01*
X149049484Y-80746666D01*
X149023126Y-80749500D01*
X147926080Y-80749500D01*
X147781092Y-80778340D01*
X147781086Y-80778342D01*
X147644508Y-80834914D01*
X147644496Y-80834921D01*
X147595269Y-80867813D01*
X147521588Y-80917044D01*
X147521580Y-80917050D01*
X147437181Y-81001450D01*
X147375858Y-81034935D01*
X147306166Y-81029951D01*
X147250233Y-80988079D01*
X147225816Y-80922615D01*
X147225500Y-80913769D01*
X147225500Y-80823386D01*
X147225500Y-80823384D01*
X147219086Y-80752804D01*
X147168478Y-80590394D01*
X147093382Y-80466171D01*
X147075500Y-80402023D01*
X147075500Y-79251079D01*
X147046659Y-79106092D01*
X147046658Y-79106091D01*
X147046658Y-79106087D01*
X147032367Y-79071585D01*
X146990087Y-78969511D01*
X146990080Y-78969498D01*
X146907952Y-78846585D01*
X146907951Y-78846584D01*
X146803416Y-78742049D01*
X146702644Y-78641277D01*
X145978421Y-77917052D01*
X145978414Y-77917046D01*
X145904729Y-77867812D01*
X145904729Y-77867813D01*
X145855491Y-77834913D01*
X145718917Y-77778343D01*
X145718907Y-77778340D01*
X145573920Y-77749500D01*
X145573918Y-77749500D01*
X139573917Y-77749500D01*
X139426082Y-77749500D01*
X139426080Y-77749500D01*
X139281092Y-77778340D01*
X139281082Y-77778343D01*
X139144511Y-77834912D01*
X139144498Y-77834919D01*
X139021584Y-77917048D01*
X139021580Y-77917051D01*
X137867049Y-79071581D01*
X137867045Y-79071585D01*
X137824733Y-79134914D01*
X137824732Y-79134916D01*
X137784919Y-79194499D01*
X137784912Y-79194511D01*
X137728343Y-79331082D01*
X137728340Y-79331092D01*
X137699500Y-79476079D01*
X137699500Y-80440858D01*
X137679815Y-80507897D01*
X137627011Y-80553652D01*
X137618847Y-80557034D01*
X137611833Y-80559651D01*
X137607664Y-80561206D01*
X137492455Y-80647452D01*
X137492452Y-80647455D01*
X137406206Y-80762664D01*
X137406202Y-80762671D01*
X137355908Y-80897517D01*
X137349501Y-80957116D01*
X137349500Y-80957135D01*
X137349500Y-81808130D01*
X137329815Y-81875169D01*
X137277011Y-81920924D01*
X137249732Y-81929739D01*
X137247283Y-81930227D01*
X137247243Y-81930235D01*
X137131092Y-81953339D01*
X137131086Y-81953341D01*
X137070552Y-81978416D01*
X136994509Y-82009914D01*
X136994496Y-82009921D01*
X136945269Y-82042813D01*
X136871588Y-82092044D01*
X136871580Y-82092050D01*
X136417048Y-82546583D01*
X136398780Y-82573923D01*
X136380634Y-82601083D01*
X136334919Y-82669499D01*
X136334912Y-82669511D01*
X136278343Y-82806082D01*
X136278340Y-82806092D01*
X136249500Y-82951079D01*
X136249500Y-87529771D01*
X136229815Y-87596810D01*
X136177011Y-87642565D01*
X136107853Y-87652509D01*
X136060403Y-87635310D01*
X135983699Y-87587998D01*
X135983694Y-87587996D01*
X135822709Y-87534651D01*
X135723346Y-87524500D01*
X135176662Y-87524500D01*
X135176644Y-87524501D01*
X135077292Y-87534650D01*
X135077289Y-87534651D01*
X134916305Y-87587996D01*
X134916294Y-87588001D01*
X134771959Y-87677029D01*
X134771955Y-87677032D01*
X134735807Y-87713181D01*
X134674484Y-87746666D01*
X134648126Y-87749500D01*
X133510534Y-87749500D01*
X133443495Y-87729815D01*
X133422853Y-87713181D01*
X133385391Y-87675719D01*
X133385387Y-87675716D01*
X133242295Y-87587455D01*
X133242289Y-87587452D01*
X133242287Y-87587451D01*
X133082685Y-87534564D01*
X133082683Y-87534563D01*
X132984181Y-87524500D01*
X132984174Y-87524500D01*
X132854730Y-87524500D01*
X132787691Y-87504815D01*
X132767049Y-87488181D01*
X132136819Y-86857951D01*
X132103334Y-86796628D01*
X132100500Y-86770270D01*
X132100500Y-85445845D01*
X132120185Y-85378806D01*
X132159403Y-85340307D01*
X132202076Y-85313984D01*
X132228044Y-85297968D01*
X132347968Y-85178044D01*
X132437003Y-85033697D01*
X132490349Y-84872708D01*
X132500500Y-84773345D01*
X132500499Y-84226656D01*
X132500391Y-84225603D01*
X132490349Y-84127292D01*
X132490348Y-84127289D01*
X132474738Y-84080180D01*
X132437003Y-83966303D01*
X132436999Y-83966297D01*
X132436998Y-83966294D01*
X132347970Y-83821959D01*
X132347967Y-83821955D01*
X132228044Y-83702032D01*
X132228040Y-83702029D01*
X132083705Y-83613001D01*
X132083699Y-83612998D01*
X132083697Y-83612997D01*
X131953786Y-83569949D01*
X131922709Y-83559651D01*
X131823346Y-83549500D01*
X130876662Y-83549500D01*
X130876644Y-83549501D01*
X130777292Y-83559650D01*
X130777289Y-83559651D01*
X130616305Y-83612996D01*
X130616294Y-83613001D01*
X130471959Y-83702029D01*
X130471955Y-83702032D01*
X130352032Y-83821955D01*
X130352029Y-83821959D01*
X130263001Y-83966294D01*
X130262996Y-83966305D01*
X130209651Y-84127290D01*
X130199500Y-84226647D01*
X130199500Y-84773337D01*
X130199501Y-84773355D01*
X130209650Y-84872707D01*
X130209651Y-84872710D01*
X130262996Y-85033694D01*
X130263001Y-85033705D01*
X130352029Y-85178040D01*
X130352032Y-85178044D01*
X130471955Y-85297967D01*
X130471959Y-85297970D01*
X130540597Y-85340307D01*
X130587322Y-85392255D01*
X130599500Y-85445845D01*
X130599500Y-87206418D01*
X130599500Y-87206420D01*
X130599499Y-87206420D01*
X130628340Y-87351407D01*
X130628343Y-87351417D01*
X130663643Y-87436639D01*
X130671112Y-87506108D01*
X130639836Y-87568587D01*
X130614180Y-87589629D01*
X130474609Y-87675718D01*
X130355719Y-87794608D01*
X130355716Y-87794612D01*
X130267455Y-87937704D01*
X130267450Y-87937715D01*
X130253074Y-87981100D01*
X130214564Y-88097315D01*
X130214564Y-88097316D01*
X130214563Y-88097316D01*
X130204500Y-88195818D01*
X130204500Y-88325270D01*
X130184815Y-88392309D01*
X130168181Y-88412951D01*
X129942951Y-88638181D01*
X129881628Y-88671666D01*
X129855270Y-88674500D01*
X119349500Y-88674500D01*
X119282461Y-88654815D01*
X119236706Y-88602011D01*
X119225500Y-88550500D01*
X119225499Y-88201662D01*
X119225498Y-88201644D01*
X119215349Y-88102292D01*
X119215348Y-88102289D01*
X119175190Y-87981100D01*
X119162003Y-87941303D01*
X119161999Y-87941297D01*
X119161998Y-87941294D01*
X119072970Y-87796959D01*
X119072967Y-87796955D01*
X119061819Y-87785807D01*
X119028334Y-87724484D01*
X119025500Y-87698126D01*
X119025500Y-84969000D01*
X119045185Y-84901961D01*
X119097989Y-84856206D01*
X119149500Y-84845000D01*
X119450000Y-84845000D01*
X119950000Y-84845000D01*
X120143711Y-84845000D01*
X120210750Y-84864685D01*
X120252544Y-84909575D01*
X120256648Y-84917092D01*
X120342809Y-85032187D01*
X120342812Y-85032190D01*
X120457906Y-85118350D01*
X120457913Y-85118354D01*
X120592620Y-85168596D01*
X120592627Y-85168598D01*
X120652155Y-85174999D01*
X120652172Y-85175000D01*
X120850000Y-85175000D01*
X120850000Y-84325000D01*
X120281000Y-84325000D01*
X120213961Y-84305315D01*
X120168206Y-84252511D01*
X120157000Y-84201000D01*
X120157000Y-84195000D01*
X119950000Y-84195000D01*
X119950000Y-84845000D01*
X119450000Y-84845000D01*
X119450000Y-83819000D01*
X119469685Y-83751961D01*
X119522489Y-83706206D01*
X119574000Y-83695000D01*
X120719000Y-83695000D01*
X120786039Y-83714685D01*
X120831794Y-83767489D01*
X120843000Y-83819000D01*
X120843000Y-83825000D01*
X121226000Y-83825000D01*
X121293039Y-83844685D01*
X121338794Y-83897489D01*
X121350000Y-83949000D01*
X121350000Y-85175000D01*
X121547828Y-85175000D01*
X121547844Y-85174999D01*
X121607372Y-85168598D01*
X121607379Y-85168596D01*
X121742086Y-85118354D01*
X121742093Y-85118350D01*
X121857187Y-85032190D01*
X121857190Y-85032187D01*
X121943352Y-84917091D01*
X121947185Y-84910072D01*
X121996590Y-84860667D01*
X122056014Y-84845499D01*
X122287770Y-84845499D01*
X122354809Y-84865184D01*
X122375451Y-84881818D01*
X122762048Y-85268415D01*
X122762049Y-85268416D01*
X122833940Y-85340307D01*
X122866585Y-85372952D01*
X122989498Y-85455080D01*
X122989511Y-85455087D01*
X123126082Y-85511656D01*
X123126087Y-85511658D01*
X123126091Y-85511658D01*
X123126092Y-85511659D01*
X123271079Y-85540500D01*
X123271082Y-85540500D01*
X125083481Y-85540500D01*
X125150520Y-85560185D01*
X125171163Y-85576820D01*
X125214811Y-85620468D01*
X125214811Y-85620469D01*
X125214813Y-85620470D01*
X125214815Y-85620472D01*
X125360394Y-85708478D01*
X125522804Y-85759086D01*
X125593384Y-85765500D01*
X125593387Y-85765500D01*
X126106613Y-85765500D01*
X126106616Y-85765500D01*
X126177196Y-85759086D01*
X126339606Y-85708478D01*
X126485185Y-85620472D01*
X126587673Y-85517983D01*
X126648994Y-85484499D01*
X126718685Y-85489483D01*
X126763034Y-85517984D01*
X126865122Y-85620072D01*
X127010604Y-85708019D01*
X127010603Y-85708019D01*
X127172894Y-85758590D01*
X127172893Y-85758590D01*
X127243408Y-85764998D01*
X127243426Y-85764999D01*
X127750000Y-85764999D01*
X127756581Y-85764999D01*
X127827102Y-85758591D01*
X127827107Y-85758590D01*
X127989396Y-85708018D01*
X128134877Y-85620072D01*
X128255072Y-85499877D01*
X128343019Y-85354395D01*
X128393590Y-85192106D01*
X128400000Y-85121572D01*
X128400000Y-85040000D01*
X127750000Y-85040000D01*
X127750000Y-85764999D01*
X127243426Y-85764999D01*
X127249999Y-85764998D01*
X127250000Y-85764998D01*
X127250000Y-84540000D01*
X127750000Y-84540000D01*
X128399999Y-84540000D01*
X128399999Y-84458417D01*
X128393591Y-84387897D01*
X128393590Y-84387892D01*
X128343018Y-84225603D01*
X128255072Y-84080122D01*
X128134877Y-83959927D01*
X127989395Y-83871980D01*
X127989396Y-83871980D01*
X127827105Y-83821409D01*
X127827106Y-83821409D01*
X127756572Y-83815000D01*
X127750000Y-83815000D01*
X127750000Y-84540000D01*
X127250000Y-84540000D01*
X127250000Y-83815000D01*
X127249999Y-83814999D01*
X127243436Y-83815000D01*
X127243417Y-83815001D01*
X127172897Y-83821408D01*
X127172892Y-83821409D01*
X127010603Y-83871981D01*
X126865122Y-83959927D01*
X126865121Y-83959928D01*
X126763035Y-84062015D01*
X126701712Y-84095500D01*
X126632020Y-84090516D01*
X126587673Y-84062015D01*
X126485188Y-83959530D01*
X126467769Y-83949000D01*
X126339606Y-83871522D01*
X126177196Y-83820914D01*
X126177194Y-83820913D01*
X126177192Y-83820913D01*
X126127778Y-83816423D01*
X126106616Y-83814500D01*
X125593384Y-83814500D01*
X125574145Y-83816248D01*
X125522807Y-83820913D01*
X125360393Y-83871522D01*
X125214811Y-83959530D01*
X125214811Y-83959531D01*
X125171163Y-84003180D01*
X125109840Y-84036666D01*
X125083481Y-84039500D01*
X123724499Y-84039500D01*
X123657460Y-84019815D01*
X123611705Y-83967011D01*
X123600499Y-83915500D01*
X123600499Y-83549500D01*
X123620184Y-83482461D01*
X123672988Y-83436706D01*
X123724499Y-83425500D01*
X128398920Y-83425500D01*
X128538634Y-83397708D01*
X128543913Y-83396658D01*
X128680495Y-83340084D01*
X128742962Y-83298345D01*
X128803416Y-83257952D01*
X129774549Y-82286819D01*
X129835872Y-82253334D01*
X129862230Y-82250500D01*
X130373126Y-82250500D01*
X130440165Y-82270185D01*
X130460807Y-82286819D01*
X130471955Y-82297967D01*
X130471959Y-82297970D01*
X130616294Y-82386998D01*
X130616297Y-82386999D01*
X130616303Y-82387003D01*
X130777292Y-82440349D01*
X130876655Y-82450500D01*
X131823344Y-82450499D01*
X131823352Y-82450498D01*
X131823355Y-82450498D01*
X131877760Y-82444940D01*
X131922708Y-82440349D01*
X132083697Y-82387003D01*
X132228044Y-82297968D01*
X132347968Y-82178044D01*
X132437003Y-82033697D01*
X132490349Y-81872708D01*
X132500500Y-81773345D01*
X132500499Y-81226656D01*
X132498495Y-81207041D01*
X132490349Y-81127292D01*
X132490348Y-81127289D01*
X132463153Y-81045220D01*
X132437003Y-80966303D01*
X132436999Y-80966297D01*
X132436998Y-80966294D01*
X132347970Y-80821959D01*
X132347967Y-80821955D01*
X132228044Y-80702032D01*
X132228040Y-80702029D01*
X132083705Y-80613001D01*
X132083699Y-80612998D01*
X132083697Y-80612997D01*
X132015482Y-80590393D01*
X131922709Y-80559651D01*
X131823346Y-80549500D01*
X130876662Y-80549500D01*
X130876644Y-80549501D01*
X130777292Y-80559650D01*
X130777289Y-80559651D01*
X130616305Y-80612996D01*
X130616294Y-80613001D01*
X130471959Y-80702029D01*
X130471955Y-80702032D01*
X130460807Y-80713181D01*
X130399484Y-80746666D01*
X130373126Y-80749500D01*
X129426080Y-80749500D01*
X129281092Y-80778340D01*
X129281086Y-80778342D01*
X129144508Y-80834914D01*
X129144496Y-80834921D01*
X129095270Y-80867811D01*
X129095271Y-80867812D01*
X129021581Y-80917049D01*
X129021578Y-80917052D01*
X128612181Y-81326450D01*
X128550858Y-81359935D01*
X128481166Y-81354951D01*
X128425233Y-81313079D01*
X128400816Y-81247615D01*
X128400500Y-81238769D01*
X128400500Y-80823386D01*
X128400500Y-80823384D01*
X128394086Y-80752804D01*
X128343478Y-80590394D01*
X128268382Y-80466171D01*
X128250500Y-80402023D01*
X128250500Y-79426081D01*
X128244763Y-79397242D01*
X128244763Y-79397240D01*
X128221660Y-79281095D01*
X128221659Y-79281088D01*
X128167408Y-79150117D01*
X128165764Y-79145522D01*
X128082954Y-79021588D01*
X128082953Y-79021587D01*
X128082951Y-79021584D01*
X127978416Y-78917049D01*
X127803416Y-78742049D01*
X126978421Y-77917052D01*
X126978414Y-77917046D01*
X126904729Y-77867812D01*
X126904729Y-77867813D01*
X126855491Y-77834913D01*
X126718917Y-77778343D01*
X126718907Y-77778340D01*
X126573920Y-77749500D01*
X126573918Y-77749500D01*
X120926082Y-77749500D01*
X120926076Y-77749500D01*
X120897242Y-77755234D01*
X120897243Y-77755235D01*
X120781093Y-77778339D01*
X120781083Y-77778342D01*
X120701081Y-77811479D01*
X120701082Y-77811480D01*
X120644505Y-77834915D01*
X120562372Y-77889795D01*
X120521585Y-77917047D01*
X120521581Y-77917050D01*
X119117050Y-79321580D01*
X119117044Y-79321588D01*
X119067812Y-79395268D01*
X119067813Y-79395269D01*
X119034921Y-79444496D01*
X119034914Y-79444508D01*
X118978342Y-79581086D01*
X118978340Y-79581092D01*
X118949500Y-79726079D01*
X118949500Y-80440858D01*
X118929815Y-80507897D01*
X118877011Y-80553652D01*
X118868847Y-80557034D01*
X118861833Y-80559651D01*
X118857664Y-80561206D01*
X118742455Y-80647452D01*
X118742452Y-80647455D01*
X118656206Y-80762664D01*
X118656202Y-80762671D01*
X118605908Y-80897517D01*
X118599501Y-80957116D01*
X118599500Y-80957135D01*
X118599500Y-81808131D01*
X118579815Y-81875170D01*
X118527011Y-81920925D01*
X118499693Y-81929748D01*
X118381091Y-81953340D01*
X118381082Y-81953343D01*
X118244511Y-82009912D01*
X118244498Y-82009919D01*
X118121584Y-82092048D01*
X118121580Y-82092051D01*
X117692050Y-82521580D01*
X117692044Y-82521588D01*
X117642812Y-82595268D01*
X117642813Y-82595269D01*
X117609921Y-82644496D01*
X117609914Y-82644508D01*
X117553342Y-82781086D01*
X117553340Y-82781092D01*
X117524500Y-82926079D01*
X117524500Y-87529771D01*
X117504815Y-87596810D01*
X117452011Y-87642565D01*
X117382853Y-87652509D01*
X117335403Y-87635310D01*
X117258699Y-87587998D01*
X117258694Y-87587996D01*
X117097709Y-87534651D01*
X116998346Y-87524500D01*
X116451662Y-87524500D01*
X116451644Y-87524501D01*
X116352292Y-87534650D01*
X116352289Y-87534651D01*
X116191305Y-87587996D01*
X116191294Y-87588001D01*
X116046959Y-87677029D01*
X116046955Y-87677032D01*
X116010807Y-87713181D01*
X115949484Y-87746666D01*
X115923126Y-87749500D01*
X114610534Y-87749500D01*
X114543495Y-87729815D01*
X114522853Y-87713181D01*
X114485391Y-87675719D01*
X114485387Y-87675716D01*
X114342295Y-87587455D01*
X114342289Y-87587452D01*
X114342287Y-87587451D01*
X114182685Y-87534564D01*
X114182683Y-87534563D01*
X114084181Y-87524500D01*
X114084174Y-87524500D01*
X113954730Y-87524500D01*
X113887691Y-87504815D01*
X113867049Y-87488181D01*
X113236819Y-86857951D01*
X113203334Y-86796628D01*
X113200500Y-86770270D01*
X113200500Y-85445845D01*
X113220185Y-85378806D01*
X113259403Y-85340307D01*
X113302076Y-85313984D01*
X113328044Y-85297968D01*
X113447968Y-85178044D01*
X113537003Y-85033697D01*
X113590349Y-84872708D01*
X113600500Y-84773345D01*
X113600499Y-84226656D01*
X113600391Y-84225603D01*
X113590349Y-84127292D01*
X113590348Y-84127289D01*
X113574738Y-84080180D01*
X113537003Y-83966303D01*
X113536999Y-83966297D01*
X113536998Y-83966294D01*
X113447970Y-83821959D01*
X113447967Y-83821955D01*
X113328044Y-83702032D01*
X113328040Y-83702029D01*
X113183705Y-83613001D01*
X113183699Y-83612998D01*
X113183697Y-83612997D01*
X113053786Y-83569949D01*
X113022709Y-83559651D01*
X112923346Y-83549500D01*
X111976662Y-83549500D01*
X111976644Y-83549501D01*
X111877292Y-83559650D01*
X111877289Y-83559651D01*
X111716305Y-83612996D01*
X111716294Y-83613001D01*
X111571959Y-83702029D01*
X111571955Y-83702032D01*
X111452032Y-83821955D01*
X111452029Y-83821959D01*
X111363001Y-83966294D01*
X111362996Y-83966305D01*
X111309651Y-84127290D01*
X111299500Y-84226647D01*
X111299500Y-84773337D01*
X111299501Y-84773355D01*
X111309650Y-84872707D01*
X111309651Y-84872710D01*
X111362996Y-85033694D01*
X111363001Y-85033705D01*
X111452029Y-85178040D01*
X111452032Y-85178044D01*
X111571955Y-85297967D01*
X111571959Y-85297970D01*
X111640597Y-85340307D01*
X111687322Y-85392255D01*
X111699500Y-85445845D01*
X111699500Y-87206418D01*
X111699500Y-87206420D01*
X111699499Y-87206420D01*
X111728340Y-87351407D01*
X111728343Y-87351417D01*
X111763643Y-87436639D01*
X111771112Y-87506108D01*
X111739836Y-87568587D01*
X111714180Y-87589629D01*
X111574609Y-87675718D01*
X111455719Y-87794608D01*
X111455716Y-87794612D01*
X111367455Y-87937704D01*
X111367450Y-87937715D01*
X111353074Y-87981100D01*
X111314564Y-88097315D01*
X111314564Y-88097316D01*
X111314563Y-88097316D01*
X111304500Y-88195818D01*
X111304500Y-88804181D01*
X111314563Y-88902683D01*
X111367450Y-89062284D01*
X111367455Y-89062295D01*
X111455716Y-89205387D01*
X111455719Y-89205391D01*
X111574608Y-89324280D01*
X111574612Y-89324283D01*
X111717704Y-89412544D01*
X111717707Y-89412545D01*
X111717713Y-89412549D01*
X111877315Y-89465436D01*
X111975826Y-89475500D01*
X112105270Y-89475500D01*
X112172309Y-89495185D01*
X112192951Y-89511819D01*
X112584549Y-89903416D01*
X112689084Y-90007951D01*
X112689087Y-90007953D01*
X112689088Y-90007954D01*
X112812003Y-90090083D01*
X112812006Y-90090085D01*
X112868579Y-90113518D01*
X112868580Y-90113518D01*
X112948588Y-90146659D01*
X113064741Y-90169763D01*
X113083968Y-90173587D01*
X113093581Y-90175500D01*
X113093582Y-90175500D01*
X130291420Y-90175500D01*
X130388962Y-90156096D01*
X130436413Y-90146658D01*
X130572995Y-90090084D01*
X130622229Y-90057186D01*
X130695916Y-90007952D01*
X131054819Y-89649047D01*
X131116142Y-89615563D01*
X131185833Y-89620547D01*
X131230181Y-89649048D01*
X131484549Y-89903416D01*
X131589084Y-90007951D01*
X131589087Y-90007953D01*
X131589088Y-90007954D01*
X131712003Y-90090083D01*
X131712006Y-90090085D01*
X131768579Y-90113518D01*
X131768580Y-90113518D01*
X131848588Y-90146659D01*
X131964741Y-90169763D01*
X131983968Y-90173587D01*
X131993581Y-90175500D01*
X131993582Y-90175500D01*
X146361420Y-90175500D01*
X146458962Y-90156096D01*
X146506413Y-90146658D01*
X146642995Y-90090084D01*
X146692229Y-90057186D01*
X146765916Y-90007952D01*
X147262048Y-89511818D01*
X147323371Y-89478334D01*
X147349729Y-89475500D01*
X147479169Y-89475500D01*
X147479174Y-89475500D01*
X147577685Y-89465436D01*
X147737287Y-89412549D01*
X147880391Y-89324281D01*
X147912319Y-89292353D01*
X147973642Y-89258868D01*
X148043334Y-89263852D01*
X148087681Y-89292353D01*
X148119608Y-89324280D01*
X148119612Y-89324283D01*
X148262704Y-89412544D01*
X148262707Y-89412545D01*
X148262713Y-89412549D01*
X148422315Y-89465436D01*
X148520826Y-89475500D01*
X148520831Y-89475500D01*
X149054169Y-89475500D01*
X149054174Y-89475500D01*
X149152685Y-89465436D01*
X149312287Y-89412549D01*
X149455391Y-89324281D01*
X149574281Y-89205391D01*
X149662549Y-89062287D01*
X149715436Y-88902685D01*
X149725500Y-88804174D01*
X149725500Y-88195826D01*
X149715436Y-88097315D01*
X149662549Y-87937713D01*
X149662545Y-87937707D01*
X149662544Y-87937704D01*
X149574283Y-87794612D01*
X149569803Y-87788946D01*
X149570782Y-87788171D01*
X149540834Y-87733324D01*
X149538000Y-87706966D01*
X149538000Y-86074729D01*
X149557685Y-86007690D01*
X149574315Y-85987052D01*
X150074549Y-85486817D01*
X150135872Y-85453333D01*
X150162230Y-85450499D01*
X150473338Y-85450499D01*
X150473344Y-85450499D01*
X150473352Y-85450498D01*
X150473355Y-85450498D01*
X150550417Y-85442626D01*
X150572708Y-85440349D01*
X150733697Y-85387003D01*
X150878044Y-85297968D01*
X150889193Y-85286819D01*
X150950516Y-85253334D01*
X150976874Y-85250500D01*
X155523920Y-85250500D01*
X155621462Y-85231096D01*
X155668913Y-85221658D01*
X155805495Y-85165084D01*
X155870550Y-85121616D01*
X155928416Y-85082952D01*
X156999548Y-84011817D01*
X157060871Y-83978333D01*
X157087229Y-83975499D01*
X157223338Y-83975499D01*
X157223344Y-83975499D01*
X157223352Y-83975498D01*
X157223355Y-83975498D01*
X157277760Y-83969940D01*
X157322708Y-83965349D01*
X157483697Y-83912003D01*
X157628044Y-83822968D01*
X157637319Y-83813693D01*
X157698642Y-83780208D01*
X157768334Y-83785192D01*
X157812681Y-83813693D01*
X157821955Y-83822967D01*
X157821959Y-83822970D01*
X157966294Y-83911998D01*
X157966297Y-83911999D01*
X157966303Y-83912003D01*
X158127292Y-83965349D01*
X158226655Y-83975500D01*
X158773344Y-83975499D01*
X158773352Y-83975498D01*
X158773355Y-83975498D01*
X158827760Y-83969940D01*
X158872708Y-83965349D01*
X159033697Y-83912003D01*
X159178044Y-83822968D01*
X159214193Y-83786819D01*
X159275516Y-83753334D01*
X159301874Y-83750500D01*
X161932692Y-83750500D01*
X161999731Y-83770185D01*
X162020373Y-83786819D01*
X162519438Y-84285884D01*
X162517374Y-84286740D01*
X162378156Y-84379762D01*
X162259762Y-84498156D01*
X162166740Y-84637374D01*
X162165884Y-84639438D01*
X161604532Y-84078086D01*
X161601282Y-84081893D01*
X161467636Y-84299984D01*
X161467634Y-84299987D01*
X161369752Y-84536297D01*
X161310042Y-84785010D01*
X161289975Y-85040000D01*
X161310042Y-85294989D01*
X161369752Y-85543702D01*
X161467634Y-85780012D01*
X161467636Y-85780015D01*
X161601277Y-85998098D01*
X161601284Y-85998107D01*
X161604533Y-86001912D01*
X162165884Y-85440560D01*
X162166740Y-85442626D01*
X162259762Y-85581844D01*
X162378156Y-85700238D01*
X162517374Y-85793260D01*
X162519437Y-85794114D01*
X161958087Y-86355465D01*
X161961897Y-86358719D01*
X162179984Y-86492363D01*
X162179987Y-86492365D01*
X162416297Y-86590247D01*
X162665011Y-86649957D01*
X162665010Y-86649957D01*
X162920000Y-86670024D01*
X163174989Y-86649957D01*
X163423702Y-86590247D01*
X163660012Y-86492365D01*
X163660015Y-86492363D01*
X163878095Y-86358724D01*
X163878110Y-86358713D01*
X163881911Y-86355466D01*
X163881911Y-86355464D01*
X163320562Y-85794114D01*
X163322626Y-85793260D01*
X163461844Y-85700238D01*
X163580238Y-85581844D01*
X163673260Y-85442626D01*
X163674114Y-85440561D01*
X164235464Y-86001911D01*
X164235466Y-86001911D01*
X164238713Y-85998110D01*
X164238724Y-85998095D01*
X164372363Y-85780015D01*
X164372365Y-85780012D01*
X164470247Y-85543702D01*
X164529957Y-85294989D01*
X164550024Y-85040000D01*
X164529957Y-84785010D01*
X164470247Y-84536297D01*
X164372365Y-84299987D01*
X164372363Y-84299984D01*
X164238719Y-84081897D01*
X164235465Y-84078087D01*
X163674114Y-84639437D01*
X163673260Y-84637374D01*
X163580238Y-84498156D01*
X163461844Y-84379762D01*
X163322626Y-84286740D01*
X163320561Y-84285884D01*
X163819627Y-83786819D01*
X163880950Y-83753334D01*
X163907308Y-83750500D01*
X164546033Y-83750500D01*
X164610822Y-83768772D01*
X164765297Y-83863434D01*
X164847514Y-83897489D01*
X164987137Y-83955323D01*
X165220621Y-84011377D01*
X165460000Y-84030217D01*
X165699379Y-84011377D01*
X165932863Y-83955323D01*
X166126365Y-83875171D01*
X166154702Y-83863434D01*
X166217421Y-83825000D01*
X166359439Y-83737972D01*
X166542027Y-83582027D01*
X166697972Y-83399439D01*
X166823433Y-83194704D01*
X166915323Y-82972863D01*
X166971377Y-82739379D01*
X166990217Y-82500000D01*
X166971377Y-82260621D01*
X166915323Y-82027137D01*
X166852376Y-81875170D01*
X166823434Y-81805297D01*
X166697973Y-81600563D01*
X166697972Y-81600561D01*
X166542027Y-81417973D01*
X166419212Y-81313079D01*
X166359436Y-81262025D01*
X166359433Y-81262024D01*
X166269710Y-81207041D01*
X166222835Y-81155229D01*
X166210500Y-81101314D01*
X166210500Y-80509484D01*
X166230185Y-80442445D01*
X166282989Y-80396690D01*
X166352147Y-80386746D01*
X166415703Y-80415771D01*
X166449061Y-80462032D01*
X166547634Y-80700012D01*
X166547636Y-80700015D01*
X166681277Y-80918098D01*
X166681284Y-80918107D01*
X166684533Y-80921912D01*
X167245884Y-80360560D01*
X167246740Y-80362626D01*
X167339762Y-80501844D01*
X167458156Y-80620238D01*
X167597374Y-80713260D01*
X167599437Y-80714114D01*
X167038087Y-81275465D01*
X167041897Y-81278719D01*
X167259984Y-81412363D01*
X167259987Y-81412365D01*
X167496297Y-81510247D01*
X167745011Y-81569957D01*
X167745010Y-81569957D01*
X168000000Y-81590024D01*
X168254989Y-81569957D01*
X168503702Y-81510247D01*
X168740012Y-81412365D01*
X168740015Y-81412363D01*
X168958095Y-81278724D01*
X168958110Y-81278713D01*
X168961911Y-81275466D01*
X168961911Y-81275464D01*
X168400562Y-80714114D01*
X168402626Y-80713260D01*
X168541844Y-80620238D01*
X168660238Y-80501844D01*
X168753260Y-80362626D01*
X168754114Y-80360561D01*
X169315464Y-80921911D01*
X169369659Y-80919784D01*
X169369809Y-80923605D01*
X169409580Y-80923320D01*
X169468628Y-80960672D01*
X169498108Y-81024018D01*
X169499500Y-81042545D01*
X169499500Y-83957442D01*
X169479815Y-84024481D01*
X169427011Y-84070236D01*
X169369732Y-84078471D01*
X169369664Y-84080218D01*
X169360181Y-84079845D01*
X169357853Y-84080180D01*
X169356831Y-84079713D01*
X169315465Y-84078087D01*
X168754114Y-84639437D01*
X168753260Y-84637374D01*
X168660238Y-84498156D01*
X168541844Y-84379762D01*
X168402626Y-84286740D01*
X168400561Y-84285884D01*
X168961912Y-83724533D01*
X168958107Y-83721284D01*
X168958098Y-83721277D01*
X168740015Y-83587636D01*
X168740012Y-83587634D01*
X168503702Y-83489752D01*
X168254988Y-83430042D01*
X168254989Y-83430042D01*
X168000000Y-83409975D01*
X167745010Y-83430042D01*
X167496297Y-83489752D01*
X167259987Y-83587634D01*
X167259984Y-83587636D01*
X167041893Y-83721282D01*
X167038086Y-83724532D01*
X167599438Y-84285884D01*
X167597374Y-84286740D01*
X167458156Y-84379762D01*
X167339762Y-84498156D01*
X167246740Y-84637374D01*
X167245884Y-84639438D01*
X166684532Y-84078086D01*
X166681282Y-84081893D01*
X166547636Y-84299984D01*
X166547634Y-84299987D01*
X166449752Y-84536297D01*
X166390042Y-84785010D01*
X166369975Y-85040000D01*
X166390042Y-85294989D01*
X166449752Y-85543702D01*
X166547634Y-85780012D01*
X166547636Y-85780015D01*
X166681277Y-85998098D01*
X166681284Y-85998107D01*
X166684533Y-86001912D01*
X167245884Y-85440560D01*
X167246740Y-85442626D01*
X167339762Y-85581844D01*
X167458156Y-85700238D01*
X167597374Y-85793260D01*
X167599437Y-85794114D01*
X167038087Y-86355465D01*
X167041897Y-86358719D01*
X167259984Y-86492363D01*
X167259987Y-86492365D01*
X167496297Y-86590247D01*
X167745011Y-86649957D01*
X167745010Y-86649957D01*
X168000000Y-86670024D01*
X168254989Y-86649957D01*
X168503702Y-86590247D01*
X168740012Y-86492365D01*
X168740015Y-86492363D01*
X168958095Y-86358724D01*
X168958110Y-86358713D01*
X168961911Y-86355466D01*
X168961911Y-86355464D01*
X168400562Y-85794114D01*
X168402626Y-85793260D01*
X168541844Y-85700238D01*
X168660238Y-85581844D01*
X168753260Y-85442626D01*
X168754114Y-85440561D01*
X169315464Y-86001911D01*
X169369659Y-85999784D01*
X169369809Y-86003605D01*
X169409580Y-86003320D01*
X169468628Y-86040672D01*
X169498108Y-86104018D01*
X169499500Y-86122545D01*
X169499500Y-104375500D01*
X169479815Y-104442539D01*
X169427011Y-104488294D01*
X169375500Y-104499500D01*
X95624500Y-104499500D01*
X95557461Y-104479815D01*
X95511706Y-104427011D01*
X95500500Y-104375500D01*
X95500500Y-101378711D01*
X96649500Y-101378711D01*
X96649500Y-101621288D01*
X96681161Y-101861785D01*
X96743947Y-102096104D01*
X96836773Y-102320205D01*
X96836776Y-102320212D01*
X96958064Y-102530289D01*
X96958066Y-102530292D01*
X96958067Y-102530293D01*
X97105733Y-102722736D01*
X97105739Y-102722743D01*
X97277256Y-102894260D01*
X97277262Y-102894265D01*
X97469711Y-103041936D01*
X97679788Y-103163224D01*
X97903900Y-103256054D01*
X98138211Y-103318838D01*
X98318586Y-103342584D01*
X98378711Y-103350500D01*
X98378712Y-103350500D01*
X98621289Y-103350500D01*
X98669388Y-103344167D01*
X98861789Y-103318838D01*
X99096100Y-103256054D01*
X99320212Y-103163224D01*
X99530289Y-103041936D01*
X99722738Y-102894265D01*
X99894265Y-102722738D01*
X100041936Y-102530289D01*
X100163224Y-102320212D01*
X100256054Y-102096100D01*
X100318838Y-101861789D01*
X100350500Y-101621288D01*
X100350500Y-101378712D01*
X100350500Y-101378711D01*
X164649500Y-101378711D01*
X164649500Y-101621288D01*
X164681161Y-101861785D01*
X164743947Y-102096104D01*
X164836773Y-102320205D01*
X164836776Y-102320212D01*
X164958064Y-102530289D01*
X164958066Y-102530292D01*
X164958067Y-102530293D01*
X165105733Y-102722736D01*
X165105739Y-102722743D01*
X165277256Y-102894260D01*
X165277262Y-102894265D01*
X165469711Y-103041936D01*
X165679788Y-103163224D01*
X165903900Y-103256054D01*
X166138211Y-103318838D01*
X166318586Y-103342584D01*
X166378711Y-103350500D01*
X166378712Y-103350500D01*
X166621289Y-103350500D01*
X166669388Y-103344167D01*
X166861789Y-103318838D01*
X167096100Y-103256054D01*
X167320212Y-103163224D01*
X167530289Y-103041936D01*
X167722738Y-102894265D01*
X167894265Y-102722738D01*
X168041936Y-102530289D01*
X168163224Y-102320212D01*
X168256054Y-102096100D01*
X168318838Y-101861789D01*
X168350500Y-101621288D01*
X168350500Y-101378712D01*
X168318838Y-101138211D01*
X168256054Y-100903900D01*
X168163224Y-100679788D01*
X168041936Y-100469711D01*
X167894265Y-100277262D01*
X167894260Y-100277256D01*
X167722743Y-100105739D01*
X167722736Y-100105733D01*
X167530293Y-99958067D01*
X167530292Y-99958066D01*
X167530289Y-99958064D01*
X167320212Y-99836776D01*
X167320205Y-99836773D01*
X167096104Y-99743947D01*
X166861785Y-99681161D01*
X166621289Y-99649500D01*
X166621288Y-99649500D01*
X166378712Y-99649500D01*
X166378711Y-99649500D01*
X166138214Y-99681161D01*
X165903895Y-99743947D01*
X165679794Y-99836773D01*
X165679785Y-99836777D01*
X165469706Y-99958067D01*
X165277263Y-100105733D01*
X165277256Y-100105739D01*
X165105739Y-100277256D01*
X165105733Y-100277263D01*
X164958067Y-100469706D01*
X164836777Y-100679785D01*
X164836773Y-100679794D01*
X164743947Y-100903895D01*
X164681161Y-101138214D01*
X164649500Y-101378711D01*
X100350500Y-101378711D01*
X100318838Y-101138211D01*
X100256054Y-100903900D01*
X100163224Y-100679788D01*
X100041936Y-100469711D01*
X99894265Y-100277262D01*
X99894260Y-100277256D01*
X99722743Y-100105739D01*
X99722736Y-100105733D01*
X99530293Y-99958067D01*
X99530292Y-99958066D01*
X99530289Y-99958064D01*
X99320212Y-99836776D01*
X99320205Y-99836773D01*
X99096104Y-99743947D01*
X98861785Y-99681161D01*
X98621289Y-99649500D01*
X98621288Y-99649500D01*
X98378712Y-99649500D01*
X98378711Y-99649500D01*
X98138214Y-99681161D01*
X97903895Y-99743947D01*
X97679794Y-99836773D01*
X97679785Y-99836777D01*
X97469706Y-99958067D01*
X97277263Y-100105733D01*
X97277256Y-100105739D01*
X97105739Y-100277256D01*
X97105733Y-100277263D01*
X96958067Y-100469706D01*
X96836777Y-100679785D01*
X96836773Y-100679794D01*
X96743947Y-100903895D01*
X96681161Y-101138214D01*
X96649500Y-101378711D01*
X95500500Y-101378711D01*
X95500500Y-86125220D01*
X95520185Y-86058181D01*
X95572989Y-86012426D01*
X95629373Y-86001316D01*
X95644533Y-86001912D01*
X96205884Y-85440560D01*
X96206740Y-85442626D01*
X96299762Y-85581844D01*
X96418156Y-85700238D01*
X96557374Y-85793260D01*
X96559437Y-85794114D01*
X95998087Y-86355465D01*
X96001897Y-86358719D01*
X96219984Y-86492363D01*
X96219987Y-86492365D01*
X96456297Y-86590247D01*
X96705011Y-86649957D01*
X96705010Y-86649957D01*
X96960000Y-86670024D01*
X97214989Y-86649957D01*
X97463702Y-86590247D01*
X97700012Y-86492365D01*
X97700015Y-86492363D01*
X97918095Y-86358724D01*
X97918110Y-86358713D01*
X97921911Y-86355466D01*
X97921911Y-86355464D01*
X97360562Y-85794114D01*
X97362626Y-85793260D01*
X97501844Y-85700238D01*
X97620238Y-85581844D01*
X97713260Y-85442626D01*
X97714114Y-85440561D01*
X98275464Y-86001911D01*
X98275466Y-86001911D01*
X98278713Y-85998110D01*
X98278724Y-85998095D01*
X98412363Y-85780015D01*
X98412365Y-85780012D01*
X98510247Y-85543702D01*
X98569957Y-85294989D01*
X98590024Y-85040000D01*
X98569957Y-84785010D01*
X98510247Y-84536297D01*
X98412365Y-84299987D01*
X98412363Y-84299984D01*
X98278719Y-84081897D01*
X98275465Y-84078087D01*
X97714114Y-84639437D01*
X97713260Y-84637374D01*
X97620238Y-84498156D01*
X97501844Y-84379762D01*
X97362626Y-84286740D01*
X97360561Y-84285884D01*
X97921912Y-83724533D01*
X97918107Y-83721284D01*
X97918098Y-83721277D01*
X97700015Y-83587636D01*
X97700012Y-83587634D01*
X97463702Y-83489752D01*
X97214988Y-83430042D01*
X97214989Y-83430042D01*
X96960000Y-83409975D01*
X96705010Y-83430042D01*
X96456297Y-83489752D01*
X96219987Y-83587634D01*
X96219984Y-83587636D01*
X96001893Y-83721282D01*
X95998086Y-83724532D01*
X96559438Y-84285884D01*
X96557374Y-84286740D01*
X96418156Y-84379762D01*
X96299762Y-84498156D01*
X96206740Y-84637374D01*
X96205884Y-84639438D01*
X95644532Y-84078086D01*
X95629379Y-84078683D01*
X95561617Y-84061651D01*
X95513820Y-84010689D01*
X95500500Y-83954779D01*
X95500500Y-82500000D01*
X97969783Y-82500000D01*
X97988623Y-82739382D01*
X98044674Y-82972853D01*
X98044678Y-82972865D01*
X98136565Y-83194702D01*
X98260324Y-83396658D01*
X98262028Y-83399439D01*
X98417973Y-83582027D01*
X98600561Y-83737972D01*
X98619373Y-83749500D01*
X98805297Y-83863434D01*
X98887514Y-83897489D01*
X99027137Y-83955323D01*
X99260621Y-84011377D01*
X99500000Y-84030217D01*
X99739379Y-84011377D01*
X99972863Y-83955323D01*
X100166365Y-83875171D01*
X100194702Y-83863434D01*
X100349178Y-83768772D01*
X100413967Y-83750500D01*
X101052692Y-83750500D01*
X101119731Y-83770185D01*
X101140373Y-83786819D01*
X101639438Y-84285884D01*
X101637374Y-84286740D01*
X101498156Y-84379762D01*
X101379762Y-84498156D01*
X101286740Y-84637374D01*
X101285884Y-84639438D01*
X100724532Y-84078086D01*
X100721282Y-84081893D01*
X100587636Y-84299984D01*
X100587634Y-84299987D01*
X100489752Y-84536297D01*
X100430042Y-84785010D01*
X100409975Y-85040000D01*
X100430042Y-85294989D01*
X100489752Y-85543702D01*
X100587634Y-85780012D01*
X100587636Y-85780015D01*
X100721277Y-85998098D01*
X100721284Y-85998107D01*
X100724533Y-86001912D01*
X101285884Y-85440560D01*
X101286740Y-85442626D01*
X101379762Y-85581844D01*
X101498156Y-85700238D01*
X101637374Y-85793260D01*
X101639437Y-85794114D01*
X101078087Y-86355465D01*
X101081897Y-86358719D01*
X101299984Y-86492363D01*
X101299987Y-86492365D01*
X101536297Y-86590247D01*
X101785011Y-86649957D01*
X101785010Y-86649957D01*
X102040000Y-86670024D01*
X102294989Y-86649957D01*
X102543702Y-86590247D01*
X102780012Y-86492365D01*
X102780015Y-86492363D01*
X102998095Y-86358724D01*
X102998110Y-86358713D01*
X103001911Y-86355466D01*
X103001911Y-86355464D01*
X102440562Y-85794114D01*
X102442626Y-85793260D01*
X102581844Y-85700238D01*
X102700238Y-85581844D01*
X102793260Y-85442626D01*
X102794114Y-85440561D01*
X103355464Y-86001911D01*
X103355466Y-86001911D01*
X103358713Y-85998110D01*
X103358724Y-85998095D01*
X103492363Y-85780015D01*
X103492365Y-85780012D01*
X103590247Y-85543702D01*
X103649957Y-85294989D01*
X103670024Y-85040000D01*
X103649957Y-84785010D01*
X103590247Y-84536297D01*
X103492365Y-84299987D01*
X103492363Y-84299984D01*
X103358719Y-84081897D01*
X103355465Y-84078087D01*
X102794114Y-84639437D01*
X102793260Y-84637374D01*
X102700238Y-84498156D01*
X102581844Y-84379762D01*
X102442626Y-84286740D01*
X102440561Y-84285884D01*
X102939627Y-83786819D01*
X103000950Y-83753334D01*
X103027308Y-83750500D01*
X105923126Y-83750500D01*
X105990165Y-83770185D01*
X106010807Y-83786819D01*
X106046955Y-83822967D01*
X106046959Y-83822970D01*
X106191294Y-83911998D01*
X106191297Y-83911999D01*
X106191303Y-83912003D01*
X106352292Y-83965349D01*
X106451655Y-83975500D01*
X106998344Y-83975499D01*
X106998352Y-83975498D01*
X106998355Y-83975498D01*
X107052760Y-83969940D01*
X107097708Y-83965349D01*
X107258697Y-83912003D01*
X107403044Y-83822968D01*
X107412319Y-83813693D01*
X107473642Y-83780208D01*
X107543334Y-83785192D01*
X107587681Y-83813693D01*
X107596955Y-83822967D01*
X107596959Y-83822970D01*
X107741294Y-83911998D01*
X107741297Y-83911999D01*
X107741303Y-83912003D01*
X107902292Y-83965349D01*
X108001655Y-83975500D01*
X108548344Y-83975499D01*
X108548352Y-83975498D01*
X108548355Y-83975498D01*
X108602760Y-83969940D01*
X108647708Y-83965349D01*
X108808697Y-83912003D01*
X108953044Y-83822968D01*
X109072968Y-83703044D01*
X109162003Y-83558697D01*
X109215349Y-83397708D01*
X109225500Y-83298345D01*
X109225499Y-83162229D01*
X109245183Y-83095190D01*
X109261813Y-83074553D01*
X110049548Y-82286819D01*
X110110871Y-82253334D01*
X110137229Y-82250500D01*
X111473126Y-82250500D01*
X111540165Y-82270185D01*
X111560807Y-82286819D01*
X111571955Y-82297967D01*
X111571959Y-82297970D01*
X111716294Y-82386998D01*
X111716297Y-82386999D01*
X111716303Y-82387003D01*
X111877292Y-82440349D01*
X111976655Y-82450500D01*
X112923344Y-82450499D01*
X112923352Y-82450498D01*
X112923355Y-82450498D01*
X112977760Y-82444940D01*
X113022708Y-82440349D01*
X113183697Y-82387003D01*
X113328044Y-82297968D01*
X113447968Y-82178044D01*
X113537003Y-82033697D01*
X113590349Y-81872708D01*
X113600500Y-81773345D01*
X113600499Y-81226656D01*
X113598495Y-81207041D01*
X113590349Y-81127292D01*
X113590348Y-81127289D01*
X113563153Y-81045220D01*
X113537003Y-80966303D01*
X113536999Y-80966297D01*
X113536998Y-80966294D01*
X113447970Y-80821959D01*
X113447967Y-80821955D01*
X113328044Y-80702032D01*
X113328040Y-80702029D01*
X113183705Y-80613001D01*
X113183699Y-80612998D01*
X113183697Y-80612997D01*
X113115482Y-80590393D01*
X113022709Y-80559651D01*
X112923346Y-80549500D01*
X111976662Y-80549500D01*
X111976644Y-80549501D01*
X111877292Y-80559650D01*
X111877289Y-80559651D01*
X111716305Y-80612996D01*
X111716294Y-80613001D01*
X111571959Y-80702029D01*
X111571955Y-80702032D01*
X111560807Y-80713181D01*
X111499484Y-80746666D01*
X111473126Y-80749500D01*
X109701080Y-80749500D01*
X109556092Y-80778340D01*
X109556082Y-80778343D01*
X109419511Y-80834912D01*
X109419498Y-80834919D01*
X109296584Y-80917048D01*
X109296580Y-80917051D01*
X108225449Y-81988181D01*
X108164126Y-82021666D01*
X108137769Y-82024500D01*
X108001663Y-82024500D01*
X108001644Y-82024501D01*
X107902292Y-82034650D01*
X107902289Y-82034651D01*
X107741305Y-82087996D01*
X107741294Y-82088001D01*
X107596959Y-82177029D01*
X107596955Y-82177032D01*
X107587681Y-82186307D01*
X107526358Y-82219792D01*
X107456666Y-82214808D01*
X107412319Y-82186307D01*
X107403044Y-82177032D01*
X107403040Y-82177029D01*
X107258705Y-82088001D01*
X107258699Y-82087998D01*
X107258697Y-82087997D01*
X107122340Y-82042813D01*
X107097709Y-82034651D01*
X106998346Y-82024500D01*
X106451662Y-82024500D01*
X106451644Y-82024501D01*
X106352292Y-82034650D01*
X106352289Y-82034651D01*
X106191305Y-82087996D01*
X106191294Y-82088001D01*
X106046959Y-82177029D01*
X106046955Y-82177032D01*
X106010807Y-82213181D01*
X105949484Y-82246666D01*
X105923126Y-82249500D01*
X101106461Y-82249500D01*
X101039422Y-82229815D01*
X100993667Y-82177011D01*
X100985887Y-82154447D01*
X100970907Y-82092049D01*
X100955323Y-82027137D01*
X100892376Y-81875170D01*
X100863434Y-81805297D01*
X100737973Y-81600563D01*
X100737972Y-81600561D01*
X100582027Y-81417973D01*
X100399439Y-81262028D01*
X100399434Y-81262025D01*
X100194702Y-81136565D01*
X99972865Y-81044678D01*
X99972867Y-81044678D01*
X99972863Y-81044677D01*
X99972859Y-81044676D01*
X99972853Y-81044674D01*
X99739382Y-80988623D01*
X99500000Y-80969783D01*
X99260617Y-80988623D01*
X99027146Y-81044674D01*
X99027134Y-81044678D01*
X98805297Y-81136565D01*
X98600563Y-81262026D01*
X98417973Y-81417973D01*
X98262026Y-81600563D01*
X98136565Y-81805297D01*
X98044678Y-82027134D01*
X98044674Y-82027146D01*
X97988623Y-82260617D01*
X97969783Y-82500000D01*
X95500500Y-82500000D01*
X95500500Y-81045220D01*
X95520185Y-80978181D01*
X95572989Y-80932426D01*
X95629373Y-80921316D01*
X95644533Y-80921912D01*
X96205884Y-80360560D01*
X96206740Y-80362626D01*
X96299762Y-80501844D01*
X96418156Y-80620238D01*
X96557374Y-80713260D01*
X96559437Y-80714114D01*
X95998087Y-81275465D01*
X96001897Y-81278719D01*
X96219984Y-81412363D01*
X96219987Y-81412365D01*
X96456297Y-81510247D01*
X96705011Y-81569957D01*
X96705010Y-81569957D01*
X96960000Y-81590024D01*
X97214989Y-81569957D01*
X97463702Y-81510247D01*
X97700012Y-81412365D01*
X97700015Y-81412363D01*
X97918095Y-81278724D01*
X97918110Y-81278713D01*
X97921911Y-81275466D01*
X97921911Y-81275464D01*
X97360562Y-80714114D01*
X97362626Y-80713260D01*
X97501844Y-80620238D01*
X97620238Y-80501844D01*
X97713260Y-80362626D01*
X97714114Y-80360561D01*
X98275464Y-80921911D01*
X98275466Y-80921911D01*
X98278713Y-80918110D01*
X98278724Y-80918095D01*
X98412363Y-80700015D01*
X98412365Y-80700012D01*
X98510247Y-80463702D01*
X98569957Y-80214989D01*
X98590024Y-79960000D01*
X100409975Y-79960000D01*
X100430042Y-80214989D01*
X100489752Y-80463702D01*
X100587634Y-80700012D01*
X100587636Y-80700015D01*
X100721277Y-80918098D01*
X100721284Y-80918107D01*
X100724533Y-80921912D01*
X101285884Y-80360560D01*
X101286740Y-80362626D01*
X101379762Y-80501844D01*
X101498156Y-80620238D01*
X101637374Y-80713260D01*
X101639437Y-80714114D01*
X101078087Y-81275465D01*
X101081897Y-81278719D01*
X101299984Y-81412363D01*
X101299987Y-81412365D01*
X101536297Y-81510247D01*
X101785011Y-81569957D01*
X101785010Y-81569957D01*
X102040000Y-81590024D01*
X102294989Y-81569957D01*
X102543702Y-81510247D01*
X102780012Y-81412365D01*
X102780015Y-81412363D01*
X102998095Y-81278724D01*
X102998110Y-81278713D01*
X103001911Y-81275466D01*
X103001911Y-81275464D01*
X102440562Y-80714114D01*
X102442626Y-80713260D01*
X102581844Y-80620238D01*
X102700238Y-80501844D01*
X102793260Y-80362626D01*
X102794114Y-80360561D01*
X103355464Y-80921911D01*
X103355466Y-80921911D01*
X103358713Y-80918110D01*
X103358724Y-80918095D01*
X103492363Y-80700015D01*
X103492365Y-80700012D01*
X103590247Y-80463702D01*
X103649957Y-80214989D01*
X103670024Y-79960000D01*
X103649957Y-79705010D01*
X103590247Y-79456297D01*
X103492365Y-79219987D01*
X103492363Y-79219984D01*
X103358719Y-79001897D01*
X103355465Y-78998087D01*
X102794114Y-79559437D01*
X102793260Y-79557374D01*
X102700238Y-79418156D01*
X102581844Y-79299762D01*
X102442626Y-79206740D01*
X102440561Y-79205884D01*
X103001912Y-78644533D01*
X102998107Y-78641284D01*
X102998098Y-78641277D01*
X102780015Y-78507636D01*
X102780012Y-78507634D01*
X102543702Y-78409752D01*
X102294988Y-78350042D01*
X102294989Y-78350042D01*
X102040000Y-78329975D01*
X101785010Y-78350042D01*
X101536297Y-78409752D01*
X101299987Y-78507634D01*
X101299984Y-78507636D01*
X101081893Y-78641282D01*
X101078086Y-78644532D01*
X101639438Y-79205884D01*
X101637374Y-79206740D01*
X101498156Y-79299762D01*
X101379762Y-79418156D01*
X101286740Y-79557374D01*
X101285884Y-79559438D01*
X100724532Y-78998086D01*
X100721282Y-79001893D01*
X100587636Y-79219984D01*
X100587634Y-79219987D01*
X100489752Y-79456297D01*
X100430042Y-79705010D01*
X100409975Y-79960000D01*
X98590024Y-79960000D01*
X98569957Y-79705010D01*
X98510247Y-79456297D01*
X98412365Y-79219987D01*
X98412363Y-79219984D01*
X98278719Y-79001897D01*
X98275465Y-78998087D01*
X97714114Y-79559437D01*
X97713260Y-79557374D01*
X97620238Y-79418156D01*
X97501844Y-79299762D01*
X97362626Y-79206740D01*
X97360561Y-79205884D01*
X97921912Y-78644533D01*
X97918107Y-78641284D01*
X97918098Y-78641277D01*
X97700015Y-78507636D01*
X97700012Y-78507634D01*
X97463702Y-78409752D01*
X97214988Y-78350042D01*
X97214989Y-78350042D01*
X96960000Y-78329975D01*
X96705010Y-78350042D01*
X96456297Y-78409752D01*
X96219987Y-78507634D01*
X96219984Y-78507636D01*
X96001893Y-78641282D01*
X95998086Y-78644532D01*
X96559438Y-79205884D01*
X96557374Y-79206740D01*
X96418156Y-79299762D01*
X96299762Y-79418156D01*
X96206740Y-79557374D01*
X96205884Y-79559438D01*
X95644532Y-78998086D01*
X95629379Y-78998683D01*
X95561617Y-78981651D01*
X95513820Y-78930689D01*
X95500500Y-78874779D01*
X95500500Y-66825589D01*
X106649500Y-66825589D01*
X106649500Y-67174393D01*
X106649501Y-67174415D01*
X106652234Y-67209153D01*
X106694577Y-67354899D01*
X106699500Y-67389493D01*
X106699500Y-69198918D01*
X106699500Y-69198920D01*
X106699499Y-69198920D01*
X106728340Y-69343907D01*
X106728343Y-69343917D01*
X106784914Y-69480491D01*
X106784916Y-69480495D01*
X106812420Y-69521658D01*
X106812419Y-69521658D01*
X106867046Y-69603414D01*
X106867047Y-69603415D01*
X106867048Y-69603416D01*
X107173047Y-69909414D01*
X107206531Y-69970736D01*
X107201547Y-70040427D01*
X107159676Y-70096361D01*
X107149516Y-70103210D01*
X107039814Y-70169528D01*
X107039810Y-70169531D01*
X106919530Y-70289811D01*
X106831522Y-70435393D01*
X106780913Y-70597807D01*
X106774500Y-70668386D01*
X106774500Y-71331613D01*
X106780913Y-71402192D01*
X106780913Y-71402194D01*
X106780914Y-71402196D01*
X106831522Y-71564606D01*
X106906617Y-71688829D01*
X106924500Y-71752976D01*
X106924500Y-72248918D01*
X106924500Y-72248920D01*
X106924499Y-72248920D01*
X106953340Y-72393907D01*
X106953343Y-72393917D01*
X107009913Y-72530491D01*
X107012631Y-72534558D01*
X107012633Y-72534564D01*
X107012634Y-72534564D01*
X107092046Y-72653414D01*
X107092052Y-72653421D01*
X109021584Y-74582952D01*
X109021586Y-74582954D01*
X109044992Y-74598592D01*
X109056697Y-74606413D01*
X109144505Y-74665084D01*
X109144506Y-74665084D01*
X109144507Y-74665085D01*
X109201079Y-74688518D01*
X109201080Y-74688518D01*
X109281088Y-74721659D01*
X109397241Y-74744763D01*
X109416468Y-74748587D01*
X109426081Y-74750500D01*
X109426082Y-74750500D01*
X109426083Y-74750500D01*
X109573918Y-74750500D01*
X110919466Y-74750500D01*
X110986505Y-74770185D01*
X111007147Y-74786819D01*
X111044608Y-74824280D01*
X111044612Y-74824283D01*
X111187704Y-74912544D01*
X111187707Y-74912545D01*
X111187713Y-74912549D01*
X111347315Y-74965436D01*
X111445826Y-74975500D01*
X111445831Y-74975500D01*
X111979169Y-74975500D01*
X111979174Y-74975500D01*
X112077685Y-74965436D01*
X112237287Y-74912549D01*
X112380391Y-74824281D01*
X112412672Y-74792000D01*
X112473995Y-74758515D01*
X112543687Y-74763499D01*
X112588034Y-74792000D01*
X112619919Y-74823885D01*
X112762922Y-74912091D01*
X112762927Y-74912093D01*
X112922416Y-74964942D01*
X113020856Y-74974999D01*
X113537500Y-74974999D01*
X113554136Y-74974999D01*
X113554152Y-74974998D01*
X113652583Y-74964943D01*
X113812072Y-74912093D01*
X113812077Y-74912091D01*
X113955080Y-74823885D01*
X114073885Y-74705080D01*
X114162091Y-74562077D01*
X114162093Y-74562072D01*
X114214942Y-74402583D01*
X114224999Y-74304150D01*
X114225000Y-74304137D01*
X114225000Y-74250000D01*
X113537500Y-74250000D01*
X113537500Y-74974999D01*
X113020856Y-74974999D01*
X113037500Y-74974998D01*
X113037500Y-73750000D01*
X113537500Y-73750000D01*
X114224999Y-73750000D01*
X114224999Y-73695864D01*
X114224998Y-73695847D01*
X114214943Y-73597416D01*
X114162093Y-73437927D01*
X114162091Y-73437922D01*
X114073885Y-73294919D01*
X113955080Y-73176114D01*
X113812077Y-73087908D01*
X113812072Y-73087906D01*
X113652583Y-73035057D01*
X113554150Y-73025000D01*
X113537500Y-73025000D01*
X113537500Y-73750000D01*
X113037500Y-73750000D01*
X113037500Y-73024999D01*
X113020856Y-73025000D01*
X112922415Y-73035057D01*
X112762927Y-73087906D01*
X112762922Y-73087908D01*
X112619919Y-73176114D01*
X112588033Y-73208000D01*
X112526709Y-73241485D01*
X112457018Y-73236499D01*
X112412673Y-73208000D01*
X112380392Y-73175719D01*
X112380387Y-73175716D01*
X112237295Y-73087455D01*
X112237289Y-73087452D01*
X112237287Y-73087451D01*
X112077685Y-73034564D01*
X112077683Y-73034563D01*
X111979181Y-73024500D01*
X111979174Y-73024500D01*
X111445826Y-73024500D01*
X111445818Y-73024500D01*
X111347316Y-73034563D01*
X111347315Y-73034564D01*
X111268219Y-73060773D01*
X111187715Y-73087450D01*
X111187704Y-73087455D01*
X111044612Y-73175716D01*
X111044608Y-73175719D01*
X111007147Y-73213181D01*
X110945824Y-73246666D01*
X110919466Y-73249500D01*
X109862230Y-73249500D01*
X109795191Y-73229815D01*
X109774549Y-73213181D01*
X108658480Y-72097112D01*
X108624995Y-72035789D01*
X108629979Y-71966097D01*
X108671851Y-71910164D01*
X108737315Y-71885747D01*
X108805588Y-71900599D01*
X108810300Y-71903308D01*
X108835394Y-71918478D01*
X108997804Y-71969086D01*
X109068384Y-71975500D01*
X109068387Y-71975500D01*
X109581613Y-71975500D01*
X109581616Y-71975500D01*
X109652196Y-71969086D01*
X109814606Y-71918478D01*
X109960185Y-71830472D01*
X110003837Y-71786820D01*
X110065160Y-71753334D01*
X110091519Y-71750500D01*
X110919466Y-71750500D01*
X110986505Y-71770185D01*
X111007147Y-71786819D01*
X111044608Y-71824280D01*
X111044612Y-71824283D01*
X111187704Y-71912544D01*
X111187707Y-71912545D01*
X111187713Y-71912549D01*
X111347315Y-71965436D01*
X111445826Y-71975500D01*
X111445831Y-71975500D01*
X111979169Y-71975500D01*
X111979174Y-71975500D01*
X112077685Y-71965436D01*
X112237287Y-71912549D01*
X112380391Y-71824281D01*
X112412319Y-71792353D01*
X112473642Y-71758868D01*
X112543334Y-71763852D01*
X112587681Y-71792353D01*
X112619608Y-71824280D01*
X112619612Y-71824283D01*
X112762704Y-71912544D01*
X112762707Y-71912545D01*
X112762713Y-71912549D01*
X112922315Y-71965436D01*
X113020826Y-71975500D01*
X113150270Y-71975500D01*
X113217309Y-71995185D01*
X113237951Y-72011819D01*
X114204548Y-72978415D01*
X114204549Y-72978416D01*
X114260696Y-73034563D01*
X114309085Y-73082952D01*
X114431998Y-73165080D01*
X114432011Y-73165087D01*
X114568582Y-73221656D01*
X114568587Y-73221658D01*
X114568591Y-73221658D01*
X114568592Y-73221659D01*
X114713579Y-73250500D01*
X114713582Y-73250500D01*
X115175501Y-73250500D01*
X115242540Y-73270185D01*
X115288295Y-73322989D01*
X115299501Y-73374500D01*
X115299501Y-73475018D01*
X115310000Y-73577796D01*
X115310001Y-73577799D01*
X115351044Y-73701656D01*
X115365186Y-73744334D01*
X115457288Y-73893656D01*
X115581344Y-74017712D01*
X115730666Y-74109814D01*
X115897203Y-74164999D01*
X115999991Y-74175500D01*
X116925008Y-74175499D01*
X116925016Y-74175498D01*
X116925019Y-74175498D01*
X116981302Y-74169748D01*
X117027797Y-74164999D01*
X117194334Y-74109814D01*
X117343656Y-74017712D01*
X117413882Y-73947485D01*
X117475201Y-73914003D01*
X117544893Y-73918987D01*
X117589241Y-73947488D01*
X118349700Y-74707947D01*
X118349707Y-74707953D01*
X118413380Y-74750497D01*
X118413382Y-74750498D01*
X118413385Y-74750500D01*
X118472627Y-74790084D01*
X118472628Y-74790084D01*
X118472629Y-74790085D01*
X118555186Y-74824281D01*
X118609209Y-74846658D01*
X118609213Y-74846658D01*
X118609214Y-74846659D01*
X118754201Y-74875500D01*
X118754204Y-74875500D01*
X118754205Y-74875500D01*
X118902039Y-74875500D01*
X121909457Y-74875500D01*
X121974553Y-74893961D01*
X122003803Y-74912003D01*
X122164792Y-74965349D01*
X122264155Y-74975500D01*
X122400268Y-74975499D01*
X122467308Y-74995183D01*
X122487950Y-75011818D01*
X123559080Y-76082948D01*
X123559084Y-76082951D01*
X123681998Y-76165080D01*
X123682011Y-76165087D01*
X123818582Y-76221656D01*
X123818587Y-76221658D01*
X123818591Y-76221658D01*
X123818592Y-76221659D01*
X123963579Y-76250500D01*
X123963582Y-76250500D01*
X124111417Y-76250500D01*
X143700028Y-76250500D01*
X143740983Y-76257458D01*
X143820745Y-76285368D01*
X143820750Y-76285369D01*
X143999996Y-76305565D01*
X144000000Y-76305565D01*
X144000004Y-76305565D01*
X144179249Y-76285369D01*
X144179252Y-76285368D01*
X144179255Y-76285368D01*
X144259017Y-76257457D01*
X144299972Y-76250500D01*
X145073920Y-76250500D01*
X145171462Y-76231096D01*
X145218913Y-76221658D01*
X145355495Y-76165084D01*
X145408277Y-76129816D01*
X145478416Y-76082952D01*
X146695452Y-74865915D01*
X146759416Y-74770185D01*
X146772570Y-74750499D01*
X146772570Y-74750497D01*
X146777584Y-74742995D01*
X146809856Y-74665084D01*
X146834159Y-74606412D01*
X146863000Y-74461417D01*
X146863000Y-74313582D01*
X146863000Y-73889493D01*
X146867923Y-73854899D01*
X146868828Y-73851784D01*
X146910265Y-73709156D01*
X146913000Y-73674405D01*
X146912999Y-73325596D01*
X146910265Y-73290844D01*
X146867055Y-73142113D01*
X146797795Y-73025001D01*
X146788217Y-73008805D01*
X146788210Y-73008796D01*
X146678703Y-72899289D01*
X146678694Y-72899282D01*
X146569851Y-72834913D01*
X146545387Y-72820445D01*
X146396656Y-72777235D01*
X146396653Y-72777234D01*
X146396651Y-72777234D01*
X146361910Y-72774500D01*
X146361905Y-72774500D01*
X146324310Y-72774500D01*
X146300118Y-72772117D01*
X146186420Y-72749500D01*
X146186418Y-72749500D01*
X146038582Y-72749500D01*
X146038577Y-72749500D01*
X145924875Y-72772117D01*
X145900687Y-72774500D01*
X145863096Y-72774500D01*
X145828347Y-72777234D01*
X145824530Y-72778343D01*
X145679613Y-72820445D01*
X145679611Y-72820445D01*
X145679611Y-72820446D01*
X145546305Y-72899282D01*
X145546296Y-72899289D01*
X145436789Y-73008796D01*
X145436782Y-73008805D01*
X145389677Y-73088457D01*
X145357945Y-73142113D01*
X145330524Y-73236499D01*
X145314734Y-73290847D01*
X145314734Y-73290849D01*
X145312000Y-73325589D01*
X145312000Y-73674393D01*
X145312001Y-73674415D01*
X145314734Y-73709153D01*
X145357077Y-73854899D01*
X145362000Y-73889493D01*
X145362000Y-74025270D01*
X145342315Y-74092309D01*
X145325681Y-74112951D01*
X144725451Y-74713181D01*
X144664128Y-74746666D01*
X144637770Y-74749500D01*
X144299972Y-74749500D01*
X144259017Y-74742542D01*
X144179254Y-74714631D01*
X144179249Y-74714630D01*
X144000004Y-74694435D01*
X143999996Y-74694435D01*
X143820750Y-74714630D01*
X143820745Y-74714631D01*
X143740983Y-74742542D01*
X143700028Y-74749500D01*
X125078402Y-74749500D01*
X125011363Y-74729815D01*
X124965608Y-74677011D01*
X124955664Y-74607853D01*
X124971157Y-74565108D01*
X124970993Y-74565032D01*
X124971854Y-74563183D01*
X124972862Y-74560405D01*
X124974044Y-74558488D01*
X124974047Y-74558481D01*
X125027355Y-74397606D01*
X125037499Y-74298322D01*
X125037500Y-74298309D01*
X125037500Y-74250000D01*
X123961500Y-74250000D01*
X123894461Y-74230315D01*
X123848706Y-74177511D01*
X123837500Y-74126000D01*
X123837500Y-73750000D01*
X124337500Y-73750000D01*
X125037499Y-73750000D01*
X125037499Y-73701692D01*
X125037498Y-73701677D01*
X125027355Y-73602392D01*
X124974047Y-73441518D01*
X124974042Y-73441507D01*
X124885075Y-73297271D01*
X124885072Y-73297267D01*
X124765232Y-73177427D01*
X124765228Y-73177424D01*
X124620992Y-73088457D01*
X124620981Y-73088452D01*
X124460106Y-73035144D01*
X124360822Y-73025000D01*
X124337500Y-73025000D01*
X124337500Y-73750000D01*
X123837500Y-73750000D01*
X123837500Y-73024999D01*
X123814193Y-73025000D01*
X123814174Y-73025001D01*
X123714892Y-73035144D01*
X123554018Y-73088452D01*
X123554007Y-73088457D01*
X123477097Y-73135897D01*
X123409705Y-73154338D01*
X123343041Y-73133416D01*
X123298272Y-73079774D01*
X123288000Y-73030359D01*
X123288000Y-71969640D01*
X123307685Y-71902601D01*
X123360489Y-71856846D01*
X123429647Y-71846902D01*
X123477098Y-71864102D01*
X123554011Y-71911544D01*
X123554018Y-71911547D01*
X123714893Y-71964855D01*
X123814183Y-71974999D01*
X124337500Y-71974999D01*
X124360808Y-71974999D01*
X124360822Y-71974998D01*
X124460107Y-71964855D01*
X124620981Y-71911547D01*
X124620992Y-71911542D01*
X124765228Y-71822575D01*
X124765232Y-71822572D01*
X124885072Y-71702732D01*
X124885075Y-71702728D01*
X124974042Y-71558492D01*
X124974047Y-71558481D01*
X125027355Y-71397606D01*
X125037499Y-71298322D01*
X125037500Y-71298309D01*
X125037500Y-71250000D01*
X124337500Y-71250000D01*
X124337500Y-71974999D01*
X123814183Y-71974999D01*
X123837500Y-71974998D01*
X123837500Y-70750000D01*
X124337500Y-70750000D01*
X125037499Y-70750000D01*
X125037499Y-70701692D01*
X125037498Y-70701677D01*
X125027355Y-70602392D01*
X124974047Y-70441518D01*
X124974042Y-70441507D01*
X124885075Y-70297271D01*
X124885072Y-70297267D01*
X124765232Y-70177427D01*
X124765228Y-70177424D01*
X124620992Y-70088457D01*
X124620981Y-70088452D01*
X124460106Y-70035144D01*
X124360822Y-70025000D01*
X124337500Y-70025000D01*
X124337500Y-70750000D01*
X123837500Y-70750000D01*
X123837500Y-70024999D01*
X123814193Y-70025000D01*
X123814174Y-70025001D01*
X123714892Y-70035144D01*
X123554018Y-70088452D01*
X123554007Y-70088457D01*
X123477097Y-70135897D01*
X123409705Y-70154338D01*
X123343041Y-70133416D01*
X123298272Y-70079774D01*
X123288000Y-70030359D01*
X123288000Y-68324499D01*
X123307685Y-68257460D01*
X123360489Y-68211705D01*
X123412000Y-68200499D01*
X123975002Y-68200499D01*
X123975008Y-68200499D01*
X124077797Y-68189999D01*
X124244334Y-68134814D01*
X124393656Y-68042712D01*
X124517712Y-67918656D01*
X124609814Y-67769334D01*
X124664999Y-67602797D01*
X124675500Y-67500009D01*
X124675499Y-66799499D01*
X124695183Y-66732461D01*
X124747987Y-66686706D01*
X124799499Y-66675500D01*
X126612770Y-66675500D01*
X126679809Y-66695185D01*
X126700451Y-66711819D01*
X128313181Y-68324549D01*
X128346666Y-68385872D01*
X128349500Y-68412230D01*
X128349500Y-69251122D01*
X128349501Y-69251125D01*
X128352399Y-69293886D01*
X128352399Y-69293887D01*
X128398360Y-69478696D01*
X128482967Y-69649292D01*
X128482969Y-69649295D01*
X128602277Y-69797721D01*
X128602278Y-69797722D01*
X128750704Y-69917030D01*
X128750707Y-69917032D01*
X128921302Y-70001639D01*
X128921303Y-70001639D01*
X128921307Y-70001641D01*
X129106111Y-70047600D01*
X129148877Y-70050500D01*
X129987769Y-70050499D01*
X130054808Y-70070183D01*
X130075450Y-70086818D01*
X134071586Y-74082954D01*
X134098169Y-74100715D01*
X134111787Y-74109814D01*
X134194505Y-74165084D01*
X134194506Y-74165084D01*
X134194507Y-74165085D01*
X134251079Y-74188518D01*
X134251080Y-74188518D01*
X134331088Y-74221659D01*
X134447241Y-74244763D01*
X134466468Y-74248587D01*
X134476081Y-74250500D01*
X134476082Y-74250500D01*
X141686419Y-74250500D01*
X141736281Y-74240581D01*
X141800123Y-74227881D01*
X141824314Y-74225499D01*
X141861894Y-74225499D01*
X141861904Y-74225499D01*
X141896656Y-74222765D01*
X142045387Y-74179555D01*
X142178698Y-74100715D01*
X142288215Y-73991198D01*
X142367055Y-73857887D01*
X142410265Y-73709156D01*
X142413000Y-73674405D01*
X142412999Y-73325596D01*
X142410265Y-73290844D01*
X142367055Y-73142113D01*
X142297795Y-73025001D01*
X142288217Y-73008805D01*
X142288210Y-73008796D01*
X142178703Y-72899289D01*
X142178694Y-72899282D01*
X142069851Y-72834913D01*
X142045387Y-72820445D01*
X141896656Y-72777235D01*
X141896653Y-72777234D01*
X141896651Y-72777234D01*
X141861910Y-72774500D01*
X141861905Y-72774500D01*
X141824310Y-72774500D01*
X141800118Y-72772117D01*
X141686420Y-72749500D01*
X141686418Y-72749500D01*
X134912230Y-72749500D01*
X134845191Y-72729815D01*
X134824549Y-72713181D01*
X131386818Y-69275450D01*
X131353333Y-69214127D01*
X131350499Y-69187769D01*
X131350499Y-68348877D01*
X131350498Y-68348876D01*
X131347600Y-68306111D01*
X131301641Y-68121307D01*
X131279872Y-68077413D01*
X131217032Y-67950707D01*
X131217030Y-67950704D01*
X131097722Y-67802278D01*
X131097721Y-67802277D01*
X131028514Y-67746647D01*
X130988595Y-67689304D01*
X130986015Y-67619482D01*
X131021594Y-67559349D01*
X131028514Y-67553353D01*
X131060309Y-67527795D01*
X131097722Y-67497722D01*
X131217030Y-67349296D01*
X131231854Y-67319406D01*
X131279275Y-67268093D01*
X131342942Y-67250500D01*
X134525501Y-67250500D01*
X134592540Y-67270185D01*
X134638295Y-67322989D01*
X134649501Y-67374500D01*
X134649501Y-67958034D01*
X134660113Y-68077415D01*
X134716089Y-68273045D01*
X134716090Y-68273048D01*
X134716091Y-68273049D01*
X134810302Y-68453407D01*
X134810304Y-68453409D01*
X134938890Y-68611109D01*
X135032803Y-68687684D01*
X135096593Y-68739698D01*
X135276951Y-68833909D01*
X135472582Y-68889886D01*
X135591963Y-68900500D01*
X136708036Y-68900499D01*
X136827418Y-68889886D01*
X137023049Y-68833909D01*
X137203407Y-68739698D01*
X137361109Y-68611109D01*
X137489698Y-68453407D01*
X137583909Y-68273049D01*
X137639886Y-68077418D01*
X137650500Y-67958037D01*
X137650499Y-65041964D01*
X137639886Y-64922582D01*
X137595012Y-64765756D01*
X137583910Y-64726954D01*
X137583909Y-64726953D01*
X137583909Y-64726951D01*
X137489698Y-64546593D01*
X137410937Y-64450000D01*
X137361109Y-64388890D01*
X137203409Y-64260304D01*
X137203410Y-64260304D01*
X137203407Y-64260302D01*
X137023049Y-64166091D01*
X137023048Y-64166090D01*
X137023045Y-64166089D01*
X136905829Y-64132550D01*
X136827418Y-64110114D01*
X136827415Y-64110113D01*
X136827413Y-64110113D01*
X136761102Y-64104217D01*
X136708037Y-64099500D01*
X136708032Y-64099500D01*
X135591971Y-64099500D01*
X135591965Y-64099500D01*
X135591964Y-64099501D01*
X135580316Y-64100536D01*
X135472584Y-64110113D01*
X135276954Y-64166089D01*
X135188105Y-64212500D01*
X135096593Y-64260302D01*
X135096591Y-64260303D01*
X135096590Y-64260304D01*
X134938890Y-64388890D01*
X134810304Y-64546590D01*
X134716089Y-64726954D01*
X134672721Y-64878523D01*
X134668775Y-64892315D01*
X134660114Y-64922583D01*
X134660113Y-64922586D01*
X134652607Y-65007016D01*
X134649503Y-65041936D01*
X134649500Y-65041966D01*
X134649500Y-65625500D01*
X134629815Y-65692539D01*
X134577011Y-65738294D01*
X134525500Y-65749500D01*
X131342942Y-65749500D01*
X131275903Y-65729815D01*
X131231854Y-65680594D01*
X131217030Y-65650704D01*
X131097724Y-65502280D01*
X131097722Y-65502278D01*
X131028112Y-65446324D01*
X130988196Y-65388985D01*
X130985616Y-65319163D01*
X131021194Y-65259030D01*
X131028115Y-65253033D01*
X131097366Y-65197367D01*
X131097367Y-65197366D01*
X131216607Y-65049025D01*
X131216609Y-65049022D01*
X131301168Y-64878523D01*
X131347102Y-64693824D01*
X131350000Y-64651096D01*
X131350000Y-64450000D01*
X128340174Y-64450000D01*
X128300496Y-64471666D01*
X128274138Y-64474500D01*
X124799000Y-64474500D01*
X124731961Y-64454815D01*
X124686206Y-64402011D01*
X124675000Y-64350500D01*
X124675000Y-64212500D01*
X121325001Y-64212500D01*
X121325001Y-64350500D01*
X121305316Y-64417539D01*
X121252512Y-64463294D01*
X121201001Y-64474500D01*
X120299000Y-64474500D01*
X120231961Y-64454815D01*
X120186206Y-64402011D01*
X120175000Y-64350500D01*
X120175000Y-64175000D01*
X116825001Y-64175000D01*
X116825001Y-64350500D01*
X116805316Y-64417539D01*
X116752512Y-64463294D01*
X116701001Y-64474500D01*
X115799000Y-64474500D01*
X115731961Y-64454815D01*
X115686206Y-64402011D01*
X115675000Y-64350500D01*
X115675000Y-64137500D01*
X114250000Y-64137500D01*
X114250000Y-65049999D01*
X114551770Y-65049999D01*
X114618809Y-65069684D01*
X114664564Y-65122488D01*
X114674508Y-65191646D01*
X114645483Y-65255202D01*
X114639451Y-65261680D01*
X114137949Y-65763181D01*
X114076626Y-65796666D01*
X114050268Y-65799500D01*
X113024998Y-65799500D01*
X113024980Y-65799501D01*
X112922203Y-65810000D01*
X112922200Y-65810001D01*
X112755668Y-65865185D01*
X112755663Y-65865187D01*
X112606342Y-65957289D01*
X112482289Y-66081342D01*
X112482288Y-66081344D01*
X112430938Y-66164597D01*
X112414901Y-66190597D01*
X112362953Y-66237321D01*
X112309362Y-66249500D01*
X109476077Y-66249500D01*
X109362375Y-66272117D01*
X109338187Y-66274500D01*
X109300596Y-66274500D01*
X109265847Y-66277234D01*
X109265844Y-66277235D01*
X109117113Y-66320445D01*
X109117111Y-66320445D01*
X109117111Y-66320446D01*
X108983805Y-66399282D01*
X108983796Y-66399289D01*
X108874289Y-66508796D01*
X108874282Y-66508805D01*
X108795446Y-66642111D01*
X108795445Y-66642113D01*
X108775194Y-66711819D01*
X108752234Y-66790847D01*
X108752234Y-66790849D01*
X108749500Y-66825589D01*
X108749500Y-67174393D01*
X108749501Y-67174415D01*
X108752234Y-67209152D01*
X108752234Y-67209155D01*
X108752235Y-67209156D01*
X108795445Y-67357887D01*
X108795446Y-67357888D01*
X108874282Y-67491194D01*
X108874289Y-67491203D01*
X108983796Y-67600710D01*
X108983805Y-67600717D01*
X108987322Y-67602797D01*
X109117113Y-67679555D01*
X109265844Y-67722765D01*
X109300595Y-67725500D01*
X109338187Y-67725499D01*
X109362379Y-67727881D01*
X109382232Y-67731831D01*
X109476080Y-67750500D01*
X109476082Y-67750500D01*
X112355622Y-67750500D01*
X112422661Y-67770185D01*
X112461159Y-67809401D01*
X112482288Y-67843656D01*
X112606344Y-67967712D01*
X112755666Y-68059814D01*
X112922203Y-68114999D01*
X113024991Y-68125500D01*
X114975008Y-68125499D01*
X115077797Y-68114999D01*
X115244334Y-68059814D01*
X115393656Y-67967712D01*
X115517712Y-67843656D01*
X115609814Y-67694334D01*
X115664999Y-67527797D01*
X115675500Y-67425009D01*
X115675499Y-66499992D01*
X115667433Y-66421036D01*
X115680202Y-66352347D01*
X115703104Y-66320762D01*
X116012050Y-66011816D01*
X116073372Y-65978334D01*
X116099730Y-65975500D01*
X116848529Y-65975500D01*
X116915568Y-65995185D01*
X116961323Y-66047989D01*
X116971267Y-66117147D01*
X116954068Y-66164594D01*
X116938031Y-66190597D01*
X116890187Y-66268163D01*
X116890185Y-66268168D01*
X116887181Y-66277234D01*
X116835001Y-66434703D01*
X116835001Y-66434704D01*
X116835000Y-66434704D01*
X116824500Y-66537483D01*
X116824500Y-67462501D01*
X116824501Y-67462519D01*
X116835000Y-67565296D01*
X116835001Y-67565299D01*
X116852956Y-67619482D01*
X116890186Y-67731834D01*
X116982288Y-67881156D01*
X117106344Y-68005212D01*
X117255666Y-68097314D01*
X117422203Y-68152499D01*
X117524991Y-68163000D01*
X119475008Y-68162999D01*
X119577797Y-68152499D01*
X119744334Y-68097314D01*
X119893656Y-68005212D01*
X120017712Y-67881156D01*
X120109814Y-67731834D01*
X120164999Y-67565297D01*
X120175500Y-67462509D01*
X120175499Y-66799499D01*
X120195183Y-66732461D01*
X120247987Y-66686706D01*
X120299499Y-66675500D01*
X121200500Y-66675500D01*
X121267539Y-66695185D01*
X121313294Y-66747989D01*
X121324500Y-66799500D01*
X121324500Y-67500001D01*
X121324501Y-67500019D01*
X121335000Y-67602796D01*
X121335001Y-67602799D01*
X121375660Y-67725499D01*
X121390186Y-67769334D01*
X121482288Y-67918656D01*
X121606344Y-68042712D01*
X121728097Y-68117809D01*
X121774821Y-68169755D01*
X121787000Y-68223347D01*
X121787000Y-70198126D01*
X121767315Y-70265165D01*
X121750681Y-70285807D01*
X121739532Y-70296955D01*
X121739529Y-70296959D01*
X121650501Y-70441294D01*
X121650496Y-70441305D01*
X121597151Y-70602290D01*
X121587000Y-70701647D01*
X121587000Y-71298337D01*
X121587001Y-71298355D01*
X121597150Y-71397707D01*
X121597151Y-71397710D01*
X121650496Y-71558694D01*
X121650501Y-71558705D01*
X121739529Y-71703040D01*
X121739532Y-71703044D01*
X121750681Y-71714193D01*
X121784166Y-71775516D01*
X121787000Y-71801874D01*
X121787000Y-73198126D01*
X121767315Y-73265165D01*
X121750681Y-73285807D01*
X121739532Y-73296955D01*
X121739531Y-73296956D01*
X121728035Y-73315596D01*
X121676088Y-73362321D01*
X121622496Y-73374500D01*
X120824000Y-73374500D01*
X120756961Y-73354815D01*
X120711206Y-73302011D01*
X120700000Y-73250500D01*
X120700000Y-72750000D01*
X119411500Y-72750000D01*
X119344461Y-72730315D01*
X119298706Y-72677511D01*
X119287500Y-72626000D01*
X119287500Y-72250000D01*
X119787500Y-72250000D01*
X120699999Y-72250000D01*
X120699999Y-71525028D01*
X120699998Y-71525013D01*
X120689505Y-71422302D01*
X120634358Y-71255880D01*
X120634356Y-71255875D01*
X120542315Y-71106654D01*
X120418345Y-70982684D01*
X120269124Y-70890643D01*
X120269119Y-70890641D01*
X120102697Y-70835494D01*
X120102690Y-70835493D01*
X119999986Y-70825000D01*
X119787500Y-70825000D01*
X119787500Y-72250000D01*
X119287500Y-72250000D01*
X119287500Y-70825000D01*
X119075029Y-70825000D01*
X119075012Y-70825001D01*
X118972302Y-70835494D01*
X118805880Y-70890641D01*
X118805875Y-70890643D01*
X118656654Y-70982684D01*
X118532684Y-71106654D01*
X118440643Y-71255875D01*
X118440641Y-71255880D01*
X118385494Y-71422302D01*
X118385493Y-71422309D01*
X118375000Y-71525013D01*
X118375000Y-72311147D01*
X118355315Y-72378186D01*
X118302511Y-72423941D01*
X118233353Y-72433885D01*
X118169797Y-72404860D01*
X118163319Y-72398828D01*
X117681541Y-71917050D01*
X117681536Y-71917046D01*
X117680605Y-71916424D01*
X117680227Y-71915972D01*
X117676830Y-71913184D01*
X117677358Y-71912539D01*
X117635802Y-71862810D01*
X117625499Y-71813324D01*
X117625499Y-71524998D01*
X117625498Y-71524981D01*
X117614999Y-71422203D01*
X117614998Y-71422200D01*
X117584980Y-71331613D01*
X117559814Y-71255666D01*
X117467712Y-71106344D01*
X117343656Y-70982288D01*
X117194334Y-70890186D01*
X117027797Y-70835001D01*
X117027795Y-70835000D01*
X116925010Y-70824500D01*
X115999998Y-70824500D01*
X115999980Y-70824501D01*
X115897203Y-70835000D01*
X115897200Y-70835001D01*
X115730668Y-70890185D01*
X115730663Y-70890187D01*
X115581342Y-70982289D01*
X115457289Y-71106342D01*
X115365187Y-71255663D01*
X115365185Y-71255668D01*
X115351040Y-71298355D01*
X115310001Y-71422203D01*
X115310001Y-71422204D01*
X115310000Y-71422204D01*
X115299500Y-71524983D01*
X115299500Y-71625500D01*
X115279815Y-71692539D01*
X115227011Y-71738294D01*
X115175500Y-71749500D01*
X115149729Y-71749500D01*
X115082690Y-71729815D01*
X115062048Y-71713181D01*
X114261819Y-70912951D01*
X114228334Y-70851628D01*
X114225500Y-70825270D01*
X114225500Y-70695831D01*
X114225499Y-70695818D01*
X114215436Y-70597316D01*
X114215436Y-70597315D01*
X114162549Y-70437713D01*
X114162545Y-70437707D01*
X114162544Y-70437704D01*
X114074283Y-70294612D01*
X114074280Y-70294608D01*
X113955391Y-70175719D01*
X113955387Y-70175716D01*
X113812295Y-70087455D01*
X113812289Y-70087452D01*
X113812287Y-70087451D01*
X113652685Y-70034564D01*
X113652683Y-70034563D01*
X113554181Y-70024500D01*
X113554174Y-70024500D01*
X113020826Y-70024500D01*
X113020818Y-70024500D01*
X112922316Y-70034563D01*
X112922315Y-70034564D01*
X112843219Y-70060773D01*
X112762715Y-70087450D01*
X112762704Y-70087455D01*
X112619612Y-70175716D01*
X112619608Y-70175719D01*
X112587681Y-70207647D01*
X112526358Y-70241132D01*
X112456666Y-70236148D01*
X112412319Y-70207647D01*
X112380391Y-70175719D01*
X112380387Y-70175716D01*
X112237295Y-70087455D01*
X112237289Y-70087452D01*
X112237287Y-70087451D01*
X112077685Y-70034564D01*
X112077683Y-70034563D01*
X111979181Y-70024500D01*
X111979174Y-70024500D01*
X111445826Y-70024500D01*
X111445818Y-70024500D01*
X111347316Y-70034563D01*
X111347315Y-70034564D01*
X111268219Y-70060773D01*
X111187715Y-70087450D01*
X111187704Y-70087455D01*
X111044612Y-70175716D01*
X111044608Y-70175719D01*
X111007147Y-70213181D01*
X110945824Y-70246666D01*
X110919466Y-70249500D01*
X110091519Y-70249500D01*
X110024480Y-70229815D01*
X110003837Y-70213180D01*
X109960188Y-70169531D01*
X109960188Y-70169530D01*
X109814606Y-70081522D01*
X109778217Y-70070183D01*
X109652196Y-70030914D01*
X109652194Y-70030913D01*
X109652192Y-70030913D01*
X109602778Y-70026423D01*
X109581616Y-70024500D01*
X109581613Y-70024500D01*
X109462229Y-70024500D01*
X109395190Y-70004815D01*
X109374548Y-69988181D01*
X108236819Y-68850451D01*
X108203334Y-68789128D01*
X108200500Y-68762770D01*
X108200500Y-67389493D01*
X108205423Y-67354899D01*
X108207051Y-67349295D01*
X108247765Y-67209156D01*
X108250500Y-67174405D01*
X108250499Y-66825596D01*
X108247765Y-66790844D01*
X108204555Y-66642113D01*
X108125715Y-66508802D01*
X108125713Y-66508800D01*
X108125710Y-66508796D01*
X108016203Y-66399289D01*
X108016194Y-66399282D01*
X107935111Y-66351330D01*
X107882887Y-66320445D01*
X107734156Y-66277235D01*
X107734153Y-66277234D01*
X107734151Y-66277234D01*
X107699410Y-66274500D01*
X107699405Y-66274500D01*
X107661810Y-66274500D01*
X107637618Y-66272117D01*
X107523920Y-66249500D01*
X107523918Y-66249500D01*
X107376082Y-66249500D01*
X107376077Y-66249500D01*
X107262375Y-66272117D01*
X107238187Y-66274500D01*
X107200596Y-66274500D01*
X107165847Y-66277234D01*
X107165844Y-66277235D01*
X107017113Y-66320445D01*
X107017111Y-66320445D01*
X107017111Y-66320446D01*
X106883805Y-66399282D01*
X106883796Y-66399289D01*
X106774289Y-66508796D01*
X106774282Y-66508805D01*
X106695446Y-66642111D01*
X106695445Y-66642113D01*
X106675194Y-66711819D01*
X106652234Y-66790847D01*
X106652234Y-66790849D01*
X106649500Y-66825589D01*
X95500500Y-66825589D01*
X95500500Y-63378711D01*
X96649500Y-63378711D01*
X96649500Y-63621288D01*
X96681161Y-63861785D01*
X96743947Y-64096104D01*
X96811961Y-64260304D01*
X96836776Y-64320212D01*
X96958064Y-64530289D01*
X96958066Y-64530292D01*
X96958067Y-64530293D01*
X97105733Y-64722736D01*
X97105739Y-64722743D01*
X97277256Y-64894260D01*
X97277263Y-64894266D01*
X97314167Y-64922583D01*
X97469711Y-65041936D01*
X97679788Y-65163224D01*
X97903900Y-65256054D01*
X98138211Y-65318838D01*
X98318586Y-65342584D01*
X98378711Y-65350500D01*
X98378712Y-65350500D01*
X98621289Y-65350500D01*
X98669388Y-65344167D01*
X98861789Y-65318838D01*
X99096100Y-65256054D01*
X99320212Y-65163224D01*
X99530289Y-65041936D01*
X99722738Y-64894265D01*
X99894265Y-64722738D01*
X100041936Y-64530289D01*
X100146034Y-64349986D01*
X112325001Y-64349986D01*
X112335494Y-64452697D01*
X112390641Y-64619119D01*
X112390643Y-64619124D01*
X112482684Y-64768345D01*
X112606654Y-64892315D01*
X112755875Y-64984356D01*
X112755880Y-64984358D01*
X112922302Y-65039505D01*
X112922309Y-65039506D01*
X113025019Y-65049999D01*
X113749999Y-65049999D01*
X113750000Y-65049998D01*
X113750000Y-64137500D01*
X112325001Y-64137500D01*
X112325001Y-64349986D01*
X100146034Y-64349986D01*
X100163224Y-64320212D01*
X100256054Y-64096100D01*
X100318838Y-63861789D01*
X100333699Y-63748903D01*
X128350000Y-63748903D01*
X128350000Y-63950000D01*
X129600000Y-63950000D01*
X130100000Y-63950000D01*
X131350000Y-63950000D01*
X131350000Y-63748903D01*
X131347102Y-63706175D01*
X131301168Y-63521476D01*
X131216609Y-63350977D01*
X131216607Y-63350974D01*
X131097367Y-63202633D01*
X131097366Y-63202632D01*
X130949025Y-63083392D01*
X130949022Y-63083390D01*
X130778523Y-62998831D01*
X130593824Y-62952897D01*
X130551097Y-62950000D01*
X130100000Y-62950000D01*
X130100000Y-63950000D01*
X129600000Y-63950000D01*
X129600000Y-62950000D01*
X129148903Y-62950000D01*
X129106175Y-62952897D01*
X128921476Y-62998831D01*
X128750977Y-63083390D01*
X128750974Y-63083392D01*
X128602633Y-63202632D01*
X128602632Y-63202633D01*
X128483392Y-63350974D01*
X128483390Y-63350977D01*
X128398831Y-63521476D01*
X128352897Y-63706175D01*
X128350000Y-63748903D01*
X100333699Y-63748903D01*
X100350500Y-63621288D01*
X100350500Y-63425013D01*
X112325000Y-63425013D01*
X112325000Y-63637500D01*
X113750000Y-63637500D01*
X114250000Y-63637500D01*
X115674999Y-63637500D01*
X115674999Y-63462513D01*
X116825000Y-63462513D01*
X116825000Y-63675000D01*
X118250000Y-63675000D01*
X118750000Y-63675000D01*
X120174999Y-63675000D01*
X120174999Y-63500013D01*
X121325000Y-63500013D01*
X121325000Y-63712500D01*
X122750000Y-63712500D01*
X123250000Y-63712500D01*
X124674999Y-63712500D01*
X124674999Y-63500028D01*
X124674998Y-63500013D01*
X124664505Y-63397302D01*
X124609358Y-63230880D01*
X124609356Y-63230875D01*
X124517315Y-63081654D01*
X124393345Y-62957684D01*
X124244124Y-62865643D01*
X124244119Y-62865641D01*
X124077697Y-62810494D01*
X124077690Y-62810493D01*
X123974986Y-62800000D01*
X123250000Y-62800000D01*
X123250000Y-63712500D01*
X122750000Y-63712500D01*
X122750000Y-62800000D01*
X122025028Y-62800000D01*
X122025012Y-62800001D01*
X121922302Y-62810494D01*
X121755880Y-62865641D01*
X121755875Y-62865643D01*
X121606654Y-62957684D01*
X121482684Y-63081654D01*
X121390643Y-63230875D01*
X121390641Y-63230880D01*
X121335494Y-63397302D01*
X121335493Y-63397309D01*
X121325000Y-63500013D01*
X120174999Y-63500013D01*
X120174999Y-63462528D01*
X120174998Y-63462513D01*
X120164505Y-63359802D01*
X120109358Y-63193380D01*
X120109356Y-63193375D01*
X120017315Y-63044154D01*
X119893345Y-62920184D01*
X119744124Y-62828143D01*
X119744119Y-62828141D01*
X119577697Y-62772994D01*
X119577690Y-62772993D01*
X119474986Y-62762500D01*
X118750000Y-62762500D01*
X118750000Y-63675000D01*
X118250000Y-63675000D01*
X118250000Y-62762500D01*
X117525028Y-62762500D01*
X117525012Y-62762501D01*
X117422302Y-62772994D01*
X117255880Y-62828141D01*
X117255875Y-62828143D01*
X117106654Y-62920184D01*
X116982684Y-63044154D01*
X116890643Y-63193375D01*
X116890641Y-63193380D01*
X116835494Y-63359802D01*
X116835493Y-63359809D01*
X116825000Y-63462513D01*
X115674999Y-63462513D01*
X115674999Y-63425028D01*
X115674998Y-63425013D01*
X115664505Y-63322302D01*
X115609358Y-63155880D01*
X115609356Y-63155875D01*
X115517315Y-63006654D01*
X115393345Y-62882684D01*
X115244124Y-62790643D01*
X115244119Y-62790641D01*
X115077697Y-62735494D01*
X115077690Y-62735493D01*
X114974986Y-62725000D01*
X114250000Y-62725000D01*
X114250000Y-63637500D01*
X113750000Y-63637500D01*
X113750000Y-62725000D01*
X113025028Y-62725000D01*
X113025012Y-62725001D01*
X112922302Y-62735494D01*
X112755880Y-62790641D01*
X112755875Y-62790643D01*
X112606654Y-62882684D01*
X112482684Y-63006654D01*
X112390643Y-63155875D01*
X112390641Y-63155880D01*
X112335494Y-63322302D01*
X112335493Y-63322309D01*
X112325000Y-63425013D01*
X100350500Y-63425013D01*
X100350500Y-63378712D01*
X100348011Y-63359809D01*
X100336084Y-63269207D01*
X100318838Y-63138211D01*
X100256054Y-62903900D01*
X100163224Y-62679788D01*
X100041936Y-62469711D01*
X100028449Y-62452135D01*
X142419500Y-62452135D01*
X142419500Y-65547870D01*
X142419501Y-65547876D01*
X142425908Y-65607483D01*
X142476202Y-65742328D01*
X142476206Y-65742335D01*
X142562452Y-65857544D01*
X142562455Y-65857547D01*
X142677664Y-65943793D01*
X142677671Y-65943797D01*
X142713843Y-65957288D01*
X142812517Y-65994091D01*
X142851258Y-65998256D01*
X142915806Y-66024993D01*
X142955654Y-66082386D01*
X142962000Y-66121545D01*
X142962000Y-73110508D01*
X142957077Y-73145098D01*
X142926456Y-73250500D01*
X142914734Y-73290847D01*
X142914734Y-73290849D01*
X142912000Y-73325589D01*
X142912000Y-73674393D01*
X142912001Y-73674415D01*
X142914734Y-73709152D01*
X142914734Y-73709155D01*
X142914735Y-73709156D01*
X142957945Y-73857887D01*
X142957946Y-73857888D01*
X143036782Y-73991194D01*
X143036789Y-73991203D01*
X143146296Y-74100710D01*
X143146305Y-74100717D01*
X143161689Y-74109815D01*
X143279613Y-74179555D01*
X143428344Y-74222765D01*
X143463095Y-74225500D01*
X143500687Y-74225499D01*
X143524879Y-74227881D01*
X143549969Y-74232872D01*
X143638580Y-74250500D01*
X143638582Y-74250500D01*
X143786419Y-74250500D01*
X143836281Y-74240581D01*
X143900123Y-74227881D01*
X143924314Y-74225499D01*
X143961894Y-74225499D01*
X143961904Y-74225499D01*
X143996656Y-74222765D01*
X144145387Y-74179555D01*
X144278698Y-74100715D01*
X144388215Y-73991198D01*
X144467055Y-73857887D01*
X144510265Y-73709156D01*
X144513000Y-73674405D01*
X144512999Y-73325596D01*
X144510265Y-73290844D01*
X144467922Y-73145098D01*
X144463000Y-73110508D01*
X144463000Y-66124499D01*
X144482685Y-66057460D01*
X144535489Y-66011705D01*
X144587000Y-66000499D01*
X145967871Y-66000499D01*
X145967872Y-66000499D01*
X146027483Y-65994091D01*
X146162331Y-65943796D01*
X146277546Y-65857546D01*
X146363796Y-65742331D01*
X146414091Y-65607483D01*
X146420500Y-65547873D01*
X146420499Y-63999998D01*
X147494891Y-63999998D01*
X147494891Y-64000001D01*
X147515300Y-64285362D01*
X147576109Y-64564895D01*
X147676091Y-64832958D01*
X147813191Y-65084038D01*
X147813196Y-65084046D01*
X147919882Y-65226561D01*
X147919883Y-65226562D01*
X148814767Y-64331677D01*
X148826497Y-64359995D01*
X148909670Y-64484472D01*
X149015528Y-64590330D01*
X149140005Y-64673503D01*
X149168320Y-64685231D01*
X148273436Y-65580115D01*
X148415960Y-65686807D01*
X148415961Y-65686808D01*
X148667042Y-65823908D01*
X148667041Y-65823908D01*
X148935104Y-65923890D01*
X149214637Y-65984699D01*
X149499999Y-66005109D01*
X149500001Y-66005109D01*
X149785362Y-65984699D01*
X150064895Y-65923890D01*
X150332958Y-65823908D01*
X150584047Y-65686803D01*
X150726561Y-65580116D01*
X150726562Y-65580115D01*
X149831679Y-64685231D01*
X149859995Y-64673503D01*
X149984472Y-64590330D01*
X150090330Y-64484472D01*
X150173503Y-64359995D01*
X150185231Y-64331678D01*
X151080115Y-65226562D01*
X151080116Y-65226561D01*
X151186803Y-65084047D01*
X151323908Y-64832958D01*
X151423890Y-64564895D01*
X151484699Y-64285362D01*
X151505109Y-64000001D01*
X151505109Y-63999998D01*
X151484699Y-63714637D01*
X151423890Y-63435104D01*
X151402857Y-63378711D01*
X164649500Y-63378711D01*
X164649500Y-63621288D01*
X164681161Y-63861785D01*
X164743947Y-64096104D01*
X164811961Y-64260304D01*
X164836776Y-64320212D01*
X164958064Y-64530289D01*
X164958066Y-64530292D01*
X164958067Y-64530293D01*
X165105733Y-64722736D01*
X165105739Y-64722743D01*
X165277256Y-64894260D01*
X165277263Y-64894266D01*
X165314167Y-64922583D01*
X165469711Y-65041936D01*
X165679788Y-65163224D01*
X165903900Y-65256054D01*
X166138211Y-65318838D01*
X166318586Y-65342584D01*
X166378711Y-65350500D01*
X166378712Y-65350500D01*
X166621289Y-65350500D01*
X166669388Y-65344167D01*
X166861789Y-65318838D01*
X167096100Y-65256054D01*
X167320212Y-65163224D01*
X167530289Y-65041936D01*
X167722738Y-64894265D01*
X167894265Y-64722738D01*
X168041936Y-64530289D01*
X168163224Y-64320212D01*
X168256054Y-64096100D01*
X168318838Y-63861789D01*
X168350500Y-63621288D01*
X168350500Y-63378712D01*
X168348011Y-63359809D01*
X168336084Y-63269207D01*
X168318838Y-63138211D01*
X168256054Y-62903900D01*
X168163224Y-62679788D01*
X168041936Y-62469711D01*
X167894265Y-62277262D01*
X167894260Y-62277256D01*
X167722743Y-62105739D01*
X167722736Y-62105733D01*
X167530293Y-61958067D01*
X167530292Y-61958066D01*
X167530289Y-61958064D01*
X167320212Y-61836776D01*
X167320205Y-61836773D01*
X167096104Y-61743947D01*
X166861785Y-61681161D01*
X166621289Y-61649500D01*
X166621288Y-61649500D01*
X166378712Y-61649500D01*
X166378711Y-61649500D01*
X166138214Y-61681161D01*
X165903895Y-61743947D01*
X165679794Y-61836773D01*
X165679785Y-61836777D01*
X165469706Y-61958067D01*
X165277263Y-62105733D01*
X165277256Y-62105739D01*
X165105739Y-62277256D01*
X165105733Y-62277263D01*
X164958067Y-62469706D01*
X164836777Y-62679785D01*
X164836773Y-62679794D01*
X164743947Y-62903895D01*
X164681161Y-63138214D01*
X164649500Y-63378711D01*
X151402857Y-63378711D01*
X151323908Y-63167041D01*
X151186808Y-62915961D01*
X151186807Y-62915960D01*
X151080115Y-62773436D01*
X150185231Y-63668320D01*
X150173503Y-63640005D01*
X150090330Y-63515528D01*
X149984472Y-63409670D01*
X149859995Y-63326497D01*
X149831678Y-63314767D01*
X150726562Y-62419883D01*
X150726561Y-62419882D01*
X150584046Y-62313196D01*
X150584038Y-62313191D01*
X150332957Y-62176091D01*
X150332958Y-62176091D01*
X150064895Y-62076109D01*
X149785362Y-62015300D01*
X149500001Y-61994891D01*
X149499999Y-61994891D01*
X149214637Y-62015300D01*
X148935104Y-62076109D01*
X148667041Y-62176091D01*
X148415961Y-62313191D01*
X148415953Y-62313196D01*
X148273437Y-62419882D01*
X148273436Y-62419883D01*
X149168321Y-63314767D01*
X149140005Y-63326497D01*
X149015528Y-63409670D01*
X148909670Y-63515528D01*
X148826497Y-63640005D01*
X148814768Y-63668321D01*
X147919883Y-62773436D01*
X147919882Y-62773437D01*
X147813196Y-62915953D01*
X147813191Y-62915961D01*
X147676091Y-63167041D01*
X147576109Y-63435104D01*
X147515300Y-63714637D01*
X147494891Y-63999998D01*
X146420499Y-63999998D01*
X146420499Y-62452128D01*
X146414091Y-62392517D01*
X146384506Y-62313196D01*
X146363797Y-62257671D01*
X146363793Y-62257664D01*
X146277547Y-62142455D01*
X146277544Y-62142452D01*
X146162335Y-62056206D01*
X146162328Y-62056202D01*
X146027482Y-62005908D01*
X146027483Y-62005908D01*
X145967883Y-61999501D01*
X145967881Y-61999500D01*
X145967873Y-61999500D01*
X145967864Y-61999500D01*
X142872129Y-61999500D01*
X142872123Y-61999501D01*
X142812516Y-62005908D01*
X142677671Y-62056202D01*
X142677664Y-62056206D01*
X142562455Y-62142452D01*
X142562452Y-62142455D01*
X142476206Y-62257664D01*
X142476202Y-62257671D01*
X142425908Y-62392517D01*
X142419501Y-62452116D01*
X142419501Y-62452123D01*
X142419500Y-62452135D01*
X100028449Y-62452135D01*
X99894265Y-62277262D01*
X99894260Y-62277256D01*
X99722743Y-62105739D01*
X99722736Y-62105733D01*
X99530293Y-61958067D01*
X99530292Y-61958066D01*
X99530289Y-61958064D01*
X99320212Y-61836776D01*
X99320205Y-61836773D01*
X99096104Y-61743947D01*
X98861785Y-61681161D01*
X98621289Y-61649500D01*
X98621288Y-61649500D01*
X98378712Y-61649500D01*
X98378711Y-61649500D01*
X98138214Y-61681161D01*
X97903895Y-61743947D01*
X97679794Y-61836773D01*
X97679785Y-61836777D01*
X97469706Y-61958067D01*
X97277263Y-62105733D01*
X97277256Y-62105739D01*
X97105739Y-62277256D01*
X97105733Y-62277263D01*
X96958067Y-62469706D01*
X96836777Y-62679785D01*
X96836773Y-62679794D01*
X96743947Y-62903895D01*
X96681161Y-63138214D01*
X96649500Y-63378711D01*
X95500500Y-63378711D01*
X95500500Y-60624500D01*
X95520185Y-60557461D01*
X95572989Y-60511706D01*
X95624500Y-60500500D01*
X169375500Y-60500500D01*
X169442539Y-60520185D01*
G37*
%TD.AperFunction*%
%TA.AperFunction,Conductor*%
G36*
X139536039Y-83714685D02*
G01*
X139581794Y-83767489D01*
X139593000Y-83819000D01*
X139593000Y-83825000D01*
X139976000Y-83825000D01*
X140043039Y-83844685D01*
X140088794Y-83897489D01*
X140100000Y-83949000D01*
X140100000Y-85175000D01*
X140297828Y-85175000D01*
X140297844Y-85174999D01*
X140357372Y-85168598D01*
X140357379Y-85168596D01*
X140492086Y-85118354D01*
X140492093Y-85118350D01*
X140607187Y-85032190D01*
X140607190Y-85032187D01*
X140693352Y-84917091D01*
X140697185Y-84910072D01*
X140746590Y-84860667D01*
X140806014Y-84845499D01*
X141037770Y-84845499D01*
X141104809Y-84865184D01*
X141125451Y-84881818D01*
X141512048Y-85268415D01*
X141512049Y-85268416D01*
X141583940Y-85340307D01*
X141616585Y-85372952D01*
X141739498Y-85455080D01*
X141739511Y-85455087D01*
X141876082Y-85511656D01*
X141876087Y-85511658D01*
X141876091Y-85511658D01*
X141876092Y-85511659D01*
X142021079Y-85540500D01*
X142021082Y-85540500D01*
X143908481Y-85540500D01*
X143975520Y-85560185D01*
X143996163Y-85576820D01*
X144039811Y-85620468D01*
X144039811Y-85620469D01*
X144039813Y-85620470D01*
X144039815Y-85620472D01*
X144185394Y-85708478D01*
X144347804Y-85759086D01*
X144418384Y-85765500D01*
X144418387Y-85765500D01*
X144931613Y-85765500D01*
X144931616Y-85765500D01*
X145002196Y-85759086D01*
X145164606Y-85708478D01*
X145310185Y-85620472D01*
X145412673Y-85517983D01*
X145473994Y-85484499D01*
X145543685Y-85489483D01*
X145588034Y-85517984D01*
X145659535Y-85589485D01*
X145693020Y-85650808D01*
X145688036Y-85720500D01*
X145646164Y-85776433D01*
X145637827Y-85782159D01*
X145497739Y-85870182D01*
X145370184Y-85997737D01*
X145274211Y-86150476D01*
X145214631Y-86320745D01*
X145214630Y-86320750D01*
X145194435Y-86499996D01*
X145194435Y-86500003D01*
X145214630Y-86679249D01*
X145214631Y-86679254D01*
X145274211Y-86849523D01*
X145279507Y-86857951D01*
X145370184Y-87002262D01*
X145497738Y-87129816D01*
X145650478Y-87225789D01*
X145650480Y-87225789D01*
X145650484Y-87225792D01*
X145656756Y-87228813D01*
X145655869Y-87230653D01*
X145691939Y-87253307D01*
X146293048Y-87854416D01*
X146326533Y-87915739D01*
X146323073Y-87981100D01*
X146284564Y-88097312D01*
X146284563Y-88097316D01*
X146274500Y-88195818D01*
X146274500Y-88325270D01*
X146254815Y-88392309D01*
X146238181Y-88412951D01*
X146012951Y-88638181D01*
X145951628Y-88671666D01*
X145925270Y-88674500D01*
X138074500Y-88674500D01*
X138007461Y-88654815D01*
X137961706Y-88602011D01*
X137950500Y-88550500D01*
X137950499Y-88201662D01*
X137950498Y-88201644D01*
X137940349Y-88102292D01*
X137940348Y-88102289D01*
X137900190Y-87981100D01*
X137887003Y-87941303D01*
X137886999Y-87941297D01*
X137886998Y-87941294D01*
X137797970Y-87796959D01*
X137797967Y-87796955D01*
X137786819Y-87785807D01*
X137753334Y-87724484D01*
X137750500Y-87698126D01*
X137750500Y-84969000D01*
X137770185Y-84901961D01*
X137822989Y-84856206D01*
X137874500Y-84845000D01*
X138200000Y-84845000D01*
X138700000Y-84845000D01*
X138893711Y-84845000D01*
X138960750Y-84864685D01*
X139002544Y-84909575D01*
X139006648Y-84917092D01*
X139092809Y-85032187D01*
X139092812Y-85032190D01*
X139207906Y-85118350D01*
X139207913Y-85118354D01*
X139342620Y-85168596D01*
X139342627Y-85168598D01*
X139402155Y-85174999D01*
X139402172Y-85175000D01*
X139600000Y-85175000D01*
X139600000Y-84325000D01*
X139031000Y-84325000D01*
X138963961Y-84305315D01*
X138918206Y-84252511D01*
X138907000Y-84201000D01*
X138907000Y-84195000D01*
X138700000Y-84195000D01*
X138700000Y-84845000D01*
X138200000Y-84845000D01*
X138200000Y-83819000D01*
X138219685Y-83751961D01*
X138272489Y-83706206D01*
X138324000Y-83695000D01*
X139469000Y-83695000D01*
X139536039Y-83714685D01*
G37*
%TD.AperFunction*%
%TA.AperFunction,Conductor*%
G36*
X126204809Y-79270185D02*
G01*
X126225451Y-79286819D01*
X126713181Y-79774548D01*
X126746666Y-79835871D01*
X126749500Y-79862229D01*
X126749500Y-80290188D01*
X126729815Y-80357227D01*
X126677011Y-80402982D01*
X126607853Y-80412926D01*
X126544297Y-80383901D01*
X126537819Y-80377869D01*
X126484877Y-80324927D01*
X126339395Y-80236980D01*
X126339396Y-80236980D01*
X126177105Y-80186409D01*
X126177106Y-80186409D01*
X126106572Y-80180000D01*
X126100000Y-80180000D01*
X126100000Y-81281000D01*
X126080315Y-81348039D01*
X126027511Y-81393794D01*
X125976000Y-81405000D01*
X124950001Y-81405000D01*
X124950001Y-81486582D01*
X124956408Y-81557102D01*
X124956409Y-81557107D01*
X125006981Y-81719397D01*
X125017229Y-81736349D01*
X125035066Y-81803903D01*
X125013549Y-81870377D01*
X124959509Y-81914666D01*
X124911113Y-81924500D01*
X123724000Y-81924500D01*
X123656961Y-81904815D01*
X123611206Y-81852011D01*
X123600000Y-81800500D01*
X123600000Y-81655000D01*
X122043000Y-81655000D01*
X122041129Y-81656870D01*
X122023315Y-81717539D01*
X121970511Y-81763294D01*
X121919002Y-81774500D01*
X121852130Y-81774500D01*
X121848805Y-81774679D01*
X121848799Y-81774573D01*
X121840837Y-81775000D01*
X120974000Y-81775000D01*
X120906961Y-81755315D01*
X120861206Y-81702511D01*
X120850000Y-81651000D01*
X120850000Y-81275000D01*
X121350000Y-81275000D01*
X121357000Y-81275000D01*
X121358662Y-81273337D01*
X121376685Y-81211961D01*
X121429489Y-81166206D01*
X121481000Y-81155000D01*
X122250000Y-81155000D01*
X122750000Y-81155000D01*
X123600000Y-81155000D01*
X123600000Y-80957172D01*
X123599999Y-80957155D01*
X123593598Y-80897627D01*
X123593596Y-80897620D01*
X123565924Y-80823427D01*
X124950000Y-80823427D01*
X124950000Y-80905000D01*
X125600000Y-80905000D01*
X125600000Y-80180000D01*
X125599999Y-80179999D01*
X125593436Y-80180000D01*
X125593417Y-80180001D01*
X125522897Y-80186408D01*
X125522892Y-80186409D01*
X125360603Y-80236981D01*
X125215122Y-80324927D01*
X125094927Y-80445122D01*
X125006980Y-80590604D01*
X124956409Y-80752893D01*
X124950000Y-80823427D01*
X123565924Y-80823427D01*
X123543354Y-80762913D01*
X123543350Y-80762906D01*
X123457190Y-80647812D01*
X123457187Y-80647809D01*
X123342093Y-80561649D01*
X123342086Y-80561645D01*
X123207379Y-80511403D01*
X123207372Y-80511401D01*
X123147844Y-80505000D01*
X122750000Y-80505000D01*
X122750000Y-81155000D01*
X122250000Y-81155000D01*
X122250000Y-80505000D01*
X122056289Y-80505000D01*
X121989250Y-80485315D01*
X121947456Y-80440425D01*
X121943351Y-80432907D01*
X121857190Y-80317812D01*
X121857187Y-80317809D01*
X121742093Y-80231649D01*
X121742086Y-80231645D01*
X121607379Y-80181403D01*
X121607372Y-80181401D01*
X121547844Y-80175000D01*
X121350000Y-80175000D01*
X121350000Y-81275000D01*
X120850000Y-81275000D01*
X120850000Y-80175000D01*
X120685729Y-80175000D01*
X120618690Y-80155315D01*
X120572935Y-80102511D01*
X120562991Y-80033353D01*
X120592016Y-79969797D01*
X120598048Y-79963319D01*
X121274548Y-79286819D01*
X121335871Y-79253334D01*
X121362229Y-79250500D01*
X126137770Y-79250500D01*
X126204809Y-79270185D01*
G37*
%TD.AperFunction*%
%TA.AperFunction,Conductor*%
G36*
X145204809Y-79270185D02*
G01*
X145225451Y-79286819D01*
X145538181Y-79599548D01*
X145571666Y-79660871D01*
X145574500Y-79687229D01*
X145574500Y-80290188D01*
X145554815Y-80357227D01*
X145502011Y-80402982D01*
X145432853Y-80412926D01*
X145369297Y-80383901D01*
X145362819Y-80377869D01*
X145309877Y-80324927D01*
X145164395Y-80236980D01*
X145164396Y-80236980D01*
X145002105Y-80186409D01*
X145002106Y-80186409D01*
X144931572Y-80180000D01*
X144925000Y-80180000D01*
X144925000Y-81281000D01*
X144905315Y-81348039D01*
X144852511Y-81393794D01*
X144801000Y-81405000D01*
X143775001Y-81405000D01*
X143775001Y-81486582D01*
X143781408Y-81557102D01*
X143781409Y-81557107D01*
X143831981Y-81719397D01*
X143842229Y-81736349D01*
X143860066Y-81803903D01*
X143838549Y-81870377D01*
X143784509Y-81914666D01*
X143736113Y-81924500D01*
X142474000Y-81924500D01*
X142406961Y-81904815D01*
X142361206Y-81852011D01*
X142350000Y-81800500D01*
X142350000Y-81655000D01*
X140793000Y-81655000D01*
X140791129Y-81656870D01*
X140773315Y-81717539D01*
X140720511Y-81763294D01*
X140669002Y-81774500D01*
X140602130Y-81774500D01*
X140598805Y-81774679D01*
X140598799Y-81774573D01*
X140590837Y-81775000D01*
X139724000Y-81775000D01*
X139656961Y-81755315D01*
X139611206Y-81702511D01*
X139600000Y-81651000D01*
X139600000Y-81275000D01*
X140100000Y-81275000D01*
X140107000Y-81275000D01*
X140108662Y-81273337D01*
X140126685Y-81211961D01*
X140179489Y-81166206D01*
X140231000Y-81155000D01*
X141000000Y-81155000D01*
X141500000Y-81155000D01*
X142350000Y-81155000D01*
X142350000Y-80957172D01*
X142349999Y-80957155D01*
X142343598Y-80897627D01*
X142343596Y-80897620D01*
X142315924Y-80823427D01*
X143775000Y-80823427D01*
X143775000Y-80905000D01*
X144425000Y-80905000D01*
X144425000Y-80180000D01*
X144424999Y-80179999D01*
X144418436Y-80180000D01*
X144418417Y-80180001D01*
X144347897Y-80186408D01*
X144347892Y-80186409D01*
X144185603Y-80236981D01*
X144040122Y-80324927D01*
X143919927Y-80445122D01*
X143831980Y-80590604D01*
X143781409Y-80752893D01*
X143775000Y-80823427D01*
X142315924Y-80823427D01*
X142293354Y-80762913D01*
X142293350Y-80762906D01*
X142207190Y-80647812D01*
X142207187Y-80647809D01*
X142092093Y-80561649D01*
X142092086Y-80561645D01*
X141957379Y-80511403D01*
X141957372Y-80511401D01*
X141897844Y-80505000D01*
X141500000Y-80505000D01*
X141500000Y-81155000D01*
X141000000Y-81155000D01*
X141000000Y-80505000D01*
X140806289Y-80505000D01*
X140739250Y-80485315D01*
X140697456Y-80440425D01*
X140693351Y-80432907D01*
X140607190Y-80317812D01*
X140607187Y-80317809D01*
X140492093Y-80231649D01*
X140492086Y-80231645D01*
X140357379Y-80181403D01*
X140357372Y-80181401D01*
X140297844Y-80175000D01*
X140100000Y-80175000D01*
X140100000Y-81275000D01*
X139600000Y-81275000D01*
X139600000Y-80175000D01*
X139402155Y-80175000D01*
X139337756Y-80181925D01*
X139268996Y-80169520D01*
X139217859Y-80121910D01*
X139200500Y-80058636D01*
X139200500Y-79912229D01*
X139220185Y-79845190D01*
X139236819Y-79824548D01*
X139774548Y-79286819D01*
X139835871Y-79253334D01*
X139862229Y-79250500D01*
X145137770Y-79250500D01*
X145204809Y-79270185D01*
G37*
%TD.AperFunction*%
%TD*%
M02*
