%TF.GenerationSoftware,KiCad,Pcbnew,7.0.10*%
%TF.CreationDate,2024-04-08T13:26:29+08:00*%
%TF.ProjectId,pcb,7063622e-6b69-4636-9164-5f7063625858,rev?*%
%TF.SameCoordinates,Original*%
%TF.FileFunction,Soldermask,Top*%
%TF.FilePolarity,Negative*%
%FSLAX46Y46*%
G04 Gerber Fmt 4.6, Leading zero omitted, Abs format (unit mm)*
G04 Created by KiCad (PCBNEW 7.0.10) date 2024-04-08 13:26:29*
%MOMM*%
%LPD*%
G01*
G04 APERTURE LIST*
G04 Aperture macros list*
%AMRoundRect*
0 Rectangle with rounded corners*
0 $1 Rounding radius*
0 $2 $3 $4 $5 $6 $7 $8 $9 X,Y pos of 4 corners*
0 Add a 4 corners polygon primitive as box body*
4,1,4,$2,$3,$4,$5,$6,$7,$8,$9,$2,$3,0*
0 Add four circle primitives for the rounded corners*
1,1,$1+$1,$2,$3*
1,1,$1+$1,$4,$5*
1,1,$1+$1,$6,$7*
1,1,$1+$1,$8,$9*
0 Add four rect primitives between the rounded corners*
20,1,$1+$1,$2,$3,$4,$5,0*
20,1,$1+$1,$4,$5,$6,$7,0*
20,1,$1+$1,$6,$7,$8,$9,0*
20,1,$1+$1,$8,$9,$2,$3,0*%
G04 Aperture macros list end*
%ADD10C,1.400000*%
%ADD11O,1.400000X1.400000*%
%ADD12R,1.800000X1.800000*%
%ADD13C,1.800000*%
%ADD14R,1.524000X1.524000*%
%ADD15C,1.524000*%
%ADD16C,3.500000*%
%ADD17R,1.600000X1.600000*%
%ADD18C,1.600000*%
%ADD19C,3.400000*%
%ADD20R,1.700000X1.700000*%
%ADD21O,1.700000X1.700000*%
%ADD22C,1.500000*%
%ADD23C,3.200000*%
%ADD24O,1.600000X1.600000*%
%ADD25R,2.180000X1.600000*%
%ADD26C,1.440000*%
%ADD27RoundRect,0.150000X-0.875000X-0.150000X0.875000X-0.150000X0.875000X0.150000X-0.875000X0.150000X0*%
%ADD28R,1.350000X0.400000*%
%ADD29R,1.900000X1.500000*%
%ADD30R,1.900000X1.200000*%
%ADD31O,1.900000X1.200000*%
%ADD32C,1.450000*%
%ADD33RoundRect,0.150000X-0.825000X-0.150000X0.825000X-0.150000X0.825000X0.150000X-0.825000X0.150000X0*%
%ADD34RoundRect,0.150000X0.150000X-0.825000X0.150000X0.825000X-0.150000X0.825000X-0.150000X-0.825000X0*%
%ADD35R,1.050000X1.500000*%
%ADD36O,1.050000X1.500000*%
G04 APERTURE END LIST*
D10*
%TO.C,R5*%
X70000000Y-103000000D03*
D11*
X77620000Y-103000000D03*
%TD*%
%TO.C,R4*%
X77620000Y-107000000D03*
D10*
X70000000Y-107000000D03*
%TD*%
D12*
%TO.C,D6*%
X99235000Y-151340000D03*
D13*
X101775000Y-151340000D03*
%TD*%
D12*
%TO.C,D5*%
X99235000Y-141340000D03*
D13*
X101775000Y-141340000D03*
%TD*%
%TO.C,D4*%
X93775000Y-151340000D03*
D12*
X91235000Y-151340000D03*
%TD*%
D13*
%TO.C,D3*%
X93775000Y-141340000D03*
D12*
X91235000Y-141340000D03*
%TD*%
D13*
%TO.C,D2*%
X78540000Y-114000000D03*
D12*
X76000000Y-114000000D03*
%TD*%
%TO.C,D1*%
X69000000Y-114000000D03*
D13*
X71540000Y-114000000D03*
%TD*%
D14*
%TO.C,J4*%
X171000000Y-115000000D03*
D15*
X171000000Y-112500000D03*
X171000000Y-110500000D03*
X171000000Y-108000000D03*
D16*
X173710000Y-104930000D03*
X173710000Y-118070000D03*
%TD*%
D14*
%TO.C,J3*%
X171000000Y-90000000D03*
D15*
X171000000Y-87500000D03*
X171000000Y-85500000D03*
X171000000Y-83000000D03*
D16*
X173710000Y-79930000D03*
X173710000Y-93070000D03*
%TD*%
D14*
%TO.C,J2*%
X171000000Y-65000000D03*
D15*
X171000000Y-62500000D03*
X171000000Y-60500000D03*
X171000000Y-58000000D03*
D16*
X173710000Y-54930000D03*
X173710000Y-68070000D03*
%TD*%
D17*
%TO.C,C3*%
X148000000Y-116000000D03*
D18*
X150500000Y-116000000D03*
%TD*%
D19*
%TO.C,M1*%
X110500000Y-87500000D03*
X110500000Y-112500000D03*
X135500000Y-87500000D03*
X135500000Y-112500000D03*
D20*
X121690000Y-117200000D03*
D21*
X124230000Y-117200000D03*
%TD*%
D20*
%TO.C,U4*%
X83890000Y-43910000D03*
D21*
X86430000Y-43910000D03*
X88970000Y-43910000D03*
X91510000Y-43910000D03*
X94050000Y-43910000D03*
X96590000Y-43910000D03*
X99130000Y-43910000D03*
X101670000Y-43910000D03*
X104210000Y-43910000D03*
X106750000Y-43910000D03*
X109290000Y-43910000D03*
X111830000Y-43910000D03*
X114370000Y-43910000D03*
X116910000Y-43910000D03*
X119450000Y-43910000D03*
X121990000Y-43910000D03*
%TD*%
D18*
%TO.C,C1*%
X150700000Y-79450000D03*
X153200000Y-79450000D03*
%TD*%
D22*
%TO.C,Y2*%
X164000000Y-127000000D03*
X168900000Y-127000000D03*
%TD*%
D11*
%TO.C,R1*%
X150000000Y-98380000D03*
D10*
X150000000Y-106000000D03*
%TD*%
D11*
%TO.C,R10*%
X166620000Y-50000000D03*
D10*
X159000000Y-50000000D03*
%TD*%
D23*
%TO.C,H3*%
X181000000Y-156000000D03*
%TD*%
D17*
%TO.C,U2*%
X83440000Y-81520000D03*
D24*
X83440000Y-84060000D03*
X83440000Y-86600000D03*
X83440000Y-89140000D03*
X83440000Y-91680000D03*
X83440000Y-94220000D03*
X83440000Y-96760000D03*
X83440000Y-99300000D03*
X83440000Y-101840000D03*
X83440000Y-104380000D03*
X83440000Y-106920000D03*
X83440000Y-109460000D03*
X83440000Y-112000000D03*
X83440000Y-114540000D03*
X83440000Y-117080000D03*
X83440000Y-119620000D03*
X83440000Y-122160000D03*
X83440000Y-124700000D03*
X83440000Y-127240000D03*
X83440000Y-129780000D03*
X98680000Y-129780000D03*
X98680000Y-127240000D03*
X98680000Y-124700000D03*
X98680000Y-122160000D03*
X98680000Y-119620000D03*
X98680000Y-117080000D03*
X98680000Y-114540000D03*
X98680000Y-112000000D03*
X98680000Y-109460000D03*
X98680000Y-106920000D03*
X98680000Y-104380000D03*
X98680000Y-101840000D03*
X98680000Y-99300000D03*
X98680000Y-96760000D03*
X98680000Y-94220000D03*
X98680000Y-91680000D03*
X98680000Y-89140000D03*
X98680000Y-86600000D03*
X98680000Y-84060000D03*
X98680000Y-81520000D03*
%TD*%
D11*
%TO.C,R3*%
X69500000Y-87880000D03*
D10*
X69500000Y-95500000D03*
%TD*%
D25*
%TO.C,SW1*%
X68410000Y-82000000D03*
X77590000Y-82000000D03*
%TD*%
D18*
%TO.C,C10*%
X118710000Y-131000000D03*
X121210000Y-131000000D03*
%TD*%
%TO.C,C4*%
X76500000Y-92000000D03*
D17*
X74000000Y-92000000D03*
%TD*%
%TO.C,C13*%
X163000000Y-110000000D03*
D18*
X165500000Y-110000000D03*
%TD*%
D10*
%TO.C,R9*%
X76000000Y-153000000D03*
D11*
X83620000Y-153000000D03*
%TD*%
D17*
%TO.C,C11*%
X163000000Y-60000000D03*
D18*
X165500000Y-60000000D03*
%TD*%
D26*
%TO.C,RV1*%
X70000000Y-57000000D03*
X70000000Y-59540000D03*
X70000000Y-62080000D03*
%TD*%
D23*
%TO.C,H4*%
X67000000Y-156000000D03*
%TD*%
D27*
%TO.C,U1*%
X156650000Y-84555000D03*
X156650000Y-85825000D03*
X156650000Y-87095000D03*
X156650000Y-88365000D03*
X156650000Y-89635000D03*
X156650000Y-90905000D03*
X156650000Y-92175000D03*
X156650000Y-93445000D03*
X147350000Y-93445000D03*
X147350000Y-92175000D03*
X147350000Y-90905000D03*
X147350000Y-89635000D03*
X147350000Y-88365000D03*
X147350000Y-87095000D03*
X147350000Y-85825000D03*
X147350000Y-84555000D03*
%TD*%
D11*
%TO.C,R6*%
X83620000Y-141000000D03*
D10*
X76000000Y-141000000D03*
%TD*%
D18*
%TO.C,C9*%
X118710000Y-136000000D03*
X121210000Y-136000000D03*
%TD*%
D28*
%TO.C,J1*%
X179537500Y-139300000D03*
X179537500Y-138650000D03*
X179537500Y-138000000D03*
X179537500Y-137350000D03*
X179537500Y-136700000D03*
D29*
X182237500Y-139000000D03*
D30*
X182237500Y-135100000D03*
D31*
X182237500Y-134500000D03*
D32*
X179537500Y-140500000D03*
D31*
X182237500Y-141500000D03*
D30*
X182237500Y-140900000D03*
D32*
X179537500Y-135500000D03*
D29*
X182237500Y-137000000D03*
%TD*%
D33*
%TO.C,U5*%
X108555000Y-128835000D03*
X108555000Y-130105000D03*
X108555000Y-131375000D03*
X108555000Y-132645000D03*
X108555000Y-133915000D03*
X108555000Y-135185000D03*
X108555000Y-136455000D03*
X108555000Y-137725000D03*
X113505000Y-137725000D03*
X113505000Y-136455000D03*
X113505000Y-135185000D03*
X113505000Y-133915000D03*
X113505000Y-132645000D03*
X113505000Y-131375000D03*
X113505000Y-130105000D03*
X113505000Y-128835000D03*
%TD*%
D22*
%TO.C,Y1*%
X70500000Y-129000000D03*
X75400000Y-129000000D03*
%TD*%
D18*
%TO.C,C7*%
X70500000Y-135000000D03*
X68000000Y-135000000D03*
%TD*%
D17*
%TO.C,C12*%
X163000000Y-85000000D03*
D18*
X165500000Y-85000000D03*
%TD*%
D34*
%TO.C,U3*%
X164160000Y-140340000D03*
X165430000Y-140340000D03*
X166700000Y-140340000D03*
X167970000Y-140340000D03*
X169240000Y-140340000D03*
X170510000Y-140340000D03*
X171780000Y-140340000D03*
X173050000Y-140340000D03*
X173050000Y-135390000D03*
X171780000Y-135390000D03*
X170510000Y-135390000D03*
X169240000Y-135390000D03*
X167970000Y-135390000D03*
X166700000Y-135390000D03*
X165430000Y-135390000D03*
X164160000Y-135390000D03*
%TD*%
D23*
%TO.C,H1*%
X67000000Y-42000000D03*
%TD*%
D17*
%TO.C,C2*%
X176000000Y-127000000D03*
D18*
X178500000Y-127000000D03*
%TD*%
D11*
%TO.C,R7*%
X83620000Y-149000000D03*
D10*
X76000000Y-149000000D03*
%TD*%
%TO.C,R8*%
X76000000Y-145000000D03*
D11*
X83620000Y-145000000D03*
%TD*%
D23*
%TO.C,H2*%
X181000000Y-42000000D03*
%TD*%
D35*
%TO.C,Q1*%
X161500000Y-44500000D03*
D36*
X162770000Y-44500000D03*
X164040000Y-44500000D03*
%TD*%
D18*
%TO.C,C8*%
X78000000Y-135000000D03*
X75500000Y-135000000D03*
%TD*%
D17*
%TO.C,C5*%
X170000000Y-148000000D03*
D18*
X172500000Y-148000000D03*
%TD*%
D10*
%TO.C,R2*%
X154000000Y-106000000D03*
D11*
X154000000Y-98380000D03*
%TD*%
D17*
%TO.C,C6*%
X162000000Y-148000000D03*
D18*
X164500000Y-148000000D03*
%TD*%
M02*
