M48
; DRILL file {KiCad 7.0.10} date 西元2024年04月08日 (週一) 13時26分31秒
; FORMAT={-:-/ absolute / inch / decimal}
; #@! TF.CreationDate,2024-04-08T13:26:31+08:00
; #@! TF.GenerationSoftware,Kicad,Pcbnew,7.0.10
; #@! TF.FileFunction,Plated,1,2,PTH
FMAT,2
INCH
; #@! TA.AperFunction,Plated,PTH,ViaDrill
T1C0.0157
; #@! TA.AperFunction,Plated,PTH,ComponentDrill
T2C0.0236
; #@! TA.AperFunction,Plated,PTH,ComponentDrill
T3C0.0276
; #@! TA.AperFunction,Plated,PTH,ComponentDrill
T4C0.0295
; #@! TA.AperFunction,Plated,PTH,ComponentDrill
T5C0.0315
; #@! TA.AperFunction,Plated,PTH,ComponentDrill
T6C0.0335
; #@! TA.AperFunction,Plated,PTH,ComponentDrill
T7C0.0354
; #@! TA.AperFunction,Plated,PTH,ComponentDrill
T8C0.0362
; #@! TA.AperFunction,Plated,PTH,ComponentDrill
T9C0.0394
; #@! TA.AperFunction,Plated,PTH,ComponentDrill
T10C0.0906
%
G90
G05
T1
X5.7087Y-3.5433
X6.0205Y-3.6752
X6.0394Y-3.626
X6.0614Y-3.5748
X6.0827Y-3.5276
X6.4874Y-5.4278
X6.638Y-5.4278
T3
X2.7362Y-3.4598
X2.7362Y-3.7598
X2.7559Y-4.0551
X2.7559Y-4.2126
X2.9921Y-5.5512
X2.9921Y-5.7087
X2.9921Y-5.8661
X2.9921Y-6.0236
X3.0559Y-4.0551
X3.0559Y-4.2126
X3.2921Y-5.5512
X3.2921Y-5.7087
X3.2921Y-5.8661
X3.2921Y-6.0236
X5.9055Y-3.8732
X5.9055Y-4.1732
X6.063Y-3.8732
X6.063Y-4.1732
X6.2598Y-1.9685
X6.5598Y-1.9685
T4
X6.3583Y-1.752
X6.4083Y-1.752
X6.4583Y-1.752
T5
X2.6772Y-5.315
X2.7559Y-2.2441
X2.7559Y-2.3441
X2.7559Y-2.4441
X2.7756Y-5.0787
X2.7756Y-5.315
X2.9134Y-3.622
X2.9685Y-5.0787
X2.9724Y-5.315
X3.0118Y-3.622
X3.0709Y-5.315
X3.285Y-3.2094
X3.285Y-3.3094
X3.285Y-3.4094
X3.285Y-3.5094
X3.285Y-3.6094
X3.285Y-3.7094
X3.285Y-3.8094
X3.285Y-3.9094
X3.285Y-4.0094
X3.285Y-4.1094
X3.285Y-4.2094
X3.285Y-4.3094
X3.285Y-4.4094
X3.285Y-4.5094
X3.285Y-4.6094
X3.285Y-4.7094
X3.285Y-4.8094
X3.285Y-4.9094
X3.285Y-5.0094
X3.285Y-5.1094
X3.885Y-3.2094
X3.885Y-3.3094
X3.885Y-3.4094
X3.885Y-3.5094
X3.885Y-3.6094
X3.885Y-3.7094
X3.885Y-3.8094
X3.885Y-3.9094
X3.885Y-4.0094
X3.885Y-4.1094
X3.885Y-4.2094
X3.885Y-4.3094
X3.885Y-4.4094
X3.885Y-4.5094
X3.885Y-4.6094
X3.885Y-4.7094
X3.885Y-4.8094
X3.885Y-4.9094
X3.885Y-5.0094
X3.885Y-5.1094
X4.6736Y-5.1575
X4.6736Y-5.3543
X4.772Y-5.1575
X4.772Y-5.3543
X5.8268Y-4.5669
X5.9252Y-4.5669
X5.9331Y-3.128
X6.0315Y-3.128
X6.378Y-5.8268
X6.4173Y-2.3622
X6.4173Y-3.3465
X6.4173Y-4.3307
X6.4567Y-5.0
X6.4764Y-5.8268
X6.5157Y-2.3622
X6.5157Y-3.3465
X6.5157Y-4.3307
X6.6496Y-5.0
X6.6929Y-5.8268
X6.7913Y-5.8268
X6.9291Y-5.0
X7.0276Y-5.0
T6
X7.0684Y-5.3346
X7.0684Y-5.5315
T7
X2.7165Y-4.4882
X2.8165Y-4.4882
X2.9921Y-4.4882
X3.0921Y-4.4882
X3.5919Y-5.5646
X3.5919Y-5.9583
X3.6919Y-5.5646
X3.6919Y-5.9583
X3.9069Y-5.5646
X3.9069Y-5.9583
X4.0069Y-5.5646
X4.0069Y-5.9583
T8
X6.7323Y-2.2835
X6.7323Y-2.3819
X6.7323Y-2.4606
X6.7323Y-2.5591
X6.7323Y-3.2677
X6.7323Y-3.3661
X6.7323Y-3.4449
X6.7323Y-3.5433
X6.7323Y-4.252
X6.7323Y-4.3504
X6.7323Y-4.4291
X6.7323Y-4.5276
T9
X3.3028Y-1.7287
X3.4028Y-1.7287
X3.5028Y-1.7287
X3.6028Y-1.7287
X3.7028Y-1.7287
X3.8028Y-1.7287
X3.9028Y-1.7287
X4.0028Y-1.7287
X4.1028Y-1.7287
X4.2028Y-1.7287
X4.3028Y-1.7287
X4.4028Y-1.7287
X4.5028Y-1.7287
X4.6028Y-1.7287
X4.7028Y-1.7287
X4.7909Y-4.6142
X4.8028Y-1.7287
X4.8909Y-4.6142
T10
X6.839Y-2.1626
X6.839Y-2.6799
X6.839Y-3.1469
X6.839Y-3.6642
X6.839Y-4.1311
X6.839Y-4.6484
T2
G00X7.1609Y-5.2953
M15
G01X7.1885Y-5.2953
M16
G05
G00X7.1885Y-5.5709
M15
G01X7.1609Y-5.5709
M16
G05
M30
