  0
SECTION
  2
HEADER
  9
$ANGBASE
  50
0.0
  9
$ANGDIR
  70
1
  9
$MEASUREMENT
  70
0
  0
ENDSEC
  0
SECTION
  2
TABLES
  0
TABLE
  2
LTYPE
  70
4
  0
LTYPE
  5
40F
  2
CONTINUOUS
  70
0
  3
Solid line
  72
65
  73
0
  40
0.0
  0
LTYPE
  5
410
  2
DASHDOT
 70
0
  3
Dash Dot ____ _ ____ _
 72
65
 73
4
 40
2.0
 49
1.25
 49
-0.25
 49
0.25
 49
-0.25
  0
LTYPE
  5
411
  2
DASHED
 70
0
  3
Dashed __ __ __ __ __
 72
65
 73
2
 40
0.75
 49
0.5
 49
-0.25
  0
LTYPE
  5
43B
  2
DOTTED
 70
0
  3
Dotted .  .  .  .
 72
65
 73
2
 40
0.2
 49
0.0
 49
-0.2
  0
ENDTAB
  0
TABLE
  2
STYLE
  70
4
  0
STYLE
  2
KICAD
  70
0
  40
0
  41
1
  42
1
  50
0
  71
0
  3
isocp.shx
  0
STYLE
  2
KICADB
  70
0
  40
0
  41
1
  42
1
  50
0
  71
0
  3
isocp.shx
  0
STYLE
  2
KICADI
  70
0
  40
0
  41
1
  42
1
  50
15
  71
0
  3
isocp.shx
  0
STYLE
  2
KICADBI
  70
0
  40
0
  41
1
  42
1
  50
15
  71
0
  3
isocp.shx
  0
ENDTAB
  0
TABLE
  2
LAYER
  70
1
  0
LAYER
  2
BLACK
  70
0
  62
7
  6
CONTINUOUS
  0
ENDTAB
  0
ENDSEC
  0
SECTION
  2
ENTITIES
0
LINE
8
BLACK
6
CONTINUOUS
10
3.1496062992125982
20
-1.9685039370078741
11
7.0866141732283463
21
-1.9685039370078741
0
LINE
8
BLACK
6
CONTINUOUS
10
7.0866141732283463
20
-1.9685039370078741
11
7.0866141732283463
21
-3.9370078740157481
0
LINE
8
BLACK
6
CONTINUOUS
10
7.0866141732283463
20
-3.9370078740157481
11
3.1496062992125982
21
-3.9370078740157481
0
LINE
8
BLACK
6
CONTINUOUS
10
3.1496062992125982
20
-3.9370078740157481
11
3.1496062992125982
21
-1.9685039370078741
0
LINE
8
BLACK
6
CONTINUOUS
10
3.204724409448819
20
-2.0236220472440944
11
3.3307086614173227
21
-2.1496062992125982
0
LINE
8
BLACK
6
CONTINUOUS
10
3.3307086614173227
20
-2.0236220472440944
11
3.204724409448819
21
-2.1496062992125982
0
LINE
8
BLACK
6
CONTINUOUS
10
3.204724409448819
20
-3.7559055118110236
11
3.3307086614173227
21
-3.8818897637795273
0
LINE
8
BLACK
6
CONTINUOUS
10
3.3307086614173227
20
-3.7559055118110236
11
3.204724409448819
21
-3.8818897637795273
0
LINE
8
BLACK
6
CONTINUOUS
10
6.9055118110236222
20
-2.0236220472440944
11
7.0314960629921259
21
-2.1496062992125982
0
LINE
8
BLACK
6
CONTINUOUS
10
7.0314960629921259
20
-2.0236220472440944
11
6.9055118110236222
21
-2.1496062992125982
0
LINE
8
BLACK
6
CONTINUOUS
10
6.9055118110236222
20
-3.7559055118110236
11
7.0314960629921259
21
-3.8818897637795273
0
LINE
8
BLACK
6
CONTINUOUS
10
7.0314960629921259
20
-3.7559055118110236
11
6.9055118110236222
21
-3.8818897637795273
0
LINE
8
BLACK
6
CONTINUOUS
10
3.2503058267716534
20
-4.0616077952755907
11
3.2503058267716534
21
-3.9828676377952754
0
LINE
8
BLACK
6
CONTINUOUS
10
3.2503058267716534
20
-3.9828676377952754
11
3.2690534645669289
21
-3.9828676377952754
0
LINE
8
BLACK
6
CONTINUOUS
10
3.2690534645669289
20
-3.9828676377952754
11
3.280302086614173
21
-3.9866171653543305
0
LINE
8
BLACK
6
CONTINUOUS
10
3.280302086614173
20
-3.9866171653543305
11
3.2878011417322832
21
-3.9941162204724407
0
LINE
8
BLACK
6
CONTINUOUS
10
3.2878011417322832
20
-3.9941162204724407
11
3.2915506692913383
21
-4.0016152755905514
0
LINE
8
BLACK
6
CONTINUOUS
10
3.2915506692913383
20
-4.0016152755905514
11
3.2953001968503934
21
-4.0166133858267719
0
LINE
8
BLACK
6
CONTINUOUS
10
3.2953001968503934
20
-4.0166133858267719
11
3.2953001968503934
21
-4.0278620078740159
0
LINE
8
BLACK
6
CONTINUOUS
10
3.2953001968503934
20
-4.0278620078740159
11
3.2915506692913383
21
-4.0428601181102364
0
LINE
8
BLACK
6
CONTINUOUS
10
3.2915506692913383
20
-4.0428601181102364
11
3.2878011417322832
21
-4.0503591732283466
0
LINE
8
BLACK
6
CONTINUOUS
10
3.2878011417322832
20
-4.0503591732283466
11
3.280302086614173
21
-4.0578582677165356
0
LINE
8
BLACK
6
CONTINUOUS
10
3.280302086614173
20
-4.0578582677165356
11
3.2690534645669289
21
-4.0616077952755907
0
LINE
8
BLACK
6
CONTINUOUS
10
3.2690534645669289
20
-4.0616077952755907
11
3.2503058267716534
21
-4.0616077952755907
0
LINE
8
BLACK
6
CONTINUOUS
10
3.3290459842519686
20
-4.0616077952755907
11
3.3290459842519686
21
-4.0091143307086616
0
LINE
8
BLACK
6
CONTINUOUS
10
3.3290459842519686
20
-4.0241124803149608
11
3.3327955118110237
21
-4.0166133858267719
0
LINE
8
BLACK
6
CONTINUOUS
10
3.3327955118110237
20
-4.0166133858267719
11
3.3365450393700788
21
-4.0128638582677167
0
LINE
8
BLACK
6
CONTINUOUS
10
3.3365450393700788
20
-4.0128638582677167
11
3.3440440944881891
21
-4.0091143307086616
0
LINE
8
BLACK
6
CONTINUOUS
10
3.3440440944881891
20
-4.0091143307086616
11
3.351543188976378
21
-4.0091143307086616
0
LINE
8
BLACK
6
CONTINUOUS
10
3.3777898818897638
20
-4.0616077952755907
11
3.3777898818897638
21
-4.0091143307086616
0
LINE
8
BLACK
6
CONTINUOUS
10
3.3777898818897638
20
-3.9828676377952754
11
3.3740403543307087
21
-3.9866171653543305
0
LINE
8
BLACK
6
CONTINUOUS
10
3.3740403543307087
20
-3.9866171653543305
11
3.3777898818897638
21
-3.9903666929133856
0
LINE
8
BLACK
6
CONTINUOUS
10
3.3777898818897638
20
-3.9903666929133856
11
3.3815394094488189
21
-3.9866171653543305
0
LINE
8
BLACK
6
CONTINUOUS
10
3.3815394094488189
20
-3.9866171653543305
11
3.3777898818897638
21
-3.9828676377952754
0
LINE
8
BLACK
6
CONTINUOUS
10
3.3777898818897638
20
-3.9828676377952754
11
3.3777898818897638
21
-3.9903666929133856
0
LINE
8
BLACK
6
CONTINUOUS
10
3.426533779527559
20
-4.0616077952755907
11
3.4190347244094488
21
-4.0578582677165356
0
LINE
8
BLACK
6
CONTINUOUS
10
3.4190347244094488
20
-4.0578582677165356
11
3.4152851968503937
21
-4.0503591732283466
0
LINE
8
BLACK
6
CONTINUOUS
10
3.4152851968503937
20
-4.0503591732283466
11
3.4152851968503937
21
-3.9828676377952754
0
LINE
8
BLACK
6
CONTINUOUS
10
3.467778622047244
20
-4.0616077952755907
11
3.4602795669291337
21
-4.0578582677165356
0
LINE
8
BLACK
6
CONTINUOUS
10
3.4602795669291337
20
-4.0578582677165356
11
3.4565300393700786
21
-4.0503591732283466
0
LINE
8
BLACK
6
CONTINUOUS
10
3.4565300393700786
20
-4.0503591732283466
11
3.4565300393700786
21
-3.9828676377952754
0
LINE
8
BLACK
6
CONTINUOUS
10
3.5577674015748029
20
-4.0616077952755907
11
3.5577674015748029
21
-3.9828676377952754
0
LINE
8
BLACK
6
CONTINUOUS
10
3.5577674015748029
20
-3.9828676377952754
11
3.5840141338582678
21
-4.0391105905511813
0
LINE
8
BLACK
6
CONTINUOUS
10
3.5840141338582678
20
-4.0391105905511813
11
3.6102608267716536
21
-3.9828676377952754
0
LINE
8
BLACK
6
CONTINUOUS
10
3.6102608267716536
20
-3.9828676377952754
11
3.6102608267716536
21
-4.0616077952755907
0
LINE
8
BLACK
6
CONTINUOUS
10
3.6815019291338582
20
-4.0616077952755907
11
3.6815019291338582
21
-4.0203629527559057
0
LINE
8
BLACK
6
CONTINUOUS
10
3.6815019291338582
20
-4.0203629527559057
11
3.6777524015748031
21
-4.0128638582677167
0
LINE
8
BLACK
6
CONTINUOUS
10
3.6777524015748031
20
-4.0128638582677167
11
3.6702533464566929
21
-4.0091143307086616
0
LINE
8
BLACK
6
CONTINUOUS
10
3.6702533464566929
20
-4.0091143307086616
11
3.6552551968503937
21
-4.0091143307086616
0
LINE
8
BLACK
6
CONTINUOUS
10
3.6552551968503937
20
-4.0091143307086616
11
3.6477561417322835
21
-4.0128638582677167
0
LINE
8
BLACK
6
CONTINUOUS
10
3.6815019291338582
20
-4.0578582677165356
11
3.674002874015748
21
-4.0616077952755907
0
LINE
8
BLACK
6
CONTINUOUS
10
3.674002874015748
20
-4.0616077952755907
11
3.6552551968503937
21
-4.0616077952755907
0
LINE
8
BLACK
6
CONTINUOUS
10
3.6552551968503937
20
-4.0616077952755907
11
3.6477561417322835
21
-4.0578582677165356
0
LINE
8
BLACK
6
CONTINUOUS
10
3.6477561417322835
20
-4.0578582677165356
11
3.6440066141732284
21
-4.0503591732283466
0
LINE
8
BLACK
6
CONTINUOUS
10
3.6440066141732284
20
-4.0503591732283466
11
3.6440066141732284
21
-4.0428601181102364
0
LINE
8
BLACK
6
CONTINUOUS
10
3.6440066141732284
20
-4.0428601181102364
11
3.6477561417322835
21
-4.0353610629921262
0
LINE
8
BLACK
6
CONTINUOUS
10
3.6477561417322835
20
-4.0353610629921262
11
3.6552551968503937
21
-4.031611535433071
0
LINE
8
BLACK
6
CONTINUOUS
10
3.6552551968503937
20
-4.031611535433071
11
3.674002874015748
21
-4.031611535433071
0
LINE
8
BLACK
6
CONTINUOUS
10
3.674002874015748
20
-4.031611535433071
11
3.6815019291338582
21
-4.0278620078740159
0
LINE
8
BLACK
6
CONTINUOUS
10
3.7189972440944881
20
-4.0091143307086616
11
3.7189972440944881
21
-4.0878544881889765
0
LINE
8
BLACK
6
CONTINUOUS
10
3.7189972440944881
20
-4.0128638582677167
11
3.7264962992125983
21
-4.0091143307086616
0
LINE
8
BLACK
6
CONTINUOUS
10
3.7264962992125983
20
-4.0091143307086616
11
3.7414944488188975
21
-4.0091143307086616
0
LINE
8
BLACK
6
CONTINUOUS
10
3.7414944488188975
20
-4.0091143307086616
11
3.7489935039370077
21
-4.0128638582677167
0
LINE
8
BLACK
6
CONTINUOUS
10
3.7489935039370077
20
-4.0128638582677167
11
3.7527430314960628
21
-4.0166133858267719
0
LINE
8
BLACK
6
CONTINUOUS
10
3.7527430314960628
20
-4.0166133858267719
11
3.7564925590551179
21
-4.0241124803149608
0
LINE
8
BLACK
6
CONTINUOUS
10
3.7564925590551179
20
-4.0241124803149608
11
3.7564925590551179
21
-4.0466096456692915
0
LINE
8
BLACK
6
CONTINUOUS
10
3.7564925590551179
20
-4.0466096456692915
11
3.7527430314960628
21
-4.0541087007874017
0
LINE
8
BLACK
6
CONTINUOUS
10
3.7527430314960628
20
-4.0541087007874017
11
3.7489935039370077
21
-4.0578582677165356
0
LINE
8
BLACK
6
CONTINUOUS
10
3.7489935039370077
20
-4.0578582677165356
11
3.7414944488188975
21
-4.0616077952755907
0
LINE
8
BLACK
6
CONTINUOUS
10
3.7414944488188975
20
-4.0616077952755907
11
3.7264962992125983
21
-4.0616077952755907
0
LINE
8
BLACK
6
CONTINUOUS
10
3.7264962992125983
20
-4.0616077952755907
11
3.7189972440944881
21
-4.0578582677165356
0
LINE
8
BLACK
6
CONTINUOUS
10
3.7902383464566927
20
-4.0541087007874017
11
3.7939878740157478
21
-4.0578582677165356
0
LINE
8
BLACK
6
CONTINUOUS
10
3.7939878740157478
20
-4.0578582677165356
11
3.7902383464566927
21
-4.0616077952755907
0
LINE
8
BLACK
6
CONTINUOUS
10
3.7902383464566927
20
-4.0616077952755907
11
3.7864888188976376
21
-4.0578582677165356
0
LINE
8
BLACK
6
CONTINUOUS
10
3.7864888188976376
20
-4.0578582677165356
11
3.7902383464566927
21
-4.0541087007874017
0
LINE
8
BLACK
6
CONTINUOUS
10
3.7902383464566927
20
-4.0541087007874017
11
3.7902383464566927
21
-4.0616077952755907
0
LINE
8
BLACK
6
CONTINUOUS
10
3.7902383464566927
20
-4.0128638582677167
11
3.7939878740157478
21
-4.0166133858267719
0
LINE
8
BLACK
6
CONTINUOUS
10
3.7939878740157478
20
-4.0166133858267719
11
3.7902383464566927
21
-4.0203629527559057
0
LINE
8
BLACK
6
CONTINUOUS
10
3.7902383464566927
20
-4.0203629527559057
11
3.7864888188976376
21
-4.0166133858267719
0
LINE
8
BLACK
6
CONTINUOUS
10
3.7864888188976376
20
-4.0166133858267719
11
3.7902383464566927
21
-4.0128638582677167
0
LINE
8
BLACK
6
CONTINUOUS
10
3.7902383464566927
20
-4.0128638582677167
11
3.7902383464566927
21
-4.0203629527559057
0
LINE
8
BLACK
6
CONTINUOUS
10
3.0688976377952755
20
-4.1515748031496065
11
3.1476377952755903
21
-4.2303149606299213
0
LINE
8
BLACK
6
CONTINUOUS
10
3.1476377952755903
20
-4.1515748031496065
11
3.0688976377952755
21
-4.2303149606299213
0
LINE
8
BLACK
6
CONTINUOUS
10
3.2428067716535431
20
-4.148221968503937
11
3.2915506692913383
21
-4.148221968503937
0
LINE
8
BLACK
6
CONTINUOUS
10
3.2915506692913383
20
-4.148221968503937
11
3.2653039370078738
21
-4.1782181889763779
0
LINE
8
BLACK
6
CONTINUOUS
10
3.2653039370078738
20
-4.1782181889763779
11
3.2765525590551179
21
-4.1782181889763779
0
LINE
8
BLACK
6
CONTINUOUS
10
3.2765525590551179
20
-4.1782181889763779
11
3.2840516141732281
21
-4.181967716535433
0
LINE
8
BLACK
6
CONTINUOUS
10
3.2840516141732281
20
-4.181967716535433
11
3.2878011417322832
21
-4.1857172834645668
0
LINE
8
BLACK
6
CONTINUOUS
10
3.2878011417322832
20
-4.1857172834645668
11
3.2915506692913383
21
-4.1932163385826771
0
LINE
8
BLACK
6
CONTINUOUS
10
3.2915506692913383
20
-4.1932163385826771
11
3.2915506692913383
21
-4.2119639763779526
0
LINE
8
BLACK
6
CONTINUOUS
10
3.2915506692913383
20
-4.2119639763779526
11
3.2878011417322832
21
-4.2194630314960628
0
LINE
8
BLACK
6
CONTINUOUS
10
3.2878011417322832
20
-4.2194630314960628
11
3.2840516141732281
21
-4.2232125984251967
0
LINE
8
BLACK
6
CONTINUOUS
10
3.2840516141732281
20
-4.2232125984251967
11
3.2765525590551179
21
-4.2269621259842518
0
LINE
8
BLACK
6
CONTINUOUS
10
3.2765525590551179
20
-4.2269621259842518
11
3.2540553543307085
21
-4.2269621259842518
0
LINE
8
BLACK
6
CONTINUOUS
10
3.2540553543307085
20
-4.2269621259842518
11
3.2465562992125983
21
-4.2232125984251967
0
LINE
8
BLACK
6
CONTINUOUS
10
3.2465562992125983
20
-4.2232125984251967
11
3.2428067716535431
21
-4.2194630314960628
0
LINE
8
BLACK
6
CONTINUOUS
10
3.3252964566929135
20
-4.2194630314960628
11
3.3290459842519686
21
-4.2232125984251967
0
LINE
8
BLACK
6
CONTINUOUS
10
3.3290459842519686
20
-4.2232125984251967
11
3.3252964566929135
21
-4.2269621259842518
0
LINE
8
BLACK
6
CONTINUOUS
10
3.3252964566929135
20
-4.2269621259842518
11
3.3215469291338584
21
-4.2232125984251967
0
LINE
8
BLACK
6
CONTINUOUS
10
3.3215469291338584
20
-4.2232125984251967
11
3.3252964566929135
21
-4.2194630314960628
0
LINE
8
BLACK
6
CONTINUOUS
10
3.3252964566929135
20
-4.2194630314960628
11
3.3252964566929135
21
-4.2269621259842518
0
LINE
8
BLACK
6
CONTINUOUS
10
3.3590422440944883
20
-4.1557210236220472
11
3.3627917716535434
21
-4.1519714960629921
0
LINE
8
BLACK
6
CONTINUOUS
10
3.3627917716535434
20
-4.1519714960629921
11
3.3702908267716536
21
-4.148221968503937
0
LINE
8
BLACK
6
CONTINUOUS
10
3.3702908267716536
20
-4.148221968503937
11
3.3890385039370079
21
-4.148221968503937
0
LINE
8
BLACK
6
CONTINUOUS
10
3.3890385039370079
20
-4.148221968503937
11
3.3965375590551181
21
-4.1519714960629921
0
LINE
8
BLACK
6
CONTINUOUS
10
3.3965375590551181
20
-4.1519714960629921
11
3.4002870866141732
21
-4.1557210236220472
0
LINE
8
BLACK
6
CONTINUOUS
10
3.4002870866141732
20
-4.1557210236220472
11
3.4040366141732283
21
-4.1632200787401574
0
LINE
8
BLACK
6
CONTINUOUS
10
3.4040366141732283
20
-4.1632200787401574
11
3.4040366141732283
21
-4.1707191338582676
0
LINE
8
BLACK
6
CONTINUOUS
10
3.4040366141732283
20
-4.1707191338582676
11
3.4002870866141732
21
-4.181967716535433
0
LINE
8
BLACK
6
CONTINUOUS
10
3.4002870866141732
20
-4.181967716535433
11
3.3552927165354332
21
-4.2269621259842518
0
LINE
8
BLACK
6
CONTINUOUS
10
3.3552927165354332
20
-4.2269621259842518
11
3.4040366141732283
21
-4.2269621259842518
0
LINE
8
BLACK
6
CONTINUOUS
10
3.4527805118110235
20
-4.148221968503937
11
3.4602796062992125
21
-4.148221968503937
0
LINE
8
BLACK
6
CONTINUOUS
10
3.4602796062992125
20
-4.148221968503937
11
3.4677786614173227
21
-4.1519714960629921
0
LINE
8
BLACK
6
CONTINUOUS
10
3.4677786614173227
20
-4.1519714960629921
11
3.4715281889763778
21
-4.1557210236220472
0
LINE
8
BLACK
6
CONTINUOUS
10
3.4715281889763778
20
-4.1557210236220472
11
3.4752777165354329
21
-4.1632200787401574
0
LINE
8
BLACK
6
CONTINUOUS
10
3.4752777165354329
20
-4.1632200787401574
11
3.479027244094488
21
-4.1782181889763779
0
LINE
8
BLACK
6
CONTINUOUS
10
3.479027244094488
20
-4.1782181889763779
11
3.479027244094488
21
-4.1969658661417322
0
LINE
8
BLACK
6
CONTINUOUS
10
3.479027244094488
20
-4.1969658661417322
11
3.4752777165354329
21
-4.2119639763779526
0
LINE
8
BLACK
6
CONTINUOUS
10
3.4752777165354329
20
-4.2119639763779526
11
3.4715281889763778
21
-4.2194630314960628
0
LINE
8
BLACK
6
CONTINUOUS
10
3.4715281889763778
20
-4.2194630314960628
11
3.4677786614173227
21
-4.2232125984251967
0
LINE
8
BLACK
6
CONTINUOUS
10
3.4677786614173227
20
-4.2232125984251967
11
3.4602796062992125
21
-4.2269621259842518
0
LINE
8
BLACK
6
CONTINUOUS
10
3.4602796062992125
20
-4.2269621259842518
11
3.4527805118110235
21
-4.2269621259842518
0
LINE
8
BLACK
6
CONTINUOUS
10
3.4527805118110235
20
-4.2269621259842518
11
3.4452814566929133
21
-4.2232125984251967
0
LINE
8
BLACK
6
CONTINUOUS
10
3.4452814566929133
20
-4.2232125984251967
11
3.4415319291338582
21
-4.2194630314960628
0
LINE
8
BLACK
6
CONTINUOUS
10
3.4415319291338582
20
-4.2194630314960628
11
3.4377824015748031
21
-4.2119639763779526
0
LINE
8
BLACK
6
CONTINUOUS
10
3.4377824015748031
20
-4.2119639763779526
11
3.434032874015748
21
-4.1969658661417322
0
LINE
8
BLACK
6
CONTINUOUS
10
3.434032874015748
20
-4.1969658661417322
11
3.434032874015748
21
-4.1782181889763779
0
LINE
8
BLACK
6
CONTINUOUS
10
3.434032874015748
20
-4.1782181889763779
11
3.4377824015748031
21
-4.1632200787401574
0
LINE
8
BLACK
6
CONTINUOUS
10
3.4377824015748031
20
-4.1632200787401574
11
3.4415319291338582
21
-4.1557210236220472
0
LINE
8
BLACK
6
CONTINUOUS
10
3.4415319291338582
20
-4.1557210236220472
11
3.4452814566929133
21
-4.1519714960629921
0
LINE
8
BLACK
6
CONTINUOUS
10
3.4452814566929133
20
-4.1519714960629921
11
3.4527805118110235
21
-4.148221968503937
0
LINE
8
BLACK
6
CONTINUOUS
10
3.5277711417322832
20
-4.148221968503937
11
3.5352702362204722
21
-4.148221968503937
0
LINE
8
BLACK
6
CONTINUOUS
10
3.5352702362204722
20
-4.148221968503937
11
3.5427692913385824
21
-4.1519714960629921
0
LINE
8
BLACK
6
CONTINUOUS
10
3.5427692913385824
20
-4.1519714960629921
11
3.5465188188976375
21
-4.1557210236220472
0
LINE
8
BLACK
6
CONTINUOUS
10
3.5465188188976375
20
-4.1557210236220472
11
3.5502683464566926
21
-4.1632200787401574
0
LINE
8
BLACK
6
CONTINUOUS
10
3.5502683464566926
20
-4.1632200787401574
11
3.5540178740157478
21
-4.1782181889763779
0
LINE
8
BLACK
6
CONTINUOUS
10
3.5540178740157478
20
-4.1782181889763779
11
3.5540178740157478
21
-4.1969658661417322
0
LINE
8
BLACK
6
CONTINUOUS
10
3.5540178740157478
20
-4.1969658661417322
11
3.5502683464566926
21
-4.2119639763779526
0
LINE
8
BLACK
6
CONTINUOUS
10
3.5502683464566926
20
-4.2119639763779526
11
3.5465188188976375
21
-4.2194630314960628
0
LINE
8
BLACK
6
CONTINUOUS
10
3.5465188188976375
20
-4.2194630314960628
11
3.5427692913385824
21
-4.2232125984251967
0
LINE
8
BLACK
6
CONTINUOUS
10
3.5427692913385824
20
-4.2232125984251967
11
3.5352702362204722
21
-4.2269621259842518
0
LINE
8
BLACK
6
CONTINUOUS
10
3.5352702362204722
20
-4.2269621259842518
11
3.5277711417322832
21
-4.2269621259842518
0
LINE
8
BLACK
6
CONTINUOUS
10
3.5277711417322832
20
-4.2269621259842518
11
3.520272086614173
21
-4.2232125984251967
0
LINE
8
BLACK
6
CONTINUOUS
10
3.520272086614173
20
-4.2232125984251967
11
3.5165225590551179
21
-4.2194630314960628
0
LINE
8
BLACK
6
CONTINUOUS
10
3.5165225590551179
20
-4.2194630314960628
11
3.5127730314960628
21
-4.2119639763779526
0
LINE
8
BLACK
6
CONTINUOUS
10
3.5127730314960628
20
-4.2119639763779526
11
3.5090235039370077
21
-4.1969658661417322
0
LINE
8
BLACK
6
CONTINUOUS
10
3.5090235039370077
20
-4.1969658661417322
11
3.5090235039370077
21
-4.1782181889763779
0
LINE
8
BLACK
6
CONTINUOUS
10
3.5090235039370077
20
-4.1782181889763779
11
3.5127730314960628
21
-4.1632200787401574
0
LINE
8
BLACK
6
CONTINUOUS
10
3.5127730314960628
20
-4.1632200787401574
11
3.5165225590551179
21
-4.1557210236220472
0
LINE
8
BLACK
6
CONTINUOUS
10
3.5165225590551179
20
-4.1557210236220472
11
3.520272086614173
21
-4.1519714960629921
0
LINE
8
BLACK
6
CONTINUOUS
10
3.520272086614173
20
-4.1519714960629921
11
3.5277711417322832
21
-4.148221968503937
0
LINE
8
BLACK
6
CONTINUOUS
10
3.5877636614173229
20
-4.2269621259842518
11
3.5877636614173229
21
-4.1744686614173228
0
LINE
8
BLACK
6
CONTINUOUS
10
3.5877636614173229
20
-4.181967716535433
11
3.5915131889763781
21
-4.1782181889763779
0
LINE
8
BLACK
6
CONTINUOUS
10
3.5915131889763781
20
-4.1782181889763779
11
3.5990122440944883
21
-4.1744686614173228
0
LINE
8
BLACK
6
CONTINUOUS
10
3.5990122440944883
20
-4.1744686614173228
11
3.6102608661417324
21
-4.1744686614173228
0
LINE
8
BLACK
6
CONTINUOUS
10
3.6102608661417324
20
-4.1744686614173228
11
3.6177599212598426
21
-4.1782181889763779
0
LINE
8
BLACK
6
CONTINUOUS
10
3.6177599212598426
20
-4.1782181889763779
11
3.6215094488188977
21
-4.1857172834645668
0
LINE
8
BLACK
6
CONTINUOUS
10
3.6215094488188977
20
-4.1857172834645668
11
3.6215094488188977
21
-4.2269621259842518
0
LINE
8
BLACK
6
CONTINUOUS
10
3.6215094488188977
20
-4.1857172834645668
11
3.6252589763779528
21
-4.1782181889763779
0
LINE
8
BLACK
6
CONTINUOUS
10
3.6252589763779528
20
-4.1782181889763779
11
3.632758031496063
21
-4.1744686614173228
0
LINE
8
BLACK
6
CONTINUOUS
10
3.632758031496063
20
-4.1744686614173228
11
3.6440066141732284
21
-4.1744686614173228
0
LINE
8
BLACK
6
CONTINUOUS
10
3.6440066141732284
20
-4.1744686614173228
11
3.6515057086614173
21
-4.1782181889763779
0
LINE
8
BLACK
6
CONTINUOUS
10
3.6515057086614173
20
-4.1782181889763779
11
3.6552552362204724
21
-4.1857172834645668
0
LINE
8
BLACK
6
CONTINUOUS
10
3.6552552362204724
20
-4.1857172834645668
11
3.6552552362204724
21
-4.2269621259842518
0
LINE
8
BLACK
6
CONTINUOUS
10
3.6927505511811023
20
-4.2269621259842518
11
3.6927505511811023
21
-4.1744686614173228
0
LINE
8
BLACK
6
CONTINUOUS
10
3.6927505511811023
20
-4.181967716535433
11
3.6965000787401574
21
-4.1782181889763779
0
LINE
8
BLACK
6
CONTINUOUS
10
3.6965000787401574
20
-4.1782181889763779
11
3.7039991338582676
21
-4.1744686614173228
0
LINE
8
BLACK
6
CONTINUOUS
10
3.7039991338582676
20
-4.1744686614173228
11
3.7152477559055117
21
-4.1744686614173228
0
LINE
8
BLACK
6
CONTINUOUS
10
3.7152477559055117
20
-4.1744686614173228
11
3.7227468110236219
21
-4.1782181889763779
0
LINE
8
BLACK
6
CONTINUOUS
10
3.7227468110236219
20
-4.1782181889763779
11
3.726496338582677
21
-4.1857172834645668
0
LINE
8
BLACK
6
CONTINUOUS
10
3.726496338582677
20
-4.1857172834645668
11
3.726496338582677
21
-4.2269621259842518
0
LINE
8
BLACK
6
CONTINUOUS
10
3.726496338582677
20
-4.1857172834645668
11
3.7302458661417321
21
-4.1782181889763779
0
LINE
8
BLACK
6
CONTINUOUS
10
3.7302458661417321
20
-4.1782181889763779
11
3.7377449212598424
21
-4.1744686614173228
0
LINE
8
BLACK
6
CONTINUOUS
10
3.7377449212598424
20
-4.1744686614173228
11
3.7489935039370077
21
-4.1744686614173228
0
LINE
8
BLACK
6
CONTINUOUS
10
3.7489935039370077
20
-4.1744686614173228
11
3.7564925984251967
21
-4.1782181889763779
0
LINE
8
BLACK
6
CONTINUOUS
10
3.7564925984251967
20
-4.1782181889763779
11
3.7602421259842518
21
-4.1857172834645668
0
LINE
8
BLACK
6
CONTINUOUS
10
3.7602421259842518
20
-4.1857172834645668
11
3.7602421259842518
21
-4.2269621259842518
0
LINE
8
BLACK
6
CONTINUOUS
10
3.9139729133858268
20
-4.1444724409448819
11
3.846481377952756
21
-4.2457097637795274
0
LINE
8
BLACK
6
CONTINUOUS
10
4.015210275590551
20
-4.148221968503937
11
4.02270937007874
21
-4.148221968503937
0
LINE
8
BLACK
6
CONTINUOUS
10
4.02270937007874
20
-4.148221968503937
11
4.0302084251968502
21
-4.1519714960629921
0
LINE
8
BLACK
6
CONTINUOUS
10
4.0302084251968502
20
-4.1519714960629921
11
4.0339579527559053
21
-4.1557210236220472
0
LINE
8
BLACK
6
CONTINUOUS
10
4.0339579527559053
20
-4.1557210236220472
11
4.0377074803149604
21
-4.1632200787401574
0
LINE
8
BLACK
6
CONTINUOUS
10
4.0377074803149604
20
-4.1632200787401574
11
4.0414570078740155
21
-4.1782181889763779
0
LINE
8
BLACK
6
CONTINUOUS
10
4.0414570078740155
20
-4.1782181889763779
11
4.0414570078740155
21
-4.1969658661417322
0
LINE
8
BLACK
6
CONTINUOUS
10
4.0414570078740155
20
-4.1969658661417322
11
4.0377074803149604
21
-4.2119639763779526
0
LINE
8
BLACK
6
CONTINUOUS
10
4.0377074803149604
20
-4.2119639763779526
11
4.0339579527559053
21
-4.2194630314960628
0
LINE
8
BLACK
6
CONTINUOUS
10
4.0339579527559053
20
-4.2194630314960628
11
4.0302084251968502
21
-4.2232125984251967
0
LINE
8
BLACK
6
CONTINUOUS
10
4.0302084251968502
20
-4.2232125984251967
11
4.02270937007874
21
-4.2269621259842518
0
LINE
8
BLACK
6
CONTINUOUS
10
4.02270937007874
20
-4.2269621259842518
11
4.015210275590551
21
-4.2269621259842518
0
LINE
8
BLACK
6
CONTINUOUS
10
4.015210275590551
20
-4.2269621259842518
11
4.0077112204724408
21
-4.2232125984251967
0
LINE
8
BLACK
6
CONTINUOUS
10
4.0077112204724408
20
-4.2232125984251967
11
4.0039616929133857
21
-4.2194630314960628
0
LINE
8
BLACK
6
CONTINUOUS
10
4.0039616929133857
20
-4.2194630314960628
11
4.0002121653543306
21
-4.2119639763779526
0
LINE
8
BLACK
6
CONTINUOUS
10
4.0002121653543306
20
-4.2119639763779526
11
3.9964626377952754
21
-4.1969658661417322
0
LINE
8
BLACK
6
CONTINUOUS
10
3.9964626377952754
20
-4.1969658661417322
11
3.9964626377952754
21
-4.1782181889763779
0
LINE
8
BLACK
6
CONTINUOUS
10
3.9964626377952754
20
-4.1782181889763779
11
4.0002121653543306
21
-4.1632200787401574
0
LINE
8
BLACK
6
CONTINUOUS
10
4.0002121653543306
20
-4.1632200787401574
11
4.0039616929133857
21
-4.1557210236220472
0
LINE
8
BLACK
6
CONTINUOUS
10
4.0039616929133857
20
-4.1557210236220472
11
4.0077112204724408
21
-4.1519714960629921
0
LINE
8
BLACK
6
CONTINUOUS
10
4.0077112204724408
20
-4.1519714960629921
11
4.015210275590551
21
-4.148221968503937
0
LINE
8
BLACK
6
CONTINUOUS
10
4.0752027952755903
20
-4.2194630314960628
11
4.0789523228346454
21
-4.2232125984251967
0
LINE
8
BLACK
6
CONTINUOUS
10
4.0789523228346454
20
-4.2232125984251967
11
4.0752027952755903
21
-4.2269621259842518
0
LINE
8
BLACK
6
CONTINUOUS
10
4.0752027952755903
20
-4.2269621259842518
11
4.0714532677165352
21
-4.2232125984251967
0
LINE
8
BLACK
6
CONTINUOUS
10
4.0714532677165352
20
-4.2232125984251967
11
4.0752027952755903
21
-4.2194630314960628
0
LINE
8
BLACK
6
CONTINUOUS
10
4.0752027952755903
20
-4.2194630314960628
11
4.0752027952755903
21
-4.2269621259842518
0
LINE
8
BLACK
6
CONTINUOUS
10
4.1539429527559051
20
-4.2269621259842518
11
4.108948582677165
21
-4.2269621259842518
0
LINE
8
BLACK
6
CONTINUOUS
10
4.1314457480314957
20
-4.2269621259842518
11
4.1314457480314957
21
-4.148221968503937
0
LINE
8
BLACK
6
CONTINUOUS
10
4.1314457480314957
20
-4.148221968503937
11
4.1239466929133854
21
-4.1594705511811023
0
LINE
8
BLACK
6
CONTINUOUS
10
4.1239466929133854
20
-4.1594705511811023
11
4.1164476377952752
21
-4.1669696062992125
0
LINE
8
BLACK
6
CONTINUOUS
10
4.1164476377952752
20
-4.1669696062992125
11
4.108948582677165
21
-4.1707191338582676
0
LINE
8
BLACK
6
CONTINUOUS
10
4.1839392125984247
20
-4.1557210236220472
11
4.1876887401574798
21
-4.1519714960629921
0
LINE
8
BLACK
6
CONTINUOUS
10
4.1876887401574798
20
-4.1519714960629921
11
4.19518779527559
21
-4.148221968503937
0
LINE
8
BLACK
6
CONTINUOUS
10
4.19518779527559
20
-4.148221968503937
11
4.2139354724409444
21
-4.148221968503937
0
LINE
8
BLACK
6
CONTINUOUS
10
4.2139354724409444
20
-4.148221968503937
11
4.2214345275590555
21
-4.1519714960629921
0
LINE
8
BLACK
6
CONTINUOUS
10
4.2214345275590555
20
-4.1519714960629921
11
4.2251840551181106
21
-4.1557210236220472
0
LINE
8
BLACK
6
CONTINUOUS
10
4.2251840551181106
20
-4.1557210236220472
11
4.2289335826771657
21
-4.1632200787401574
0
LINE
8
BLACK
6
CONTINUOUS
10
4.2289335826771657
20
-4.1632200787401574
11
4.2289335826771657
21
-4.1707191338582676
0
LINE
8
BLACK
6
CONTINUOUS
10
4.2289335826771657
20
-4.1707191338582676
11
4.2251840551181106
21
-4.181967716535433
0
LINE
8
BLACK
6
CONTINUOUS
10
4.2251840551181106
20
-4.181967716535433
11
4.1801896850393696
21
-4.2269621259842518
0
LINE
8
BLACK
6
CONTINUOUS
10
4.1801896850393696
20
-4.2269621259842518
11
4.2289335826771657
21
-4.2269621259842518
0
LINE
8
BLACK
6
CONTINUOUS
10
4.2964251574803152
20
-4.148221968503937
11
4.281427007874016
21
-4.148221968503937
0
LINE
8
BLACK
6
CONTINUOUS
10
4.281427007874016
20
-4.148221968503937
11
4.2739279527559058
21
-4.1519714960629921
0
LINE
8
BLACK
6
CONTINUOUS
10
4.2739279527559058
20
-4.1519714960629921
11
4.2701784251968506
21
-4.1557210236220472
0
LINE
8
BLACK
6
CONTINUOUS
10
4.2701784251968506
20
-4.1557210236220472
11
4.2626793700787404
21
-4.1669696062992125
0
LINE
8
BLACK
6
CONTINUOUS
10
4.2626793700787404
20
-4.1669696062992125
11
4.2589298425196853
21
-4.181967716535433
0
LINE
8
BLACK
6
CONTINUOUS
10
4.2589298425196853
20
-4.181967716535433
11
4.2589298425196853
21
-4.2119639763779526
0
LINE
8
BLACK
6
CONTINUOUS
10
4.2589298425196853
20
-4.2119639763779526
11
4.2626793700787404
21
-4.2194630314960628
0
LINE
8
BLACK
6
CONTINUOUS
10
4.2626793700787404
20
-4.2194630314960628
11
4.2664288976377955
21
-4.2232125984251967
0
LINE
8
BLACK
6
CONTINUOUS
10
4.2664288976377955
20
-4.2232125984251967
11
4.2739279527559058
21
-4.2269621259842518
0
LINE
8
BLACK
6
CONTINUOUS
10
4.2739279527559058
20
-4.2269621259842518
11
4.288926102362205
21
-4.2269621259842518
0
LINE
8
BLACK
6
CONTINUOUS
10
4.288926102362205
20
-4.2269621259842518
11
4.2964251574803152
21
-4.2232125984251967
0
LINE
8
BLACK
6
CONTINUOUS
10
4.2964251574803152
20
-4.2232125984251967
11
4.3001746850393703
21
-4.2194630314960628
0
LINE
8
BLACK
6
CONTINUOUS
10
4.3001746850393703
20
-4.2194630314960628
11
4.3039242125984254
21
-4.2119639763779526
0
LINE
8
BLACK
6
CONTINUOUS
10
4.3039242125984254
20
-4.2119639763779526
11
4.3039242125984254
21
-4.1932163385826771
0
LINE
8
BLACK
6
CONTINUOUS
10
4.3039242125984254
20
-4.1932163385826771
11
4.3001746850393703
21
-4.1857172834645668
0
LINE
8
BLACK
6
CONTINUOUS
10
4.3001746850393703
20
-4.1857172834645668
11
4.2964251574803152
21
-4.181967716535433
0
LINE
8
BLACK
6
CONTINUOUS
10
4.2964251574803152
20
-4.181967716535433
11
4.288926102362205
21
-4.1782181889763779
0
LINE
8
BLACK
6
CONTINUOUS
10
4.288926102362205
20
-4.1782181889763779
11
4.2739279527559058
21
-4.1782181889763779
0
LINE
8
BLACK
6
CONTINUOUS
10
4.2739279527559058
20
-4.1782181889763779
11
4.2664288976377955
21
-4.181967716535433
0
LINE
8
BLACK
6
CONTINUOUS
10
4.2664288976377955
20
-4.181967716535433
11
4.2626793700787404
21
-4.1857172834645668
0
LINE
8
BLACK
6
CONTINUOUS
10
4.2626793700787404
20
-4.1857172834645668
11
4.2589298425196853
21
-4.1932163385826771
0
LINE
8
BLACK
6
CONTINUOUS
10
4.3526681102362206
20
-4.148221968503937
11
4.3601672047244096
21
-4.148221968503937
0
LINE
8
BLACK
6
CONTINUOUS
10
4.3601672047244096
20
-4.148221968503937
11
4.3676662598425198
21
-4.1519714960629921
0
LINE
8
BLACK
6
CONTINUOUS
10
4.3676662598425198
20
-4.1519714960629921
11
4.3714157874015749
21
-4.1557210236220472
0
LINE
8
BLACK
6
CONTINUOUS
10
4.3714157874015749
20
-4.1557210236220472
11
4.37516531496063
21
-4.1632200787401574
0
LINE
8
BLACK
6
CONTINUOUS
10
4.37516531496063
20
-4.1632200787401574
11
4.3789148425196851
21
-4.1782181889763779
0
LINE
8
BLACK
6
CONTINUOUS
10
4.3789148425196851
20
-4.1782181889763779
11
4.3789148425196851
21
-4.1969658661417322
0
LINE
8
BLACK
6
CONTINUOUS
10
4.3789148425196851
20
-4.1969658661417322
11
4.37516531496063
21
-4.2119639763779526
0
LINE
8
BLACK
6
CONTINUOUS
10
4.37516531496063
20
-4.2119639763779526
11
4.3714157874015749
21
-4.2194630314960628
0
LINE
8
BLACK
6
CONTINUOUS
10
4.3714157874015749
20
-4.2194630314960628
11
4.3676662598425198
21
-4.2232125984251967
0
LINE
8
BLACK
6
CONTINUOUS
10
4.3676662598425198
20
-4.2232125984251967
11
4.3601672047244096
21
-4.2269621259842518
0
LINE
8
BLACK
6
CONTINUOUS
10
4.3601672047244096
20
-4.2269621259842518
11
4.3526681102362206
21
-4.2269621259842518
0
LINE
8
BLACK
6
CONTINUOUS
10
4.3526681102362206
20
-4.2269621259842518
11
4.3451690551181104
21
-4.2232125984251967
0
LINE
8
BLACK
6
CONTINUOUS
10
4.3451690551181104
20
-4.2232125984251967
11
4.3414195275590552
21
-4.2194630314960628
0
LINE
8
BLACK
6
CONTINUOUS
10
4.3414195275590552
20
-4.2194630314960628
11
4.3376700000000001
21
-4.2119639763779526
0
LINE
8
BLACK
6
CONTINUOUS
10
4.3376700000000001
20
-4.2119639763779526
11
4.333920472440945
21
-4.1969658661417322
0
LINE
8
BLACK
6
CONTINUOUS
10
4.333920472440945
20
-4.1969658661417322
11
4.333920472440945
21
-4.1782181889763779
0
LINE
8
BLACK
6
CONTINUOUS
10
4.333920472440945
20
-4.1782181889763779
11
4.3376700000000001
21
-4.1632200787401574
0
LINE
8
BLACK
6
CONTINUOUS
10
4.3376700000000001
20
-4.1632200787401574
11
4.3414195275590552
21
-4.1557210236220472
0
LINE
8
BLACK
6
CONTINUOUS
10
4.3414195275590552
20
-4.1557210236220472
11
4.3451690551181104
21
-4.1519714960629921
0
LINE
8
BLACK
6
CONTINUOUS
10
4.3451690551181104
20
-4.1519714960629921
11
4.3526681102362206
21
-4.148221968503937
0
LINE
8
BLACK
6
CONTINUOUS
10
4.4089111023622047
20
-4.148221968503937
11
4.4089111023622047
21
-4.1632200787401574
0
LINE
8
BLACK
6
CONTINUOUS
10
4.4389073622047244
20
-4.148221968503937
11
4.4389073622047244
21
-4.1632200787401574
0
LINE
8
BLACK
6
CONTINUOUS
10
4.5551428740157478
20
-4.2569583464566927
11
4.5513933070866139
21
-4.2532088188976376
0
LINE
8
BLACK
6
CONTINUOUS
10
4.5513933070866139
20
-4.2532088188976376
11
4.5438942519685037
21
-4.2419602362204722
0
LINE
8
BLACK
6
CONTINUOUS
10
4.5438942519685037
20
-4.2419602362204722
11
4.5401447244094486
21
-4.234461181102362
0
LINE
8
BLACK
6
CONTINUOUS
10
4.5401447244094486
20
-4.234461181102362
11
4.5363951968503935
21
-4.2232125984251967
0
LINE
8
BLACK
6
CONTINUOUS
10
4.5363951968503935
20
-4.2232125984251967
11
4.5326456692913384
21
-4.2044649212598424
0
LINE
8
BLACK
6
CONTINUOUS
10
4.5326456692913384
20
-4.2044649212598424
11
4.5326456692913384
21
-4.189466811023622
0
LINE
8
BLACK
6
CONTINUOUS
10
4.5326456692913384
20
-4.189466811023622
11
4.5363951968503935
21
-4.1707191338582676
0
LINE
8
BLACK
6
CONTINUOUS
10
4.5363951968503935
20
-4.1707191338582676
11
4.5401447244094486
21
-4.1594705511811023
0
LINE
8
BLACK
6
CONTINUOUS
10
4.5401447244094486
20
-4.1594705511811023
11
4.5438942519685037
21
-4.1519714960629921
0
LINE
8
BLACK
6
CONTINUOUS
10
4.5438942519685037
20
-4.1519714960629921
11
4.5513933070866139
21
-4.140722874015748
0
LINE
8
BLACK
6
CONTINUOUS
10
4.5513933070866139
20
-4.140722874015748
11
4.5551428740157478
21
-4.1369733464566929
0
LINE
8
BLACK
6
CONTINUOUS
10
4.6188848818897634
20
-4.1744686614173228
11
4.6188848818897634
21
-4.2269621259842518
0
LINE
8
BLACK
6
CONTINUOUS
10
4.6001372047244091
20
-4.1444724409448819
11
4.5813895669291336
21
-4.2007153937007873
0
LINE
8
BLACK
6
CONTINUOUS
10
4.5813895669291336
20
-4.2007153937007873
11
4.6301334645669288
21
-4.2007153937007873
0
LINE
8
BLACK
6
CONTINUOUS
10
4.7201222440944877
20
-4.2269621259842518
11
4.7201222440944877
21
-4.148221968503937
0
LINE
8
BLACK
6
CONTINUOUS
10
4.7538680314960633
20
-4.2269621259842518
11
4.7538680314960633
21
-4.1857172834645668
0
LINE
8
BLACK
6
CONTINUOUS
10
4.7538680314960633
20
-4.1857172834645668
11
4.7501185039370082
21
-4.1782181889763779
0
LINE
8
BLACK
6
CONTINUOUS
10
4.7501185039370082
20
-4.1782181889763779
11
4.742619448818898
21
-4.1744686614173228
0
LINE
8
BLACK
6
CONTINUOUS
10
4.742619448818898
20
-4.1744686614173228
11
4.731370826771653
21
-4.1744686614173228
0
LINE
8
BLACK
6
CONTINUOUS
10
4.731370826771653
20
-4.1744686614173228
11
4.7238717716535428
21
-4.1782181889763779
0
LINE
8
BLACK
6
CONTINUOUS
10
4.7238717716535428
20
-4.1782181889763779
11
4.7201222440944877
21
-4.181967716535433
0
LINE
8
BLACK
6
CONTINUOUS
10
4.8026119291338585
20
-4.2269621259842518
11
4.7951128740157483
21
-4.2232125984251967
0
LINE
8
BLACK
6
CONTINUOUS
10
4.7951128740157483
20
-4.2232125984251967
11
4.7913633464566932
21
-4.2194630314960628
0
LINE
8
BLACK
6
CONTINUOUS
10
4.7913633464566932
20
-4.2194630314960628
11
4.787613818897638
21
-4.2119639763779526
0
LINE
8
BLACK
6
CONTINUOUS
10
4.787613818897638
20
-4.2119639763779526
11
4.787613818897638
21
-4.189466811023622
0
LINE
8
BLACK
6
CONTINUOUS
10
4.787613818897638
20
-4.189466811023622
11
4.7913633464566932
21
-4.181967716535433
0
LINE
8
BLACK
6
CONTINUOUS
10
4.7913633464566932
20
-4.181967716535433
11
4.7951128740157483
21
-4.1782181889763779
0
LINE
8
BLACK
6
CONTINUOUS
10
4.7951128740157483
20
-4.1782181889763779
11
4.8026119291338585
21
-4.1744686614173228
0
LINE
8
BLACK
6
CONTINUOUS
10
4.8026119291338585
20
-4.1744686614173228
11
4.8138605511811026
21
-4.1744686614173228
0
LINE
8
BLACK
6
CONTINUOUS
10
4.8138605511811026
20
-4.1744686614173228
11
4.8213596062992128
21
-4.1782181889763779
0
LINE
8
BLACK
6
CONTINUOUS
10
4.8213596062992128
20
-4.1782181889763779
11
4.8251091338582679
21
-4.181967716535433
0
LINE
8
BLACK
6
CONTINUOUS
10
4.8251091338582679
20
-4.181967716535433
11
4.828858661417323
21
-4.189466811023622
0
LINE
8
BLACK
6
CONTINUOUS
10
4.828858661417323
20
-4.189466811023622
11
4.828858661417323
21
-4.2119639763779526
0
LINE
8
BLACK
6
CONTINUOUS
10
4.828858661417323
20
-4.2119639763779526
11
4.8251091338582679
21
-4.2194630314960628
0
LINE
8
BLACK
6
CONTINUOUS
10
4.8251091338582679
20
-4.2194630314960628
11
4.8213596062992128
21
-4.2232125984251967
0
LINE
8
BLACK
6
CONTINUOUS
10
4.8213596062992128
20
-4.2232125984251967
11
4.8138605511811026
21
-4.2269621259842518
0
LINE
8
BLACK
6
CONTINUOUS
10
4.8138605511811026
20
-4.2269621259842518
11
4.8026119291338585
21
-4.2269621259842518
0
LINE
8
BLACK
6
CONTINUOUS
10
4.8738530314960631
20
-4.2269621259842518
11
4.8663539763779529
21
-4.2232125984251967
0
LINE
8
BLACK
6
CONTINUOUS
10
4.8663539763779529
20
-4.2232125984251967
11
4.8626044488188978
21
-4.2157135039370077
0
LINE
8
BLACK
6
CONTINUOUS
10
4.8626044488188978
20
-4.2157135039370077
11
4.8626044488188978
21
-4.148221968503937
0
LINE
8
BLACK
6
CONTINUOUS
10
4.9338455511811024
20
-4.2232125984251967
11
4.9263464960629921
21
-4.2269621259842518
0
LINE
8
BLACK
6
CONTINUOUS
10
4.9263464960629921
20
-4.2269621259842518
11
4.9113483464566929
21
-4.2269621259842518
0
LINE
8
BLACK
6
CONTINUOUS
10
4.9113483464566929
20
-4.2269621259842518
11
4.9038492913385827
21
-4.2232125984251967
0
LINE
8
BLACK
6
CONTINUOUS
10
4.9038492913385827
20
-4.2232125984251967
11
4.9000997637795276
21
-4.2157135039370077
0
LINE
8
BLACK
6
CONTINUOUS
10
4.9000997637795276
20
-4.2157135039370077
11
4.9000997637795276
21
-4.1857172834645668
0
LINE
8
BLACK
6
CONTINUOUS
10
4.9000997637795276
20
-4.1857172834645668
11
4.9038492913385827
21
-4.1782181889763779
0
LINE
8
BLACK
6
CONTINUOUS
10
4.9038492913385827
20
-4.1782181889763779
11
4.9113483464566929
21
-4.1744686614173228
0
LINE
8
BLACK
6
CONTINUOUS
10
4.9113483464566929
20
-4.1744686614173228
11
4.9263464960629921
21
-4.1744686614173228
0
LINE
8
BLACK
6
CONTINUOUS
10
4.9263464960629921
20
-4.1744686614173228
11
4.9338455511811024
21
-4.1782181889763779
0
LINE
8
BLACK
6
CONTINUOUS
10
4.9338455511811024
20
-4.1782181889763779
11
4.9375950787401575
21
-4.1857172834645668
0
LINE
8
BLACK
6
CONTINUOUS
10
4.9375950787401575
20
-4.1857172834645668
11
4.9375950787401575
21
-4.1932163385826771
0
LINE
8
BLACK
6
CONTINUOUS
10
4.9375950787401575
20
-4.1932163385826771
11
4.9000997637795276
21
-4.2007153937007873
0
LINE
8
BLACK
6
CONTINUOUS
10
4.9675913385826771
20
-4.2232125984251967
11
4.9750903937007873
21
-4.2269621259842518
0
LINE
8
BLACK
6
CONTINUOUS
10
4.9750903937007873
20
-4.2269621259842518
11
4.9900885039370078
21
-4.2269621259842518
0
LINE
8
BLACK
6
CONTINUOUS
10
4.9900885039370078
20
-4.2269621259842518
11
4.9975875984251967
21
-4.2232125984251967
0
LINE
8
BLACK
6
CONTINUOUS
10
4.9975875984251967
20
-4.2232125984251967
11
5.0013371259842518
21
-4.2157135039370077
0
LINE
8
BLACK
6
CONTINUOUS
10
5.0013371259842518
20
-4.2157135039370077
11
5.0013371259842518
21
-4.2119639763779526
0
LINE
8
BLACK
6
CONTINUOUS
10
5.0013371259842518
20
-4.2119639763779526
11
4.9975875984251967
21
-4.2044649212598424
0
LINE
8
BLACK
6
CONTINUOUS
10
4.9975875984251967
20
-4.2044649212598424
11
4.9900885039370078
21
-4.2007153937007873
0
LINE
8
BLACK
6
CONTINUOUS
10
4.9900885039370078
20
-4.2007153937007873
11
4.9788399212598424
21
-4.2007153937007873
0
LINE
8
BLACK
6
CONTINUOUS
10
4.9788399212598424
20
-4.2007153937007873
11
4.9713408661417322
21
-4.1969658661417322
0
LINE
8
BLACK
6
CONTINUOUS
10
4.9713408661417322
20
-4.1969658661417322
11
4.9675913385826771
21
-4.189466811023622
0
LINE
8
BLACK
6
CONTINUOUS
10
4.9675913385826771
20
-4.189466811023622
11
4.9675913385826771
21
-4.1857172834645668
0
LINE
8
BLACK
6
CONTINUOUS
10
4.9675913385826771
20
-4.1857172834645668
11
4.9713408661417322
21
-4.1782181889763779
0
LINE
8
BLACK
6
CONTINUOUS
10
4.9713408661417322
20
-4.1782181889763779
11
4.9788399212598424
21
-4.1744686614173228
0
LINE
8
BLACK
6
CONTINUOUS
10
4.9788399212598424
20
-4.1744686614173228
11
4.9900885039370078
21
-4.1744686614173228
0
LINE
8
BLACK
6
CONTINUOUS
10
4.9900885039370078
20
-4.1744686614173228
11
4.9975875984251967
21
-4.1782181889763779
0
LINE
8
BLACK
6
CONTINUOUS
10
5.0275838582677164
20
-4.2569583464566927
11
5.0313333858267715
21
-4.2532088188976376
0
LINE
8
BLACK
6
CONTINUOUS
10
5.0313333858267715
20
-4.2532088188976376
11
5.0388324409448817
21
-4.2419602362204722
0
LINE
8
BLACK
6
CONTINUOUS
10
5.0388324409448817
20
-4.2419602362204722
11
5.0425819685039368
21
-4.234461181102362
0
LINE
8
BLACK
6
CONTINUOUS
10
5.0425819685039368
20
-4.234461181102362
11
5.0463314960629919
21
-4.2232125984251967
0
LINE
8
BLACK
6
CONTINUOUS
10
5.0463314960629919
20
-4.2232125984251967
11
5.050081023622047
21
-4.2044649212598424
0
LINE
8
BLACK
6
CONTINUOUS
10
5.050081023622047
20
-4.2044649212598424
11
5.050081023622047
21
-4.189466811023622
0
LINE
8
BLACK
6
CONTINUOUS
10
5.050081023622047
20
-4.189466811023622
11
5.0463314960629919
21
-4.1707191338582676
0
LINE
8
BLACK
6
CONTINUOUS
10
5.0463314960629919
20
-4.1707191338582676
11
5.0425819685039368
21
-4.1594705511811023
0
LINE
8
BLACK
6
CONTINUOUS
10
5.0425819685039368
20
-4.1594705511811023
11
5.0388324409448817
21
-4.1519714960629921
0
LINE
8
BLACK
6
CONTINUOUS
10
5.0388324409448817
20
-4.1519714960629921
11
5.0313333858267715
21
-4.140722874015748
0
LINE
8
BLACK
6
CONTINUOUS
10
5.0313333858267715
20
-4.140722874015748
11
5.0275838582677164
21
-4.1369733464566929
0
LINE
8
BLACK
6
CONTINUOUS
10
5.1700660629921256
20
-4.2569583464566927
11
5.1663164960629917
21
-4.2532088188976376
0
LINE
8
BLACK
6
CONTINUOUS
10
5.1663164960629917
20
-4.2532088188976376
11
5.1588174409448815
21
-4.2419602362204722
0
LINE
8
BLACK
6
CONTINUOUS
10
5.1588174409448815
20
-4.2419602362204722
11
5.1550679133858264
21
-4.234461181102362
0
LINE
8
BLACK
6
CONTINUOUS
10
5.1550679133858264
20
-4.234461181102362
11
5.1513183858267713
21
-4.2232125984251967
0
LINE
8
BLACK
6
CONTINUOUS
10
5.1513183858267713
20
-4.2232125984251967
11
5.1475688582677162
21
-4.2044649212598424
0
LINE
8
BLACK
6
CONTINUOUS
10
5.1475688582677162
20
-4.2044649212598424
11
5.1475688582677162
21
-4.189466811023622
0
LINE
8
BLACK
6
CONTINUOUS
10
5.1475688582677162
20
-4.189466811023622
11
5.1513183858267713
21
-4.1707191338582676
0
LINE
8
BLACK
6
CONTINUOUS
10
5.1513183858267713
20
-4.1707191338582676
11
5.1550679133858264
21
-4.1594705511811023
0
LINE
8
BLACK
6
CONTINUOUS
10
5.1550679133858264
20
-4.1594705511811023
11
5.1588174409448815
21
-4.1519714960629921
0
LINE
8
BLACK
6
CONTINUOUS
10
5.1588174409448815
20
-4.1519714960629921
11
5.1663164960629917
21
-4.140722874015748
0
LINE
8
BLACK
6
CONTINUOUS
10
5.1663164960629917
20
-4.140722874015748
11
5.1700660629921256
21
-4.1369733464566929
0
LINE
8
BLACK
6
CONTINUOUS
10
5.2000622834645664
20
-4.1744686614173228
11
5.2000622834645664
21
-4.2269621259842518
0
LINE
8
BLACK
6
CONTINUOUS
10
5.2000622834645664
20
-4.181967716535433
11
5.2038118110236216
21
-4.1782181889763779
0
LINE
8
BLACK
6
CONTINUOUS
10
5.2038118110236216
20
-4.1782181889763779
11
5.2113108661417318
21
-4.1744686614173228
0
LINE
8
BLACK
6
CONTINUOUS
10
5.2113108661417318
20
-4.1744686614173228
11
5.2225594881889759
21
-4.1744686614173228
0
LINE
8
BLACK
6
CONTINUOUS
10
5.2225594881889759
20
-4.1744686614173228
11
5.2300585433070861
21
-4.1782181889763779
0
LINE
8
BLACK
6
CONTINUOUS
10
5.2300585433070861
20
-4.1782181889763779
11
5.2338080708661412
21
-4.1857172834645668
0
LINE
8
BLACK
6
CONTINUOUS
10
5.2338080708661412
20
-4.1857172834645668
11
5.2338080708661412
21
-4.2269621259842518
0
LINE
8
BLACK
6
CONTINUOUS
10
5.2825519685039373
20
-4.2269621259842518
11
5.275052913385827
21
-4.2232125984251967
0
LINE
8
BLACK
6
CONTINUOUS
10
5.275052913385827
20
-4.2232125984251967
11
5.2713033858267719
21
-4.2194630314960628
0
LINE
8
BLACK
6
CONTINUOUS
10
5.2713033858267719
20
-4.2194630314960628
11
5.2675538582677168
21
-4.2119639763779526
0
LINE
8
BLACK
6
CONTINUOUS
10
5.2675538582677168
20
-4.2119639763779526
11
5.2675538582677168
21
-4.189466811023622
0
LINE
8
BLACK
6
CONTINUOUS
10
5.2675538582677168
20
-4.189466811023622
11
5.2713033858267719
21
-4.181967716535433
0
LINE
8
BLACK
6
CONTINUOUS
10
5.2713033858267719
20
-4.181967716535433
11
5.275052913385827
21
-4.1782181889763779
0
LINE
8
BLACK
6
CONTINUOUS
10
5.275052913385827
20
-4.1782181889763779
11
5.2825519685039373
21
-4.1744686614173228
0
LINE
8
BLACK
6
CONTINUOUS
10
5.2825519685039373
20
-4.1744686614173228
11
5.2938005905511814
21
-4.1744686614173228
0
LINE
8
BLACK
6
CONTINUOUS
10
5.2938005905511814
20
-4.1744686614173228
11
5.3012996456692916
21
-4.1782181889763779
0
LINE
8
BLACK
6
CONTINUOUS
10
5.3012996456692916
20
-4.1782181889763779
11
5.3050491732283467
21
-4.181967716535433
0
LINE
8
BLACK
6
CONTINUOUS
10
5.3050491732283467
20
-4.181967716535433
11
5.3087987007874018
21
-4.189466811023622
0
LINE
8
BLACK
6
CONTINUOUS
10
5.3087987007874018
20
-4.189466811023622
11
5.3087987007874018
21
-4.2119639763779526
0
LINE
8
BLACK
6
CONTINUOUS
10
5.3087987007874018
20
-4.2119639763779526
11
5.3050491732283467
21
-4.2194630314960628
0
LINE
8
BLACK
6
CONTINUOUS
10
5.3050491732283467
20
-4.2194630314960628
11
5.3012996456692916
21
-4.2232125984251967
0
LINE
8
BLACK
6
CONTINUOUS
10
5.3012996456692916
20
-4.2232125984251967
11
5.2938005905511814
21
-4.2269621259842518
0
LINE
8
BLACK
6
CONTINUOUS
10
5.2938005905511814
20
-4.2269621259842518
11
5.2825519685039373
21
-4.2269621259842518
0
LINE
8
BLACK
6
CONTINUOUS
10
5.3312959055118112
20
-4.1744686614173228
11
5.3612921259842521
21
-4.1744686614173228
0
LINE
8
BLACK
6
CONTINUOUS
10
5.3425444881889765
20
-4.148221968503937
11
5.3425444881889765
21
-4.2157135039370077
0
LINE
8
BLACK
6
CONTINUOUS
10
5.3425444881889765
20
-4.2157135039370077
11
5.3462940157480316
21
-4.2232125984251967
0
LINE
8
BLACK
6
CONTINUOUS
10
5.3462940157480316
20
-4.2232125984251967
11
5.3537930708661419
21
-4.2269621259842518
0
LINE
8
BLACK
6
CONTINUOUS
10
5.3537930708661419
20
-4.2269621259842518
11
5.3612921259842521
21
-4.2269621259842518
0
LINE
8
BLACK
6
CONTINUOUS
10
5.4475313779527559
20
-4.1744686614173228
11
5.4475313779527559
21
-4.2532088188976376
0
LINE
8
BLACK
6
CONTINUOUS
10
5.4475313779527559
20
-4.1782181889763779
11
5.4550304330708661
21
-4.1744686614173228
0
LINE
8
BLACK
6
CONTINUOUS
10
5.4550304330708661
20
-4.1744686614173228
11
5.4700285826771653
21
-4.1744686614173228
0
LINE
8
BLACK
6
CONTINUOUS
10
5.4700285826771653
20
-4.1744686614173228
11
5.4775276377952755
21
-4.1782181889763779
0
LINE
8
BLACK
6
CONTINUOUS
10
5.4775276377952755
20
-4.1782181889763779
11
5.4812771653543306
21
-4.181967716535433
0
LINE
8
BLACK
6
CONTINUOUS
10
5.4812771653543306
20
-4.181967716535433
11
5.4850266929133857
21
-4.189466811023622
0
LINE
8
BLACK
6
CONTINUOUS
10
5.4850266929133857
20
-4.189466811023622
11
5.4850266929133857
21
-4.2119639763779526
0
LINE
8
BLACK
6
CONTINUOUS
10
5.4850266929133857
20
-4.2119639763779526
11
5.4812771653543306
21
-4.2194630314960628
0
LINE
8
BLACK
6
CONTINUOUS
10
5.4812771653543306
20
-4.2194630314960628
11
5.4775276377952755
21
-4.2232125984251967
0
LINE
8
BLACK
6
CONTINUOUS
10
5.4775276377952755
20
-4.2232125984251967
11
5.4700285826771653
21
-4.2269621259842518
0
LINE
8
BLACK
6
CONTINUOUS
10
5.4700285826771653
20
-4.2269621259842518
11
5.4550304330708661
21
-4.2269621259842518
0
LINE
8
BLACK
6
CONTINUOUS
10
5.4550304330708661
20
-4.2269621259842518
11
5.4475313779527559
21
-4.2232125984251967
0
LINE
8
BLACK
6
CONTINUOUS
10
5.5300210629921258
20
-4.2269621259842518
11
5.5225220078740156
21
-4.2232125984251967
0
LINE
8
BLACK
6
CONTINUOUS
10
5.5225220078740156
20
-4.2232125984251967
11
5.5187724803149605
21
-4.2157135039370077
0
LINE
8
BLACK
6
CONTINUOUS
10
5.5187724803149605
20
-4.2157135039370077
11
5.5187724803149605
21
-4.148221968503937
0
LINE
8
BLACK
6
CONTINUOUS
10
5.5937631102362202
20
-4.2269621259842518
11
5.5937631102362202
21
-4.1857172834645668
0
LINE
8
BLACK
6
CONTINUOUS
10
5.5937631102362202
20
-4.1857172834645668
11
5.5900135826771651
21
-4.1782181889763779
0
LINE
8
BLACK
6
CONTINUOUS
10
5.5900135826771651
20
-4.1782181889763779
11
5.5825145275590549
21
-4.1744686614173228
0
LINE
8
BLACK
6
CONTINUOUS
10
5.5825145275590549
20
-4.1744686614173228
11
5.5675163779527557
21
-4.1744686614173228
0
LINE
8
BLACK
6
CONTINUOUS
10
5.5675163779527557
20
-4.1744686614173228
11
5.5600173228346454
21
-4.1782181889763779
0
LINE
8
BLACK
6
CONTINUOUS
10
5.5937631102362202
20
-4.2232125984251967
11
5.58626405511811
21
-4.2269621259842518
0
LINE
8
BLACK
6
CONTINUOUS
10
5.58626405511811
20
-4.2269621259842518
11
5.5675163779527557
21
-4.2269621259842518
0
LINE
8
BLACK
6
CONTINUOUS
10
5.5675163779527557
20
-4.2269621259842518
11
5.5600173228346454
21
-4.2232125984251967
0
LINE
8
BLACK
6
CONTINUOUS
10
5.5600173228346454
20
-4.2232125984251967
11
5.5562677952755903
21
-4.2157135039370077
0
LINE
8
BLACK
6
CONTINUOUS
10
5.5562677952755903
20
-4.2157135039370077
11
5.5562677952755903
21
-4.2082144488188975
0
LINE
8
BLACK
6
CONTINUOUS
10
5.5562677952755903
20
-4.2082144488188975
11
5.5600173228346454
21
-4.2007153937007873
0
LINE
8
BLACK
6
CONTINUOUS
10
5.5600173228346454
20
-4.2007153937007873
11
5.5675163779527557
21
-4.1969658661417322
0
LINE
8
BLACK
6
CONTINUOUS
10
5.5675163779527557
20
-4.1969658661417322
11
5.58626405511811
21
-4.1969658661417322
0
LINE
8
BLACK
6
CONTINUOUS
10
5.58626405511811
20
-4.1969658661417322
11
5.5937631102362202
21
-4.1932163385826771
0
LINE
8
BLACK
6
CONTINUOUS
10
5.6200098425196847
20
-4.1744686614173228
11
5.6500060629921256
21
-4.1744686614173228
0
LINE
8
BLACK
6
CONTINUOUS
10
5.63125842519685
20
-4.148221968503937
11
5.63125842519685
21
-4.2157135039370077
0
LINE
8
BLACK
6
CONTINUOUS
10
5.63125842519685
20
-4.2157135039370077
11
5.6350079527559052
21
-4.2232125984251967
0
LINE
8
BLACK
6
CONTINUOUS
10
5.6350079527559052
20
-4.2232125984251967
11
5.6425070078740154
21
-4.2269621259842518
0
LINE
8
BLACK
6
CONTINUOUS
10
5.6425070078740154
20
-4.2269621259842518
11
5.6500060629921256
21
-4.2269621259842518
0
LINE
8
BLACK
6
CONTINUOUS
10
5.7062490551181098
20
-4.2232125984251967
11
5.6987499999999995
21
-4.2269621259842518
0
LINE
8
BLACK
6
CONTINUOUS
10
5.6987499999999995
20
-4.2269621259842518
11
5.6837518503937003
21
-4.2269621259842518
0
LINE
8
BLACK
6
CONTINUOUS
10
5.6837518503937003
20
-4.2269621259842518
11
5.6762527952755901
21
-4.2232125984251967
0
LINE
8
BLACK
6
CONTINUOUS
10
5.6762527952755901
20
-4.2232125984251967
11
5.672503267716535
21
-4.2157135039370077
0
LINE
8
BLACK
6
CONTINUOUS
10
5.672503267716535
20
-4.2157135039370077
11
5.672503267716535
21
-4.1857172834645668
0
LINE
8
BLACK
6
CONTINUOUS
10
5.672503267716535
20
-4.1857172834645668
11
5.6762527952755901
21
-4.1782181889763779
0
LINE
8
BLACK
6
CONTINUOUS
10
5.6762527952755901
20
-4.1782181889763779
11
5.6837518503937003
21
-4.1744686614173228
0
LINE
8
BLACK
6
CONTINUOUS
10
5.6837518503937003
20
-4.1744686614173228
11
5.6987499999999995
21
-4.1744686614173228
0
LINE
8
BLACK
6
CONTINUOUS
10
5.6987499999999995
20
-4.1744686614173228
11
5.7062490551181098
21
-4.1782181889763779
0
LINE
8
BLACK
6
CONTINUOUS
10
5.7062490551181098
20
-4.1782181889763779
11
5.7099985826771649
21
-4.1857172834645668
0
LINE
8
BLACK
6
CONTINUOUS
10
5.7099985826771649
20
-4.1857172834645668
11
5.7099985826771649
21
-4.1932163385826771
0
LINE
8
BLACK
6
CONTINUOUS
10
5.7099985826771649
20
-4.1932163385826771
11
5.672503267716535
21
-4.2007153937007873
0
LINE
8
BLACK
6
CONTINUOUS
10
5.7774901574803152
20
-4.2269621259842518
11
5.7774901574803152
21
-4.148221968503937
0
LINE
8
BLACK
6
CONTINUOUS
10
5.7774901574803152
20
-4.2232125984251967
11
5.769991102362205
21
-4.2269621259842518
0
LINE
8
BLACK
6
CONTINUOUS
10
5.769991102362205
20
-4.2269621259842518
11
5.7549929527559049
21
-4.2269621259842518
0
LINE
8
BLACK
6
CONTINUOUS
10
5.7549929527559049
20
-4.2269621259842518
11
5.7474938976377947
21
-4.2232125984251967
0
LINE
8
BLACK
6
CONTINUOUS
10
5.7474938976377947
20
-4.2232125984251967
11
5.7437443700787396
21
-4.2194630314960628
0
LINE
8
BLACK
6
CONTINUOUS
10
5.7437443700787396
20
-4.2194630314960628
11
5.7399948425196845
21
-4.2119639763779526
0
LINE
8
BLACK
6
CONTINUOUS
10
5.7399948425196845
20
-4.2119639763779526
11
5.7399948425196845
21
-4.189466811023622
0
LINE
8
BLACK
6
CONTINUOUS
10
5.7399948425196845
20
-4.189466811023622
11
5.7437443700787396
21
-4.181967716535433
0
LINE
8
BLACK
6
CONTINUOUS
10
5.7437443700787396
20
-4.181967716535433
11
5.7474938976377947
21
-4.1782181889763779
0
LINE
8
BLACK
6
CONTINUOUS
10
5.7474938976377947
20
-4.1782181889763779
11
5.7549929527559049
21
-4.1744686614173228
0
LINE
8
BLACK
6
CONTINUOUS
10
5.7549929527559049
20
-4.1744686614173228
11
5.769991102362205
21
-4.1744686614173228
0
LINE
8
BLACK
6
CONTINUOUS
10
5.769991102362205
20
-4.1744686614173228
11
5.7774901574803152
21
-4.1782181889763779
0
LINE
8
BLACK
6
CONTINUOUS
10
5.8074864173228349
20
-4.2569583464566927
11
5.81123594488189
21
-4.2532088188976376
0
LINE
8
BLACK
6
CONTINUOUS
10
5.81123594488189
20
-4.2532088188976376
11
5.8187350000000002
21
-4.2419602362204722
0
LINE
8
BLACK
6
CONTINUOUS
10
5.8187350000000002
20
-4.2419602362204722
11
5.8224845275590553
21
-4.234461181102362
0
LINE
8
BLACK
6
CONTINUOUS
10
5.8224845275590553
20
-4.234461181102362
11
5.8262340551181104
21
-4.2232125984251967
0
LINE
8
BLACK
6
CONTINUOUS
10
5.8262340551181104
20
-4.2232125984251967
11
5.8299835826771655
21
-4.2044649212598424
0
LINE
8
BLACK
6
CONTINUOUS
10
5.8299835826771655
20
-4.2044649212598424
11
5.8299835826771655
21
-4.189466811023622
0
LINE
8
BLACK
6
CONTINUOUS
10
5.8299835826771655
20
-4.189466811023622
11
5.8262340551181104
21
-4.1707191338582676
0
LINE
8
BLACK
6
CONTINUOUS
10
5.8262340551181104
20
-4.1707191338582676
11
5.8224845275590553
21
-4.1594705511811023
0
LINE
8
BLACK
6
CONTINUOUS
10
5.8224845275590553
20
-4.1594705511811023
11
5.8187350000000002
21
-4.1519714960629921
0
LINE
8
BLACK
6
CONTINUOUS
10
5.8187350000000002
20
-4.1519714960629921
11
5.81123594488189
21
-4.140722874015748
0
LINE
8
BLACK
6
CONTINUOUS
10
5.81123594488189
20
-4.140722874015748
11
5.8074864173228349
21
-4.1369733464566929
  0
ENDSEC
  0
EOF
