M48
; DRILL file {KiCad 7.0.10} date 西元2024年05月23日 (週四) 22時50分21秒
; FORMAT={-:-/ absolute / inch / decimal}
; #@! TF.CreationDate,2024-05-23T22:50:21+08:00
; #@! TF.GenerationSoftware,Kicad,Pcbnew,7.0.10
; #@! TF.FileFunction,Plated,1,2,PTH
FMAT,2
INCH
; #@! TA.AperFunction,Plated,PTH,ViaDrill
T1C0.0157
; #@! TA.AperFunction,Plated,PTH,ComponentDrill
T2C0.0276
; #@! TA.AperFunction,Plated,PTH,ComponentDrill
T3C0.0315
; #@! TA.AperFunction,Plated,PTH,ComponentDrill
T4C0.0354
; #@! TA.AperFunction,Plated,PTH,ComponentDrill
T5C0.0512
; #@! TA.AperFunction,Plated,PTH,ComponentDrill
T6C0.0591
; #@! TA.AperFunction,Plated,PTH,ComponentDrill
T7C0.0598
; #@! TA.AperFunction,Plated,PTH,ComponentDrill
T8C0.0669
%
G90
G05
T1
X4.4882Y-3.063
X4.4882Y-3.1339
X4.6425Y-3.2043
X5.7465Y-3.1177
X6.039Y-3.1146
T2
X4.0157Y-2.6772
X4.3157Y-2.6772
X4.5472Y-3.7205
X4.7441Y-2.1654
X4.7441Y-2.3228
X4.8472Y-3.7205
X4.9803Y-3.7205
X5.0441Y-2.1654
X5.0441Y-2.3228
X5.1772Y-2.1654
X5.1772Y-2.3228
X5.2803Y-3.7205
X5.4772Y-2.1654
X5.4772Y-2.3228
X5.5512Y-3.622
X5.5512Y-3.7795
X5.8512Y-3.622
X5.8512Y-3.7795
X5.9843Y-2.5197
X6.0433Y-3.4646
X6.2843Y-2.5197
X6.3433Y-3.4646
T3
X3.5433Y-3.622
X3.6417Y-3.622
X3.7402Y-3.3071
X3.8386Y-3.3071
X4.0157Y-2.4016
X4.1142Y-2.4016
X4.3307Y-2.3425
X4.4291Y-2.3425
X5.9567Y-2.6969
X5.9567Y-2.8937
X6.0551Y-2.6969
X6.0551Y-2.8937
X6.1811Y-2.6969
X6.1811Y-2.8937
X6.2795Y-2.6969
X6.2795Y-2.8937
X6.5079Y-2.5197
X6.5079Y-3.4646
X6.6063Y-2.5197
X6.6063Y-3.4646
T4
X5.689Y-2.185
X5.789Y-2.185
X5.9449Y-2.185
X6.0449Y-2.185
X6.2008Y-2.185
X6.3008Y-2.185
X6.4567Y-2.185
X6.5567Y-2.185
T5
X5.6102Y-2.7362
X5.7283Y-2.7362
T6
X6.9094Y-2.5197
X6.9094Y-3.3858
T7
X3.9339Y-3.7795
X4.1339Y-3.7795
X6.0992Y-3.7795
X6.2992Y-3.7795
T8
X6.8094Y-2.4197
X6.8094Y-2.6197
X6.8094Y-3.2858
X6.8094Y-3.4858
X7.0094Y-2.4197
X7.0094Y-2.6197
X7.0094Y-3.2858
X7.0094Y-3.4858
M30
