  0
SECTION
  2
HEADER
  9
$ANGBASE
  50
0.0
  9
$ANGDIR
  70
1
  9
$MEASUREMENT
  70
0
  0
ENDSEC
  0
SECTION
  2
TABLES
  0
TABLE
  2
LTYPE
  70
4
  0
LTYPE
  5
40F
  2
CONTINUOUS
  70
0
  3
Solid line
  72
65
  73
0
  40
0.0
  0
LTYPE
  5
410
  2
DASHDOT
 70
0
  3
Dash Dot ____ _ ____ _
 72
65
 73
4
 40
2.0
 49
1.25
 49
-0.25
 49
0.25
 49
-0.25
  0
LTYPE
  5
411
  2
DASHED
 70
0
  3
Dashed __ __ __ __ __
 72
65
 73
2
 40
0.75
 49
0.5
 49
-0.25
  0
LTYPE
  5
43B
  2
DOTTED
 70
0
  3
Dotted .  .  .  .
 72
65
 73
2
 40
0.2
 49
0.0
 49
-0.2
  0
ENDTAB
  0
TABLE
  2
STYLE
  70
4
  0
STYLE
  2
KICAD
  70
0
  40
0
  41
1
  42
1
  50
0
  71
0
  3
isocp.shx
  0
STYLE
  2
KICADB
  70
0
  40
0
  41
1
  42
1
  50
0
  71
0
  3
isocp.shx
  0
STYLE
  2
KICADI
  70
0
  40
0
  41
1
  42
1
  50
15
  71
0
  3
isocp.shx
  0
STYLE
  2
KICADBI
  70
0
  40
0
  41
1
  42
1
  50
15
  71
0
  3
isocp.shx
  0
ENDTAB
  0
TABLE
  2
LAYER
  70
1
  0
LAYER
  2
BLACK
  70
0
  62
7
  6
CONTINUOUS
  0
ENDTAB
  0
ENDSEC
  0
SECTION
  2
ENTITIES
0
LINE
8
BLACK
6
CONTINUOUS
10
2.5590551181102361
20
-1.7913385826771653
11
7.4803149606299213
21
-1.7913385826771653
0
LINE
8
BLACK
6
CONTINUOUS
10
7.4803149606299213
20
-1.7913385826771653
11
7.4803149606299213
21
-4.6259842519685037
0
LINE
8
BLACK
6
CONTINUOUS
10
7.4803149606299213
20
-4.6259842519685037
11
2.5590551181102361
21
-4.6259842519685037
0
LINE
8
BLACK
6
CONTINUOUS
10
2.5590551181102361
20
-4.6259842519685037
11
2.5590551181102361
21
-1.7913385826771653
0
LINE
8
BLACK
6
CONTINUOUS
10
2.6181102362204722
20
-1.8503937007874016
11
2.7440944881889764
21
-1.9763779527559056
0
LINE
8
BLACK
6
CONTINUOUS
10
2.7440944881889764
20
-1.8503937007874016
11
2.6181102362204722
21
-1.9763779527559056
0
LINE
8
BLACK
6
CONTINUOUS
10
2.6181102362204722
20
-4.4409448818897639
11
2.7440944881889764
21
-4.5669291338582676
0
LINE
8
BLACK
6
CONTINUOUS
10
2.7440944881889764
20
-4.4409448818897639
11
2.6181102362204722
21
-4.5669291338582676
0
LINE
8
BLACK
6
CONTINUOUS
10
7.2952755905511806
20
-1.8503937007874016
11
7.4212598425196852
21
-1.9763779527559056
0
LINE
8
BLACK
6
CONTINUOUS
10
7.4212598425196852
20
-1.8503937007874016
11
7.2952755905511806
21
-1.9763779527559056
0
LINE
8
BLACK
6
CONTINUOUS
10
7.2952755905511806
20
-4.4409448818897639
11
7.4212598425196852
21
-4.5669291338582676
0
LINE
8
BLACK
6
CONTINUOUS
10
7.4212598425196852
20
-4.4409448818897639
11
7.2952755905511806
21
-4.5669291338582676
0
LINE
8
BLACK
6
CONTINUOUS
10
2.6597546456692913
20
-4.7505841732283463
11
2.6597546456692913
21
-4.6718440157480314
0
LINE
8
BLACK
6
CONTINUOUS
10
2.6597546456692913
20
-4.6718440157480314
11
2.6785022834645669
21
-4.6718440157480314
0
LINE
8
BLACK
6
CONTINUOUS
10
2.6785022834645669
20
-4.6718440157480314
11
2.689750905511811
21
-4.6755935433070865
0
LINE
8
BLACK
6
CONTINUOUS
10
2.689750905511811
20
-4.6755935433070865
11
2.6972499606299212
21
-4.6830925984251968
0
LINE
8
BLACK
6
CONTINUOUS
10
2.6972499606299212
20
-4.6830925984251968
11
2.7009994881889763
21
-4.690591653543307
0
LINE
8
BLACK
6
CONTINUOUS
10
2.7009994881889763
20
-4.690591653543307
11
2.7047490157480314
21
-4.7055897637795274
0
LINE
8
BLACK
6
CONTINUOUS
10
2.7047490157480314
20
-4.7055897637795274
11
2.7047490157480314
21
-4.7168383858267715
0
LINE
8
BLACK
6
CONTINUOUS
10
2.7047490157480314
20
-4.7168383858267715
11
2.7009994881889763
21
-4.7318364960629919
0
LINE
8
BLACK
6
CONTINUOUS
10
2.7009994881889763
20
-4.7318364960629919
11
2.6972499606299212
21
-4.7393355511811022
0
LINE
8
BLACK
6
CONTINUOUS
10
2.6972499606299212
20
-4.7393355511811022
11
2.689750905511811
21
-4.7468346456692911
0
LINE
8
BLACK
6
CONTINUOUS
10
2.689750905511811
20
-4.7468346456692911
11
2.6785022834645669
21
-4.7505841732283463
0
LINE
8
BLACK
6
CONTINUOUS
10
2.6785022834645669
20
-4.7505841732283463
11
2.6597546456692913
21
-4.7505841732283463
0
LINE
8
BLACK
6
CONTINUOUS
10
2.7384948031496061
20
-4.7505841732283463
11
2.7384948031496061
21
-4.6980907086614172
0
LINE
8
BLACK
6
CONTINUOUS
10
2.7384948031496061
20
-4.7130888582677164
11
2.7422443307086612
21
-4.7055897637795274
0
LINE
8
BLACK
6
CONTINUOUS
10
2.7422443307086612
20
-4.7055897637795274
11
2.7459938582677164
21
-4.7018402362204723
0
LINE
8
BLACK
6
CONTINUOUS
10
2.7459938582677164
20
-4.7018402362204723
11
2.7534929133858266
21
-4.6980907086614172
0
LINE
8
BLACK
6
CONTINUOUS
10
2.7534929133858266
20
-4.6980907086614172
11
2.7609920078740156
21
-4.6980907086614172
0
LINE
8
BLACK
6
CONTINUOUS
10
2.7872387007874013
20
-4.7505841732283463
11
2.7872387007874013
21
-4.6980907086614172
0
LINE
8
BLACK
6
CONTINUOUS
10
2.7872387007874013
20
-4.6718440157480314
11
2.7834891732283462
21
-4.6755935433070865
0
LINE
8
BLACK
6
CONTINUOUS
10
2.7834891732283462
20
-4.6755935433070865
11
2.7872387007874013
21
-4.6793430708661417
0
LINE
8
BLACK
6
CONTINUOUS
10
2.7872387007874013
20
-4.6793430708661417
11
2.7909882283464564
21
-4.6755935433070865
0
LINE
8
BLACK
6
CONTINUOUS
10
2.7909882283464564
20
-4.6755935433070865
11
2.7872387007874013
21
-4.6718440157480314
0
LINE
8
BLACK
6
CONTINUOUS
10
2.7872387007874013
20
-4.6718440157480314
11
2.7872387007874013
21
-4.6793430708661417
0
LINE
8
BLACK
6
CONTINUOUS
10
2.835982598425197
20
-4.7505841732283463
11
2.8284835433070867
21
-4.7468346456692911
0
LINE
8
BLACK
6
CONTINUOUS
10
2.8284835433070867
20
-4.7468346456692911
11
2.8247340157480316
21
-4.7393355511811022
0
LINE
8
BLACK
6
CONTINUOUS
10
2.8247340157480316
20
-4.7393355511811022
11
2.8247340157480316
21
-4.6718440157480314
0
LINE
8
BLACK
6
CONTINUOUS
10
2.8772274409448819
20
-4.7505841732283463
11
2.8697283858267717
21
-4.7468346456692911
0
LINE
8
BLACK
6
CONTINUOUS
10
2.8697283858267717
20
-4.7468346456692911
11
2.8659788582677166
21
-4.7393355511811022
0
LINE
8
BLACK
6
CONTINUOUS
10
2.8659788582677166
20
-4.7393355511811022
11
2.8659788582677166
21
-4.6718440157480314
0
LINE
8
BLACK
6
CONTINUOUS
10
2.9672162204724408
20
-4.7505841732283463
11
2.9672162204724408
21
-4.6718440157480314
0
LINE
8
BLACK
6
CONTINUOUS
10
2.9672162204724408
20
-4.6718440157480314
11
2.9934629527559053
21
-4.7280869685039368
0
LINE
8
BLACK
6
CONTINUOUS
10
2.9934629527559053
20
-4.7280869685039368
11
3.0197096456692911
21
-4.6718440157480314
0
LINE
8
BLACK
6
CONTINUOUS
10
3.0197096456692911
20
-4.6718440157480314
11
3.0197096456692911
21
-4.7505841732283463
0
LINE
8
BLACK
6
CONTINUOUS
10
3.0909507480314962
20
-4.7505841732283463
11
3.0909507480314962
21
-4.7093393307086613
0
LINE
8
BLACK
6
CONTINUOUS
10
3.0909507480314962
20
-4.7093393307086613
11
3.0872012204724411
21
-4.7018402362204723
0
LINE
8
BLACK
6
CONTINUOUS
10
3.0872012204724411
20
-4.7018402362204723
11
3.0797021653543308
21
-4.6980907086614172
0
LINE
8
BLACK
6
CONTINUOUS
10
3.0797021653543308
20
-4.6980907086614172
11
3.0647040157480316
21
-4.6980907086614172
0
LINE
8
BLACK
6
CONTINUOUS
10
3.0647040157480316
20
-4.6980907086614172
11
3.057204960629921
21
-4.7018402362204723
0
LINE
8
BLACK
6
CONTINUOUS
10
3.0909507480314962
20
-4.7468346456692911
11
3.0834516929133859
21
-4.7505841732283463
0
LINE
8
BLACK
6
CONTINUOUS
10
3.0834516929133859
20
-4.7505841732283463
11
3.0647040157480316
21
-4.7505841732283463
0
LINE
8
BLACK
6
CONTINUOUS
10
3.0647040157480316
20
-4.7505841732283463
11
3.057204960629921
21
-4.7468346456692911
0
LINE
8
BLACK
6
CONTINUOUS
10
3.057204960629921
20
-4.7468346456692911
11
3.0534554330708659
21
-4.7393355511811022
0
LINE
8
BLACK
6
CONTINUOUS
10
3.0534554330708659
20
-4.7393355511811022
11
3.0534554330708659
21
-4.7318364960629919
0
LINE
8
BLACK
6
CONTINUOUS
10
3.0534554330708659
20
-4.7318364960629919
11
3.057204960629921
21
-4.7243374409448817
0
LINE
8
BLACK
6
CONTINUOUS
10
3.057204960629921
20
-4.7243374409448817
11
3.0647040157480316
21
-4.7205879133858266
0
LINE
8
BLACK
6
CONTINUOUS
10
3.0647040157480316
20
-4.7205879133858266
11
3.0834516929133859
21
-4.7205879133858266
0
LINE
8
BLACK
6
CONTINUOUS
10
3.0834516929133859
20
-4.7205879133858266
11
3.0909507480314962
21
-4.7168383858267715
0
LINE
8
BLACK
6
CONTINUOUS
10
3.128446062992126
20
-4.6980907086614172
11
3.128446062992126
21
-4.776830866141732
0
LINE
8
BLACK
6
CONTINUOUS
10
3.128446062992126
20
-4.7018402362204723
11
3.1359451181102362
21
-4.6980907086614172
0
LINE
8
BLACK
6
CONTINUOUS
10
3.1359451181102362
20
-4.6980907086614172
11
3.1509432677165354
21
-4.6980907086614172
0
LINE
8
BLACK
6
CONTINUOUS
10
3.1509432677165354
20
-4.6980907086614172
11
3.1584423228346457
21
-4.7018402362204723
0
LINE
8
BLACK
6
CONTINUOUS
10
3.1584423228346457
20
-4.7018402362204723
11
3.1621918503937008
21
-4.7055897637795274
0
LINE
8
BLACK
6
CONTINUOUS
10
3.1621918503937008
20
-4.7055897637795274
11
3.1659413779527559
21
-4.7130888582677164
0
LINE
8
BLACK
6
CONTINUOUS
10
3.1659413779527559
20
-4.7130888582677164
11
3.1659413779527559
21
-4.7355860236220471
0
LINE
8
BLACK
6
CONTINUOUS
10
3.1659413779527559
20
-4.7355860236220471
11
3.1621918503937008
21
-4.7430850787401573
0
LINE
8
BLACK
6
CONTINUOUS
10
3.1621918503937008
20
-4.7430850787401573
11
3.1584423228346457
21
-4.7468346456692911
0
LINE
8
BLACK
6
CONTINUOUS
10
3.1584423228346457
20
-4.7468346456692911
11
3.1509432677165354
21
-4.7505841732283463
0
LINE
8
BLACK
6
CONTINUOUS
10
3.1509432677165354
20
-4.7505841732283463
11
3.1359451181102362
21
-4.7505841732283463
0
LINE
8
BLACK
6
CONTINUOUS
10
3.1359451181102362
20
-4.7505841732283463
11
3.128446062992126
21
-4.7468346456692911
0
LINE
8
BLACK
6
CONTINUOUS
10
3.1996871653543306
20
-4.7430850787401573
11
3.2034366929133857
21
-4.7468346456692911
0
LINE
8
BLACK
6
CONTINUOUS
10
3.2034366929133857
20
-4.7468346456692911
11
3.1996871653543306
21
-4.7505841732283463
0
LINE
8
BLACK
6
CONTINUOUS
10
3.1996871653543306
20
-4.7505841732283463
11
3.1959376377952755
21
-4.7468346456692911
0
LINE
8
BLACK
6
CONTINUOUS
10
3.1959376377952755
20
-4.7468346456692911
11
3.1996871653543306
21
-4.7430850787401573
0
LINE
8
BLACK
6
CONTINUOUS
10
3.1996871653543306
20
-4.7430850787401573
11
3.1996871653543306
21
-4.7505841732283463
0
LINE
8
BLACK
6
CONTINUOUS
10
3.1996871653543306
20
-4.7018402362204723
11
3.2034366929133857
21
-4.7055897637795274
0
LINE
8
BLACK
6
CONTINUOUS
10
3.2034366929133857
20
-4.7055897637795274
11
3.1996871653543306
21
-4.7093393307086613
0
LINE
8
BLACK
6
CONTINUOUS
10
3.1996871653543306
20
-4.7093393307086613
11
3.1959376377952755
21
-4.7055897637795274
0
LINE
8
BLACK
6
CONTINUOUS
10
3.1959376377952755
20
-4.7055897637795274
11
3.1996871653543306
21
-4.7018402362204723
0
LINE
8
BLACK
6
CONTINUOUS
10
3.1996871653543306
20
-4.7018402362204723
11
3.1996871653543306
21
-4.7093393307086613
0
LINE
8
BLACK
6
CONTINUOUS
10
2.4783464566929134
20
-4.840551181102362
11
2.5570866141732282
21
-4.9192913385826769
0
LINE
8
BLACK
6
CONTINUOUS
10
2.5570866141732282
20
-4.840551181102362
11
2.4783464566929134
21
-4.9192913385826769
0
LINE
8
BLACK
6
CONTINUOUS
10
2.6522555905511811
20
-4.8371983464566926
11
2.7009994881889763
21
-4.8371983464566926
0
LINE
8
BLACK
6
CONTINUOUS
10
2.7009994881889763
20
-4.8371983464566926
11
2.6747527559055118
21
-4.8671945669291334
0
LINE
8
BLACK
6
CONTINUOUS
10
2.6747527559055118
20
-4.8671945669291334
11
2.6860013779527558
21
-4.8671945669291334
0
LINE
8
BLACK
6
CONTINUOUS
10
2.6860013779527558
20
-4.8671945669291334
11
2.6935004330708661
21
-4.8709440944881885
0
LINE
8
BLACK
6
CONTINUOUS
10
2.6935004330708661
20
-4.8709440944881885
11
2.6972499606299212
21
-4.8746936614173224
0
LINE
8
BLACK
6
CONTINUOUS
10
2.6972499606299212
20
-4.8746936614173224
11
2.7009994881889763
21
-4.8821927165354326
0
LINE
8
BLACK
6
CONTINUOUS
10
2.7009994881889763
20
-4.8821927165354326
11
2.7009994881889763
21
-4.9009403543307082
0
LINE
8
BLACK
6
CONTINUOUS
10
2.7009994881889763
20
-4.9009403543307082
11
2.6972499606299212
21
-4.9084394094488184
0
LINE
8
BLACK
6
CONTINUOUS
10
2.6972499606299212
20
-4.9084394094488184
11
2.6935004330708661
21
-4.9121889763779523
0
LINE
8
BLACK
6
CONTINUOUS
10
2.6935004330708661
20
-4.9121889763779523
11
2.6860013779527558
21
-4.9159385039370074
0
LINE
8
BLACK
6
CONTINUOUS
10
2.6860013779527558
20
-4.9159385039370074
11
2.6635041732283464
21
-4.9159385039370074
0
LINE
8
BLACK
6
CONTINUOUS
10
2.6635041732283464
20
-4.9159385039370074
11
2.6560051181102362
21
-4.9121889763779523
0
LINE
8
BLACK
6
CONTINUOUS
10
2.6560051181102362
20
-4.9121889763779523
11
2.6522555905511811
21
-4.9084394094488184
0
LINE
8
BLACK
6
CONTINUOUS
10
2.734745275590551
20
-4.9084394094488184
11
2.7384948031496061
21
-4.9121889763779523
0
LINE
8
BLACK
6
CONTINUOUS
10
2.7384948031496061
20
-4.9121889763779523
11
2.734745275590551
21
-4.9159385039370074
0
LINE
8
BLACK
6
CONTINUOUS
10
2.734745275590551
20
-4.9159385039370074
11
2.7309957480314959
21
-4.9121889763779523
0
LINE
8
BLACK
6
CONTINUOUS
10
2.7309957480314959
20
-4.9121889763779523
11
2.734745275590551
21
-4.9084394094488184
0
LINE
8
BLACK
6
CONTINUOUS
10
2.734745275590551
20
-4.9084394094488184
11
2.734745275590551
21
-4.9159385039370074
0
LINE
8
BLACK
6
CONTINUOUS
10
2.7684910629921258
20
-4.8446974015748028
11
2.7722405905511809
21
-4.8409478740157477
0
LINE
8
BLACK
6
CONTINUOUS
10
2.7722405905511809
20
-4.8409478740157477
11
2.7797396456692911
21
-4.8371983464566926
0
LINE
8
BLACK
6
CONTINUOUS
10
2.7797396456692911
20
-4.8371983464566926
11
2.7984873228346454
21
-4.8371983464566926
0
LINE
8
BLACK
6
CONTINUOUS
10
2.7984873228346454
20
-4.8371983464566926
11
2.8059863779527556
21
-4.8409478740157477
0
LINE
8
BLACK
6
CONTINUOUS
10
2.8059863779527556
20
-4.8409478740157477
11
2.8097359055118107
21
-4.8446974015748028
0
LINE
8
BLACK
6
CONTINUOUS
10
2.8097359055118107
20
-4.8446974015748028
11
2.8134854330708663
21
-4.852196456692913
0
LINE
8
BLACK
6
CONTINUOUS
10
2.8134854330708663
20
-4.852196456692913
11
2.8134854330708663
21
-4.8596955118110232
0
LINE
8
BLACK
6
CONTINUOUS
10
2.8134854330708663
20
-4.8596955118110232
11
2.8097359055118107
21
-4.8709440944881885
0
LINE
8
BLACK
6
CONTINUOUS
10
2.8097359055118107
20
-4.8709440944881885
11
2.7647415354330707
21
-4.9159385039370074
0
LINE
8
BLACK
6
CONTINUOUS
10
2.7647415354330707
20
-4.9159385039370074
11
2.8134854330708663
21
-4.9159385039370074
0
LINE
8
BLACK
6
CONTINUOUS
10
2.8622293307086615
20
-4.8371983464566926
11
2.8697284251968505
21
-4.8371983464566926
0
LINE
8
BLACK
6
CONTINUOUS
10
2.8697284251968505
20
-4.8371983464566926
11
2.8772274803149607
21
-4.8409478740157477
0
LINE
8
BLACK
6
CONTINUOUS
10
2.8772274803149607
20
-4.8409478740157477
11
2.8809770078740158
21
-4.8446974015748028
0
LINE
8
BLACK
6
CONTINUOUS
10
2.8809770078740158
20
-4.8446974015748028
11
2.8847265354330709
21
-4.852196456692913
0
LINE
8
BLACK
6
CONTINUOUS
10
2.8847265354330709
20
-4.852196456692913
11
2.888476062992126
21
-4.8671945669291334
0
LINE
8
BLACK
6
CONTINUOUS
10
2.888476062992126
20
-4.8671945669291334
11
2.888476062992126
21
-4.8859422440944877
0
LINE
8
BLACK
6
CONTINUOUS
10
2.888476062992126
20
-4.8859422440944877
11
2.8847265354330709
21
-4.9009403543307082
0
LINE
8
BLACK
6
CONTINUOUS
10
2.8847265354330709
20
-4.9009403543307082
11
2.8809770078740158
21
-4.9084394094488184
0
LINE
8
BLACK
6
CONTINUOUS
10
2.8809770078740158
20
-4.9084394094488184
11
2.8772274803149607
21
-4.9121889763779523
0
LINE
8
BLACK
6
CONTINUOUS
10
2.8772274803149607
20
-4.9121889763779523
11
2.8697284251968505
21
-4.9159385039370074
0
LINE
8
BLACK
6
CONTINUOUS
10
2.8697284251968505
20
-4.9159385039370074
11
2.8622293307086615
21
-4.9159385039370074
0
LINE
8
BLACK
6
CONTINUOUS
10
2.8622293307086615
20
-4.9159385039370074
11
2.8547302755905513
21
-4.9121889763779523
0
LINE
8
BLACK
6
CONTINUOUS
10
2.8547302755905513
20
-4.9121889763779523
11
2.8509807480314961
21
-4.9084394094488184
0
LINE
8
BLACK
6
CONTINUOUS
10
2.8509807480314961
20
-4.9084394094488184
11
2.847231220472441
21
-4.9009403543307082
0
LINE
8
BLACK
6
CONTINUOUS
10
2.847231220472441
20
-4.9009403543307082
11
2.8434816929133859
21
-4.8859422440944877
0
LINE
8
BLACK
6
CONTINUOUS
10
2.8434816929133859
20
-4.8859422440944877
11
2.8434816929133859
21
-4.8671945669291334
0
LINE
8
BLACK
6
CONTINUOUS
10
2.8434816929133859
20
-4.8671945669291334
11
2.847231220472441
21
-4.852196456692913
0
LINE
8
BLACK
6
CONTINUOUS
10
2.847231220472441
20
-4.852196456692913
11
2.8509807480314961
21
-4.8446974015748028
0
LINE
8
BLACK
6
CONTINUOUS
10
2.8509807480314961
20
-4.8446974015748028
11
2.8547302755905513
21
-4.8409478740157477
0
LINE
8
BLACK
6
CONTINUOUS
10
2.8547302755905513
20
-4.8409478740157477
11
2.8622293307086615
21
-4.8371983464566926
0
LINE
8
BLACK
6
CONTINUOUS
10
2.9372199606299212
20
-4.8371983464566926
11
2.9447190551181102
21
-4.8371983464566926
0
LINE
8
BLACK
6
CONTINUOUS
10
2.9447190551181102
20
-4.8371983464566926
11
2.9522181102362204
21
-4.8409478740157477
0
LINE
8
BLACK
6
CONTINUOUS
10
2.9522181102362204
20
-4.8409478740157477
11
2.9559676377952755
21
-4.8446974015748028
0
LINE
8
BLACK
6
CONTINUOUS
10
2.9559676377952755
20
-4.8446974015748028
11
2.9597171653543306
21
-4.852196456692913
0
LINE
8
BLACK
6
CONTINUOUS
10
2.9597171653543306
20
-4.852196456692913
11
2.9634666929133857
21
-4.8671945669291334
0
LINE
8
BLACK
6
CONTINUOUS
10
2.9634666929133857
20
-4.8671945669291334
11
2.9634666929133857
21
-4.8859422440944877
0
LINE
8
BLACK
6
CONTINUOUS
10
2.9634666929133857
20
-4.8859422440944877
11
2.9597171653543306
21
-4.9009403543307082
0
LINE
8
BLACK
6
CONTINUOUS
10
2.9597171653543306
20
-4.9009403543307082
11
2.9559676377952755
21
-4.9084394094488184
0
LINE
8
BLACK
6
CONTINUOUS
10
2.9559676377952755
20
-4.9084394094488184
11
2.9522181102362204
21
-4.9121889763779523
0
LINE
8
BLACK
6
CONTINUOUS
10
2.9522181102362204
20
-4.9121889763779523
11
2.9447190551181102
21
-4.9159385039370074
0
LINE
8
BLACK
6
CONTINUOUS
10
2.9447190551181102
20
-4.9159385039370074
11
2.9372199606299212
21
-4.9159385039370074
0
LINE
8
BLACK
6
CONTINUOUS
10
2.9372199606299212
20
-4.9159385039370074
11
2.929720905511811
21
-4.9121889763779523
0
LINE
8
BLACK
6
CONTINUOUS
10
2.929720905511811
20
-4.9121889763779523
11
2.9259713779527559
21
-4.9084394094488184
0
LINE
8
BLACK
6
CONTINUOUS
10
2.9259713779527559
20
-4.9084394094488184
11
2.9222218503937007
21
-4.9009403543307082
0
LINE
8
BLACK
6
CONTINUOUS
10
2.9222218503937007
20
-4.9009403543307082
11
2.9184723228346456
21
-4.8859422440944877
0
LINE
8
BLACK
6
CONTINUOUS
10
2.9184723228346456
20
-4.8859422440944877
11
2.9184723228346456
21
-4.8671945669291334
0
LINE
8
BLACK
6
CONTINUOUS
10
2.9184723228346456
20
-4.8671945669291334
11
2.9222218503937007
21
-4.852196456692913
0
LINE
8
BLACK
6
CONTINUOUS
10
2.9222218503937007
20
-4.852196456692913
11
2.9259713779527559
21
-4.8446974015748028
0
LINE
8
BLACK
6
CONTINUOUS
10
2.9259713779527559
20
-4.8446974015748028
11
2.929720905511811
21
-4.8409478740157477
0
LINE
8
BLACK
6
CONTINUOUS
10
2.929720905511811
20
-4.8409478740157477
11
2.9372199606299212
21
-4.8371983464566926
0
LINE
8
BLACK
6
CONTINUOUS
10
2.9972124803149605
20
-4.9159385039370074
11
2.9972124803149605
21
-4.8634450393700783
0
LINE
8
BLACK
6
CONTINUOUS
10
2.9972124803149605
20
-4.8709440944881885
11
3.0009620078740156
21
-4.8671945669291334
0
LINE
8
BLACK
6
CONTINUOUS
10
3.0009620078740156
20
-4.8671945669291334
11
3.0084610629921258
21
-4.8634450393700783
0
LINE
8
BLACK
6
CONTINUOUS
10
3.0084610629921258
20
-4.8634450393700783
11
3.0197096850393699
21
-4.8634450393700783
0
LINE
8
BLACK
6
CONTINUOUS
10
3.0197096850393699
20
-4.8634450393700783
11
3.0272087401574801
21
-4.8671945669291334
0
LINE
8
BLACK
6
CONTINUOUS
10
3.0272087401574801
20
-4.8671945669291334
11
3.0309582677165352
21
-4.8746936614173224
0
LINE
8
BLACK
6
CONTINUOUS
10
3.0309582677165352
20
-4.8746936614173224
11
3.0309582677165352
21
-4.9159385039370074
0
LINE
8
BLACK
6
CONTINUOUS
10
3.0309582677165352
20
-4.8746936614173224
11
3.0347077952755903
21
-4.8671945669291334
0
LINE
8
BLACK
6
CONTINUOUS
10
3.0347077952755903
20
-4.8671945669291334
11
3.0422068503937005
21
-4.8634450393700783
0
LINE
8
BLACK
6
CONTINUOUS
10
3.0422068503937005
20
-4.8634450393700783
11
3.0534554330708659
21
-4.8634450393700783
0
LINE
8
BLACK
6
CONTINUOUS
10
3.0534554330708659
20
-4.8634450393700783
11
3.0609545275590548
21
-4.8671945669291334
0
LINE
8
BLACK
6
CONTINUOUS
10
3.0609545275590548
20
-4.8671945669291334
11
3.0647040551181099
21
-4.8746936614173224
0
LINE
8
BLACK
6
CONTINUOUS
10
3.0647040551181099
20
-4.8746936614173224
11
3.0647040551181099
21
-4.9159385039370074
0
LINE
8
BLACK
6
CONTINUOUS
10
3.1021993700787402
20
-4.9159385039370074
11
3.1021993700787402
21
-4.8634450393700783
0
LINE
8
BLACK
6
CONTINUOUS
10
3.1021993700787402
20
-4.8709440944881885
11
3.1059488976377954
21
-4.8671945669291334
0
LINE
8
BLACK
6
CONTINUOUS
10
3.1059488976377954
20
-4.8671945669291334
11
3.1134479527559056
21
-4.8634450393700783
0
LINE
8
BLACK
6
CONTINUOUS
10
3.1134479527559056
20
-4.8634450393700783
11
3.1246965748031497
21
-4.8634450393700783
0
LINE
8
BLACK
6
CONTINUOUS
10
3.1246965748031497
20
-4.8634450393700783
11
3.1321956299212599
21
-4.8671945669291334
0
LINE
8
BLACK
6
CONTINUOUS
10
3.1321956299212599
20
-4.8671945669291334
11
3.135945157480315
21
-4.8746936614173224
0
LINE
8
BLACK
6
CONTINUOUS
10
3.135945157480315
20
-4.8746936614173224
11
3.135945157480315
21
-4.9159385039370074
0
LINE
8
BLACK
6
CONTINUOUS
10
3.135945157480315
20
-4.8746936614173224
11
3.1396946850393701
21
-4.8671945669291334
0
LINE
8
BLACK
6
CONTINUOUS
10
3.1396946850393701
20
-4.8671945669291334
11
3.1471937401574803
21
-4.8634450393700783
0
LINE
8
BLACK
6
CONTINUOUS
10
3.1471937401574803
20
-4.8634450393700783
11
3.1584423228346457
21
-4.8634450393700783
0
LINE
8
BLACK
6
CONTINUOUS
10
3.1584423228346457
20
-4.8634450393700783
11
3.1659414173228346
21
-4.8671945669291334
0
LINE
8
BLACK
6
CONTINUOUS
10
3.1659414173228346
20
-4.8671945669291334
11
3.1696909448818897
21
-4.8746936614173224
0
LINE
8
BLACK
6
CONTINUOUS
10
3.1696909448818897
20
-4.8746936614173224
11
3.1696909448818897
21
-4.9159385039370074
0
LINE
8
BLACK
6
CONTINUOUS
10
3.3234217322834643
20
-4.8334488188976374
11
3.2559301968503935
21
-4.9346861417322829
0
LINE
8
BLACK
6
CONTINUOUS
10
3.4246590944881889
20
-4.8371983464566926
11
3.4321581889763779
21
-4.8371983464566926
0
LINE
8
BLACK
6
CONTINUOUS
10
3.4321581889763779
20
-4.8371983464566926
11
3.4396572440944881
21
-4.8409478740157477
0
LINE
8
BLACK
6
CONTINUOUS
10
3.4396572440944881
20
-4.8409478740157477
11
3.4434067716535433
21
-4.8446974015748028
0
LINE
8
BLACK
6
CONTINUOUS
10
3.4434067716535433
20
-4.8446974015748028
11
3.4471562992125984
21
-4.852196456692913
0
LINE
8
BLACK
6
CONTINUOUS
10
3.4471562992125984
20
-4.852196456692913
11
3.4509058267716535
21
-4.8671945669291334
0
LINE
8
BLACK
6
CONTINUOUS
10
3.4509058267716535
20
-4.8671945669291334
11
3.4509058267716535
21
-4.8859422440944877
0
LINE
8
BLACK
6
CONTINUOUS
10
3.4509058267716535
20
-4.8859422440944877
11
3.4471562992125984
21
-4.9009403543307082
0
LINE
8
BLACK
6
CONTINUOUS
10
3.4471562992125984
20
-4.9009403543307082
11
3.4434067716535433
21
-4.9084394094488184
0
LINE
8
BLACK
6
CONTINUOUS
10
3.4434067716535433
20
-4.9084394094488184
11
3.4396572440944881
21
-4.9121889763779523
0
LINE
8
BLACK
6
CONTINUOUS
10
3.4396572440944881
20
-4.9121889763779523
11
3.4321581889763779
21
-4.9159385039370074
0
LINE
8
BLACK
6
CONTINUOUS
10
3.4321581889763779
20
-4.9159385039370074
11
3.4246590944881889
21
-4.9159385039370074
0
LINE
8
BLACK
6
CONTINUOUS
10
3.4246590944881889
20
-4.9159385039370074
11
3.4171600393700787
21
-4.9121889763779523
0
LINE
8
BLACK
6
CONTINUOUS
10
3.4171600393700787
20
-4.9121889763779523
11
3.4134105118110236
21
-4.9084394094488184
0
LINE
8
BLACK
6
CONTINUOUS
10
3.4134105118110236
20
-4.9084394094488184
11
3.4096609842519685
21
-4.9009403543307082
0
LINE
8
BLACK
6
CONTINUOUS
10
3.4096609842519685
20
-4.9009403543307082
11
3.4059114566929134
21
-4.8859422440944877
0
LINE
8
BLACK
6
CONTINUOUS
10
3.4059114566929134
20
-4.8859422440944877
11
3.4059114566929134
21
-4.8671945669291334
0
LINE
8
BLACK
6
CONTINUOUS
10
3.4059114566929134
20
-4.8671945669291334
11
3.4096609842519685
21
-4.852196456692913
0
LINE
8
BLACK
6
CONTINUOUS
10
3.4096609842519685
20
-4.852196456692913
11
3.4134105118110236
21
-4.8446974015748028
0
LINE
8
BLACK
6
CONTINUOUS
10
3.4134105118110236
20
-4.8446974015748028
11
3.4171600393700787
21
-4.8409478740157477
0
LINE
8
BLACK
6
CONTINUOUS
10
3.4171600393700787
20
-4.8409478740157477
11
3.4246590944881889
21
-4.8371983464566926
0
LINE
8
BLACK
6
CONTINUOUS
10
3.4846516141732282
20
-4.9084394094488184
11
3.4884011417322833
21
-4.9121889763779523
0
LINE
8
BLACK
6
CONTINUOUS
10
3.4884011417322833
20
-4.9121889763779523
11
3.4846516141732282
21
-4.9159385039370074
0
LINE
8
BLACK
6
CONTINUOUS
10
3.4846516141732282
20
-4.9159385039370074
11
3.4809020866141731
21
-4.9121889763779523
0
LINE
8
BLACK
6
CONTINUOUS
10
3.4809020866141731
20
-4.9121889763779523
11
3.4846516141732282
21
-4.9084394094488184
0
LINE
8
BLACK
6
CONTINUOUS
10
3.4846516141732282
20
-4.9084394094488184
11
3.4846516141732282
21
-4.9159385039370074
0
LINE
8
BLACK
6
CONTINUOUS
10
3.563391771653543
20
-4.9159385039370074
11
3.518397401574803
21
-4.9159385039370074
0
LINE
8
BLACK
6
CONTINUOUS
10
3.5408945669291336
20
-4.9159385039370074
11
3.5408945669291336
21
-4.8371983464566926
0
LINE
8
BLACK
6
CONTINUOUS
10
3.5408945669291336
20
-4.8371983464566926
11
3.5333955118110234
21
-4.8484469291338579
0
LINE
8
BLACK
6
CONTINUOUS
10
3.5333955118110234
20
-4.8484469291338579
11
3.5258964566929132
21
-4.8559459842519681
0
LINE
8
BLACK
6
CONTINUOUS
10
3.5258964566929132
20
-4.8559459842519681
11
3.518397401574803
21
-4.8596955118110232
0
LINE
8
BLACK
6
CONTINUOUS
10
3.5933880314960631
20
-4.8446974015748028
11
3.5971375590551182
21
-4.8409478740157477
0
LINE
8
BLACK
6
CONTINUOUS
10
3.5971375590551182
20
-4.8409478740157477
11
3.6046366141732284
21
-4.8371983464566926
0
LINE
8
BLACK
6
CONTINUOUS
10
3.6046366141732284
20
-4.8371983464566926
11
3.6233842913385828
21
-4.8371983464566926
0
LINE
8
BLACK
6
CONTINUOUS
10
3.6233842913385828
20
-4.8371983464566926
11
3.630883346456693
21
-4.8409478740157477
0
LINE
8
BLACK
6
CONTINUOUS
10
3.630883346456693
20
-4.8409478740157477
11
3.6346328740157481
21
-4.8446974015748028
0
LINE
8
BLACK
6
CONTINUOUS
10
3.6346328740157481
20
-4.8446974015748028
11
3.6383824015748032
21
-4.852196456692913
0
LINE
8
BLACK
6
CONTINUOUS
10
3.6383824015748032
20
-4.852196456692913
11
3.6383824015748032
21
-4.8596955118110232
0
LINE
8
BLACK
6
CONTINUOUS
10
3.6383824015748032
20
-4.8596955118110232
11
3.6346328740157481
21
-4.8709440944881885
0
LINE
8
BLACK
6
CONTINUOUS
10
3.6346328740157481
20
-4.8709440944881885
11
3.589638503937008
21
-4.9159385039370074
0
LINE
8
BLACK
6
CONTINUOUS
10
3.589638503937008
20
-4.9159385039370074
11
3.6383824015748032
21
-4.9159385039370074
0
LINE
8
BLACK
6
CONTINUOUS
10
3.7058739763779527
20
-4.8371983464566926
11
3.6908758267716535
21
-4.8371983464566926
0
LINE
8
BLACK
6
CONTINUOUS
10
3.6908758267716535
20
-4.8371983464566926
11
3.6833767716535433
21
-4.8409478740157477
0
LINE
8
BLACK
6
CONTINUOUS
10
3.6833767716535433
20
-4.8409478740157477
11
3.6796272440944882
21
-4.8446974015748028
0
LINE
8
BLACK
6
CONTINUOUS
10
3.6796272440944882
20
-4.8446974015748028
11
3.6721281889763779
21
-4.8559459842519681
0
LINE
8
BLACK
6
CONTINUOUS
10
3.6721281889763779
20
-4.8559459842519681
11
3.6683786614173228
21
-4.8709440944881885
0
LINE
8
BLACK
6
CONTINUOUS
10
3.6683786614173228
20
-4.8709440944881885
11
3.6683786614173228
21
-4.9009403543307082
0
LINE
8
BLACK
6
CONTINUOUS
10
3.6683786614173228
20
-4.9009403543307082
11
3.6721281889763779
21
-4.9084394094488184
0
LINE
8
BLACK
6
CONTINUOUS
10
3.6721281889763779
20
-4.9084394094488184
11
3.675877716535433
21
-4.9121889763779523
0
LINE
8
BLACK
6
CONTINUOUS
10
3.675877716535433
20
-4.9121889763779523
11
3.6833767716535433
21
-4.9159385039370074
0
LINE
8
BLACK
6
CONTINUOUS
10
3.6833767716535433
20
-4.9159385039370074
11
3.6983749212598425
21
-4.9159385039370074
0
LINE
8
BLACK
6
CONTINUOUS
10
3.6983749212598425
20
-4.9159385039370074
11
3.7058739763779527
21
-4.9121889763779523
0
LINE
8
BLACK
6
CONTINUOUS
10
3.7058739763779527
20
-4.9121889763779523
11
3.7096235039370078
21
-4.9084394094488184
0
LINE
8
BLACK
6
CONTINUOUS
10
3.7096235039370078
20
-4.9084394094488184
11
3.7133730314960629
21
-4.9009403543307082
0
LINE
8
BLACK
6
CONTINUOUS
10
3.7133730314960629
20
-4.9009403543307082
11
3.7133730314960629
21
-4.8821927165354326
0
LINE
8
BLACK
6
CONTINUOUS
10
3.7133730314960629
20
-4.8821927165354326
11
3.7096235039370078
21
-4.8746936614173224
0
LINE
8
BLACK
6
CONTINUOUS
10
3.7096235039370078
20
-4.8746936614173224
11
3.7058739763779527
21
-4.8709440944881885
0
LINE
8
BLACK
6
CONTINUOUS
10
3.7058739763779527
20
-4.8709440944881885
11
3.6983749212598425
21
-4.8671945669291334
0
LINE
8
BLACK
6
CONTINUOUS
10
3.6983749212598425
20
-4.8671945669291334
11
3.6833767716535433
21
-4.8671945669291334
0
LINE
8
BLACK
6
CONTINUOUS
10
3.6833767716535433
20
-4.8671945669291334
11
3.675877716535433
21
-4.8709440944881885
0
LINE
8
BLACK
6
CONTINUOUS
10
3.675877716535433
20
-4.8709440944881885
11
3.6721281889763779
21
-4.8746936614173224
0
LINE
8
BLACK
6
CONTINUOUS
10
3.6721281889763779
20
-4.8746936614173224
11
3.6683786614173228
21
-4.8821927165354326
0
LINE
8
BLACK
6
CONTINUOUS
10
3.7621169291338581
20
-4.8371983464566926
11
3.7696160236220471
21
-4.8371983464566926
0
LINE
8
BLACK
6
CONTINUOUS
10
3.7696160236220471
20
-4.8371983464566926
11
3.7771150787401573
21
-4.8409478740157477
0
LINE
8
BLACK
6
CONTINUOUS
10
3.7771150787401573
20
-4.8409478740157477
11
3.7808646062992124
21
-4.8446974015748028
0
LINE
8
BLACK
6
CONTINUOUS
10
3.7808646062992124
20
-4.8446974015748028
11
3.7846141338582675
21
-4.852196456692913
0
LINE
8
BLACK
6
CONTINUOUS
10
3.7846141338582675
20
-4.852196456692913
11
3.7883636614173226
21
-4.8671945669291334
0
LINE
8
BLACK
6
CONTINUOUS
10
3.7883636614173226
20
-4.8671945669291334
11
3.7883636614173226
21
-4.8859422440944877
0
LINE
8
BLACK
6
CONTINUOUS
10
3.7883636614173226
20
-4.8859422440944877
11
3.7846141338582675
21
-4.9009403543307082
0
LINE
8
BLACK
6
CONTINUOUS
10
3.7846141338582675
20
-4.9009403543307082
11
3.7808646062992124
21
-4.9084394094488184
0
LINE
8
BLACK
6
CONTINUOUS
10
3.7808646062992124
20
-4.9084394094488184
11
3.7771150787401573
21
-4.9121889763779523
0
LINE
8
BLACK
6
CONTINUOUS
10
3.7771150787401573
20
-4.9121889763779523
11
3.7696160236220471
21
-4.9159385039370074
0
LINE
8
BLACK
6
CONTINUOUS
10
3.7696160236220471
20
-4.9159385039370074
11
3.7621169291338581
21
-4.9159385039370074
0
LINE
8
BLACK
6
CONTINUOUS
10
3.7621169291338581
20
-4.9159385039370074
11
3.7546178740157479
21
-4.9121889763779523
0
LINE
8
BLACK
6
CONTINUOUS
10
3.7546178740157479
20
-4.9121889763779523
11
3.7508683464566928
21
-4.9084394094488184
0
LINE
8
BLACK
6
CONTINUOUS
10
3.7508683464566928
20
-4.9084394094488184
11
3.7471188188976376
21
-4.9009403543307082
0
LINE
8
BLACK
6
CONTINUOUS
10
3.7471188188976376
20
-4.9009403543307082
11
3.7433692913385825
21
-4.8859422440944877
0
LINE
8
BLACK
6
CONTINUOUS
10
3.7433692913385825
20
-4.8859422440944877
11
3.7433692913385825
21
-4.8671945669291334
0
LINE
8
BLACK
6
CONTINUOUS
10
3.7433692913385825
20
-4.8671945669291334
11
3.7471188188976376
21
-4.852196456692913
0
LINE
8
BLACK
6
CONTINUOUS
10
3.7471188188976376
20
-4.852196456692913
11
3.7508683464566928
21
-4.8446974015748028
0
LINE
8
BLACK
6
CONTINUOUS
10
3.7508683464566928
20
-4.8446974015748028
11
3.7546178740157479
21
-4.8409478740157477
0
LINE
8
BLACK
6
CONTINUOUS
10
3.7546178740157479
20
-4.8409478740157477
11
3.7621169291338581
21
-4.8371983464566926
0
LINE
8
BLACK
6
CONTINUOUS
10
3.8183599212598422
20
-4.8371983464566926
11
3.8183599212598422
21
-4.852196456692913
0
LINE
8
BLACK
6
CONTINUOUS
10
3.8483561811023623
20
-4.8371983464566926
11
3.8483561811023623
21
-4.852196456692913
0
LINE
8
BLACK
6
CONTINUOUS
10
3.9645916929133858
20
-4.9459347244094491
11
3.9608421259842519
21
-4.9421851968503931
0
LINE
8
BLACK
6
CONTINUOUS
10
3.9608421259842519
20
-4.9421851968503931
11
3.9533430708661417
21
-4.9309366141732278
0
LINE
8
BLACK
6
CONTINUOUS
10
3.9533430708661417
20
-4.9309366141732278
11
3.9495935433070866
21
-4.9234375590551176
0
LINE
8
BLACK
6
CONTINUOUS
10
3.9495935433070866
20
-4.9234375590551176
11
3.9458440157480315
21
-4.9121889763779523
0
LINE
8
BLACK
6
CONTINUOUS
10
3.9458440157480315
20
-4.9121889763779523
11
3.9420944881889763
21
-4.893441299212598
0
LINE
8
BLACK
6
CONTINUOUS
10
3.9420944881889763
20
-4.893441299212598
11
3.9420944881889763
21
-4.8784431889763775
0
LINE
8
BLACK
6
CONTINUOUS
10
3.9420944881889763
20
-4.8784431889763775
11
3.9458440157480315
21
-4.8596955118110232
0
LINE
8
BLACK
6
CONTINUOUS
10
3.9458440157480315
20
-4.8596955118110232
11
3.9495935433070866
21
-4.8484469291338579
0
LINE
8
BLACK
6
CONTINUOUS
10
3.9495935433070866
20
-4.8484469291338579
11
3.9533430708661417
21
-4.8409478740157477
0
LINE
8
BLACK
6
CONTINUOUS
10
3.9533430708661417
20
-4.8409478740157477
11
3.9608421259842519
21
-4.8296992519685036
0
LINE
8
BLACK
6
CONTINUOUS
10
3.9608421259842519
20
-4.8296992519685036
11
3.9645916929133858
21
-4.8259497244094485
0
LINE
8
BLACK
6
CONTINUOUS
10
4.0283337007874014
20
-4.8634450393700783
11
4.0283337007874014
21
-4.9159385039370074
0
LINE
8
BLACK
6
CONTINUOUS
10
4.0095860236220471
20
-4.8334488188976374
11
3.9908383858267715
21
-4.8896917716535429
0
LINE
8
BLACK
6
CONTINUOUS
10
3.9908383858267715
20
-4.8896917716535429
11
4.0395822834645667
21
-4.8896917716535429
0
LINE
8
BLACK
6
CONTINUOUS
10
4.1295710629921256
20
-4.9159385039370074
11
4.1295710629921256
21
-4.8371983464566926
0
LINE
8
BLACK
6
CONTINUOUS
10
4.1633168503937004
20
-4.9159385039370074
11
4.1633168503937004
21
-4.8746936614173224
0
LINE
8
BLACK
6
CONTINUOUS
10
4.1633168503937004
20
-4.8746936614173224
11
4.1595673228346453
21
-4.8671945669291334
0
LINE
8
BLACK
6
CONTINUOUS
10
4.1595673228346453
20
-4.8671945669291334
11
4.152068267716535
21
-4.8634450393700783
0
LINE
8
BLACK
6
CONTINUOUS
10
4.152068267716535
20
-4.8634450393700783
11
4.1408196456692909
21
-4.8634450393700783
0
LINE
8
BLACK
6
CONTINUOUS
10
4.1408196456692909
20
-4.8634450393700783
11
4.1333205905511807
21
-4.8671945669291334
0
LINE
8
BLACK
6
CONTINUOUS
10
4.1333205905511807
20
-4.8671945669291334
11
4.1295710629921256
21
-4.8709440944881885
0
LINE
8
BLACK
6
CONTINUOUS
10
4.2120607480314955
20
-4.9159385039370074
11
4.2045616929133853
21
-4.9121889763779523
0
LINE
8
BLACK
6
CONTINUOUS
10
4.2045616929133853
20
-4.9121889763779523
11
4.2008121653543302
21
-4.9084394094488184
0
LINE
8
BLACK
6
CONTINUOUS
10
4.2008121653543302
20
-4.9084394094488184
11
4.1970626377952751
21
-4.9009403543307082
0
LINE
8
BLACK
6
CONTINUOUS
10
4.1970626377952751
20
-4.9009403543307082
11
4.1970626377952751
21
-4.8784431889763775
0
LINE
8
BLACK
6
CONTINUOUS
10
4.1970626377952751
20
-4.8784431889763775
11
4.2008121653543302
21
-4.8709440944881885
0
LINE
8
BLACK
6
CONTINUOUS
10
4.2008121653543302
20
-4.8709440944881885
11
4.2045616929133853
21
-4.8671945669291334
0
LINE
8
BLACK
6
CONTINUOUS
10
4.2045616929133853
20
-4.8671945669291334
11
4.2120607480314955
21
-4.8634450393700783
0
LINE
8
BLACK
6
CONTINUOUS
10
4.2120607480314955
20
-4.8634450393700783
11
4.2233093700787396
21
-4.8634450393700783
0
LINE
8
BLACK
6
CONTINUOUS
10
4.2233093700787396
20
-4.8634450393700783
11
4.2308084251968499
21
-4.8671945669291334
0
LINE
8
BLACK
6
CONTINUOUS
10
4.2308084251968499
20
-4.8671945669291334
11
4.2345579527559059
21
-4.8709440944881885
0
LINE
8
BLACK
6
CONTINUOUS
10
4.2345579527559059
20
-4.8709440944881885
11
4.238307480314961
21
-4.8784431889763775
0
LINE
8
BLACK
6
CONTINUOUS
10
4.238307480314961
20
-4.8784431889763775
11
4.238307480314961
21
-4.9009403543307082
0
LINE
8
BLACK
6
CONTINUOUS
10
4.238307480314961
20
-4.9009403543307082
11
4.2345579527559059
21
-4.9084394094488184
0
LINE
8
BLACK
6
CONTINUOUS
10
4.2345579527559059
20
-4.9084394094488184
11
4.2308084251968499
21
-4.9121889763779523
0
LINE
8
BLACK
6
CONTINUOUS
10
4.2308084251968499
20
-4.9121889763779523
11
4.2233093700787396
21
-4.9159385039370074
0
LINE
8
BLACK
6
CONTINUOUS
10
4.2233093700787396
20
-4.9159385039370074
11
4.2120607480314955
21
-4.9159385039370074
0
LINE
8
BLACK
6
CONTINUOUS
10
4.283301850393701
20
-4.9159385039370074
11
4.2758027952755908
21
-4.9121889763779523
0
LINE
8
BLACK
6
CONTINUOUS
10
4.2758027952755908
20
-4.9121889763779523
11
4.2720532677165357
21
-4.9046898818897633
0
LINE
8
BLACK
6
CONTINUOUS
10
4.2720532677165357
20
-4.9046898818897633
11
4.2720532677165357
21
-4.8371983464566926
0
LINE
8
BLACK
6
CONTINUOUS
10
4.3432943700787403
20
-4.9121889763779523
11
4.3357953149606301
21
-4.9159385039370074
0
LINE
8
BLACK
6
CONTINUOUS
10
4.3357953149606301
20
-4.9159385039370074
11
4.3207971653543309
21
-4.9159385039370074
0
LINE
8
BLACK
6
CONTINUOUS
10
4.3207971653543309
20
-4.9159385039370074
11
4.3132981102362207
21
-4.9121889763779523
0
LINE
8
BLACK
6
CONTINUOUS
10
4.3132981102362207
20
-4.9121889763779523
11
4.3095485826771656
21
-4.9046898818897633
0
LINE
8
BLACK
6
CONTINUOUS
10
4.3095485826771656
20
-4.9046898818897633
11
4.3095485826771656
21
-4.8746936614173224
0
LINE
8
BLACK
6
CONTINUOUS
10
4.3095485826771656
20
-4.8746936614173224
11
4.3132981102362207
21
-4.8671945669291334
0
LINE
8
BLACK
6
CONTINUOUS
10
4.3132981102362207
20
-4.8671945669291334
11
4.3207971653543309
21
-4.8634450393700783
0
LINE
8
BLACK
6
CONTINUOUS
10
4.3207971653543309
20
-4.8634450393700783
11
4.3357953149606301
21
-4.8634450393700783
0
LINE
8
BLACK
6
CONTINUOUS
10
4.3357953149606301
20
-4.8634450393700783
11
4.3432943700787403
21
-4.8671945669291334
0
LINE
8
BLACK
6
CONTINUOUS
10
4.3432943700787403
20
-4.8671945669291334
11
4.3470438976377954
21
-4.8746936614173224
0
LINE
8
BLACK
6
CONTINUOUS
10
4.3470438976377954
20
-4.8746936614173224
11
4.3470438976377954
21
-4.8821927165354326
0
LINE
8
BLACK
6
CONTINUOUS
10
4.3470438976377954
20
-4.8821927165354326
11
4.3095485826771656
21
-4.8896917716535429
0
LINE
8
BLACK
6
CONTINUOUS
10
4.3770401574803151
20
-4.9121889763779523
11
4.3845392125984253
21
-4.9159385039370074
0
LINE
8
BLACK
6
CONTINUOUS
10
4.3845392125984253
20
-4.9159385039370074
11
4.3995373228346457
21
-4.9159385039370074
0
LINE
8
BLACK
6
CONTINUOUS
10
4.3995373228346457
20
-4.9159385039370074
11
4.4070364173228347
21
-4.9121889763779523
0
LINE
8
BLACK
6
CONTINUOUS
10
4.4070364173228347
20
-4.9121889763779523
11
4.4107859448818898
21
-4.9046898818897633
0
LINE
8
BLACK
6
CONTINUOUS
10
4.4107859448818898
20
-4.9046898818897633
11
4.4107859448818898
21
-4.9009403543307082
0
LINE
8
BLACK
6
CONTINUOUS
10
4.4107859448818898
20
-4.9009403543307082
11
4.4070364173228347
21
-4.893441299212598
0
LINE
8
BLACK
6
CONTINUOUS
10
4.4070364173228347
20
-4.893441299212598
11
4.3995373228346457
21
-4.8896917716535429
0
LINE
8
BLACK
6
CONTINUOUS
10
4.3995373228346457
20
-4.8896917716535429
11
4.3882887401574804
21
-4.8896917716535429
0
LINE
8
BLACK
6
CONTINUOUS
10
4.3882887401574804
20
-4.8896917716535429
11
4.3807896850393702
21
-4.8859422440944877
0
LINE
8
BLACK
6
CONTINUOUS
10
4.3807896850393702
20
-4.8859422440944877
11
4.3770401574803151
21
-4.8784431889763775
0
LINE
8
BLACK
6
CONTINUOUS
10
4.3770401574803151
20
-4.8784431889763775
11
4.3770401574803151
21
-4.8746936614173224
0
LINE
8
BLACK
6
CONTINUOUS
10
4.3770401574803151
20
-4.8746936614173224
11
4.3807896850393702
21
-4.8671945669291334
0
LINE
8
BLACK
6
CONTINUOUS
10
4.3807896850393702
20
-4.8671945669291334
11
4.3882887401574804
21
-4.8634450393700783
0
LINE
8
BLACK
6
CONTINUOUS
10
4.3882887401574804
20
-4.8634450393700783
11
4.3995373228346457
21
-4.8634450393700783
0
LINE
8
BLACK
6
CONTINUOUS
10
4.3995373228346457
20
-4.8634450393700783
11
4.4070364173228347
21
-4.8671945669291334
0
LINE
8
BLACK
6
CONTINUOUS
10
4.4370326771653543
20
-4.9459347244094491
11
4.4407822047244094
21
-4.9421851968503931
0
LINE
8
BLACK
6
CONTINUOUS
10
4.4407822047244094
20
-4.9421851968503931
11
4.4482812598425197
21
-4.9309366141732278
0
LINE
8
BLACK
6
CONTINUOUS
10
4.4482812598425197
20
-4.9309366141732278
11
4.4520307874015748
21
-4.9234375590551176
0
LINE
8
BLACK
6
CONTINUOUS
10
4.4520307874015748
20
-4.9234375590551176
11
4.4557803149606299
21
-4.9121889763779523
0
LINE
8
BLACK
6
CONTINUOUS
10
4.4557803149606299
20
-4.9121889763779523
11
4.459529842519685
21
-4.893441299212598
0
LINE
8
BLACK
6
CONTINUOUS
10
4.459529842519685
20
-4.893441299212598
11
4.459529842519685
21
-4.8784431889763775
0
LINE
8
BLACK
6
CONTINUOUS
10
4.459529842519685
20
-4.8784431889763775
11
4.4557803149606299
21
-4.8596955118110232
0
LINE
8
BLACK
6
CONTINUOUS
10
4.4557803149606299
20
-4.8596955118110232
11
4.4520307874015748
21
-4.8484469291338579
0
LINE
8
BLACK
6
CONTINUOUS
10
4.4520307874015748
20
-4.8484469291338579
11
4.4482812598425197
21
-4.8409478740157477
0
LINE
8
BLACK
6
CONTINUOUS
10
4.4482812598425197
20
-4.8409478740157477
11
4.4407822047244094
21
-4.8296992519685036
0
LINE
8
BLACK
6
CONTINUOUS
10
4.4407822047244094
20
-4.8296992519685036
11
4.4370326771653543
21
-4.8259497244094485
0
LINE
8
BLACK
6
CONTINUOUS
10
4.5795148818897635
20
-4.9459347244094491
11
4.5757653149606297
21
-4.9421851968503931
0
LINE
8
BLACK
6
CONTINUOUS
10
4.5757653149606297
20
-4.9421851968503931
11
4.5682662598425194
21
-4.9309366141732278
0
LINE
8
BLACK
6
CONTINUOUS
10
4.5682662598425194
20
-4.9309366141732278
11
4.5645167322834643
21
-4.9234375590551176
0
LINE
8
BLACK
6
CONTINUOUS
10
4.5645167322834643
20
-4.9234375590551176
11
4.5607672047244092
21
-4.9121889763779523
0
LINE
8
BLACK
6
CONTINUOUS
10
4.5607672047244092
20
-4.9121889763779523
11
4.5570176771653541
21
-4.893441299212598
0
LINE
8
BLACK
6
CONTINUOUS
10
4.5570176771653541
20
-4.893441299212598
11
4.5570176771653541
21
-4.8784431889763775
0
LINE
8
BLACK
6
CONTINUOUS
10
4.5570176771653541
20
-4.8784431889763775
11
4.5607672047244092
21
-4.8596955118110232
0
LINE
8
BLACK
6
CONTINUOUS
10
4.5607672047244092
20
-4.8596955118110232
11
4.5645167322834643
21
-4.8484469291338579
0
LINE
8
BLACK
6
CONTINUOUS
10
4.5645167322834643
20
-4.8484469291338579
11
4.5682662598425194
21
-4.8409478740157477
0
LINE
8
BLACK
6
CONTINUOUS
10
4.5682662598425194
20
-4.8409478740157477
11
4.5757653149606297
21
-4.8296992519685036
0
LINE
8
BLACK
6
CONTINUOUS
10
4.5757653149606297
20
-4.8296992519685036
11
4.5795148818897635
21
-4.8259497244094485
0
LINE
8
BLACK
6
CONTINUOUS
10
4.6095111023622044
20
-4.8634450393700783
11
4.6095111023622044
21
-4.9159385039370074
0
LINE
8
BLACK
6
CONTINUOUS
10
4.6095111023622044
20
-4.8709440944881885
11
4.6132606299212595
21
-4.8671945669291334
0
LINE
8
BLACK
6
CONTINUOUS
10
4.6132606299212595
20
-4.8671945669291334
11
4.6207596850393697
21
-4.8634450393700783
0
LINE
8
BLACK
6
CONTINUOUS
10
4.6207596850393697
20
-4.8634450393700783
11
4.6320083070866138
21
-4.8634450393700783
0
LINE
8
BLACK
6
CONTINUOUS
10
4.6320083070866138
20
-4.8634450393700783
11
4.639507362204724
21
-4.8671945669291334
0
LINE
8
BLACK
6
CONTINUOUS
10
4.639507362204724
20
-4.8671945669291334
11
4.6432568897637791
21
-4.8746936614173224
0
LINE
8
BLACK
6
CONTINUOUS
10
4.6432568897637791
20
-4.8746936614173224
11
4.6432568897637791
21
-4.9159385039370074
0
LINE
8
BLACK
6
CONTINUOUS
10
4.6920007874015743
20
-4.9159385039370074
11
4.6845017322834641
21
-4.9121889763779523
0
LINE
8
BLACK
6
CONTINUOUS
10
4.6845017322834641
20
-4.9121889763779523
11
4.680752204724409
21
-4.9084394094488184
0
LINE
8
BLACK
6
CONTINUOUS
10
4.680752204724409
20
-4.9084394094488184
11
4.6770026771653539
21
-4.9009403543307082
0
LINE
8
BLACK
6
CONTINUOUS
10
4.6770026771653539
20
-4.9009403543307082
11
4.6770026771653539
21
-4.8784431889763775
0
LINE
8
BLACK
6
CONTINUOUS
10
4.6770026771653539
20
-4.8784431889763775
11
4.680752204724409
21
-4.8709440944881885
0
LINE
8
BLACK
6
CONTINUOUS
10
4.680752204724409
20
-4.8709440944881885
11
4.6845017322834641
21
-4.8671945669291334
0
LINE
8
BLACK
6
CONTINUOUS
10
4.6845017322834641
20
-4.8671945669291334
11
4.6920007874015743
21
-4.8634450393700783
0
LINE
8
BLACK
6
CONTINUOUS
10
4.6920007874015743
20
-4.8634450393700783
11
4.7032494094488184
21
-4.8634450393700783
0
LINE
8
BLACK
6
CONTINUOUS
10
4.7032494094488184
20
-4.8634450393700783
11
4.7107484645669286
21
-4.8671945669291334
0
LINE
8
BLACK
6
CONTINUOUS
10
4.7107484645669286
20
-4.8671945669291334
11
4.7144979921259837
21
-4.8709440944881885
0
LINE
8
BLACK
6
CONTINUOUS
10
4.7144979921259837
20
-4.8709440944881885
11
4.7182475196850389
21
-4.8784431889763775
0
LINE
8
BLACK
6
CONTINUOUS
10
4.7182475196850389
20
-4.8784431889763775
11
4.7182475196850389
21
-4.9009403543307082
0
LINE
8
BLACK
6
CONTINUOUS
10
4.7182475196850389
20
-4.9009403543307082
11
4.7144979921259837
21
-4.9084394094488184
0
LINE
8
BLACK
6
CONTINUOUS
10
4.7144979921259837
20
-4.9084394094488184
11
4.7107484645669286
21
-4.9121889763779523
0
LINE
8
BLACK
6
CONTINUOUS
10
4.7107484645669286
20
-4.9121889763779523
11
4.7032494094488184
21
-4.9159385039370074
0
LINE
8
BLACK
6
CONTINUOUS
10
4.7032494094488184
20
-4.9159385039370074
11
4.6920007874015743
21
-4.9159385039370074
0
LINE
8
BLACK
6
CONTINUOUS
10
4.7407447244094483
20
-4.8634450393700783
11
4.77074094488189
21
-4.8634450393700783
0
LINE
8
BLACK
6
CONTINUOUS
10
4.7519933070866145
20
-4.8371983464566926
11
4.7519933070866145
21
-4.9046898818897633
0
LINE
8
BLACK
6
CONTINUOUS
10
4.7519933070866145
20
-4.9046898818897633
11
4.7557428346456696
21
-4.9121889763779523
0
LINE
8
BLACK
6
CONTINUOUS
10
4.7557428346456696
20
-4.9121889763779523
11
4.7632418897637798
21
-4.9159385039370074
0
LINE
8
BLACK
6
CONTINUOUS
10
4.7632418897637798
20
-4.9159385039370074
11
4.77074094488189
21
-4.9159385039370074
0
LINE
8
BLACK
6
CONTINUOUS
10
4.8569801968503938
20
-4.8634450393700783
11
4.8569801968503938
21
-4.9421851968503931
0
LINE
8
BLACK
6
CONTINUOUS
10
4.8569801968503938
20
-4.8671945669291334
11
4.8644792519685041
21
-4.8634450393700783
0
LINE
8
BLACK
6
CONTINUOUS
10
4.8644792519685041
20
-4.8634450393700783
11
4.8794774015748033
21
-4.8634450393700783
0
LINE
8
BLACK
6
CONTINUOUS
10
4.8794774015748033
20
-4.8634450393700783
11
4.8869764566929135
21
-4.8671945669291334
0
LINE
8
BLACK
6
CONTINUOUS
10
4.8869764566929135
20
-4.8671945669291334
11
4.8907259842519686
21
-4.8709440944881885
0
LINE
8
BLACK
6
CONTINUOUS
10
4.8907259842519686
20
-4.8709440944881885
11
4.8944755118110237
21
-4.8784431889763775
0
LINE
8
BLACK
6
CONTINUOUS
10
4.8944755118110237
20
-4.8784431889763775
11
4.8944755118110237
21
-4.9009403543307082
0
LINE
8
BLACK
6
CONTINUOUS
10
4.8944755118110237
20
-4.9009403543307082
11
4.8907259842519686
21
-4.9084394094488184
0
LINE
8
BLACK
6
CONTINUOUS
10
4.8907259842519686
20
-4.9084394094488184
11
4.8869764566929135
21
-4.9121889763779523
0
LINE
8
BLACK
6
CONTINUOUS
10
4.8869764566929135
20
-4.9121889763779523
11
4.8794774015748033
21
-4.9159385039370074
0
LINE
8
BLACK
6
CONTINUOUS
10
4.8794774015748033
20
-4.9159385039370074
11
4.8644792519685041
21
-4.9159385039370074
0
LINE
8
BLACK
6
CONTINUOUS
10
4.8644792519685041
20
-4.9159385039370074
11
4.8569801968503938
21
-4.9121889763779523
0
LINE
8
BLACK
6
CONTINUOUS
10
4.9394698818897638
20
-4.9159385039370074
11
4.9319708267716535
21
-4.9121889763779523
0
LINE
8
BLACK
6
CONTINUOUS
10
4.9319708267716535
20
-4.9121889763779523
11
4.9282212992125984
21
-4.9046898818897633
0
LINE
8
BLACK
6
CONTINUOUS
10
4.9282212992125984
20
-4.9046898818897633
11
4.9282212992125984
21
-4.8371983464566926
0
LINE
8
BLACK
6
CONTINUOUS
10
5.0032119291338581
20
-4.9159385039370074
11
5.0032119291338581
21
-4.8746936614173224
0
LINE
8
BLACK
6
CONTINUOUS
10
5.0032119291338581
20
-4.8746936614173224
11
4.999462401574803
21
-4.8671945669291334
0
LINE
8
BLACK
6
CONTINUOUS
10
4.999462401574803
20
-4.8671945669291334
11
4.9919633464566928
21
-4.8634450393700783
0
LINE
8
BLACK
6
CONTINUOUS
10
4.9919633464566928
20
-4.8634450393700783
11
4.9769651968503936
21
-4.8634450393700783
0
LINE
8
BLACK
6
CONTINUOUS
10
4.9769651968503936
20
-4.8634450393700783
11
4.9694661417322834
21
-4.8671945669291334
0
LINE
8
BLACK
6
CONTINUOUS
10
5.0032119291338581
20
-4.9121889763779523
11
4.9957128740157479
21
-4.9159385039370074
0
LINE
8
BLACK
6
CONTINUOUS
10
4.9957128740157479
20
-4.9159385039370074
11
4.9769651968503936
21
-4.9159385039370074
0
LINE
8
BLACK
6
CONTINUOUS
10
4.9769651968503936
20
-4.9159385039370074
11
4.9694661417322834
21
-4.9121889763779523
0
LINE
8
BLACK
6
CONTINUOUS
10
4.9694661417322834
20
-4.9121889763779523
11
4.9657166141732283
21
-4.9046898818897633
0
LINE
8
BLACK
6
CONTINUOUS
10
4.9657166141732283
20
-4.9046898818897633
11
4.9657166141732283
21
-4.8971908267716531
0
LINE
8
BLACK
6
CONTINUOUS
10
4.9657166141732283
20
-4.8971908267716531
11
4.9694661417322834
21
-4.8896917716535429
0
LINE
8
BLACK
6
CONTINUOUS
10
4.9694661417322834
20
-4.8896917716535429
11
4.9769651968503936
21
-4.8859422440944877
0
LINE
8
BLACK
6
CONTINUOUS
10
4.9769651968503936
20
-4.8859422440944877
11
4.9957128740157479
21
-4.8859422440944877
0
LINE
8
BLACK
6
CONTINUOUS
10
4.9957128740157479
20
-4.8859422440944877
11
5.0032119291338581
21
-4.8821927165354326
0
LINE
8
BLACK
6
CONTINUOUS
10
5.0294586614173227
20
-4.8634450393700783
11
5.0594548818897636
21
-4.8634450393700783
0
LINE
8
BLACK
6
CONTINUOUS
10
5.040707244094488
20
-4.8371983464566926
11
5.040707244094488
21
-4.9046898818897633
0
LINE
8
BLACK
6
CONTINUOUS
10
5.040707244094488
20
-4.9046898818897633
11
5.0444567716535431
21
-4.9121889763779523
0
LINE
8
BLACK
6
CONTINUOUS
10
5.0444567716535431
20
-4.9121889763779523
11
5.0519558267716533
21
-4.9159385039370074
0
LINE
8
BLACK
6
CONTINUOUS
10
5.0519558267716533
20
-4.9159385039370074
11
5.0594548818897636
21
-4.9159385039370074
0
LINE
8
BLACK
6
CONTINUOUS
10
5.1156978740157477
20
-4.9121889763779523
11
5.1081988188976375
21
-4.9159385039370074
0
LINE
8
BLACK
6
CONTINUOUS
10
5.1081988188976375
20
-4.9159385039370074
11
5.0932006692913383
21
-4.9159385039370074
0
LINE
8
BLACK
6
CONTINUOUS
10
5.0932006692913383
20
-4.9159385039370074
11
5.0857016141732281
21
-4.9121889763779523
0
LINE
8
BLACK
6
CONTINUOUS
10
5.0857016141732281
20
-4.9121889763779523
11
5.081952086614173
21
-4.9046898818897633
0
LINE
8
BLACK
6
CONTINUOUS
10
5.081952086614173
20
-4.9046898818897633
11
5.081952086614173
21
-4.8746936614173224
0
LINE
8
BLACK
6
CONTINUOUS
10
5.081952086614173
20
-4.8746936614173224
11
5.0857016141732281
21
-4.8671945669291334
0
LINE
8
BLACK
6
CONTINUOUS
10
5.0857016141732281
20
-4.8671945669291334
11
5.0932006692913383
21
-4.8634450393700783
0
LINE
8
BLACK
6
CONTINUOUS
10
5.0932006692913383
20
-4.8634450393700783
11
5.1081988188976375
21
-4.8634450393700783
0
LINE
8
BLACK
6
CONTINUOUS
10
5.1081988188976375
20
-4.8634450393700783
11
5.1156978740157477
21
-4.8671945669291334
0
LINE
8
BLACK
6
CONTINUOUS
10
5.1156978740157477
20
-4.8671945669291334
11
5.1194474015748028
21
-4.8746936614173224
0
LINE
8
BLACK
6
CONTINUOUS
10
5.1194474015748028
20
-4.8746936614173224
11
5.1194474015748028
21
-4.8821927165354326
0
LINE
8
BLACK
6
CONTINUOUS
10
5.1194474015748028
20
-4.8821927165354326
11
5.081952086614173
21
-4.8896917716535429
0
LINE
8
BLACK
6
CONTINUOUS
10
5.1869389763779523
20
-4.9159385039370074
11
5.1869389763779523
21
-4.8371983464566926
0
LINE
8
BLACK
6
CONTINUOUS
10
5.1869389763779523
20
-4.9121889763779523
11
5.1794399212598421
21
-4.9159385039370074
0
LINE
8
BLACK
6
CONTINUOUS
10
5.1794399212598421
20
-4.9159385039370074
11
5.1644417716535429
21
-4.9159385039370074
0
LINE
8
BLACK
6
CONTINUOUS
10
5.1644417716535429
20
-4.9159385039370074
11
5.1569427165354327
21
-4.9121889763779523
0
LINE
8
BLACK
6
CONTINUOUS
10
5.1569427165354327
20
-4.9121889763779523
11
5.1531931889763776
21
-4.9084394094488184
0
LINE
8
BLACK
6
CONTINUOUS
10
5.1531931889763776
20
-4.9084394094488184
11
5.1494436614173225
21
-4.9009403543307082
0
LINE
8
BLACK
6
CONTINUOUS
10
5.1494436614173225
20
-4.9009403543307082
11
5.1494436614173225
21
-4.8784431889763775
0
LINE
8
BLACK
6
CONTINUOUS
10
5.1494436614173225
20
-4.8784431889763775
11
5.1531931889763776
21
-4.8709440944881885
0
LINE
8
BLACK
6
CONTINUOUS
10
5.1531931889763776
20
-4.8709440944881885
11
5.1569427165354327
21
-4.8671945669291334
0
LINE
8
BLACK
6
CONTINUOUS
10
5.1569427165354327
20
-4.8671945669291334
11
5.1644417716535429
21
-4.8634450393700783
0
LINE
8
BLACK
6
CONTINUOUS
10
5.1644417716535429
20
-4.8634450393700783
11
5.1794399212598421
21
-4.8634450393700783
0
LINE
8
BLACK
6
CONTINUOUS
10
5.1794399212598421
20
-4.8634450393700783
11
5.1869389763779523
21
-4.8671945669291334
0
LINE
8
BLACK
6
CONTINUOUS
10
5.2169352362204719
20
-4.9459347244094491
11
5.2206847637795271
21
-4.9421851968503931
0
LINE
8
BLACK
6
CONTINUOUS
10
5.2206847637795271
20
-4.9421851968503931
11
5.2281838188976373
21
-4.9309366141732278
0
LINE
8
BLACK
6
CONTINUOUS
10
5.2281838188976373
20
-4.9309366141732278
11
5.2319333464566924
21
-4.9234375590551176
0
LINE
8
BLACK
6
CONTINUOUS
10
5.2319333464566924
20
-4.9234375590551176
11
5.2356828740157475
21
-4.9121889763779523
0
LINE
8
BLACK
6
CONTINUOUS
10
5.2356828740157475
20
-4.9121889763779523
11
5.2394324015748026
21
-4.893441299212598
0
LINE
8
BLACK
6
CONTINUOUS
10
5.2394324015748026
20
-4.893441299212598
11
5.2394324015748026
21
-4.8784431889763775
0
LINE
8
BLACK
6
CONTINUOUS
10
5.2394324015748026
20
-4.8784431889763775
11
5.2356828740157475
21
-4.8596955118110232
0
LINE
8
BLACK
6
CONTINUOUS
10
5.2356828740157475
20
-4.8596955118110232
11
5.2319333464566924
21
-4.8484469291338579
0
LINE
8
BLACK
6
CONTINUOUS
10
5.2319333464566924
20
-4.8484469291338579
11
5.2281838188976373
21
-4.8409478740157477
0
LINE
8
BLACK
6
CONTINUOUS
10
5.2281838188976373
20
-4.8409478740157477
11
5.2206847637795271
21
-4.8296992519685036
0
LINE
8
BLACK
6
CONTINUOUS
10
5.2206847637795271
20
-4.8296992519685036
11
5.2169352362204719
21
-4.8259497244094485
  0
ENDSEC
  0
EOF
