%TF.GenerationSoftware,KiCad,Pcbnew,7.0.10*%
%TF.CreationDate,2024-04-23T23:44:33+08:00*%
%TF.ProjectId,pcb,7063622e-6b69-4636-9164-5f7063625858,rev?*%
%TF.SameCoordinates,Original*%
%TF.FileFunction,Paste,Top*%
%TF.FilePolarity,Positive*%
%FSLAX46Y46*%
G04 Gerber Fmt 4.6, Leading zero omitted, Abs format (unit mm)*
G04 Created by KiCad (PCBNEW 7.0.10) date 2024-04-23 23:44:33*
%MOMM*%
%LPD*%
G01*
G04 APERTURE LIST*
G04 Aperture macros list*
%AMRoundRect*
0 Rectangle with rounded corners*
0 $1 Rounding radius*
0 $2 $3 $4 $5 $6 $7 $8 $9 X,Y pos of 4 corners*
0 Add a 4 corners polygon primitive as box body*
4,1,4,$2,$3,$4,$5,$6,$7,$8,$9,$2,$3,0*
0 Add four circle primitives for the rounded corners*
1,1,$1+$1,$2,$3*
1,1,$1+$1,$4,$5*
1,1,$1+$1,$6,$7*
1,1,$1+$1,$8,$9*
0 Add four rect primitives between the rounded corners*
20,1,$1+$1,$2,$3,$4,$5,0*
20,1,$1+$1,$4,$5,$6,$7,0*
20,1,$1+$1,$6,$7,$8,$9,0*
20,1,$1+$1,$8,$9,$2,$3,0*%
%AMRotRect*
0 Rectangle, with rotation*
0 The origin of the aperture is its center*
0 $1 length*
0 $2 width*
0 $3 Rotation angle, in degrees counterclockwise*
0 Add horizontal line*
21,1,$1,$2,0,0,$3*%
G04 Aperture macros list end*
%ADD10RoundRect,0.200000X-0.700000X-0.200000X0.700000X-0.200000X0.700000X0.200000X-0.700000X0.200000X0*%
%ADD11R,2.180000X1.600000*%
%ADD12R,2.000000X1.500000*%
%ADD13R,2.000000X3.800000*%
%ADD14C,0.240000*%
%ADD15RotRect,2.500000X5.100000X50.000000*%
%ADD16RoundRect,0.150000X-0.875000X-0.150000X0.875000X-0.150000X0.875000X0.150000X-0.875000X0.150000X0*%
%ADD17RoundRect,0.150000X-0.675000X-0.150000X0.675000X-0.150000X0.675000X0.150000X-0.675000X0.150000X0*%
%ADD18RoundRect,0.075000X-0.662500X-0.075000X0.662500X-0.075000X0.662500X0.075000X-0.662500X0.075000X0*%
%ADD19RoundRect,0.075000X-0.075000X-0.662500X0.075000X-0.662500X0.075000X0.662500X-0.075000X0.662500X0*%
G04 APERTURE END LIST*
D10*
%TO.C,U6*%
X155894000Y-53588000D03*
X155894000Y-54688000D03*
X155894000Y-55788000D03*
X155894000Y-56888000D03*
X155894000Y-57988000D03*
X155894000Y-59088000D03*
X155894000Y-60188000D03*
X155894000Y-63188000D03*
X155894000Y-64288000D03*
X155894000Y-65388000D03*
X155894000Y-66488000D03*
X155894000Y-67588000D03*
X167894000Y-67588000D03*
X167894000Y-66488000D03*
X167894000Y-65388000D03*
X167894000Y-64288000D03*
X167894000Y-63188000D03*
X167894000Y-60188000D03*
X167894000Y-59088000D03*
X167894000Y-57988000D03*
X167894000Y-56888000D03*
X167894000Y-55788000D03*
X167894000Y-54688000D03*
X167894000Y-53588000D03*
%TD*%
D11*
%TO.C,SW1*%
X87610000Y-77025000D03*
X96790000Y-77025000D03*
%TD*%
D12*
%TO.C,U1*%
X76758000Y-73138000D03*
X76758000Y-75438000D03*
D13*
X83058000Y-75438000D03*
D12*
X76758000Y-77738000D03*
%TD*%
D14*
%TO.C,U2*%
X160274000Y-92310000D03*
X160284000Y-92710000D03*
X160274000Y-93110000D03*
X159874000Y-92310000D03*
X159874000Y-93110000D03*
X159474000Y-92310000D03*
X159474000Y-92710000D03*
X159474000Y-93110000D03*
%TD*%
D15*
%TO.C,BT1*%
X117114814Y-75821938D03*
X126885186Y-64178062D03*
%TD*%
D16*
%TO.C,U5*%
X120826000Y-82423000D03*
X120826000Y-83693000D03*
X120826000Y-84963000D03*
X120826000Y-86233000D03*
X120826000Y-87503000D03*
X120826000Y-88773000D03*
X120826000Y-90043000D03*
X120826000Y-91313000D03*
X130126000Y-91313000D03*
X130126000Y-90043000D03*
X130126000Y-88773000D03*
X130126000Y-87503000D03*
X130126000Y-86233000D03*
X130126000Y-84963000D03*
X130126000Y-83693000D03*
X130126000Y-82423000D03*
%TD*%
D17*
%TO.C,U3*%
X92117000Y-103595000D03*
X92117000Y-104865000D03*
X92117000Y-106135000D03*
X92117000Y-107405000D03*
X97367000Y-107405000D03*
X97367000Y-106135000D03*
X97367000Y-104865000D03*
X97367000Y-103595000D03*
%TD*%
D18*
%TO.C,U4*%
X105311500Y-84250000D03*
X105311500Y-84750000D03*
X105311500Y-85250000D03*
X105311500Y-85750000D03*
X105311500Y-86250000D03*
X105311500Y-86750000D03*
X105311500Y-87250000D03*
X105311500Y-87750000D03*
X105311500Y-88250000D03*
X105311500Y-88750000D03*
X105311500Y-89250000D03*
X105311500Y-89750000D03*
D19*
X106724000Y-91162500D03*
X107224000Y-91162500D03*
X107724000Y-91162500D03*
X108224000Y-91162500D03*
X108724000Y-91162500D03*
X109224000Y-91162500D03*
X109724000Y-91162500D03*
X110224000Y-91162500D03*
X110724000Y-91162500D03*
X111224000Y-91162500D03*
X111724000Y-91162500D03*
X112224000Y-91162500D03*
D18*
X113636500Y-89750000D03*
X113636500Y-89250000D03*
X113636500Y-88750000D03*
X113636500Y-88250000D03*
X113636500Y-87750000D03*
X113636500Y-87250000D03*
X113636500Y-86750000D03*
X113636500Y-86250000D03*
X113636500Y-85750000D03*
X113636500Y-85250000D03*
X113636500Y-84750000D03*
X113636500Y-84250000D03*
D19*
X112224000Y-82837500D03*
X111724000Y-82837500D03*
X111224000Y-82837500D03*
X110724000Y-82837500D03*
X110224000Y-82837500D03*
X109724000Y-82837500D03*
X109224000Y-82837500D03*
X108724000Y-82837500D03*
X108224000Y-82837500D03*
X107724000Y-82837500D03*
X107224000Y-82837500D03*
X106724000Y-82837500D03*
%TD*%
M02*
