%TF.GenerationSoftware,KiCad,Pcbnew,7.0.10*%
%TF.CreationDate,2024-04-08T13:26:29+08:00*%
%TF.ProjectId,pcb,7063622e-6b69-4636-9164-5f7063625858,rev?*%
%TF.SameCoordinates,Original*%
%TF.FileFunction,Paste,Top*%
%TF.FilePolarity,Positive*%
%FSLAX46Y46*%
G04 Gerber Fmt 4.6, Leading zero omitted, Abs format (unit mm)*
G04 Created by KiCad (PCBNEW 7.0.10) date 2024-04-08 13:26:29*
%MOMM*%
%LPD*%
G01*
G04 APERTURE LIST*
G04 Aperture macros list*
%AMRoundRect*
0 Rectangle with rounded corners*
0 $1 Rounding radius*
0 $2 $3 $4 $5 $6 $7 $8 $9 X,Y pos of 4 corners*
0 Add a 4 corners polygon primitive as box body*
4,1,4,$2,$3,$4,$5,$6,$7,$8,$9,$2,$3,0*
0 Add four circle primitives for the rounded corners*
1,1,$1+$1,$2,$3*
1,1,$1+$1,$4,$5*
1,1,$1+$1,$6,$7*
1,1,$1+$1,$8,$9*
0 Add four rect primitives between the rounded corners*
20,1,$1+$1,$2,$3,$4,$5,0*
20,1,$1+$1,$4,$5,$6,$7,0*
20,1,$1+$1,$6,$7,$8,$9,0*
20,1,$1+$1,$8,$9,$2,$3,0*%
G04 Aperture macros list end*
%ADD10R,2.180000X1.600000*%
%ADD11RoundRect,0.150000X-0.875000X-0.150000X0.875000X-0.150000X0.875000X0.150000X-0.875000X0.150000X0*%
%ADD12R,1.350000X0.400000*%
%ADD13R,1.900000X1.500000*%
%ADD14RoundRect,0.150000X-0.825000X-0.150000X0.825000X-0.150000X0.825000X0.150000X-0.825000X0.150000X0*%
%ADD15RoundRect,0.150000X0.150000X-0.825000X0.150000X0.825000X-0.150000X0.825000X-0.150000X-0.825000X0*%
G04 APERTURE END LIST*
D10*
%TO.C,SW1*%
X68410000Y-82000000D03*
X77590000Y-82000000D03*
%TD*%
D11*
%TO.C,U1*%
X156650000Y-84555000D03*
X156650000Y-85825000D03*
X156650000Y-87095000D03*
X156650000Y-88365000D03*
X156650000Y-89635000D03*
X156650000Y-90905000D03*
X156650000Y-92175000D03*
X156650000Y-93445000D03*
X147350000Y-93445000D03*
X147350000Y-92175000D03*
X147350000Y-90905000D03*
X147350000Y-89635000D03*
X147350000Y-88365000D03*
X147350000Y-87095000D03*
X147350000Y-85825000D03*
X147350000Y-84555000D03*
%TD*%
D12*
%TO.C,J1*%
X179537500Y-139300000D03*
X179537500Y-138650000D03*
X179537500Y-138000000D03*
X179537500Y-137350000D03*
X179537500Y-136700000D03*
D13*
X182237500Y-139000000D03*
X182237500Y-137000000D03*
%TD*%
D14*
%TO.C,U5*%
X108555000Y-128835000D03*
X108555000Y-130105000D03*
X108555000Y-131375000D03*
X108555000Y-132645000D03*
X108555000Y-133915000D03*
X108555000Y-135185000D03*
X108555000Y-136455000D03*
X108555000Y-137725000D03*
X113505000Y-137725000D03*
X113505000Y-136455000D03*
X113505000Y-135185000D03*
X113505000Y-133915000D03*
X113505000Y-132645000D03*
X113505000Y-131375000D03*
X113505000Y-130105000D03*
X113505000Y-128835000D03*
%TD*%
D15*
%TO.C,U3*%
X164160000Y-140340000D03*
X165430000Y-140340000D03*
X166700000Y-140340000D03*
X167970000Y-140340000D03*
X169240000Y-140340000D03*
X170510000Y-140340000D03*
X171780000Y-140340000D03*
X173050000Y-140340000D03*
X173050000Y-135390000D03*
X171780000Y-135390000D03*
X170510000Y-135390000D03*
X169240000Y-135390000D03*
X167970000Y-135390000D03*
X166700000Y-135390000D03*
X165430000Y-135390000D03*
X164160000Y-135390000D03*
%TD*%
M02*
