M48
; DRILL file {KiCad 7.0.10} date 西元2024年04月23日 (週二) 23時44分34秒
; FORMAT={-:-/ absolute / inch / decimal}
; #@! TF.CreationDate,2024-04-23T23:44:34+08:00
; #@! TF.GenerationSoftware,Kicad,Pcbnew,7.0.10
; #@! TF.FileFunction,Plated,1,2,PTH
FMAT,2
INCH
; #@! TA.AperFunction,Plated,PTH,ViaDrill
T1C0.0157
; #@! TA.AperFunction,Plated,PTH,ComponentDrill
T2C0.0197
; #@! TA.AperFunction,Plated,PTH,ComponentDrill
T3C0.0276
; #@! TA.AperFunction,Plated,PTH,ComponentDrill
T4C0.0315
; #@! TA.AperFunction,Plated,PTH,ComponentDrill
T5C0.0354
; #@! TA.AperFunction,Plated,PTH,ComponentDrill
T6C0.0394
; #@! TA.AperFunction,Plated,PTH,ComponentDrill
T7C0.0512
; #@! TA.AperFunction,Plated,PTH,ComponentDrill
T8C0.0591
; #@! TA.AperFunction,Plated,PTH,ComponentDrill
T9C0.0598
; #@! TA.AperFunction,Plated,PTH,ComponentDrill
T10C0.0669
%
G90
G05
T1
X3.622Y-4.0157
X3.622Y-4.2756
X3.69Y-4.28
X4.3701Y-3.3465
X4.3701Y-3.3976
X4.3701Y-3.4488
X4.3701Y-3.5039
X4.3701Y-3.7008
X4.4579Y-3.2071
X4.5591Y-3.3858
X4.5591Y-3.4646
X4.7835Y-3.1102
X4.8819Y-3.1102
X4.8819Y-3.1693
X4.9972Y-3.2106
X5.0394Y-3.1693
X6.3484Y-2.9295
X6.4528Y-2.2827
T2
X3.2726Y-3.6575
X3.3474Y-3.6575
T3
X2.74Y-4.22
X3.04Y-4.22
X3.18Y-4.22
X3.24Y-3.86
X3.476Y-2.6112
X3.476Y-2.7687
X3.48Y-4.22
X3.54Y-3.86
X3.776Y-2.6112
X3.776Y-2.7687
X3.9878Y-2.6112
X3.9878Y-2.7687
X3.9896Y-2.9262
X4.2878Y-2.6112
X4.2878Y-2.7687
X4.2896Y-2.9262
X4.39Y-4.0748
X4.39Y-4.2323
X4.69Y-4.0748
X4.69Y-4.2323
X4.83Y-3.7576
X4.83Y-3.915
X4.83Y-4.0725
X4.83Y-4.23
X5.13Y-3.7576
X5.13Y-3.915
X5.13Y-4.0725
X5.13Y-4.23
X5.2555Y-2.8421
X5.5555Y-2.8421
X5.69Y-2.47
X5.69Y-2.64
X5.69Y-2.84
X5.99Y-2.47
X5.99Y-2.64
X5.99Y-2.84
X6.14Y-2.84
X6.44Y-2.84
X6.6Y-2.84
X6.9Y-2.84
T4
X2.7933Y-2.7315
X2.7933Y-3.0315
X3.2008Y-2.1969
X3.2008Y-2.5197
X3.2992Y-2.1969
X3.2992Y-2.5197
X3.3416Y-4.04
X3.44Y-4.04
X3.5433Y-3.65
X3.6417Y-3.4
X3.6417Y-3.65
X3.7032Y-3.8583
X3.8017Y-3.8583
X3.8189Y-3.65
X3.8346Y-3.4
X3.9173Y-3.65
X3.9788Y-3.8583
X3.9902Y-3.1496
X4.0772Y-3.8583
X4.0886Y-3.1496
X4.2544Y-3.8583
X4.3528Y-3.8583
X4.53Y-3.8583
X4.6284Y-3.8583
X5.26Y-2.47
X5.26Y-2.64
X5.3726Y-2.22
X5.471Y-2.22
X5.56Y-2.47
X5.56Y-2.64
X5.6535Y-2.19
X5.752Y-2.19
X5.8908Y-2.19
X5.9892Y-2.19
X6.7916Y-2.61
X6.89Y-2.61
T5
X3.6215Y-2.4075
X3.622Y-2.1654
X3.7215Y-2.4075
X3.722Y-2.1654
X4.0545Y-2.4075
X4.0551Y-2.1654
X4.1545Y-2.4075
X4.1551Y-2.1654
T6
X2.7933Y-3.2906
X2.7933Y-3.3906
X2.7933Y-3.4906
X4.02Y-4.1047
X4.02Y-4.2047
X4.12Y-4.1047
X4.12Y-4.2047
X4.22Y-4.1047
X4.22Y-4.2047
X4.5157Y-2.1063
X4.5157Y-2.2063
X4.5157Y-2.3063
X4.9094Y-2.1063
X4.9094Y-2.2063
X4.9094Y-2.3063
T7
X6.9209Y-2.26
X7.0391Y-2.26
T8
X7.2276Y-2.7346
T9
X2.7933Y-2.3285
X2.7933Y-2.5285
X2.7933Y-3.7764
X2.7933Y-3.9764
T10
X7.1276Y-2.6346
X7.1276Y-2.8346
X7.3276Y-2.6346
X7.3276Y-2.8346
M30
