%TF.GenerationSoftware,KiCad,Pcbnew,7.0.10*%
%TF.CreationDate,2024-05-10T14:16:29+08:00*%
%TF.ProjectId,pcb,7063622e-6b69-4636-9164-5f7063625858,rev?*%
%TF.SameCoordinates,Original*%
%TF.FileFunction,Soldermask,Top*%
%TF.FilePolarity,Negative*%
%FSLAX46Y46*%
G04 Gerber Fmt 4.6, Leading zero omitted, Abs format (unit mm)*
G04 Created by KiCad (PCBNEW 7.0.10) date 2024-05-10 14:16:29*
%MOMM*%
%LPD*%
G01*
G04 APERTURE LIST*
G04 Aperture macros list*
%AMRoundRect*
0 Rectangle with rounded corners*
0 $1 Rounding radius*
0 $2 $3 $4 $5 $6 $7 $8 $9 X,Y pos of 4 corners*
0 Add a 4 corners polygon primitive as box body*
4,1,4,$2,$3,$4,$5,$6,$7,$8,$9,$2,$3,0*
0 Add four circle primitives for the rounded corners*
1,1,$1+$1,$2,$3*
1,1,$1+$1,$4,$5*
1,1,$1+$1,$6,$7*
1,1,$1+$1,$8,$9*
0 Add four rect primitives between the rounded corners*
20,1,$1+$1,$2,$3,$4,$5,0*
20,1,$1+$1,$4,$5,$6,$7,0*
20,1,$1+$1,$6,$7,$8,$9,0*
20,1,$1+$1,$8,$9,$2,$3,0*%
%AMRotRect*
0 Rectangle, with rotation*
0 The origin of the aperture is its center*
0 $1 length*
0 $2 width*
0 $3 Rotation angle, in degrees counterclockwise*
0 Add horizontal line*
21,1,$1,$2,0,0,$3*%
G04 Aperture macros list end*
%ADD10C,1.400000*%
%ADD11O,1.400000X1.400000*%
%ADD12R,1.800000X1.800000*%
%ADD13C,1.800000*%
%ADD14C,1.600000*%
%ADD15R,1.700000X1.700000*%
%ADD16O,1.700000X1.700000*%
%ADD17C,3.200000*%
%ADD18RoundRect,0.200000X-0.700000X-0.200000X0.700000X-0.200000X0.700000X0.200000X-0.700000X0.200000X0*%
%ADD19C,1.500000*%
%ADD20R,1.600000X2.180000*%
%ADD21R,3.000000X3.000000*%
%ADD22C,3.000000*%
%ADD23R,2.000000X1.500000*%
%ADD24R,2.000000X3.800000*%
%ADD25C,0.240000*%
%ADD26R,1.600000X1.600000*%
%ADD27O,1.600000X1.600000*%
%ADD28C,2.050000*%
%ADD29C,2.250000*%
%ADD30RotRect,2.500000X5.100000X50.000000*%
%ADD31C,10.200000*%
%ADD32C,2.600000*%
%ADD33RoundRect,0.150000X-0.875000X-0.150000X0.875000X-0.150000X0.875000X0.150000X-0.875000X0.150000X0*%
%ADD34RoundRect,0.150000X-0.675000X-0.150000X0.675000X-0.150000X0.675000X0.150000X-0.675000X0.150000X0*%
%ADD35RoundRect,0.075000X-0.662500X-0.075000X0.662500X-0.075000X0.662500X0.075000X-0.662500X0.075000X0*%
%ADD36RoundRect,0.075000X-0.075000X-0.662500X0.075000X-0.662500X0.075000X0.662500X-0.075000X0.662500X0*%
G04 APERTURE END LIST*
D10*
%TO.C,R12*%
X69596000Y-107188000D03*
D11*
X77216000Y-107188000D03*
%TD*%
D12*
%TO.C,D4*%
X102985000Y-61150000D03*
D13*
X105525000Y-61150000D03*
%TD*%
D14*
%TO.C,C10*%
X143600000Y-55626000D03*
X146100000Y-55626000D03*
%TD*%
D15*
%TO.C,J4*%
X102108000Y-106800000D03*
D16*
X102108000Y-104260000D03*
X104648000Y-106800000D03*
X104648000Y-104260000D03*
X107188000Y-106800000D03*
X107188000Y-104260000D03*
%TD*%
D10*
%TO.C,R7*%
X101290000Y-66325000D03*
D11*
X108910000Y-66325000D03*
%TD*%
D17*
%TO.C,H1*%
X68100000Y-48600000D03*
%TD*%
D10*
%TO.C,R15*%
X122682000Y-99442000D03*
D11*
X130302000Y-99442000D03*
%TD*%
D10*
%TO.C,R16*%
X122682000Y-95442000D03*
D11*
X130302000Y-95442000D03*
%TD*%
D14*
%TO.C,C7*%
X90910000Y-92750000D03*
X93410000Y-92750000D03*
%TD*%
D10*
%TO.C,R10*%
X111506000Y-103500000D03*
D11*
X119126000Y-103500000D03*
%TD*%
D12*
%TO.C,D1*%
X103000000Y-55000000D03*
D13*
X105540000Y-55000000D03*
%TD*%
D10*
%TO.C,R17*%
X144526000Y-72136000D03*
D11*
X152146000Y-72136000D03*
%TD*%
D18*
%TO.C,U6*%
X155894000Y-53588000D03*
X155894000Y-54688000D03*
X155894000Y-55788000D03*
X155894000Y-56888000D03*
X155894000Y-57988000D03*
X155894000Y-59088000D03*
X155894000Y-60188000D03*
X155894000Y-63188000D03*
X155894000Y-64288000D03*
X155894000Y-65388000D03*
X155894000Y-66488000D03*
X155894000Y-67588000D03*
X167894000Y-67588000D03*
X167894000Y-66488000D03*
X167894000Y-65388000D03*
X167894000Y-64288000D03*
X167894000Y-63188000D03*
X167894000Y-60188000D03*
X167894000Y-59088000D03*
X167894000Y-57988000D03*
X167894000Y-56888000D03*
X167894000Y-55788000D03*
X167894000Y-54688000D03*
X167894000Y-53588000D03*
%TD*%
D19*
%TO.C,Y1*%
X92500000Y-86360000D03*
X97400000Y-86360000D03*
%TD*%
D10*
%TO.C,R5*%
X88290000Y-66325000D03*
D11*
X95910000Y-66325000D03*
%TD*%
D20*
%TO.C,SW1*%
X82980000Y-92410000D03*
X82980000Y-83230000D03*
%TD*%
D14*
%TO.C,C6*%
X97000000Y-92710000D03*
X99500000Y-92710000D03*
%TD*%
D10*
%TO.C,R20*%
X144526000Y-62738000D03*
D11*
X152146000Y-62738000D03*
%TD*%
D12*
%TO.C,D2*%
X92000000Y-55000000D03*
D13*
X94540000Y-55000000D03*
%TD*%
D10*
%TO.C,R19*%
X167640000Y-72136000D03*
D11*
X175260000Y-72136000D03*
%TD*%
D10*
%TO.C,R9*%
X111506000Y-107500000D03*
D11*
X119126000Y-107500000D03*
%TD*%
D12*
%TO.C,D3*%
X91985000Y-61150000D03*
D13*
X94525000Y-61150000D03*
%TD*%
D17*
%TO.C,H4*%
X68100000Y-114400000D03*
%TD*%
D21*
%TO.C,J5*%
X70950000Y-101000000D03*
D22*
X70950000Y-95920000D03*
%TD*%
D23*
%TO.C,U1*%
X76758000Y-73138000D03*
X76758000Y-75438000D03*
D24*
X83058000Y-75438000D03*
D23*
X76758000Y-77738000D03*
%TD*%
D25*
%TO.C,U2*%
X160274000Y-92310000D03*
X160284000Y-92710000D03*
X160274000Y-93110000D03*
X159874000Y-92310000D03*
X159874000Y-93110000D03*
X159474000Y-92310000D03*
X159474000Y-92710000D03*
X159474000Y-93110000D03*
%TD*%
D26*
%TO.C,C1*%
X81300000Y-55800000D03*
D14*
X83800000Y-55800000D03*
%TD*%
D26*
%TO.C,D6*%
X133604000Y-62738000D03*
D27*
X141224000Y-62738000D03*
%TD*%
D10*
%TO.C,R8*%
X101335000Y-74325000D03*
D11*
X108955000Y-74325000D03*
%TD*%
D10*
%TO.C,R14*%
X144526000Y-67056000D03*
D11*
X152146000Y-67056000D03*
%TD*%
D26*
%TO.C,D7*%
X133604000Y-67056000D03*
D27*
X141224000Y-67056000D03*
%TD*%
D14*
%TO.C,C9*%
X115062000Y-98000000D03*
X117562000Y-98000000D03*
%TD*%
D26*
%TO.C,C8*%
X136462888Y-56388000D03*
D14*
X138962888Y-56388000D03*
%TD*%
D17*
%TO.C,H2*%
X186900000Y-48600000D03*
%TD*%
D10*
%TO.C,R13*%
X82296000Y-98044000D03*
D11*
X89916000Y-98044000D03*
%TD*%
D15*
%TO.C,J2*%
X70950000Y-83581000D03*
D16*
X70950000Y-86121000D03*
X70950000Y-88661000D03*
%TD*%
D14*
%TO.C,C5*%
X88430000Y-77870000D03*
X90930000Y-77870000D03*
%TD*%
D21*
%TO.C,J1*%
X70950000Y-64225000D03*
D22*
X70950000Y-59145000D03*
%TD*%
D10*
%TO.C,R18*%
X155956000Y-72136000D03*
D11*
X163576000Y-72136000D03*
%TD*%
D10*
%TO.C,R2*%
X122682000Y-107442000D03*
D11*
X130302000Y-107442000D03*
%TD*%
D10*
%TO.C,R1*%
X133490000Y-72190000D03*
D11*
X141110000Y-72190000D03*
%TD*%
D15*
%TO.C,J6*%
X124700000Y-53500000D03*
D16*
X124700000Y-56040000D03*
X124700000Y-58580000D03*
%TD*%
D28*
%TO.C,J7*%
X183580000Y-69460000D03*
D29*
X181040000Y-66920000D03*
X181040000Y-72000000D03*
X186120000Y-66920000D03*
X186120000Y-72000000D03*
%TD*%
D17*
%TO.C,H3*%
X186900000Y-114400000D03*
%TD*%
D14*
%TO.C,C11*%
X149626000Y-55626000D03*
X152126000Y-55626000D03*
%TD*%
D10*
%TO.C,R6*%
X88290000Y-70325000D03*
D11*
X95910000Y-70325000D03*
%TD*%
D14*
%TO.C,C12*%
X172506000Y-66294000D03*
X175006000Y-66294000D03*
%TD*%
D15*
%TO.C,J3*%
X114700000Y-53500000D03*
D16*
X114700000Y-56040000D03*
X114700000Y-58580000D03*
%TD*%
D30*
%TO.C,BT1*%
X117114814Y-75821938D03*
X126885186Y-64178062D03*
D31*
X122000000Y-70000000D03*
%TD*%
D10*
%TO.C,R4*%
X101290000Y-70325000D03*
D11*
X108910000Y-70325000D03*
%TD*%
D14*
%TO.C,C3*%
X108062000Y-98000000D03*
X110562000Y-98000000D03*
%TD*%
D10*
%TO.C,R11*%
X80772000Y-107188000D03*
D11*
X88392000Y-107188000D03*
%TD*%
D26*
%TO.C,C2*%
X81300000Y-64000000D03*
D14*
X83800000Y-64000000D03*
%TD*%
D32*
%TO.C,L1*%
X175792000Y-57404000D03*
X178792000Y-57404000D03*
%TD*%
D14*
%TO.C,C4*%
X84876000Y-102616000D03*
X87376000Y-102616000D03*
%TD*%
D33*
%TO.C,U5*%
X120826000Y-82423000D03*
X120826000Y-83693000D03*
X120826000Y-84963000D03*
X120826000Y-86233000D03*
X120826000Y-87503000D03*
X120826000Y-88773000D03*
X120826000Y-90043000D03*
X120826000Y-91313000D03*
X130126000Y-91313000D03*
X130126000Y-90043000D03*
X130126000Y-88773000D03*
X130126000Y-87503000D03*
X130126000Y-86233000D03*
X130126000Y-84963000D03*
X130126000Y-83693000D03*
X130126000Y-82423000D03*
%TD*%
D26*
%TO.C,D5*%
X70950000Y-77000000D03*
D27*
X70950000Y-69380000D03*
%TD*%
D34*
%TO.C,U3*%
X92117000Y-103595000D03*
X92117000Y-104865000D03*
X92117000Y-106135000D03*
X92117000Y-107405000D03*
X97367000Y-107405000D03*
X97367000Y-106135000D03*
X97367000Y-104865000D03*
X97367000Y-103595000D03*
%TD*%
D35*
%TO.C,U4*%
X105311500Y-84250000D03*
X105311500Y-84750000D03*
X105311500Y-85250000D03*
X105311500Y-85750000D03*
X105311500Y-86250000D03*
X105311500Y-86750000D03*
X105311500Y-87250000D03*
X105311500Y-87750000D03*
X105311500Y-88250000D03*
X105311500Y-88750000D03*
X105311500Y-89250000D03*
X105311500Y-89750000D03*
D36*
X106724000Y-91162500D03*
X107224000Y-91162500D03*
X107724000Y-91162500D03*
X108224000Y-91162500D03*
X108724000Y-91162500D03*
X109224000Y-91162500D03*
X109724000Y-91162500D03*
X110224000Y-91162500D03*
X110724000Y-91162500D03*
X111224000Y-91162500D03*
X111724000Y-91162500D03*
X112224000Y-91162500D03*
D35*
X113636500Y-89750000D03*
X113636500Y-89250000D03*
X113636500Y-88750000D03*
X113636500Y-88250000D03*
X113636500Y-87750000D03*
X113636500Y-87250000D03*
X113636500Y-86750000D03*
X113636500Y-86250000D03*
X113636500Y-85750000D03*
X113636500Y-85250000D03*
X113636500Y-84750000D03*
X113636500Y-84250000D03*
D36*
X112224000Y-82837500D03*
X111724000Y-82837500D03*
X111224000Y-82837500D03*
X110724000Y-82837500D03*
X110224000Y-82837500D03*
X109724000Y-82837500D03*
X109224000Y-82837500D03*
X108724000Y-82837500D03*
X108224000Y-82837500D03*
X107724000Y-82837500D03*
X107224000Y-82837500D03*
X106724000Y-82837500D03*
%TD*%
D10*
%TO.C,R3*%
X122682000Y-103442000D03*
D11*
X130302000Y-103442000D03*
%TD*%
M02*
