%TF.GenerationSoftware,KiCad,Pcbnew,7.0.10*%
%TF.CreationDate,2024-05-10T14:16:29+08:00*%
%TF.ProjectId,pcb,7063622e-6b69-4636-9164-5f7063625858,rev?*%
%TF.SameCoordinates,Original*%
%TF.FileFunction,Soldermask,Bot*%
%TF.FilePolarity,Negative*%
%FSLAX46Y46*%
G04 Gerber Fmt 4.6, Leading zero omitted, Abs format (unit mm)*
G04 Created by KiCad (PCBNEW 7.0.10) date 2024-05-10 14:16:29*
%MOMM*%
%LPD*%
G01*
G04 APERTURE LIST*
%ADD10C,1.400000*%
%ADD11O,1.400000X1.400000*%
%ADD12R,1.800000X1.800000*%
%ADD13C,1.800000*%
%ADD14C,1.600000*%
%ADD15R,1.700000X1.700000*%
%ADD16O,1.700000X1.700000*%
%ADD17C,3.200000*%
%ADD18C,1.500000*%
%ADD19R,3.000000X3.000000*%
%ADD20C,3.000000*%
%ADD21R,1.600000X1.600000*%
%ADD22O,1.600000X1.600000*%
%ADD23C,2.050000*%
%ADD24C,2.250000*%
%ADD25C,2.600000*%
G04 APERTURE END LIST*
D10*
%TO.C,R12*%
X69596000Y-107188000D03*
D11*
X77216000Y-107188000D03*
%TD*%
D12*
%TO.C,D4*%
X102985000Y-61150000D03*
D13*
X105525000Y-61150000D03*
%TD*%
D14*
%TO.C,C10*%
X143600000Y-55626000D03*
X146100000Y-55626000D03*
%TD*%
D15*
%TO.C,J4*%
X102108000Y-106800000D03*
D16*
X102108000Y-104260000D03*
X104648000Y-106800000D03*
X104648000Y-104260000D03*
X107188000Y-106800000D03*
X107188000Y-104260000D03*
%TD*%
D10*
%TO.C,R7*%
X101290000Y-66325000D03*
D11*
X108910000Y-66325000D03*
%TD*%
D17*
%TO.C,H1*%
X68100000Y-48600000D03*
%TD*%
D10*
%TO.C,R15*%
X122682000Y-99442000D03*
D11*
X130302000Y-99442000D03*
%TD*%
D10*
%TO.C,R16*%
X122682000Y-95442000D03*
D11*
X130302000Y-95442000D03*
%TD*%
D14*
%TO.C,C7*%
X90910000Y-92750000D03*
X93410000Y-92750000D03*
%TD*%
D10*
%TO.C,R10*%
X111506000Y-103500000D03*
D11*
X119126000Y-103500000D03*
%TD*%
D12*
%TO.C,D1*%
X103000000Y-55000000D03*
D13*
X105540000Y-55000000D03*
%TD*%
D10*
%TO.C,R17*%
X144526000Y-72136000D03*
D11*
X152146000Y-72136000D03*
%TD*%
D18*
%TO.C,Y1*%
X92500000Y-86360000D03*
X97400000Y-86360000D03*
%TD*%
D10*
%TO.C,R5*%
X88290000Y-66325000D03*
D11*
X95910000Y-66325000D03*
%TD*%
D14*
%TO.C,C6*%
X97000000Y-92710000D03*
X99500000Y-92710000D03*
%TD*%
D10*
%TO.C,R20*%
X144526000Y-62738000D03*
D11*
X152146000Y-62738000D03*
%TD*%
D12*
%TO.C,D2*%
X92000000Y-55000000D03*
D13*
X94540000Y-55000000D03*
%TD*%
D10*
%TO.C,R19*%
X167640000Y-72136000D03*
D11*
X175260000Y-72136000D03*
%TD*%
D10*
%TO.C,R9*%
X111506000Y-107500000D03*
D11*
X119126000Y-107500000D03*
%TD*%
D12*
%TO.C,D3*%
X91985000Y-61150000D03*
D13*
X94525000Y-61150000D03*
%TD*%
D17*
%TO.C,H4*%
X68100000Y-114400000D03*
%TD*%
D19*
%TO.C,J5*%
X70950000Y-101000000D03*
D20*
X70950000Y-95920000D03*
%TD*%
D21*
%TO.C,C1*%
X81300000Y-55800000D03*
D14*
X83800000Y-55800000D03*
%TD*%
D21*
%TO.C,D6*%
X133604000Y-62738000D03*
D22*
X141224000Y-62738000D03*
%TD*%
D10*
%TO.C,R8*%
X101335000Y-74325000D03*
D11*
X108955000Y-74325000D03*
%TD*%
D10*
%TO.C,R14*%
X144526000Y-67056000D03*
D11*
X152146000Y-67056000D03*
%TD*%
D21*
%TO.C,D7*%
X133604000Y-67056000D03*
D22*
X141224000Y-67056000D03*
%TD*%
D14*
%TO.C,C9*%
X115062000Y-98000000D03*
X117562000Y-98000000D03*
%TD*%
D21*
%TO.C,C8*%
X136462888Y-56388000D03*
D14*
X138962888Y-56388000D03*
%TD*%
D17*
%TO.C,H2*%
X186900000Y-48600000D03*
%TD*%
D10*
%TO.C,R13*%
X82296000Y-98044000D03*
D11*
X89916000Y-98044000D03*
%TD*%
D15*
%TO.C,J2*%
X70950000Y-83581000D03*
D16*
X70950000Y-86121000D03*
X70950000Y-88661000D03*
%TD*%
D14*
%TO.C,C5*%
X88430000Y-77870000D03*
X90930000Y-77870000D03*
%TD*%
D19*
%TO.C,J1*%
X70950000Y-64225000D03*
D20*
X70950000Y-59145000D03*
%TD*%
D10*
%TO.C,R18*%
X155956000Y-72136000D03*
D11*
X163576000Y-72136000D03*
%TD*%
D10*
%TO.C,R2*%
X122682000Y-107442000D03*
D11*
X130302000Y-107442000D03*
%TD*%
D10*
%TO.C,R1*%
X133490000Y-72190000D03*
D11*
X141110000Y-72190000D03*
%TD*%
D15*
%TO.C,J6*%
X124700000Y-53500000D03*
D16*
X124700000Y-56040000D03*
X124700000Y-58580000D03*
%TD*%
D23*
%TO.C,J7*%
X183580000Y-69460000D03*
D24*
X181040000Y-66920000D03*
X181040000Y-72000000D03*
X186120000Y-66920000D03*
X186120000Y-72000000D03*
%TD*%
D17*
%TO.C,H3*%
X186900000Y-114400000D03*
%TD*%
D14*
%TO.C,C11*%
X149626000Y-55626000D03*
X152126000Y-55626000D03*
%TD*%
D10*
%TO.C,R6*%
X88290000Y-70325000D03*
D11*
X95910000Y-70325000D03*
%TD*%
D14*
%TO.C,C12*%
X172506000Y-66294000D03*
X175006000Y-66294000D03*
%TD*%
D15*
%TO.C,J3*%
X114700000Y-53500000D03*
D16*
X114700000Y-56040000D03*
X114700000Y-58580000D03*
%TD*%
D10*
%TO.C,R4*%
X101290000Y-70325000D03*
D11*
X108910000Y-70325000D03*
%TD*%
D14*
%TO.C,C3*%
X108062000Y-98000000D03*
X110562000Y-98000000D03*
%TD*%
D10*
%TO.C,R11*%
X80772000Y-107188000D03*
D11*
X88392000Y-107188000D03*
%TD*%
D21*
%TO.C,C2*%
X81300000Y-64000000D03*
D14*
X83800000Y-64000000D03*
%TD*%
D25*
%TO.C,L1*%
X175792000Y-57404000D03*
X178792000Y-57404000D03*
%TD*%
D14*
%TO.C,C4*%
X84876000Y-102616000D03*
X87376000Y-102616000D03*
%TD*%
D21*
%TO.C,D5*%
X70950000Y-77000000D03*
D22*
X70950000Y-69380000D03*
%TD*%
D10*
%TO.C,R3*%
X122682000Y-103442000D03*
D11*
X130302000Y-103442000D03*
%TD*%
M02*
