  0
SECTION
  2
HEADER
  9
$ANGBASE
  50
0.0
  9
$ANGDIR
  70
1
  9
$MEASUREMENT
  70
0
  0
ENDSEC
  0
SECTION
  2
TABLES
  0
TABLE
  2
LTYPE
  70
4
  0
LTYPE
  5
40F
  2
CONTINUOUS
  70
0
  3
Solid line
  72
65
  73
0
  40
0.0
  0
LTYPE
  5
410
  2
DASHDOT
 70
0
  3
Dash Dot ____ _ ____ _
 72
65
 73
4
 40
2.0
 49
1.25
 49
-0.25
 49
0.25
 49
-0.25
  0
LTYPE
  5
411
  2
DASHED
 70
0
  3
Dashed __ __ __ __ __
 72
65
 73
2
 40
0.75
 49
0.5
 49
-0.25
  0
LTYPE
  5
43B
  2
DOTTED
 70
0
  3
Dotted .  .  .  .
 72
65
 73
2
 40
0.2
 49
0.0
 49
-0.2
  0
ENDTAB
  0
TABLE
  2
STYLE
  70
4
  0
STYLE
  2
KICAD
  70
0
  40
0
  41
1
  42
1
  50
0
  71
0
  3
isocp.shx
  0
STYLE
  2
KICADB
  70
0
  40
0
  41
1
  42
1
  50
0
  71
0
  3
isocp.shx
  0
STYLE
  2
KICADI
  70
0
  40
0
  41
1
  42
1
  50
15
  71
0
  3
isocp.shx
  0
STYLE
  2
KICADBI
  70
0
  40
0
  41
1
  42
1
  50
15
  71
0
  3
isocp.shx
  0
ENDTAB
  0
TABLE
  2
LAYER
  70
1
  0
LAYER
  2
BLACK
  70
0
  62
7
  6
CONTINUOUS
  0
ENDTAB
  0
ENDSEC
  0
SECTION
  2
ENTITIES
0
LINE
8
BLACK
6
CONTINUOUS
10
2.4803149606299213
20
-1.4960629921259843
11
7.2834645669291334
21
-1.4960629921259843
0
LINE
8
BLACK
6
CONTINUOUS
10
7.2834645669291334
20
-1.4960629921259843
11
7.2834645669291334
21
-6.2992125984251963
0
LINE
8
BLACK
6
CONTINUOUS
10
7.2834645669291334
20
-6.2992125984251963
11
2.4803149606299213
21
-6.2992125984251963
0
LINE
8
BLACK
6
CONTINUOUS
10
2.4803149606299213
20
-6.2992125984251963
11
2.4803149606299213
21
-1.4960629921259843
0
CIRCLE
8
BLACK
10
4.8425196850393704
20
-3.9370078740157481
40
0.5905511811023622
0
LINE
8
BLACK
6
CONTINUOUS
10
2.5748031496062991
20
-1.5905511811023623
11
2.7007874015748032
21
-1.7165354330708662
0
LINE
8
BLACK
6
CONTINUOUS
10
2.7007874015748032
20
-1.5905511811023623
11
2.5748031496062991
21
-1.7165354330708662
0
LINE
8
BLACK
6
CONTINUOUS
10
2.5748031496062991
20
-6.0787401574803148
11
2.7007874015748032
21
-6.2047244094488185
0
LINE
8
BLACK
6
CONTINUOUS
10
2.7007874015748032
20
-6.0787401574803148
11
2.5748031496062991
21
-6.2047244094488185
0
LINE
8
BLACK
6
CONTINUOUS
10
7.0629921259842519
20
-1.5905511811023623
11
7.1889763779527556
21
-1.7165354330708662
0
LINE
8
BLACK
6
CONTINUOUS
10
7.1889763779527556
20
-1.5905511811023623
11
7.0629921259842519
21
-1.7165354330708662
0
LINE
8
BLACK
6
CONTINUOUS
10
7.0629921259842519
20
-6.0787401574803148
11
7.1889763779527556
21
-6.2047244094488185
0
LINE
8
BLACK
6
CONTINUOUS
10
7.1889763779527556
20
-6.0787401574803148
11
7.0629921259842519
21
-6.2047244094488185
0
CIRCLE
8
BLACK
10
4.3503937007874018
20
-3.4448818897637796
40
0.0669291338582677
0
CIRCLE
8
BLACK
10
4.3503937007874018
20
-4.4291338582677167
40
0.0669291338582677
0
CIRCLE
8
BLACK
10
5.3346456692913389
20
-3.4448818897637796
40
0.0669291338582677
0
CIRCLE
8
BLACK
10
5.3346456692913389
20
-4.4291338582677167
40
0.0669291338582677
0
LINE
8
BLACK
6
CONTINUOUS
10
2.5800302362204723
20
-6.4247967716535435
11
2.5800302362204723
21
-6.3460566141732286
0
LINE
8
BLACK
6
CONTINUOUS
10
2.5800302362204723
20
-6.3460566141732286
11
2.5987778740157479
21
-6.3460566141732286
0
LINE
8
BLACK
6
CONTINUOUS
10
2.5987778740157479
20
-6.3460566141732286
11
2.610026496062992
21
-6.3498061417322837
0
LINE
8
BLACK
6
CONTINUOUS
10
2.610026496062992
20
-6.3498061417322837
11
2.6175255511811022
21
-6.357305196850394
0
LINE
8
BLACK
6
CONTINUOUS
10
2.6175255511811022
20
-6.357305196850394
11
2.6212750787401573
21
-6.3648042519685042
0
LINE
8
BLACK
6
CONTINUOUS
10
2.6212750787401573
20
-6.3648042519685042
11
2.6250246062992124
21
-6.3798023622047246
0
LINE
8
BLACK
6
CONTINUOUS
10
2.6250246062992124
20
-6.3798023622047246
11
2.6250246062992124
21
-6.3910509842519687
0
LINE
8
BLACK
6
CONTINUOUS
10
2.6250246062992124
20
-6.3910509842519687
11
2.6212750787401573
21
-6.4060490944881892
0
LINE
8
BLACK
6
CONTINUOUS
10
2.6212750787401573
20
-6.4060490944881892
11
2.6175255511811022
21
-6.4135481496062994
0
LINE
8
BLACK
6
CONTINUOUS
10
2.6175255511811022
20
-6.4135481496062994
11
2.610026496062992
21
-6.4210472440944883
0
LINE
8
BLACK
6
CONTINUOUS
10
2.610026496062992
20
-6.4210472440944883
11
2.5987778740157479
21
-6.4247967716535435
0
LINE
8
BLACK
6
CONTINUOUS
10
2.5987778740157479
20
-6.4247967716535435
11
2.5800302362204723
21
-6.4247967716535435
0
LINE
8
BLACK
6
CONTINUOUS
10
2.6587703937007872
20
-6.4247967716535435
11
2.6587703937007872
21
-6.3723033070866144
0
LINE
8
BLACK
6
CONTINUOUS
10
2.6587703937007872
20
-6.3873014566929136
11
2.6625199212598423
21
-6.3798023622047246
0
LINE
8
BLACK
6
CONTINUOUS
10
2.6625199212598423
20
-6.3798023622047246
11
2.6662694488188974
21
-6.3760528346456695
0
LINE
8
BLACK
6
CONTINUOUS
10
2.6662694488188974
20
-6.3760528346456695
11
2.6737685039370076
21
-6.3723033070866144
0
LINE
8
BLACK
6
CONTINUOUS
10
2.6737685039370076
20
-6.3723033070866144
11
2.6812675984251966
21
-6.3723033070866144
0
LINE
8
BLACK
6
CONTINUOUS
10
2.7075142913385828
20
-6.4247967716535435
11
2.7075142913385828
21
-6.3723033070866144
0
LINE
8
BLACK
6
CONTINUOUS
10
2.7075142913385828
20
-6.3460566141732286
11
2.7037647637795277
21
-6.3498061417322837
0
LINE
8
BLACK
6
CONTINUOUS
10
2.7037647637795277
20
-6.3498061417322837
11
2.7075142913385828
21
-6.3535556692913389
0
LINE
8
BLACK
6
CONTINUOUS
10
2.7075142913385828
20
-6.3535556692913389
11
2.7112638188976379
21
-6.3498061417322837
0
LINE
8
BLACK
6
CONTINUOUS
10
2.7112638188976379
20
-6.3498061417322837
11
2.7075142913385828
21
-6.3460566141732286
0
LINE
8
BLACK
6
CONTINUOUS
10
2.7075142913385828
20
-6.3460566141732286
11
2.7075142913385828
21
-6.3535556692913389
0
LINE
8
BLACK
6
CONTINUOUS
10
2.756258188976378
20
-6.4247967716535435
11
2.7487591338582678
21
-6.4210472440944883
0
LINE
8
BLACK
6
CONTINUOUS
10
2.7487591338582678
20
-6.4210472440944883
11
2.7450096062992126
21
-6.4135481496062994
0
LINE
8
BLACK
6
CONTINUOUS
10
2.7450096062992126
20
-6.4135481496062994
11
2.7450096062992126
21
-6.3460566141732286
0
LINE
8
BLACK
6
CONTINUOUS
10
2.7975030314960629
20
-6.4247967716535435
11
2.7900039763779527
21
-6.4210472440944883
0
LINE
8
BLACK
6
CONTINUOUS
10
2.7900039763779527
20
-6.4210472440944883
11
2.7862544488188976
21
-6.4135481496062994
0
LINE
8
BLACK
6
CONTINUOUS
10
2.7862544488188976
20
-6.4135481496062994
11
2.7862544488188976
21
-6.3460566141732286
0
LINE
8
BLACK
6
CONTINUOUS
10
2.8874918110236218
20
-6.4247967716535435
11
2.8874918110236218
21
-6.3460566141732286
0
LINE
8
BLACK
6
CONTINUOUS
10
2.8874918110236218
20
-6.3460566141732286
11
2.9137385433070864
21
-6.402299566929134
0
LINE
8
BLACK
6
CONTINUOUS
10
2.9137385433070864
20
-6.402299566929134
11
2.9399852362204726
21
-6.3460566141732286
0
LINE
8
BLACK
6
CONTINUOUS
10
2.9399852362204726
20
-6.3460566141732286
11
2.9399852362204726
21
-6.4247967716535435
0
LINE
8
BLACK
6
CONTINUOUS
10
3.0112263385826772
20
-6.4247967716535435
11
3.0112263385826772
21
-6.3835519291338585
0
LINE
8
BLACK
6
CONTINUOUS
10
3.0112263385826772
20
-6.3835519291338585
11
3.0074768110236221
21
-6.3760528346456695
0
LINE
8
BLACK
6
CONTINUOUS
10
3.0074768110236221
20
-6.3760528346456695
11
2.9999777559055119
21
-6.3723033070866144
0
LINE
8
BLACK
6
CONTINUOUS
10
2.9999777559055119
20
-6.3723033070866144
11
2.9849796062992127
21
-6.3723033070866144
0
LINE
8
BLACK
6
CONTINUOUS
10
2.9849796062992127
20
-6.3723033070866144
11
2.9774805511811024
21
-6.3760528346456695
0
LINE
8
BLACK
6
CONTINUOUS
10
3.0112263385826772
20
-6.4210472440944883
11
3.003727283464567
21
-6.4247967716535435
0
LINE
8
BLACK
6
CONTINUOUS
10
3.003727283464567
20
-6.4247967716535435
11
2.9849796062992127
21
-6.4247967716535435
0
LINE
8
BLACK
6
CONTINUOUS
10
2.9849796062992127
20
-6.4247967716535435
11
2.9774805511811024
21
-6.4210472440944883
0
LINE
8
BLACK
6
CONTINUOUS
10
2.9774805511811024
20
-6.4210472440944883
11
2.9737310236220473
21
-6.4135481496062994
0
LINE
8
BLACK
6
CONTINUOUS
10
2.9737310236220473
20
-6.4135481496062994
11
2.9737310236220473
21
-6.4060490944881892
0
LINE
8
BLACK
6
CONTINUOUS
10
2.9737310236220473
20
-6.4060490944881892
11
2.9774805511811024
21
-6.3985500393700789
0
LINE
8
BLACK
6
CONTINUOUS
10
2.9774805511811024
20
-6.3985500393700789
11
2.9849796062992127
21
-6.3948005118110238
0
LINE
8
BLACK
6
CONTINUOUS
10
2.9849796062992127
20
-6.3948005118110238
11
3.003727283464567
21
-6.3948005118110238
0
LINE
8
BLACK
6
CONTINUOUS
10
3.003727283464567
20
-6.3948005118110238
11
3.0112263385826772
21
-6.3910509842519687
0
LINE
8
BLACK
6
CONTINUOUS
10
3.048721653543307
20
-6.3723033070866144
11
3.048721653543307
21
-6.4510434645669292
0
LINE
8
BLACK
6
CONTINUOUS
10
3.048721653543307
20
-6.3760528346456695
11
3.0562207086614173
21
-6.3723033070866144
0
LINE
8
BLACK
6
CONTINUOUS
10
3.0562207086614173
20
-6.3723033070866144
11
3.0712188582677165
21
-6.3723033070866144
0
LINE
8
BLACK
6
CONTINUOUS
10
3.0712188582677165
20
-6.3723033070866144
11
3.0787179133858267
21
-6.3760528346456695
0
LINE
8
BLACK
6
CONTINUOUS
10
3.0787179133858267
20
-6.3760528346456695
11
3.0824674409448818
21
-6.3798023622047246
0
LINE
8
BLACK
6
CONTINUOUS
10
3.0824674409448818
20
-6.3798023622047246
11
3.0862169685039369
21
-6.3873014566929136
0
LINE
8
BLACK
6
CONTINUOUS
10
3.0862169685039369
20
-6.3873014566929136
11
3.0862169685039369
21
-6.4097986220472443
0
LINE
8
BLACK
6
CONTINUOUS
10
3.0862169685039369
20
-6.4097986220472443
11
3.0824674409448818
21
-6.4172976771653545
0
LINE
8
BLACK
6
CONTINUOUS
10
3.0824674409448818
20
-6.4172976771653545
11
3.0787179133858267
21
-6.4210472440944883
0
LINE
8
BLACK
6
CONTINUOUS
10
3.0787179133858267
20
-6.4210472440944883
11
3.0712188582677165
21
-6.4247967716535435
0
LINE
8
BLACK
6
CONTINUOUS
10
3.0712188582677165
20
-6.4247967716535435
11
3.0562207086614173
21
-6.4247967716535435
0
LINE
8
BLACK
6
CONTINUOUS
10
3.0562207086614173
20
-6.4247967716535435
11
3.048721653543307
21
-6.4210472440944883
0
LINE
8
BLACK
6
CONTINUOUS
10
3.1199627559055116
20
-6.4172976771653545
11
3.1237122834645668
21
-6.4210472440944883
0
LINE
8
BLACK
6
CONTINUOUS
10
3.1237122834645668
20
-6.4210472440944883
11
3.1199627559055116
21
-6.4247967716535435
0
LINE
8
BLACK
6
CONTINUOUS
10
3.1199627559055116
20
-6.4247967716535435
11
3.1162132283464565
21
-6.4210472440944883
0
LINE
8
BLACK
6
CONTINUOUS
10
3.1162132283464565
20
-6.4210472440944883
11
3.1199627559055116
21
-6.4172976771653545
0
LINE
8
BLACK
6
CONTINUOUS
10
3.1199627559055116
20
-6.4172976771653545
11
3.1199627559055116
21
-6.4247967716535435
0
LINE
8
BLACK
6
CONTINUOUS
10
3.1199627559055116
20
-6.3760528346456695
11
3.1237122834645668
21
-6.3798023622047246
0
LINE
8
BLACK
6
CONTINUOUS
10
3.1237122834645668
20
-6.3798023622047246
11
3.1199627559055116
21
-6.3835519291338585
0
LINE
8
BLACK
6
CONTINUOUS
10
3.1199627559055116
20
-6.3835519291338585
11
3.1162132283464565
21
-6.3798023622047246
0
LINE
8
BLACK
6
CONTINUOUS
10
3.1162132283464565
20
-6.3798023622047246
11
3.1199627559055116
21
-6.3760528346456695
0
LINE
8
BLACK
6
CONTINUOUS
10
3.1199627559055116
20
-6.3760528346456695
11
3.1199627559055116
21
-6.3835519291338585
0
LINE
8
BLACK
6
CONTINUOUS
10
2.3986220472440944
20
-6.5147637795275593
11
2.4773622047244093
21
-6.5935039370078741
0
LINE
8
BLACK
6
CONTINUOUS
10
2.4773622047244093
20
-6.5147637795275593
11
2.3986220472440944
21
-6.5935039370078741
0
LINE
8
BLACK
6
CONTINUOUS
10
2.5725311811023621
20
-6.5114109448818898
11
2.6212750787401573
21
-6.5114109448818898
0
LINE
8
BLACK
6
CONTINUOUS
10
2.6212750787401573
20
-6.5114109448818898
11
2.5950283464566928
21
-6.5414071653543306
0
LINE
8
BLACK
6
CONTINUOUS
10
2.5950283464566928
20
-6.5414071653543306
11
2.6062769685039369
21
-6.5414071653543306
0
LINE
8
BLACK
6
CONTINUOUS
10
2.6062769685039369
20
-6.5414071653543306
11
2.6137760236220471
21
-6.5451566929133858
0
LINE
8
BLACK
6
CONTINUOUS
10
2.6137760236220471
20
-6.5451566929133858
11
2.6175255511811022
21
-6.5489062598425196
0
LINE
8
BLACK
6
CONTINUOUS
10
2.6175255511811022
20
-6.5489062598425196
11
2.6212750787401573
21
-6.5564053149606298
0
LINE
8
BLACK
6
CONTINUOUS
10
2.6212750787401573
20
-6.5564053149606298
11
2.6212750787401573
21
-6.5751529527559054
0
LINE
8
BLACK
6
CONTINUOUS
10
2.6212750787401573
20
-6.5751529527559054
11
2.6175255511811022
21
-6.5826520078740156
0
LINE
8
BLACK
6
CONTINUOUS
10
2.6175255511811022
20
-6.5826520078740156
11
2.6137760236220471
21
-6.5864015748031495
0
LINE
8
BLACK
6
CONTINUOUS
10
2.6137760236220471
20
-6.5864015748031495
11
2.6062769685039369
21
-6.5901511023622046
0
LINE
8
BLACK
6
CONTINUOUS
10
2.6062769685039369
20
-6.5901511023622046
11
2.5837797637795274
21
-6.5901511023622046
0
LINE
8
BLACK
6
CONTINUOUS
10
2.5837797637795274
20
-6.5901511023622046
11
2.5762807086614172
21
-6.5864015748031495
0
LINE
8
BLACK
6
CONTINUOUS
10
2.5762807086614172
20
-6.5864015748031495
11
2.5725311811023621
21
-6.5826520078740156
0
LINE
8
BLACK
6
CONTINUOUS
10
2.655020866141732
20
-6.5826520078740156
11
2.6587703937007872
21
-6.5864015748031495
0
LINE
8
BLACK
6
CONTINUOUS
10
2.6587703937007872
20
-6.5864015748031495
11
2.655020866141732
21
-6.5901511023622046
0
LINE
8
BLACK
6
CONTINUOUS
10
2.655020866141732
20
-6.5901511023622046
11
2.6512713385826769
21
-6.5864015748031495
0
LINE
8
BLACK
6
CONTINUOUS
10
2.6512713385826769
20
-6.5864015748031495
11
2.655020866141732
21
-6.5826520078740156
0
LINE
8
BLACK
6
CONTINUOUS
10
2.655020866141732
20
-6.5826520078740156
11
2.655020866141732
21
-6.5901511023622046
0
LINE
8
BLACK
6
CONTINUOUS
10
2.6887666535433072
20
-6.51891
11
2.6925161811023623
21
-6.5151604724409449
0
LINE
8
BLACK
6
CONTINUOUS
10
2.6925161811023623
20
-6.5151604724409449
11
2.7000152362204726
21
-6.5114109448818898
0
LINE
8
BLACK
6
CONTINUOUS
10
2.7000152362204726
20
-6.5114109448818898
11
2.7187629133858269
21
-6.5114109448818898
0
LINE
8
BLACK
6
CONTINUOUS
10
2.7187629133858269
20
-6.5114109448818898
11
2.7262619685039371
21
-6.5151604724409449
0
LINE
8
BLACK
6
CONTINUOUS
10
2.7262619685039371
20
-6.5151604724409449
11
2.7300114960629922
21
-6.51891
0
LINE
8
BLACK
6
CONTINUOUS
10
2.7300114960629922
20
-6.51891
11
2.7337610236220473
21
-6.5264090551181102
0
LINE
8
BLACK
6
CONTINUOUS
10
2.7337610236220473
20
-6.5264090551181102
11
2.7337610236220473
21
-6.5339081102362204
0
LINE
8
BLACK
6
CONTINUOUS
10
2.7337610236220473
20
-6.5339081102362204
11
2.7300114960629922
21
-6.5451566929133858
0
LINE
8
BLACK
6
CONTINUOUS
10
2.7300114960629922
20
-6.5451566929133858
11
2.6850171259842521
21
-6.5901511023622046
0
LINE
8
BLACK
6
CONTINUOUS
10
2.6850171259842521
20
-6.5901511023622046
11
2.7337610236220473
21
-6.5901511023622046
0
LINE
8
BLACK
6
CONTINUOUS
10
2.7825049212598425
20
-6.5114109448818898
11
2.7900040157480315
21
-6.5114109448818898
0
LINE
8
BLACK
6
CONTINUOUS
10
2.7900040157480315
20
-6.5114109448818898
11
2.7975030708661417
21
-6.5151604724409449
0
LINE
8
BLACK
6
CONTINUOUS
10
2.7975030708661417
20
-6.5151604724409449
11
2.8012525984251968
21
-6.51891
0
LINE
8
BLACK
6
CONTINUOUS
10
2.8012525984251968
20
-6.51891
11
2.8050021259842519
21
-6.5264090551181102
0
LINE
8
BLACK
6
CONTINUOUS
10
2.8050021259842519
20
-6.5264090551181102
11
2.808751653543307
21
-6.5414071653543306
0
LINE
8
BLACK
6
CONTINUOUS
10
2.808751653543307
20
-6.5414071653543306
11
2.808751653543307
21
-6.5601548425196849
0
LINE
8
BLACK
6
CONTINUOUS
10
2.808751653543307
20
-6.5601548425196849
11
2.8050021259842519
21
-6.5751529527559054
0
LINE
8
BLACK
6
CONTINUOUS
10
2.8050021259842519
20
-6.5751529527559054
11
2.8012525984251968
21
-6.5826520078740156
0
LINE
8
BLACK
6
CONTINUOUS
10
2.8012525984251968
20
-6.5826520078740156
11
2.7975030708661417
21
-6.5864015748031495
0
LINE
8
BLACK
6
CONTINUOUS
10
2.7975030708661417
20
-6.5864015748031495
11
2.7900040157480315
21
-6.5901511023622046
0
LINE
8
BLACK
6
CONTINUOUS
10
2.7900040157480315
20
-6.5901511023622046
11
2.7825049212598425
21
-6.5901511023622046
0
LINE
8
BLACK
6
CONTINUOUS
10
2.7825049212598425
20
-6.5901511023622046
11
2.7750058661417323
21
-6.5864015748031495
0
LINE
8
BLACK
6
CONTINUOUS
10
2.7750058661417323
20
-6.5864015748031495
11
2.7712563385826772
21
-6.5826520078740156
0
LINE
8
BLACK
6
CONTINUOUS
10
2.7712563385826772
20
-6.5826520078740156
11
2.7675068110236221
21
-6.5751529527559054
0
LINE
8
BLACK
6
CONTINUOUS
10
2.7675068110236221
20
-6.5751529527559054
11
2.7637572834645669
21
-6.5601548425196849
0
LINE
8
BLACK
6
CONTINUOUS
10
2.7637572834645669
20
-6.5601548425196849
11
2.7637572834645669
21
-6.5414071653543306
0
LINE
8
BLACK
6
CONTINUOUS
10
2.7637572834645669
20
-6.5414071653543306
11
2.7675068110236221
21
-6.5264090551181102
0
LINE
8
BLACK
6
CONTINUOUS
10
2.7675068110236221
20
-6.5264090551181102
11
2.7712563385826772
21
-6.51891
0
LINE
8
BLACK
6
CONTINUOUS
10
2.7712563385826772
20
-6.51891
11
2.7750058661417323
21
-6.5151604724409449
0
LINE
8
BLACK
6
CONTINUOUS
10
2.7750058661417323
20
-6.5151604724409449
11
2.7825049212598425
21
-6.5114109448818898
0
LINE
8
BLACK
6
CONTINUOUS
10
2.8574955511811022
20
-6.5114109448818898
11
2.8649946456692912
21
-6.5114109448818898
0
LINE
8
BLACK
6
CONTINUOUS
10
2.8649946456692912
20
-6.5114109448818898
11
2.8724937007874014
21
-6.5151604724409449
0
LINE
8
BLACK
6
CONTINUOUS
10
2.8724937007874014
20
-6.5151604724409449
11
2.8762432283464565
21
-6.51891
0
LINE
8
BLACK
6
CONTINUOUS
10
2.8762432283464565
20
-6.51891
11
2.8799927559055116
21
-6.5264090551181102
0
LINE
8
BLACK
6
CONTINUOUS
10
2.8799927559055116
20
-6.5264090551181102
11
2.8837422834645667
21
-6.5414071653543306
0
LINE
8
BLACK
6
CONTINUOUS
10
2.8837422834645667
20
-6.5414071653543306
11
2.8837422834645667
21
-6.5601548425196849
0
LINE
8
BLACK
6
CONTINUOUS
10
2.8837422834645667
20
-6.5601548425196849
11
2.8799927559055116
21
-6.5751529527559054
0
LINE
8
BLACK
6
CONTINUOUS
10
2.8799927559055116
20
-6.5751529527559054
11
2.8762432283464565
21
-6.5826520078740156
0
LINE
8
BLACK
6
CONTINUOUS
10
2.8762432283464565
20
-6.5826520078740156
11
2.8724937007874014
21
-6.5864015748031495
0
LINE
8
BLACK
6
CONTINUOUS
10
2.8724937007874014
20
-6.5864015748031495
11
2.8649946456692912
21
-6.5901511023622046
0
LINE
8
BLACK
6
CONTINUOUS
10
2.8649946456692912
20
-6.5901511023622046
11
2.8574955511811022
21
-6.5901511023622046
0
LINE
8
BLACK
6
CONTINUOUS
10
2.8574955511811022
20
-6.5901511023622046
11
2.849996496062992
21
-6.5864015748031495
0
LINE
8
BLACK
6
CONTINUOUS
10
2.849996496062992
20
-6.5864015748031495
11
2.8462469685039369
21
-6.5826520078740156
0
LINE
8
BLACK
6
CONTINUOUS
10
2.8462469685039369
20
-6.5826520078740156
11
2.8424974409448818
21
-6.5751529527559054
0
LINE
8
BLACK
6
CONTINUOUS
10
2.8424974409448818
20
-6.5751529527559054
11
2.8387479133858267
21
-6.5601548425196849
0
LINE
8
BLACK
6
CONTINUOUS
10
2.8387479133858267
20
-6.5601548425196849
11
2.8387479133858267
21
-6.5414071653543306
0
LINE
8
BLACK
6
CONTINUOUS
10
2.8387479133858267
20
-6.5414071653543306
11
2.8424974409448818
21
-6.5264090551181102
0
LINE
8
BLACK
6
CONTINUOUS
10
2.8424974409448818
20
-6.5264090551181102
11
2.8462469685039369
21
-6.51891
0
LINE
8
BLACK
6
CONTINUOUS
10
2.8462469685039369
20
-6.51891
11
2.849996496062992
21
-6.5151604724409449
0
LINE
8
BLACK
6
CONTINUOUS
10
2.849996496062992
20
-6.5151604724409449
11
2.8574955511811022
21
-6.5114109448818898
0
LINE
8
BLACK
6
CONTINUOUS
10
2.9174880708661415
20
-6.5901511023622046
11
2.9174880708661415
21
-6.5376576377952755
0
LINE
8
BLACK
6
CONTINUOUS
10
2.9174880708661415
20
-6.5451566929133858
11
2.9212375984251966
21
-6.5414071653543306
0
LINE
8
BLACK
6
CONTINUOUS
10
2.9212375984251966
20
-6.5414071653543306
11
2.9287366535433068
21
-6.5376576377952755
0
LINE
8
BLACK
6
CONTINUOUS
10
2.9287366535433068
20
-6.5376576377952755
11
2.9399852755905509
21
-6.5376576377952755
0
LINE
8
BLACK
6
CONTINUOUS
10
2.9399852755905509
20
-6.5376576377952755
11
2.9474843307086616
21
-6.5414071653543306
0
LINE
8
BLACK
6
CONTINUOUS
10
2.9474843307086616
20
-6.5414071653543306
11
2.9512338582677167
21
-6.5489062598425196
0
LINE
8
BLACK
6
CONTINUOUS
10
2.9512338582677167
20
-6.5489062598425196
11
2.9512338582677167
21
-6.5901511023622046
0
LINE
8
BLACK
6
CONTINUOUS
10
2.9512338582677167
20
-6.5489062598425196
11
2.9549833858267718
21
-6.5414071653543306
0
LINE
8
BLACK
6
CONTINUOUS
10
2.9549833858267718
20
-6.5414071653543306
11
2.962482440944882
21
-6.5376576377952755
0
LINE
8
BLACK
6
CONTINUOUS
10
2.962482440944882
20
-6.5376576377952755
11
2.9737310236220473
21
-6.5376576377952755
0
LINE
8
BLACK
6
CONTINUOUS
10
2.9737310236220473
20
-6.5376576377952755
11
2.9812301181102363
21
-6.5414071653543306
0
LINE
8
BLACK
6
CONTINUOUS
10
2.9812301181102363
20
-6.5414071653543306
11
2.9849796456692914
21
-6.5489062598425196
0
LINE
8
BLACK
6
CONTINUOUS
10
2.9849796456692914
20
-6.5489062598425196
11
2.9849796456692914
21
-6.5901511023622046
0
LINE
8
BLACK
6
CONTINUOUS
10
3.0224749606299213
20
-6.5901511023622046
11
3.0224749606299213
21
-6.5376576377952755
0
LINE
8
BLACK
6
CONTINUOUS
10
3.0224749606299213
20
-6.5451566929133858
11
3.0262244881889764
21
-6.5414071653543306
0
LINE
8
BLACK
6
CONTINUOUS
10
3.0262244881889764
20
-6.5414071653543306
11
3.0337235433070866
21
-6.5376576377952755
0
LINE
8
BLACK
6
CONTINUOUS
10
3.0337235433070866
20
-6.5376576377952755
11
3.0449721653543307
21
-6.5376576377952755
0
LINE
8
BLACK
6
CONTINUOUS
10
3.0449721653543307
20
-6.5376576377952755
11
3.0524712204724409
21
-6.5414071653543306
0
LINE
8
BLACK
6
CONTINUOUS
10
3.0524712204724409
20
-6.5414071653543306
11
3.056220748031496
21
-6.5489062598425196
0
LINE
8
BLACK
6
CONTINUOUS
10
3.056220748031496
20
-6.5489062598425196
11
3.056220748031496
21
-6.5901511023622046
0
LINE
8
BLACK
6
CONTINUOUS
10
3.056220748031496
20
-6.5489062598425196
11
3.0599702755905511
21
-6.5414071653543306
0
LINE
8
BLACK
6
CONTINUOUS
10
3.0599702755905511
20
-6.5414071653543306
11
3.0674693307086613
21
-6.5376576377952755
0
LINE
8
BLACK
6
CONTINUOUS
10
3.0674693307086613
20
-6.5376576377952755
11
3.0787179133858267
21
-6.5376576377952755
0
LINE
8
BLACK
6
CONTINUOUS
10
3.0787179133858267
20
-6.5376576377952755
11
3.0862170078740156
21
-6.5414071653543306
0
LINE
8
BLACK
6
CONTINUOUS
10
3.0862170078740156
20
-6.5414071653543306
11
3.0899665354330708
21
-6.5489062598425196
0
LINE
8
BLACK
6
CONTINUOUS
10
3.0899665354330708
20
-6.5489062598425196
11
3.0899665354330708
21
-6.5901511023622046
0
LINE
8
BLACK
6
CONTINUOUS
10
3.2436973228346457
20
-6.5076614173228347
11
3.1762057874015746
21
-6.6088987401574801
0
LINE
8
BLACK
6
CONTINUOUS
10
3.34493468503937
20
-6.5114109448818898
11
3.3524337795275589
21
-6.5114109448818898
0
LINE
8
BLACK
6
CONTINUOUS
10
3.3524337795275589
20
-6.5114109448818898
11
3.3599328346456692
21
-6.5151604724409449
0
LINE
8
BLACK
6
CONTINUOUS
10
3.3599328346456692
20
-6.5151604724409449
11
3.3636823622047243
21
-6.51891
0
LINE
8
BLACK
6
CONTINUOUS
10
3.3636823622047243
20
-6.51891
11
3.3674318897637794
21
-6.5264090551181102
0
LINE
8
BLACK
6
CONTINUOUS
10
3.3674318897637794
20
-6.5264090551181102
11
3.3711814173228345
21
-6.5414071653543306
0
LINE
8
BLACK
6
CONTINUOUS
10
3.3711814173228345
20
-6.5414071653543306
11
3.3711814173228345
21
-6.5601548425196849
0
LINE
8
BLACK
6
CONTINUOUS
10
3.3711814173228345
20
-6.5601548425196849
11
3.3674318897637794
21
-6.5751529527559054
0
LINE
8
BLACK
6
CONTINUOUS
10
3.3674318897637794
20
-6.5751529527559054
11
3.3636823622047243
21
-6.5826520078740156
0
LINE
8
BLACK
6
CONTINUOUS
10
3.3636823622047243
20
-6.5826520078740156
11
3.3599328346456692
21
-6.5864015748031495
0
LINE
8
BLACK
6
CONTINUOUS
10
3.3599328346456692
20
-6.5864015748031495
11
3.3524337795275589
21
-6.5901511023622046
0
LINE
8
BLACK
6
CONTINUOUS
10
3.3524337795275589
20
-6.5901511023622046
11
3.34493468503937
21
-6.5901511023622046
0
LINE
8
BLACK
6
CONTINUOUS
10
3.34493468503937
20
-6.5901511023622046
11
3.3374356299212597
21
-6.5864015748031495
0
LINE
8
BLACK
6
CONTINUOUS
10
3.3374356299212597
20
-6.5864015748031495
11
3.3336861023622046
21
-6.5826520078740156
0
LINE
8
BLACK
6
CONTINUOUS
10
3.3336861023622046
20
-6.5826520078740156
11
3.3299365748031495
21
-6.5751529527559054
0
LINE
8
BLACK
6
CONTINUOUS
10
3.3299365748031495
20
-6.5751529527559054
11
3.3261870472440944
21
-6.5601548425196849
0
LINE
8
BLACK
6
CONTINUOUS
10
3.3261870472440944
20
-6.5601548425196849
11
3.3261870472440944
21
-6.5414071653543306
0
LINE
8
BLACK
6
CONTINUOUS
10
3.3261870472440944
20
-6.5414071653543306
11
3.3299365748031495
21
-6.5264090551181102
0
LINE
8
BLACK
6
CONTINUOUS
10
3.3299365748031495
20
-6.5264090551181102
11
3.3336861023622046
21
-6.51891
0
LINE
8
BLACK
6
CONTINUOUS
10
3.3336861023622046
20
-6.51891
11
3.3374356299212597
21
-6.5151604724409449
0
LINE
8
BLACK
6
CONTINUOUS
10
3.3374356299212597
20
-6.5151604724409449
11
3.34493468503937
21
-6.5114109448818898
0
LINE
8
BLACK
6
CONTINUOUS
10
3.4049272047244092
20
-6.5826520078740156
11
3.4086767322834644
21
-6.5864015748031495
0
LINE
8
BLACK
6
CONTINUOUS
10
3.4086767322834644
20
-6.5864015748031495
11
3.4049272047244092
21
-6.5901511023622046
0
LINE
8
BLACK
6
CONTINUOUS
10
3.4049272047244092
20
-6.5901511023622046
11
3.4011776771653541
21
-6.5864015748031495
0
LINE
8
BLACK
6
CONTINUOUS
10
3.4011776771653541
20
-6.5864015748031495
11
3.4049272047244092
21
-6.5826520078740156
0
LINE
8
BLACK
6
CONTINUOUS
10
3.4049272047244092
20
-6.5826520078740156
11
3.4049272047244092
21
-6.5901511023622046
0
LINE
8
BLACK
6
CONTINUOUS
10
3.4836673622047245
20
-6.5901511023622046
11
3.438672992125984
21
-6.5901511023622046
0
LINE
8
BLACK
6
CONTINUOUS
10
3.4611701574803151
20
-6.5901511023622046
11
3.4611701574803151
21
-6.5114109448818898
0
LINE
8
BLACK
6
CONTINUOUS
10
3.4611701574803151
20
-6.5114109448818898
11
3.4536711023622044
21
-6.5226595275590551
0
LINE
8
BLACK
6
CONTINUOUS
10
3.4536711023622044
20
-6.5226595275590551
11
3.4461720472440942
21
-6.5301585826771653
0
LINE
8
BLACK
6
CONTINUOUS
10
3.4461720472440942
20
-6.5301585826771653
11
3.438672992125984
21
-6.5339081102362204
0
LINE
8
BLACK
6
CONTINUOUS
10
3.5136636220472441
20
-6.51891
11
3.5174131496062992
21
-6.5151604724409449
0
LINE
8
BLACK
6
CONTINUOUS
10
3.5174131496062992
20
-6.5151604724409449
11
3.5249122047244095
21
-6.5114109448818898
0
LINE
8
BLACK
6
CONTINUOUS
10
3.5249122047244095
20
-6.5114109448818898
11
3.5436598818897638
21
-6.5114109448818898
0
LINE
8
BLACK
6
CONTINUOUS
10
3.5436598818897638
20
-6.5114109448818898
11
3.551158937007874
21
-6.5151604724409449
0
LINE
8
BLACK
6
CONTINUOUS
10
3.551158937007874
20
-6.5151604724409449
11
3.5549084645669291
21
-6.51891
0
LINE
8
BLACK
6
CONTINUOUS
10
3.5549084645669291
20
-6.51891
11
3.5586579921259842
21
-6.5264090551181102
0
LINE
8
BLACK
6
CONTINUOUS
10
3.5586579921259842
20
-6.5264090551181102
11
3.5586579921259842
21
-6.5339081102362204
0
LINE
8
BLACK
6
CONTINUOUS
10
3.5586579921259842
20
-6.5339081102362204
11
3.5549084645669291
21
-6.5451566929133858
0
LINE
8
BLACK
6
CONTINUOUS
10
3.5549084645669291
20
-6.5451566929133858
11
3.509914094488189
21
-6.5901511023622046
0
LINE
8
BLACK
6
CONTINUOUS
10
3.509914094488189
20
-6.5901511023622046
11
3.5586579921259842
21
-6.5901511023622046
0
LINE
8
BLACK
6
CONTINUOUS
10
3.6261495669291337
20
-6.5114109448818898
11
3.6111514173228345
21
-6.5114109448818898
0
LINE
8
BLACK
6
CONTINUOUS
10
3.6111514173228345
20
-6.5114109448818898
11
3.6036523622047243
21
-6.5151604724409449
0
LINE
8
BLACK
6
CONTINUOUS
10
3.6036523622047243
20
-6.5151604724409449
11
3.5999028346456692
21
-6.51891
0
LINE
8
BLACK
6
CONTINUOUS
10
3.5999028346456692
20
-6.51891
11
3.592403779527559
21
-6.5301585826771653
0
LINE
8
BLACK
6
CONTINUOUS
10
3.592403779527559
20
-6.5301585826771653
11
3.5886542519685038
21
-6.5451566929133858
0
LINE
8
BLACK
6
CONTINUOUS
10
3.5886542519685038
20
-6.5451566929133858
11
3.5886542519685038
21
-6.5751529527559054
0
LINE
8
BLACK
6
CONTINUOUS
10
3.5886542519685038
20
-6.5751529527559054
11
3.592403779527559
21
-6.5826520078740156
0
LINE
8
BLACK
6
CONTINUOUS
10
3.592403779527559
20
-6.5826520078740156
11
3.5961533070866141
21
-6.5864015748031495
0
LINE
8
BLACK
6
CONTINUOUS
10
3.5961533070866141
20
-6.5864015748031495
11
3.6036523622047243
21
-6.5901511023622046
0
LINE
8
BLACK
6
CONTINUOUS
10
3.6036523622047243
20
-6.5901511023622046
11
3.6186505118110235
21
-6.5901511023622046
0
LINE
8
BLACK
6
CONTINUOUS
10
3.6186505118110235
20
-6.5901511023622046
11
3.6261495669291337
21
-6.5864015748031495
0
LINE
8
BLACK
6
CONTINUOUS
10
3.6261495669291337
20
-6.5864015748031495
11
3.6298990944881888
21
-6.5826520078740156
0
LINE
8
BLACK
6
CONTINUOUS
10
3.6298990944881888
20
-6.5826520078740156
11
3.6336486220472439
21
-6.5751529527559054
0
LINE
8
BLACK
6
CONTINUOUS
10
3.6336486220472439
20
-6.5751529527559054
11
3.6336486220472439
21
-6.5564053149606298
0
LINE
8
BLACK
6
CONTINUOUS
10
3.6336486220472439
20
-6.5564053149606298
11
3.6298990944881888
21
-6.5489062598425196
0
LINE
8
BLACK
6
CONTINUOUS
10
3.6298990944881888
20
-6.5489062598425196
11
3.6261495669291337
21
-6.5451566929133858
0
LINE
8
BLACK
6
CONTINUOUS
10
3.6261495669291337
20
-6.5451566929133858
11
3.6186505118110235
21
-6.5414071653543306
0
LINE
8
BLACK
6
CONTINUOUS
10
3.6186505118110235
20
-6.5414071653543306
11
3.6036523622047243
21
-6.5414071653543306
0
LINE
8
BLACK
6
CONTINUOUS
10
3.6036523622047243
20
-6.5414071653543306
11
3.5961533070866141
21
-6.5451566929133858
0
LINE
8
BLACK
6
CONTINUOUS
10
3.5961533070866141
20
-6.5451566929133858
11
3.592403779527559
21
-6.5489062598425196
0
LINE
8
BLACK
6
CONTINUOUS
10
3.592403779527559
20
-6.5489062598425196
11
3.5886542519685038
21
-6.5564053149606298
0
LINE
8
BLACK
6
CONTINUOUS
10
3.6823925196850391
20
-6.5114109448818898
11
3.6898916141732281
21
-6.5114109448818898
0
LINE
8
BLACK
6
CONTINUOUS
10
3.6898916141732281
20
-6.5114109448818898
11
3.6973906692913383
21
-6.5151604724409449
0
LINE
8
BLACK
6
CONTINUOUS
10
3.6973906692913383
20
-6.5151604724409449
11
3.7011401968503934
21
-6.51891
0
LINE
8
BLACK
6
CONTINUOUS
10
3.7011401968503934
20
-6.51891
11
3.7048897244094485
21
-6.5264090551181102
0
LINE
8
BLACK
6
CONTINUOUS
10
3.7048897244094485
20
-6.5264090551181102
11
3.7086392519685036
21
-6.5414071653543306
0
LINE
8
BLACK
6
CONTINUOUS
10
3.7086392519685036
20
-6.5414071653543306
11
3.7086392519685036
21
-6.5601548425196849
0
LINE
8
BLACK
6
CONTINUOUS
10
3.7086392519685036
20
-6.5601548425196849
11
3.7048897244094485
21
-6.5751529527559054
0
LINE
8
BLACK
6
CONTINUOUS
10
3.7048897244094485
20
-6.5751529527559054
11
3.7011401968503934
21
-6.5826520078740156
0
LINE
8
BLACK
6
CONTINUOUS
10
3.7011401968503934
20
-6.5826520078740156
11
3.6973906692913383
21
-6.5864015748031495
0
LINE
8
BLACK
6
CONTINUOUS
10
3.6973906692913383
20
-6.5864015748031495
11
3.6898916141732281
21
-6.5901511023622046
0
LINE
8
BLACK
6
CONTINUOUS
10
3.6898916141732281
20
-6.5901511023622046
11
3.6823925196850391
21
-6.5901511023622046
0
LINE
8
BLACK
6
CONTINUOUS
10
3.6823925196850391
20
-6.5901511023622046
11
3.6748934645669289
21
-6.5864015748031495
0
LINE
8
BLACK
6
CONTINUOUS
10
3.6748934645669289
20
-6.5864015748031495
11
3.6711439370078738
21
-6.5826520078740156
0
LINE
8
BLACK
6
CONTINUOUS
10
3.6711439370078738
20
-6.5826520078740156
11
3.6673944094488187
21
-6.5751529527559054
0
LINE
8
BLACK
6
CONTINUOUS
10
3.6673944094488187
20
-6.5751529527559054
11
3.6636448818897636
21
-6.5601548425196849
0
LINE
8
BLACK
6
CONTINUOUS
10
3.6636448818897636
20
-6.5601548425196849
11
3.6636448818897636
21
-6.5414071653543306
0
LINE
8
BLACK
6
CONTINUOUS
10
3.6636448818897636
20
-6.5414071653543306
11
3.6673944094488187
21
-6.5264090551181102
0
LINE
8
BLACK
6
CONTINUOUS
10
3.6673944094488187
20
-6.5264090551181102
11
3.6711439370078738
21
-6.51891
0
LINE
8
BLACK
6
CONTINUOUS
10
3.6711439370078738
20
-6.51891
11
3.6748934645669289
21
-6.5151604724409449
0
LINE
8
BLACK
6
CONTINUOUS
10
3.6748934645669289
20
-6.5151604724409449
11
3.6823925196850391
21
-6.5114109448818898
0
LINE
8
BLACK
6
CONTINUOUS
10
3.7386355118110237
20
-6.5114109448818898
11
3.7386355118110237
21
-6.5264090551181102
0
LINE
8
BLACK
6
CONTINUOUS
10
3.7686317716535433
20
-6.5114109448818898
11
3.7686317716535433
21
-6.5264090551181102
0
LINE
8
BLACK
6
CONTINUOUS
10
3.8848672834645668
20
-6.6201473228346455
11
3.8811177165354329
21
-6.6163977952755904
0
LINE
8
BLACK
6
CONTINUOUS
10
3.8811177165354329
20
-6.6163977952755904
11
3.8736186614173227
21
-6.605149212598425
0
LINE
8
BLACK
6
CONTINUOUS
10
3.8736186614173227
20
-6.605149212598425
11
3.8698691338582676
21
-6.5976501574803148
0
LINE
8
BLACK
6
CONTINUOUS
10
3.8698691338582676
20
-6.5976501574803148
11
3.8661196062992125
21
-6.5864015748031495
0
LINE
8
BLACK
6
CONTINUOUS
10
3.8661196062992125
20
-6.5864015748031495
11
3.8623700787401574
21
-6.5676538976377952
0
LINE
8
BLACK
6
CONTINUOUS
10
3.8623700787401574
20
-6.5676538976377952
11
3.8623700787401574
21
-6.5526557874015747
0
LINE
8
BLACK
6
CONTINUOUS
10
3.8623700787401574
20
-6.5526557874015747
11
3.8661196062992125
21
-6.5339081102362204
0
LINE
8
BLACK
6
CONTINUOUS
10
3.8661196062992125
20
-6.5339081102362204
11
3.8698691338582676
21
-6.5226595275590551
0
LINE
8
BLACK
6
CONTINUOUS
10
3.8698691338582676
20
-6.5226595275590551
11
3.8736186614173227
21
-6.5151604724409449
0
LINE
8
BLACK
6
CONTINUOUS
10
3.8736186614173227
20
-6.5151604724409449
11
3.8811177165354329
21
-6.5039118503937008
0
LINE
8
BLACK
6
CONTINUOUS
10
3.8811177165354329
20
-6.5039118503937008
11
3.8848672834645668
21
-6.5001623228346457
0
LINE
8
BLACK
6
CONTINUOUS
10
3.9486092913385824
20
-6.5376576377952755
11
3.9486092913385824
21
-6.5901511023622046
0
LINE
8
BLACK
6
CONTINUOUS
10
3.9298616141732281
20
-6.5076614173228347
11
3.9111139763779526
21
-6.5639043700787401
0
LINE
8
BLACK
6
CONTINUOUS
10
3.9111139763779526
20
-6.5639043700787401
11
3.9598578740157477
21
-6.5639043700787401
0
LINE
8
BLACK
6
CONTINUOUS
10
4.0498466535433071
20
-6.5901511023622046
11
4.0498466535433071
21
-6.5114109448818898
0
LINE
8
BLACK
6
CONTINUOUS
10
4.0835924409448818
20
-6.5901511023622046
11
4.0835924409448818
21
-6.5489062598425196
0
LINE
8
BLACK
6
CONTINUOUS
10
4.0835924409448818
20
-6.5489062598425196
11
4.0798429133858267
21
-6.5414071653543306
0
LINE
8
BLACK
6
CONTINUOUS
10
4.0798429133858267
20
-6.5414071653543306
11
4.0723438582677165
21
-6.5376576377952755
0
LINE
8
BLACK
6
CONTINUOUS
10
4.0723438582677165
20
-6.5376576377952755
11
4.0610952362204724
21
-6.5376576377952755
0
LINE
8
BLACK
6
CONTINUOUS
10
4.0610952362204724
20
-6.5376576377952755
11
4.0535961811023622
21
-6.5414071653543306
0
LINE
8
BLACK
6
CONTINUOUS
10
4.0535961811023622
20
-6.5414071653543306
11
4.0498466535433071
21
-6.5451566929133858
0
LINE
8
BLACK
6
CONTINUOUS
10
4.132336338582677
20
-6.5901511023622046
11
4.1248372834645668
21
-6.5864015748031495
0
LINE
8
BLACK
6
CONTINUOUS
10
4.1248372834645668
20
-6.5864015748031495
11
4.1210877559055117
21
-6.5826520078740156
0
LINE
8
BLACK
6
CONTINUOUS
10
4.1210877559055117
20
-6.5826520078740156
11
4.1173382283464566
21
-6.5751529527559054
0
LINE
8
BLACK
6
CONTINUOUS
10
4.1173382283464566
20
-6.5751529527559054
11
4.1173382283464566
21
-6.5526557874015747
0
LINE
8
BLACK
6
CONTINUOUS
10
4.1173382283464566
20
-6.5526557874015747
11
4.1210877559055117
21
-6.5451566929133858
0
LINE
8
BLACK
6
CONTINUOUS
10
4.1210877559055117
20
-6.5451566929133858
11
4.1248372834645668
21
-6.5414071653543306
0
LINE
8
BLACK
6
CONTINUOUS
10
4.1248372834645668
20
-6.5414071653543306
11
4.132336338582677
21
-6.5376576377952755
0
LINE
8
BLACK
6
CONTINUOUS
10
4.132336338582677
20
-6.5376576377952755
11
4.1435849606299211
21
-6.5376576377952755
0
LINE
8
BLACK
6
CONTINUOUS
10
4.1435849606299211
20
-6.5376576377952755
11
4.1510840157480313
21
-6.5414071653543306
0
LINE
8
BLACK
6
CONTINUOUS
10
4.1510840157480313
20
-6.5414071653543306
11
4.1548335433070864
21
-6.5451566929133858
0
LINE
8
BLACK
6
CONTINUOUS
10
4.1548335433070864
20
-6.5451566929133858
11
4.1585830708661415
21
-6.5526557874015747
0
LINE
8
BLACK
6
CONTINUOUS
10
4.1585830708661415
20
-6.5526557874015747
11
4.1585830708661415
21
-6.5751529527559054
0
LINE
8
BLACK
6
CONTINUOUS
10
4.1585830708661415
20
-6.5751529527559054
11
4.1548335433070864
21
-6.5826520078740156
0
LINE
8
BLACK
6
CONTINUOUS
10
4.1548335433070864
20
-6.5826520078740156
11
4.1510840157480313
21
-6.5864015748031495
0
LINE
8
BLACK
6
CONTINUOUS
10
4.1510840157480313
20
-6.5864015748031495
11
4.1435849606299211
21
-6.5901511023622046
0
LINE
8
BLACK
6
CONTINUOUS
10
4.1435849606299211
20
-6.5901511023622046
11
4.132336338582677
21
-6.5901511023622046
0
LINE
8
BLACK
6
CONTINUOUS
10
4.2035774409448816
20
-6.5901511023622046
11
4.1960783858267714
21
-6.5864015748031495
0
LINE
8
BLACK
6
CONTINUOUS
10
4.1960783858267714
20
-6.5864015748031495
11
4.1923288582677163
21
-6.5789024803149605
0
LINE
8
BLACK
6
CONTINUOUS
10
4.1923288582677163
20
-6.5789024803149605
11
4.1923288582677163
21
-6.5114109448818898
0
LINE
8
BLACK
6
CONTINUOUS
10
4.2635699606299209
20
-6.5864015748031495
11
4.2560709055118107
21
-6.5901511023622046
0
LINE
8
BLACK
6
CONTINUOUS
10
4.2560709055118107
20
-6.5901511023622046
11
4.2410727559055115
21
-6.5901511023622046
0
LINE
8
BLACK
6
CONTINUOUS
10
4.2410727559055115
20
-6.5901511023622046
11
4.2335737007874013
21
-6.5864015748031495
0
LINE
8
BLACK
6
CONTINUOUS
10
4.2335737007874013
20
-6.5864015748031495
11
4.2298241732283461
21
-6.5789024803149605
0
LINE
8
BLACK
6
CONTINUOUS
10
4.2298241732283461
20
-6.5789024803149605
11
4.2298241732283461
21
-6.5489062598425196
0
LINE
8
BLACK
6
CONTINUOUS
10
4.2298241732283461
20
-6.5489062598425196
11
4.2335737007874013
21
-6.5414071653543306
0
LINE
8
BLACK
6
CONTINUOUS
10
4.2335737007874013
20
-6.5414071653543306
11
4.2410727559055115
21
-6.5376576377952755
0
LINE
8
BLACK
6
CONTINUOUS
10
4.2410727559055115
20
-6.5376576377952755
11
4.2560709055118107
21
-6.5376576377952755
0
LINE
8
BLACK
6
CONTINUOUS
10
4.2560709055118107
20
-6.5376576377952755
11
4.2635699606299209
21
-6.5414071653543306
0
LINE
8
BLACK
6
CONTINUOUS
10
4.2635699606299209
20
-6.5414071653543306
11
4.267319488188976
21
-6.5489062598425196
0
LINE
8
BLACK
6
CONTINUOUS
10
4.267319488188976
20
-6.5489062598425196
11
4.267319488188976
21
-6.5564053149606298
0
LINE
8
BLACK
6
CONTINUOUS
10
4.267319488188976
20
-6.5564053149606298
11
4.2298241732283461
21
-6.5639043700787401
0
LINE
8
BLACK
6
CONTINUOUS
10
4.2973157480314956
20
-6.5864015748031495
11
4.3048148031496059
21
-6.5901511023622046
0
LINE
8
BLACK
6
CONTINUOUS
10
4.3048148031496059
20
-6.5901511023622046
11
4.3198129133858263
21
-6.5901511023622046
0
LINE
8
BLACK
6
CONTINUOUS
10
4.3198129133858263
20
-6.5901511023622046
11
4.3273120078740153
21
-6.5864015748031495
0
LINE
8
BLACK
6
CONTINUOUS
10
4.3273120078740153
20
-6.5864015748031495
11
4.3310615354330704
21
-6.5789024803149605
0
LINE
8
BLACK
6
CONTINUOUS
10
4.3310615354330704
20
-6.5789024803149605
11
4.3310615354330704
21
-6.5751529527559054
0
LINE
8
BLACK
6
CONTINUOUS
10
4.3310615354330704
20
-6.5751529527559054
11
4.3273120078740153
21
-6.5676538976377952
0
LINE
8
BLACK
6
CONTINUOUS
10
4.3273120078740153
20
-6.5676538976377952
11
4.3198129133858263
21
-6.5639043700787401
0
LINE
8
BLACK
6
CONTINUOUS
10
4.3198129133858263
20
-6.5639043700787401
11
4.308564330708661
21
-6.5639043700787401
0
LINE
8
BLACK
6
CONTINUOUS
10
4.308564330708661
20
-6.5639043700787401
11
4.3010652755905507
21
-6.5601548425196849
0
LINE
8
BLACK
6
CONTINUOUS
10
4.3010652755905507
20
-6.5601548425196849
11
4.2973157480314956
21
-6.5526557874015747
0
LINE
8
BLACK
6
CONTINUOUS
10
4.2973157480314956
20
-6.5526557874015747
11
4.2973157480314956
21
-6.5489062598425196
0
LINE
8
BLACK
6
CONTINUOUS
10
4.2973157480314956
20
-6.5489062598425196
11
4.3010652755905507
21
-6.5414071653543306
0
LINE
8
BLACK
6
CONTINUOUS
10
4.3010652755905507
20
-6.5414071653543306
11
4.308564330708661
21
-6.5376576377952755
0
LINE
8
BLACK
6
CONTINUOUS
10
4.308564330708661
20
-6.5376576377952755
11
4.3198129133858263
21
-6.5376576377952755
0
LINE
8
BLACK
6
CONTINUOUS
10
4.3198129133858263
20
-6.5376576377952755
11
4.3273120078740153
21
-6.5414071653543306
0
LINE
8
BLACK
6
CONTINUOUS
10
4.3573082677165349
20
-6.6201473228346455
11
4.36105779527559
21
-6.6163977952755904
0
LINE
8
BLACK
6
CONTINUOUS
10
4.36105779527559
20
-6.6163977952755904
11
4.3685568503937011
21
-6.605149212598425
0
LINE
8
BLACK
6
CONTINUOUS
10
4.3685568503937011
20
-6.605149212598425
11
4.3723063779527562
21
-6.5976501574803148
0
LINE
8
BLACK
6
CONTINUOUS
10
4.3723063779527562
20
-6.5976501574803148
11
4.3760559055118113
21
-6.5864015748031495
0
LINE
8
BLACK
6
CONTINUOUS
10
4.3760559055118113
20
-6.5864015748031495
11
4.3798054330708664
21
-6.5676538976377952
0
LINE
8
BLACK
6
CONTINUOUS
10
4.3798054330708664
20
-6.5676538976377952
11
4.3798054330708664
21
-6.5526557874015747
0
LINE
8
BLACK
6
CONTINUOUS
10
4.3798054330708664
20
-6.5526557874015747
11
4.3760559055118113
21
-6.5339081102362204
0
LINE
8
BLACK
6
CONTINUOUS
10
4.3760559055118113
20
-6.5339081102362204
11
4.3723063779527562
21
-6.5226595275590551
0
LINE
8
BLACK
6
CONTINUOUS
10
4.3723063779527562
20
-6.5226595275590551
11
4.3685568503937011
21
-6.5151604724409449
0
LINE
8
BLACK
6
CONTINUOUS
10
4.3685568503937011
20
-6.5151604724409449
11
4.36105779527559
21
-6.5039118503937008
0
LINE
8
BLACK
6
CONTINUOUS
10
4.36105779527559
20
-6.5039118503937008
11
4.3573082677165349
21
-6.5001623228346457
0
LINE
8
BLACK
6
CONTINUOUS
10
4.499790472440945
20
-6.6201473228346455
11
4.4960409055118111
21
-6.6163977952755904
0
LINE
8
BLACK
6
CONTINUOUS
10
4.4960409055118111
20
-6.6163977952755904
11
4.4885418503937009
21
-6.605149212598425
0
LINE
8
BLACK
6
CONTINUOUS
10
4.4885418503937009
20
-6.605149212598425
11
4.4847923228346458
21
-6.5976501574803148
0
LINE
8
BLACK
6
CONTINUOUS
10
4.4847923228346458
20
-6.5976501574803148
11
4.4810427952755907
21
-6.5864015748031495
0
LINE
8
BLACK
6
CONTINUOUS
10
4.4810427952755907
20
-6.5864015748031495
11
4.4772932677165356
21
-6.5676538976377952
0
LINE
8
BLACK
6
CONTINUOUS
10
4.4772932677165356
20
-6.5676538976377952
11
4.4772932677165356
21
-6.5526557874015747
0
LINE
8
BLACK
6
CONTINUOUS
10
4.4772932677165356
20
-6.5526557874015747
11
4.4810427952755907
21
-6.5339081102362204
0
LINE
8
BLACK
6
CONTINUOUS
10
4.4810427952755907
20
-6.5339081102362204
11
4.4847923228346458
21
-6.5226595275590551
0
LINE
8
BLACK
6
CONTINUOUS
10
4.4847923228346458
20
-6.5226595275590551
11
4.4885418503937009
21
-6.5151604724409449
0
LINE
8
BLACK
6
CONTINUOUS
10
4.4885418503937009
20
-6.5151604724409449
11
4.4960409055118111
21
-6.5039118503937008
0
LINE
8
BLACK
6
CONTINUOUS
10
4.4960409055118111
20
-6.5039118503937008
11
4.499790472440945
21
-6.5001623228346457
0
LINE
8
BLACK
6
CONTINUOUS
10
4.5297866929133859
20
-6.5376576377952755
11
4.5297866929133859
21
-6.5901511023622046
0
LINE
8
BLACK
6
CONTINUOUS
10
4.5297866929133859
20
-6.5451566929133858
11
4.533536220472441
21
-6.5414071653543306
0
LINE
8
BLACK
6
CONTINUOUS
10
4.533536220472441
20
-6.5414071653543306
11
4.5410352755905512
21
-6.5376576377952755
0
LINE
8
BLACK
6
CONTINUOUS
10
4.5410352755905512
20
-6.5376576377952755
11
4.5522838976377953
21
-6.5376576377952755
0
LINE
8
BLACK
6
CONTINUOUS
10
4.5522838976377953
20
-6.5376576377952755
11
4.5597829527559055
21
-6.5414071653543306
0
LINE
8
BLACK
6
CONTINUOUS
10
4.5597829527559055
20
-6.5414071653543306
11
4.5635324803149606
21
-6.5489062598425196
0
LINE
8
BLACK
6
CONTINUOUS
10
4.5635324803149606
20
-6.5489062598425196
11
4.5635324803149606
21
-6.5901511023622046
0
LINE
8
BLACK
6
CONTINUOUS
10
4.6122763779527558
20
-6.5901511023622046
11
4.6047773228346456
21
-6.5864015748031495
0
LINE
8
BLACK
6
CONTINUOUS
10
4.6047773228346456
20
-6.5864015748031495
11
4.6010277952755905
21
-6.5826520078740156
0
LINE
8
BLACK
6
CONTINUOUS
10
4.6010277952755905
20
-6.5826520078740156
11
4.5972782677165354
21
-6.5751529527559054
0
LINE
8
BLACK
6
CONTINUOUS
10
4.5972782677165354
20
-6.5751529527559054
11
4.5972782677165354
21
-6.5526557874015747
0
LINE
8
BLACK
6
CONTINUOUS
10
4.5972782677165354
20
-6.5526557874015747
11
4.6010277952755905
21
-6.5451566929133858
0
LINE
8
BLACK
6
CONTINUOUS
10
4.6010277952755905
20
-6.5451566929133858
11
4.6047773228346456
21
-6.5414071653543306
0
LINE
8
BLACK
6
CONTINUOUS
10
4.6047773228346456
20
-6.5414071653543306
11
4.6122763779527558
21
-6.5376576377952755
0
LINE
8
BLACK
6
CONTINUOUS
10
4.6122763779527558
20
-6.5376576377952755
11
4.6235249999999999
21
-6.5376576377952755
0
LINE
8
BLACK
6
CONTINUOUS
10
4.6235249999999999
20
-6.5376576377952755
11
4.6310240551181101
21
-6.5414071653543306
0
LINE
8
BLACK
6
CONTINUOUS
10
4.6310240551181101
20
-6.5414071653543306
11
4.6347735826771652
21
-6.5451566929133858
0
LINE
8
BLACK
6
CONTINUOUS
10
4.6347735826771652
20
-6.5451566929133858
11
4.6385231102362203
21
-6.5526557874015747
0
LINE
8
BLACK
6
CONTINUOUS
10
4.6385231102362203
20
-6.5526557874015747
11
4.6385231102362203
21
-6.5751529527559054
0
LINE
8
BLACK
6
CONTINUOUS
10
4.6385231102362203
20
-6.5751529527559054
11
4.6347735826771652
21
-6.5826520078740156
0
LINE
8
BLACK
6
CONTINUOUS
10
4.6347735826771652
20
-6.5826520078740156
11
4.6310240551181101
21
-6.5864015748031495
0
LINE
8
BLACK
6
CONTINUOUS
10
4.6310240551181101
20
-6.5864015748031495
11
4.6235249999999999
21
-6.5901511023622046
0
LINE
8
BLACK
6
CONTINUOUS
10
4.6235249999999999
20
-6.5901511023622046
11
4.6122763779527558
21
-6.5901511023622046
0
LINE
8
BLACK
6
CONTINUOUS
10
4.6610203149606297
20
-6.5376576377952755
11
4.6910165354330706
21
-6.5376576377952755
0
LINE
8
BLACK
6
CONTINUOUS
10
4.6722688976377951
20
-6.5114109448818898
11
4.6722688976377951
21
-6.5789024803149605
0
LINE
8
BLACK
6
CONTINUOUS
10
4.6722688976377951
20
-6.5789024803149605
11
4.6760184251968502
21
-6.5864015748031495
0
LINE
8
BLACK
6
CONTINUOUS
10
4.6760184251968502
20
-6.5864015748031495
11
4.6835174803149604
21
-6.5901511023622046
0
LINE
8
BLACK
6
CONTINUOUS
10
4.6835174803149604
20
-6.5901511023622046
11
4.6910165354330706
21
-6.5901511023622046
0
LINE
8
BLACK
6
CONTINUOUS
10
4.7772557874015744
20
-6.5376576377952755
11
4.7772557874015744
21
-6.6163977952755904
0
LINE
8
BLACK
6
CONTINUOUS
10
4.7772557874015744
20
-6.5414071653543306
11
4.7847548425196846
21
-6.5376576377952755
0
LINE
8
BLACK
6
CONTINUOUS
10
4.7847548425196846
20
-6.5376576377952755
11
4.7997529921259838
21
-6.5376576377952755
0
LINE
8
BLACK
6
CONTINUOUS
10
4.7997529921259838
20
-6.5376576377952755
11
4.8072520472440941
21
-6.5414071653543306
0
LINE
8
BLACK
6
CONTINUOUS
10
4.8072520472440941
20
-6.5414071653543306
11
4.8110015748031492
21
-6.5451566929133858
0
LINE
8
BLACK
6
CONTINUOUS
10
4.8110015748031492
20
-6.5451566929133858
11
4.8147511023622043
21
-6.5526557874015747
0
LINE
8
BLACK
6
CONTINUOUS
10
4.8147511023622043
20
-6.5526557874015747
11
4.8147511023622043
21
-6.5751529527559054
0
LINE
8
BLACK
6
CONTINUOUS
10
4.8147511023622043
20
-6.5751529527559054
11
4.8110015748031492
21
-6.5826520078740156
0
LINE
8
BLACK
6
CONTINUOUS
10
4.8110015748031492
20
-6.5826520078740156
11
4.8072520472440941
21
-6.5864015748031495
0
LINE
8
BLACK
6
CONTINUOUS
10
4.8072520472440941
20
-6.5864015748031495
11
4.7997529921259838
21
-6.5901511023622046
0
LINE
8
BLACK
6
CONTINUOUS
10
4.7997529921259838
20
-6.5901511023622046
11
4.7847548425196846
21
-6.5901511023622046
0
LINE
8
BLACK
6
CONTINUOUS
10
4.7847548425196846
20
-6.5901511023622046
11
4.7772557874015744
21
-6.5864015748031495
0
LINE
8
BLACK
6
CONTINUOUS
10
4.8597454724409443
20
-6.5901511023622046
11
4.8522464173228341
21
-6.5864015748031495
0
LINE
8
BLACK
6
CONTINUOUS
10
4.8522464173228341
20
-6.5864015748031495
11
4.848496889763779
21
-6.5789024803149605
0
LINE
8
BLACK
6
CONTINUOUS
10
4.848496889763779
20
-6.5789024803149605
11
4.848496889763779
21
-6.5114109448818898
0
LINE
8
BLACK
6
CONTINUOUS
10
4.9234875196850396
20
-6.5901511023622046
11
4.9234875196850396
21
-6.5489062598425196
0
LINE
8
BLACK
6
CONTINUOUS
10
4.9234875196850396
20
-6.5489062598425196
11
4.9197379921259845
21
-6.5414071653543306
0
LINE
8
BLACK
6
CONTINUOUS
10
4.9197379921259845
20
-6.5414071653543306
11
4.9122389370078743
21
-6.5376576377952755
0
LINE
8
BLACK
6
CONTINUOUS
10
4.9122389370078743
20
-6.5376576377952755
11
4.8972407874015751
21
-6.5376576377952755
0
LINE
8
BLACK
6
CONTINUOUS
10
4.8972407874015751
20
-6.5376576377952755
11
4.8897417322834649
21
-6.5414071653543306
0
LINE
8
BLACK
6
CONTINUOUS
10
4.9234875196850396
20
-6.5864015748031495
11
4.9159884645669294
21
-6.5901511023622046
0
LINE
8
BLACK
6
CONTINUOUS
10
4.9159884645669294
20
-6.5901511023622046
11
4.8972407874015751
21
-6.5901511023622046
0
LINE
8
BLACK
6
CONTINUOUS
10
4.8972407874015751
20
-6.5901511023622046
11
4.8897417322834649
21
-6.5864015748031495
0
LINE
8
BLACK
6
CONTINUOUS
10
4.8897417322834649
20
-6.5864015748031495
11
4.8859922047244098
21
-6.5789024803149605
0
LINE
8
BLACK
6
CONTINUOUS
10
4.8859922047244098
20
-6.5789024803149605
11
4.8859922047244098
21
-6.5714034251968503
0
LINE
8
BLACK
6
CONTINUOUS
10
4.8859922047244098
20
-6.5714034251968503
11
4.8897417322834649
21
-6.5639043700787401
0
LINE
8
BLACK
6
CONTINUOUS
10
4.8897417322834649
20
-6.5639043700787401
11
4.8972407874015751
21
-6.5601548425196849
0
LINE
8
BLACK
6
CONTINUOUS
10
4.8972407874015751
20
-6.5601548425196849
11
4.9159884645669294
21
-6.5601548425196849
0
LINE
8
BLACK
6
CONTINUOUS
10
4.9159884645669294
20
-6.5601548425196849
11
4.9234875196850396
21
-6.5564053149606298
0
LINE
8
BLACK
6
CONTINUOUS
10
4.9497342519685041
20
-6.5376576377952755
11
4.979730472440945
21
-6.5376576377952755
0
LINE
8
BLACK
6
CONTINUOUS
10
4.9609828346456695
20
-6.5114109448818898
11
4.9609828346456695
21
-6.5789024803149605
0
LINE
8
BLACK
6
CONTINUOUS
10
4.9609828346456695
20
-6.5789024803149605
11
4.9647323622047246
21
-6.5864015748031495
0
LINE
8
BLACK
6
CONTINUOUS
10
4.9647323622047246
20
-6.5864015748031495
11
4.9722314173228348
21
-6.5901511023622046
0
LINE
8
BLACK
6
CONTINUOUS
10
4.9722314173228348
20
-6.5901511023622046
11
4.979730472440945
21
-6.5901511023622046
0
LINE
8
BLACK
6
CONTINUOUS
10
5.0359734645669292
20
-6.5864015748031495
11
5.028474409448819
21
-6.5901511023622046
0
LINE
8
BLACK
6
CONTINUOUS
10
5.028474409448819
20
-6.5901511023622046
11
5.0134762598425198
21
-6.5901511023622046
0
LINE
8
BLACK
6
CONTINUOUS
10
5.0134762598425198
20
-6.5901511023622046
11
5.0059772047244095
21
-6.5864015748031495
0
LINE
8
BLACK
6
CONTINUOUS
10
5.0059772047244095
20
-6.5864015748031495
11
5.0022276771653544
21
-6.5789024803149605
0
LINE
8
BLACK
6
CONTINUOUS
10
5.0022276771653544
20
-6.5789024803149605
11
5.0022276771653544
21
-6.5489062598425196
0
LINE
8
BLACK
6
CONTINUOUS
10
5.0022276771653544
20
-6.5489062598425196
11
5.0059772047244095
21
-6.5414071653543306
0
LINE
8
BLACK
6
CONTINUOUS
10
5.0059772047244095
20
-6.5414071653543306
11
5.0134762598425198
21
-6.5376576377952755
0
LINE
8
BLACK
6
CONTINUOUS
10
5.0134762598425198
20
-6.5376576377952755
11
5.028474409448819
21
-6.5376576377952755
0
LINE
8
BLACK
6
CONTINUOUS
10
5.028474409448819
20
-6.5376576377952755
11
5.0359734645669292
21
-6.5414071653543306
0
LINE
8
BLACK
6
CONTINUOUS
10
5.0359734645669292
20
-6.5414071653543306
11
5.0397229921259843
21
-6.5489062598425196
0
LINE
8
BLACK
6
CONTINUOUS
10
5.0397229921259843
20
-6.5489062598425196
11
5.0397229921259843
21
-6.5564053149606298
0
LINE
8
BLACK
6
CONTINUOUS
10
5.0397229921259843
20
-6.5564053149606298
11
5.0022276771653544
21
-6.5639043700787401
0
LINE
8
BLACK
6
CONTINUOUS
10
5.1072145669291338
20
-6.5901511023622046
11
5.1072145669291338
21
-6.5114109448818898
0
LINE
8
BLACK
6
CONTINUOUS
10
5.1072145669291338
20
-6.5864015748031495
11
5.0997155118110236
21
-6.5901511023622046
0
LINE
8
BLACK
6
CONTINUOUS
10
5.0997155118110236
20
-6.5901511023622046
11
5.0847173622047244
21
-6.5901511023622046
0
LINE
8
BLACK
6
CONTINUOUS
10
5.0847173622047244
20
-6.5901511023622046
11
5.0772183070866141
21
-6.5864015748031495
0
LINE
8
BLACK
6
CONTINUOUS
10
5.0772183070866141
20
-6.5864015748031495
11
5.073468779527559
21
-6.5826520078740156
0
LINE
8
BLACK
6
CONTINUOUS
10
5.073468779527559
20
-6.5826520078740156
11
5.0697192519685039
21
-6.5751529527559054
0
LINE
8
BLACK
6
CONTINUOUS
10
5.0697192519685039
20
-6.5751529527559054
11
5.0697192519685039
21
-6.5526557874015747
0
LINE
8
BLACK
6
CONTINUOUS
10
5.0697192519685039
20
-6.5526557874015747
11
5.073468779527559
21
-6.5451566929133858
0
LINE
8
BLACK
6
CONTINUOUS
10
5.073468779527559
20
-6.5451566929133858
11
5.0772183070866141
21
-6.5414071653543306
0
LINE
8
BLACK
6
CONTINUOUS
10
5.0772183070866141
20
-6.5414071653543306
11
5.0847173622047244
21
-6.5376576377952755
0
LINE
8
BLACK
6
CONTINUOUS
10
5.0847173622047244
20
-6.5376576377952755
11
5.0997155118110236
21
-6.5376576377952755
0
LINE
8
BLACK
6
CONTINUOUS
10
5.0997155118110236
20
-6.5376576377952755
11
5.1072145669291338
21
-6.5414071653543306
0
LINE
8
BLACK
6
CONTINUOUS
10
5.1372108267716534
20
-6.6201473228346455
11
5.1409603543307085
21
-6.6163977952755904
0
LINE
8
BLACK
6
CONTINUOUS
10
5.1409603543307085
20
-6.6163977952755904
11
5.1484594094488187
21
-6.605149212598425
0
LINE
8
BLACK
6
CONTINUOUS
10
5.1484594094488187
20
-6.605149212598425
11
5.1522089370078739
21
-6.5976501574803148
0
LINE
8
BLACK
6
CONTINUOUS
10
5.1522089370078739
20
-6.5976501574803148
11
5.155958464566929
21
-6.5864015748031495
0
LINE
8
BLACK
6
CONTINUOUS
10
5.155958464566929
20
-6.5864015748031495
11
5.1597079921259841
21
-6.5676538976377952
0
LINE
8
BLACK
6
CONTINUOUS
10
5.1597079921259841
20
-6.5676538976377952
11
5.1597079921259841
21
-6.5526557874015747
0
LINE
8
BLACK
6
CONTINUOUS
10
5.1597079921259841
20
-6.5526557874015747
11
5.155958464566929
21
-6.5339081102362204
0
LINE
8
BLACK
6
CONTINUOUS
10
5.155958464566929
20
-6.5339081102362204
11
5.1522089370078739
21
-6.5226595275590551
0
LINE
8
BLACK
6
CONTINUOUS
10
5.1522089370078739
20
-6.5226595275590551
11
5.1484594094488187
21
-6.5151604724409449
0
LINE
8
BLACK
6
CONTINUOUS
10
5.1484594094488187
20
-6.5151604724409449
11
5.1409603543307085
21
-6.5039118503937008
0
LINE
8
BLACK
6
CONTINUOUS
10
5.1409603543307085
20
-6.5039118503937008
11
5.1372108267716534
21
-6.5001623228346457
0
CIRCLE
8
BLACK
10
2.4379921259842519
20
-6.6801181102362204
40
0.0393700787401575
0
LINE
8
BLACK
6
CONTINUOUS
10
2.5725311811023621
20
-6.6373951968503935
11
2.6212750787401573
21
-6.6373951968503935
0
LINE
8
BLACK
6
CONTINUOUS
10
2.6212750787401573
20
-6.6373951968503935
11
2.5950283464566928
21
-6.6673914173228344
0
LINE
8
BLACK
6
CONTINUOUS
10
2.5950283464566928
20
-6.6673914173228344
11
2.6062769685039369
21
-6.6673914173228344
0
LINE
8
BLACK
6
CONTINUOUS
10
2.6062769685039369
20
-6.6673914173228344
11
2.6137760236220471
21
-6.6711409448818895
0
LINE
8
BLACK
6
CONTINUOUS
10
2.6137760236220471
20
-6.6711409448818895
11
2.6175255511811022
21
-6.6748905118110233
0
LINE
8
BLACK
6
CONTINUOUS
10
2.6175255511811022
20
-6.6748905118110233
11
2.6212750787401573
21
-6.6823895669291336
0
LINE
8
BLACK
6
CONTINUOUS
10
2.6212750787401573
20
-6.6823895669291336
11
2.6212750787401573
21
-6.7011372047244091
0
LINE
8
BLACK
6
CONTINUOUS
10
2.6212750787401573
20
-6.7011372047244091
11
2.6175255511811022
21
-6.7086362598425193
0
LINE
8
BLACK
6
CONTINUOUS
10
2.6175255511811022
20
-6.7086362598425193
11
2.6137760236220471
21
-6.7123858267716532
0
LINE
8
BLACK
6
CONTINUOUS
10
2.6137760236220471
20
-6.7123858267716532
11
2.6062769685039369
21
-6.7161353543307083
0
LINE
8
BLACK
6
CONTINUOUS
10
2.6062769685039369
20
-6.7161353543307083
11
2.5837797637795274
21
-6.7161353543307083
0
LINE
8
BLACK
6
CONTINUOUS
10
2.5837797637795274
20
-6.7161353543307083
11
2.5762807086614172
21
-6.7123858267716532
0
LINE
8
BLACK
6
CONTINUOUS
10
2.5762807086614172
20
-6.7123858267716532
11
2.5725311811023621
21
-6.7086362598425193
0
LINE
8
BLACK
6
CONTINUOUS
10
2.655020866141732
20
-6.7086362598425193
11
2.6587703937007872
21
-6.7123858267716532
0
LINE
8
BLACK
6
CONTINUOUS
10
2.6587703937007872
20
-6.7123858267716532
11
2.655020866141732
21
-6.7161353543307083
0
LINE
8
BLACK
6
CONTINUOUS
10
2.655020866141732
20
-6.7161353543307083
11
2.6512713385826769
21
-6.7123858267716532
0
LINE
8
BLACK
6
CONTINUOUS
10
2.6512713385826769
20
-6.7123858267716532
11
2.655020866141732
21
-6.7086362598425193
0
LINE
8
BLACK
6
CONTINUOUS
10
2.655020866141732
20
-6.7086362598425193
11
2.655020866141732
21
-6.7161353543307083
0
LINE
8
BLACK
6
CONTINUOUS
10
2.7262619685039371
20
-6.6636418897637792
11
2.7262619685039371
21
-6.7161353543307083
0
LINE
8
BLACK
6
CONTINUOUS
10
2.7075142913385828
20
-6.6336456692913384
11
2.6887666535433072
21
-6.6898886220472438
0
LINE
8
BLACK
6
CONTINUOUS
10
2.6887666535433072
20
-6.6898886220472438
11
2.7375105511811024
21
-6.6898886220472438
0
LINE
8
BLACK
6
CONTINUOUS
10
2.7825049212598425
20
-6.6373951968503935
11
2.7900040157480315
21
-6.6373951968503935
0
LINE
8
BLACK
6
CONTINUOUS
10
2.7900040157480315
20
-6.6373951968503935
11
2.7975030708661417
21
-6.6411447244094486
0
LINE
8
BLACK
6
CONTINUOUS
10
2.7975030708661417
20
-6.6411447244094486
11
2.8012525984251968
21
-6.6448942519685037
0
LINE
8
BLACK
6
CONTINUOUS
10
2.8012525984251968
20
-6.6448942519685037
11
2.8050021259842519
21
-6.6523933070866139
0
LINE
8
BLACK
6
CONTINUOUS
10
2.8050021259842519
20
-6.6523933070866139
11
2.808751653543307
21
-6.6673914173228344
0
LINE
8
BLACK
6
CONTINUOUS
10
2.808751653543307
20
-6.6673914173228344
11
2.808751653543307
21
-6.6861390944881887
0
LINE
8
BLACK
6
CONTINUOUS
10
2.808751653543307
20
-6.6861390944881887
11
2.8050021259842519
21
-6.7011372047244091
0
LINE
8
BLACK
6
CONTINUOUS
10
2.8050021259842519
20
-6.7011372047244091
11
2.8012525984251968
21
-6.7086362598425193
0
LINE
8
BLACK
6
CONTINUOUS
10
2.8012525984251968
20
-6.7086362598425193
11
2.7975030708661417
21
-6.7123858267716532
0
LINE
8
BLACK
6
CONTINUOUS
10
2.7975030708661417
20
-6.7123858267716532
11
2.7900040157480315
21
-6.7161353543307083
0
LINE
8
BLACK
6
CONTINUOUS
10
2.7900040157480315
20
-6.7161353543307083
11
2.7825049212598425
21
-6.7161353543307083
0
LINE
8
BLACK
6
CONTINUOUS
10
2.7825049212598425
20
-6.7161353543307083
11
2.7750058661417323
21
-6.7123858267716532
0
LINE
8
BLACK
6
CONTINUOUS
10
2.7750058661417323
20
-6.7123858267716532
11
2.7712563385826772
21
-6.7086362598425193
0
LINE
8
BLACK
6
CONTINUOUS
10
2.7712563385826772
20
-6.7086362598425193
11
2.7675068110236221
21
-6.7011372047244091
0
LINE
8
BLACK
6
CONTINUOUS
10
2.7675068110236221
20
-6.7011372047244091
11
2.7637572834645669
21
-6.6861390944881887
0
LINE
8
BLACK
6
CONTINUOUS
10
2.7637572834645669
20
-6.6861390944881887
11
2.7637572834645669
21
-6.6673914173228344
0
LINE
8
BLACK
6
CONTINUOUS
10
2.7637572834645669
20
-6.6673914173228344
11
2.7675068110236221
21
-6.6523933070866139
0
LINE
8
BLACK
6
CONTINUOUS
10
2.7675068110236221
20
-6.6523933070866139
11
2.7712563385826772
21
-6.6448942519685037
0
LINE
8
BLACK
6
CONTINUOUS
10
2.7712563385826772
20
-6.6448942519685037
11
2.7750058661417323
21
-6.6411447244094486
0
LINE
8
BLACK
6
CONTINUOUS
10
2.7750058661417323
20
-6.6411447244094486
11
2.7825049212598425
21
-6.6373951968503935
0
LINE
8
BLACK
6
CONTINUOUS
10
2.8574955511811022
20
-6.6373951968503935
11
2.8649946456692912
21
-6.6373951968503935
0
LINE
8
BLACK
6
CONTINUOUS
10
2.8649946456692912
20
-6.6373951968503935
11
2.8724937007874014
21
-6.6411447244094486
0
LINE
8
BLACK
6
CONTINUOUS
10
2.8724937007874014
20
-6.6411447244094486
11
2.8762432283464565
21
-6.6448942519685037
0
LINE
8
BLACK
6
CONTINUOUS
10
2.8762432283464565
20
-6.6448942519685037
11
2.8799927559055116
21
-6.6523933070866139
0
LINE
8
BLACK
6
CONTINUOUS
10
2.8799927559055116
20
-6.6523933070866139
11
2.8837422834645667
21
-6.6673914173228344
0
LINE
8
BLACK
6
CONTINUOUS
10
2.8837422834645667
20
-6.6673914173228344
11
2.8837422834645667
21
-6.6861390944881887
0
LINE
8
BLACK
6
CONTINUOUS
10
2.8837422834645667
20
-6.6861390944881887
11
2.8799927559055116
21
-6.7011372047244091
0
LINE
8
BLACK
6
CONTINUOUS
10
2.8799927559055116
20
-6.7011372047244091
11
2.8762432283464565
21
-6.7086362598425193
0
LINE
8
BLACK
6
CONTINUOUS
10
2.8762432283464565
20
-6.7086362598425193
11
2.8724937007874014
21
-6.7123858267716532
0
LINE
8
BLACK
6
CONTINUOUS
10
2.8724937007874014
20
-6.7123858267716532
11
2.8649946456692912
21
-6.7161353543307083
0
LINE
8
BLACK
6
CONTINUOUS
10
2.8649946456692912
20
-6.7161353543307083
11
2.8574955511811022
21
-6.7161353543307083
0
LINE
8
BLACK
6
CONTINUOUS
10
2.8574955511811022
20
-6.7161353543307083
11
2.849996496062992
21
-6.7123858267716532
0
LINE
8
BLACK
6
CONTINUOUS
10
2.849996496062992
20
-6.7123858267716532
11
2.8462469685039369
21
-6.7086362598425193
0
LINE
8
BLACK
6
CONTINUOUS
10
2.8462469685039369
20
-6.7086362598425193
11
2.8424974409448818
21
-6.7011372047244091
0
LINE
8
BLACK
6
CONTINUOUS
10
2.8424974409448818
20
-6.7011372047244091
11
2.8387479133858267
21
-6.6861390944881887
0
LINE
8
BLACK
6
CONTINUOUS
10
2.8387479133858267
20
-6.6861390944881887
11
2.8387479133858267
21
-6.6673914173228344
0
LINE
8
BLACK
6
CONTINUOUS
10
2.8387479133858267
20
-6.6673914173228344
11
2.8424974409448818
21
-6.6523933070866139
0
LINE
8
BLACK
6
CONTINUOUS
10
2.8424974409448818
20
-6.6523933070866139
11
2.8462469685039369
21
-6.6448942519685037
0
LINE
8
BLACK
6
CONTINUOUS
10
2.8462469685039369
20
-6.6448942519685037
11
2.849996496062992
21
-6.6411447244094486
0
LINE
8
BLACK
6
CONTINUOUS
10
2.849996496062992
20
-6.6411447244094486
11
2.8574955511811022
21
-6.6373951968503935
0
LINE
8
BLACK
6
CONTINUOUS
10
2.9174880708661415
20
-6.7161353543307083
11
2.9174880708661415
21
-6.6636418897637792
0
LINE
8
BLACK
6
CONTINUOUS
10
2.9174880708661415
20
-6.6711409448818895
11
2.9212375984251966
21
-6.6673914173228344
0
LINE
8
BLACK
6
CONTINUOUS
10
2.9212375984251966
20
-6.6673914173228344
11
2.9287366535433068
21
-6.6636418897637792
0
LINE
8
BLACK
6
CONTINUOUS
10
2.9287366535433068
20
-6.6636418897637792
11
2.9399852755905509
21
-6.6636418897637792
0
LINE
8
BLACK
6
CONTINUOUS
10
2.9399852755905509
20
-6.6636418897637792
11
2.9474843307086616
21
-6.6673914173228344
0
LINE
8
BLACK
6
CONTINUOUS
10
2.9474843307086616
20
-6.6673914173228344
11
2.9512338582677167
21
-6.6748905118110233
0
LINE
8
BLACK
6
CONTINUOUS
10
2.9512338582677167
20
-6.6748905118110233
11
2.9512338582677167
21
-6.7161353543307083
0
LINE
8
BLACK
6
CONTINUOUS
10
2.9512338582677167
20
-6.6748905118110233
11
2.9549833858267718
21
-6.6673914173228344
0
LINE
8
BLACK
6
CONTINUOUS
10
2.9549833858267718
20
-6.6673914173228344
11
2.962482440944882
21
-6.6636418897637792
0
LINE
8
BLACK
6
CONTINUOUS
10
2.962482440944882
20
-6.6636418897637792
11
2.9737310236220473
21
-6.6636418897637792
0
LINE
8
BLACK
6
CONTINUOUS
10
2.9737310236220473
20
-6.6636418897637792
11
2.9812301181102363
21
-6.6673914173228344
0
LINE
8
BLACK
6
CONTINUOUS
10
2.9812301181102363
20
-6.6673914173228344
11
2.9849796456692914
21
-6.6748905118110233
0
LINE
8
BLACK
6
CONTINUOUS
10
2.9849796456692914
20
-6.6748905118110233
11
2.9849796456692914
21
-6.7161353543307083
0
LINE
8
BLACK
6
CONTINUOUS
10
3.0224749606299213
20
-6.7161353543307083
11
3.0224749606299213
21
-6.6636418897637792
0
LINE
8
BLACK
6
CONTINUOUS
10
3.0224749606299213
20
-6.6711409448818895
11
3.0262244881889764
21
-6.6673914173228344
0
LINE
8
BLACK
6
CONTINUOUS
10
3.0262244881889764
20
-6.6673914173228344
11
3.0337235433070866
21
-6.6636418897637792
0
LINE
8
BLACK
6
CONTINUOUS
10
3.0337235433070866
20
-6.6636418897637792
11
3.0449721653543307
21
-6.6636418897637792
0
LINE
8
BLACK
6
CONTINUOUS
10
3.0449721653543307
20
-6.6636418897637792
11
3.0524712204724409
21
-6.6673914173228344
0
LINE
8
BLACK
6
CONTINUOUS
10
3.0524712204724409
20
-6.6673914173228344
11
3.056220748031496
21
-6.6748905118110233
0
LINE
8
BLACK
6
CONTINUOUS
10
3.056220748031496
20
-6.6748905118110233
11
3.056220748031496
21
-6.7161353543307083
0
LINE
8
BLACK
6
CONTINUOUS
10
3.056220748031496
20
-6.6748905118110233
11
3.0599702755905511
21
-6.6673914173228344
0
LINE
8
BLACK
6
CONTINUOUS
10
3.0599702755905511
20
-6.6673914173228344
11
3.0674693307086613
21
-6.6636418897637792
0
LINE
8
BLACK
6
CONTINUOUS
10
3.0674693307086613
20
-6.6636418897637792
11
3.0787179133858267
21
-6.6636418897637792
0
LINE
8
BLACK
6
CONTINUOUS
10
3.0787179133858267
20
-6.6636418897637792
11
3.0862170078740156
21
-6.6673914173228344
0
LINE
8
BLACK
6
CONTINUOUS
10
3.0862170078740156
20
-6.6673914173228344
11
3.0899665354330708
21
-6.6748905118110233
0
LINE
8
BLACK
6
CONTINUOUS
10
3.0899665354330708
20
-6.6748905118110233
11
3.0899665354330708
21
-6.7161353543307083
0
LINE
8
BLACK
6
CONTINUOUS
10
3.2436973228346457
20
-6.6336456692913384
11
3.1762057874015746
21
-6.7348829921259838
0
LINE
8
BLACK
6
CONTINUOUS
10
3.34493468503937
20
-6.6373951968503935
11
3.3524337795275589
21
-6.6373951968503935
0
LINE
8
BLACK
6
CONTINUOUS
10
3.3524337795275589
20
-6.6373951968503935
11
3.3599328346456692
21
-6.6411447244094486
0
LINE
8
BLACK
6
CONTINUOUS
10
3.3599328346456692
20
-6.6411447244094486
11
3.3636823622047243
21
-6.6448942519685037
0
LINE
8
BLACK
6
CONTINUOUS
10
3.3636823622047243
20
-6.6448942519685037
11
3.3674318897637794
21
-6.6523933070866139
0
LINE
8
BLACK
6
CONTINUOUS
10
3.3674318897637794
20
-6.6523933070866139
11
3.3711814173228345
21
-6.6673914173228344
0
LINE
8
BLACK
6
CONTINUOUS
10
3.3711814173228345
20
-6.6673914173228344
11
3.3711814173228345
21
-6.6861390944881887
0
LINE
8
BLACK
6
CONTINUOUS
10
3.3711814173228345
20
-6.6861390944881887
11
3.3674318897637794
21
-6.7011372047244091
0
LINE
8
BLACK
6
CONTINUOUS
10
3.3674318897637794
20
-6.7011372047244091
11
3.3636823622047243
21
-6.7086362598425193
0
LINE
8
BLACK
6
CONTINUOUS
10
3.3636823622047243
20
-6.7086362598425193
11
3.3599328346456692
21
-6.7123858267716532
0
LINE
8
BLACK
6
CONTINUOUS
10
3.3599328346456692
20
-6.7123858267716532
11
3.3524337795275589
21
-6.7161353543307083
0
LINE
8
BLACK
6
CONTINUOUS
10
3.3524337795275589
20
-6.7161353543307083
11
3.34493468503937
21
-6.7161353543307083
0
LINE
8
BLACK
6
CONTINUOUS
10
3.34493468503937
20
-6.7161353543307083
11
3.3374356299212597
21
-6.7123858267716532
0
LINE
8
BLACK
6
CONTINUOUS
10
3.3374356299212597
20
-6.7123858267716532
11
3.3336861023622046
21
-6.7086362598425193
0
LINE
8
BLACK
6
CONTINUOUS
10
3.3336861023622046
20
-6.7086362598425193
11
3.3299365748031495
21
-6.7011372047244091
0
LINE
8
BLACK
6
CONTINUOUS
10
3.3299365748031495
20
-6.7011372047244091
11
3.3261870472440944
21
-6.6861390944881887
0
LINE
8
BLACK
6
CONTINUOUS
10
3.3261870472440944
20
-6.6861390944881887
11
3.3261870472440944
21
-6.6673914173228344
0
LINE
8
BLACK
6
CONTINUOUS
10
3.3261870472440944
20
-6.6673914173228344
11
3.3299365748031495
21
-6.6523933070866139
0
LINE
8
BLACK
6
CONTINUOUS
10
3.3299365748031495
20
-6.6523933070866139
11
3.3336861023622046
21
-6.6448942519685037
0
LINE
8
BLACK
6
CONTINUOUS
10
3.3336861023622046
20
-6.6448942519685037
11
3.3374356299212597
21
-6.6411447244094486
0
LINE
8
BLACK
6
CONTINUOUS
10
3.3374356299212597
20
-6.6411447244094486
11
3.34493468503937
21
-6.6373951968503935
0
LINE
8
BLACK
6
CONTINUOUS
10
3.4049272047244092
20
-6.7086362598425193
11
3.4086767322834644
21
-6.7123858267716532
0
LINE
8
BLACK
6
CONTINUOUS
10
3.4086767322834644
20
-6.7123858267716532
11
3.4049272047244092
21
-6.7161353543307083
0
LINE
8
BLACK
6
CONTINUOUS
10
3.4049272047244092
20
-6.7161353543307083
11
3.4011776771653541
21
-6.7123858267716532
0
LINE
8
BLACK
6
CONTINUOUS
10
3.4011776771653541
20
-6.7123858267716532
11
3.4049272047244092
21
-6.7086362598425193
0
LINE
8
BLACK
6
CONTINUOUS
10
3.4049272047244092
20
-6.7086362598425193
11
3.4049272047244092
21
-6.7161353543307083
0
LINE
8
BLACK
6
CONTINUOUS
10
3.4836673622047245
20
-6.7161353543307083
11
3.438672992125984
21
-6.7161353543307083
0
LINE
8
BLACK
6
CONTINUOUS
10
3.4611701574803151
20
-6.7161353543307083
11
3.4611701574803151
21
-6.6373951968503935
0
LINE
8
BLACK
6
CONTINUOUS
10
3.4611701574803151
20
-6.6373951968503935
11
3.4536711023622044
21
-6.6486437795275588
0
LINE
8
BLACK
6
CONTINUOUS
10
3.4536711023622044
20
-6.6486437795275588
11
3.4461720472440942
21
-6.656142834645669
0
LINE
8
BLACK
6
CONTINUOUS
10
3.4461720472440942
20
-6.656142834645669
11
3.438672992125984
21
-6.6598923622047241
0
LINE
8
BLACK
6
CONTINUOUS
10
3.509914094488189
20
-6.6373951968503935
11
3.5586579921259842
21
-6.6373951968503935
0
LINE
8
BLACK
6
CONTINUOUS
10
3.5586579921259842
20
-6.6373951968503935
11
3.5324112598425197
21
-6.6673914173228344
0
LINE
8
BLACK
6
CONTINUOUS
10
3.5324112598425197
20
-6.6673914173228344
11
3.5436598818897638
21
-6.6673914173228344
0
LINE
8
BLACK
6
CONTINUOUS
10
3.5436598818897638
20
-6.6673914173228344
11
3.551158937007874
21
-6.6711409448818895
0
LINE
8
BLACK
6
CONTINUOUS
10
3.551158937007874
20
-6.6711409448818895
11
3.5549084645669291
21
-6.6748905118110233
0
LINE
8
BLACK
6
CONTINUOUS
10
3.5549084645669291
20
-6.6748905118110233
11
3.5586579921259842
21
-6.6823895669291336
0
LINE
8
BLACK
6
CONTINUOUS
10
3.5586579921259842
20
-6.6823895669291336
11
3.5586579921259842
21
-6.7011372047244091
0
LINE
8
BLACK
6
CONTINUOUS
10
3.5586579921259842
20
-6.7011372047244091
11
3.5549084645669291
21
-6.7086362598425193
0
LINE
8
BLACK
6
CONTINUOUS
10
3.5549084645669291
20
-6.7086362598425193
11
3.551158937007874
21
-6.7123858267716532
0
LINE
8
BLACK
6
CONTINUOUS
10
3.551158937007874
20
-6.7123858267716532
11
3.5436598818897638
21
-6.7161353543307083
0
LINE
8
BLACK
6
CONTINUOUS
10
3.5436598818897638
20
-6.7161353543307083
11
3.5211626771653544
21
-6.7161353543307083
0
LINE
8
BLACK
6
CONTINUOUS
10
3.5211626771653544
20
-6.7161353543307083
11
3.5136636220472441
21
-6.7123858267716532
0
LINE
8
BLACK
6
CONTINUOUS
10
3.5136636220472441
20
-6.7123858267716532
11
3.509914094488189
21
-6.7086362598425193
0
LINE
8
BLACK
6
CONTINUOUS
10
3.5849047244094487
20
-6.6373951968503935
11
3.6336486220472439
21
-6.6373951968503935
0
LINE
8
BLACK
6
CONTINUOUS
10
3.6336486220472439
20
-6.6373951968503935
11
3.6074018897637794
21
-6.6673914173228344
0
LINE
8
BLACK
6
CONTINUOUS
10
3.6074018897637794
20
-6.6673914173228344
11
3.6186505118110235
21
-6.6673914173228344
0
LINE
8
BLACK
6
CONTINUOUS
10
3.6186505118110235
20
-6.6673914173228344
11
3.6261495669291337
21
-6.6711409448818895
0
LINE
8
BLACK
6
CONTINUOUS
10
3.6261495669291337
20
-6.6711409448818895
11
3.6298990944881888
21
-6.6748905118110233
0
LINE
8
BLACK
6
CONTINUOUS
10
3.6298990944881888
20
-6.6748905118110233
11
3.6336486220472439
21
-6.6823895669291336
0
LINE
8
BLACK
6
CONTINUOUS
10
3.6336486220472439
20
-6.6823895669291336
11
3.6336486220472439
21
-6.7011372047244091
0
LINE
8
BLACK
6
CONTINUOUS
10
3.6336486220472439
20
-6.7011372047244091
11
3.6298990944881888
21
-6.7086362598425193
0
LINE
8
BLACK
6
CONTINUOUS
10
3.6298990944881888
20
-6.7086362598425193
11
3.6261495669291337
21
-6.7123858267716532
0
LINE
8
BLACK
6
CONTINUOUS
10
3.6261495669291337
20
-6.7123858267716532
11
3.6186505118110235
21
-6.7161353543307083
0
LINE
8
BLACK
6
CONTINUOUS
10
3.6186505118110235
20
-6.7161353543307083
11
3.5961533070866141
21
-6.7161353543307083
0
LINE
8
BLACK
6
CONTINUOUS
10
3.5961533070866141
20
-6.7161353543307083
11
3.5886542519685038
21
-6.7123858267716532
0
LINE
8
BLACK
6
CONTINUOUS
10
3.5886542519685038
20
-6.7123858267716532
11
3.5849047244094487
21
-6.7086362598425193
0
LINE
8
BLACK
6
CONTINUOUS
10
3.6711439370078738
20
-6.7161353543307083
11
3.6861420472440942
21
-6.7161353543307083
0
LINE
8
BLACK
6
CONTINUOUS
10
3.6861420472440942
20
-6.7161353543307083
11
3.6936411417322832
21
-6.7123858267716532
0
LINE
8
BLACK
6
CONTINUOUS
10
3.6936411417322832
20
-6.7123858267716532
11
3.6973906692913383
21
-6.7086362598425193
0
LINE
8
BLACK
6
CONTINUOUS
10
3.6973906692913383
20
-6.7086362598425193
11
3.7048897244094485
21
-6.697387677165354
0
LINE
8
BLACK
6
CONTINUOUS
10
3.7048897244094485
20
-6.697387677165354
11
3.7086392519685036
21
-6.6823895669291336
0
LINE
8
BLACK
6
CONTINUOUS
10
3.7086392519685036
20
-6.6823895669291336
11
3.7086392519685036
21
-6.6523933070866139
0
LINE
8
BLACK
6
CONTINUOUS
10
3.7086392519685036
20
-6.6523933070866139
11
3.7048897244094485
21
-6.6448942519685037
0
LINE
8
BLACK
6
CONTINUOUS
10
3.7048897244094485
20
-6.6448942519685037
11
3.7011401968503934
21
-6.6411447244094486
0
LINE
8
BLACK
6
CONTINUOUS
10
3.7011401968503934
20
-6.6411447244094486
11
3.6936411417322832
21
-6.6373951968503935
0
LINE
8
BLACK
6
CONTINUOUS
10
3.6936411417322832
20
-6.6373951968503935
11
3.678642992125984
21
-6.6373951968503935
0
LINE
8
BLACK
6
CONTINUOUS
10
3.678642992125984
20
-6.6373951968503935
11
3.6711439370078738
21
-6.6411447244094486
0
LINE
8
BLACK
6
CONTINUOUS
10
3.6711439370078738
20
-6.6411447244094486
11
3.6673944094488187
21
-6.6448942519685037
0
LINE
8
BLACK
6
CONTINUOUS
10
3.6673944094488187
20
-6.6448942519685037
11
3.6636448818897636
21
-6.6523933070866139
0
LINE
8
BLACK
6
CONTINUOUS
10
3.6636448818897636
20
-6.6523933070866139
11
3.6636448818897636
21
-6.6711409448818895
0
LINE
8
BLACK
6
CONTINUOUS
10
3.6636448818897636
20
-6.6711409448818895
11
3.6673944094488187
21
-6.6786400393700784
0
LINE
8
BLACK
6
CONTINUOUS
10
3.6673944094488187
20
-6.6786400393700784
11
3.6711439370078738
21
-6.6823895669291336
0
LINE
8
BLACK
6
CONTINUOUS
10
3.6711439370078738
20
-6.6823895669291336
11
3.678642992125984
21
-6.6861390944881887
0
LINE
8
BLACK
6
CONTINUOUS
10
3.678642992125984
20
-6.6861390944881887
11
3.6936411417322832
21
-6.6861390944881887
0
LINE
8
BLACK
6
CONTINUOUS
10
3.6936411417322832
20
-6.6861390944881887
11
3.7011401968503934
21
-6.6823895669291336
0
LINE
8
BLACK
6
CONTINUOUS
10
3.7011401968503934
20
-6.6823895669291336
11
3.7048897244094485
21
-6.6786400393700784
0
LINE
8
BLACK
6
CONTINUOUS
10
3.7048897244094485
20
-6.6786400393700784
11
3.7086392519685036
21
-6.6711409448818895
0
LINE
8
BLACK
6
CONTINUOUS
10
3.7386355118110237
20
-6.6373951968503935
11
3.7386355118110237
21
-6.6523933070866139
0
LINE
8
BLACK
6
CONTINUOUS
10
3.7686317716535433
20
-6.6373951968503935
11
3.7686317716535433
21
-6.6523933070866139
0
LINE
8
BLACK
6
CONTINUOUS
10
3.8848672834645668
20
-6.7461315748031492
11
3.8811177165354329
21
-6.7423820472440941
0
LINE
8
BLACK
6
CONTINUOUS
10
3.8811177165354329
20
-6.7423820472440941
11
3.8736186614173227
21
-6.7311334645669287
0
LINE
8
BLACK
6
CONTINUOUS
10
3.8736186614173227
20
-6.7311334645669287
11
3.8698691338582676
21
-6.7236344094488185
0
LINE
8
BLACK
6
CONTINUOUS
10
3.8698691338582676
20
-6.7236344094488185
11
3.8661196062992125
21
-6.7123858267716532
0
LINE
8
BLACK
6
CONTINUOUS
10
3.8661196062992125
20
-6.7123858267716532
11
3.8623700787401574
21
-6.6936381496062989
0
LINE
8
BLACK
6
CONTINUOUS
10
3.8623700787401574
20
-6.6936381496062989
11
3.8623700787401574
21
-6.6786400393700784
0
LINE
8
BLACK
6
CONTINUOUS
10
3.8623700787401574
20
-6.6786400393700784
11
3.8661196062992125
21
-6.6598923622047241
0
LINE
8
BLACK
6
CONTINUOUS
10
3.8661196062992125
20
-6.6598923622047241
11
3.8698691338582676
21
-6.6486437795275588
0
LINE
8
BLACK
6
CONTINUOUS
10
3.8698691338582676
20
-6.6486437795275588
11
3.8736186614173227
21
-6.6411447244094486
0
LINE
8
BLACK
6
CONTINUOUS
10
3.8736186614173227
20
-6.6411447244094486
11
3.8811177165354329
21
-6.6298961023622045
0
LINE
8
BLACK
6
CONTINUOUS
10
3.8811177165354329
20
-6.6298961023622045
11
3.8848672834645668
21
-6.6261465748031494
0
LINE
8
BLACK
6
CONTINUOUS
10
3.9486092913385824
20
-6.6636418897637792
11
3.9486092913385824
21
-6.7161353543307083
0
LINE
8
BLACK
6
CONTINUOUS
10
3.9298616141732281
20
-6.6336456692913384
11
3.9111139763779526
21
-6.6898886220472438
0
LINE
8
BLACK
6
CONTINUOUS
10
3.9111139763779526
20
-6.6898886220472438
11
3.9598578740157477
21
-6.6898886220472438
0
LINE
8
BLACK
6
CONTINUOUS
10
4.0498466535433071
20
-6.7161353543307083
11
4.0498466535433071
21
-6.6373951968503935
0
LINE
8
BLACK
6
CONTINUOUS
10
4.0835924409448818
20
-6.7161353543307083
11
4.0835924409448818
21
-6.6748905118110233
0
LINE
8
BLACK
6
CONTINUOUS
10
4.0835924409448818
20
-6.6748905118110233
11
4.0798429133858267
21
-6.6673914173228344
0
LINE
8
BLACK
6
CONTINUOUS
10
4.0798429133858267
20
-6.6673914173228344
11
4.0723438582677165
21
-6.6636418897637792
0
LINE
8
BLACK
6
CONTINUOUS
10
4.0723438582677165
20
-6.6636418897637792
11
4.0610952362204724
21
-6.6636418897637792
0
LINE
8
BLACK
6
CONTINUOUS
10
4.0610952362204724
20
-6.6636418897637792
11
4.0535961811023622
21
-6.6673914173228344
0
LINE
8
BLACK
6
CONTINUOUS
10
4.0535961811023622
20
-6.6673914173228344
11
4.0498466535433071
21
-6.6711409448818895
0
LINE
8
BLACK
6
CONTINUOUS
10
4.132336338582677
20
-6.7161353543307083
11
4.1248372834645668
21
-6.7123858267716532
0
LINE
8
BLACK
6
CONTINUOUS
10
4.1248372834645668
20
-6.7123858267716532
11
4.1210877559055117
21
-6.7086362598425193
0
LINE
8
BLACK
6
CONTINUOUS
10
4.1210877559055117
20
-6.7086362598425193
11
4.1173382283464566
21
-6.7011372047244091
0
LINE
8
BLACK
6
CONTINUOUS
10
4.1173382283464566
20
-6.7011372047244091
11
4.1173382283464566
21
-6.6786400393700784
0
LINE
8
BLACK
6
CONTINUOUS
10
4.1173382283464566
20
-6.6786400393700784
11
4.1210877559055117
21
-6.6711409448818895
0
LINE
8
BLACK
6
CONTINUOUS
10
4.1210877559055117
20
-6.6711409448818895
11
4.1248372834645668
21
-6.6673914173228344
0
LINE
8
BLACK
6
CONTINUOUS
10
4.1248372834645668
20
-6.6673914173228344
11
4.132336338582677
21
-6.6636418897637792
0
LINE
8
BLACK
6
CONTINUOUS
10
4.132336338582677
20
-6.6636418897637792
11
4.1435849606299211
21
-6.6636418897637792
0
LINE
8
BLACK
6
CONTINUOUS
10
4.1435849606299211
20
-6.6636418897637792
11
4.1510840157480313
21
-6.6673914173228344
0
LINE
8
BLACK
6
CONTINUOUS
10
4.1510840157480313
20
-6.6673914173228344
11
4.1548335433070864
21
-6.6711409448818895
0
LINE
8
BLACK
6
CONTINUOUS
10
4.1548335433070864
20
-6.6711409448818895
11
4.1585830708661415
21
-6.6786400393700784
0
LINE
8
BLACK
6
CONTINUOUS
10
4.1585830708661415
20
-6.6786400393700784
11
4.1585830708661415
21
-6.7011372047244091
0
LINE
8
BLACK
6
CONTINUOUS
10
4.1585830708661415
20
-6.7011372047244091
11
4.1548335433070864
21
-6.7086362598425193
0
LINE
8
BLACK
6
CONTINUOUS
10
4.1548335433070864
20
-6.7086362598425193
11
4.1510840157480313
21
-6.7123858267716532
0
LINE
8
BLACK
6
CONTINUOUS
10
4.1510840157480313
20
-6.7123858267716532
11
4.1435849606299211
21
-6.7161353543307083
0
LINE
8
BLACK
6
CONTINUOUS
10
4.1435849606299211
20
-6.7161353543307083
11
4.132336338582677
21
-6.7161353543307083
0
LINE
8
BLACK
6
CONTINUOUS
10
4.2035774409448816
20
-6.7161353543307083
11
4.1960783858267714
21
-6.7123858267716532
0
LINE
8
BLACK
6
CONTINUOUS
10
4.1960783858267714
20
-6.7123858267716532
11
4.1923288582677163
21
-6.7048867322834642
0
LINE
8
BLACK
6
CONTINUOUS
10
4.1923288582677163
20
-6.7048867322834642
11
4.1923288582677163
21
-6.6373951968503935
0
LINE
8
BLACK
6
CONTINUOUS
10
4.2635699606299209
20
-6.7123858267716532
11
4.2560709055118107
21
-6.7161353543307083
0
LINE
8
BLACK
6
CONTINUOUS
10
4.2560709055118107
20
-6.7161353543307083
11
4.2410727559055115
21
-6.7161353543307083
0
LINE
8
BLACK
6
CONTINUOUS
10
4.2410727559055115
20
-6.7161353543307083
11
4.2335737007874013
21
-6.7123858267716532
0
LINE
8
BLACK
6
CONTINUOUS
10
4.2335737007874013
20
-6.7123858267716532
11
4.2298241732283461
21
-6.7048867322834642
0
LINE
8
BLACK
6
CONTINUOUS
10
4.2298241732283461
20
-6.7048867322834642
11
4.2298241732283461
21
-6.6748905118110233
0
LINE
8
BLACK
6
CONTINUOUS
10
4.2298241732283461
20
-6.6748905118110233
11
4.2335737007874013
21
-6.6673914173228344
0
LINE
8
BLACK
6
CONTINUOUS
10
4.2335737007874013
20
-6.6673914173228344
11
4.2410727559055115
21
-6.6636418897637792
0
LINE
8
BLACK
6
CONTINUOUS
10
4.2410727559055115
20
-6.6636418897637792
11
4.2560709055118107
21
-6.6636418897637792
0
LINE
8
BLACK
6
CONTINUOUS
10
4.2560709055118107
20
-6.6636418897637792
11
4.2635699606299209
21
-6.6673914173228344
0
LINE
8
BLACK
6
CONTINUOUS
10
4.2635699606299209
20
-6.6673914173228344
11
4.267319488188976
21
-6.6748905118110233
0
LINE
8
BLACK
6
CONTINUOUS
10
4.267319488188976
20
-6.6748905118110233
11
4.267319488188976
21
-6.6823895669291336
0
LINE
8
BLACK
6
CONTINUOUS
10
4.267319488188976
20
-6.6823895669291336
11
4.2298241732283461
21
-6.6898886220472438
0
LINE
8
BLACK
6
CONTINUOUS
10
4.2973157480314956
20
-6.7123858267716532
11
4.3048148031496059
21
-6.7161353543307083
0
LINE
8
BLACK
6
CONTINUOUS
10
4.3048148031496059
20
-6.7161353543307083
11
4.3198129133858263
21
-6.7161353543307083
0
LINE
8
BLACK
6
CONTINUOUS
10
4.3198129133858263
20
-6.7161353543307083
11
4.3273120078740153
21
-6.7123858267716532
0
LINE
8
BLACK
6
CONTINUOUS
10
4.3273120078740153
20
-6.7123858267716532
11
4.3310615354330704
21
-6.7048867322834642
0
LINE
8
BLACK
6
CONTINUOUS
10
4.3310615354330704
20
-6.7048867322834642
11
4.3310615354330704
21
-6.7011372047244091
0
LINE
8
BLACK
6
CONTINUOUS
10
4.3310615354330704
20
-6.7011372047244091
11
4.3273120078740153
21
-6.6936381496062989
0
LINE
8
BLACK
6
CONTINUOUS
10
4.3273120078740153
20
-6.6936381496062989
11
4.3198129133858263
21
-6.6898886220472438
0
LINE
8
BLACK
6
CONTINUOUS
10
4.3198129133858263
20
-6.6898886220472438
11
4.308564330708661
21
-6.6898886220472438
0
LINE
8
BLACK
6
CONTINUOUS
10
4.308564330708661
20
-6.6898886220472438
11
4.3010652755905507
21
-6.6861390944881887
0
LINE
8
BLACK
6
CONTINUOUS
10
4.3010652755905507
20
-6.6861390944881887
11
4.2973157480314956
21
-6.6786400393700784
0
LINE
8
BLACK
6
CONTINUOUS
10
4.2973157480314956
20
-6.6786400393700784
11
4.2973157480314956
21
-6.6748905118110233
0
LINE
8
BLACK
6
CONTINUOUS
10
4.2973157480314956
20
-6.6748905118110233
11
4.3010652755905507
21
-6.6673914173228344
0
LINE
8
BLACK
6
CONTINUOUS
10
4.3010652755905507
20
-6.6673914173228344
11
4.308564330708661
21
-6.6636418897637792
0
LINE
8
BLACK
6
CONTINUOUS
10
4.308564330708661
20
-6.6636418897637792
11
4.3198129133858263
21
-6.6636418897637792
0
LINE
8
BLACK
6
CONTINUOUS
10
4.3198129133858263
20
-6.6636418897637792
11
4.3273120078740153
21
-6.6673914173228344
0
LINE
8
BLACK
6
CONTINUOUS
10
4.3573082677165349
20
-6.7461315748031492
11
4.36105779527559
21
-6.7423820472440941
0
LINE
8
BLACK
6
CONTINUOUS
10
4.36105779527559
20
-6.7423820472440941
11
4.3685568503937011
21
-6.7311334645669287
0
LINE
8
BLACK
6
CONTINUOUS
10
4.3685568503937011
20
-6.7311334645669287
11
4.3723063779527562
21
-6.7236344094488185
0
LINE
8
BLACK
6
CONTINUOUS
10
4.3723063779527562
20
-6.7236344094488185
11
4.3760559055118113
21
-6.7123858267716532
0
LINE
8
BLACK
6
CONTINUOUS
10
4.3760559055118113
20
-6.7123858267716532
11
4.3798054330708664
21
-6.6936381496062989
0
LINE
8
BLACK
6
CONTINUOUS
10
4.3798054330708664
20
-6.6936381496062989
11
4.3798054330708664
21
-6.6786400393700784
0
LINE
8
BLACK
6
CONTINUOUS
10
4.3798054330708664
20
-6.6786400393700784
11
4.3760559055118113
21
-6.6598923622047241
0
LINE
8
BLACK
6
CONTINUOUS
10
4.3760559055118113
20
-6.6598923622047241
11
4.3723063779527562
21
-6.6486437795275588
0
LINE
8
BLACK
6
CONTINUOUS
10
4.3723063779527562
20
-6.6486437795275588
11
4.3685568503937011
21
-6.6411447244094486
0
LINE
8
BLACK
6
CONTINUOUS
10
4.3685568503937011
20
-6.6411447244094486
11
4.36105779527559
21
-6.6298961023622045
0
LINE
8
BLACK
6
CONTINUOUS
10
4.36105779527559
20
-6.6298961023622045
11
4.3573082677165349
21
-6.6261465748031494
0
LINE
8
BLACK
6
CONTINUOUS
10
4.499790472440945
20
-6.7461315748031492
11
4.4960409055118111
21
-6.7423820472440941
0
LINE
8
BLACK
6
CONTINUOUS
10
4.4960409055118111
20
-6.7423820472440941
11
4.4885418503937009
21
-6.7311334645669287
0
LINE
8
BLACK
6
CONTINUOUS
10
4.4885418503937009
20
-6.7311334645669287
11
4.4847923228346458
21
-6.7236344094488185
0
LINE
8
BLACK
6
CONTINUOUS
10
4.4847923228346458
20
-6.7236344094488185
11
4.4810427952755907
21
-6.7123858267716532
0
LINE
8
BLACK
6
CONTINUOUS
10
4.4810427952755907
20
-6.7123858267716532
11
4.4772932677165356
21
-6.6936381496062989
0
LINE
8
BLACK
6
CONTINUOUS
10
4.4772932677165356
20
-6.6936381496062989
11
4.4772932677165356
21
-6.6786400393700784
0
LINE
8
BLACK
6
CONTINUOUS
10
4.4772932677165356
20
-6.6786400393700784
11
4.4810427952755907
21
-6.6598923622047241
0
LINE
8
BLACK
6
CONTINUOUS
10
4.4810427952755907
20
-6.6598923622047241
11
4.4847923228346458
21
-6.6486437795275588
0
LINE
8
BLACK
6
CONTINUOUS
10
4.4847923228346458
20
-6.6486437795275588
11
4.4885418503937009
21
-6.6411447244094486
0
LINE
8
BLACK
6
CONTINUOUS
10
4.4885418503937009
20
-6.6411447244094486
11
4.4960409055118111
21
-6.6298961023622045
0
LINE
8
BLACK
6
CONTINUOUS
10
4.4960409055118111
20
-6.6298961023622045
11
4.499790472440945
21
-6.6261465748031494
0
LINE
8
BLACK
6
CONTINUOUS
10
4.5297866929133859
20
-6.6636418897637792
11
4.5297866929133859
21
-6.7161353543307083
0
LINE
8
BLACK
6
CONTINUOUS
10
4.5297866929133859
20
-6.6711409448818895
11
4.533536220472441
21
-6.6673914173228344
0
LINE
8
BLACK
6
CONTINUOUS
10
4.533536220472441
20
-6.6673914173228344
11
4.5410352755905512
21
-6.6636418897637792
0
LINE
8
BLACK
6
CONTINUOUS
10
4.5410352755905512
20
-6.6636418897637792
11
4.5522838976377953
21
-6.6636418897637792
0
LINE
8
BLACK
6
CONTINUOUS
10
4.5522838976377953
20
-6.6636418897637792
11
4.5597829527559055
21
-6.6673914173228344
0
LINE
8
BLACK
6
CONTINUOUS
10
4.5597829527559055
20
-6.6673914173228344
11
4.5635324803149606
21
-6.6748905118110233
0
LINE
8
BLACK
6
CONTINUOUS
10
4.5635324803149606
20
-6.6748905118110233
11
4.5635324803149606
21
-6.7161353543307083
0
LINE
8
BLACK
6
CONTINUOUS
10
4.6122763779527558
20
-6.7161353543307083
11
4.6047773228346456
21
-6.7123858267716532
0
LINE
8
BLACK
6
CONTINUOUS
10
4.6047773228346456
20
-6.7123858267716532
11
4.6010277952755905
21
-6.7086362598425193
0
LINE
8
BLACK
6
CONTINUOUS
10
4.6010277952755905
20
-6.7086362598425193
11
4.5972782677165354
21
-6.7011372047244091
0
LINE
8
BLACK
6
CONTINUOUS
10
4.5972782677165354
20
-6.7011372047244091
11
4.5972782677165354
21
-6.6786400393700784
0
LINE
8
BLACK
6
CONTINUOUS
10
4.5972782677165354
20
-6.6786400393700784
11
4.6010277952755905
21
-6.6711409448818895
0
LINE
8
BLACK
6
CONTINUOUS
10
4.6010277952755905
20
-6.6711409448818895
11
4.6047773228346456
21
-6.6673914173228344
0
LINE
8
BLACK
6
CONTINUOUS
10
4.6047773228346456
20
-6.6673914173228344
11
4.6122763779527558
21
-6.6636418897637792
0
LINE
8
BLACK
6
CONTINUOUS
10
4.6122763779527558
20
-6.6636418897637792
11
4.6235249999999999
21
-6.6636418897637792
0
LINE
8
BLACK
6
CONTINUOUS
10
4.6235249999999999
20
-6.6636418897637792
11
4.6310240551181101
21
-6.6673914173228344
0
LINE
8
BLACK
6
CONTINUOUS
10
4.6310240551181101
20
-6.6673914173228344
11
4.6347735826771652
21
-6.6711409448818895
0
LINE
8
BLACK
6
CONTINUOUS
10
4.6347735826771652
20
-6.6711409448818895
11
4.6385231102362203
21
-6.6786400393700784
0
LINE
8
BLACK
6
CONTINUOUS
10
4.6385231102362203
20
-6.6786400393700784
11
4.6385231102362203
21
-6.7011372047244091
0
LINE
8
BLACK
6
CONTINUOUS
10
4.6385231102362203
20
-6.7011372047244091
11
4.6347735826771652
21
-6.7086362598425193
0
LINE
8
BLACK
6
CONTINUOUS
10
4.6347735826771652
20
-6.7086362598425193
11
4.6310240551181101
21
-6.7123858267716532
0
LINE
8
BLACK
6
CONTINUOUS
10
4.6310240551181101
20
-6.7123858267716532
11
4.6235249999999999
21
-6.7161353543307083
0
LINE
8
BLACK
6
CONTINUOUS
10
4.6235249999999999
20
-6.7161353543307083
11
4.6122763779527558
21
-6.7161353543307083
0
LINE
8
BLACK
6
CONTINUOUS
10
4.6610203149606297
20
-6.6636418897637792
11
4.6910165354330706
21
-6.6636418897637792
0
LINE
8
BLACK
6
CONTINUOUS
10
4.6722688976377951
20
-6.6373951968503935
11
4.6722688976377951
21
-6.7048867322834642
0
LINE
8
BLACK
6
CONTINUOUS
10
4.6722688976377951
20
-6.7048867322834642
11
4.6760184251968502
21
-6.7123858267716532
0
LINE
8
BLACK
6
CONTINUOUS
10
4.6760184251968502
20
-6.7123858267716532
11
4.6835174803149604
21
-6.7161353543307083
0
LINE
8
BLACK
6
CONTINUOUS
10
4.6835174803149604
20
-6.7161353543307083
11
4.6910165354330706
21
-6.7161353543307083
0
LINE
8
BLACK
6
CONTINUOUS
10
4.7772557874015744
20
-6.6636418897637792
11
4.7772557874015744
21
-6.7423820472440941
0
LINE
8
BLACK
6
CONTINUOUS
10
4.7772557874015744
20
-6.6673914173228344
11
4.7847548425196846
21
-6.6636418897637792
0
LINE
8
BLACK
6
CONTINUOUS
10
4.7847548425196846
20
-6.6636418897637792
11
4.7997529921259838
21
-6.6636418897637792
0
LINE
8
BLACK
6
CONTINUOUS
10
4.7997529921259838
20
-6.6636418897637792
11
4.8072520472440941
21
-6.6673914173228344
0
LINE
8
BLACK
6
CONTINUOUS
10
4.8072520472440941
20
-6.6673914173228344
11
4.8110015748031492
21
-6.6711409448818895
0
LINE
8
BLACK
6
CONTINUOUS
10
4.8110015748031492
20
-6.6711409448818895
11
4.8147511023622043
21
-6.6786400393700784
0
LINE
8
BLACK
6
CONTINUOUS
10
4.8147511023622043
20
-6.6786400393700784
11
4.8147511023622043
21
-6.7011372047244091
0
LINE
8
BLACK
6
CONTINUOUS
10
4.8147511023622043
20
-6.7011372047244091
11
4.8110015748031492
21
-6.7086362598425193
0
LINE
8
BLACK
6
CONTINUOUS
10
4.8110015748031492
20
-6.7086362598425193
11
4.8072520472440941
21
-6.7123858267716532
0
LINE
8
BLACK
6
CONTINUOUS
10
4.8072520472440941
20
-6.7123858267716532
11
4.7997529921259838
21
-6.7161353543307083
0
LINE
8
BLACK
6
CONTINUOUS
10
4.7997529921259838
20
-6.7161353543307083
11
4.7847548425196846
21
-6.7161353543307083
0
LINE
8
BLACK
6
CONTINUOUS
10
4.7847548425196846
20
-6.7161353543307083
11
4.7772557874015744
21
-6.7123858267716532
0
LINE
8
BLACK
6
CONTINUOUS
10
4.8597454724409443
20
-6.7161353543307083
11
4.8522464173228341
21
-6.7123858267716532
0
LINE
8
BLACK
6
CONTINUOUS
10
4.8522464173228341
20
-6.7123858267716532
11
4.848496889763779
21
-6.7048867322834642
0
LINE
8
BLACK
6
CONTINUOUS
10
4.848496889763779
20
-6.7048867322834642
11
4.848496889763779
21
-6.6373951968503935
0
LINE
8
BLACK
6
CONTINUOUS
10
4.9234875196850396
20
-6.7161353543307083
11
4.9234875196850396
21
-6.6748905118110233
0
LINE
8
BLACK
6
CONTINUOUS
10
4.9234875196850396
20
-6.6748905118110233
11
4.9197379921259845
21
-6.6673914173228344
0
LINE
8
BLACK
6
CONTINUOUS
10
4.9197379921259845
20
-6.6673914173228344
11
4.9122389370078743
21
-6.6636418897637792
0
LINE
8
BLACK
6
CONTINUOUS
10
4.9122389370078743
20
-6.6636418897637792
11
4.8972407874015751
21
-6.6636418897637792
0
LINE
8
BLACK
6
CONTINUOUS
10
4.8972407874015751
20
-6.6636418897637792
11
4.8897417322834649
21
-6.6673914173228344
0
LINE
8
BLACK
6
CONTINUOUS
10
4.9234875196850396
20
-6.7123858267716532
11
4.9159884645669294
21
-6.7161353543307083
0
LINE
8
BLACK
6
CONTINUOUS
10
4.9159884645669294
20
-6.7161353543307083
11
4.8972407874015751
21
-6.7161353543307083
0
LINE
8
BLACK
6
CONTINUOUS
10
4.8972407874015751
20
-6.7161353543307083
11
4.8897417322834649
21
-6.7123858267716532
0
LINE
8
BLACK
6
CONTINUOUS
10
4.8897417322834649
20
-6.7123858267716532
11
4.8859922047244098
21
-6.7048867322834642
0
LINE
8
BLACK
6
CONTINUOUS
10
4.8859922047244098
20
-6.7048867322834642
11
4.8859922047244098
21
-6.697387677165354
0
LINE
8
BLACK
6
CONTINUOUS
10
4.8859922047244098
20
-6.697387677165354
11
4.8897417322834649
21
-6.6898886220472438
0
LINE
8
BLACK
6
CONTINUOUS
10
4.8897417322834649
20
-6.6898886220472438
11
4.8972407874015751
21
-6.6861390944881887
0
LINE
8
BLACK
6
CONTINUOUS
10
4.8972407874015751
20
-6.6861390944881887
11
4.9159884645669294
21
-6.6861390944881887
0
LINE
8
BLACK
6
CONTINUOUS
10
4.9159884645669294
20
-6.6861390944881887
11
4.9234875196850396
21
-6.6823895669291336
0
LINE
8
BLACK
6
CONTINUOUS
10
4.9497342519685041
20
-6.6636418897637792
11
4.979730472440945
21
-6.6636418897637792
0
LINE
8
BLACK
6
CONTINUOUS
10
4.9609828346456695
20
-6.6373951968503935
11
4.9609828346456695
21
-6.7048867322834642
0
LINE
8
BLACK
6
CONTINUOUS
10
4.9609828346456695
20
-6.7048867322834642
11
4.9647323622047246
21
-6.7123858267716532
0
LINE
8
BLACK
6
CONTINUOUS
10
4.9647323622047246
20
-6.7123858267716532
11
4.9722314173228348
21
-6.7161353543307083
0
LINE
8
BLACK
6
CONTINUOUS
10
4.9722314173228348
20
-6.7161353543307083
11
4.979730472440945
21
-6.7161353543307083
0
LINE
8
BLACK
6
CONTINUOUS
10
5.0359734645669292
20
-6.7123858267716532
11
5.028474409448819
21
-6.7161353543307083
0
LINE
8
BLACK
6
CONTINUOUS
10
5.028474409448819
20
-6.7161353543307083
11
5.0134762598425198
21
-6.7161353543307083
0
LINE
8
BLACK
6
CONTINUOUS
10
5.0134762598425198
20
-6.7161353543307083
11
5.0059772047244095
21
-6.7123858267716532
0
LINE
8
BLACK
6
CONTINUOUS
10
5.0059772047244095
20
-6.7123858267716532
11
5.0022276771653544
21
-6.7048867322834642
0
LINE
8
BLACK
6
CONTINUOUS
10
5.0022276771653544
20
-6.7048867322834642
11
5.0022276771653544
21
-6.6748905118110233
0
LINE
8
BLACK
6
CONTINUOUS
10
5.0022276771653544
20
-6.6748905118110233
11
5.0059772047244095
21
-6.6673914173228344
0
LINE
8
BLACK
6
CONTINUOUS
10
5.0059772047244095
20
-6.6673914173228344
11
5.0134762598425198
21
-6.6636418897637792
0
LINE
8
BLACK
6
CONTINUOUS
10
5.0134762598425198
20
-6.6636418897637792
11
5.028474409448819
21
-6.6636418897637792
0
LINE
8
BLACK
6
CONTINUOUS
10
5.028474409448819
20
-6.6636418897637792
11
5.0359734645669292
21
-6.6673914173228344
0
LINE
8
BLACK
6
CONTINUOUS
10
5.0359734645669292
20
-6.6673914173228344
11
5.0397229921259843
21
-6.6748905118110233
0
LINE
8
BLACK
6
CONTINUOUS
10
5.0397229921259843
20
-6.6748905118110233
11
5.0397229921259843
21
-6.6823895669291336
0
LINE
8
BLACK
6
CONTINUOUS
10
5.0397229921259843
20
-6.6823895669291336
11
5.0022276771653544
21
-6.6898886220472438
0
LINE
8
BLACK
6
CONTINUOUS
10
5.1072145669291338
20
-6.7161353543307083
11
5.1072145669291338
21
-6.6373951968503935
0
LINE
8
BLACK
6
CONTINUOUS
10
5.1072145669291338
20
-6.7123858267716532
11
5.0997155118110236
21
-6.7161353543307083
0
LINE
8
BLACK
6
CONTINUOUS
10
5.0997155118110236
20
-6.7161353543307083
11
5.0847173622047244
21
-6.7161353543307083
0
LINE
8
BLACK
6
CONTINUOUS
10
5.0847173622047244
20
-6.7161353543307083
11
5.0772183070866141
21
-6.7123858267716532
0
LINE
8
BLACK
6
CONTINUOUS
10
5.0772183070866141
20
-6.7123858267716532
11
5.073468779527559
21
-6.7086362598425193
0
LINE
8
BLACK
6
CONTINUOUS
10
5.073468779527559
20
-6.7086362598425193
11
5.0697192519685039
21
-6.7011372047244091
0
LINE
8
BLACK
6
CONTINUOUS
10
5.0697192519685039
20
-6.7011372047244091
11
5.0697192519685039
21
-6.6786400393700784
0
LINE
8
BLACK
6
CONTINUOUS
10
5.0697192519685039
20
-6.6786400393700784
11
5.073468779527559
21
-6.6711409448818895
0
LINE
8
BLACK
6
CONTINUOUS
10
5.073468779527559
20
-6.6711409448818895
11
5.0772183070866141
21
-6.6673914173228344
0
LINE
8
BLACK
6
CONTINUOUS
10
5.0772183070866141
20
-6.6673914173228344
11
5.0847173622047244
21
-6.6636418897637792
0
LINE
8
BLACK
6
CONTINUOUS
10
5.0847173622047244
20
-6.6636418897637792
11
5.0997155118110236
21
-6.6636418897637792
0
LINE
8
BLACK
6
CONTINUOUS
10
5.0997155118110236
20
-6.6636418897637792
11
5.1072145669291338
21
-6.6673914173228344
0
LINE
8
BLACK
6
CONTINUOUS
10
5.1372108267716534
20
-6.7461315748031492
11
5.1409603543307085
21
-6.7423820472440941
0
LINE
8
BLACK
6
CONTINUOUS
10
5.1409603543307085
20
-6.7423820472440941
11
5.1484594094488187
21
-6.7311334645669287
0
LINE
8
BLACK
6
CONTINUOUS
10
5.1484594094488187
20
-6.7311334645669287
11
5.1522089370078739
21
-6.7236344094488185
0
LINE
8
BLACK
6
CONTINUOUS
10
5.1522089370078739
20
-6.7236344094488185
11
5.155958464566929
21
-6.7123858267716532
0
LINE
8
BLACK
6
CONTINUOUS
10
5.155958464566929
20
-6.7123858267716532
11
5.1597079921259841
21
-6.6936381496062989
0
LINE
8
BLACK
6
CONTINUOUS
10
5.1597079921259841
20
-6.6936381496062989
11
5.1597079921259841
21
-6.6786400393700784
0
LINE
8
BLACK
6
CONTINUOUS
10
5.1597079921259841
20
-6.6786400393700784
11
5.155958464566929
21
-6.6598923622047241
0
LINE
8
BLACK
6
CONTINUOUS
10
5.155958464566929
20
-6.6598923622047241
11
5.1522089370078739
21
-6.6486437795275588
0
LINE
8
BLACK
6
CONTINUOUS
10
5.1522089370078739
20
-6.6486437795275588
11
5.1484594094488187
21
-6.6411447244094486
0
LINE
8
BLACK
6
CONTINUOUS
10
5.1484594094488187
20
-6.6411447244094486
11
5.1409603543307085
21
-6.6298961023622045
0
LINE
8
BLACK
6
CONTINUOUS
10
5.1409603543307085
20
-6.6298961023622045
11
5.1372108267716534
21
-6.6261465748031494
  0
ENDSEC
  0
EOF
