  0
SECTION
  2
HEADER
  9
$ANGBASE
  50
0.0
  9
$ANGDIR
  70
1
  9
$MEASUREMENT
  70
0
  0
ENDSEC
  0
SECTION
  2
TABLES
  0
TABLE
  2
LTYPE
  70
4
  0
LTYPE
  5
40F
  2
CONTINUOUS
  70
0
  3
Solid line
  72
65
  73
0
  40
0.0
  0
LTYPE
  5
410
  2
DASHDOT
 70
0
  3
Dash Dot ____ _ ____ _
 72
65
 73
4
 40
2.0
 49
1.25
 49
-0.25
 49
0.25
 49
-0.25
  0
LTYPE
  5
411
  2
DASHED
 70
0
  3
Dashed __ __ __ __ __
 72
65
 73
2
 40
0.75
 49
0.5
 49
-0.25
  0
LTYPE
  5
43B
  2
DOTTED
 70
0
  3
Dotted .  .  .  .
 72
65
 73
2
 40
0.2
 49
0.0
 49
-0.2
  0
ENDTAB
  0
TABLE
  2
STYLE
  70
4
  0
STYLE
  2
KICAD
  70
0
  40
0
  41
1
  42
1
  50
0
  71
0
  3
isocp.shx
  0
STYLE
  2
KICADB
  70
0
  40
0
  41
1
  42
1
  50
0
  71
0
  3
isocp.shx
  0
STYLE
  2
KICADI
  70
0
  40
0
  41
1
  42
1
  50
15
  71
0
  3
isocp.shx
  0
STYLE
  2
KICADBI
  70
0
  40
0
  41
1
  42
1
  50
15
  71
0
  3
isocp.shx
  0
ENDTAB
  0
TABLE
  2
LAYER
  70
1
  0
LAYER
  2
BLACK
  70
0
  62
7
  6
CONTINUOUS
  0
ENDTAB
  0
ENDSEC
  0
SECTION
  2
ENTITIES
0
LINE
8
BLACK
6
CONTINUOUS
10
5.1181102362204722
20
-3.1692913385826773
11
6.4566929133858268
21
-3.1692913385826773
0
LINE
8
BLACK
6
CONTINUOUS
10
6.4566929133858268
20
-3.1692913385826773
11
6.4566929133858268
21
-3.8188976377952755
0
LINE
8
BLACK
6
CONTINUOUS
10
6.4566929133858268
20
-3.8188976377952755
11
5.1181102362204722
21
-3.8188976377952755
0
LINE
8
BLACK
6
CONTINUOUS
10
5.1181102362204722
20
-3.8188976377952755
11
5.1181102362204722
21
-3.1692913385826773
0
LINE
8
BLACK
6
CONTINUOUS
10
5.5374015748031491
20
-3.2539370078740157
11
5.5649606299212593
21
-3.2814960629921259
0
LINE
8
BLACK
6
CONTINUOUS
10
5.5649606299212593
20
-3.2539370078740157
11
5.5374015748031491
21
-3.2814960629921259
0
LINE
8
BLACK
6
CONTINUOUS
10
5.5374015748031491
20
-3.3523622047244093
11
5.5649606299212593
21
-3.3799212598425195
0
LINE
8
BLACK
6
CONTINUOUS
10
5.5649606299212593
20
-3.3523622047244093
11
5.5374015748031491
21
-3.3799212598425195
0
LINE
8
BLACK
6
CONTINUOUS
10
5.5374015748031491
20
-3.4507874015748032
11
5.5649606299212593
21
-3.4783464566929134
0
LINE
8
BLACK
6
CONTINUOUS
10
5.5649606299212593
20
-3.4507874015748032
11
5.5374015748031491
21
-3.4783464566929134
0
LINE
8
BLACK
6
CONTINUOUS
10
5.8374015748031498
20
-3.2539370078740157
11
5.86496062992126
21
-3.2814960629921259
0
LINE
8
BLACK
6
CONTINUOUS
10
5.86496062992126
20
-3.2539370078740157
11
5.8374015748031498
21
-3.2814960629921259
0
LINE
8
BLACK
6
CONTINUOUS
10
5.8374015748031498
20
-3.3523622047244093
11
5.86496062992126
21
-3.3799212598425195
0
LINE
8
BLACK
6
CONTINUOUS
10
5.86496062992126
20
-3.3523622047244093
11
5.8374015748031498
21
-3.3799212598425195
0
LINE
8
BLACK
6
CONTINUOUS
10
5.8374015748031498
20
-3.4507874015748032
11
5.86496062992126
21
-3.4783464566929134
0
LINE
8
BLACK
6
CONTINUOUS
10
5.86496062992126
20
-3.4507874015748032
11
5.8374015748031498
21
-3.4783464566929134
0
CIRCLE
8
BLACK
10
5.5511811023622046
20
-3.6614173228346454
40
0.015748031496063
0
CIRCLE
8
BLACK
10
5.6496062992125982
20
-3.6614173228346454
40
0.015748031496063
0
CIRCLE
8
BLACK
10
5.8464566929133861
20
-3.622047244094488
40
0.015748031496063
0
CIRCLE
8
BLACK
10
5.8464566929133861
20
-3.7401574803149606
40
0.015748031496063
0
CIRCLE
8
BLACK
10
5.9448818897637796
20
-3.622047244094488
40
0.015748031496063
0
CIRCLE
8
BLACK
10
5.9448818897637796
20
-3.7401574803149606
40
0.015748031496063
0
LINE
8
BLACK
6
CONTINUOUS
10
5.2362204724409445
20
-3.3070866141732282
11
5.2362204724409445
21
-3.3464566929133857
0
LINE
8
BLACK
6
CONTINUOUS
10
5.2165354330708658
20
-3.326771653543307
11
5.2559055118110232
21
-3.326771653543307
0
LINE
8
BLACK
6
CONTINUOUS
10
5.2362204724409445
20
-3.4070866141732283
11
5.2362204724409445
21
-3.4464566929133857
0
LINE
8
BLACK
6
CONTINUOUS
10
5.2165354330708658
20
-3.426771653543307
11
5.2559055118110232
21
-3.426771653543307
0
LINE
8
BLACK
6
CONTINUOUS
10
5.2362204724409445
20
-3.5070866141732284
11
5.2362204724409445
21
-3.5464566929133858
0
LINE
8
BLACK
6
CONTINUOUS
10
5.2165354330708658
20
-3.5267716535433071
11
5.2559055118110232
21
-3.5267716535433071
0
LINE
8
BLACK
6
CONTINUOUS
10
5.2362204724409445
20
-3.6070866141732281
11
5.2362204724409445
21
-3.6464566929133859
0
LINE
8
BLACK
6
CONTINUOUS
10
5.2165354330708658
20
-3.6267716535433072
11
5.2559055118110232
21
-3.6267716535433072
0
LINE
8
BLACK
6
CONTINUOUS
10
5.2188097637795279
20
-3.943497559055118
11
5.2188097637795279
21
-3.8647574015748032
0
LINE
8
BLACK
6
CONTINUOUS
10
5.2188097637795279
20
-3.8647574015748032
11
5.2375574015748034
21
-3.8647574015748032
0
LINE
8
BLACK
6
CONTINUOUS
10
5.2375574015748034
20
-3.8647574015748032
11
5.2488060236220475
21
-3.8685069291338583
0
LINE
8
BLACK
6
CONTINUOUS
10
5.2488060236220475
20
-3.8685069291338583
11
5.2563050787401577
21
-3.8760059842519685
0
LINE
8
BLACK
6
CONTINUOUS
10
5.2563050787401577
20
-3.8760059842519685
11
5.2600546062992128
21
-3.8835050393700787
0
LINE
8
BLACK
6
CONTINUOUS
10
5.2600546062992128
20
-3.8835050393700787
11
5.263804133858268
21
-3.8985031496062992
0
LINE
8
BLACK
6
CONTINUOUS
10
5.263804133858268
20
-3.8985031496062992
11
5.263804133858268
21
-3.9097517716535433
0
LINE
8
BLACK
6
CONTINUOUS
10
5.263804133858268
20
-3.9097517716535433
11
5.2600546062992128
21
-3.9247498818897637
0
LINE
8
BLACK
6
CONTINUOUS
10
5.2600546062992128
20
-3.9247498818897637
11
5.2563050787401577
21
-3.9322489370078739
0
LINE
8
BLACK
6
CONTINUOUS
10
5.2563050787401577
20
-3.9322489370078739
11
5.2488060236220475
21
-3.9397480314960629
0
LINE
8
BLACK
6
CONTINUOUS
10
5.2488060236220475
20
-3.9397480314960629
11
5.2375574015748034
21
-3.943497559055118
0
LINE
8
BLACK
6
CONTINUOUS
10
5.2375574015748034
20
-3.943497559055118
11
5.2188097637795279
21
-3.943497559055118
0
LINE
8
BLACK
6
CONTINUOUS
10
5.2975499212598427
20
-3.943497559055118
11
5.2975499212598427
21
-3.891004094488189
0
LINE
8
BLACK
6
CONTINUOUS
10
5.2975499212598427
20
-3.9060022440944882
11
5.3012994488188978
21
-3.8985031496062992
0
LINE
8
BLACK
6
CONTINUOUS
10
5.3012994488188978
20
-3.8985031496062992
11
5.3050489763779529
21
-3.8947536220472441
0
LINE
8
BLACK
6
CONTINUOUS
10
5.3050489763779529
20
-3.8947536220472441
11
5.3125480314960631
21
-3.891004094488189
0
LINE
8
BLACK
6
CONTINUOUS
10
5.3125480314960631
20
-3.891004094488189
11
5.3200471259842521
21
-3.891004094488189
0
LINE
8
BLACK
6
CONTINUOUS
10
5.3462938188976379
20
-3.943497559055118
11
5.3462938188976379
21
-3.891004094488189
0
LINE
8
BLACK
6
CONTINUOUS
10
5.3462938188976379
20
-3.8647574015748032
11
5.3425442913385828
21
-3.8685069291338583
0
LINE
8
BLACK
6
CONTINUOUS
10
5.3425442913385828
20
-3.8685069291338583
11
5.3462938188976379
21
-3.8722564566929134
0
LINE
8
BLACK
6
CONTINUOUS
10
5.3462938188976379
20
-3.8722564566929134
11
5.350043346456693
21
-3.8685069291338583
0
LINE
8
BLACK
6
CONTINUOUS
10
5.350043346456693
20
-3.8685069291338583
11
5.3462938188976379
21
-3.8647574015748032
0
LINE
8
BLACK
6
CONTINUOUS
10
5.3462938188976379
20
-3.8647574015748032
11
5.3462938188976379
21
-3.8722564566929134
0
LINE
8
BLACK
6
CONTINUOUS
10
5.3950377165354331
20
-3.943497559055118
11
5.3875386614173228
21
-3.9397480314960629
0
LINE
8
BLACK
6
CONTINUOUS
10
5.3875386614173228
20
-3.9397480314960629
11
5.3837891338582677
21
-3.9322489370078739
0
LINE
8
BLACK
6
CONTINUOUS
10
5.3837891338582677
20
-3.9322489370078739
11
5.3837891338582677
21
-3.8647574015748032
0
LINE
8
BLACK
6
CONTINUOUS
10
5.436282559055118
20
-3.943497559055118
11
5.4287835039370078
21
-3.9397480314960629
0
LINE
8
BLACK
6
CONTINUOUS
10
5.4287835039370078
20
-3.9397480314960629
11
5.4250339763779527
21
-3.9322489370078739
0
LINE
8
BLACK
6
CONTINUOUS
10
5.4250339763779527
20
-3.9322489370078739
11
5.4250339763779527
21
-3.8647574015748032
0
LINE
8
BLACK
6
CONTINUOUS
10
5.5262713385826769
20
-3.943497559055118
11
5.5262713385826769
21
-3.8647574015748032
0
LINE
8
BLACK
6
CONTINUOUS
10
5.5262713385826769
20
-3.8647574015748032
11
5.5525180708661415
21
-3.9210003543307086
0
LINE
8
BLACK
6
CONTINUOUS
10
5.5525180708661415
20
-3.9210003543307086
11
5.5787647637795272
21
-3.8647574015748032
0
LINE
8
BLACK
6
CONTINUOUS
10
5.5787647637795272
20
-3.8647574015748032
11
5.5787647637795272
21
-3.943497559055118
0
LINE
8
BLACK
6
CONTINUOUS
10
5.6500058661417318
20
-3.943497559055118
11
5.6500058661417318
21
-3.902252716535433
0
LINE
8
BLACK
6
CONTINUOUS
10
5.6500058661417318
20
-3.902252716535433
11
5.6462563385826767
21
-3.8947536220472441
0
LINE
8
BLACK
6
CONTINUOUS
10
5.6462563385826767
20
-3.8947536220472441
11
5.6387572834645665
21
-3.891004094488189
0
LINE
8
BLACK
6
CONTINUOUS
10
5.6387572834645665
20
-3.891004094488189
11
5.6237591338582673
21
-3.891004094488189
0
LINE
8
BLACK
6
CONTINUOUS
10
5.6237591338582673
20
-3.891004094488189
11
5.6162600787401571
21
-3.8947536220472441
0
LINE
8
BLACK
6
CONTINUOUS
10
5.6500058661417318
20
-3.9397480314960629
11
5.6425068110236216
21
-3.943497559055118
0
LINE
8
BLACK
6
CONTINUOUS
10
5.6425068110236216
20
-3.943497559055118
11
5.6237591338582673
21
-3.943497559055118
0
LINE
8
BLACK
6
CONTINUOUS
10
5.6237591338582673
20
-3.943497559055118
11
5.6162600787401571
21
-3.9397480314960629
0
LINE
8
BLACK
6
CONTINUOUS
10
5.6162600787401571
20
-3.9397480314960629
11
5.612510551181102
21
-3.9322489370078739
0
LINE
8
BLACK
6
CONTINUOUS
10
5.612510551181102
20
-3.9322489370078739
11
5.612510551181102
21
-3.9247498818897637
0
LINE
8
BLACK
6
CONTINUOUS
10
5.612510551181102
20
-3.9247498818897637
11
5.6162600787401571
21
-3.9172508267716535
0
LINE
8
BLACK
6
CONTINUOUS
10
5.6162600787401571
20
-3.9172508267716535
11
5.6237591338582673
21
-3.9135012992125984
0
LINE
8
BLACK
6
CONTINUOUS
10
5.6237591338582673
20
-3.9135012992125984
11
5.6425068110236216
21
-3.9135012992125984
0
LINE
8
BLACK
6
CONTINUOUS
10
5.6425068110236216
20
-3.9135012992125984
11
5.6500058661417318
21
-3.9097517716535433
0
LINE
8
BLACK
6
CONTINUOUS
10
5.6875011811023617
20
-3.891004094488189
11
5.6875011811023617
21
-3.9697442519685038
0
LINE
8
BLACK
6
CONTINUOUS
10
5.6875011811023617
20
-3.8947536220472441
11
5.6950002362204719
21
-3.891004094488189
0
LINE
8
BLACK
6
CONTINUOUS
10
5.6950002362204719
20
-3.891004094488189
11
5.7099983858267711
21
-3.891004094488189
0
LINE
8
BLACK
6
CONTINUOUS
10
5.7099983858267711
20
-3.891004094488189
11
5.7174974409448813
21
-3.8947536220472441
0
LINE
8
BLACK
6
CONTINUOUS
10
5.7174974409448813
20
-3.8947536220472441
11
5.7212469685039364
21
-3.8985031496062992
0
LINE
8
BLACK
6
CONTINUOUS
10
5.7212469685039364
20
-3.8985031496062992
11
5.7249964960629924
21
-3.9060022440944882
0
LINE
8
BLACK
6
CONTINUOUS
10
5.7249964960629924
20
-3.9060022440944882
11
5.7249964960629924
21
-3.9284994094488188
0
LINE
8
BLACK
6
CONTINUOUS
10
5.7249964960629924
20
-3.9284994094488188
11
5.7212469685039364
21
-3.935998464566929
0
LINE
8
BLACK
6
CONTINUOUS
10
5.7212469685039364
20
-3.935998464566929
11
5.7174974409448813
21
-3.9397480314960629
0
LINE
8
BLACK
6
CONTINUOUS
10
5.7174974409448813
20
-3.9397480314960629
11
5.7099983858267711
21
-3.943497559055118
0
LINE
8
BLACK
6
CONTINUOUS
10
5.7099983858267711
20
-3.943497559055118
11
5.6950002362204719
21
-3.943497559055118
0
LINE
8
BLACK
6
CONTINUOUS
10
5.6950002362204719
20
-3.943497559055118
11
5.6875011811023617
21
-3.9397480314960629
0
LINE
8
BLACK
6
CONTINUOUS
10
5.7587422834645672
20
-3.935998464566929
11
5.7624918110236223
21
-3.9397480314960629
0
LINE
8
BLACK
6
CONTINUOUS
10
5.7624918110236223
20
-3.9397480314960629
11
5.7587422834645672
21
-3.943497559055118
0
LINE
8
BLACK
6
CONTINUOUS
10
5.7587422834645672
20
-3.943497559055118
11
5.7549927559055121
21
-3.9397480314960629
0
LINE
8
BLACK
6
CONTINUOUS
10
5.7549927559055121
20
-3.9397480314960629
11
5.7587422834645672
21
-3.935998464566929
0
LINE
8
BLACK
6
CONTINUOUS
10
5.7587422834645672
20
-3.935998464566929
11
5.7587422834645672
21
-3.943497559055118
0
LINE
8
BLACK
6
CONTINUOUS
10
5.7587422834645672
20
-3.8947536220472441
11
5.7624918110236223
21
-3.8985031496062992
0
LINE
8
BLACK
6
CONTINUOUS
10
5.7624918110236223
20
-3.8985031496062992
11
5.7587422834645672
21
-3.902252716535433
0
LINE
8
BLACK
6
CONTINUOUS
10
5.7587422834645672
20
-3.902252716535433
11
5.7549927559055121
21
-3.8985031496062992
0
LINE
8
BLACK
6
CONTINUOUS
10
5.7549927559055121
20
-3.8985031496062992
11
5.7587422834645672
21
-3.8947536220472441
0
LINE
8
BLACK
6
CONTINUOUS
10
5.7587422834645672
20
-3.8947536220472441
11
5.7587422834645672
21
-3.902252716535433
0
LINE
8
BLACK
6
CONTINUOUS
10
5.0885826771653546
20
-4.0590551181102361
11
5.1161417322834648
21
-4.0866141732283463
0
LINE
8
BLACK
6
CONTINUOUS
10
5.1161417322834648
20
-4.0590551181102361
11
5.0885826771653546
21
-4.0866141732283463
0
LINE
8
BLACK
6
CONTINUOUS
10
5.2338078740157483
20
-4.0301117322834648
11
5.2413069685039373
21
-4.0301117322834648
0
LINE
8
BLACK
6
CONTINUOUS
10
5.2413069685039373
20
-4.0301117322834648
11
5.2488060236220475
21
-4.0338612598425199
0
LINE
8
BLACK
6
CONTINUOUS
10
5.2488060236220475
20
-4.0338612598425199
11
5.2525555511811026
21
-4.037610787401575
0
LINE
8
BLACK
6
CONTINUOUS
10
5.2525555511811026
20
-4.037610787401575
11
5.2563050787401577
21
-4.0451098425196852
0
LINE
8
BLACK
6
CONTINUOUS
10
5.2563050787401577
20
-4.0451098425196852
11
5.2600546062992128
21
-4.0601079527559056
0
LINE
8
BLACK
6
CONTINUOUS
10
5.2600546062992128
20
-4.0601079527559056
11
5.2600546062992128
21
-4.0788556299212599
0
LINE
8
BLACK
6
CONTINUOUS
10
5.2600546062992128
20
-4.0788556299212599
11
5.2563050787401577
21
-4.0938537401574804
0
LINE
8
BLACK
6
CONTINUOUS
10
5.2563050787401577
20
-4.0938537401574804
11
5.2525555511811026
21
-4.1013527952755906
0
LINE
8
BLACK
6
CONTINUOUS
10
5.2525555511811026
20
-4.1013527952755906
11
5.2488060236220475
21
-4.1051023622047245
0
LINE
8
BLACK
6
CONTINUOUS
10
5.2488060236220475
20
-4.1051023622047245
11
5.2413069685039373
21
-4.1088518897637796
0
LINE
8
BLACK
6
CONTINUOUS
10
5.2413069685039373
20
-4.1088518897637796
11
5.2338078740157483
21
-4.1088518897637796
0
LINE
8
BLACK
6
CONTINUOUS
10
5.2338078740157483
20
-4.1088518897637796
11
5.2263088188976381
21
-4.1051023622047245
0
LINE
8
BLACK
6
CONTINUOUS
10
5.2263088188976381
20
-4.1051023622047245
11
5.222559291338583
21
-4.1013527952755906
0
LINE
8
BLACK
6
CONTINUOUS
10
5.222559291338583
20
-4.1013527952755906
11
5.2188097637795279
21
-4.0938537401574804
0
LINE
8
BLACK
6
CONTINUOUS
10
5.2188097637795279
20
-4.0938537401574804
11
5.2150602362204719
21
-4.0788556299212599
0
LINE
8
BLACK
6
CONTINUOUS
10
5.2150602362204719
20
-4.0788556299212599
11
5.2150602362204719
21
-4.0601079527559056
0
LINE
8
BLACK
6
CONTINUOUS
10
5.2150602362204719
20
-4.0601079527559056
11
5.2188097637795279
21
-4.0451098425196852
0
LINE
8
BLACK
6
CONTINUOUS
10
5.2188097637795279
20
-4.0451098425196852
11
5.222559291338583
21
-4.037610787401575
0
LINE
8
BLACK
6
CONTINUOUS
10
5.222559291338583
20
-4.037610787401575
11
5.2263088188976381
21
-4.0338612598425199
0
LINE
8
BLACK
6
CONTINUOUS
10
5.2263088188976381
20
-4.0338612598425199
11
5.2338078740157483
21
-4.0301117322834648
0
LINE
8
BLACK
6
CONTINUOUS
10
5.2938003937007876
20
-4.1013527952755906
11
5.2975499212598427
21
-4.1051023622047245
0
LINE
8
BLACK
6
CONTINUOUS
10
5.2975499212598427
20
-4.1051023622047245
11
5.2938003937007876
21
-4.1088518897637796
0
LINE
8
BLACK
6
CONTINUOUS
10
5.2938003937007876
20
-4.1088518897637796
11
5.2900508661417325
21
-4.1051023622047245
0
LINE
8
BLACK
6
CONTINUOUS
10
5.2900508661417325
20
-4.1051023622047245
11
5.2938003937007876
21
-4.1013527952755906
0
LINE
8
BLACK
6
CONTINUOUS
10
5.2938003937007876
20
-4.1013527952755906
11
5.2938003937007876
21
-4.1088518897637796
0
LINE
8
BLACK
6
CONTINUOUS
10
5.3237966535433072
20
-4.0301117322834648
11
5.3762900787401575
21
-4.0301117322834648
0
LINE
8
BLACK
6
CONTINUOUS
10
5.3762900787401575
20
-4.0301117322834648
11
5.3425442913385828
21
-4.1088518897637796
0
LINE
8
BLACK
6
CONTINUOUS
10
5.4212844488188976
20
-4.0301117322834648
11
5.4287835433070866
21
-4.0301117322834648
0
LINE
8
BLACK
6
CONTINUOUS
10
5.4287835433070866
20
-4.0301117322834648
11
5.4362825984251968
21
-4.0338612598425199
0
LINE
8
BLACK
6
CONTINUOUS
10
5.4362825984251968
20
-4.0338612598425199
11
5.4400321259842519
21
-4.037610787401575
0
LINE
8
BLACK
6
CONTINUOUS
10
5.4400321259842519
20
-4.037610787401575
11
5.443781653543307
21
-4.0451098425196852
0
LINE
8
BLACK
6
CONTINUOUS
10
5.443781653543307
20
-4.0451098425196852
11
5.4475311811023621
21
-4.0601079527559056
0
LINE
8
BLACK
6
CONTINUOUS
10
5.4475311811023621
20
-4.0601079527559056
11
5.4475311811023621
21
-4.0788556299212599
0
LINE
8
BLACK
6
CONTINUOUS
10
5.4475311811023621
20
-4.0788556299212599
11
5.443781653543307
21
-4.0938537401574804
0
LINE
8
BLACK
6
CONTINUOUS
10
5.443781653543307
20
-4.0938537401574804
11
5.4400321259842519
21
-4.1013527952755906
0
LINE
8
BLACK
6
CONTINUOUS
10
5.4400321259842519
20
-4.1013527952755906
11
5.4362825984251968
21
-4.1051023622047245
0
LINE
8
BLACK
6
CONTINUOUS
10
5.4362825984251968
20
-4.1051023622047245
11
5.4287835433070866
21
-4.1088518897637796
0
LINE
8
BLACK
6
CONTINUOUS
10
5.4287835433070866
20
-4.1088518897637796
11
5.4212844488188976
21
-4.1088518897637796
0
LINE
8
BLACK
6
CONTINUOUS
10
5.4212844488188976
20
-4.1088518897637796
11
5.4137853937007874
21
-4.1051023622047245
0
LINE
8
BLACK
6
CONTINUOUS
10
5.4137853937007874
20
-4.1051023622047245
11
5.4100358661417323
21
-4.1013527952755906
0
LINE
8
BLACK
6
CONTINUOUS
10
5.4100358661417323
20
-4.1013527952755906
11
5.4062863385826772
21
-4.0938537401574804
0
LINE
8
BLACK
6
CONTINUOUS
10
5.4062863385826772
20
-4.0938537401574804
11
5.402536811023622
21
-4.0788556299212599
0
LINE
8
BLACK
6
CONTINUOUS
10
5.402536811023622
20
-4.0788556299212599
11
5.402536811023622
21
-4.0601079527559056
0
LINE
8
BLACK
6
CONTINUOUS
10
5.402536811023622
20
-4.0601079527559056
11
5.4062863385826772
21
-4.0451098425196852
0
LINE
8
BLACK
6
CONTINUOUS
10
5.4062863385826772
20
-4.0451098425196852
11
5.4100358661417323
21
-4.037610787401575
0
LINE
8
BLACK
6
CONTINUOUS
10
5.4100358661417323
20
-4.037610787401575
11
5.4137853937007874
21
-4.0338612598425199
0
LINE
8
BLACK
6
CONTINUOUS
10
5.4137853937007874
20
-4.0338612598425199
11
5.4212844488188976
21
-4.0301117322834648
0
LINE
8
BLACK
6
CONTINUOUS
10
5.4962750787401573
20
-4.0301117322834648
11
5.5037741732283463
21
-4.0301117322834648
0
LINE
8
BLACK
6
CONTINUOUS
10
5.5037741732283463
20
-4.0301117322834648
11
5.5112732283464565
21
-4.0338612598425199
0
LINE
8
BLACK
6
CONTINUOUS
10
5.5112732283464565
20
-4.0338612598425199
11
5.5150227559055116
21
-4.037610787401575
0
LINE
8
BLACK
6
CONTINUOUS
10
5.5150227559055116
20
-4.037610787401575
11
5.5187722834645667
21
-4.0451098425196852
0
LINE
8
BLACK
6
CONTINUOUS
10
5.5187722834645667
20
-4.0451098425196852
11
5.5225218110236218
21
-4.0601079527559056
0
LINE
8
BLACK
6
CONTINUOUS
10
5.5225218110236218
20
-4.0601079527559056
11
5.5225218110236218
21
-4.0788556299212599
0
LINE
8
BLACK
6
CONTINUOUS
10
5.5225218110236218
20
-4.0788556299212599
11
5.5187722834645667
21
-4.0938537401574804
0
LINE
8
BLACK
6
CONTINUOUS
10
5.5187722834645667
20
-4.0938537401574804
11
5.5150227559055116
21
-4.1013527952755906
0
LINE
8
BLACK
6
CONTINUOUS
10
5.5150227559055116
20
-4.1013527952755906
11
5.5112732283464565
21
-4.1051023622047245
0
LINE
8
BLACK
6
CONTINUOUS
10
5.5112732283464565
20
-4.1051023622047245
11
5.5037741732283463
21
-4.1088518897637796
0
LINE
8
BLACK
6
CONTINUOUS
10
5.5037741732283463
20
-4.1088518897637796
11
5.4962750787401573
21
-4.1088518897637796
0
LINE
8
BLACK
6
CONTINUOUS
10
5.4962750787401573
20
-4.1088518897637796
11
5.4887760236220471
21
-4.1051023622047245
0
LINE
8
BLACK
6
CONTINUOUS
10
5.4887760236220471
20
-4.1051023622047245
11
5.485026496062992
21
-4.1013527952755906
0
LINE
8
BLACK
6
CONTINUOUS
10
5.485026496062992
20
-4.1013527952755906
11
5.4812769685039369
21
-4.0938537401574804
0
LINE
8
BLACK
6
CONTINUOUS
10
5.4812769685039369
20
-4.0938537401574804
11
5.4775274409448818
21
-4.0788556299212599
0
LINE
8
BLACK
6
CONTINUOUS
10
5.4775274409448818
20
-4.0788556299212599
11
5.4775274409448818
21
-4.0601079527559056
0
LINE
8
BLACK
6
CONTINUOUS
10
5.4775274409448818
20
-4.0601079527559056
11
5.4812769685039369
21
-4.0451098425196852
0
LINE
8
BLACK
6
CONTINUOUS
10
5.4812769685039369
20
-4.0451098425196852
11
5.485026496062992
21
-4.037610787401575
0
LINE
8
BLACK
6
CONTINUOUS
10
5.485026496062992
20
-4.037610787401575
11
5.4887760236220471
21
-4.0338612598425199
0
LINE
8
BLACK
6
CONTINUOUS
10
5.4887760236220471
20
-4.0338612598425199
11
5.4962750787401573
21
-4.0301117322834648
0
LINE
8
BLACK
6
CONTINUOUS
10
5.5562675984251966
20
-4.1088518897637796
11
5.5562675984251966
21
-4.0563584251968505
0
LINE
8
BLACK
6
CONTINUOUS
10
5.5562675984251966
20
-4.0638574803149607
11
5.5600171259842517
21
-4.0601079527559056
0
LINE
8
BLACK
6
CONTINUOUS
10
5.5600171259842517
20
-4.0601079527559056
11
5.5675161811023619
21
-4.0563584251968505
0
LINE
8
BLACK
6
CONTINUOUS
10
5.5675161811023619
20
-4.0563584251968505
11
5.578764803149606
21
-4.0563584251968505
0
LINE
8
BLACK
6
CONTINUOUS
10
5.578764803149606
20
-4.0563584251968505
11
5.5862638582677162
21
-4.0601079527559056
0
LINE
8
BLACK
6
CONTINUOUS
10
5.5862638582677162
20
-4.0601079527559056
11
5.5900133858267713
21
-4.0676070472440946
0
LINE
8
BLACK
6
CONTINUOUS
10
5.5900133858267713
20
-4.0676070472440946
11
5.5900133858267713
21
-4.1088518897637796
0
LINE
8
BLACK
6
CONTINUOUS
10
5.5900133858267713
20
-4.0676070472440946
11
5.5937629133858264
21
-4.0601079527559056
0
LINE
8
BLACK
6
CONTINUOUS
10
5.5937629133858264
20
-4.0601079527559056
11
5.6012619685039367
21
-4.0563584251968505
0
LINE
8
BLACK
6
CONTINUOUS
10
5.6012619685039367
20
-4.0563584251968505
11
5.612510551181102
21
-4.0563584251968505
0
LINE
8
BLACK
6
CONTINUOUS
10
5.612510551181102
20
-4.0563584251968505
11
5.620009645669291
21
-4.0601079527559056
0
LINE
8
BLACK
6
CONTINUOUS
10
5.620009645669291
20
-4.0601079527559056
11
5.6237591732283461
21
-4.0676070472440946
0
LINE
8
BLACK
6
CONTINUOUS
10
5.6237591732283461
20
-4.0676070472440946
11
5.6237591732283461
21
-4.1088518897637796
0
LINE
8
BLACK
6
CONTINUOUS
10
5.6612544881889759
20
-4.1088518897637796
11
5.6612544881889759
21
-4.0563584251968505
0
LINE
8
BLACK
6
CONTINUOUS
10
5.6612544881889759
20
-4.0638574803149607
11
5.665004015748031
21
-4.0601079527559056
0
LINE
8
BLACK
6
CONTINUOUS
10
5.665004015748031
20
-4.0601079527559056
11
5.6725030708661413
21
-4.0563584251968505
0
LINE
8
BLACK
6
CONTINUOUS
10
5.6725030708661413
20
-4.0563584251968505
11
5.6837516929133853
21
-4.0563584251968505
0
LINE
8
BLACK
6
CONTINUOUS
10
5.6837516929133853
20
-4.0563584251968505
11
5.6912507480314956
21
-4.0601079527559056
0
LINE
8
BLACK
6
CONTINUOUS
10
5.6912507480314956
20
-4.0601079527559056
11
5.6950002755905507
21
-4.0676070472440946
0
LINE
8
BLACK
6
CONTINUOUS
10
5.6950002755905507
20
-4.0676070472440946
11
5.6950002755905507
21
-4.1088518897637796
0
LINE
8
BLACK
6
CONTINUOUS
10
5.6950002755905507
20
-4.0676070472440946
11
5.6987498031496058
21
-4.0601079527559056
0
LINE
8
BLACK
6
CONTINUOUS
10
5.6987498031496058
20
-4.0601079527559056
11
5.706248858267716
21
-4.0563584251968505
0
LINE
8
BLACK
6
CONTINUOUS
10
5.706248858267716
20
-4.0563584251968505
11
5.7174974409448813
21
-4.0563584251968505
0
LINE
8
BLACK
6
CONTINUOUS
10
5.7174974409448813
20
-4.0563584251968505
11
5.7249965354330703
21
-4.0601079527559056
0
LINE
8
BLACK
6
CONTINUOUS
10
5.7249965354330703
20
-4.0601079527559056
11
5.7287460629921263
21
-4.0676070472440946
0
LINE
8
BLACK
6
CONTINUOUS
10
5.7287460629921263
20
-4.0676070472440946
11
5.7287460629921263
21
-4.1088518897637796
0
LINE
8
BLACK
6
CONTINUOUS
10
5.8824768503937008
20
-4.0263622047244096
11
5.8149853149606301
21
-4.1275995275590551
0
LINE
8
BLACK
6
CONTINUOUS
10
5.9837142125984251
20
-4.0301117322834648
11
5.991213307086614
21
-4.0301117322834648
0
LINE
8
BLACK
6
CONTINUOUS
10
5.991213307086614
20
-4.0301117322834648
11
5.9987123622047243
21
-4.0338612598425199
0
LINE
8
BLACK
6
CONTINUOUS
10
5.9987123622047243
20
-4.0338612598425199
11
6.0024618897637794
21
-4.037610787401575
0
LINE
8
BLACK
6
CONTINUOUS
10
6.0024618897637794
20
-4.037610787401575
11
6.0062114173228345
21
-4.0451098425196852
0
LINE
8
BLACK
6
CONTINUOUS
10
6.0062114173228345
20
-4.0451098425196852
11
6.0099609448818896
21
-4.0601079527559056
0
LINE
8
BLACK
6
CONTINUOUS
10
6.0099609448818896
20
-4.0601079527559056
11
6.0099609448818896
21
-4.0788556299212599
0
LINE
8
BLACK
6
CONTINUOUS
10
6.0099609448818896
20
-4.0788556299212599
11
6.0062114173228345
21
-4.0938537401574804
0
LINE
8
BLACK
6
CONTINUOUS
10
6.0062114173228345
20
-4.0938537401574804
11
6.0024618897637794
21
-4.1013527952755906
0
LINE
8
BLACK
6
CONTINUOUS
10
6.0024618897637794
20
-4.1013527952755906
11
5.9987123622047243
21
-4.1051023622047245
0
LINE
8
BLACK
6
CONTINUOUS
10
5.9987123622047243
20
-4.1051023622047245
11
5.991213307086614
21
-4.1088518897637796
0
LINE
8
BLACK
6
CONTINUOUS
10
5.991213307086614
20
-4.1088518897637796
11
5.9837142125984251
21
-4.1088518897637796
0
LINE
8
BLACK
6
CONTINUOUS
10
5.9837142125984251
20
-4.1088518897637796
11
5.9762151574803148
21
-4.1051023622047245
0
LINE
8
BLACK
6
CONTINUOUS
10
5.9762151574803148
20
-4.1051023622047245
11
5.9724656299212597
21
-4.1013527952755906
0
LINE
8
BLACK
6
CONTINUOUS
10
5.9724656299212597
20
-4.1013527952755906
11
5.9687161023622046
21
-4.0938537401574804
0
LINE
8
BLACK
6
CONTINUOUS
10
5.9687161023622046
20
-4.0938537401574804
11
5.9649665748031495
21
-4.0788556299212599
0
LINE
8
BLACK
6
CONTINUOUS
10
5.9649665748031495
20
-4.0788556299212599
11
5.9649665748031495
21
-4.0601079527559056
0
LINE
8
BLACK
6
CONTINUOUS
10
5.9649665748031495
20
-4.0601079527559056
11
5.9687161023622046
21
-4.0451098425196852
0
LINE
8
BLACK
6
CONTINUOUS
10
5.9687161023622046
20
-4.0451098425196852
11
5.9724656299212597
21
-4.037610787401575
0
LINE
8
BLACK
6
CONTINUOUS
10
5.9724656299212597
20
-4.037610787401575
11
5.9762151574803148
21
-4.0338612598425199
0
LINE
8
BLACK
6
CONTINUOUS
10
5.9762151574803148
20
-4.0338612598425199
11
5.9837142125984251
21
-4.0301117322834648
0
LINE
8
BLACK
6
CONTINUOUS
10
6.0437067322834643
20
-4.1013527952755906
11
6.0474562598425194
21
-4.1051023622047245
0
LINE
8
BLACK
6
CONTINUOUS
10
6.0474562598425194
20
-4.1051023622047245
11
6.0437067322834643
21
-4.1088518897637796
0
LINE
8
BLACK
6
CONTINUOUS
10
6.0437067322834643
20
-4.1088518897637796
11
6.0399572047244092
21
-4.1051023622047245
0
LINE
8
BLACK
6
CONTINUOUS
10
6.0399572047244092
20
-4.1051023622047245
11
6.0437067322834643
21
-4.1013527952755906
0
LINE
8
BLACK
6
CONTINUOUS
10
6.0437067322834643
20
-4.1013527952755906
11
6.0437067322834643
21
-4.1088518897637796
0
LINE
8
BLACK
6
CONTINUOUS
10
6.0962001574803146
20
-4.0301117322834648
11
6.1036992519685036
21
-4.0301117322834648
0
LINE
8
BLACK
6
CONTINUOUS
10
6.1036992519685036
20
-4.0301117322834648
11
6.1111983070866138
21
-4.0338612598425199
0
LINE
8
BLACK
6
CONTINUOUS
10
6.1111983070866138
20
-4.0338612598425199
11
6.1149478346456689
21
-4.037610787401575
0
LINE
8
BLACK
6
CONTINUOUS
10
6.1149478346456689
20
-4.037610787401575
11
6.118697362204724
21
-4.0451098425196852
0
LINE
8
BLACK
6
CONTINUOUS
10
6.118697362204724
20
-4.0451098425196852
11
6.1224468897637792
21
-4.0601079527559056
0
LINE
8
BLACK
6
CONTINUOUS
10
6.1224468897637792
20
-4.0601079527559056
11
6.1224468897637792
21
-4.0788556299212599
0
LINE
8
BLACK
6
CONTINUOUS
10
6.1224468897637792
20
-4.0788556299212599
11
6.118697362204724
21
-4.0938537401574804
0
LINE
8
BLACK
6
CONTINUOUS
10
6.118697362204724
20
-4.0938537401574804
11
6.1149478346456689
21
-4.1013527952755906
0
LINE
8
BLACK
6
CONTINUOUS
10
6.1149478346456689
20
-4.1013527952755906
11
6.1111983070866138
21
-4.1051023622047245
0
LINE
8
BLACK
6
CONTINUOUS
10
6.1111983070866138
20
-4.1051023622047245
11
6.1036992519685036
21
-4.1088518897637796
0
LINE
8
BLACK
6
CONTINUOUS
10
6.1036992519685036
20
-4.1088518897637796
11
6.0962001574803146
21
-4.1088518897637796
0
LINE
8
BLACK
6
CONTINUOUS
10
6.0962001574803146
20
-4.1088518897637796
11
6.0887011023622044
21
-4.1051023622047245
0
LINE
8
BLACK
6
CONTINUOUS
10
6.0887011023622044
20
-4.1051023622047245
11
6.0849515748031493
21
-4.1013527952755906
0
LINE
8
BLACK
6
CONTINUOUS
10
6.0849515748031493
20
-4.1013527952755906
11
6.0812020472440942
21
-4.0938537401574804
0
LINE
8
BLACK
6
CONTINUOUS
10
6.0812020472440942
20
-4.0938537401574804
11
6.0774525196850391
21
-4.0788556299212599
0
LINE
8
BLACK
6
CONTINUOUS
10
6.0774525196850391
20
-4.0788556299212599
11
6.0774525196850391
21
-4.0601079527559056
0
LINE
8
BLACK
6
CONTINUOUS
10
6.0774525196850391
20
-4.0601079527559056
11
6.0812020472440942
21
-4.0451098425196852
0
LINE
8
BLACK
6
CONTINUOUS
10
6.0812020472440942
20
-4.0451098425196852
11
6.0849515748031493
21
-4.037610787401575
0
LINE
8
BLACK
6
CONTINUOUS
10
6.0849515748031493
20
-4.037610787401575
11
6.0887011023622044
21
-4.0338612598425199
0
LINE
8
BLACK
6
CONTINUOUS
10
6.0887011023622044
20
-4.0338612598425199
11
6.0962001574803146
21
-4.0301117322834648
0
LINE
8
BLACK
6
CONTINUOUS
10
6.1524431496062988
20
-4.037610787401575
11
6.1561926771653539
21
-4.0338612598425199
0
LINE
8
BLACK
6
CONTINUOUS
10
6.1561926771653539
20
-4.0338612598425199
11
6.1636917322834641
21
-4.0301117322834648
0
LINE
8
BLACK
6
CONTINUOUS
10
6.1636917322834641
20
-4.0301117322834648
11
6.1824394094488184
21
-4.0301117322834648
0
LINE
8
BLACK
6
CONTINUOUS
10
6.1824394094488184
20
-4.0301117322834648
11
6.1899384645669286
21
-4.0338612598425199
0
LINE
8
BLACK
6
CONTINUOUS
10
6.1899384645669286
20
-4.0338612598425199
11
6.1936879921259838
21
-4.037610787401575
0
LINE
8
BLACK
6
CONTINUOUS
10
6.1936879921259838
20
-4.037610787401575
11
6.1974375196850389
21
-4.0451098425196852
0
LINE
8
BLACK
6
CONTINUOUS
10
6.1974375196850389
20
-4.0451098425196852
11
6.1974375196850389
21
-4.0526088976377954
0
LINE
8
BLACK
6
CONTINUOUS
10
6.1974375196850389
20
-4.0526088976377954
11
6.1936879921259838
21
-4.0638574803149607
0
LINE
8
BLACK
6
CONTINUOUS
10
6.1936879921259838
20
-4.0638574803149607
11
6.1486936220472437
21
-4.1088518897637796
0
LINE
8
BLACK
6
CONTINUOUS
10
6.1486936220472437
20
-4.1088518897637796
11
6.1974375196850389
21
-4.1088518897637796
0
LINE
8
BLACK
6
CONTINUOUS
10
6.2236842519685034
20
-4.0301117322834648
11
6.2761776771653546
21
-4.0301117322834648
0
LINE
8
BLACK
6
CONTINUOUS
10
6.2761776771653546
20
-4.0301117322834648
11
6.2424318897637798
21
-4.1088518897637796
0
LINE
8
BLACK
6
CONTINUOUS
10
6.339919724409449
20
-4.0301117322834648
11
6.3249215748031498
21
-4.0301117322834648
0
LINE
8
BLACK
6
CONTINUOUS
10
6.3249215748031498
20
-4.0301117322834648
11
6.3174225196850395
21
-4.0338612598425199
0
LINE
8
BLACK
6
CONTINUOUS
10
6.3174225196850395
20
-4.0338612598425199
11
6.3136729921259844
21
-4.037610787401575
0
LINE
8
BLACK
6
CONTINUOUS
10
6.3136729921259844
20
-4.037610787401575
11
6.3061739370078742
21
-4.0488593700787403
0
LINE
8
BLACK
6
CONTINUOUS
10
6.3061739370078742
20
-4.0488593700787403
11
6.3024244094488191
21
-4.0638574803149607
0
LINE
8
BLACK
6
CONTINUOUS
10
6.3024244094488191
20
-4.0638574803149607
11
6.3024244094488191
21
-4.0938537401574804
0
LINE
8
BLACK
6
CONTINUOUS
10
6.3024244094488191
20
-4.0938537401574804
11
6.3061739370078742
21
-4.1013527952755906
0
LINE
8
BLACK
6
CONTINUOUS
10
6.3061739370078742
20
-4.1013527952755906
11
6.3099234645669293
21
-4.1051023622047245
0
LINE
8
BLACK
6
CONTINUOUS
10
6.3099234645669293
20
-4.1051023622047245
11
6.3174225196850395
21
-4.1088518897637796
0
LINE
8
BLACK
6
CONTINUOUS
10
6.3174225196850395
20
-4.1088518897637796
11
6.3324206692913387
21
-4.1088518897637796
0
LINE
8
BLACK
6
CONTINUOUS
10
6.3324206692913387
20
-4.1088518897637796
11
6.339919724409449
21
-4.1051023622047245
0
LINE
8
BLACK
6
CONTINUOUS
10
6.339919724409449
20
-4.1051023622047245
11
6.3436692519685041
21
-4.1013527952755906
0
LINE
8
BLACK
6
CONTINUOUS
10
6.3436692519685041
20
-4.1013527952755906
11
6.3474187795275592
21
-4.0938537401574804
0
LINE
8
BLACK
6
CONTINUOUS
10
6.3474187795275592
20
-4.0938537401574804
11
6.3474187795275592
21
-4.0751061023622048
0
LINE
8
BLACK
6
CONTINUOUS
10
6.3474187795275592
20
-4.0751061023622048
11
6.3436692519685041
21
-4.0676070472440946
0
LINE
8
BLACK
6
CONTINUOUS
10
6.3436692519685041
20
-4.0676070472440946
11
6.339919724409449
21
-4.0638574803149607
0
LINE
8
BLACK
6
CONTINUOUS
10
6.339919724409449
20
-4.0638574803149607
11
6.3324206692913387
21
-4.0601079527559056
0
LINE
8
BLACK
6
CONTINUOUS
10
6.3324206692913387
20
-4.0601079527559056
11
6.3174225196850395
21
-4.0601079527559056
0
LINE
8
BLACK
6
CONTINUOUS
10
6.3174225196850395
20
-4.0601079527559056
11
6.3099234645669293
21
-4.0638574803149607
0
LINE
8
BLACK
6
CONTINUOUS
10
6.3099234645669293
20
-4.0638574803149607
11
6.3061739370078742
21
-4.0676070472440946
0
LINE
8
BLACK
6
CONTINUOUS
10
6.3061739370078742
20
-4.0676070472440946
11
6.3024244094488191
21
-4.0751061023622048
0
LINE
8
BLACK
6
CONTINUOUS
10
6.3774150393700788
20
-4.0301117322834648
11
6.3774150393700788
21
-4.0451098425196852
0
LINE
8
BLACK
6
CONTINUOUS
10
6.4074112992125984
20
-4.0301117322834648
11
6.4074112992125984
21
-4.0451098425196852
0
LINE
8
BLACK
6
CONTINUOUS
10
6.5236468110236219
20
-4.1388481102362205
11
6.519897244094488
21
-4.1350985826771653
0
LINE
8
BLACK
6
CONTINUOUS
10
6.519897244094488
20
-4.1350985826771653
11
6.5123981889763778
21
-4.12385
0
LINE
8
BLACK
6
CONTINUOUS
10
6.5123981889763778
20
-4.12385
11
6.5086486614173227
21
-4.1163509448818898
0
LINE
8
BLACK
6
CONTINUOUS
10
6.5086486614173227
20
-4.1163509448818898
11
6.5048991338582676
21
-4.1051023622047245
0
LINE
8
BLACK
6
CONTINUOUS
10
6.5048991338582676
20
-4.1051023622047245
11
6.5011496062992125
21
-4.0863546850393702
0
LINE
8
BLACK
6
CONTINUOUS
10
6.5011496062992125
20
-4.0863546850393702
11
6.5011496062992125
21
-4.0713565748031497
0
LINE
8
BLACK
6
CONTINUOUS
10
6.5011496062992125
20
-4.0713565748031497
11
6.5048991338582676
21
-4.0526088976377954
0
LINE
8
BLACK
6
CONTINUOUS
10
6.5048991338582676
20
-4.0526088976377954
11
6.5086486614173227
21
-4.0413603149606301
0
LINE
8
BLACK
6
CONTINUOUS
10
6.5086486614173227
20
-4.0413603149606301
11
6.5123981889763778
21
-4.0338612598425199
0
LINE
8
BLACK
6
CONTINUOUS
10
6.5123981889763778
20
-4.0338612598425199
11
6.519897244094488
21
-4.0226126377952758
0
LINE
8
BLACK
6
CONTINUOUS
10
6.519897244094488
20
-4.0226126377952758
11
6.5236468110236219
21
-4.0188631102362207
0
LINE
8
BLACK
6
CONTINUOUS
10
6.5873888188976375
20
-4.0301117322834648
11
6.5723906692913383
21
-4.0301117322834648
0
LINE
8
BLACK
6
CONTINUOUS
10
6.5723906692913383
20
-4.0301117322834648
11
6.5648916141732281
21
-4.0338612598425199
0
LINE
8
BLACK
6
CONTINUOUS
10
6.5648916141732281
20
-4.0338612598425199
11
6.561142086614173
21
-4.037610787401575
0
LINE
8
BLACK
6
CONTINUOUS
10
6.561142086614173
20
-4.037610787401575
11
6.5536430314960628
21
-4.0488593700787403
0
LINE
8
BLACK
6
CONTINUOUS
10
6.5536430314960628
20
-4.0488593700787403
11
6.5498935039370076
21
-4.0638574803149607
0
LINE
8
BLACK
6
CONTINUOUS
10
6.5498935039370076
20
-4.0638574803149607
11
6.5498935039370076
21
-4.0938537401574804
0
LINE
8
BLACK
6
CONTINUOUS
10
6.5498935039370076
20
-4.0938537401574804
11
6.5536430314960628
21
-4.1013527952755906
0
LINE
8
BLACK
6
CONTINUOUS
10
6.5536430314960628
20
-4.1013527952755906
11
6.5573925590551179
21
-4.1051023622047245
0
LINE
8
BLACK
6
CONTINUOUS
10
6.5573925590551179
20
-4.1051023622047245
11
6.5648916141732281
21
-4.1088518897637796
0
LINE
8
BLACK
6
CONTINUOUS
10
6.5648916141732281
20
-4.1088518897637796
11
6.5798897637795273
21
-4.1088518897637796
0
LINE
8
BLACK
6
CONTINUOUS
10
6.5798897637795273
20
-4.1088518897637796
11
6.5873888188976375
21
-4.1051023622047245
0
LINE
8
BLACK
6
CONTINUOUS
10
6.5873888188976375
20
-4.1051023622047245
11
6.5911383464566926
21
-4.1013527952755906
0
LINE
8
BLACK
6
CONTINUOUS
10
6.5911383464566926
20
-4.1013527952755906
11
6.5948878740157477
21
-4.0938537401574804
0
LINE
8
BLACK
6
CONTINUOUS
10
6.5948878740157477
20
-4.0938537401574804
11
6.5948878740157477
21
-4.0751061023622048
0
LINE
8
BLACK
6
CONTINUOUS
10
6.5948878740157477
20
-4.0751061023622048
11
6.5911383464566926
21
-4.0676070472440946
0
LINE
8
BLACK
6
CONTINUOUS
10
6.5911383464566926
20
-4.0676070472440946
11
6.5873888188976375
21
-4.0638574803149607
0
LINE
8
BLACK
6
CONTINUOUS
10
6.5873888188976375
20
-4.0638574803149607
11
6.5798897637795273
21
-4.0601079527559056
0
LINE
8
BLACK
6
CONTINUOUS
10
6.5798897637795273
20
-4.0601079527559056
11
6.5648916141732281
21
-4.0601079527559056
0
LINE
8
BLACK
6
CONTINUOUS
10
6.5648916141732281
20
-4.0601079527559056
11
6.5573925590551179
21
-4.0638574803149607
0
LINE
8
BLACK
6
CONTINUOUS
10
6.5573925590551179
20
-4.0638574803149607
11
6.5536430314960628
21
-4.0676070472440946
0
LINE
8
BLACK
6
CONTINUOUS
10
6.5536430314960628
20
-4.0676070472440946
11
6.5498935039370076
21
-4.0751061023622048
0
LINE
8
BLACK
6
CONTINUOUS
10
6.6886261811023617
20
-4.1088518897637796
11
6.6886261811023617
21
-4.0301117322834648
0
LINE
8
BLACK
6
CONTINUOUS
10
6.7223719685039365
20
-4.1088518897637796
11
6.7223719685039365
21
-4.0676070472440946
0
LINE
8
BLACK
6
CONTINUOUS
10
6.7223719685039365
20
-4.0676070472440946
11
6.7186224409448814
21
-4.0601079527559056
0
LINE
8
BLACK
6
CONTINUOUS
10
6.7186224409448814
20
-4.0601079527559056
11
6.7111233858267711
21
-4.0563584251968505
0
LINE
8
BLACK
6
CONTINUOUS
10
6.7111233858267711
20
-4.0563584251968505
11
6.6998747637795271
21
-4.0563584251968505
0
LINE
8
BLACK
6
CONTINUOUS
10
6.6998747637795271
20
-4.0563584251968505
11
6.6923757086614168
21
-4.0601079527559056
0
LINE
8
BLACK
6
CONTINUOUS
10
6.6923757086614168
20
-4.0601079527559056
11
6.6886261811023617
21
-4.0638574803149607
0
LINE
8
BLACK
6
CONTINUOUS
10
6.7711158661417326
20
-4.1088518897637796
11
6.7636168110236223
21
-4.1051023622047245
0
LINE
8
BLACK
6
CONTINUOUS
10
6.7636168110236223
20
-4.1051023622047245
11
6.7598672834645663
21
-4.1013527952755906
0
LINE
8
BLACK
6
CONTINUOUS
10
6.7598672834645663
20
-4.1013527952755906
11
6.7561177559055112
21
-4.0938537401574804
0
LINE
8
BLACK
6
CONTINUOUS
10
6.7561177559055112
20
-4.0938537401574804
11
6.7561177559055112
21
-4.0713565748031497
0
LINE
8
BLACK
6
CONTINUOUS
10
6.7561177559055112
20
-4.0713565748031497
11
6.7598672834645663
21
-4.0638574803149607
0
LINE
8
BLACK
6
CONTINUOUS
10
6.7598672834645663
20
-4.0638574803149607
11
6.7636168110236223
21
-4.0601079527559056
0
LINE
8
BLACK
6
CONTINUOUS
10
6.7636168110236223
20
-4.0601079527559056
11
6.7711158661417326
21
-4.0563584251968505
0
LINE
8
BLACK
6
CONTINUOUS
10
6.7711158661417326
20
-4.0563584251968505
11
6.7823644881889766
21
-4.0563584251968505
0
LINE
8
BLACK
6
CONTINUOUS
10
6.7823644881889766
20
-4.0563584251968505
11
6.7898635433070869
21
-4.0601079527559056
0
LINE
8
BLACK
6
CONTINUOUS
10
6.7898635433070869
20
-4.0601079527559056
11
6.793613070866142
21
-4.0638574803149607
0
LINE
8
BLACK
6
CONTINUOUS
10
6.793613070866142
20
-4.0638574803149607
11
6.7973625984251971
21
-4.0713565748031497
0
LINE
8
BLACK
6
CONTINUOUS
10
6.7973625984251971
20
-4.0713565748031497
11
6.7973625984251971
21
-4.0938537401574804
0
LINE
8
BLACK
6
CONTINUOUS
10
6.7973625984251971
20
-4.0938537401574804
11
6.793613070866142
21
-4.1013527952755906
0
LINE
8
BLACK
6
CONTINUOUS
10
6.793613070866142
20
-4.1013527952755906
11
6.7898635433070869
21
-4.1051023622047245
0
LINE
8
BLACK
6
CONTINUOUS
10
6.7898635433070869
20
-4.1051023622047245
11
6.7823644881889766
21
-4.1088518897637796
0
LINE
8
BLACK
6
CONTINUOUS
10
6.7823644881889766
20
-4.1088518897637796
11
6.7711158661417326
21
-4.1088518897637796
0
LINE
8
BLACK
6
CONTINUOUS
10
6.8423569685039372
20
-4.1088518897637796
11
6.8348579133858269
21
-4.1051023622047245
0
LINE
8
BLACK
6
CONTINUOUS
10
6.8348579133858269
20
-4.1051023622047245
11
6.8311083858267718
21
-4.0976032677165355
0
LINE
8
BLACK
6
CONTINUOUS
10
6.8311083858267718
20
-4.0976032677165355
11
6.8311083858267718
21
-4.0301117322834648
0
LINE
8
BLACK
6
CONTINUOUS
10
6.9023494881889764
20
-4.1051023622047245
11
6.8948504330708662
21
-4.1088518897637796
0
LINE
8
BLACK
6
CONTINUOUS
10
6.8948504330708662
20
-4.1088518897637796
11
6.879852283464567
21
-4.1088518897637796
0
LINE
8
BLACK
6
CONTINUOUS
10
6.879852283464567
20
-4.1088518897637796
11
6.8723532283464568
21
-4.1051023622047245
0
LINE
8
BLACK
6
CONTINUOUS
10
6.8723532283464568
20
-4.1051023622047245
11
6.8686037007874017
21
-4.0976032677165355
0
LINE
8
BLACK
6
CONTINUOUS
10
6.8686037007874017
20
-4.0976032677165355
11
6.8686037007874017
21
-4.0676070472440946
0
LINE
8
BLACK
6
CONTINUOUS
10
6.8686037007874017
20
-4.0676070472440946
11
6.8723532283464568
21
-4.0601079527559056
0
LINE
8
BLACK
6
CONTINUOUS
10
6.8723532283464568
20
-4.0601079527559056
11
6.879852283464567
21
-4.0563584251968505
0
LINE
8
BLACK
6
CONTINUOUS
10
6.879852283464567
20
-4.0563584251968505
11
6.8948504330708662
21
-4.0563584251968505
0
LINE
8
BLACK
6
CONTINUOUS
10
6.8948504330708662
20
-4.0563584251968505
11
6.9023494881889764
21
-4.0601079527559056
0
LINE
8
BLACK
6
CONTINUOUS
10
6.9023494881889764
20
-4.0601079527559056
11
6.9060990157480315
21
-4.0676070472440946
0
LINE
8
BLACK
6
CONTINUOUS
10
6.9060990157480315
20
-4.0676070472440946
11
6.9060990157480315
21
-4.0751061023622048
0
LINE
8
BLACK
6
CONTINUOUS
10
6.9060990157480315
20
-4.0751061023622048
11
6.8686037007874017
21
-4.0826051574803151
0
LINE
8
BLACK
6
CONTINUOUS
10
6.9360952755905512
20
-4.1051023622047245
11
6.9435943307086614
21
-4.1088518897637796
0
LINE
8
BLACK
6
CONTINUOUS
10
6.9435943307086614
20
-4.1088518897637796
11
6.9585924409448818
21
-4.1088518897637796
0
LINE
8
BLACK
6
CONTINUOUS
10
6.9585924409448818
20
-4.1088518897637796
11
6.9660915354330708
21
-4.1051023622047245
0
LINE
8
BLACK
6
CONTINUOUS
10
6.9660915354330708
20
-4.1051023622047245
11
6.9698410629921259
21
-4.0976032677165355
0
LINE
8
BLACK
6
CONTINUOUS
10
6.9698410629921259
20
-4.0976032677165355
11
6.9698410629921259
21
-4.0938537401574804
0
LINE
8
BLACK
6
CONTINUOUS
10
6.9698410629921259
20
-4.0938537401574804
11
6.9660915354330708
21
-4.0863546850393702
0
LINE
8
BLACK
6
CONTINUOUS
10
6.9660915354330708
20
-4.0863546850393702
11
6.9585924409448818
21
-4.0826051574803151
0
LINE
8
BLACK
6
CONTINUOUS
10
6.9585924409448818
20
-4.0826051574803151
11
6.9473438582677165
21
-4.0826051574803151
0
LINE
8
BLACK
6
CONTINUOUS
10
6.9473438582677165
20
-4.0826051574803151
11
6.9398448031496063
21
-4.0788556299212599
0
LINE
8
BLACK
6
CONTINUOUS
10
6.9398448031496063
20
-4.0788556299212599
11
6.9360952755905512
21
-4.0713565748031497
0
LINE
8
BLACK
6
CONTINUOUS
10
6.9360952755905512
20
-4.0713565748031497
11
6.9360952755905512
21
-4.0676070472440946
0
LINE
8
BLACK
6
CONTINUOUS
10
6.9360952755905512
20
-4.0676070472440946
11
6.9398448031496063
21
-4.0601079527559056
0
LINE
8
BLACK
6
CONTINUOUS
10
6.9398448031496063
20
-4.0601079527559056
11
6.9473438582677165
21
-4.0563584251968505
0
LINE
8
BLACK
6
CONTINUOUS
10
6.9473438582677165
20
-4.0563584251968505
11
6.9585924409448818
21
-4.0563584251968505
0
LINE
8
BLACK
6
CONTINUOUS
10
6.9585924409448818
20
-4.0563584251968505
11
6.9660915354330708
21
-4.0601079527559056
0
LINE
8
BLACK
6
CONTINUOUS
10
6.9960877952755904
20
-4.1388481102362205
11
6.9998373228346455
21
-4.1350985826771653
0
LINE
8
BLACK
6
CONTINUOUS
10
6.9998373228346455
20
-4.1350985826771653
11
7.0073363779527558
21
-4.12385
0
LINE
8
BLACK
6
CONTINUOUS
10
7.0073363779527558
20
-4.12385
11
7.0110859055118109
21
-4.1163509448818898
0
LINE
8
BLACK
6
CONTINUOUS
10
7.0110859055118109
20
-4.1163509448818898
11
7.014835433070866
21
-4.1051023622047245
0
LINE
8
BLACK
6
CONTINUOUS
10
7.014835433070866
20
-4.1051023622047245
11
7.0185849606299211
21
-4.0863546850393702
0
LINE
8
BLACK
6
CONTINUOUS
10
7.0185849606299211
20
-4.0863546850393702
11
7.0185849606299211
21
-4.0713565748031497
0
LINE
8
BLACK
6
CONTINUOUS
10
7.0185849606299211
20
-4.0713565748031497
11
7.014835433070866
21
-4.0526088976377954
0
LINE
8
BLACK
6
CONTINUOUS
10
7.014835433070866
20
-4.0526088976377954
11
7.0110859055118109
21
-4.0413603149606301
0
LINE
8
BLACK
6
CONTINUOUS
10
7.0110859055118109
20
-4.0413603149606301
11
7.0073363779527558
21
-4.0338612598425199
0
LINE
8
BLACK
6
CONTINUOUS
10
7.0073363779527558
20
-4.0338612598425199
11
6.9998373228346455
21
-4.0226126377952758
0
LINE
8
BLACK
6
CONTINUOUS
10
6.9998373228346455
20
-4.0226126377952758
11
6.9960877952755904
21
-4.0188631102362207
0
CIRCLE
8
BLACK
10
5.1003937007874018
20
-4.176771653543307
40
0.015748031496063
0
LINE
8
BLACK
6
CONTINUOUS
10
5.2338078740157483
20
-4.1340487401574801
11
5.2413069685039373
21
-4.1340487401574801
0
LINE
8
BLACK
6
CONTINUOUS
10
5.2413069685039373
20
-4.1340487401574801
11
5.2488060236220475
21
-4.1377982677165352
0
LINE
8
BLACK
6
CONTINUOUS
10
5.2488060236220475
20
-4.1377982677165352
11
5.2525555511811026
21
-4.1415477952755904
0
LINE
8
BLACK
6
CONTINUOUS
10
5.2525555511811026
20
-4.1415477952755904
11
5.2563050787401577
21
-4.1490468503937006
0
LINE
8
BLACK
6
CONTINUOUS
10
5.2563050787401577
20
-4.1490468503937006
11
5.2600546062992128
21
-4.164044960629921
0
LINE
8
BLACK
6
CONTINUOUS
10
5.2600546062992128
20
-4.164044960629921
11
5.2600546062992128
21
-4.1827926377952753
0
LINE
8
BLACK
6
CONTINUOUS
10
5.2600546062992128
20
-4.1827926377952753
11
5.2563050787401577
21
-4.1977907480314958
0
LINE
8
BLACK
6
CONTINUOUS
10
5.2563050787401577
20
-4.1977907480314958
11
5.2525555511811026
21
-4.205289803149606
0
LINE
8
BLACK
6
CONTINUOUS
10
5.2525555511811026
20
-4.205289803149606
11
5.2488060236220475
21
-4.2090393700787399
0
LINE
8
BLACK
6
CONTINUOUS
10
5.2488060236220475
20
-4.2090393700787399
11
5.2413069685039373
21
-4.212788897637795
0
LINE
8
BLACK
6
CONTINUOUS
10
5.2413069685039373
20
-4.212788897637795
11
5.2338078740157483
21
-4.212788897637795
0
LINE
8
BLACK
6
CONTINUOUS
10
5.2338078740157483
20
-4.212788897637795
11
5.2263088188976381
21
-4.2090393700787399
0
LINE
8
BLACK
6
CONTINUOUS
10
5.2263088188976381
20
-4.2090393700787399
11
5.222559291338583
21
-4.205289803149606
0
LINE
8
BLACK
6
CONTINUOUS
10
5.222559291338583
20
-4.205289803149606
11
5.2188097637795279
21
-4.1977907480314958
0
LINE
8
BLACK
6
CONTINUOUS
10
5.2188097637795279
20
-4.1977907480314958
11
5.2150602362204719
21
-4.1827926377952753
0
LINE
8
BLACK
6
CONTINUOUS
10
5.2150602362204719
20
-4.1827926377952753
11
5.2150602362204719
21
-4.164044960629921
0
LINE
8
BLACK
6
CONTINUOUS
10
5.2150602362204719
20
-4.164044960629921
11
5.2188097637795279
21
-4.1490468503937006
0
LINE
8
BLACK
6
CONTINUOUS
10
5.2188097637795279
20
-4.1490468503937006
11
5.222559291338583
21
-4.1415477952755904
0
LINE
8
BLACK
6
CONTINUOUS
10
5.222559291338583
20
-4.1415477952755904
11
5.2263088188976381
21
-4.1377982677165352
0
LINE
8
BLACK
6
CONTINUOUS
10
5.2263088188976381
20
-4.1377982677165352
11
5.2338078740157483
21
-4.1340487401574801
0
LINE
8
BLACK
6
CONTINUOUS
10
5.2938003937007876
20
-4.205289803149606
11
5.2975499212598427
21
-4.2090393700787399
0
LINE
8
BLACK
6
CONTINUOUS
10
5.2975499212598427
20
-4.2090393700787399
11
5.2938003937007876
21
-4.212788897637795
0
LINE
8
BLACK
6
CONTINUOUS
10
5.2938003937007876
20
-4.212788897637795
11
5.2900508661417325
21
-4.2090393700787399
0
LINE
8
BLACK
6
CONTINUOUS
10
5.2900508661417325
20
-4.2090393700787399
11
5.2938003937007876
21
-4.205289803149606
0
LINE
8
BLACK
6
CONTINUOUS
10
5.2938003937007876
20
-4.205289803149606
11
5.2938003937007876
21
-4.212788897637795
0
LINE
8
BLACK
6
CONTINUOUS
10
5.3425442913385828
20
-4.1677944881889761
11
5.3350452362204726
21
-4.164044960629921
0
LINE
8
BLACK
6
CONTINUOUS
10
5.3350452362204726
20
-4.164044960629921
11
5.3312957086614174
21
-4.1602954330708659
0
LINE
8
BLACK
6
CONTINUOUS
10
5.3312957086614174
20
-4.1602954330708659
11
5.3275461811023623
21
-4.1527963779527557
0
LINE
8
BLACK
6
CONTINUOUS
10
5.3275461811023623
20
-4.1527963779527557
11
5.3275461811023623
21
-4.1490468503937006
0
LINE
8
BLACK
6
CONTINUOUS
10
5.3275461811023623
20
-4.1490468503937006
11
5.3312957086614174
21
-4.1415477952755904
0
LINE
8
BLACK
6
CONTINUOUS
10
5.3312957086614174
20
-4.1415477952755904
11
5.3350452362204726
21
-4.1377982677165352
0
LINE
8
BLACK
6
CONTINUOUS
10
5.3350452362204726
20
-4.1377982677165352
11
5.3425442913385828
21
-4.1340487401574801
0
LINE
8
BLACK
6
CONTINUOUS
10
5.3425442913385828
20
-4.1340487401574801
11
5.357542440944882
21
-4.1340487401574801
0
LINE
8
BLACK
6
CONTINUOUS
10
5.357542440944882
20
-4.1340487401574801
11
5.3650414960629922
21
-4.1377982677165352
0
LINE
8
BLACK
6
CONTINUOUS
10
5.3650414960629922
20
-4.1377982677165352
11
5.3687910236220473
21
-4.1415477952755904
0
LINE
8
BLACK
6
CONTINUOUS
10
5.3687910236220473
20
-4.1415477952755904
11
5.3725405511811024
21
-4.1490468503937006
0
LINE
8
BLACK
6
CONTINUOUS
10
5.3725405511811024
20
-4.1490468503937006
11
5.3725405511811024
21
-4.1527963779527557
0
LINE
8
BLACK
6
CONTINUOUS
10
5.3725405511811024
20
-4.1527963779527557
11
5.3687910236220473
21
-4.1602954330708659
0
LINE
8
BLACK
6
CONTINUOUS
10
5.3687910236220473
20
-4.1602954330708659
11
5.3650414960629922
21
-4.164044960629921
0
LINE
8
BLACK
6
CONTINUOUS
10
5.3650414960629922
20
-4.164044960629921
11
5.357542440944882
21
-4.1677944881889761
0
LINE
8
BLACK
6
CONTINUOUS
10
5.357542440944882
20
-4.1677944881889761
11
5.3425442913385828
21
-4.1677944881889761
0
LINE
8
BLACK
6
CONTINUOUS
10
5.3425442913385828
20
-4.1677944881889761
11
5.3350452362204726
21
-4.17154405511811
0
LINE
8
BLACK
6
CONTINUOUS
10
5.3350452362204726
20
-4.17154405511811
11
5.3312957086614174
21
-4.1752935826771651
0
LINE
8
BLACK
6
CONTINUOUS
10
5.3312957086614174
20
-4.1752935826771651
11
5.3275461811023623
21
-4.1827926377952753
0
LINE
8
BLACK
6
CONTINUOUS
10
5.3275461811023623
20
-4.1827926377952753
11
5.3275461811023623
21
-4.1977907480314958
0
LINE
8
BLACK
6
CONTINUOUS
10
5.3275461811023623
20
-4.1977907480314958
11
5.3312957086614174
21
-4.205289803149606
0
LINE
8
BLACK
6
CONTINUOUS
10
5.3312957086614174
20
-4.205289803149606
11
5.3350452362204726
21
-4.2090393700787399
0
LINE
8
BLACK
6
CONTINUOUS
10
5.3350452362204726
20
-4.2090393700787399
11
5.3425442913385828
21
-4.212788897637795
0
LINE
8
BLACK
6
CONTINUOUS
10
5.3425442913385828
20
-4.212788897637795
11
5.357542440944882
21
-4.212788897637795
0
LINE
8
BLACK
6
CONTINUOUS
10
5.357542440944882
20
-4.212788897637795
11
5.3650414960629922
21
-4.2090393700787399
0
LINE
8
BLACK
6
CONTINUOUS
10
5.3650414960629922
20
-4.2090393700787399
11
5.3687910236220473
21
-4.205289803149606
0
LINE
8
BLACK
6
CONTINUOUS
10
5.3687910236220473
20
-4.205289803149606
11
5.3725405511811024
21
-4.1977907480314958
0
LINE
8
BLACK
6
CONTINUOUS
10
5.3725405511811024
20
-4.1977907480314958
11
5.3725405511811024
21
-4.1827926377952753
0
LINE
8
BLACK
6
CONTINUOUS
10
5.3725405511811024
20
-4.1827926377952753
11
5.3687910236220473
21
-4.1752935826771651
0
LINE
8
BLACK
6
CONTINUOUS
10
5.3687910236220473
20
-4.1752935826771651
11
5.3650414960629922
21
-4.17154405511811
0
LINE
8
BLACK
6
CONTINUOUS
10
5.3650414960629922
20
-4.17154405511811
11
5.357542440944882
21
-4.1677944881889761
0
LINE
8
BLACK
6
CONTINUOUS
10
5.4212844488188976
20
-4.1340487401574801
11
5.4287835433070866
21
-4.1340487401574801
0
LINE
8
BLACK
6
CONTINUOUS
10
5.4287835433070866
20
-4.1340487401574801
11
5.4362825984251968
21
-4.1377982677165352
0
LINE
8
BLACK
6
CONTINUOUS
10
5.4362825984251968
20
-4.1377982677165352
11
5.4400321259842519
21
-4.1415477952755904
0
LINE
8
BLACK
6
CONTINUOUS
10
5.4400321259842519
20
-4.1415477952755904
11
5.443781653543307
21
-4.1490468503937006
0
LINE
8
BLACK
6
CONTINUOUS
10
5.443781653543307
20
-4.1490468503937006
11
5.4475311811023621
21
-4.164044960629921
0
LINE
8
BLACK
6
CONTINUOUS
10
5.4475311811023621
20
-4.164044960629921
11
5.4475311811023621
21
-4.1827926377952753
0
LINE
8
BLACK
6
CONTINUOUS
10
5.4475311811023621
20
-4.1827926377952753
11
5.443781653543307
21
-4.1977907480314958
0
LINE
8
BLACK
6
CONTINUOUS
10
5.443781653543307
20
-4.1977907480314958
11
5.4400321259842519
21
-4.205289803149606
0
LINE
8
BLACK
6
CONTINUOUS
10
5.4400321259842519
20
-4.205289803149606
11
5.4362825984251968
21
-4.2090393700787399
0
LINE
8
BLACK
6
CONTINUOUS
10
5.4362825984251968
20
-4.2090393700787399
11
5.4287835433070866
21
-4.212788897637795
0
LINE
8
BLACK
6
CONTINUOUS
10
5.4287835433070866
20
-4.212788897637795
11
5.4212844488188976
21
-4.212788897637795
0
LINE
8
BLACK
6
CONTINUOUS
10
5.4212844488188976
20
-4.212788897637795
11
5.4137853937007874
21
-4.2090393700787399
0
LINE
8
BLACK
6
CONTINUOUS
10
5.4137853937007874
20
-4.2090393700787399
11
5.4100358661417323
21
-4.205289803149606
0
LINE
8
BLACK
6
CONTINUOUS
10
5.4100358661417323
20
-4.205289803149606
11
5.4062863385826772
21
-4.1977907480314958
0
LINE
8
BLACK
6
CONTINUOUS
10
5.4062863385826772
20
-4.1977907480314958
11
5.402536811023622
21
-4.1827926377952753
0
LINE
8
BLACK
6
CONTINUOUS
10
5.402536811023622
20
-4.1827926377952753
11
5.402536811023622
21
-4.164044960629921
0
LINE
8
BLACK
6
CONTINUOUS
10
5.402536811023622
20
-4.164044960629921
11
5.4062863385826772
21
-4.1490468503937006
0
LINE
8
BLACK
6
CONTINUOUS
10
5.4062863385826772
20
-4.1490468503937006
11
5.4100358661417323
21
-4.1415477952755904
0
LINE
8
BLACK
6
CONTINUOUS
10
5.4100358661417323
20
-4.1415477952755904
11
5.4137853937007874
21
-4.1377982677165352
0
LINE
8
BLACK
6
CONTINUOUS
10
5.4137853937007874
20
-4.1377982677165352
11
5.4212844488188976
21
-4.1340487401574801
0
LINE
8
BLACK
6
CONTINUOUS
10
5.4962750787401573
20
-4.1340487401574801
11
5.5037741732283463
21
-4.1340487401574801
0
LINE
8
BLACK
6
CONTINUOUS
10
5.5037741732283463
20
-4.1340487401574801
11
5.5112732283464565
21
-4.1377982677165352
0
LINE
8
BLACK
6
CONTINUOUS
10
5.5112732283464565
20
-4.1377982677165352
11
5.5150227559055116
21
-4.1415477952755904
0
LINE
8
BLACK
6
CONTINUOUS
10
5.5150227559055116
20
-4.1415477952755904
11
5.5187722834645667
21
-4.1490468503937006
0
LINE
8
BLACK
6
CONTINUOUS
10
5.5187722834645667
20
-4.1490468503937006
11
5.5225218110236218
21
-4.164044960629921
0
LINE
8
BLACK
6
CONTINUOUS
10
5.5225218110236218
20
-4.164044960629921
11
5.5225218110236218
21
-4.1827926377952753
0
LINE
8
BLACK
6
CONTINUOUS
10
5.5225218110236218
20
-4.1827926377952753
11
5.5187722834645667
21
-4.1977907480314958
0
LINE
8
BLACK
6
CONTINUOUS
10
5.5187722834645667
20
-4.1977907480314958
11
5.5150227559055116
21
-4.205289803149606
0
LINE
8
BLACK
6
CONTINUOUS
10
5.5150227559055116
20
-4.205289803149606
11
5.5112732283464565
21
-4.2090393700787399
0
LINE
8
BLACK
6
CONTINUOUS
10
5.5112732283464565
20
-4.2090393700787399
11
5.5037741732283463
21
-4.212788897637795
0
LINE
8
BLACK
6
CONTINUOUS
10
5.5037741732283463
20
-4.212788897637795
11
5.4962750787401573
21
-4.212788897637795
0
LINE
8
BLACK
6
CONTINUOUS
10
5.4962750787401573
20
-4.212788897637795
11
5.4887760236220471
21
-4.2090393700787399
0
LINE
8
BLACK
6
CONTINUOUS
10
5.4887760236220471
20
-4.2090393700787399
11
5.485026496062992
21
-4.205289803149606
0
LINE
8
BLACK
6
CONTINUOUS
10
5.485026496062992
20
-4.205289803149606
11
5.4812769685039369
21
-4.1977907480314958
0
LINE
8
BLACK
6
CONTINUOUS
10
5.4812769685039369
20
-4.1977907480314958
11
5.4775274409448818
21
-4.1827926377952753
0
LINE
8
BLACK
6
CONTINUOUS
10
5.4775274409448818
20
-4.1827926377952753
11
5.4775274409448818
21
-4.164044960629921
0
LINE
8
BLACK
6
CONTINUOUS
10
5.4775274409448818
20
-4.164044960629921
11
5.4812769685039369
21
-4.1490468503937006
0
LINE
8
BLACK
6
CONTINUOUS
10
5.4812769685039369
20
-4.1490468503937006
11
5.485026496062992
21
-4.1415477952755904
0
LINE
8
BLACK
6
CONTINUOUS
10
5.485026496062992
20
-4.1415477952755904
11
5.4887760236220471
21
-4.1377982677165352
0
LINE
8
BLACK
6
CONTINUOUS
10
5.4887760236220471
20
-4.1377982677165352
11
5.4962750787401573
21
-4.1340487401574801
0
LINE
8
BLACK
6
CONTINUOUS
10
5.5562675984251966
20
-4.212788897637795
11
5.5562675984251966
21
-4.1602954330708659
0
LINE
8
BLACK
6
CONTINUOUS
10
5.5562675984251966
20
-4.1677944881889761
11
5.5600171259842517
21
-4.164044960629921
0
LINE
8
BLACK
6
CONTINUOUS
10
5.5600171259842517
20
-4.164044960629921
11
5.5675161811023619
21
-4.1602954330708659
0
LINE
8
BLACK
6
CONTINUOUS
10
5.5675161811023619
20
-4.1602954330708659
11
5.578764803149606
21
-4.1602954330708659
0
LINE
8
BLACK
6
CONTINUOUS
10
5.578764803149606
20
-4.1602954330708659
11
5.5862638582677162
21
-4.164044960629921
0
LINE
8
BLACK
6
CONTINUOUS
10
5.5862638582677162
20
-4.164044960629921
11
5.5900133858267713
21
-4.17154405511811
0
LINE
8
BLACK
6
CONTINUOUS
10
5.5900133858267713
20
-4.17154405511811
11
5.5900133858267713
21
-4.212788897637795
0
LINE
8
BLACK
6
CONTINUOUS
10
5.5900133858267713
20
-4.17154405511811
11
5.5937629133858264
21
-4.164044960629921
0
LINE
8
BLACK
6
CONTINUOUS
10
5.5937629133858264
20
-4.164044960629921
11
5.6012619685039367
21
-4.1602954330708659
0
LINE
8
BLACK
6
CONTINUOUS
10
5.6012619685039367
20
-4.1602954330708659
11
5.612510551181102
21
-4.1602954330708659
0
LINE
8
BLACK
6
CONTINUOUS
10
5.612510551181102
20
-4.1602954330708659
11
5.620009645669291
21
-4.164044960629921
0
LINE
8
BLACK
6
CONTINUOUS
10
5.620009645669291
20
-4.164044960629921
11
5.6237591732283461
21
-4.17154405511811
0
LINE
8
BLACK
6
CONTINUOUS
10
5.6237591732283461
20
-4.17154405511811
11
5.6237591732283461
21
-4.212788897637795
0
LINE
8
BLACK
6
CONTINUOUS
10
5.6612544881889759
20
-4.212788897637795
11
5.6612544881889759
21
-4.1602954330708659
0
LINE
8
BLACK
6
CONTINUOUS
10
5.6612544881889759
20
-4.1677944881889761
11
5.665004015748031
21
-4.164044960629921
0
LINE
8
BLACK
6
CONTINUOUS
10
5.665004015748031
20
-4.164044960629921
11
5.6725030708661413
21
-4.1602954330708659
0
LINE
8
BLACK
6
CONTINUOUS
10
5.6725030708661413
20
-4.1602954330708659
11
5.6837516929133853
21
-4.1602954330708659
0
LINE
8
BLACK
6
CONTINUOUS
10
5.6837516929133853
20
-4.1602954330708659
11
5.6912507480314956
21
-4.164044960629921
0
LINE
8
BLACK
6
CONTINUOUS
10
5.6912507480314956
20
-4.164044960629921
11
5.6950002755905507
21
-4.17154405511811
0
LINE
8
BLACK
6
CONTINUOUS
10
5.6950002755905507
20
-4.17154405511811
11
5.6950002755905507
21
-4.212788897637795
0
LINE
8
BLACK
6
CONTINUOUS
10
5.6950002755905507
20
-4.17154405511811
11
5.6987498031496058
21
-4.164044960629921
0
LINE
8
BLACK
6
CONTINUOUS
10
5.6987498031496058
20
-4.164044960629921
11
5.706248858267716
21
-4.1602954330708659
0
LINE
8
BLACK
6
CONTINUOUS
10
5.706248858267716
20
-4.1602954330708659
11
5.7174974409448813
21
-4.1602954330708659
0
LINE
8
BLACK
6
CONTINUOUS
10
5.7174974409448813
20
-4.1602954330708659
11
5.7249965354330703
21
-4.164044960629921
0
LINE
8
BLACK
6
CONTINUOUS
10
5.7249965354330703
20
-4.164044960629921
11
5.7287460629921263
21
-4.17154405511811
0
LINE
8
BLACK
6
CONTINUOUS
10
5.7287460629921263
20
-4.17154405511811
11
5.7287460629921263
21
-4.212788897637795
0
LINE
8
BLACK
6
CONTINUOUS
10
5.8824768503937008
20
-4.130299212598425
11
5.8149853149606301
21
-4.2315365354330705
0
LINE
8
BLACK
6
CONTINUOUS
10
5.9837142125984251
20
-4.1340487401574801
11
5.991213307086614
21
-4.1340487401574801
0
LINE
8
BLACK
6
CONTINUOUS
10
5.991213307086614
20
-4.1340487401574801
11
5.9987123622047243
21
-4.1377982677165352
0
LINE
8
BLACK
6
CONTINUOUS
10
5.9987123622047243
20
-4.1377982677165352
11
6.0024618897637794
21
-4.1415477952755904
0
LINE
8
BLACK
6
CONTINUOUS
10
6.0024618897637794
20
-4.1415477952755904
11
6.0062114173228345
21
-4.1490468503937006
0
LINE
8
BLACK
6
CONTINUOUS
10
6.0062114173228345
20
-4.1490468503937006
11
6.0099609448818896
21
-4.164044960629921
0
LINE
8
BLACK
6
CONTINUOUS
10
6.0099609448818896
20
-4.164044960629921
11
6.0099609448818896
21
-4.1827926377952753
0
LINE
8
BLACK
6
CONTINUOUS
10
6.0099609448818896
20
-4.1827926377952753
11
6.0062114173228345
21
-4.1977907480314958
0
LINE
8
BLACK
6
CONTINUOUS
10
6.0062114173228345
20
-4.1977907480314958
11
6.0024618897637794
21
-4.205289803149606
0
LINE
8
BLACK
6
CONTINUOUS
10
6.0024618897637794
20
-4.205289803149606
11
5.9987123622047243
21
-4.2090393700787399
0
LINE
8
BLACK
6
CONTINUOUS
10
5.9987123622047243
20
-4.2090393700787399
11
5.991213307086614
21
-4.212788897637795
0
LINE
8
BLACK
6
CONTINUOUS
10
5.991213307086614
20
-4.212788897637795
11
5.9837142125984251
21
-4.212788897637795
0
LINE
8
BLACK
6
CONTINUOUS
10
5.9837142125984251
20
-4.212788897637795
11
5.9762151574803148
21
-4.2090393700787399
0
LINE
8
BLACK
6
CONTINUOUS
10
5.9762151574803148
20
-4.2090393700787399
11
5.9724656299212597
21
-4.205289803149606
0
LINE
8
BLACK
6
CONTINUOUS
10
5.9724656299212597
20
-4.205289803149606
11
5.9687161023622046
21
-4.1977907480314958
0
LINE
8
BLACK
6
CONTINUOUS
10
5.9687161023622046
20
-4.1977907480314958
11
5.9649665748031495
21
-4.1827926377952753
0
LINE
8
BLACK
6
CONTINUOUS
10
5.9649665748031495
20
-4.1827926377952753
11
5.9649665748031495
21
-4.164044960629921
0
LINE
8
BLACK
6
CONTINUOUS
10
5.9649665748031495
20
-4.164044960629921
11
5.9687161023622046
21
-4.1490468503937006
0
LINE
8
BLACK
6
CONTINUOUS
10
5.9687161023622046
20
-4.1490468503937006
11
5.9724656299212597
21
-4.1415477952755904
0
LINE
8
BLACK
6
CONTINUOUS
10
5.9724656299212597
20
-4.1415477952755904
11
5.9762151574803148
21
-4.1377982677165352
0
LINE
8
BLACK
6
CONTINUOUS
10
5.9762151574803148
20
-4.1377982677165352
11
5.9837142125984251
21
-4.1340487401574801
0
LINE
8
BLACK
6
CONTINUOUS
10
6.0437067322834643
20
-4.205289803149606
11
6.0474562598425194
21
-4.2090393700787399
0
LINE
8
BLACK
6
CONTINUOUS
10
6.0474562598425194
20
-4.2090393700787399
11
6.0437067322834643
21
-4.212788897637795
0
LINE
8
BLACK
6
CONTINUOUS
10
6.0437067322834643
20
-4.212788897637795
11
6.0399572047244092
21
-4.2090393700787399
0
LINE
8
BLACK
6
CONTINUOUS
10
6.0399572047244092
20
-4.2090393700787399
11
6.0437067322834643
21
-4.205289803149606
0
LINE
8
BLACK
6
CONTINUOUS
10
6.0437067322834643
20
-4.205289803149606
11
6.0437067322834643
21
-4.212788897637795
0
LINE
8
BLACK
6
CONTINUOUS
10
6.0962001574803146
20
-4.1340487401574801
11
6.1036992519685036
21
-4.1340487401574801
0
LINE
8
BLACK
6
CONTINUOUS
10
6.1036992519685036
20
-4.1340487401574801
11
6.1111983070866138
21
-4.1377982677165352
0
LINE
8
BLACK
6
CONTINUOUS
10
6.1111983070866138
20
-4.1377982677165352
11
6.1149478346456689
21
-4.1415477952755904
0
LINE
8
BLACK
6
CONTINUOUS
10
6.1149478346456689
20
-4.1415477952755904
11
6.118697362204724
21
-4.1490468503937006
0
LINE
8
BLACK
6
CONTINUOUS
10
6.118697362204724
20
-4.1490468503937006
11
6.1224468897637792
21
-4.164044960629921
0
LINE
8
BLACK
6
CONTINUOUS
10
6.1224468897637792
20
-4.164044960629921
11
6.1224468897637792
21
-4.1827926377952753
0
LINE
8
BLACK
6
CONTINUOUS
10
6.1224468897637792
20
-4.1827926377952753
11
6.118697362204724
21
-4.1977907480314958
0
LINE
8
BLACK
6
CONTINUOUS
10
6.118697362204724
20
-4.1977907480314958
11
6.1149478346456689
21
-4.205289803149606
0
LINE
8
BLACK
6
CONTINUOUS
10
6.1149478346456689
20
-4.205289803149606
11
6.1111983070866138
21
-4.2090393700787399
0
LINE
8
BLACK
6
CONTINUOUS
10
6.1111983070866138
20
-4.2090393700787399
11
6.1036992519685036
21
-4.212788897637795
0
LINE
8
BLACK
6
CONTINUOUS
10
6.1036992519685036
20
-4.212788897637795
11
6.0962001574803146
21
-4.212788897637795
0
LINE
8
BLACK
6
CONTINUOUS
10
6.0962001574803146
20
-4.212788897637795
11
6.0887011023622044
21
-4.2090393700787399
0
LINE
8
BLACK
6
CONTINUOUS
10
6.0887011023622044
20
-4.2090393700787399
11
6.0849515748031493
21
-4.205289803149606
0
LINE
8
BLACK
6
CONTINUOUS
10
6.0849515748031493
20
-4.205289803149606
11
6.0812020472440942
21
-4.1977907480314958
0
LINE
8
BLACK
6
CONTINUOUS
10
6.0812020472440942
20
-4.1977907480314958
11
6.0774525196850391
21
-4.1827926377952753
0
LINE
8
BLACK
6
CONTINUOUS
10
6.0774525196850391
20
-4.1827926377952753
11
6.0774525196850391
21
-4.164044960629921
0
LINE
8
BLACK
6
CONTINUOUS
10
6.0774525196850391
20
-4.164044960629921
11
6.0812020472440942
21
-4.1490468503937006
0
LINE
8
BLACK
6
CONTINUOUS
10
6.0812020472440942
20
-4.1490468503937006
11
6.0849515748031493
21
-4.1415477952755904
0
LINE
8
BLACK
6
CONTINUOUS
10
6.0849515748031493
20
-4.1415477952755904
11
6.0887011023622044
21
-4.1377982677165352
0
LINE
8
BLACK
6
CONTINUOUS
10
6.0887011023622044
20
-4.1377982677165352
11
6.0962001574803146
21
-4.1340487401574801
0
LINE
8
BLACK
6
CONTINUOUS
10
6.1486936220472437
20
-4.1340487401574801
11
6.1974375196850389
21
-4.1340487401574801
0
LINE
8
BLACK
6
CONTINUOUS
10
6.1974375196850389
20
-4.1340487401574801
11
6.1711907874015743
21
-4.164044960629921
0
LINE
8
BLACK
6
CONTINUOUS
10
6.1711907874015743
20
-4.164044960629921
11
6.1824394094488184
21
-4.164044960629921
0
LINE
8
BLACK
6
CONTINUOUS
10
6.1824394094488184
20
-4.164044960629921
11
6.1899384645669286
21
-4.1677944881889761
0
LINE
8
BLACK
6
CONTINUOUS
10
6.1899384645669286
20
-4.1677944881889761
11
6.1936879921259838
21
-4.17154405511811
0
LINE
8
BLACK
6
CONTINUOUS
10
6.1936879921259838
20
-4.17154405511811
11
6.1974375196850389
21
-4.1790431102362202
0
LINE
8
BLACK
6
CONTINUOUS
10
6.1974375196850389
20
-4.1790431102362202
11
6.1974375196850389
21
-4.1977907480314958
0
LINE
8
BLACK
6
CONTINUOUS
10
6.1974375196850389
20
-4.1977907480314958
11
6.1936879921259838
21
-4.205289803149606
0
LINE
8
BLACK
6
CONTINUOUS
10
6.1936879921259838
20
-4.205289803149606
11
6.1899384645669286
21
-4.2090393700787399
0
LINE
8
BLACK
6
CONTINUOUS
10
6.1899384645669286
20
-4.2090393700787399
11
6.1824394094488184
21
-4.212788897637795
0
LINE
8
BLACK
6
CONTINUOUS
10
6.1824394094488184
20
-4.212788897637795
11
6.159942204724409
21
-4.212788897637795
0
LINE
8
BLACK
6
CONTINUOUS
10
6.159942204724409
20
-4.212788897637795
11
6.1524431496062988
21
-4.2090393700787399
0
LINE
8
BLACK
6
CONTINUOUS
10
6.1524431496062988
20
-4.2090393700787399
11
6.1486936220472437
21
-4.205289803149606
0
LINE
8
BLACK
6
CONTINUOUS
10
6.2724281496062995
20
-4.212788897637795
11
6.2274337795275585
21
-4.212788897637795
0
LINE
8
BLACK
6
CONTINUOUS
10
6.24993094488189
20
-4.212788897637795
11
6.24993094488189
21
-4.1340487401574801
0
LINE
8
BLACK
6
CONTINUOUS
10
6.24993094488189
20
-4.1340487401574801
11
6.2424318897637798
21
-4.1452973228346455
0
LINE
8
BLACK
6
CONTINUOUS
10
6.2424318897637798
20
-4.1452973228346455
11
6.2349328346456687
21
-4.1527963779527557
0
LINE
8
BLACK
6
CONTINUOUS
10
6.2349328346456687
20
-4.1527963779527557
11
6.2274337795275585
21
-4.1565459055118108
0
LINE
8
BLACK
6
CONTINUOUS
10
6.3436692519685041
20
-4.1340487401574801
11
6.3061739370078742
21
-4.1340487401574801
0
LINE
8
BLACK
6
CONTINUOUS
10
6.3061739370078742
20
-4.1340487401574801
11
6.3024244094488191
21
-4.17154405511811
0
LINE
8
BLACK
6
CONTINUOUS
10
6.3024244094488191
20
-4.17154405511811
11
6.3061739370078742
21
-4.1677944881889761
0
LINE
8
BLACK
6
CONTINUOUS
10
6.3061739370078742
20
-4.1677944881889761
11
6.3136729921259844
21
-4.164044960629921
0
LINE
8
BLACK
6
CONTINUOUS
10
6.3136729921259844
20
-4.164044960629921
11
6.3324206692913387
21
-4.164044960629921
0
LINE
8
BLACK
6
CONTINUOUS
10
6.3324206692913387
20
-4.164044960629921
11
6.339919724409449
21
-4.1677944881889761
0
LINE
8
BLACK
6
CONTINUOUS
10
6.339919724409449
20
-4.1677944881889761
11
6.3436692519685041
21
-4.17154405511811
0
LINE
8
BLACK
6
CONTINUOUS
10
6.3436692519685041
20
-4.17154405511811
11
6.3474187795275592
21
-4.1790431102362202
0
LINE
8
BLACK
6
CONTINUOUS
10
6.3474187795275592
20
-4.1790431102362202
11
6.3474187795275592
21
-4.1977907480314958
0
LINE
8
BLACK
6
CONTINUOUS
10
6.3474187795275592
20
-4.1977907480314958
11
6.3436692519685041
21
-4.205289803149606
0
LINE
8
BLACK
6
CONTINUOUS
10
6.3436692519685041
20
-4.205289803149606
11
6.339919724409449
21
-4.2090393700787399
0
LINE
8
BLACK
6
CONTINUOUS
10
6.339919724409449
20
-4.2090393700787399
11
6.3324206692913387
21
-4.212788897637795
0
LINE
8
BLACK
6
CONTINUOUS
10
6.3324206692913387
20
-4.212788897637795
11
6.3136729921259844
21
-4.212788897637795
0
LINE
8
BLACK
6
CONTINUOUS
10
6.3136729921259844
20
-4.212788897637795
11
6.3061739370078742
21
-4.2090393700787399
0
LINE
8
BLACK
6
CONTINUOUS
10
6.3061739370078742
20
-4.2090393700787399
11
6.3024244094488191
21
-4.205289803149606
0
LINE
8
BLACK
6
CONTINUOUS
10
6.3774150393700788
20
-4.1340487401574801
11
6.3774150393700788
21
-4.1490468503937006
0
LINE
8
BLACK
6
CONTINUOUS
10
6.4074112992125984
20
-4.1340487401574801
11
6.4074112992125984
21
-4.1490468503937006
0
LINE
8
BLACK
6
CONTINUOUS
10
6.5236468110236219
20
-4.2427851181102358
11
6.519897244094488
21
-4.2390355905511807
0
LINE
8
BLACK
6
CONTINUOUS
10
6.519897244094488
20
-4.2390355905511807
11
6.5123981889763778
21
-4.2277870078740154
0
LINE
8
BLACK
6
CONTINUOUS
10
6.5123981889763778
20
-4.2277870078740154
11
6.5086486614173227
21
-4.2202879527559052
0
LINE
8
BLACK
6
CONTINUOUS
10
6.5086486614173227
20
-4.2202879527559052
11
6.5048991338582676
21
-4.2090393700787399
0
LINE
8
BLACK
6
CONTINUOUS
10
6.5048991338582676
20
-4.2090393700787399
11
6.5011496062992125
21
-4.1902916929133855
0
LINE
8
BLACK
6
CONTINUOUS
10
6.5011496062992125
20
-4.1902916929133855
11
6.5011496062992125
21
-4.1752935826771651
0
LINE
8
BLACK
6
CONTINUOUS
10
6.5011496062992125
20
-4.1752935826771651
11
6.5048991338582676
21
-4.1565459055118108
0
LINE
8
BLACK
6
CONTINUOUS
10
6.5048991338582676
20
-4.1565459055118108
11
6.5086486614173227
21
-4.1452973228346455
0
LINE
8
BLACK
6
CONTINUOUS
10
6.5086486614173227
20
-4.1452973228346455
11
6.5123981889763778
21
-4.1377982677165352
0
LINE
8
BLACK
6
CONTINUOUS
10
6.5123981889763778
20
-4.1377982677165352
11
6.519897244094488
21
-4.1265496456692912
0
LINE
8
BLACK
6
CONTINUOUS
10
6.519897244094488
20
-4.1265496456692912
11
6.5236468110236219
21
-4.1228001181102361
0
LINE
8
BLACK
6
CONTINUOUS
10
6.5873888188976375
20
-4.1340487401574801
11
6.5723906692913383
21
-4.1340487401574801
0
LINE
8
BLACK
6
CONTINUOUS
10
6.5723906692913383
20
-4.1340487401574801
11
6.5648916141732281
21
-4.1377982677165352
0
LINE
8
BLACK
6
CONTINUOUS
10
6.5648916141732281
20
-4.1377982677165352
11
6.561142086614173
21
-4.1415477952755904
0
LINE
8
BLACK
6
CONTINUOUS
10
6.561142086614173
20
-4.1415477952755904
11
6.5536430314960628
21
-4.1527963779527557
0
LINE
8
BLACK
6
CONTINUOUS
10
6.5536430314960628
20
-4.1527963779527557
11
6.5498935039370076
21
-4.1677944881889761
0
LINE
8
BLACK
6
CONTINUOUS
10
6.5498935039370076
20
-4.1677944881889761
11
6.5498935039370076
21
-4.1977907480314958
0
LINE
8
BLACK
6
CONTINUOUS
10
6.5498935039370076
20
-4.1977907480314958
11
6.5536430314960628
21
-4.205289803149606
0
LINE
8
BLACK
6
CONTINUOUS
10
6.5536430314960628
20
-4.205289803149606
11
6.5573925590551179
21
-4.2090393700787399
0
LINE
8
BLACK
6
CONTINUOUS
10
6.5573925590551179
20
-4.2090393700787399
11
6.5648916141732281
21
-4.212788897637795
0
LINE
8
BLACK
6
CONTINUOUS
10
6.5648916141732281
20
-4.212788897637795
11
6.5798897637795273
21
-4.212788897637795
0
LINE
8
BLACK
6
CONTINUOUS
10
6.5798897637795273
20
-4.212788897637795
11
6.5873888188976375
21
-4.2090393700787399
0
LINE
8
BLACK
6
CONTINUOUS
10
6.5873888188976375
20
-4.2090393700787399
11
6.5911383464566926
21
-4.205289803149606
0
LINE
8
BLACK
6
CONTINUOUS
10
6.5911383464566926
20
-4.205289803149606
11
6.5948878740157477
21
-4.1977907480314958
0
LINE
8
BLACK
6
CONTINUOUS
10
6.5948878740157477
20
-4.1977907480314958
11
6.5948878740157477
21
-4.1790431102362202
0
LINE
8
BLACK
6
CONTINUOUS
10
6.5948878740157477
20
-4.1790431102362202
11
6.5911383464566926
21
-4.17154405511811
0
LINE
8
BLACK
6
CONTINUOUS
10
6.5911383464566926
20
-4.17154405511811
11
6.5873888188976375
21
-4.1677944881889761
0
LINE
8
BLACK
6
CONTINUOUS
10
6.5873888188976375
20
-4.1677944881889761
11
6.5798897637795273
21
-4.164044960629921
0
LINE
8
BLACK
6
CONTINUOUS
10
6.5798897637795273
20
-4.164044960629921
11
6.5648916141732281
21
-4.164044960629921
0
LINE
8
BLACK
6
CONTINUOUS
10
6.5648916141732281
20
-4.164044960629921
11
6.5573925590551179
21
-4.1677944881889761
0
LINE
8
BLACK
6
CONTINUOUS
10
6.5573925590551179
20
-4.1677944881889761
11
6.5536430314960628
21
-4.17154405511811
0
LINE
8
BLACK
6
CONTINUOUS
10
6.5536430314960628
20
-4.17154405511811
11
6.5498935039370076
21
-4.1790431102362202
0
LINE
8
BLACK
6
CONTINUOUS
10
6.6886261811023617
20
-4.212788897637795
11
6.6886261811023617
21
-4.1340487401574801
0
LINE
8
BLACK
6
CONTINUOUS
10
6.7223719685039365
20
-4.212788897637795
11
6.7223719685039365
21
-4.17154405511811
0
LINE
8
BLACK
6
CONTINUOUS
10
6.7223719685039365
20
-4.17154405511811
11
6.7186224409448814
21
-4.164044960629921
0
LINE
8
BLACK
6
CONTINUOUS
10
6.7186224409448814
20
-4.164044960629921
11
6.7111233858267711
21
-4.1602954330708659
0
LINE
8
BLACK
6
CONTINUOUS
10
6.7111233858267711
20
-4.1602954330708659
11
6.6998747637795271
21
-4.1602954330708659
0
LINE
8
BLACK
6
CONTINUOUS
10
6.6998747637795271
20
-4.1602954330708659
11
6.6923757086614168
21
-4.164044960629921
0
LINE
8
BLACK
6
CONTINUOUS
10
6.6923757086614168
20
-4.164044960629921
11
6.6886261811023617
21
-4.1677944881889761
0
LINE
8
BLACK
6
CONTINUOUS
10
6.7711158661417326
20
-4.212788897637795
11
6.7636168110236223
21
-4.2090393700787399
0
LINE
8
BLACK
6
CONTINUOUS
10
6.7636168110236223
20
-4.2090393700787399
11
6.7598672834645663
21
-4.205289803149606
0
LINE
8
BLACK
6
CONTINUOUS
10
6.7598672834645663
20
-4.205289803149606
11
6.7561177559055112
21
-4.1977907480314958
0
LINE
8
BLACK
6
CONTINUOUS
10
6.7561177559055112
20
-4.1977907480314958
11
6.7561177559055112
21
-4.1752935826771651
0
LINE
8
BLACK
6
CONTINUOUS
10
6.7561177559055112
20
-4.1752935826771651
11
6.7598672834645663
21
-4.1677944881889761
0
LINE
8
BLACK
6
CONTINUOUS
10
6.7598672834645663
20
-4.1677944881889761
11
6.7636168110236223
21
-4.164044960629921
0
LINE
8
BLACK
6
CONTINUOUS
10
6.7636168110236223
20
-4.164044960629921
11
6.7711158661417326
21
-4.1602954330708659
0
LINE
8
BLACK
6
CONTINUOUS
10
6.7711158661417326
20
-4.1602954330708659
11
6.7823644881889766
21
-4.1602954330708659
0
LINE
8
BLACK
6
CONTINUOUS
10
6.7823644881889766
20
-4.1602954330708659
11
6.7898635433070869
21
-4.164044960629921
0
LINE
8
BLACK
6
CONTINUOUS
10
6.7898635433070869
20
-4.164044960629921
11
6.793613070866142
21
-4.1677944881889761
0
LINE
8
BLACK
6
CONTINUOUS
10
6.793613070866142
20
-4.1677944881889761
11
6.7973625984251971
21
-4.1752935826771651
0
LINE
8
BLACK
6
CONTINUOUS
10
6.7973625984251971
20
-4.1752935826771651
11
6.7973625984251971
21
-4.1977907480314958
0
LINE
8
BLACK
6
CONTINUOUS
10
6.7973625984251971
20
-4.1977907480314958
11
6.793613070866142
21
-4.205289803149606
0
LINE
8
BLACK
6
CONTINUOUS
10
6.793613070866142
20
-4.205289803149606
11
6.7898635433070869
21
-4.2090393700787399
0
LINE
8
BLACK
6
CONTINUOUS
10
6.7898635433070869
20
-4.2090393700787399
11
6.7823644881889766
21
-4.212788897637795
0
LINE
8
BLACK
6
CONTINUOUS
10
6.7823644881889766
20
-4.212788897637795
11
6.7711158661417326
21
-4.212788897637795
0
LINE
8
BLACK
6
CONTINUOUS
10
6.8423569685039372
20
-4.212788897637795
11
6.8348579133858269
21
-4.2090393700787399
0
LINE
8
BLACK
6
CONTINUOUS
10
6.8348579133858269
20
-4.2090393700787399
11
6.8311083858267718
21
-4.2015402755905509
0
LINE
8
BLACK
6
CONTINUOUS
10
6.8311083858267718
20
-4.2015402755905509
11
6.8311083858267718
21
-4.1340487401574801
0
LINE
8
BLACK
6
CONTINUOUS
10
6.9023494881889764
20
-4.2090393700787399
11
6.8948504330708662
21
-4.212788897637795
0
LINE
8
BLACK
6
CONTINUOUS
10
6.8948504330708662
20
-4.212788897637795
11
6.879852283464567
21
-4.212788897637795
0
LINE
8
BLACK
6
CONTINUOUS
10
6.879852283464567
20
-4.212788897637795
11
6.8723532283464568
21
-4.2090393700787399
0
LINE
8
BLACK
6
CONTINUOUS
10
6.8723532283464568
20
-4.2090393700787399
11
6.8686037007874017
21
-4.2015402755905509
0
LINE
8
BLACK
6
CONTINUOUS
10
6.8686037007874017
20
-4.2015402755905509
11
6.8686037007874017
21
-4.17154405511811
0
LINE
8
BLACK
6
CONTINUOUS
10
6.8686037007874017
20
-4.17154405511811
11
6.8723532283464568
21
-4.164044960629921
0
LINE
8
BLACK
6
CONTINUOUS
10
6.8723532283464568
20
-4.164044960629921
11
6.879852283464567
21
-4.1602954330708659
0
LINE
8
BLACK
6
CONTINUOUS
10
6.879852283464567
20
-4.1602954330708659
11
6.8948504330708662
21
-4.1602954330708659
0
LINE
8
BLACK
6
CONTINUOUS
10
6.8948504330708662
20
-4.1602954330708659
11
6.9023494881889764
21
-4.164044960629921
0
LINE
8
BLACK
6
CONTINUOUS
10
6.9023494881889764
20
-4.164044960629921
11
6.9060990157480315
21
-4.17154405511811
0
LINE
8
BLACK
6
CONTINUOUS
10
6.9060990157480315
20
-4.17154405511811
11
6.9060990157480315
21
-4.1790431102362202
0
LINE
8
BLACK
6
CONTINUOUS
10
6.9060990157480315
20
-4.1790431102362202
11
6.8686037007874017
21
-4.1865421653543304
0
LINE
8
BLACK
6
CONTINUOUS
10
6.9360952755905512
20
-4.2090393700787399
11
6.9435943307086614
21
-4.212788897637795
0
LINE
8
BLACK
6
CONTINUOUS
10
6.9435943307086614
20
-4.212788897637795
11
6.9585924409448818
21
-4.212788897637795
0
LINE
8
BLACK
6
CONTINUOUS
10
6.9585924409448818
20
-4.212788897637795
11
6.9660915354330708
21
-4.2090393700787399
0
LINE
8
BLACK
6
CONTINUOUS
10
6.9660915354330708
20
-4.2090393700787399
11
6.9698410629921259
21
-4.2015402755905509
0
LINE
8
BLACK
6
CONTINUOUS
10
6.9698410629921259
20
-4.2015402755905509
11
6.9698410629921259
21
-4.1977907480314958
0
LINE
8
BLACK
6
CONTINUOUS
10
6.9698410629921259
20
-4.1977907480314958
11
6.9660915354330708
21
-4.1902916929133855
0
LINE
8
BLACK
6
CONTINUOUS
10
6.9660915354330708
20
-4.1902916929133855
11
6.9585924409448818
21
-4.1865421653543304
0
LINE
8
BLACK
6
CONTINUOUS
10
6.9585924409448818
20
-4.1865421653543304
11
6.9473438582677165
21
-4.1865421653543304
0
LINE
8
BLACK
6
CONTINUOUS
10
6.9473438582677165
20
-4.1865421653543304
11
6.9398448031496063
21
-4.1827926377952753
0
LINE
8
BLACK
6
CONTINUOUS
10
6.9398448031496063
20
-4.1827926377952753
11
6.9360952755905512
21
-4.1752935826771651
0
LINE
8
BLACK
6
CONTINUOUS
10
6.9360952755905512
20
-4.1752935826771651
11
6.9360952755905512
21
-4.17154405511811
0
LINE
8
BLACK
6
CONTINUOUS
10
6.9360952755905512
20
-4.17154405511811
11
6.9398448031496063
21
-4.164044960629921
0
LINE
8
BLACK
6
CONTINUOUS
10
6.9398448031496063
20
-4.164044960629921
11
6.9473438582677165
21
-4.1602954330708659
0
LINE
8
BLACK
6
CONTINUOUS
10
6.9473438582677165
20
-4.1602954330708659
11
6.9585924409448818
21
-4.1602954330708659
0
LINE
8
BLACK
6
CONTINUOUS
10
6.9585924409448818
20
-4.1602954330708659
11
6.9660915354330708
21
-4.164044960629921
0
LINE
8
BLACK
6
CONTINUOUS
10
6.9960877952755904
20
-4.2427851181102358
11
6.9998373228346455
21
-4.2390355905511807
0
LINE
8
BLACK
6
CONTINUOUS
10
6.9998373228346455
20
-4.2390355905511807
11
7.0073363779527558
21
-4.2277870078740154
0
LINE
8
BLACK
6
CONTINUOUS
10
7.0073363779527558
20
-4.2277870078740154
11
7.0110859055118109
21
-4.2202879527559052
0
LINE
8
BLACK
6
CONTINUOUS
10
7.0110859055118109
20
-4.2202879527559052
11
7.014835433070866
21
-4.2090393700787399
0
LINE
8
BLACK
6
CONTINUOUS
10
7.014835433070866
20
-4.2090393700787399
11
7.0185849606299211
21
-4.1902916929133855
0
LINE
8
BLACK
6
CONTINUOUS
10
7.0185849606299211
20
-4.1902916929133855
11
7.0185849606299211
21
-4.1752935826771651
0
LINE
8
BLACK
6
CONTINUOUS
10
7.0185849606299211
20
-4.1752935826771651
11
7.014835433070866
21
-4.1565459055118108
0
LINE
8
BLACK
6
CONTINUOUS
10
7.014835433070866
20
-4.1565459055118108
11
7.0110859055118109
21
-4.1452973228346455
0
LINE
8
BLACK
6
CONTINUOUS
10
7.0110859055118109
20
-4.1452973228346455
11
7.0073363779527558
21
-4.1377982677165352
0
LINE
8
BLACK
6
CONTINUOUS
10
7.0073363779527558
20
-4.1377982677165352
11
6.9998373228346455
21
-4.1265496456692912
0
LINE
8
BLACK
6
CONTINUOUS
10
6.9998373228346455
20
-4.1265496456692912
11
6.9960877952755904
21
-4.1228001181102361
0
LINE
8
BLACK
6
CONTINUOUS
10
5.0964566929133861
20
-4.2610236220472437
11
5.0964566929133861
21
-4.3003937007874011
0
LINE
8
BLACK
6
CONTINUOUS
10
5.0767716535433074
20
-4.2807086614173224
11
5.1161417322834648
21
-4.2807086614173224
0
LINE
8
BLACK
6
CONTINUOUS
10
5.2600546062992128
20
-4.3167259055118112
11
5.2150602362204719
21
-4.3167259055118112
0
LINE
8
BLACK
6
CONTINUOUS
10
5.2375574015748034
20
-4.3167259055118112
11
5.2375574015748034
21
-4.2379857480314955
0
LINE
8
BLACK
6
CONTINUOUS
10
5.2375574015748034
20
-4.2379857480314955
11
5.2300583464566932
21
-4.2492343307086617
0
LINE
8
BLACK
6
CONTINUOUS
10
5.2300583464566932
20
-4.2492343307086617
11
5.222559291338583
21
-4.256733385826772
0
LINE
8
BLACK
6
CONTINUOUS
10
5.222559291338583
20
-4.256733385826772
11
5.2150602362204719
21
-4.2604829133858271
0
LINE
8
BLACK
6
CONTINUOUS
10
5.2938003937007876
20
-4.3092268110236223
11
5.2975499212598427
21
-4.3129763779527561
0
LINE
8
BLACK
6
CONTINUOUS
10
5.2975499212598427
20
-4.3129763779527561
11
5.2938003937007876
21
-4.3167259055118112
0
LINE
8
BLACK
6
CONTINUOUS
10
5.2938003937007876
20
-4.3167259055118112
11
5.2900508661417325
21
-4.3129763779527561
0
LINE
8
BLACK
6
CONTINUOUS
10
5.2900508661417325
20
-4.3129763779527561
11
5.2938003937007876
21
-4.3092268110236223
0
LINE
8
BLACK
6
CONTINUOUS
10
5.2938003937007876
20
-4.3092268110236223
11
5.2938003937007876
21
-4.3167259055118112
0
LINE
8
BLACK
6
CONTINUOUS
10
5.3462938188976379
20
-4.2379857480314955
11
5.3537929133858269
21
-4.2379857480314955
0
LINE
8
BLACK
6
CONTINUOUS
10
5.3537929133858269
20
-4.2379857480314955
11
5.3612919685039371
21
-4.2417352755905515
0
LINE
8
BLACK
6
CONTINUOUS
10
5.3612919685039371
20
-4.2417352755905515
11
5.3650414960629922
21
-4.2454848031496066
0
LINE
8
BLACK
6
CONTINUOUS
10
5.3650414960629922
20
-4.2454848031496066
11
5.3687910236220473
21
-4.2529838582677169
0
LINE
8
BLACK
6
CONTINUOUS
10
5.3687910236220473
20
-4.2529838582677169
11
5.3725405511811024
21
-4.2679819685039373
0
LINE
8
BLACK
6
CONTINUOUS
10
5.3725405511811024
20
-4.2679819685039373
11
5.3725405511811024
21
-4.2867296456692916
0
LINE
8
BLACK
6
CONTINUOUS
10
5.3725405511811024
20
-4.2867296456692916
11
5.3687910236220473
21
-4.301727755905512
0
LINE
8
BLACK
6
CONTINUOUS
10
5.3687910236220473
20
-4.301727755905512
11
5.3650414960629922
21
-4.3092268110236223
0
LINE
8
BLACK
6
CONTINUOUS
10
5.3650414960629922
20
-4.3092268110236223
11
5.3612919685039371
21
-4.3129763779527561
0
LINE
8
BLACK
6
CONTINUOUS
10
5.3612919685039371
20
-4.3129763779527561
11
5.3537929133858269
21
-4.3167259055118112
0
LINE
8
BLACK
6
CONTINUOUS
10
5.3537929133858269
20
-4.3167259055118112
11
5.3462938188976379
21
-4.3167259055118112
0
LINE
8
BLACK
6
CONTINUOUS
10
5.3462938188976379
20
-4.3167259055118112
11
5.3387947637795277
21
-4.3129763779527561
0
LINE
8
BLACK
6
CONTINUOUS
10
5.3387947637795277
20
-4.3129763779527561
11
5.3350452362204726
21
-4.3092268110236223
0
LINE
8
BLACK
6
CONTINUOUS
10
5.3350452362204726
20
-4.3092268110236223
11
5.3312957086614174
21
-4.301727755905512
0
LINE
8
BLACK
6
CONTINUOUS
10
5.3312957086614174
20
-4.301727755905512
11
5.3275461811023623
21
-4.2867296456692916
0
LINE
8
BLACK
6
CONTINUOUS
10
5.3275461811023623
20
-4.2867296456692916
11
5.3275461811023623
21
-4.2679819685039373
0
LINE
8
BLACK
6
CONTINUOUS
10
5.3275461811023623
20
-4.2679819685039373
11
5.3312957086614174
21
-4.2529838582677169
0
LINE
8
BLACK
6
CONTINUOUS
10
5.3312957086614174
20
-4.2529838582677169
11
5.3350452362204726
21
-4.2454848031496066
0
LINE
8
BLACK
6
CONTINUOUS
10
5.3350452362204726
20
-4.2454848031496066
11
5.3387947637795277
21
-4.2417352755905515
0
LINE
8
BLACK
6
CONTINUOUS
10
5.3387947637795277
20
-4.2417352755905515
11
5.3462938188976379
21
-4.2379857480314955
0
LINE
8
BLACK
6
CONTINUOUS
10
5.4212844488188976
20
-4.2379857480314955
11
5.4287835433070866
21
-4.2379857480314955
0
LINE
8
BLACK
6
CONTINUOUS
10
5.4287835433070866
20
-4.2379857480314955
11
5.4362825984251968
21
-4.2417352755905515
0
LINE
8
BLACK
6
CONTINUOUS
10
5.4362825984251968
20
-4.2417352755905515
11
5.4400321259842519
21
-4.2454848031496066
0
LINE
8
BLACK
6
CONTINUOUS
10
5.4400321259842519
20
-4.2454848031496066
11
5.443781653543307
21
-4.2529838582677169
0
LINE
8
BLACK
6
CONTINUOUS
10
5.443781653543307
20
-4.2529838582677169
11
5.4475311811023621
21
-4.2679819685039373
0
LINE
8
BLACK
6
CONTINUOUS
10
5.4475311811023621
20
-4.2679819685039373
11
5.4475311811023621
21
-4.2867296456692916
0
LINE
8
BLACK
6
CONTINUOUS
10
5.4475311811023621
20
-4.2867296456692916
11
5.443781653543307
21
-4.301727755905512
0
LINE
8
BLACK
6
CONTINUOUS
10
5.443781653543307
20
-4.301727755905512
11
5.4400321259842519
21
-4.3092268110236223
0
LINE
8
BLACK
6
CONTINUOUS
10
5.4400321259842519
20
-4.3092268110236223
11
5.4362825984251968
21
-4.3129763779527561
0
LINE
8
BLACK
6
CONTINUOUS
10
5.4362825984251968
20
-4.3129763779527561
11
5.4287835433070866
21
-4.3167259055118112
0
LINE
8
BLACK
6
CONTINUOUS
10
5.4287835433070866
20
-4.3167259055118112
11
5.4212844488188976
21
-4.3167259055118112
0
LINE
8
BLACK
6
CONTINUOUS
10
5.4212844488188976
20
-4.3167259055118112
11
5.4137853937007874
21
-4.3129763779527561
0
LINE
8
BLACK
6
CONTINUOUS
10
5.4137853937007874
20
-4.3129763779527561
11
5.4100358661417323
21
-4.3092268110236223
0
LINE
8
BLACK
6
CONTINUOUS
10
5.4100358661417323
20
-4.3092268110236223
11
5.4062863385826772
21
-4.301727755905512
0
LINE
8
BLACK
6
CONTINUOUS
10
5.4062863385826772
20
-4.301727755905512
11
5.402536811023622
21
-4.2867296456692916
0
LINE
8
BLACK
6
CONTINUOUS
10
5.402536811023622
20
-4.2867296456692916
11
5.402536811023622
21
-4.2679819685039373
0
LINE
8
BLACK
6
CONTINUOUS
10
5.402536811023622
20
-4.2679819685039373
11
5.4062863385826772
21
-4.2529838582677169
0
LINE
8
BLACK
6
CONTINUOUS
10
5.4062863385826772
20
-4.2529838582677169
11
5.4100358661417323
21
-4.2454848031496066
0
LINE
8
BLACK
6
CONTINUOUS
10
5.4100358661417323
20
-4.2454848031496066
11
5.4137853937007874
21
-4.2417352755905515
0
LINE
8
BLACK
6
CONTINUOUS
10
5.4137853937007874
20
-4.2417352755905515
11
5.4212844488188976
21
-4.2379857480314955
0
LINE
8
BLACK
6
CONTINUOUS
10
5.4962750787401573
20
-4.2379857480314955
11
5.5037741732283463
21
-4.2379857480314955
0
LINE
8
BLACK
6
CONTINUOUS
10
5.5037741732283463
20
-4.2379857480314955
11
5.5112732283464565
21
-4.2417352755905515
0
LINE
8
BLACK
6
CONTINUOUS
10
5.5112732283464565
20
-4.2417352755905515
11
5.5150227559055116
21
-4.2454848031496066
0
LINE
8
BLACK
6
CONTINUOUS
10
5.5150227559055116
20
-4.2454848031496066
11
5.5187722834645667
21
-4.2529838582677169
0
LINE
8
BLACK
6
CONTINUOUS
10
5.5187722834645667
20
-4.2529838582677169
11
5.5225218110236218
21
-4.2679819685039373
0
LINE
8
BLACK
6
CONTINUOUS
10
5.5225218110236218
20
-4.2679819685039373
11
5.5225218110236218
21
-4.2867296456692916
0
LINE
8
BLACK
6
CONTINUOUS
10
5.5225218110236218
20
-4.2867296456692916
11
5.5187722834645667
21
-4.301727755905512
0
LINE
8
BLACK
6
CONTINUOUS
10
5.5187722834645667
20
-4.301727755905512
11
5.5150227559055116
21
-4.3092268110236223
0
LINE
8
BLACK
6
CONTINUOUS
10
5.5150227559055116
20
-4.3092268110236223
11
5.5112732283464565
21
-4.3129763779527561
0
LINE
8
BLACK
6
CONTINUOUS
10
5.5112732283464565
20
-4.3129763779527561
11
5.5037741732283463
21
-4.3167259055118112
0
LINE
8
BLACK
6
CONTINUOUS
10
5.5037741732283463
20
-4.3167259055118112
11
5.4962750787401573
21
-4.3167259055118112
0
LINE
8
BLACK
6
CONTINUOUS
10
5.4962750787401573
20
-4.3167259055118112
11
5.4887760236220471
21
-4.3129763779527561
0
LINE
8
BLACK
6
CONTINUOUS
10
5.4887760236220471
20
-4.3129763779527561
11
5.485026496062992
21
-4.3092268110236223
0
LINE
8
BLACK
6
CONTINUOUS
10
5.485026496062992
20
-4.3092268110236223
11
5.4812769685039369
21
-4.301727755905512
0
LINE
8
BLACK
6
CONTINUOUS
10
5.4812769685039369
20
-4.301727755905512
11
5.4775274409448818
21
-4.2867296456692916
0
LINE
8
BLACK
6
CONTINUOUS
10
5.4775274409448818
20
-4.2867296456692916
11
5.4775274409448818
21
-4.2679819685039373
0
LINE
8
BLACK
6
CONTINUOUS
10
5.4775274409448818
20
-4.2679819685039373
11
5.4812769685039369
21
-4.2529838582677169
0
LINE
8
BLACK
6
CONTINUOUS
10
5.4812769685039369
20
-4.2529838582677169
11
5.485026496062992
21
-4.2454848031496066
0
LINE
8
BLACK
6
CONTINUOUS
10
5.485026496062992
20
-4.2454848031496066
11
5.4887760236220471
21
-4.2417352755905515
0
LINE
8
BLACK
6
CONTINUOUS
10
5.4887760236220471
20
-4.2417352755905515
11
5.4962750787401573
21
-4.2379857480314955
0
LINE
8
BLACK
6
CONTINUOUS
10
5.5562675984251966
20
-4.3167259055118112
11
5.5562675984251966
21
-4.2642324409448822
0
LINE
8
BLACK
6
CONTINUOUS
10
5.5562675984251966
20
-4.2717314960629924
11
5.5600171259842517
21
-4.2679819685039373
0
LINE
8
BLACK
6
CONTINUOUS
10
5.5600171259842517
20
-4.2679819685039373
11
5.5675161811023619
21
-4.2642324409448822
0
LINE
8
BLACK
6
CONTINUOUS
10
5.5675161811023619
20
-4.2642324409448822
11
5.578764803149606
21
-4.2642324409448822
0
LINE
8
BLACK
6
CONTINUOUS
10
5.578764803149606
20
-4.2642324409448822
11
5.5862638582677162
21
-4.2679819685039373
0
LINE
8
BLACK
6
CONTINUOUS
10
5.5862638582677162
20
-4.2679819685039373
11
5.5900133858267713
21
-4.2754810629921263
0
LINE
8
BLACK
6
CONTINUOUS
10
5.5900133858267713
20
-4.2754810629921263
11
5.5900133858267713
21
-4.3167259055118112
0
LINE
8
BLACK
6
CONTINUOUS
10
5.5900133858267713
20
-4.2754810629921263
11
5.5937629133858264
21
-4.2679819685039373
0
LINE
8
BLACK
6
CONTINUOUS
10
5.5937629133858264
20
-4.2679819685039373
11
5.6012619685039367
21
-4.2642324409448822
0
LINE
8
BLACK
6
CONTINUOUS
10
5.6012619685039367
20
-4.2642324409448822
11
5.612510551181102
21
-4.2642324409448822
0
LINE
8
BLACK
6
CONTINUOUS
10
5.612510551181102
20
-4.2642324409448822
11
5.620009645669291
21
-4.2679819685039373
0
LINE
8
BLACK
6
CONTINUOUS
10
5.620009645669291
20
-4.2679819685039373
11
5.6237591732283461
21
-4.2754810629921263
0
LINE
8
BLACK
6
CONTINUOUS
10
5.6237591732283461
20
-4.2754810629921263
11
5.6237591732283461
21
-4.3167259055118112
0
LINE
8
BLACK
6
CONTINUOUS
10
5.6612544881889759
20
-4.3167259055118112
11
5.6612544881889759
21
-4.2642324409448822
0
LINE
8
BLACK
6
CONTINUOUS
10
5.6612544881889759
20
-4.2717314960629924
11
5.665004015748031
21
-4.2679819685039373
0
LINE
8
BLACK
6
CONTINUOUS
10
5.665004015748031
20
-4.2679819685039373
11
5.6725030708661413
21
-4.2642324409448822
0
LINE
8
BLACK
6
CONTINUOUS
10
5.6725030708661413
20
-4.2642324409448822
11
5.6837516929133853
21
-4.2642324409448822
0
LINE
8
BLACK
6
CONTINUOUS
10
5.6837516929133853
20
-4.2642324409448822
11
5.6912507480314956
21
-4.2679819685039373
0
LINE
8
BLACK
6
CONTINUOUS
10
5.6912507480314956
20
-4.2679819685039373
11
5.6950002755905507
21
-4.2754810629921263
0
LINE
8
BLACK
6
CONTINUOUS
10
5.6950002755905507
20
-4.2754810629921263
11
5.6950002755905507
21
-4.3167259055118112
0
LINE
8
BLACK
6
CONTINUOUS
10
5.6950002755905507
20
-4.2754810629921263
11
5.6987498031496058
21
-4.2679819685039373
0
LINE
8
BLACK
6
CONTINUOUS
10
5.6987498031496058
20
-4.2679819685039373
11
5.706248858267716
21
-4.2642324409448822
0
LINE
8
BLACK
6
CONTINUOUS
10
5.706248858267716
20
-4.2642324409448822
11
5.7174974409448813
21
-4.2642324409448822
0
LINE
8
BLACK
6
CONTINUOUS
10
5.7174974409448813
20
-4.2642324409448822
11
5.7249965354330703
21
-4.2679819685039373
0
LINE
8
BLACK
6
CONTINUOUS
10
5.7249965354330703
20
-4.2679819685039373
11
5.7287460629921263
21
-4.2754810629921263
0
LINE
8
BLACK
6
CONTINUOUS
10
5.7287460629921263
20
-4.2754810629921263
11
5.7287460629921263
21
-4.3167259055118112
0
LINE
8
BLACK
6
CONTINUOUS
10
5.8824768503937008
20
-4.2342362204724404
11
5.8149853149606301
21
-4.3354735433070868
0
LINE
8
BLACK
6
CONTINUOUS
10
5.9837142125984251
20
-4.2379857480314955
11
5.991213307086614
21
-4.2379857480314955
0
LINE
8
BLACK
6
CONTINUOUS
10
5.991213307086614
20
-4.2379857480314955
11
5.9987123622047243
21
-4.2417352755905515
0
LINE
8
BLACK
6
CONTINUOUS
10
5.9987123622047243
20
-4.2417352755905515
11
6.0024618897637794
21
-4.2454848031496066
0
LINE
8
BLACK
6
CONTINUOUS
10
6.0024618897637794
20
-4.2454848031496066
11
6.0062114173228345
21
-4.2529838582677169
0
LINE
8
BLACK
6
CONTINUOUS
10
6.0062114173228345
20
-4.2529838582677169
11
6.0099609448818896
21
-4.2679819685039373
0
LINE
8
BLACK
6
CONTINUOUS
10
6.0099609448818896
20
-4.2679819685039373
11
6.0099609448818896
21
-4.2867296456692916
0
LINE
8
BLACK
6
CONTINUOUS
10
6.0099609448818896
20
-4.2867296456692916
11
6.0062114173228345
21
-4.301727755905512
0
LINE
8
BLACK
6
CONTINUOUS
10
6.0062114173228345
20
-4.301727755905512
11
6.0024618897637794
21
-4.3092268110236223
0
LINE
8
BLACK
6
CONTINUOUS
10
6.0024618897637794
20
-4.3092268110236223
11
5.9987123622047243
21
-4.3129763779527561
0
LINE
8
BLACK
6
CONTINUOUS
10
5.9987123622047243
20
-4.3129763779527561
11
5.991213307086614
21
-4.3167259055118112
0
LINE
8
BLACK
6
CONTINUOUS
10
5.991213307086614
20
-4.3167259055118112
11
5.9837142125984251
21
-4.3167259055118112
0
LINE
8
BLACK
6
CONTINUOUS
10
5.9837142125984251
20
-4.3167259055118112
11
5.9762151574803148
21
-4.3129763779527561
0
LINE
8
BLACK
6
CONTINUOUS
10
5.9762151574803148
20
-4.3129763779527561
11
5.9724656299212597
21
-4.3092268110236223
0
LINE
8
BLACK
6
CONTINUOUS
10
5.9724656299212597
20
-4.3092268110236223
11
5.9687161023622046
21
-4.301727755905512
0
LINE
8
BLACK
6
CONTINUOUS
10
5.9687161023622046
20
-4.301727755905512
11
5.9649665748031495
21
-4.2867296456692916
0
LINE
8
BLACK
6
CONTINUOUS
10
5.9649665748031495
20
-4.2867296456692916
11
5.9649665748031495
21
-4.2679819685039373
0
LINE
8
BLACK
6
CONTINUOUS
10
5.9649665748031495
20
-4.2679819685039373
11
5.9687161023622046
21
-4.2529838582677169
0
LINE
8
BLACK
6
CONTINUOUS
10
5.9687161023622046
20
-4.2529838582677169
11
5.9724656299212597
21
-4.2454848031496066
0
LINE
8
BLACK
6
CONTINUOUS
10
5.9724656299212597
20
-4.2454848031496066
11
5.9762151574803148
21
-4.2417352755905515
0
LINE
8
BLACK
6
CONTINUOUS
10
5.9762151574803148
20
-4.2417352755905515
11
5.9837142125984251
21
-4.2379857480314955
0
LINE
8
BLACK
6
CONTINUOUS
10
6.0437067322834643
20
-4.3092268110236223
11
6.0474562598425194
21
-4.3129763779527561
0
LINE
8
BLACK
6
CONTINUOUS
10
6.0474562598425194
20
-4.3129763779527561
11
6.0437067322834643
21
-4.3167259055118112
0
LINE
8
BLACK
6
CONTINUOUS
10
6.0437067322834643
20
-4.3167259055118112
11
6.0399572047244092
21
-4.3129763779527561
0
LINE
8
BLACK
6
CONTINUOUS
10
6.0399572047244092
20
-4.3129763779527561
11
6.0437067322834643
21
-4.3092268110236223
0
LINE
8
BLACK
6
CONTINUOUS
10
6.0437067322834643
20
-4.3092268110236223
11
6.0437067322834643
21
-4.3167259055118112
0
LINE
8
BLACK
6
CONTINUOUS
10
6.0962001574803146
20
-4.2379857480314955
11
6.1036992519685036
21
-4.2379857480314955
0
LINE
8
BLACK
6
CONTINUOUS
10
6.1036992519685036
20
-4.2379857480314955
11
6.1111983070866138
21
-4.2417352755905515
0
LINE
8
BLACK
6
CONTINUOUS
10
6.1111983070866138
20
-4.2417352755905515
11
6.1149478346456689
21
-4.2454848031496066
0
LINE
8
BLACK
6
CONTINUOUS
10
6.1149478346456689
20
-4.2454848031496066
11
6.118697362204724
21
-4.2529838582677169
0
LINE
8
BLACK
6
CONTINUOUS
10
6.118697362204724
20
-4.2529838582677169
11
6.1224468897637792
21
-4.2679819685039373
0
LINE
8
BLACK
6
CONTINUOUS
10
6.1224468897637792
20
-4.2679819685039373
11
6.1224468897637792
21
-4.2867296456692916
0
LINE
8
BLACK
6
CONTINUOUS
10
6.1224468897637792
20
-4.2867296456692916
11
6.118697362204724
21
-4.301727755905512
0
LINE
8
BLACK
6
CONTINUOUS
10
6.118697362204724
20
-4.301727755905512
11
6.1149478346456689
21
-4.3092268110236223
0
LINE
8
BLACK
6
CONTINUOUS
10
6.1149478346456689
20
-4.3092268110236223
11
6.1111983070866138
21
-4.3129763779527561
0
LINE
8
BLACK
6
CONTINUOUS
10
6.1111983070866138
20
-4.3129763779527561
11
6.1036992519685036
21
-4.3167259055118112
0
LINE
8
BLACK
6
CONTINUOUS
10
6.1036992519685036
20
-4.3167259055118112
11
6.0962001574803146
21
-4.3167259055118112
0
LINE
8
BLACK
6
CONTINUOUS
10
6.0962001574803146
20
-4.3167259055118112
11
6.0887011023622044
21
-4.3129763779527561
0
LINE
8
BLACK
6
CONTINUOUS
10
6.0887011023622044
20
-4.3129763779527561
11
6.0849515748031493
21
-4.3092268110236223
0
LINE
8
BLACK
6
CONTINUOUS
10
6.0849515748031493
20
-4.3092268110236223
11
6.0812020472440942
21
-4.301727755905512
0
LINE
8
BLACK
6
CONTINUOUS
10
6.0812020472440942
20
-4.301727755905512
11
6.0774525196850391
21
-4.2867296456692916
0
LINE
8
BLACK
6
CONTINUOUS
10
6.0774525196850391
20
-4.2867296456692916
11
6.0774525196850391
21
-4.2679819685039373
0
LINE
8
BLACK
6
CONTINUOUS
10
6.0774525196850391
20
-4.2679819685039373
11
6.0812020472440942
21
-4.2529838582677169
0
LINE
8
BLACK
6
CONTINUOUS
10
6.0812020472440942
20
-4.2529838582677169
11
6.0849515748031493
21
-4.2454848031496066
0
LINE
8
BLACK
6
CONTINUOUS
10
6.0849515748031493
20
-4.2454848031496066
11
6.0887011023622044
21
-4.2417352755905515
0
LINE
8
BLACK
6
CONTINUOUS
10
6.0887011023622044
20
-4.2417352755905515
11
6.0962001574803146
21
-4.2379857480314955
0
LINE
8
BLACK
6
CONTINUOUS
10
6.1486936220472437
20
-4.2379857480314955
11
6.1974375196850389
21
-4.2379857480314955
0
LINE
8
BLACK
6
CONTINUOUS
10
6.1974375196850389
20
-4.2379857480314955
11
6.1711907874015743
21
-4.2679819685039373
0
LINE
8
BLACK
6
CONTINUOUS
10
6.1711907874015743
20
-4.2679819685039373
11
6.1824394094488184
21
-4.2679819685039373
0
LINE
8
BLACK
6
CONTINUOUS
10
6.1824394094488184
20
-4.2679819685039373
11
6.1899384645669286
21
-4.2717314960629924
0
LINE
8
BLACK
6
CONTINUOUS
10
6.1899384645669286
20
-4.2717314960629924
11
6.1936879921259838
21
-4.2754810629921263
0
LINE
8
BLACK
6
CONTINUOUS
10
6.1936879921259838
20
-4.2754810629921263
11
6.1974375196850389
21
-4.2829801181102365
0
LINE
8
BLACK
6
CONTINUOUS
10
6.1974375196850389
20
-4.2829801181102365
11
6.1974375196850389
21
-4.301727755905512
0
LINE
8
BLACK
6
CONTINUOUS
10
6.1974375196850389
20
-4.301727755905512
11
6.1936879921259838
21
-4.3092268110236223
0
LINE
8
BLACK
6
CONTINUOUS
10
6.1936879921259838
20
-4.3092268110236223
11
6.1899384645669286
21
-4.3129763779527561
0
LINE
8
BLACK
6
CONTINUOUS
10
6.1899384645669286
20
-4.3129763779527561
11
6.1824394094488184
21
-4.3167259055118112
0
LINE
8
BLACK
6
CONTINUOUS
10
6.1824394094488184
20
-4.3167259055118112
11
6.159942204724409
21
-4.3167259055118112
0
LINE
8
BLACK
6
CONTINUOUS
10
6.159942204724409
20
-4.3167259055118112
11
6.1524431496062988
21
-4.3129763779527561
0
LINE
8
BLACK
6
CONTINUOUS
10
6.1524431496062988
20
-4.3129763779527561
11
6.1486936220472437
21
-4.3092268110236223
0
LINE
8
BLACK
6
CONTINUOUS
10
6.2349328346456687
20
-4.3167259055118112
11
6.24993094488189
21
-4.3167259055118112
0
LINE
8
BLACK
6
CONTINUOUS
10
6.24993094488189
20
-4.3167259055118112
11
6.257430039370079
21
-4.3129763779527561
0
LINE
8
BLACK
6
CONTINUOUS
10
6.257430039370079
20
-4.3129763779527561
11
6.2611795669291341
21
-4.3092268110236223
0
LINE
8
BLACK
6
CONTINUOUS
10
6.2611795669291341
20
-4.3092268110236223
11
6.2686786220472444
21
-4.2979782283464569
0
LINE
8
BLACK
6
CONTINUOUS
10
6.2686786220472444
20
-4.2979782283464569
11
6.2724281496062995
21
-4.2829801181102365
0
LINE
8
BLACK
6
CONTINUOUS
10
6.2724281496062995
20
-4.2829801181102365
11
6.2724281496062995
21
-4.2529838582677169
0
LINE
8
BLACK
6
CONTINUOUS
10
6.2724281496062995
20
-4.2529838582677169
11
6.2686786220472444
21
-4.2454848031496066
0
LINE
8
BLACK
6
CONTINUOUS
10
6.2686786220472444
20
-4.2454848031496066
11
6.2649290944881892
21
-4.2417352755905515
0
LINE
8
BLACK
6
CONTINUOUS
10
6.2649290944881892
20
-4.2417352755905515
11
6.257430039370079
21
-4.2379857480314955
0
LINE
8
BLACK
6
CONTINUOUS
10
6.257430039370079
20
-4.2379857480314955
11
6.2424318897637798
21
-4.2379857480314955
0
LINE
8
BLACK
6
CONTINUOUS
10
6.2424318897637798
20
-4.2379857480314955
11
6.2349328346456687
21
-4.2417352755905515
0
LINE
8
BLACK
6
CONTINUOUS
10
6.2349328346456687
20
-4.2417352755905515
11
6.2311833070866136
21
-4.2454848031496066
0
LINE
8
BLACK
6
CONTINUOUS
10
6.2311833070866136
20
-4.2454848031496066
11
6.2274337795275585
21
-4.2529838582677169
0
LINE
8
BLACK
6
CONTINUOUS
10
6.2274337795275585
20
-4.2529838582677169
11
6.2274337795275585
21
-4.2717314960629924
0
LINE
8
BLACK
6
CONTINUOUS
10
6.2274337795275585
20
-4.2717314960629924
11
6.2311833070866136
21
-4.2792305905511814
0
LINE
8
BLACK
6
CONTINUOUS
10
6.2311833070866136
20
-4.2792305905511814
11
6.2349328346456687
21
-4.2829801181102365
0
LINE
8
BLACK
6
CONTINUOUS
10
6.2349328346456687
20
-4.2829801181102365
11
6.2424318897637798
21
-4.2867296456692916
0
LINE
8
BLACK
6
CONTINUOUS
10
6.2424318897637798
20
-4.2867296456692916
11
6.257430039370079
21
-4.2867296456692916
0
LINE
8
BLACK
6
CONTINUOUS
10
6.257430039370079
20
-4.2867296456692916
11
6.2649290944881892
21
-4.2829801181102365
0
LINE
8
BLACK
6
CONTINUOUS
10
6.2649290944881892
20
-4.2829801181102365
11
6.2686786220472444
21
-4.2792305905511814
0
LINE
8
BLACK
6
CONTINUOUS
10
6.2686786220472444
20
-4.2792305905511814
11
6.2724281496062995
21
-4.2717314960629924
0
LINE
8
BLACK
6
CONTINUOUS
10
6.339919724409449
20
-4.2642324409448822
11
6.339919724409449
21
-4.3167259055118112
0
LINE
8
BLACK
6
CONTINUOUS
10
6.3211720472440946
20
-4.2342362204724404
11
6.3024244094488191
21
-4.2904791732283467
0
LINE
8
BLACK
6
CONTINUOUS
10
6.3024244094488191
20
-4.2904791732283467
11
6.3511683070866143
21
-4.2904791732283467
0
LINE
8
BLACK
6
CONTINUOUS
10
6.3774150393700788
20
-4.2379857480314955
11
6.3774150393700788
21
-4.2529838582677169
0
LINE
8
BLACK
6
CONTINUOUS
10
6.4074112992125984
20
-4.2379857480314955
11
6.4074112992125984
21
-4.2529838582677169
0
LINE
8
BLACK
6
CONTINUOUS
10
6.5236468110236219
20
-4.3467221259842521
11
6.519897244094488
21
-4.342972598425197
0
LINE
8
BLACK
6
CONTINUOUS
10
6.519897244094488
20
-4.342972598425197
11
6.5123981889763778
21
-4.3317240157480317
0
LINE
8
BLACK
6
CONTINUOUS
10
6.5123981889763778
20
-4.3317240157480317
11
6.5086486614173227
21
-4.3242249606299215
0
LINE
8
BLACK
6
CONTINUOUS
10
6.5086486614173227
20
-4.3242249606299215
11
6.5048991338582676
21
-4.3129763779527561
0
LINE
8
BLACK
6
CONTINUOUS
10
6.5048991338582676
20
-4.3129763779527561
11
6.5011496062992125
21
-4.2942287007874018
0
LINE
8
BLACK
6
CONTINUOUS
10
6.5011496062992125
20
-4.2942287007874018
11
6.5011496062992125
21
-4.2792305905511814
0
LINE
8
BLACK
6
CONTINUOUS
10
6.5011496062992125
20
-4.2792305905511814
11
6.5048991338582676
21
-4.2604829133858271
0
LINE
8
BLACK
6
CONTINUOUS
10
6.5048991338582676
20
-4.2604829133858271
11
6.5086486614173227
21
-4.2492343307086617
0
LINE
8
BLACK
6
CONTINUOUS
10
6.5086486614173227
20
-4.2492343307086617
11
6.5123981889763778
21
-4.2417352755905515
0
LINE
8
BLACK
6
CONTINUOUS
10
6.5123981889763778
20
-4.2417352755905515
11
6.519897244094488
21
-4.2304866535433066
0
LINE
8
BLACK
6
CONTINUOUS
10
6.519897244094488
20
-4.2304866535433066
11
6.5236468110236219
21
-4.2267371259842514
0
LINE
8
BLACK
6
CONTINUOUS
10
6.5873888188976375
20
-4.2642324409448822
11
6.5873888188976375
21
-4.3167259055118112
0
LINE
8
BLACK
6
CONTINUOUS
10
6.5686411417322832
20
-4.2342362204724404
11
6.5498935039370076
21
-4.2904791732283467
0
LINE
8
BLACK
6
CONTINUOUS
10
6.5498935039370076
20
-4.2904791732283467
11
6.5986374015748028
21
-4.2904791732283467
0
LINE
8
BLACK
6
CONTINUOUS
10
6.6886261811023617
20
-4.3167259055118112
11
6.6886261811023617
21
-4.2379857480314955
0
LINE
8
BLACK
6
CONTINUOUS
10
6.7223719685039365
20
-4.3167259055118112
11
6.7223719685039365
21
-4.2754810629921263
0
LINE
8
BLACK
6
CONTINUOUS
10
6.7223719685039365
20
-4.2754810629921263
11
6.7186224409448814
21
-4.2679819685039373
0
LINE
8
BLACK
6
CONTINUOUS
10
6.7186224409448814
20
-4.2679819685039373
11
6.7111233858267711
21
-4.2642324409448822
0
LINE
8
BLACK
6
CONTINUOUS
10
6.7111233858267711
20
-4.2642324409448822
11
6.6998747637795271
21
-4.2642324409448822
0
LINE
8
BLACK
6
CONTINUOUS
10
6.6998747637795271
20
-4.2642324409448822
11
6.6923757086614168
21
-4.2679819685039373
0
LINE
8
BLACK
6
CONTINUOUS
10
6.6923757086614168
20
-4.2679819685039373
11
6.6886261811023617
21
-4.2717314960629924
0
LINE
8
BLACK
6
CONTINUOUS
10
6.7711158661417326
20
-4.3167259055118112
11
6.7636168110236223
21
-4.3129763779527561
0
LINE
8
BLACK
6
CONTINUOUS
10
6.7636168110236223
20
-4.3129763779527561
11
6.7598672834645663
21
-4.3092268110236223
0
LINE
8
BLACK
6
CONTINUOUS
10
6.7598672834645663
20
-4.3092268110236223
11
6.7561177559055112
21
-4.301727755905512
0
LINE
8
BLACK
6
CONTINUOUS
10
6.7561177559055112
20
-4.301727755905512
11
6.7561177559055112
21
-4.2792305905511814
0
LINE
8
BLACK
6
CONTINUOUS
10
6.7561177559055112
20
-4.2792305905511814
11
6.7598672834645663
21
-4.2717314960629924
0
LINE
8
BLACK
6
CONTINUOUS
10
6.7598672834645663
20
-4.2717314960629924
11
6.7636168110236223
21
-4.2679819685039373
0
LINE
8
BLACK
6
CONTINUOUS
10
6.7636168110236223
20
-4.2679819685039373
11
6.7711158661417326
21
-4.2642324409448822
0
LINE
8
BLACK
6
CONTINUOUS
10
6.7711158661417326
20
-4.2642324409448822
11
6.7823644881889766
21
-4.2642324409448822
0
LINE
8
BLACK
6
CONTINUOUS
10
6.7823644881889766
20
-4.2642324409448822
11
6.7898635433070869
21
-4.2679819685039373
0
LINE
8
BLACK
6
CONTINUOUS
10
6.7898635433070869
20
-4.2679819685039373
11
6.793613070866142
21
-4.2717314960629924
0
LINE
8
BLACK
6
CONTINUOUS
10
6.793613070866142
20
-4.2717314960629924
11
6.7973625984251971
21
-4.2792305905511814
0
LINE
8
BLACK
6
CONTINUOUS
10
6.7973625984251971
20
-4.2792305905511814
11
6.7973625984251971
21
-4.301727755905512
0
LINE
8
BLACK
6
CONTINUOUS
10
6.7973625984251971
20
-4.301727755905512
11
6.793613070866142
21
-4.3092268110236223
0
LINE
8
BLACK
6
CONTINUOUS
10
6.793613070866142
20
-4.3092268110236223
11
6.7898635433070869
21
-4.3129763779527561
0
LINE
8
BLACK
6
CONTINUOUS
10
6.7898635433070869
20
-4.3129763779527561
11
6.7823644881889766
21
-4.3167259055118112
0
LINE
8
BLACK
6
CONTINUOUS
10
6.7823644881889766
20
-4.3167259055118112
11
6.7711158661417326
21
-4.3167259055118112
0
LINE
8
BLACK
6
CONTINUOUS
10
6.8423569685039372
20
-4.3167259055118112
11
6.8348579133858269
21
-4.3129763779527561
0
LINE
8
BLACK
6
CONTINUOUS
10
6.8348579133858269
20
-4.3129763779527561
11
6.8311083858267718
21
-4.3054772834645672
0
LINE
8
BLACK
6
CONTINUOUS
10
6.8311083858267718
20
-4.3054772834645672
11
6.8311083858267718
21
-4.2379857480314955
0
LINE
8
BLACK
6
CONTINUOUS
10
6.9023494881889764
20
-4.3129763779527561
11
6.8948504330708662
21
-4.3167259055118112
0
LINE
8
BLACK
6
CONTINUOUS
10
6.8948504330708662
20
-4.3167259055118112
11
6.879852283464567
21
-4.3167259055118112
0
LINE
8
BLACK
6
CONTINUOUS
10
6.879852283464567
20
-4.3167259055118112
11
6.8723532283464568
21
-4.3129763779527561
0
LINE
8
BLACK
6
CONTINUOUS
10
6.8723532283464568
20
-4.3129763779527561
11
6.8686037007874017
21
-4.3054772834645672
0
LINE
8
BLACK
6
CONTINUOUS
10
6.8686037007874017
20
-4.3054772834645672
11
6.8686037007874017
21
-4.2754810629921263
0
LINE
8
BLACK
6
CONTINUOUS
10
6.8686037007874017
20
-4.2754810629921263
11
6.8723532283464568
21
-4.2679819685039373
0
LINE
8
BLACK
6
CONTINUOUS
10
6.8723532283464568
20
-4.2679819685039373
11
6.879852283464567
21
-4.2642324409448822
0
LINE
8
BLACK
6
CONTINUOUS
10
6.879852283464567
20
-4.2642324409448822
11
6.8948504330708662
21
-4.2642324409448822
0
LINE
8
BLACK
6
CONTINUOUS
10
6.8948504330708662
20
-4.2642324409448822
11
6.9023494881889764
21
-4.2679819685039373
0
LINE
8
BLACK
6
CONTINUOUS
10
6.9023494881889764
20
-4.2679819685039373
11
6.9060990157480315
21
-4.2754810629921263
0
LINE
8
BLACK
6
CONTINUOUS
10
6.9060990157480315
20
-4.2754810629921263
11
6.9060990157480315
21
-4.2829801181102365
0
LINE
8
BLACK
6
CONTINUOUS
10
6.9060990157480315
20
-4.2829801181102365
11
6.8686037007874017
21
-4.2904791732283467
0
LINE
8
BLACK
6
CONTINUOUS
10
6.9360952755905512
20
-4.3129763779527561
11
6.9435943307086614
21
-4.3167259055118112
0
LINE
8
BLACK
6
CONTINUOUS
10
6.9435943307086614
20
-4.3167259055118112
11
6.9585924409448818
21
-4.3167259055118112
0
LINE
8
BLACK
6
CONTINUOUS
10
6.9585924409448818
20
-4.3167259055118112
11
6.9660915354330708
21
-4.3129763779527561
0
LINE
8
BLACK
6
CONTINUOUS
10
6.9660915354330708
20
-4.3129763779527561
11
6.9698410629921259
21
-4.3054772834645672
0
LINE
8
BLACK
6
CONTINUOUS
10
6.9698410629921259
20
-4.3054772834645672
11
6.9698410629921259
21
-4.301727755905512
0
LINE
8
BLACK
6
CONTINUOUS
10
6.9698410629921259
20
-4.301727755905512
11
6.9660915354330708
21
-4.2942287007874018
0
LINE
8
BLACK
6
CONTINUOUS
10
6.9660915354330708
20
-4.2942287007874018
11
6.9585924409448818
21
-4.2904791732283467
0
LINE
8
BLACK
6
CONTINUOUS
10
6.9585924409448818
20
-4.2904791732283467
11
6.9473438582677165
21
-4.2904791732283467
0
LINE
8
BLACK
6
CONTINUOUS
10
6.9473438582677165
20
-4.2904791732283467
11
6.9398448031496063
21
-4.2867296456692916
0
LINE
8
BLACK
6
CONTINUOUS
10
6.9398448031496063
20
-4.2867296456692916
11
6.9360952755905512
21
-4.2792305905511814
0
LINE
8
BLACK
6
CONTINUOUS
10
6.9360952755905512
20
-4.2792305905511814
11
6.9360952755905512
21
-4.2754810629921263
0
LINE
8
BLACK
6
CONTINUOUS
10
6.9360952755905512
20
-4.2754810629921263
11
6.9398448031496063
21
-4.2679819685039373
0
LINE
8
BLACK
6
CONTINUOUS
10
6.9398448031496063
20
-4.2679819685039373
11
6.9473438582677165
21
-4.2642324409448822
0
LINE
8
BLACK
6
CONTINUOUS
10
6.9473438582677165
20
-4.2642324409448822
11
6.9585924409448818
21
-4.2642324409448822
0
LINE
8
BLACK
6
CONTINUOUS
10
6.9585924409448818
20
-4.2642324409448822
11
6.9660915354330708
21
-4.2679819685039373
0
LINE
8
BLACK
6
CONTINUOUS
10
6.9960877952755904
20
-4.3467221259842521
11
6.9998373228346455
21
-4.342972598425197
0
LINE
8
BLACK
6
CONTINUOUS
10
6.9998373228346455
20
-4.342972598425197
11
7.0073363779527558
21
-4.3317240157480317
0
LINE
8
BLACK
6
CONTINUOUS
10
7.0073363779527558
20
-4.3317240157480317
11
7.0110859055118109
21
-4.3242249606299215
0
LINE
8
BLACK
6
CONTINUOUS
10
7.0110859055118109
20
-4.3242249606299215
11
7.014835433070866
21
-4.3129763779527561
0
LINE
8
BLACK
6
CONTINUOUS
10
7.014835433070866
20
-4.3129763779527561
11
7.0185849606299211
21
-4.2942287007874018
0
LINE
8
BLACK
6
CONTINUOUS
10
7.0185849606299211
20
-4.2942287007874018
11
7.0185849606299211
21
-4.2792305905511814
0
LINE
8
BLACK
6
CONTINUOUS
10
7.0185849606299211
20
-4.2792305905511814
11
7.014835433070866
21
-4.2604829133858271
0
LINE
8
BLACK
6
CONTINUOUS
10
7.014835433070866
20
-4.2604829133858271
11
7.0110859055118109
21
-4.2492343307086617
0
LINE
8
BLACK
6
CONTINUOUS
10
7.0110859055118109
20
-4.2492343307086617
11
7.0073363779527558
21
-4.2417352755905515
0
LINE
8
BLACK
6
CONTINUOUS
10
7.0073363779527558
20
-4.2417352755905515
11
6.9998373228346455
21
-4.2304866535433066
0
LINE
8
BLACK
6
CONTINUOUS
10
6.9998373228346455
20
-4.2304866535433066
11
6.9960877952755904
21
-4.2267371259842514
  0
ENDSEC
  0
EOF
