  0
SECTION
  2
HEADER
  9
$ANGBASE
  50
0.0
  9
$ANGDIR
  70
1
  9
$MEASUREMENT
  70
0
  0
ENDSEC
  0
SECTION
  2
TABLES
  0
TABLE
  2
LTYPE
  70
4
  0
LTYPE
  5
40F
  2
CONTINUOUS
  70
0
  3
Solid line
  72
65
  73
0
  40
0.0
  0
LTYPE
  5
410
  2
DASHDOT
 70
0
  3
Dash Dot ____ _ ____ _
 72
65
 73
4
 40
2.0
 49
1.25
 49
-0.25
 49
0.25
 49
-0.25
  0
LTYPE
  5
411
  2
DASHED
 70
0
  3
Dashed __ __ __ __ __
 72
65
 73
2
 40
0.75
 49
0.5
 49
-0.25
  0
LTYPE
  5
43B
  2
DOTTED
 70
0
  3
Dotted .  .  .  .
 72
65
 73
2
 40
0.2
 49
0.0
 49
-0.2
  0
ENDTAB
  0
TABLE
  2
STYLE
  70
4
  0
STYLE
  2
KICAD
  70
0
  40
0
  41
1
  42
1
  50
0
  71
0
  3
isocp.shx
  0
STYLE
  2
KICADB
  70
0
  40
0
  41
1
  42
1
  50
0
  71
0
  3
isocp.shx
  0
STYLE
  2
KICADI
  70
0
  40
0
  41
1
  42
1
  50
15
  71
0
  3
isocp.shx
  0
STYLE
  2
KICADBI
  70
0
  40
0
  41
1
  42
1
  50
15
  71
0
  3
isocp.shx
  0
ENDTAB
  0
TABLE
  2
LAYER
  70
1
  0
LAYER
  2
BLACK
  70
0
  62
7
  6
CONTINUOUS
  0
ENDTAB
  0
ENDSEC
  0
SECTION
  2
ENTITIES
0
LINE
8
BLACK
6
CONTINUOUS
10
5.1181102362204722
20
-3.1692913385826773
11
6.4566929133858268
21
-3.1692913385826773
0
LINE
8
BLACK
6
CONTINUOUS
10
6.4566929133858268
20
-3.1692913385826773
11
6.4566929133858268
21
-3.8188976377952755
0
LINE
8
BLACK
6
CONTINUOUS
10
6.4566929133858268
20
-3.8188976377952755
11
5.1181102362204722
21
-3.8188976377952755
0
LINE
8
BLACK
6
CONTINUOUS
10
5.1181102362204722
20
-3.8188976377952755
11
5.1181102362204722
21
-3.1692913385826773
0
LINE
8
BLACK
6
CONTINUOUS
10
5.2188097637795279
20
-3.943497559055118
11
5.2188097637795279
21
-3.8647574015748032
0
LINE
8
BLACK
6
CONTINUOUS
10
5.2188097637795279
20
-3.8647574015748032
11
5.2375574015748034
21
-3.8647574015748032
0
LINE
8
BLACK
6
CONTINUOUS
10
5.2375574015748034
20
-3.8647574015748032
11
5.2488060236220475
21
-3.8685069291338583
0
LINE
8
BLACK
6
CONTINUOUS
10
5.2488060236220475
20
-3.8685069291338583
11
5.2563050787401577
21
-3.8760059842519685
0
LINE
8
BLACK
6
CONTINUOUS
10
5.2563050787401577
20
-3.8760059842519685
11
5.2600546062992128
21
-3.8835050393700787
0
LINE
8
BLACK
6
CONTINUOUS
10
5.2600546062992128
20
-3.8835050393700787
11
5.263804133858268
21
-3.8985031496062992
0
LINE
8
BLACK
6
CONTINUOUS
10
5.263804133858268
20
-3.8985031496062992
11
5.263804133858268
21
-3.9097517716535433
0
LINE
8
BLACK
6
CONTINUOUS
10
5.263804133858268
20
-3.9097517716535433
11
5.2600546062992128
21
-3.9247498818897637
0
LINE
8
BLACK
6
CONTINUOUS
10
5.2600546062992128
20
-3.9247498818897637
11
5.2563050787401577
21
-3.9322489370078739
0
LINE
8
BLACK
6
CONTINUOUS
10
5.2563050787401577
20
-3.9322489370078739
11
5.2488060236220475
21
-3.9397480314960629
0
LINE
8
BLACK
6
CONTINUOUS
10
5.2488060236220475
20
-3.9397480314960629
11
5.2375574015748034
21
-3.943497559055118
0
LINE
8
BLACK
6
CONTINUOUS
10
5.2375574015748034
20
-3.943497559055118
11
5.2188097637795279
21
-3.943497559055118
0
LINE
8
BLACK
6
CONTINUOUS
10
5.2975499212598427
20
-3.943497559055118
11
5.2975499212598427
21
-3.891004094488189
0
LINE
8
BLACK
6
CONTINUOUS
10
5.2975499212598427
20
-3.9060022440944882
11
5.3012994488188978
21
-3.8985031496062992
0
LINE
8
BLACK
6
CONTINUOUS
10
5.3012994488188978
20
-3.8985031496062992
11
5.3050489763779529
21
-3.8947536220472441
0
LINE
8
BLACK
6
CONTINUOUS
10
5.3050489763779529
20
-3.8947536220472441
11
5.3125480314960631
21
-3.891004094488189
0
LINE
8
BLACK
6
CONTINUOUS
10
5.3125480314960631
20
-3.891004094488189
11
5.3200471259842521
21
-3.891004094488189
0
LINE
8
BLACK
6
CONTINUOUS
10
5.3462938188976379
20
-3.943497559055118
11
5.3462938188976379
21
-3.891004094488189
0
LINE
8
BLACK
6
CONTINUOUS
10
5.3462938188976379
20
-3.8647574015748032
11
5.3425442913385828
21
-3.8685069291338583
0
LINE
8
BLACK
6
CONTINUOUS
10
5.3425442913385828
20
-3.8685069291338583
11
5.3462938188976379
21
-3.8722564566929134
0
LINE
8
BLACK
6
CONTINUOUS
10
5.3462938188976379
20
-3.8722564566929134
11
5.350043346456693
21
-3.8685069291338583
0
LINE
8
BLACK
6
CONTINUOUS
10
5.350043346456693
20
-3.8685069291338583
11
5.3462938188976379
21
-3.8647574015748032
0
LINE
8
BLACK
6
CONTINUOUS
10
5.3462938188976379
20
-3.8647574015748032
11
5.3462938188976379
21
-3.8722564566929134
0
LINE
8
BLACK
6
CONTINUOUS
10
5.3950377165354331
20
-3.943497559055118
11
5.3875386614173228
21
-3.9397480314960629
0
LINE
8
BLACK
6
CONTINUOUS
10
5.3875386614173228
20
-3.9397480314960629
11
5.3837891338582677
21
-3.9322489370078739
0
LINE
8
BLACK
6
CONTINUOUS
10
5.3837891338582677
20
-3.9322489370078739
11
5.3837891338582677
21
-3.8647574015748032
0
LINE
8
BLACK
6
CONTINUOUS
10
5.436282559055118
20
-3.943497559055118
11
5.4287835039370078
21
-3.9397480314960629
0
LINE
8
BLACK
6
CONTINUOUS
10
5.4287835039370078
20
-3.9397480314960629
11
5.4250339763779527
21
-3.9322489370078739
0
LINE
8
BLACK
6
CONTINUOUS
10
5.4250339763779527
20
-3.9322489370078739
11
5.4250339763779527
21
-3.8647574015748032
0
LINE
8
BLACK
6
CONTINUOUS
10
5.5262713385826769
20
-3.943497559055118
11
5.5262713385826769
21
-3.8647574015748032
0
LINE
8
BLACK
6
CONTINUOUS
10
5.5262713385826769
20
-3.8647574015748032
11
5.5525180708661415
21
-3.9210003543307086
0
LINE
8
BLACK
6
CONTINUOUS
10
5.5525180708661415
20
-3.9210003543307086
11
5.5787647637795272
21
-3.8647574015748032
0
LINE
8
BLACK
6
CONTINUOUS
10
5.5787647637795272
20
-3.8647574015748032
11
5.5787647637795272
21
-3.943497559055118
0
LINE
8
BLACK
6
CONTINUOUS
10
5.6500058661417318
20
-3.943497559055118
11
5.6500058661417318
21
-3.902252716535433
0
LINE
8
BLACK
6
CONTINUOUS
10
5.6500058661417318
20
-3.902252716535433
11
5.6462563385826767
21
-3.8947536220472441
0
LINE
8
BLACK
6
CONTINUOUS
10
5.6462563385826767
20
-3.8947536220472441
11
5.6387572834645665
21
-3.891004094488189
0
LINE
8
BLACK
6
CONTINUOUS
10
5.6387572834645665
20
-3.891004094488189
11
5.6237591338582673
21
-3.891004094488189
0
LINE
8
BLACK
6
CONTINUOUS
10
5.6237591338582673
20
-3.891004094488189
11
5.6162600787401571
21
-3.8947536220472441
0
LINE
8
BLACK
6
CONTINUOUS
10
5.6500058661417318
20
-3.9397480314960629
11
5.6425068110236216
21
-3.943497559055118
0
LINE
8
BLACK
6
CONTINUOUS
10
5.6425068110236216
20
-3.943497559055118
11
5.6237591338582673
21
-3.943497559055118
0
LINE
8
BLACK
6
CONTINUOUS
10
5.6237591338582673
20
-3.943497559055118
11
5.6162600787401571
21
-3.9397480314960629
0
LINE
8
BLACK
6
CONTINUOUS
10
5.6162600787401571
20
-3.9397480314960629
11
5.612510551181102
21
-3.9322489370078739
0
LINE
8
BLACK
6
CONTINUOUS
10
5.612510551181102
20
-3.9322489370078739
11
5.612510551181102
21
-3.9247498818897637
0
LINE
8
BLACK
6
CONTINUOUS
10
5.612510551181102
20
-3.9247498818897637
11
5.6162600787401571
21
-3.9172508267716535
0
LINE
8
BLACK
6
CONTINUOUS
10
5.6162600787401571
20
-3.9172508267716535
11
5.6237591338582673
21
-3.9135012992125984
0
LINE
8
BLACK
6
CONTINUOUS
10
5.6237591338582673
20
-3.9135012992125984
11
5.6425068110236216
21
-3.9135012992125984
0
LINE
8
BLACK
6
CONTINUOUS
10
5.6425068110236216
20
-3.9135012992125984
11
5.6500058661417318
21
-3.9097517716535433
0
LINE
8
BLACK
6
CONTINUOUS
10
5.6875011811023617
20
-3.891004094488189
11
5.6875011811023617
21
-3.9697442519685038
0
LINE
8
BLACK
6
CONTINUOUS
10
5.6875011811023617
20
-3.8947536220472441
11
5.6950002362204719
21
-3.891004094488189
0
LINE
8
BLACK
6
CONTINUOUS
10
5.6950002362204719
20
-3.891004094488189
11
5.7099983858267711
21
-3.891004094488189
0
LINE
8
BLACK
6
CONTINUOUS
10
5.7099983858267711
20
-3.891004094488189
11
5.7174974409448813
21
-3.8947536220472441
0
LINE
8
BLACK
6
CONTINUOUS
10
5.7174974409448813
20
-3.8947536220472441
11
5.7212469685039364
21
-3.8985031496062992
0
LINE
8
BLACK
6
CONTINUOUS
10
5.7212469685039364
20
-3.8985031496062992
11
5.7249964960629924
21
-3.9060022440944882
0
LINE
8
BLACK
6
CONTINUOUS
10
5.7249964960629924
20
-3.9060022440944882
11
5.7249964960629924
21
-3.9284994094488188
0
LINE
8
BLACK
6
CONTINUOUS
10
5.7249964960629924
20
-3.9284994094488188
11
5.7212469685039364
21
-3.935998464566929
0
LINE
8
BLACK
6
CONTINUOUS
10
5.7212469685039364
20
-3.935998464566929
11
5.7174974409448813
21
-3.9397480314960629
0
LINE
8
BLACK
6
CONTINUOUS
10
5.7174974409448813
20
-3.9397480314960629
11
5.7099983858267711
21
-3.943497559055118
0
LINE
8
BLACK
6
CONTINUOUS
10
5.7099983858267711
20
-3.943497559055118
11
5.6950002362204719
21
-3.943497559055118
0
LINE
8
BLACK
6
CONTINUOUS
10
5.6950002362204719
20
-3.943497559055118
11
5.6875011811023617
21
-3.9397480314960629
0
LINE
8
BLACK
6
CONTINUOUS
10
5.7587422834645672
20
-3.935998464566929
11
5.7624918110236223
21
-3.9397480314960629
0
LINE
8
BLACK
6
CONTINUOUS
10
5.7624918110236223
20
-3.9397480314960629
11
5.7587422834645672
21
-3.943497559055118
0
LINE
8
BLACK
6
CONTINUOUS
10
5.7587422834645672
20
-3.943497559055118
11
5.7549927559055121
21
-3.9397480314960629
0
LINE
8
BLACK
6
CONTINUOUS
10
5.7549927559055121
20
-3.9397480314960629
11
5.7587422834645672
21
-3.935998464566929
0
LINE
8
BLACK
6
CONTINUOUS
10
5.7587422834645672
20
-3.935998464566929
11
5.7587422834645672
21
-3.943497559055118
0
LINE
8
BLACK
6
CONTINUOUS
10
5.7587422834645672
20
-3.8947536220472441
11
5.7624918110236223
21
-3.8985031496062992
0
LINE
8
BLACK
6
CONTINUOUS
10
5.7624918110236223
20
-3.8985031496062992
11
5.7587422834645672
21
-3.902252716535433
0
LINE
8
BLACK
6
CONTINUOUS
10
5.7587422834645672
20
-3.902252716535433
11
5.7549927559055121
21
-3.8985031496062992
0
LINE
8
BLACK
6
CONTINUOUS
10
5.7549927559055121
20
-3.8985031496062992
11
5.7587422834645672
21
-3.8947536220472441
0
LINE
8
BLACK
6
CONTINUOUS
10
5.7587422834645672
20
-3.8947536220472441
11
5.7587422834645672
21
-3.902252716535433
  0
ENDSEC
  0
EOF
