%TF.GenerationSoftware,KiCad,Pcbnew,7.0.10*%
%TF.CreationDate,2024-05-09T00:22:21+08:00*%
%TF.ProjectId,pcb.rescue,7063622e-7265-4736-9375-652e6b696361,rev?*%
%TF.SameCoordinates,Original*%
%TF.FileFunction,Copper,L2,Bot*%
%TF.FilePolarity,Positive*%
%FSLAX46Y46*%
G04 Gerber Fmt 4.6, Leading zero omitted, Abs format (unit mm)*
G04 Created by KiCad (PCBNEW 7.0.10) date 2024-05-09 00:22:21*
%MOMM*%
%LPD*%
G01*
G04 APERTURE LIST*
%TA.AperFunction,ComponentPad*%
%ADD10C,1.400000*%
%TD*%
%TA.AperFunction,ComponentPad*%
%ADD11O,1.400000X1.400000*%
%TD*%
%TA.AperFunction,ComponentPad*%
%ADD12C,1.600000*%
%TD*%
%TA.AperFunction,ComponentPad*%
%ADD13R,1.600000X1.600000*%
%TD*%
%TA.AperFunction,ComponentPad*%
%ADD14R,1.700000X1.700000*%
%TD*%
%TA.AperFunction,ComponentPad*%
%ADD15O,1.700000X1.700000*%
%TD*%
%TA.AperFunction,Conductor*%
%ADD16C,0.250000*%
%TD*%
G04 APERTURE END LIST*
D10*
%TO.P,R3,1*%
%TO.N,+3V3*%
X141000000Y-83000000D03*
D11*
%TO.P,R3,2*%
%TO.N,/SCL*%
X148620000Y-83000000D03*
%TD*%
D12*
%TO.P,C1,1*%
%TO.N,+3V3*%
X151000000Y-95000000D03*
%TO.P,C1,2*%
%TO.N,GND*%
X148500000Y-95000000D03*
%TD*%
D10*
%TO.P,R2,1*%
%TO.N,+3V3*%
X141000000Y-88000000D03*
D11*
%TO.P,R2,2*%
%TO.N,/SDA*%
X148620000Y-88000000D03*
%TD*%
D12*
%TO.P,C3,1*%
%TO.N,Net-(U1-C1)*%
X151000000Y-92000000D03*
%TO.P,C3,2*%
%TO.N,GND*%
X148500000Y-92000000D03*
%TD*%
D13*
%TO.P,C2,1*%
%TO.N,+3V3*%
X141000000Y-93000000D03*
D12*
%TO.P,C2,2*%
%TO.N,GND*%
X143500000Y-93000000D03*
%TD*%
D10*
%TO.P,R1,1*%
%TO.N,+3V3*%
X141000000Y-85500000D03*
D11*
%TO.P,R1,2*%
%TO.N,Net-(U1-~{CS})*%
X148620000Y-85500000D03*
%TD*%
D14*
%TO.P,J1,1,Pin_1*%
%TO.N,+3V3*%
X133000000Y-84500000D03*
D15*
%TO.P,J1,2,Pin_2*%
%TO.N,/SDA*%
X133000000Y-87040000D03*
%TO.P,J1,3,Pin_3*%
%TO.N,/SCL*%
X133000000Y-89580000D03*
%TO.P,J1,4,Pin_4*%
%TO.N,GND*%
X133000000Y-92120000D03*
%TD*%
D16*
%TO.N,+3V3*%
X151000000Y-95000000D02*
X149875000Y-96125000D01*
X149875000Y-96125000D02*
X144125000Y-96125000D01*
X144125000Y-96125000D02*
X141000000Y-93000000D01*
%TO.N,GND*%
X145500000Y-95000000D02*
X143500000Y-93000000D01*
X148500000Y-95000000D02*
X145500000Y-95000000D01*
%TO.N,/SDA*%
X133065000Y-86975000D02*
X147595000Y-86975000D01*
X147595000Y-86975000D02*
X148620000Y-88000000D01*
X133000000Y-87040000D02*
X133065000Y-86975000D01*
%TO.N,/SCL*%
X133175000Y-81975000D02*
X131825000Y-83325000D01*
X131825000Y-88405000D02*
X133000000Y-89580000D01*
X131825000Y-83325000D02*
X131825000Y-88405000D01*
X148620000Y-83000000D02*
X147595000Y-81975000D01*
X147595000Y-81975000D02*
X133175000Y-81975000D01*
%TD*%
M02*
